<?xml version="1.0" encoding="UTF-8"?>
<svg xmlns="http://www.w3.org/2000/svg" xmlns:xlink="http://www.w3.org/1999/xlink" width="1400" height="1400" viewBox="0 0 1400 1400">
  <rect width="1400" height="1400" fill="white"/>
  <path d="M270.16,701.35 L265.21,698.89 L262.99,696.00 L263.67,692.74 L266.28,689.21 L269.04,685.48 L270.19,681.64 L268.66,677.77 L264.48,673.98 L258.79,670.40 L253.30,667.18 L249.65,664.44 L248.68,662.25 L250.14,660.53 L252.81,659.09 L255.07,657.67 L255.62,655.99 L254.03,653.84 L251.05,651.19 L248.27,648.14 L247.52,644.91 L250.11,641.75 L256.26,638.82 L264.91,636.17 L274.08,633.67 L281.55,631.15 L285.64,628.44 L285.78,625.47 L282.64,622.34 L277.81,619.28 L273.07,616.51 L269.75,614.19 L268.20,612.26 L267.78,610.48 L267.22,608.46 L265.34,605.83 L261.60,602.39 L256.48,598.19 L251.36,593.58 L247.98,589.05 L247.74,585.10 L251.04,582.02 L257.03,579.78 L263.83,578.04 L269.15,576.28 L271.07,574.00 L268.75,570.88 L262.66,566.96 L254.44,562.58 L246.28,558.23 L240.19,554.39 L237.37,551.36 L238.05,549.14 L241.64,547.51 L247.33,546.21 L254.64,545.16 L263.89,544.57 L276.15,545.01 L292.88,547.22 L315.22,551.87 L343.39,559.30 L376.29,569.30 L411.59,581.10 L446.30,593.54 L477.50,605.38 L503.14,615.60 L522.44,623.63 L535.91,629.42 L544.90,633.28 L550.93,635.66 L555.04,636.86 L557.51,636.90 L557.92,635.52 L555.60,632.41 L550.20,627.48 L542.20,621.03 L533.01,613.90 L524.67,607.27 L519.26,602.37 L518.22,600.12 L521.85,600.81 L529.20,604.00 L538.43,608.70 L547.45,613.65 L554.63,617.78 L559.30,620.51 L561.85,621.86 L563.41,622.31 L565.27,622.52 L568.26,622.97 L572.36,623.69 L576.72,624.26 L580.00,623.97 L581.03,622.23 L579.30,618.81 L575.25,614.14 L570.22,609.16 L565.91,605.08 L563.79,602.91 L564.54,603.14 L567.83,605.48 L572.49,608.99 L576.99,612.42 L580.04,614.67 L581.16,615.18 L580.79,614.14 L580.09,612.34 L580.46,610.85 L582.89,610.55 L587.57,611.76 L593.75,614.11 L600.03,616.68 L604.90,618.45 L607.35,618.67 L607.19,617.25 L605.15,614.77 L602.56,612.29 L600.77,610.88 L600.68,611.17 L602.33,613.08 L605.00,615.79 L607.50,618.05 L608.76,618.74 L608.27,617.25 L606.35,613.84 L604.04,609.52 L602.69,605.71 L603.40,603.72 L606.59,604.20 L611.78,606.96 L617.77,611.02 L623.08,615.00 L626.50,617.69 L627.51,618.46 L626.45,617.54 L624.32,615.78 L622.35,614.30 L621.49,613.93 L622.04,614.83 L623.55,616.36 L625.10,617.34 L625.66,616.52 L624.61,613.20 L622.04,607.51 L618.69,600.51 L615.76,593.84 L614.35,589.15 L615.09,587.50 L617.87,589.00 L621.87,592.79 L625.90,597.38 L628.88,601.29 L630.22,603.55 L630.08,604.09 L629.24,603.68 L628.77,603.54 L629.60,604.77 L632.15,607.83 L636.14,612.30 L640.72,617.02 L644.85,620.55 L647.69,621.77 L648.92,620.40 L648.88,617.14 L648.35,613.46 L648.25,611.00 L649.21,610.99 L651.34,613.70 L654.13,618.36 L656.74,623.40 L658.27,627.10 L658.21,628.22 L656.61,626.45 L654.08,622.53 L651.58,617.86 L650.03,613.98 L649.96,611.87 L651.32,611.62 L653.55,612.38 L655.76,612.81 L657.18,611.64 L657.39,608.33 L656.50,603.35 L655.07,598.03 L653.91,594.13 L653.67,593.11 L654.64,595.57 L656.63,600.97 L659.08,607.79 L661.28,614.14 L662.73,618.43 L663.28,619.96 L663.24,619.12 L663.21,617.21 L663.83,615.81 L665.47,616.11 L668.12,618.43 L671.30,622.02 L674.29,625.43 L676.37,627.10 L677.10,626.03 L676.45,622.24 L674.84,616.84 L672.92,611.55 L671.35,608.10 L670.57,607.50 L670.66,609.63 L671.35,613.34 L672.22,616.83 L672.88,618.41 L673.12,617.19 L673.07,613.36 L673.03,608.17 L673.40,603.36 L674.46,600.48 L676.19,600.23 L678.32,602.23 L680.37,605.18 L681.83,607.43 L682.38,607.72 L682.00,605.72 L680.97,602.24 L679.77,598.92 L678.91,597.60 L678.79,599.56 L679.52,605.00 L680.98,612.90 L682.87,621.39 L684.83,628.42 L686.61,632.52 L688.10,633.28 L689.33,631.45 L690.45,628.50 L691.54,625.98 L692.59,624.82 L693.49,624.92 L694.04,625.23 L694.05,624.24 L693.44,620.66 L692.31,614.09 L690.91,605.31 L689.58,596.16 L688.66,588.88 L688.40,585.36 L688.87,586.45 L690.03,591.69 L691.68,599.50 L693.59,607.79 L695.56,614.74 L697.41,619.40 L699.05,621.98 L700.40,623.54 L701.41,625.45 L702.03,628.64 L702.23,633.13 L702.02,637.96 L701.48,641.54 L700.76,642.30 L700.05,639.47 L699.54,633.46 L699.36,625.80 L699.58,618.72 L700.17,614.31 L701.04,613.80 L702.09,617.13 L703.23,622.98 L704.43,629.27 L705.67,634.00 L706.91,635.86 L708.09,634.73 L709.10,631.49 L709.80,627.62 L710.10,624.42 L709.98,622.48 L709.60,621.37 L709.20,619.95 L709.10,616.88 L709.56,611.34 L710.69,603.56 L712.40,594.92 L714.39,587.54 L716.27,583.63 L717.68,584.64 L718.39,590.75 L718.38,600.77 L717.84,612.54 L717.04,623.65 L716.26,632.25 L715.63,637.56 L715.13,639.95 L714.62,640.59 L713.93,640.79 L713.05,641.34 L712.14,642.16 L711.57,642.34 L711.76,640.62 L713.07,636.06 L715.60,628.59 L719.10,619.28 L722.99,610.06 L726.56,603.13 L729.15,600.20 L730.38,601.79 L730.30,607.09 L729.30,614.14 L728.04,620.53 L727.17,624.13 L727.16,623.78 L728.16,619.47 L730.06,612.10 L732.64,602.98 L735.75,593.07 L739.49,582.58 L744.22,570.89 L750.44,556.85 L758.57,539.47 L768.74,518.48 L780.56,494.71 L793.19,470.05 L805.52,446.91 L816.42,427.53 L825.13,413.28 L831.39,404.29 L835.49,399.55 L838.12,397.37 L840.02,396.08 L841.73,394.72 L843.40,393.27 L844.77,392.58 L845.42,393.84 L845.00,397.95 L843.54,404.94 L841.51,413.83 L839.76,422.82 L839.24,429.89 L840.68,433.50 L844.32,433.03 L849.81,428.98 L856.37,422.64 L863.07,415.55 L869.26,408.80 L874.78,402.66 L880.06,396.46 L885.92,389.00 L893.23,379.13 L902.50,366.32 L913.66,351.09 L926.00,334.87 L938.40,319.63 L949.72,307.19 L959.21,298.64 L966.70,293.96 L972.65,292.16 L977.90,291.69 L983.24,291.06 L989.07,289.46 L995.20,286.98 L1000.92,284.53 L1005.29,283.34 L1007.59,284.44 L1007.62,288.15 L1005.85,293.94 L1003.29,300.65 L1001.08,306.98 L1000.03,312.12 L1000.29,316.06 L1001.19,319.74 L1001.51,324.68 L999.88,332.44 L995.31,343.97 L987.55,359.26 L977.20,377.27 L965.49,396.25 L953.85,414.33 L943.42,430.11 L934.75,442.97 L927.71,453.17 L921.77,461.46 L916.42,468.64 L911.56,475.03 L907.78,480.31 L906.21,483.53 L908.18,483.58 L914.68,479.66 L925.91,471.74 L941.07,460.70 L958.51,448.13 L976.22,435.88 L992.37,425.49 L1005.87,417.73 L1016.60,412.46 L1025.25,408.80 L1032.95,405.60 L1040.66,401.95 L1048.79,397.56 L1057.00,392.85 L1064.41,388.75 L1070.06,386.28 L1073.41,386.03 L1074.65,387.95 L1074.80,391.27 L1075.31,394.84 L1077.55,397.52 L1082.26,398.70 L1089.17,398.48 L1097.10,397.65 L1104.30,397.38 L1109.12,398.69 L1110.59,402.13 L1108.73,407.49 L1104.58,413.92 L1099.71,420.28 L1095.68,425.56 L1093.42,429.26 L1093.01,431.57 L1093.70,433.20 L1094.40,435.09 L1094.26,437.96 L1093.08,441.97 L1091.54,446.70 L1090.97,451.25 L1092.76,454.65 L1097.80,456.24 L1106.00,455.98 L1116.18,454.46 L1126.42,452.70 L1134.65,451.79 L1139.35,452.52 L1139.99,455.13 L1137.18,459.26 L1132.24,464.22 L1126.70,469.30 L1121.58,474.09 L1117.02,478.68 L1112.30,483.60 L1106.16,489.56 L1097.51,497.14 L1085.94,506.46 L1072.06,517.08 L1057.38,528.12 L1043.84,538.49 L1033.09,547.27 L1025.91,553.99 L1021.96,558.77 L1019.92,562.18 L1018.07,565.00 L1014.98,567.89 L1010.07,571.18 L1003.82,574.79 L997.57,578.30 L992.89,581.24 L990.93,583.32 L991.89,584.61 L994.92,585.54 L998.41,586.74 L1000.61,588.80 L1000.36,592.00 L997.53,596.23 L993.05,600.96 L988.52,605.47 L985.55,609.10 L985.06,611.49 L986.88,612.69 L989.79,613.15 L991.98,613.51 L991.78,614.38 L988.27,616.12 L981.70,618.78 L973.35,622.09 L965.01,625.63 L958.31,629.05 L954.03,632.17 L951.87,635.07 L950.61,637.99 L948.70,641.20 L944.95,644.80 L939.09,648.70 L931.99,652.54 L925.30,655.85 L920.88,658.22 L919.99,659.42 L922.83,659.54 L928.34,658.92 L934.65,658.09 L939.72,657.57 L942.09,657.72 L941.42,658.70 L938.51,660.41 L934.95,662.61 L932.37,665.04 L931.80,667.48 L933.22,669.86 L935.61,672.19 L937.39,674.52 L937.18,676.86 L934.40,679.14 L929.61,681.19 L924.33,682.83 L920.46,683.92 L919.59,684.45 L922.27,684.53 L927.82,684.40 L934.53,684.37 L940.32,684.71 L943.48,685.59 L943.32,687.06 L940.42,689.04 L936.26,691.40 L932.68,693.97 L931.08,696.61 L931.86,699.17 L934.35,701.56 L937.07,703.68 L938.46,705.44 L937.54,706.78 L934.38,707.68 L930.08,708.21 L926.34,708.50 L924.77,708.75 L926.16,709.17 L930.11,709.92 L935.16,711.07 L939.29,712.58 L940.72,714.35 L938.60,716.24 L933.35,718.16 L926.51,720.07 L920.19,722.00 L916.28,724.00 L915.75,726.06 L918.43,728.13 L923.08,730.05 L928.08,731.67 L932.05,732.85 L934.46,733.63 L935.81,734.16 L937.28,734.77 L940.21,735.80 L945.33,737.51 L952.31,739.95 L959.77,742.95 L965.65,746.13 L967.99,749.03 L965.64,751.28 L958.72,752.70 L948.66,753.34 L937.68,753.48 L928.04,753.49 L921.30,753.66 L917.88,754.11 L917.07,754.74 L917.45,755.35 L917.63,755.73 L916.85,755.83 L915.29,755.84 L913.94,756.14 L914.13,757.22 L916.78,759.41 L921.92,762.75 L928.52,766.93 L934.71,771.32 L938.50,775.15 L938.47,777.80 L934.34,778.96 L927.09,778.77 L918.66,777.73 L911.21,776.53 L906.44,775.78 L904.96,775.81 L906.23,776.61 L908.87,777.83 L911.31,779.09 L912.45,780.09 L912.08,780.88 L910.96,781.78 L910.35,783.34 L911.44,786.01 L914.72,789.94 L919.66,794.81 L924.86,799.90 L928.55,804.25 L929.25,807.04 L926.39,807.85 L920.56,806.82 L913.33,804.64 L906.68,802.28 L902.25,800.66 L900.83,800.32 L902.03,801.30 L904.58,803.15 L906.85,805.20 L907.52,806.84 L906.13,807.85 L903.21,808.48 L900.03,809.30 L898.01,810.99 L898.09,813.94 L900.34,818.06 L903.88,822.73 L907.23,826.97 L908.92,829.81 L908.10,830.70 L904.89,829.68 L900.33,827.46 L895.98,825.14 L893.28,823.80 L892.95,824.12 L894.72,826.11 L897.37,829.14 L899.28,832.20 L899.00,834.28 L895.87,834.82 L890.23,833.89 L883.31,832.15 L876.73,830.55 L871.90,829.93 L869.47,830.66 L869.17,832.48 L870.02,834.64 L870.77,836.22 L870.49,836.60 L869.02,835.74 L866.99,834.34 L865.63,833.54 L866.18,834.57 L869.33,838.21 L874.92,844.48 L881.86,852.57 L888.56,861.08 L893.43,868.55 L895.49,873.90 L894.69,876.83 L891.89,877.83 L888.48,877.93 L885.83,878.24 L884.77,879.43 L885.26,881.53 L886.54,883.87 L887.41,885.45 L886.85,885.43 L884.37,883.50 L880.30,880.14 L875.58,876.45 L871.38,873.78 L868.60,873.13 L867.44,874.76 L867.32,878.01 L867.10,881.53 L865.53,883.72 L861.76,883.39 L855.69,880.13 L848.08,874.54 L840.23,867.96 L833.55,861.96 L829.05,857.78 L826.96,855.91 L826.75,855.96 L827.37,856.93 L827.72,857.70 L827.06,857.59 L825.32,856.64 L823.06,855.64 L821.17,855.78 L820.44,858.07 L821.20,862.82 L823.09,869.44 L825.21,876.45 L826.44,882.05 L825.87,884.71 L823.19,883.74 L818.83,879.55 L813.78,873.54 L809.26,867.58 L806.23,863.34 L805.10,861.73 L805.58,862.67 L806.87,865.25 L807.97,868.17 L808.13,870.37 L807.12,871.50 L805.27,872.01 L803.28,872.93 L801.91,875.30 L801.58,879.61 L802.19,885.42 L803.09,891.35 L803.36,895.52 L802.18,896.19 L799.12,892.46 L794.40,884.66 L788.78,874.32 L783.35,863.76 L779.13,855.35 L776.80,850.86 L776.50,851.05 L777.90,855.65 L780.44,863.78 L783.63,874.57 L787.31,887.63 L791.70,903.34 L797.32,922.64 L804.70,946.52 L814.07,975.37 L825.19,1008.48 L837.28,1043.91 L849.17,1078.84 L859.66,1110.27 L867.79,1135.78 L873.06,1154.15 L875.53,1165.56 L875.66,1171.28 L874.05,1173.12 L871.26,1172.68 L867.58,1170.85 L863.06,1167.74 L857.62,1162.93 L851.27,1156.07 L844.27,1147.48 L837.19,1138.39 L830.81,1130.85 L825.95,1127.17 L823.18,1129.19 L822.65,1137.57 L824.02,1151.47 L826.53,1168.69 L829.20,1186.25 L831.14,1201.24 L831.67,1211.52 L830.50,1216.13 L827.62,1215.21 L823.26,1209.53 L817.65,1199.84 L810.94,1186.38 L803.17,1168.67 L794.36,1145.80 L784.56,1117.00 L774.05,1082.33 L763.29,1043.07 L752.95,1001.75 L743.72,961.69 L736.15,926.17 L730.55,897.62 L726.88,877.04 L724.80,863.96 L723.79,856.77 L723.31,853.47 L722.94,852.44 L722.41,852.87 L721.66,854.86 L720.73,858.99 L719.69,865.74 L718.58,874.85 L717.36,885.10 L715.99,894.49 L714.44,900.81 L712.74,902.41 L711.01,898.81 L709.42,890.91 L708.16,880.75 L707.33,870.78 L706.94,863.12 L706.85,858.82 L706.86,857.67 L706.75,858.44 L706.34,859.50 L705.51,859.61 L704.26,858.38 L702.63,856.50 L700.72,855.36 L698.63,856.40 L696.46,860.43 L694.31,867.20 L692.32,875.37 L690.60,883.01 L689.30,888.30 L688.48,890.22 L688.13,888.99 L688.14,885.95 L688.28,883.02 L688.29,881.99 L687.94,883.78 L687.09,888.14 L685.74,893.71 L683.98,898.68 L682.01,901.46 L679.98,901.33 L678.01,898.74 L676.09,895.05 L674.20,891.98 L672.30,890.81 L670.43,891.86 L668.74,894.31 L667.49,896.53 L666.91,896.68 L667.17,893.52 L668.20,886.90 L669.75,877.87 L671.37,868.27 L672.58,860.08 L672.99,854.66 L672.45,852.33 L671.06,852.30 L669.15,853.11 L667.10,853.33 L665.22,852.19 L663.60,849.98 L662.11,847.92 L660.47,847.66 L658.41,850.54 L655.82,856.97 L652.85,866.11 L649.91,876.07 L647.50,884.53 L646.08,889.50 L645.84,889.98 L646.63,886.28 L647.96,879.80 L649.22,872.48 L649.83,866.11 L649.48,861.75 L648.15,859.54 L646.10,858.98 L643.64,859.45 L640.95,860.82 L637.84,863.84 L633.81,870.13 L628.10,881.70 L619.97,900.19 L609.01,926.26 L595.33,959.04 L579.56,996.28 L562.76,1034.81 L546.12,1071.31 L530.67,1103.13 L517.05,1128.78 L505.46,1147.94 L495.82,1161.15 L487.97,1169.22 L481.89,1172.67 L477.84,1171.49 L476.28,1165.27 L477.62,1153.63 L481.97,1136.85 L488.84,1116.23 L497.13,1094.16 L505.24,1073.75 L511.45,1058.08 L514.31,1049.43 L513.06,1048.69 L507.72,1055.21 L499.06,1067.06 L488.26,1081.67 L476.57,1096.65 L464.97,1110.24 L454.04,1121.59 L444.05,1130.53 L435.21,1137.08 L427.91,1140.97 L422.92,1141.36 L421.32,1136.91 L424.23,1126.21 L432.42,1108.33 L445.95,1083.45 L463.95,1052.96 L484.78,1019.37 L506.32,985.66 L526.50,954.59 L543.78,928.05 L557.44,906.72 L567.55,890.19 L574.73,877.38 L579.73,867.18 L583.04,858.96 L584.69,852.78 L584.35,849.23 L581.63,849.00 L576.42,852.34 L569.22,858.69 L561.15,866.64 L553.74,874.27 L548.51,879.69 L546.43,881.63 L547.63,879.86 L551.34,875.16 L556.16,869.03 L560.57,863.06 L563.43,858.41 L564.34,855.40 L563.71,853.56 L562.45,851.92 L561.55,849.55 L561.57,846.07 L562.38,841.83 L563.18,837.90 L562.84,835.60 L560.38,835.98 L555.42,839.39 L548.39,845.29 L540.43,852.39 L532.95,859.14 L527.12,864.23 L523.40,867.07 L521.40,867.91 L520.02,867.68 L517.95,867.51 L514.20,868.29 L508.51,870.26 L501.55,872.95 L494.58,875.38 L489.01,876.55 L485.81,875.86 L485.11,873.43 L486.12,870.07 L487.43,867.01 L487.58,865.41 L485.58,865.94 L481.34,868.48 L475.61,872.22 L469.71,875.92 L464.91,878.45 L461.91,879.15 L460.56,878.11 L459.86,876.04 L458.45,873.98 L455.16,872.85 L449.52,873.08 L442.05,874.47 L434.06,876.26 L427.16,877.54 L422.67,877.57 L421.05,876.18 L421.74,873.79 L423.37,871.27 L424.32,869.54 L423.31,869.21 L419.98,870.31 L414.95,872.23 L409.63,873.96 L405.57,874.47 L403.89,873.09 L404.80,869.76 L407.55,865.00 L410.75,859.76 L412.97,854.98 L413.34,851.28 L411.98,848.73 L409.90,846.90 L408.62,845.10 L409.51,842.67 L413.20,839.31 L419.25,835.20 L426.24,830.93 L432.32,827.24 L435.84,824.72 L436.02,823.52 L433.19,823.33 L428.64,823.45 L424.10,823.07 L421.03,821.61 L420.08,818.92 L420.83,815.35 L422.06,811.58 L422.29,808.38 L420.47,806.28 L416.46,805.41 L411.19,805.43 L406.26,805.72 L403.38,805.60 L403.61,804.59 L406.96,802.60 L412.31,799.92 L417.83,797.02 L421.68,794.42 L422.67,792.37 L420.70,790.84 L416.74,789.49 L412.38,787.90 L409.11,785.72 L407.72,782.88 L407.91,779.67 L408.42,776.59 L407.56,774.23 L403.91,773.02 L396.93,773.07 L387.27,774.14 L376.49,775.70 L366.55,777.14 L359.01,777.96 L354.48,777.90 L352.35,777.00 L351.14,775.52 L349.04,773.79 L344.72,772.05 L337.83,770.40 L329.10,768.75 L320.06,766.94 L312.38,764.81 L307.08,762.35 L304.20,759.71 L302.66,757.17 L300.75,755.06 L296.85,753.57 L290.10,752.75 L280.82,752.40 L270.44,752.17 L261.01,751.65 L254.41,750.52 L251.70,748.60 L252.70,745.89 L256.12,742.56 L260.14,738.85 L263.10,734.98 L264.15,731.12 L263.57,727.37 L262.54,723.78 L262.58,720.38 L264.83,717.23 L269.48,714.38 L275.59,711.90 L281.45,709.83 L285.17,708.10 L285.48,706.58 L282.23,705.07 L276.49,703.38 Z" fill="none" stroke="#1a1a1a" stroke-width="2.80"/>
  <text x="28" y="1372" font-family="monospace" font-size="23" fill="#888">Fourier trace · 80 harmonics</text>
</svg>