<svg xmlns="http://www.w3.org/2000/svg" viewBox="0 0 350 199">
  <path d="M246.50,23.00 L251.00,22.50 L255.00,25.50 L259.00,23.50 L261.00,23.50 L262.50,25.00 L262.50,31.00 L260.50,34.00 L260.50,36.00 L257.50,43.00 L257.50,46.00 L255.50,48.00 L251.50,56.00 L230.50,83.00 L236.50,91.00 L236.50,101.00 L228.00,110.50 L223.50,113.00 L223.50,116.00 L226.50,121.00 L226.50,123.00 L230.50,131.00 L231.50,136.00 L233.50,139.00 L234.50,144.00 L237.50,149.00 L238.50,154.00 L243.50,165.00 L242.50,172.00 L239.00,174.50 L235.00,174.50 L230.50,172.00 L227.50,166.00 L223.50,153.00 L220.50,148.00 L219.50,143.00 L217.50,140.00 L217.50,138.00 L215.50,135.00 L215.50,133.00 L213.50,130.00 L213.50,128.00 L210.00,119.50 L209.50,123.00 L208.50,124.00 L208.50,128.00 L207.50,129.00 L207.50,133.00 L206.50,134.00 L206.50,138.00 L205.50,139.00 L205.50,143.00 L204.50,144.00 L204.50,148.00 L203.50,149.00 L203.50,153.00 L202.50,154.00 L202.50,158.00 L201.50,159.00 L201.50,163.00 L198.00,167.50 L191.00,167.50 L189.00,166.50 L187.50,164.00 L187.50,156.00 L188.50,155.00 L188.50,151.00 L189.50,150.00 L189.50,146.00 L190.50,145.00 L190.50,141.00 L191.50,140.00 L191.50,136.00 L192.50,135.00 L192.50,131.00 L193.50,130.00 L193.50,126.00 L194.50,125.00 L194.00,121.50 L192.00,121.50 L191.00,122.50 L159.00,122.50 L158.00,121.50 L153.00,121.50 L152.00,120.50 L147.00,119.50 L144.50,121.00 L144.50,124.00 L156.50,148.00 L156.50,155.00 L153.00,158.50 L145.00,158.50 L141.50,155.00 L139.50,151.00 L139.50,149.00 L138.00,147.50 L136.50,150.00 L135.50,158.00 L134.50,159.00 L133.50,165.00 L130.50,173.00 L126.00,175.50 L120.00,174.50 L116.50,170.00 L116.50,164.00 L119.50,157.00 L119.50,153.00 L122.50,146.00 L122.50,142.00 L124.50,138.00 L124.50,135.00 L125.50,134.00 L125.50,131.00 L126.50,130.00 L127.50,125.00 L122.50,116.00 L122.50,112.00 L121.50,110.00 L115.50,105.00 L112.50,99.00 L112.50,93.00 L116.50,86.00 L125.00,79.50 L129.00,78.50 L134.00,75.50 L144.00,73.50 L145.00,72.50 L148.00,72.50 L149.00,71.50 L154.00,71.50 L155.00,70.50 L195.00,70.50 L196.00,71.50 L203.00,72.50 L206.50,70.00 L208.50,66.00 L212.50,62.00 L225.50,44.00 L232.00,37.50 L233.50,37.00 L237.50,29.00 L242.00,24.50Z M248.50,24.00 L250.00,23.50 L252.00,24.50 L255.00,27.50 L258.00,25.50 L260.00,25.50 L261.50,27.00 L261.50,29.00 L258.50,35.00 L258.50,37.00 L256.50,41.00 L256.50,44.00 L252.50,50.00 L250.50,55.00 L229.50,81.00 L229.50,85.00 L235.50,93.00 L235.50,99.00 L233.50,103.00 L227.00,109.50 L224.00,110.50 L221.50,114.00 L224.50,120.00 L225.50,125.00 L228.50,130.00 L232.50,143.00 L235.50,148.00 L237.50,156.00 L241.50,164.00 L241.50,170.00 L239.00,172.50 L234.00,172.50 L230.50,169.00 L227.50,159.00 L222.50,149.00 L220.50,141.00 L215.50,131.00 L213.50,123.00 L210.00,117.50 L208.50,118.00 L208.50,121.00 L207.50,122.00 L207.50,126.00 L206.50,127.00 L206.50,131.00 L205.50,132.00 L205.50,136.00 L204.50,137.00 L204.50,141.00 L203.50,142.00 L203.50,146.00 L202.50,147.00 L200.50,161.00 L198.50,165.00 L196.00,166.50 L193.00,166.50 L188.50,163.00 L188.50,158.00 L189.50,157.00 L189.50,153.00 L190.50,152.00 L192.50,138.00 L194.50,133.00 L194.50,128.00 L196.50,123.00 L196.00,120.50 L189.00,120.50 L188.00,121.50 L187.00,120.50 L163.00,120.50 L162.00,121.50 L161.00,120.50 L156.00,120.50 L155.00,119.50 L151.00,119.50 L150.00,118.50 L145.00,118.50 L143.50,120.00 L143.50,126.00 L155.50,150.00 L155.50,153.00 L153.00,156.50 L151.00,157.50 L147.00,157.50 L142.50,154.00 L140.50,147.00 L139.00,145.50 L137.00,145.50 L135.50,148.00 L135.50,152.00 L134.50,153.00 L134.50,156.00 L130.50,167.00 L130.50,170.00 L127.00,173.50 L122.00,173.50 L120.00,172.50 L117.50,168.00 L117.50,166.00 L118.50,165.00 L118.50,162.00 L120.50,159.00 L120.50,155.00 L121.50,154.00 L121.50,152.00 L123.50,148.00 L123.50,144.00 L126.50,137.00 L126.50,133.00 L128.50,129.00 L128.50,123.00 L124.50,117.00 L123.50,110.00 L117.50,105.00 L113.50,98.00 L113.50,95.00 L116.50,89.00 L122.00,83.50 L131.00,78.50 L133.00,78.50 L136.00,76.50 L138.00,76.50 L142.00,74.50 L146.00,74.50 L147.00,73.50 L151.00,73.50 L152.00,72.50 L156.00,72.50 L157.00,71.50 L192.00,71.50 L193.00,72.50 L198.00,72.50 L199.00,73.50 L205.00,73.50 L208.50,70.00 L210.50,66.00 L228.50,44.00 L228.50,43.00 L235.50,37.00 L239.50,29.00 L242.00,26.50Z" fill="#000000" fill-rule="evenodd" stroke="none"/>
</svg>
