<svg xmlns="http://www.w3.org/2000/svg" viewBox="0 0 350 350">
  <path d="M132.50,8.00 L133.50,8.00 L131.00,10.50 L128.50,11.00Z M13.50,9.00 L14.50,9.00 L14.00,10.50Z M53.50,9.00 L54.00,8.50 L56.50,12.00 L57.00,14.50Z M142.50,9.00 L143.50,9.00 L141.00,11.50 L140.50,11.00Z M153.50,9.00 L154.50,9.00 L147.00,16.50 L146.50,16.00Z M183.50,9.00 L184.50,9.00 L184.00,10.50Z M190.50,9.00 L191.50,9.00 L191.00,10.50Z M197.50,9.00 L198.50,9.00 L198.00,11.50Z M203.50,9.00 L204.00,8.50 L205.50,10.00 L205.00,11.50Z M210.50,9.00 L211.50,9.00 L214.50,15.00 L214.00,16.50Z M245.50,9.00 L247.00,8.50 L251.50,11.00 L250.00,11.50Z M300.50,9.00 L301.50,9.00 L300.00,10.50 L297.00,12.50 L296.50,12.00Z M311.50,9.00 L312.50,9.00 L298.00,23.50 L291.00,28.50 L290.50,28.00 L298.00,22.50Z M21.50,10.00 L22.50,10.00 L22.00,13.50Z M28.50,10.00 L29.50,10.00 L29.00,12.50Z M77.50,10.00 L78.00,9.50 L82.00,12.50 L89.50,16.00 L88.00,16.50 L82.00,13.50Z M161.50,10.00 L167.00,9.50 L168.50,11.00Z M176.50,10.00 L177.50,10.00 L177.00,11.50Z M223.50,10.00 L224.00,9.50 L226.50,12.00 L226.00,12.50Z M234.50,10.00 L235.00,9.50 L244.50,19.00 L244.00,19.50Z M242.50,10.00 L243.00,9.50 L247.50,13.00 L245.00,12.50Z M35.50,11.00 L36.50,11.00 L36.00,12.50Z M49.50,11.00 L50.00,10.50 L51.50,12.00 L58.50,26.00 L58.00,27.50Z M65.50,11.00 L66.00,10.50 L77.50,22.00 L77.00,22.50Z M126.50,12.00 L127.50,12.00 L126.00,13.50 L123.50,14.00Z M138.50,12.00 L139.50,12.00 L133.00,18.50 L132.50,18.00Z M184.50,12.00 L185.50,12.00 L185.00,14.50Z M191.50,12.00 L192.50,12.00 L192.00,14.50Z M14.50,13.00 L15.50,13.00 L15.00,16.50Z M42.50,13.00 L43.50,13.00 L43.00,14.50Z M169.50,13.00 L170.00,12.50 L171.50,14.00 L171.00,15.50Z M177.50,13.00 L178.50,13.00 L178.00,15.50Z M198.50,13.00 L199.50,13.00 L199.00,14.50Z M205.50,13.00 L206.00,12.50 L207.50,15.00 L207.50,17.00 L208.50,18.00 L208.00,20.50Z M254.50,13.00 L256.00,12.50 L259.50,14.00 L257.00,14.50Z M294.50,13.00 L295.50,13.00 L294.00,14.50 L293.50,14.00Z M316.50,13.00 L317.50,13.00 L309.00,21.50 L308.50,21.00Z M29.50,14.00 L30.50,14.00 L30.00,16.50Z M36.50,14.00 L37.50,14.00 L37.00,15.50Z M226.50,14.00 L227.00,13.50 L228.50,15.00 L228.00,15.50Z M248.50,14.00 L249.00,13.50 L257.50,18.00 L256.00,18.50Z M22.50,15.00 L23.50,15.00 L23.00,19.50Z M291.50,15.00 L292.50,15.00 L291.00,16.50 L285.00,19.50 L283.00,19.50 L282.00,20.50 L279.50,20.00 L285.00,18.50Z M57.50,16.00 L58.00,15.50 L59.50,17.00 L59.00,17.50Z M141.50,16.00 L142.50,16.00 L127.00,31.50 L117.00,37.50 L115.50,37.00 L123.00,33.50 L127.00,30.50Z M160.50,16.00 L165.00,15.50 L166.50,17.00 L161.00,16.50 L159.00,17.50 L154.50,22.00 L152.00,27.50 L151.50,26.00 L153.50,22.00Z M192.50,16.00 L193.50,16.00 L193.00,20.50Z M199.50,16.00 L200.50,16.00 L200.00,18.50Z M220.50,16.00 L221.00,15.50 L222.50,17.00 L222.00,17.50Z M37.50,17.00 L38.50,17.00 L38.00,19.50Z M65.50,17.00 L66.00,16.50 L69.50,20.00 L69.00,20.50Z M185.50,17.00 L186.50,17.00 L186.00,29.50Z M228.50,17.00 L229.00,16.50 L231.50,19.00 L233.50,22.00 L233.00,22.50Z M15.50,18.00 L16.50,18.00 L16.00,25.50Z M30.50,18.00 L31.50,18.00 L31.00,21.50Z M44.50,18.00 L45.50,18.00 L45.00,19.50Z M145.50,18.00 L146.50,18.00 L141.00,23.50 L140.50,23.00Z M171.50,18.00 L172.50,18.00 L172.50,25.00 L171.00,27.50Z M59.50,19.00 L60.00,18.50 L61.50,20.00 L62.00,22.50Z M130.50,19.00 L131.50,19.00 L129.00,21.50 L128.50,21.00Z M166.50,19.00 L167.50,19.00 L167.00,25.50Z M178.50,19.00 L179.50,19.00 L179.00,23.50Z M200.50,20.00 L201.50,20.00 L201.00,22.50Z M215.50,20.00 L216.00,19.50 L217.50,22.00 L217.50,24.00 L218.50,25.00 L218.00,26.50Z M245.50,20.00 L246.00,19.50 L249.50,23.00 L249.00,23.50Z M38.50,21.00 L39.50,21.00 L39.00,23.50Z M45.50,21.00 L46.50,21.00 L46.00,22.50Z M326.50,21.00 L329.00,20.50 L330.50,22.00 L331.00,26.50 L329.50,25.00 L329.00,21.50 L327.00,21.50 L324.50,25.00 L323.50,25.00Z M331.50,21.00 L332.50,21.00 L332.00,24.50Z M69.50,22.00 L70.00,21.50 L74.50,26.00 L74.00,26.50Z M126.50,22.00 L127.50,22.00 L126.00,23.50 L125.50,23.00Z M193.50,22.00 L194.50,22.00 L194.00,32.50Z M208.50,22.00 L209.50,22.00 L209.00,23.50Z M78.50,23.00 L79.00,22.50 L84.50,28.00 L84.00,28.50Z M242.50,23.00 L243.00,22.50 L250.50,30.00 L250.00,30.50Z M307.50,23.00 L308.50,23.00 L305.00,26.50 L304.50,26.00Z M340.50,23.00 L341.50,23.00 L341.00,25.50Z M31.50,24.00 L32.50,24.00 L32.00,39.50Z M46.50,24.00 L47.50,24.00 L47.00,25.50Z M62.50,24.00 L63.00,23.50 L64.50,25.00 L66.50,29.00 L66.00,29.50Z M123.50,24.00 L124.50,24.00 L123.00,25.50 L119.00,27.50 L117.00,27.50 L116.00,28.50 L113.50,28.00 L119.00,26.50Z M233.50,24.00 L234.00,23.50 L235.50,25.00 L235.00,25.50Z M250.50,24.00 L251.00,23.50 L252.50,25.00 L252.00,25.50Z M39.50,25.00 L40.50,25.00 L40.00,28.50Z M90.50,25.00 L91.00,24.50 L93.50,26.00 L92.00,26.50Z M139.50,25.00 L140.50,25.00 L134.00,32.50 L133.50,32.00Z M177.50,26.00 L178.50,26.00 L178.00,29.50Z M201.50,26.00 L202.50,26.00 L202.00,43.50Z M209.50,26.00 L210.50,26.00 L210.00,28.50Z M253.50,26.00 L254.00,25.50 L257.50,28.00 L257.00,28.50Z M47.50,27.00 L48.50,27.00 L48.00,29.50Z M154.50,27.00 L155.50,27.00 L155.00,29.50Z M165.50,27.00 L166.50,27.00 L165.50,29.00 L161.00,32.50 L157.00,32.50 L155.50,31.00 L161.00,31.50 L163.00,30.50Z M235.50,27.00 L236.00,26.50 L237.50,28.00 L237.00,28.50Z M339.50,27.00 L340.00,26.50 L340.50,28.00 L339.00,30.50 L338.50,29.00Z M14.50,28.00 L15.50,28.00 L15.00,31.50Z M74.50,28.00 L75.00,27.50 L80.50,33.00 L80.50,34.00 L97.50,51.00 L97.00,51.50Z M218.50,28.00 L219.50,28.00 L219.00,30.50Z M303.50,28.00 L304.50,28.00 L301.00,31.50 L300.50,31.00Z M328.50,28.00 L330.50,28.00 L328.00,29.50 L327.50,29.00Z M58.50,29.00 L59.00,28.50 L60.50,31.00 L60.00,32.50Z M85.50,29.00 L86.00,28.50 L93.50,34.00 L91.00,33.50Z M150.50,29.00 L151.50,29.00 L151.00,32.50Z M169.50,29.00 L170.00,28.50 L170.50,30.00 L169.00,31.50Z M308.50,29.00 L309.50,29.00 L307.00,33.50 L306.50,32.00Z M210.50,30.00 L211.50,30.00 L211.00,34.50Z M237.50,30.00 L238.00,29.50 L240.50,32.00 L243.50,37.00 L243.00,37.50Z M22.50,31.00 L23.50,31.00 L23.00,35.50Z M40.50,31.00 L41.50,31.00 L41.00,46.50Z M48.50,31.00 L49.50,31.00 L49.00,34.50Z M138.50,31.00 L139.50,31.00 L137.00,34.50 L136.50,34.00Z M176.50,31.00 L177.00,30.50 L177.50,32.00 L176.00,34.50 L175.50,33.00Z M228.50,31.00 L229.00,30.50 L230.50,33.00 L230.00,34.50Z M251.50,31.00 L252.00,30.50 L255.50,34.00 L255.00,34.50Z M262.50,31.00 L264.00,30.50 L267.50,32.00 L265.00,32.50Z M283.50,31.00 L285.50,31.00 L283.00,32.50 L280.50,32.00Z M184.50,32.00 L185.50,32.00 L185.00,34.50Z M219.50,32.00 L220.50,32.00 L220.00,33.50Z M337.50,32.00 L338.50,32.00 L337.00,33.50 L336.50,33.00Z M13.50,33.00 L14.00,32.50 L14.50,34.00 L13.00,36.50 L12.50,35.00Z M67.50,33.00 L68.00,32.50 L69.50,34.00 L72.50,40.00 L72.00,41.50Z M167.50,33.00 L168.50,33.00 L166.00,35.50 L165.50,35.00Z M299.50,33.00 L300.50,33.00 L298.00,35.50 L297.50,35.00Z M60.50,34.00 L61.50,34.00 L61.00,35.50Z M132.50,34.00 L133.50,34.00 L129.00,39.50 L128.50,39.00Z M151.50,34.00 L152.50,34.00 L154.50,37.00 L154.00,37.50Z M220.50,35.00 L221.50,35.00 L221.00,37.50Z M256.50,35.00 L257.00,34.50 L261.50,38.00 L259.00,37.50Z M305.50,35.00 L306.50,35.00 L306.00,36.50Z M335.50,35.00 L336.50,35.00 L333.00,38.50 L330.50,39.00Z M135.50,36.00 L136.00,35.50 L136.50,37.00 L135.00,39.50 L134.50,38.00Z M139.50,36.00 L140.50,36.00 L140.00,38.50Z M163.50,36.00 L164.50,36.00 L163.00,37.50 L162.50,37.00Z M174.50,36.00 L175.50,36.00 L174.00,37.50 L173.50,37.00Z M183.50,36.00 L184.00,35.50 L184.50,37.00 L183.00,39.50 L182.50,38.00Z M192.50,36.00 L193.50,36.00 L193.00,38.50Z M21.50,37.00 L22.50,37.00 L22.00,38.50Z M49.50,37.00 L50.50,37.00 L50.00,42.50Z M61.50,37.00 L62.50,37.00 L62.00,38.50Z M249.50,37.00 L250.00,36.50 L252.50,39.00 L252.00,39.50Z M288.50,37.00 L289.50,37.00 L287.00,39.50 L283.00,41.50 L281.50,41.00Z M296.50,37.00 L297.50,37.00 L295.00,39.50 L294.50,39.00Z M11.50,38.00 L12.50,38.00 L9.00,43.50 L8.50,42.00Z M231.50,38.00 L232.50,38.00 L232.00,39.50Z M304.50,38.00 L305.50,38.00 L305.00,40.50Z M317.50,38.00 L318.00,37.50 L319.50,39.00 L319.00,39.50Z M172.50,39.00 L173.50,39.00 L169.00,43.50 L168.50,43.00Z M211.50,39.00 L212.50,39.00 L212.00,45.50Z M243.50,39.00 L244.00,38.50 L245.50,40.00 L245.00,40.50Z M20.50,40.00 L21.50,40.00 L21.50,42.00 L18.50,48.00 L12.00,55.50 L11.50,55.00 L17.50,48.00 L20.50,42.00Z M62.50,40.00 L63.50,40.00 L63.00,41.50Z M78.50,40.00 L79.00,39.50 L80.50,41.00 L80.00,41.50Z M191.50,40.00 L192.50,40.00 L192.00,42.50Z M221.50,40.00 L222.50,40.00 L222.00,43.50Z M264.50,40.00 L266.00,39.50 L268.50,41.00 L267.00,41.50Z M30.50,41.00 L31.50,41.00 L31.00,44.50Z M127.50,41.00 L128.50,41.00 L127.00,42.50 L126.50,42.00Z M133.50,41.00 L134.50,41.00 L134.00,43.50Z M181.50,41.00 L182.00,40.50 L182.50,42.00 L180.00,44.50 L179.50,44.00Z M232.50,41.00 L233.50,41.00 L233.00,42.50Z M252.50,41.00 L253.00,40.50 L265.50,52.00 L265.00,52.50 L261.00,48.50 L260.00,48.50Z M293.50,41.00 L294.50,41.00 L290.00,46.50 L289.50,46.00Z M245.50,42.00 L246.00,41.50 L247.50,43.00 L247.00,43.50Z M54.50,43.00 L55.50,43.00 L55.00,46.50Z M63.50,43.00 L64.50,43.00 L64.00,45.50Z M80.50,43.00 L81.00,42.50 L82.50,44.00 L82.00,44.50Z M147.50,43.00 L148.00,42.50 L152.00,45.50 L154.50,46.00 L152.00,46.50Z M125.50,44.00 L126.50,44.00 L124.00,47.50 L123.50,47.00Z M139.50,44.00 L140.50,44.00 L140.00,45.50Z M166.50,44.00 L167.50,44.00 L166.00,45.50 L164.50,45.00Z M190.50,44.00 L191.00,43.50 L191.50,45.00 L190.00,47.50 L189.50,46.00Z M227.50,44.00 L228.50,44.00 L228.00,45.50Z M233.50,44.00 L234.50,44.00 L234.00,45.50Z M304.50,44.00 L305.50,44.00 L305.50,47.00 L306.50,48.00 L306.00,49.50 L304.50,47.00Z M73.50,45.00 L74.00,44.50 L75.50,47.00 L75.00,48.50Z M132.50,45.00 L133.50,45.00 L133.00,49.50Z M200.50,45.00 L201.50,45.00 L201.00,47.50Z M242.50,45.00 L243.50,45.00 L245.50,49.00 L245.00,50.50Z M247.50,45.00 L248.00,44.50 L249.50,46.00 L250.00,48.50Z M29.50,46.00 L30.50,46.00 L30.00,47.50Z M82.50,46.00 L83.00,45.50 L84.50,47.00 L84.00,47.50Z M178.50,46.00 L179.50,46.00 L173.00,52.50 L172.50,52.00Z M309.50,46.00 L310.00,45.50 L314.00,49.50 L320.50,52.00 L318.00,52.50 L314.00,50.50Z M340.50,46.00 L341.50,46.00 L336.00,50.50 L334.00,51.50 L332.50,51.00Z M64.50,47.00 L65.50,47.00 L65.00,49.50Z M140.50,47.00 L141.50,47.00 L141.50,48.00 L146.50,53.00 L146.00,53.50 L140.50,48.00Z M222.50,47.00 L223.50,47.00 L223.00,58.50Z M234.50,47.00 L235.50,47.00 L235.00,49.50Z M296.50,47.00 L297.50,47.00 L297.00,51.50Z M228.50,48.00 L229.50,48.00 L229.00,51.50Z M288.50,48.00 L289.50,48.00 L284.00,57.50 L283.50,56.00Z M28.50,49.00 L29.00,48.50 L29.50,50.00 L28.00,52.50 L27.50,51.00Z M39.50,49.00 L40.50,49.00 L40.00,52.50Z M84.50,49.00 L85.00,48.50 L86.50,50.00 L87.00,52.50Z M199.50,49.00 L200.50,49.00 L200.50,51.00 L199.00,53.50 L198.50,52.00 L199.50,51.00Z M75.50,50.00 L76.50,50.00 L76.00,51.50Z M126.50,50.00 L127.50,50.00 L127.00,57.50Z M210.50,50.00 L211.50,50.00 L211.00,53.50Z M133.50,51.00 L134.50,51.00 L134.00,52.50Z M187.50,51.00 L188.50,51.00 L187.00,52.50 L186.50,52.00Z M235.50,51.00 L236.50,51.00 L236.00,54.50Z M306.50,51.00 L307.00,50.50 L313.50,56.00 L311.00,55.50Z M65.50,52.00 L66.50,52.00 L66.00,61.50Z M98.50,52.00 L99.00,51.50 L100.50,53.00 L100.00,53.50Z M115.50,52.00 L116.50,52.00 L114.00,54.50 L113.50,54.00Z M191.50,52.00 L192.50,52.00 L190.00,55.50 L189.50,55.00Z M245.50,52.00 L246.50,52.00 L246.00,53.50Z M251.50,52.00 L252.00,51.50 L253.50,53.00 L255.50,57.00 L255.00,58.50Z M76.50,53.00 L77.50,53.00 L77.00,54.50Z M120.50,53.00 L121.50,53.00 L121.00,54.50Z M170.50,53.00 L171.50,53.00 L170.00,54.50 L168.00,55.50 L166.50,55.00Z M266.50,53.00 L267.00,52.50 L271.50,55.00 L270.00,55.50Z M38.50,54.00 L39.50,54.00 L39.00,55.50Z M49.50,54.00 L50.50,54.00 L50.00,58.50Z M87.50,54.00 L88.00,53.50 L89.50,55.00 L93.50,63.00 L93.00,65.50 L92.50,63.00Z M101.50,54.00 L102.00,53.50 L104.50,55.00 L103.00,55.50Z M147.50,54.00 L148.00,53.50 L150.50,55.00 L149.00,55.50Z M185.50,54.00 L186.50,54.00 L178.00,62.50 L173.00,65.50 L171.50,65.00 L178.00,61.50Z M297.50,54.00 L298.50,54.00 L298.00,55.50Z M340.50,54.00 L341.50,54.00 L340.00,55.50 L339.50,55.00Z M110.50,55.00 L112.50,55.00 L110.00,56.50 L105.50,56.00Z M197.50,55.00 L198.00,54.50 L198.50,56.00 L195.00,61.50 L194.50,61.00Z M277.50,55.00 L279.50,55.00 L277.00,56.50 L272.50,56.00Z M9.50,56.00 L10.50,56.00 L9.00,57.50 L8.50,57.00Z M25.50,56.00 L26.50,56.00 L25.50,58.00 L23.00,60.50 L22.50,60.00Z M77.50,56.00 L78.50,56.00 L78.00,58.50Z M119.50,56.00 L120.50,56.00 L120.00,62.50Z M135.50,56.00 L136.00,55.50 L142.50,62.00 L142.00,62.50Z M209.50,56.00 L210.50,56.00 L210.00,58.50Z M37.50,57.00 L38.50,57.00 L38.00,58.50Z M188.50,57.00 L189.50,57.00 L187.00,59.50 L186.50,59.00Z M229.50,57.00 L230.50,57.00 L230.00,59.50Z M236.50,57.00 L237.50,57.00 L237.00,72.50Z M247.50,57.00 L248.50,57.00 L248.00,59.50Z M289.50,57.00 L290.50,57.00 L290.00,59.50Z M304.50,57.00 L305.00,56.50 L307.50,59.00 L307.00,59.50Z M54.50,58.00 L55.50,58.00 L55.00,63.50Z M32.50,59.00 L33.50,59.00 L31.00,62.50 L30.50,62.00Z M72.50,59.00 L73.50,59.00 L73.00,61.50Z M282.50,59.00 L283.50,59.00 L283.00,65.50Z M299.50,59.00 L300.00,58.50 L307.50,66.00 L307.00,66.50Z M36.50,60.00 L37.00,59.50 L37.50,61.00 L34.00,66.50 L33.50,66.00Z M48.50,60.00 L49.50,60.00 L49.00,62.50Z M78.50,60.00 L79.50,60.00 L79.00,64.50Z M208.50,60.00 L209.50,60.00 L209.00,61.50Z M214.50,60.00 L215.50,60.00 L215.00,61.50Z M308.50,60.00 L309.00,59.50 L310.50,61.00 L310.00,61.50Z M185.50,61.00 L186.50,61.00 L184.00,63.50 L183.50,63.00Z M242.50,61.00 L243.50,61.00 L243.00,75.50Z M248.50,61.00 L249.50,61.00 L249.00,63.50Z M290.50,61.00 L291.50,61.00 L293.50,66.00 L303.00,75.50 L307.00,77.50 L308.50,79.00 L308.00,79.50 L303.00,76.50 L292.50,66.00Z M21.50,62.00 L22.50,62.00 L18.00,66.50 L17.50,66.00Z M221.50,62.00 L222.50,62.00 L222.00,65.50Z M256.50,62.00 L257.50,62.00 L257.00,63.50Z M311.50,62.00 L312.00,61.50 L317.50,64.00 L315.00,64.50Z M340.50,62.00 L341.50,62.00 L340.00,63.50 L338.50,63.00Z M129.50,63.00 L130.00,62.50 L137.50,70.00 L137.00,70.50Z M193.50,63.00 L194.50,63.00 L188.00,70.50 L187.50,70.00Z M207.50,63.00 L208.00,62.50 L208.50,64.00 L206.00,68.50 L205.50,67.00Z M277.50,63.00 L278.50,63.00 L277.00,66.50 L276.50,64.00Z M47.50,64.00 L48.50,64.00 L48.00,66.50Z M120.50,64.00 L121.50,64.00 L122.00,66.50Z M181.50,64.00 L182.50,64.00 L179.00,67.50 L173.00,70.50 L170.50,70.00 L179.00,66.50Z M213.50,64.00 L214.50,64.00 L214.00,65.50Z M335.50,64.00 L337.50,64.00 L335.00,65.50 L331.50,65.00Z M53.50,65.00 L54.50,65.00 L54.00,67.50Z M65.50,65.00 L66.50,65.00 L66.00,70.50Z M73.50,65.00 L74.50,65.00 L74.00,67.50Z M257.50,65.00 L258.50,65.00 L258.00,67.50Z M28.50,66.00 L29.50,66.00 L26.00,69.50 L25.50,69.00Z M198.50,66.00 L199.50,66.00 L198.50,68.00 L195.00,71.50 L194.50,71.00Z M228.50,66.00 L229.50,66.00 L229.00,69.50Z M15.50,67.00 L16.50,67.00 L14.00,69.50 L13.50,69.00Z M79.50,67.00 L80.50,67.00 L80.00,73.50Z M93.50,67.00 L94.50,67.00 L94.00,68.50Z M212.50,67.00 L213.00,66.50 L213.50,68.00 L212.00,70.50 L211.50,69.00Z M220.50,67.00 L221.50,67.00 L221.00,69.50Z M249.50,67.00 L250.50,67.00 L250.00,77.50Z M283.50,67.00 L284.00,66.50 L286.50,70.00 L287.00,72.50Z M32.50,68.00 L33.50,68.00 L32.00,69.50 L31.50,69.00Z M122.50,68.00 L123.00,67.50 L124.50,69.00 L124.50,70.00 L133.50,79.00 L133.00,79.50 L123.50,70.00Z M276.50,68.00 L277.50,68.00 L280.50,74.00 L289.50,83.00 L289.00,83.50 L279.50,74.00Z M52.50,69.00 L53.50,69.00 L53.00,70.50Z M258.50,69.00 L259.50,69.00 L259.00,76.50Z M312.50,69.00 L313.00,68.50 L316.50,70.00 L314.00,70.50Z M45.50,70.00 L46.50,70.00 L46.00,71.50Z M94.50,70.00 L95.50,70.00 L95.00,75.50Z M204.50,70.00 L205.50,70.00 L204.00,71.50 L203.50,71.00Z M339.50,70.00 L341.50,70.00 L339.00,71.50 L336.50,71.00Z M9.50,71.00 L10.50,71.00 L9.00,72.50 L8.50,72.00Z M23.50,71.00 L24.50,71.00 L19.00,76.50 L16.50,77.00Z M30.50,71.00 L31.50,71.00 L27.00,75.50 L26.50,75.00Z M138.50,71.00 L139.00,70.50 L145.50,75.00 L145.00,75.50 L141.00,73.50Z M185.50,71.00 L186.50,71.00 L184.00,73.50 L183.50,73.00Z M219.50,71.00 L220.50,71.00 L220.00,72.50Z M51.50,72.00 L52.50,72.00 L52.00,73.50Z M227.50,72.00 L228.50,72.00 L228.00,73.50Z M44.50,73.00 L45.50,73.00 L42.00,78.50 L41.50,78.00Z M64.50,73.00 L65.50,73.00 L65.00,75.50Z M72.50,73.00 L73.50,73.00 L73.00,76.50Z M193.50,73.00 L194.50,73.00 L191.00,76.50 L190.50,76.00Z M202.50,73.00 L203.50,73.00 L202.50,75.00 L192.00,85.50 L191.50,85.00 L201.50,75.00Z M134.50,74.00 L135.00,73.50 L136.50,75.00 L136.00,75.50Z M181.50,74.00 L182.50,74.00 L181.00,75.50 L177.00,77.50 L175.50,77.00Z M218.50,74.00 L219.00,73.50 L219.50,75.00 L214.00,84.50 L213.50,84.00Z M287.50,74.00 L288.00,73.50 L297.50,83.00 L297.00,83.50Z M50.50,75.00 L51.00,74.50 L51.50,76.00 L44.50,88.00 L34.00,98.50 L33.50,98.00 L43.50,88.00 L47.50,82.00Z M226.50,75.00 L227.50,75.00 L227.00,77.50Z M235.50,75.00 L236.50,75.00 L236.00,77.50Z M58.50,76.00 L59.50,76.00 L59.00,77.50Z M78.50,76.00 L79.50,76.00 L79.00,80.50Z M137.50,76.00 L138.00,75.50 L139.50,77.00 L139.00,77.50Z M208.50,76.00 L209.50,76.00 L208.50,78.00 L206.00,80.50 L205.50,80.00Z M24.50,77.00 L25.50,77.00 L22.00,80.50 L21.50,80.00Z M63.50,77.00 L64.50,77.00 L64.50,79.00 L63.00,81.50 L62.50,80.00 L63.50,79.00Z M93.50,77.00 L94.50,77.00 L94.00,79.50Z M149.50,77.00 L151.00,76.50 L154.50,78.00 L152.00,78.50Z M188.50,77.00 L189.50,77.00 L187.00,79.50 L186.50,79.00Z M14.50,78.00 L15.50,78.00 L14.00,79.50 L10.00,81.50 L8.50,81.00Z M101.50,78.00 L106.00,77.50 L107.50,79.00Z M140.50,78.00 L141.00,77.50 L149.50,82.00 L148.00,82.50Z M57.50,79.00 L58.50,79.00 L58.00,80.50Z M71.50,79.00 L72.50,79.00 L72.50,81.00 L71.00,84.50 L70.50,82.00 L71.50,81.00Z M99.50,79.00 L100.50,79.00 L98.00,81.50 L97.50,81.00Z M225.50,79.00 L226.00,78.50 L226.50,80.00 L225.00,82.50 L224.50,81.00Z M234.50,79.00 L235.50,79.00 L235.00,81.50Z M241.50,79.00 L242.50,79.00 L242.00,80.50Z M248.50,79.00 L249.50,79.00 L249.00,81.50Z M257.50,79.00 L258.50,79.00 L258.00,80.50Z M40.50,80.00 L41.50,80.00 L39.50,83.00 L31.00,91.50 L30.50,91.00Z M108.50,80.00 L109.00,79.50 L111.50,82.00 L111.00,82.50Z M134.50,80.00 L135.00,79.50 L140.50,84.00 L140.00,84.50Z M267.50,80.00 L272.00,79.50 L276.50,83.00 L276.00,83.50 L272.00,80.50Z M19.50,81.00 L20.50,81.00 L19.00,82.50 L15.00,84.50 L13.50,84.00Z M265.50,81.00 L266.50,81.00 L262.00,85.50 L261.50,85.00Z M77.50,82.00 L78.50,82.00 L78.00,83.50Z M122.50,82.00 L123.00,81.50 L126.50,85.00 L126.00,85.50Z M180.50,82.00 L181.50,82.00 L180.00,83.50 L178.00,83.50 L177.00,84.50 L174.50,84.00Z M204.50,82.00 L205.50,82.00 L196.00,91.50 L193.00,93.50 L192.50,93.00Z M240.50,82.00 L241.50,82.00 L241.00,84.50Z M256.50,82.00 L257.00,81.50 L257.50,83.00 L256.00,85.50 L255.50,84.00Z M61.50,83.00 L62.50,83.00 L62.00,84.50Z M233.50,83.00 L234.00,82.50 L234.50,84.00 L233.00,86.50 L232.50,85.00Z M113.50,84.00 L114.00,83.50 L134.50,104.00 L134.00,104.50Z M247.50,84.00 L248.00,83.50 L248.50,85.00 L247.00,87.50 L246.50,86.00Z M277.50,84.00 L278.00,83.50 L300.50,106.00 L300.00,106.50Z M298.50,84.00 L299.00,83.50 L302.50,87.00 L302.00,87.50Z M318.50,84.00 L320.00,83.50 L321.00,84.50 L324.50,85.00 L321.00,85.50Z M76.50,85.00 L77.50,85.00 L77.00,86.50Z M290.50,85.00 L291.00,84.50 L294.50,88.00 L294.00,88.50Z M69.50,86.00 L70.00,85.50 L70.50,87.00 L68.00,91.50 L67.50,90.00Z M98.50,86.00 L104.00,85.50 L105.50,87.00Z M127.50,86.00 L128.00,85.50 L133.50,91.00 L133.00,91.50Z M143.50,86.00 L144.00,85.50 L148.50,88.00 L147.00,88.50Z M189.50,86.00 L190.50,86.00 L189.00,87.50 L186.50,88.00Z M212.50,86.00 L213.50,86.00 L212.00,87.50 L211.50,87.00Z M239.50,86.00 L240.00,85.50 L240.50,87.00 L239.00,89.50 L238.50,88.00Z M254.50,87.00 L255.50,87.00 L253.50,91.00 L247.00,99.50 L246.50,99.00Z M53.50,88.00 L54.50,88.00 L52.00,91.50 L51.50,91.00Z M75.50,88.00 L76.00,87.50 L76.50,89.00 L74.00,93.50 L73.50,92.00Z M94.50,88.00 L95.50,88.00 L78.00,106.50 L77.50,106.00 L82.50,101.00 L82.50,100.00Z M106.50,88.00 L109.00,88.50 L129.50,109.00 L129.00,109.50 L109.00,89.50Z M221.50,88.00 L222.50,88.00 L220.00,91.50 L219.50,91.00Z M231.50,88.00 L232.00,87.50 L232.50,89.00 L231.00,90.50Z M267.50,88.00 L270.00,87.50 L273.50,90.00 L273.00,90.50Z M303.50,88.00 L304.00,87.50 L305.50,89.00 L305.00,89.50Z M210.50,89.00 L211.50,89.00 L201.00,99.50 L200.50,99.00Z M245.50,89.00 L246.00,88.50 L246.50,90.00 L243.00,96.50 L242.50,95.00Z M306.50,90.00 L307.00,89.50 L308.50,91.00 L308.00,91.50Z M274.50,91.00 L275.00,90.50 L279.50,95.00 L279.00,95.50Z M28.50,92.00 L29.50,92.00 L27.00,94.50 L23.00,96.50 L22.50,96.00Z M57.50,92.00 L58.50,92.00 L57.00,93.50 L56.50,93.00Z M134.50,92.00 L135.00,91.50 L138.00,94.50 L146.50,100.00 L144.00,99.50Z M50.50,93.00 L51.50,93.00 L49.00,95.50 L48.50,95.00Z M66.50,93.00 L67.50,93.00 L64.00,98.50 L63.50,98.00Z M218.50,93.00 L219.50,93.00 L218.00,94.50 L217.50,94.00Z M311.50,93.00 L312.00,92.50 L318.50,96.00 L317.00,96.50Z M55.50,95.00 L56.50,95.00 L55.50,97.00 L52.00,100.50 L51.50,100.00Z M72.50,95.00 L73.50,95.00 L67.50,105.00 L60.00,113.50 L59.50,113.00 L66.50,105.00Z M188.50,95.00 L189.50,95.00 L188.00,96.50 L186.50,96.00Z M259.50,95.00 L261.00,94.50 L261.00,95.50 L258.00,96.50 L256.00,98.50 L255.50,98.00Z M268.50,95.00 L270.00,94.50 L271.50,96.00 L271.00,96.50Z M298.50,95.00 L299.00,94.50 L301.50,97.00 L301.00,97.50Z M216.50,96.00 L217.50,96.00 L213.00,100.50 L212.50,100.00Z M227.50,96.00 L228.50,96.00 L227.00,97.50 L226.50,97.00Z M280.50,96.00 L281.00,95.50 L282.50,97.00 L282.50,98.00 L293.50,109.00 L293.00,109.50 L280.50,97.00Z M19.50,97.00 L21.00,96.50 L21.00,97.50 L19.00,98.50 L17.50,98.00Z M47.50,97.00 L48.50,97.00 L40.00,105.50 L39.50,105.00Z M272.50,97.00 L273.00,96.50 L285.50,109.00 L285.00,109.50Z M302.50,98.00 L303.00,97.50 L309.50,103.00 L309.00,103.50 L306.00,101.50Z M31.50,99.00 L32.50,99.00 L31.00,100.50 L30.50,100.00Z M225.50,99.00 L226.50,99.00 L225.00,100.50 L224.50,100.00Z M253.50,99.00 L254.50,99.00 L244.00,109.50 L243.50,109.00Z M62.50,100.00 L63.50,100.00 L58.50,107.00 L51.00,114.50 L50.50,114.00 L57.50,107.00Z M101.50,100.00 L102.00,99.50 L103.50,101.00 L103.00,101.50Z M198.50,100.00 L199.50,100.00 L197.00,102.50 L191.00,105.50 L189.50,105.00Z M28.50,101.00 L29.50,101.00 L28.00,102.50 L22.00,105.50 L19.50,105.00Z M88.50,101.00 L89.50,101.00 L88.00,102.50 L87.50,102.00Z M245.50,101.00 L246.50,101.00 L245.00,102.50 L244.50,102.00Z M50.50,102.00 L51.50,102.00 L43.00,110.50 L42.50,110.00Z M104.50,102.00 L105.00,101.50 L114.50,111.00 L114.00,111.50Z M210.50,102.00 L211.50,102.00 L205.00,108.50 L202.00,110.50 L201.50,110.00Z M223.50,102.00 L224.50,102.00 L222.00,104.50 L221.50,104.00Z M260.50,103.00 L265.00,102.50 L269.00,104.50 L277.50,113.00 L277.00,113.50 L269.00,105.50 L265.00,103.50Z M153.50,104.00 L155.00,103.50 L157.50,105.00 L156.00,105.50Z M310.50,104.00 L311.00,103.50 L312.50,105.00 L312.00,105.50Z M135.50,105.00 L136.00,104.50 L141.00,109.50 L148.50,115.00 L148.00,115.50 L141.00,110.50Z M37.50,106.00 L38.50,106.00 L36.00,108.50 L35.50,108.00Z M98.50,106.00 L101.00,106.50 L105.50,111.00 L105.00,111.50Z M220.50,106.00 L221.50,106.00 L212.00,115.50 L211.50,115.00Z M313.50,106.00 L314.00,105.50 L324.50,111.00 L323.00,111.50Z M301.50,107.00 L302.00,106.50 L312.50,116.00 L312.00,116.50 L308.00,113.50Z M76.50,108.00 L77.50,108.00 L71.00,114.50 L70.50,114.00Z M227.50,108.00 L228.50,108.00 L222.00,114.50 L221.50,114.00Z M33.50,109.00 L34.50,109.00 L33.00,110.50 L30.50,111.00Z M149.50,109.00 L150.00,108.50 L158.50,113.00 L157.00,113.50Z M231.50,110.00 L232.50,110.00 L229.00,113.50 L228.50,113.00Z M40.50,111.00 L41.50,111.00 L39.00,113.50 L38.50,113.00Z M129.50,111.00 L130.00,110.50 L147.50,128.00 L147.00,128.50Z M199.50,111.00 L200.50,111.00 L199.00,112.50 L195.00,114.50 L193.50,114.00Z M242.50,111.00 L243.50,111.00 L233.00,121.50 L232.50,121.00Z M285.50,111.00 L286.00,110.50 L289.50,114.00 L289.00,114.50Z M27.50,112.00 L29.50,112.00 L25.00,114.50 L22.50,114.00Z M252.50,112.00 L254.00,111.50 L254.00,112.50 L250.00,114.50 L249.50,114.00Z M261.50,112.00 L263.00,111.50 L264.50,113.00 L264.00,113.50Z M97.50,113.00 L100.00,113.50 L104.50,118.00 L104.00,118.50Z M106.50,113.00 L107.00,112.50 L110.50,116.00 L110.00,116.50Z M114.50,113.00 L115.00,112.50 L117.50,115.00 L117.00,115.50Z M36.50,114.00 L37.50,114.00 L36.00,115.50 L35.50,115.00Z M203.50,114.00 L204.50,114.00 L203.00,115.50 L202.50,115.00Z M265.50,114.00 L266.00,113.50 L271.50,119.00 L273.50,122.00 L273.00,122.50Z M58.50,115.00 L59.50,115.00 L52.00,122.50 L51.50,122.00Z M227.50,115.00 L228.50,115.00 L218.00,125.50 L217.50,125.00Z M247.50,115.00 L248.50,115.00 L246.00,117.50 L245.50,117.00Z M277.50,115.00 L278.00,114.50 L280.50,117.00 L280.00,117.50Z M149.50,116.00 L150.00,115.50 L151.50,117.00 L151.00,117.50Z M200.50,116.00 L201.50,116.00 L200.00,117.50 L198.00,118.50 L196.50,118.00Z M209.50,116.00 L210.50,116.00 L208.00,118.50 L207.50,118.00Z M289.50,116.00 L290.00,115.50 L292.50,118.00 L292.00,118.50Z M86.50,117.00 L92.00,116.50 L96.00,118.50 L100.50,123.00 L100.00,123.50 L96.00,119.50 L92.00,117.50Z M117.50,117.00 L118.00,116.50 L120.50,119.00 L124.50,125.00 L125.00,127.50Z M219.50,117.00 L220.50,117.00 L219.00,118.50 L218.50,118.00Z M313.50,117.00 L314.00,116.50 L316.50,119.00 L316.00,119.50Z M83.50,118.00 L85.00,117.50 L85.00,118.50 L80.00,120.50 L78.00,122.50 L77.50,122.00 L80.00,119.50Z M110.50,118.00 L111.00,117.50 L112.50,119.00 L112.00,119.50Z M152.50,118.00 L153.00,117.50 L158.50,121.00 L158.00,121.50Z M243.50,118.00 L244.50,118.00 L237.00,125.50 L236.50,125.00Z M193.50,119.00 L195.00,118.50 L195.00,119.50 L193.00,120.50 L191.50,120.00Z M205.50,119.00 L206.50,119.00 L205.00,120.50 L202.50,121.00Z M216.50,119.00 L217.50,119.00 L213.00,123.50 L212.50,123.00Z M280.50,119.00 L281.00,118.50 L282.50,120.00 L282.00,120.50Z M297.50,119.00 L298.00,118.50 L303.50,124.00 L303.50,125.00 L309.50,131.00 L309.00,131.50Z M104.50,120.00 L105.00,119.50 L107.50,122.00 L108.00,124.50Z M292.50,120.00 L293.00,119.50 L295.50,122.00 L295.00,122.50Z M317.50,120.00 L318.00,119.50 L319.50,121.00 L319.00,121.50Z M112.50,121.00 L113.00,120.50 L114.50,122.00 L114.00,122.50Z M250.50,121.00 L257.50,121.00 L251.00,121.50 L250.00,122.50 L248.50,122.00Z M38.50,122.00 L39.50,122.00 L38.00,123.50 L35.50,124.00Z M61.50,122.00 L62.50,122.00 L57.00,127.50 L56.50,127.00Z M159.50,122.00 L161.00,121.50 L163.50,123.00 L162.00,123.50Z M282.50,122.00 L283.00,121.50 L284.50,123.00 L285.00,125.50Z M307.50,122.00 L308.00,121.50 L316.50,130.00 L316.00,130.50Z M320.50,122.00 L321.00,121.50 L324.50,124.00 L324.00,124.50Z M49.50,123.00 L50.50,123.00 L46.00,127.50 L41.00,130.50 L40.50,130.00 L46.00,126.50Z M137.50,123.00 L138.00,122.50 L147.50,132.00 L147.00,132.50Z M231.50,123.00 L232.50,123.00 L225.00,130.50 L224.50,130.00Z M260.50,123.00 L261.00,122.50 L264.50,126.00 L266.50,129.00 L266.00,129.50Z M114.50,124.00 L115.00,123.50 L116.50,125.00 L122.50,137.00 L122.00,138.50Z M210.50,124.00 L211.50,124.00 L209.00,126.50 L206.50,127.00Z M273.50,124.00 L274.00,123.50 L275.50,125.00 L279.50,133.00 L279.00,134.50Z M295.50,124.00 L296.00,123.50 L298.50,126.00 L298.00,126.50Z M32.50,125.00 L34.00,124.50 L34.00,125.50 L32.00,126.50 L30.50,126.00Z M100.50,125.00 L101.00,124.50 L104.50,129.00 L104.00,130.50Z M82.50,126.00 L89.00,125.50 L95.50,131.00 L95.00,131.50 L89.00,126.50Z M108.50,126.00 L109.00,125.50 L110.50,127.00 L111.50,129.00 L111.00,130.50Z M215.50,126.00 L216.50,126.00 L213.00,129.50 L212.50,129.00Z M285.50,127.00 L286.00,126.50 L287.50,128.00 L293.50,140.00 L293.00,141.50Z M329.50,127.00 L331.00,126.50 L333.50,128.00 L332.00,128.50Z M54.50,128.00 L55.50,128.00 L50.00,133.50 L49.50,133.00Z M204.50,128.00 L205.50,128.00 L204.00,129.50 L202.00,130.50 L200.50,130.00Z M298.50,128.00 L299.00,127.50 L301.50,130.00 L303.50,133.00 L303.00,133.50Z M76.50,129.00 L77.50,129.00 L76.00,130.50 L75.50,130.00Z M125.50,129.00 L126.00,128.50 L127.50,130.00 L127.00,130.50Z M148.50,129.00 L149.00,128.50 L154.00,133.50 L161.50,139.00 L161.00,139.50 L154.00,134.50Z M210.50,130.00 L211.50,130.00 L210.00,131.50 L209.50,131.00Z M248.50,130.00 L253.00,129.50 L259.50,135.00 L259.00,135.50 L253.00,130.50Z M38.50,131.00 L39.50,131.00 L38.00,132.50 L34.00,134.50 L32.50,134.00Z M73.50,131.00 L74.50,131.00 L52.00,153.50 L51.50,153.00Z M222.50,131.00 L223.50,131.00 L217.00,137.50 L216.50,137.00Z M245.50,131.00 L247.50,131.00 L245.00,132.50 L244.50,132.00Z M294.50,131.00 L295.00,130.50 L296.50,132.00 L297.00,134.50Z M317.50,131.00 L318.00,130.50 L325.50,137.00 L325.00,137.50 L322.00,135.50Z M132.50,132.00 L133.50,132.00 L137.50,138.00 L138.00,140.50Z M207.50,132.00 L208.50,132.00 L207.00,133.50 L203.00,135.50 L201.50,135.00Z M58.50,133.00 L59.50,133.00 L51.00,141.50 L50.50,141.00Z M90.50,133.00 L91.00,132.50 L92.50,134.00 L93.00,136.50Z M158.50,133.00 L160.00,132.50 L161.50,134.00 L161.00,134.50Z M242.50,133.00 L243.50,133.00 L242.00,134.50 L241.50,134.00Z M267.50,133.00 L268.00,132.50 L269.50,135.00 L269.00,136.50Z M309.50,133.00 L310.00,132.50 L318.50,141.00 L318.00,141.50Z M47.50,134.00 L48.50,134.00 L46.00,136.50 L45.50,136.00Z M105.50,134.00 L106.50,134.00 L106.00,135.50Z M128.50,134.00 L129.00,133.50 L130.50,135.00 L131.00,137.50Z M148.50,134.00 L149.00,133.50 L164.00,147.50 L174.50,154.00 L174.00,154.50 L170.00,152.50 L164.00,148.50Z M162.50,135.00 L163.00,134.50 L169.50,138.00 L168.00,138.50Z M239.50,135.00 L240.50,135.00 L223.00,153.50 L222.50,153.00 L226.50,149.00 L226.50,148.00Z M303.50,135.00 L304.00,134.50 L305.50,136.00 L305.00,136.50Z M113.50,136.00 L114.50,136.00 L114.00,137.50Z M142.50,136.00 L143.00,135.50 L145.50,138.00 L145.00,138.50Z M227.50,136.00 L228.50,136.00 L221.00,143.50 L220.50,143.00Z M279.50,136.00 L280.50,136.00 L280.00,137.50Z M43.50,137.00 L44.50,137.00 L43.00,138.50 L42.50,138.00Z M97.50,137.00 L98.50,137.00 L98.00,138.50Z M106.50,137.00 L107.50,137.00 L107.00,138.50Z M246.50,137.00 L251.00,136.50 L255.50,141.00 L255.50,142.00 L255.00,142.50 L251.00,137.50Z M77.50,138.00 L79.00,137.50 L79.00,138.50 L76.00,139.50 L74.00,141.50 L73.50,141.00Z M84.50,138.00 L85.00,137.50 L88.50,141.00 L88.00,142.50Z M93.50,138.00 L94.50,138.00 L94.00,139.50Z M214.50,138.00 L215.50,138.00 L213.00,140.50 L210.00,142.50 L209.50,142.00Z M269.50,138.00 L270.50,138.00 L270.00,140.50Z M298.50,138.00 L299.00,137.50 L300.50,139.00 L302.50,143.00 L302.00,143.50Z M305.50,138.00 L306.00,137.50 L308.50,140.00 L316.50,152.00 L317.00,154.50Z M326.50,138.00 L327.00,137.50 L331.50,141.00 L329.00,140.50Z M114.50,139.00 L115.50,139.00 L115.00,140.50Z M170.50,139.00 L172.00,138.50 L175.50,140.00 L173.00,140.50Z M260.50,139.00 L261.50,139.00 L261.00,140.50Z M280.50,139.00 L281.50,139.00 L281.00,140.50Z M98.50,140.00 L99.50,140.00 L99.00,142.50Z M107.50,140.00 L108.50,140.00 L108.00,141.50Z M122.50,140.00 L123.00,139.50 L124.50,142.00 L124.00,143.50Z M145.50,140.00 L146.00,139.50 L150.50,144.00 L150.50,145.00 L155.50,150.00 L155.00,150.50Z M162.50,140.00 L163.00,139.50 L166.50,142.00 L166.00,142.50Z M94.50,141.00 L95.50,141.00 L95.00,142.50Z M33.50,142.00 L35.00,141.50 L35.00,142.50 L30.00,144.50 L26.50,144.00Z M48.50,142.00 L49.50,142.00 L47.00,144.50 L46.50,144.00Z M71.50,142.00 L72.50,142.00 L69.00,145.50 L68.50,145.00Z M115.50,142.00 L116.50,142.00 L116.00,144.50Z M138.50,142.00 L139.00,141.50 L140.50,143.00 L141.00,145.50Z M261.50,142.00 L262.50,142.00 L262.00,146.50Z M270.50,142.00 L271.50,142.00 L271.00,144.50Z M281.50,142.00 L282.50,142.00 L282.00,143.50Z M332.50,142.00 L333.00,141.50 L337.50,144.00 L336.00,144.50Z M167.50,143.00 L168.00,142.50 L170.50,144.00 L169.00,144.50Z M293.50,143.00 L294.00,142.50 L295.50,145.00 L295.00,146.50Z M76.50,144.00 L78.50,144.00 L75.00,146.50 L74.50,146.00Z M88.50,144.00 L89.50,144.00 L89.00,145.50Z M108.50,144.00 L109.50,144.00 L109.00,147.50Z M218.50,144.00 L219.50,144.00 L214.00,149.50 L211.00,151.50 L210.50,151.00Z M255.50,144.00 L256.50,144.00 L256.00,148.50Z M319.50,144.00 L320.00,143.50 L326.50,150.00 L326.00,150.50Z M44.50,145.00 L45.50,145.00 L44.00,146.50 L43.50,146.00Z M95.50,145.00 L96.50,145.00 L96.00,152.50Z M99.50,145.00 L100.50,145.00 L100.00,156.50Z M124.50,145.00 L125.50,145.00 L125.00,146.50Z M243.50,145.00 L247.00,144.50 L249.50,147.00 L249.00,147.50 L247.00,145.50 L244.00,145.50 L243.00,146.50 L242.50,146.00Z M282.50,145.00 L283.50,145.00 L283.00,148.50Z M116.50,146.00 L117.50,146.00 L117.00,148.50Z M173.50,146.00 L175.00,145.50 L178.50,147.00 L176.00,147.50Z M41.50,147.00 L42.50,147.00 L41.00,148.50 L35.00,151.50 L32.50,151.00Z M67.50,147.00 L68.50,147.00 L63.50,153.00 L60.00,160.50 L59.50,159.00 L62.50,153.00Z M72.50,147.00 L73.50,147.00 L72.00,148.50 L71.50,148.00Z M141.50,147.00 L142.00,146.50 L143.50,148.00 L144.00,150.50Z M271.50,147.00 L272.50,147.00 L272.00,158.50Z M125.50,148.00 L126.50,148.00 L126.00,149.50Z M295.50,148.00 L296.50,148.00 L296.00,149.50Z M243.50,149.00 L244.50,149.00 L240.50,153.00 L240.50,158.00 L244.50,159.00 L241.00,159.50 L239.50,158.00 L239.50,153.00 L241.50,150.00Z M249.50,149.00 L250.50,149.00 L250.00,150.50Z M319.50,149.00 L320.00,148.50 L325.50,154.00 L325.00,154.50Z M8.50,150.00 L9.00,149.50 L15.50,152.00 L13.00,152.50Z M70.50,150.00 L71.50,150.00 L70.00,151.50 L69.50,151.00Z M109.50,150.00 L110.50,150.00 L110.00,161.50Z M117.50,150.00 L118.50,150.00 L118.00,154.50Z M220.50,150.00 L221.50,150.00 L211.00,160.50 L210.50,160.00Z M283.50,150.00 L284.50,150.00 L284.00,154.50Z M126.50,151.00 L127.50,151.00 L127.00,153.50Z M137.50,151.00 L138.00,150.50 L139.50,153.00 L139.00,154.50Z M255.50,151.00 L256.50,151.00 L256.00,154.50Z M296.50,151.00 L297.50,151.00 L297.00,152.50Z M305.50,151.00 L306.50,151.00 L308.50,155.00 L308.00,156.50Z M327.50,151.00 L328.00,150.50 L334.50,157.00 L334.00,157.50Z M88.50,152.00 L89.50,152.00 L89.00,154.50Z M155.50,152.00 L156.00,151.50 L162.50,158.00 L162.00,158.50Z M208.50,152.00 L209.50,152.00 L208.00,153.50 L207.50,153.00Z M232.50,152.00 L233.50,152.00 L232.00,153.50 L231.50,153.00Z M291.50,152.00 L292.50,152.00 L292.00,154.50Z M248.50,153.00 L249.00,152.50 L249.50,154.00 L246.00,158.50 L245.50,158.00 L247.50,156.00Z M261.50,153.00 L262.50,153.00 L262.00,156.50Z M145.50,154.00 L146.00,153.50 L147.50,155.00 L152.50,165.00 L152.00,166.50Z M297.50,154.00 L298.50,154.00 L298.00,156.50Z M50.50,155.00 L51.50,155.00 L47.00,159.50 L46.50,159.00Z M67.50,155.00 L68.50,155.00 L68.00,156.50Z M127.50,155.00 L128.50,155.00 L128.00,158.50Z M175.50,155.00 L177.00,154.50 L179.50,156.00 L178.00,156.50Z M221.50,155.00 L222.50,155.00 L217.00,161.50 L216.50,161.00 L218.50,158.00Z M87.50,156.00 L88.00,155.50 L88.50,157.00 L86.50,161.00 L82.00,165.50 L78.00,167.50 L72.00,167.50 L68.50,165.00 L69.00,164.50 L72.00,166.50 L78.00,166.50 L82.00,164.50 L85.50,161.00Z M94.50,156.00 L95.50,156.00 L95.50,158.00 L93.50,163.00 L92.00,164.50 L91.50,164.00 L93.50,161.00Z M139.50,156.00 L140.00,155.50 L141.50,158.00 L141.00,159.50Z M200.50,156.00 L202.50,156.00 L200.00,157.50 L197.50,157.00Z M254.50,156.00 L255.00,155.50 L255.50,157.00 L253.50,161.00 L249.00,165.50 L248.50,165.00 L252.50,161.00Z M317.50,156.00 L318.00,155.50 L319.50,157.00 L319.00,157.50Z M325.50,156.00 L326.00,155.50 L341.50,171.00 L341.00,171.50Z M229.50,157.00 L230.50,157.00 L230.00,158.50Z M233.50,157.00 L234.50,157.00 L235.00,164.50 L233.50,163.00Z M284.50,157.00 L285.50,157.00 L285.00,164.50Z M292.50,157.00 L293.50,157.00 L293.00,160.50Z M98.50,158.00 L99.50,158.00 L99.00,160.50Z M260.50,158.00 L261.50,158.00 L261.00,159.50Z M298.50,158.00 L299.50,158.00 L299.00,160.50Z M308.50,158.00 L309.00,157.50 L310.50,160.00 L310.00,161.50Z M335.50,158.00 L336.00,157.50 L338.50,160.00 L338.00,160.50Z M66.50,159.00 L67.50,159.00 L67.00,160.50Z M118.50,159.00 L119.50,159.00 L119.00,165.50Z M319.50,159.00 L320.00,158.50 L321.50,160.00 L322.00,162.50Z M44.50,160.00 L45.50,160.00 L40.00,165.50 L33.00,169.50 L31.50,169.00 L40.00,164.50Z M128.50,160.00 L129.50,160.00 L129.00,165.50Z M162.50,160.00 L163.00,159.50 L173.50,170.00 L173.00,170.50Z M228.50,160.00 L229.50,160.00 L229.00,162.50Z M135.50,161.00 L136.50,161.00 L136.00,163.50Z M141.50,161.00 L142.50,161.00 L142.00,162.50Z M208.50,161.00 L209.50,161.00 L207.00,163.50 L206.50,163.00Z M259.50,161.00 L260.50,161.00 L260.00,162.50Z M270.50,161.00 L271.50,161.00 L271.00,164.50Z M339.50,161.00 L340.00,160.50 L341.50,162.00 L341.00,162.50Z M58.50,162.00 L59.50,162.00 L59.00,164.50Z M155.50,162.00 L156.00,161.50 L157.50,163.00 L157.00,163.50Z M299.50,162.00 L300.50,162.00 L300.00,165.50Z M50.50,163.00 L51.50,163.00 L50.00,164.50 L49.50,164.00Z M215.50,163.00 L216.50,163.00 L214.00,165.50 L213.50,165.00Z M310.50,163.00 L311.50,163.00 L311.00,164.50Z M108.50,164.00 L109.50,164.00 L109.00,166.50Z M142.50,164.00 L143.50,164.00 L143.00,165.50Z M204.50,164.00 L205.50,164.00 L204.00,165.50 L200.00,167.50 L198.50,167.00Z M258.50,164.00 L259.50,164.00 L258.00,165.50 L257.50,165.00Z M293.50,164.00 L294.50,164.00 L294.00,175.50Z M322.50,164.00 L323.00,163.50 L324.50,165.00 L325.00,167.50Z M8.50,165.00 L10.00,164.50 L11.50,166.00 L11.00,166.50Z M96.50,165.00 L97.00,164.50 L97.50,166.00 L94.50,171.00 L88.00,177.50 L87.50,177.00 L93.50,171.00Z M136.50,165.00 L137.50,165.00 L137.00,168.50Z M157.50,165.00 L158.00,164.50 L159.50,166.00 L160.00,168.50Z M280.50,165.00 L281.50,165.00 L281.00,167.50Z M48.50,166.00 L49.50,166.00 L44.50,176.00 L44.00,185.50 L43.50,176.00Z M90.50,166.00 L91.50,166.00 L89.00,168.50 L88.50,168.00Z M228.50,166.00 L229.50,166.00 L230.50,170.00 L234.00,173.50 L235.00,173.50 L235.00,174.50 L234.00,174.50 L229.50,170.00Z M235.50,166.00 L237.00,165.50 L239.50,167.00 L238.00,167.50Z M311.50,166.00 L312.50,166.00 L312.00,167.50Z M12.50,167.00 L13.00,166.50 L15.50,168.00 L14.00,168.50Z M143.50,167.00 L144.50,167.00 L144.00,169.50Z M212.50,167.00 L213.50,167.00 L212.00,168.50 L211.50,168.00Z M256.50,167.00 L257.50,167.00 L252.00,172.50 L251.50,172.00Z M306.50,168.00 L307.50,168.00 L307.00,170.50Z M107.50,169.00 L108.50,169.00 L108.00,170.50Z M129.50,169.00 L130.50,169.00 L130.00,170.50Z M300.50,169.00 L301.50,169.00 L301.00,184.50Z M312.50,169.00 L313.50,169.00 L313.00,171.50Z M58.50,170.00 L59.50,170.00 L60.50,174.00 L65.00,178.50 L66.00,178.50 L66.00,179.50 L65.00,179.50 L59.50,174.00Z M117.50,170.00 L118.50,170.00 L118.00,173.50Z M153.50,170.00 L154.00,169.50 L155.50,172.00 L155.00,173.50Z M160.50,170.00 L161.00,169.50 L162.50,171.00 L164.50,175.00 L164.00,175.50Z M210.50,170.00 L211.50,170.00 L210.00,171.50 L209.50,171.00Z M214.50,170.00 L215.50,170.00 L215.00,171.50Z M279.50,170.00 L280.50,170.00 L280.00,172.50Z M137.50,171.00 L138.50,171.00 L138.00,178.50Z M144.50,171.00 L145.50,171.00 L145.00,173.50Z M174.50,171.00 L175.00,170.50 L182.00,176.50 L187.50,179.00 L186.00,179.50 L182.00,177.50Z M326.50,171.00 L327.00,170.50 L328.50,172.00 L332.50,180.00 L332.00,181.50Z M8.50,172.00 L9.00,171.50 L10.50,173.00 L10.00,173.50Z M38.50,172.00 L39.50,172.00 L35.00,176.50 L34.50,176.00Z M84.50,172.00 L85.50,172.00 L84.00,173.50 L81.50,174.00Z M97.50,172.00 L98.50,172.00 L97.50,174.00 L90.00,181.50 L89.50,181.00Z M106.50,172.00 L107.00,171.50 L107.50,173.00 L106.00,175.50 L105.50,174.00Z M213.50,173.00 L214.50,173.00 L214.00,175.50Z M272.50,173.00 L273.00,172.50 L273.50,174.00 L270.00,179.50 L269.50,179.00Z M287.50,173.00 L288.50,173.00 L288.00,175.50Z M307.50,173.00 L308.50,173.00 L308.00,181.50Z M313.50,173.00 L314.50,173.00 L314.00,175.50Z M11.50,174.00 L12.00,173.50 L16.50,177.00 L14.00,176.50Z M278.50,174.00 L279.50,174.00 L279.00,175.50Z M319.50,174.00 L320.50,174.00 L320.00,175.50Z M155.50,175.00 L156.50,175.00 L156.00,176.50Z M169.50,175.00 L170.00,174.50 L172.50,177.00 L172.00,177.50Z M201.50,175.00 L202.50,175.00 L199.00,178.50 L197.00,179.50 L195.50,179.00 L199.00,177.50Z M207.50,175.00 L208.50,175.00 L206.00,179.50 L205.50,178.00Z M116.50,176.00 L117.50,176.00 L117.00,177.50Z M145.50,176.00 L146.50,176.00 L146.00,180.50Z M32.50,177.00 L33.50,177.00 L32.00,178.50 L31.50,178.00Z M104.50,177.00 L105.50,177.00 L103.00,180.50 L102.50,180.00Z M277.50,177.00 L278.50,177.00 L278.00,178.50Z M286.50,177.00 L287.50,177.00 L287.00,179.50Z M314.50,177.00 L315.50,177.00 L315.00,181.50Z M320.50,177.00 L321.50,177.00 L321.00,178.50Z M17.50,178.00 L18.00,177.50 L21.50,179.00 L19.00,179.50Z M128.50,178.00 L129.50,178.00 L129.00,183.50Z M156.50,178.00 L157.50,178.00 L157.00,179.50Z M28.50,179.00 L30.50,179.00 L28.00,180.50 L22.50,180.00Z M115.50,179.00 L116.50,179.00 L116.00,180.50Z M172.50,179.00 L173.00,178.50 L175.50,181.00 L175.00,181.50Z M262.50,179.00 L263.50,179.00 L259.00,183.50 L258.50,183.00Z M292.50,179.00 L293.50,179.00 L293.00,182.50Z M137.50,180.00 L138.50,180.00 L138.00,188.50Z M217.50,180.00 L218.00,179.50 L219.50,181.00 L219.00,182.50Z M321.50,180.00 L322.50,180.00 L322.00,182.50Z M326.50,180.00 L327.50,180.00 L327.00,182.50Z M51.50,181.00 L52.50,181.00 L53.00,183.50Z M157.50,181.00 L158.50,181.00 L158.00,183.50Z M204.50,181.00 L205.50,181.00 L205.00,182.50Z M213.50,181.00 L214.50,181.00 L214.00,183.50Z M268.50,181.00 L269.50,181.00 L267.00,183.50 L266.50,183.00Z M285.50,181.00 L286.50,181.00 L286.00,182.50Z M7.50,182.00 L8.00,181.50 L10.50,184.00 L14.50,190.00 L15.00,192.50Z M101.50,182.00 L102.50,182.00 L95.00,189.50 L90.00,192.50 L88.50,192.00 L95.00,188.50Z M114.50,182.00 L115.00,181.50 L115.50,183.00 L112.50,189.00 L110.00,191.50 L109.50,191.00 L111.50,189.00Z M275.50,182.00 L276.50,182.00 L274.00,185.50 L273.50,185.00Z M33.50,183.00 L34.50,183.00 L33.00,184.50 L32.50,184.00Z M85.50,183.00 L86.50,183.00 L85.00,184.50 L82.50,184.00Z M167.50,183.00 L168.00,182.50 L169.50,185.00 L169.00,186.50Z M175.50,183.00 L176.00,182.50 L178.50,185.00 L178.00,185.50Z M332.50,183.00 L333.00,182.50 L334.50,185.00 L334.00,186.50Z M203.50,184.00 L204.50,184.00 L204.00,189.50Z M219.50,184.00 L220.00,183.50 L227.50,190.00 L225.00,189.50Z M256.50,184.00 L257.50,184.00 L256.00,185.50 L252.00,187.50 L249.50,187.00Z M284.50,184.00 L285.50,184.00 L285.00,185.50Z M291.50,184.00 L292.50,184.00 L292.00,186.50Z M327.50,184.00 L328.50,184.00 L328.00,185.50Z M53.50,185.00 L54.00,184.50 L57.50,188.00 L57.00,188.50Z M127.50,185.00 L128.50,185.00 L128.00,187.50Z M158.50,185.00 L159.50,185.00 L159.00,188.50Z M264.50,185.00 L265.50,185.00 L261.00,189.50 L260.50,189.00Z M315.50,185.00 L316.50,185.00 L316.00,194.50Z M322.50,185.00 L323.50,185.00 L323.00,189.50Z M31.50,186.00 L32.50,186.00 L30.00,191.50 L29.50,189.00Z M44.50,187.00 L45.50,187.00 L46.00,189.50Z M178.50,187.00 L179.00,186.50 L181.50,189.00 L181.00,189.50Z M215.50,187.00 L216.00,186.50 L218.50,189.00 L218.00,189.50Z M272.50,187.00 L273.50,187.00 L271.00,189.50 L270.50,189.00Z M299.50,187.00 L300.50,187.00 L300.00,189.50Z M307.50,187.00 L308.50,187.00 L308.00,192.50Z M328.50,187.00 L329.50,187.00 L329.00,190.50Z M146.50,188.00 L147.50,188.00 L147.00,189.50Z M169.50,188.00 L170.50,188.00 L170.00,189.50Z M290.50,188.00 L291.00,187.50 L291.50,189.00 L290.00,191.50 L289.50,190.00Z M334.50,188.00 L335.50,188.00 L335.00,190.50Z M58.50,189.00 L59.00,188.50 L60.50,190.00 L60.00,190.50Z M126.50,189.00 L127.50,189.00 L127.00,190.50Z M163.50,189.00 L164.50,189.00 L164.00,192.50Z M258.50,190.00 L259.50,190.00 L258.00,191.50 L254.00,193.50 L251.50,193.00Z M46.50,191.00 L47.00,190.50 L55.50,199.00 L55.00,199.50Z M136.50,191.00 L137.50,191.00 L137.50,194.00 L136.00,197.50 L135.50,195.00 L136.50,194.00Z M170.50,191.00 L171.50,191.00 L171.00,192.50Z M181.50,191.00 L182.00,190.50 L183.50,192.00 L184.00,194.50Z M204.50,191.00 L205.50,191.00 L207.50,195.00 L207.00,195.50Z M218.50,191.00 L219.00,190.50 L224.50,195.00 L224.00,195.50Z M228.50,191.00 L229.00,190.50 L231.50,192.00 L230.00,192.50Z M268.50,191.00 L269.50,191.00 L264.00,196.50 L261.50,197.00Z M298.50,191.00 L299.50,191.00 L299.00,192.50Z M125.50,192.00 L126.00,191.50 L126.50,193.00 L125.00,195.50 L124.50,194.00Z M159.50,192.00 L160.50,192.00 L160.00,202.50Z M335.50,192.00 L336.50,192.00 L336.00,193.50Z M36.50,193.00 L37.50,193.00 L38.00,195.50Z M108.50,193.00 L109.50,193.00 L102.00,200.50 L101.50,200.00Z M145.50,193.00 L146.50,193.00 L146.00,197.50Z M195.50,193.00 L196.50,193.00 L196.50,195.00 L200.50,202.00 L206.50,208.00 L206.00,208.50 L199.50,202.00 L195.50,195.00Z M280.50,193.00 L281.50,193.00 L280.00,194.50 L279.50,194.00Z M323.50,193.00 L324.50,193.00 L324.00,196.50Z M329.50,193.00 L330.50,193.00 L330.00,203.50Z M15.50,194.00 L16.00,193.50 L17.50,196.00 L17.00,198.50Z M29.50,194.00 L30.50,194.00 L30.50,196.00 L32.50,200.00 L35.50,203.00 L35.00,203.50 L31.50,200.00 L29.50,196.00Z M96.50,194.00 L97.50,194.00 L96.00,195.50 L93.50,196.00Z M151.50,194.00 L152.50,194.00 L152.00,198.50Z M171.50,194.00 L172.50,194.00 L172.00,197.50Z M211.50,194.00 L212.00,193.50 L220.50,202.00 L220.00,202.50Z M306.50,195.00 L307.50,195.00 L307.00,197.50Z M164.50,196.00 L165.50,196.00 L165.00,202.50Z M184.50,196.00 L185.50,196.00 L185.00,197.50Z M225.50,196.00 L226.00,195.50 L232.50,199.00 L231.00,199.50Z M278.50,196.00 L279.50,196.00 L270.00,205.50 L263.00,209.50 L261.50,209.00 L270.00,204.50Z M38.50,197.00 L39.00,196.50 L40.50,198.00 L40.50,199.00 L49.50,208.00 L49.00,208.50 L39.50,199.00Z M207.50,197.00 L208.00,196.50 L210.50,199.00 L210.00,199.50Z M314.50,197.00 L315.50,197.00 L315.00,201.50Z M336.50,197.00 L337.50,197.00 L337.00,204.50Z M113.50,199.00 L114.50,199.00 L113.00,200.50 L112.50,200.00Z M122.50,199.00 L123.50,199.00 L121.00,202.50 L120.50,202.00Z M134.50,199.00 L135.50,199.00 L135.00,200.50Z M285.50,199.00 L286.50,199.00 L285.00,200.50 L284.50,200.00Z M16.50,200.00 L17.50,200.00 L17.00,202.50Z M20.50,200.00 L23.00,199.50 L25.00,200.50 L32.50,208.00 L32.00,208.50 L25.00,201.50Z M56.50,200.00 L57.00,199.50 L58.50,201.00 L58.00,201.50Z M144.50,200.00 L145.50,200.00 L145.00,202.50Z M184.50,200.00 L185.50,200.00 L185.00,201.50Z M253.50,200.00 L255.50,200.00 L253.00,201.50 L248.50,201.00Z M99.50,201.00 L100.50,201.00 L99.00,202.50 L98.50,202.00Z M150.50,201.00 L151.50,201.00 L151.00,204.50Z M211.50,201.00 L212.00,200.50 L219.00,207.50 L225.00,211.50 L234.50,216.00 L233.00,216.50 L225.00,212.50 L219.00,208.50Z M111.50,202.00 L112.50,202.00 L109.00,205.50 L108.50,205.00Z M283.50,202.00 L284.50,202.00 L280.00,206.50 L279.50,206.00Z M300.50,202.00 L301.00,201.50 L301.50,203.00 L297.00,210.50 L296.50,210.00Z M322.50,202.00 L323.50,202.00 L323.00,205.50Z M171.50,203.00 L172.50,203.00 L172.00,207.50Z M221.50,203.00 L222.00,202.50 L223.50,204.00 L223.00,204.50Z M313.50,203.00 L314.50,203.00 L314.00,204.50Z M63.50,204.00 L65.00,203.50 L71.50,206.00 L69.00,206.50Z M119.50,204.00 L120.50,204.00 L118.00,206.50 L117.50,206.00Z M132.50,204.00 L133.00,203.50 L133.50,205.00 L130.00,210.50 L129.50,210.00Z M143.50,204.00 L144.50,204.00 L144.00,205.50Z M35.50,205.00 L36.00,204.50 L45.50,214.00 L45.00,214.50Z M91.50,205.00 L93.50,205.00 L91.00,206.50 L88.50,206.00Z M158.50,205.00 L159.50,205.00 L159.00,208.50Z M224.50,205.00 L225.00,204.50 L231.50,208.00 L230.00,208.50Z M292.50,205.00 L293.50,205.00 L292.50,207.00 L290.00,209.50 L289.50,209.00Z M14.50,206.00 L15.50,206.00 L14.00,207.50 L13.50,207.00Z M106.50,206.00 L107.50,206.00 L104.00,209.50 L101.50,210.00Z M149.50,206.00 L150.50,206.00 L150.00,207.50Z M163.50,206.00 L164.50,206.00 L164.00,209.50Z M328.50,206.00 L329.50,206.00 L329.00,209.50Z M142.50,207.00 L143.50,207.00 L143.00,208.50Z M183.50,207.00 L184.50,207.00 L183.00,208.50 L182.50,208.00Z M321.50,207.00 L322.50,207.00 L322.00,209.50Z M116.50,208.00 L117.50,208.00 L112.00,213.50 L111.50,213.00Z M191.50,208.00 L192.00,207.50 L196.00,210.50 L217.50,232.00 L217.00,232.50Z M278.50,208.00 L279.50,208.00 L278.00,209.50 L277.50,209.00Z M308.50,208.00 L309.50,208.00 L307.00,212.50 L306.50,211.00Z M335.50,208.00 L336.50,208.00 L336.00,209.50Z M12.50,209.00 L13.50,209.00 L12.00,210.50 L11.50,210.00Z M50.50,209.00 L51.00,208.50 L56.50,213.00 L54.00,212.50Z M148.50,209.00 L149.50,209.00 L149.00,210.50Z M170.50,209.00 L171.50,209.00 L171.00,211.50Z M24.50,210.00 L25.00,209.50 L28.50,213.00 L28.00,213.50Z M157.50,210.00 L158.50,210.00 L158.00,211.50Z M207.50,210.00 L208.00,209.50 L216.50,218.00 L216.00,218.50Z M275.50,210.00 L276.50,210.00 L274.00,212.50 L273.50,212.00Z M162.50,211.00 L163.50,211.00 L163.00,212.50Z M288.50,211.00 L289.50,211.00 L280.00,220.50 L279.50,220.00Z M320.50,211.00 L321.50,211.00 L321.00,212.50Z M327.50,211.00 L328.50,211.00 L328.00,212.50Z M334.50,211.00 L335.50,211.00 L335.00,213.50Z M10.50,212.00 L11.50,212.00 L9.00,215.50 L8.50,214.00Z M34.50,212.00 L35.00,211.50 L39.50,216.00 L39.00,216.50Z M96.50,212.00 L98.00,211.50 L98.00,212.50 L96.00,213.50 L94.50,213.00Z M128.50,212.00 L129.50,212.00 L128.00,213.50 L127.50,213.00Z M140.50,212.00 L141.00,211.50 L141.50,213.00 L136.00,221.50 L135.50,221.00 L138.50,217.00Z M147.50,212.00 L148.50,212.00 L148.00,213.50Z M295.50,212.00 L296.50,212.00 L295.00,213.50 L294.50,213.00Z M133.50,213.00 L134.50,213.00 L132.00,216.50 L131.50,216.00Z M156.50,213.00 L157.50,213.00 L157.00,214.50Z M271.50,213.00 L272.50,213.00 L271.00,214.50 L267.00,216.50 L266.50,216.00Z M29.50,214.00 L30.00,213.50 L49.50,233.00 L49.00,233.50Z M57.50,214.00 L58.00,213.50 L59.50,215.00 L59.00,215.50Z M109.50,214.00 L110.50,214.00 L108.00,216.50 L105.50,217.00Z M161.50,214.00 L162.50,214.00 L162.00,215.50Z M319.50,214.00 L320.00,213.50 L320.50,215.00 L319.00,217.50 L318.50,216.00Z M326.50,214.00 L327.50,214.00 L327.00,215.50Z M46.50,215.00 L47.00,214.50 L51.50,219.00 L51.00,219.50Z M126.50,215.00 L127.50,215.00 L122.00,220.50 L121.50,220.00Z M168.50,215.00 L169.00,214.50 L169.50,216.00 L166.00,221.50 L165.50,221.00Z M293.50,215.00 L294.50,215.00 L292.00,217.50 L291.50,217.00Z M19.50,216.00 L21.00,215.50 L25.50,219.00 L25.00,219.50 L23.00,217.50Z M155.50,216.00 L156.00,215.50 L156.50,217.00 L154.00,221.50 L153.50,220.00Z M181.50,216.00 L186.00,215.50 L188.50,217.00 L187.00,217.50 L186.00,216.50Z M304.50,216.00 L305.50,216.00 L303.00,219.50 L302.50,219.00Z M178.50,217.00 L180.00,216.50 L180.00,217.50 L176.00,219.50 L173.00,222.50 L172.50,222.00Z M325.50,217.00 L326.00,216.50 L326.50,218.00 L322.00,225.50 L321.50,225.00Z M41.50,218.00 L42.00,217.50 L50.50,226.00 L50.00,226.50Z M130.50,218.00 L131.50,218.00 L128.50,222.00 L121.00,229.50 L117.00,232.50 L114.50,233.00 L121.00,228.50Z M189.50,218.00 L190.00,217.50 L192.50,220.00 L192.00,220.50Z M159.50,219.00 L160.50,219.00 L160.00,220.50Z M217.50,219.00 L218.00,218.50 L220.50,221.00 L220.00,221.50Z M290.50,219.00 L291.50,219.00 L286.00,224.50 L282.00,227.50 L281.50,227.00Z M313.50,219.00 L314.00,218.50 L314.50,220.00 L313.00,221.50Z M26.50,220.00 L27.00,219.50 L40.50,233.00 L40.00,233.50Z M52.50,220.00 L53.00,219.50 L55.50,222.00 L55.00,222.50Z M109.50,221.00 L110.50,221.00 L109.00,222.50 L106.50,223.00Z M143.50,221.00 L144.50,221.00 L142.00,224.50 L141.50,224.00Z M183.50,221.00 L184.00,220.50 L186.50,222.00 L185.00,222.50Z M193.50,221.00 L194.00,220.50 L206.50,233.00 L206.50,234.00 L215.50,243.00 L215.50,244.00 L240.50,269.00 L240.00,269.50 L214.50,244.00 L214.50,243.00 L205.50,234.00 L205.50,233.00Z M277.50,221.00 L278.50,221.00 L277.00,222.50 L276.50,222.00Z M301.50,221.00 L302.50,221.00 L300.00,223.50 L299.50,223.00Z M340.50,221.00 L341.50,221.00 L336.00,226.50 L335.50,226.00Z M120.50,222.00 L121.50,222.00 L115.00,227.50 L112.50,228.00Z M221.50,222.00 L222.00,221.50 L226.50,225.00 L224.00,224.50Z M18.50,223.00 L20.00,222.50 L21.50,224.00 L21.00,224.50Z M56.50,223.00 L57.00,222.50 L58.50,224.00 L58.00,224.50Z M134.50,223.00 L135.50,223.00 L133.00,225.50 L132.50,225.00Z M152.50,223.00 L153.50,223.00 L151.00,226.50 L150.50,226.00Z M164.50,223.00 L165.50,223.00 L164.50,225.00 L160.00,230.50 L159.50,230.00Z M187.50,223.00 L188.00,222.50 L189.50,224.00 L189.00,224.50Z M274.50,223.00 L275.50,223.00 L274.00,224.50 L272.00,225.50 L270.50,225.00Z M311.50,223.00 L312.50,223.00 L310.00,226.50 L309.50,226.00Z M329.50,223.00 L330.50,223.00 L328.00,226.50 L327.50,226.00Z M22.50,225.00 L23.00,224.50 L28.50,229.00 L27.00,229.50Z M59.50,225.00 L60.00,224.50 L63.50,227.00 L63.00,227.50Z M101.50,225.00 L103.50,225.00 L101.00,226.50 L98.50,226.00Z M190.50,225.00 L191.00,224.50 L202.50,236.00 L202.00,236.50Z M298.50,225.00 L299.50,225.00 L288.00,236.50 L283.00,239.50 L282.50,239.00 L288.00,235.50Z M314.50,225.00 L315.50,225.00 L314.00,226.50 L313.50,226.00Z M140.50,226.00 L141.50,226.00 L140.00,227.50 L139.50,227.00Z M227.50,226.00 L228.00,225.50 L231.50,228.00 L231.00,228.50Z M267.50,226.00 L269.00,225.50 L269.00,226.50 L267.00,227.50 L265.50,227.00Z M51.50,227.00 L52.00,226.50 L55.50,230.00 L55.00,230.50Z M131.50,227.00 L132.50,227.00 L125.00,234.50 L124.50,234.00Z M320.50,227.00 L321.50,227.00 L319.00,230.50 L318.50,230.00Z M149.50,228.00 L150.50,228.00 L149.50,230.00 L144.00,236.50 L143.50,236.00Z M174.50,228.00 L177.00,227.50 L177.00,228.50 L175.00,228.50 L172.00,230.50 L171.50,230.00Z M279.50,228.00 L280.50,228.00 L279.00,229.50 L276.50,230.00Z M308.50,228.00 L309.50,228.00 L307.50,231.00 L302.00,236.50 L301.50,236.00Z M110.50,229.00 L111.50,229.00 L110.00,230.50 L108.00,231.50 L106.50,231.00Z M138.50,229.00 L139.50,229.00 L136.00,232.50 L135.50,232.00Z M333.50,229.00 L334.50,229.00 L327.00,236.50 L326.50,236.00Z M68.50,230.00 L70.00,229.50 L72.50,231.00 L71.00,231.50Z M186.50,230.00 L187.00,229.50 L193.50,235.00 L193.00,235.50 L190.00,233.50Z M16.50,231.00 L18.00,230.50 L20.50,233.00 L20.00,233.50Z M28.50,231.00 L29.00,230.50 L36.50,238.00 L36.50,239.00 L43.50,247.00 L43.00,247.50 L35.50,239.00 L35.50,238.00Z M56.50,231.00 L57.00,230.50 L62.50,235.00 L62.00,235.50Z M103.50,232.00 L105.50,232.00 L103.00,233.50 L100.50,233.00Z M158.50,232.00 L159.50,232.00 L157.00,234.50 L156.50,234.00Z M317.50,232.00 L318.50,232.00 L316.00,234.50 L315.50,234.00Z M218.50,233.00 L219.00,232.50 L221.50,235.00 L221.00,235.50Z M21.50,234.00 L22.00,233.50 L27.50,239.00 L30.50,243.00 L30.00,243.50Z M112.50,234.00 L113.50,234.00 L112.00,235.50 L110.50,235.00Z M134.50,234.00 L135.50,234.00 L133.00,236.50 L132.50,236.00Z M40.50,235.00 L41.00,234.50 L50.50,244.00 L50.00,244.50Z M122.50,235.00 L123.50,235.00 L120.00,238.50 L117.50,239.00Z M214.50,235.00 L215.00,234.50 L230.50,249.00 L230.00,249.50 L226.00,245.50 L225.00,245.50Z M9.50,236.00 L12.00,235.50 L14.50,237.00 L13.00,237.50Z M63.50,236.00 L64.00,235.50 L67.50,238.00 L67.00,238.50Z M155.50,236.00 L156.50,236.00 L153.50,240.00 L147.00,246.50 L146.50,246.00Z M314.50,236.00 L315.50,236.00 L313.00,238.50 L312.50,238.00Z M193.50,237.00 L194.00,236.50 L198.50,241.00 L198.00,241.50Z M15.50,238.00 L16.00,237.50 L19.50,241.00 L19.00,241.50Z M142.50,238.00 L143.50,238.00 L131.00,250.50 L130.50,250.00Z M168.50,238.00 L170.00,237.50 L170.00,238.50 L166.00,240.50 L163.00,243.50 L162.50,243.00Z M181.50,238.00 L184.00,238.50 L192.50,248.00 L192.00,248.50 L189.50,245.00Z M202.50,238.00 L203.00,237.50 L207.50,242.00 L210.50,246.00 L210.00,246.50Z M300.50,238.00 L301.50,238.00 L300.00,239.50 L299.50,239.00Z M325.50,238.00 L326.50,238.00 L319.50,245.00 L319.50,246.00 L304.00,261.50 L303.50,261.00Z M115.50,240.00 L116.50,240.00 L115.00,241.50 L111.00,243.50 L109.50,243.00Z M311.50,240.00 L312.50,240.00 L298.00,254.50 L295.00,256.50 L294.50,256.00Z M296.50,241.00 L297.50,241.00 L293.00,245.50 L292.50,245.00Z M336.50,241.00 L339.50,241.00 L336.00,242.50 L334.50,242.00Z M20.50,242.00 L21.00,241.50 L22.50,243.00 L25.50,247.00 L25.00,247.50Z M74.50,242.00 L76.00,241.50 L81.50,244.00 L80.00,244.50Z M125.50,242.00 L126.50,242.00 L124.00,244.50 L123.50,244.00Z M275.50,242.00 L277.50,242.00 L275.00,243.50 L272.50,243.00Z M58.50,243.00 L59.00,242.50 L62.50,246.00 L62.00,246.50Z M177.50,243.00 L179.00,242.50 L184.50,247.00 L184.00,247.50Z M198.50,243.00 L199.00,242.50 L201.50,245.00 L203.50,248.00 L203.00,248.50Z M245.50,243.00 L248.00,242.50 L249.00,243.50 L252.50,244.00 L249.00,244.50Z M332.50,243.00 L333.50,243.00 L332.00,244.50 L331.50,244.00Z M160.50,244.00 L161.50,244.00 L138.00,267.50 L137.50,267.00Z M232.50,244.00 L233.00,243.50 L234.50,245.00 L234.00,245.50Z M30.50,245.00 L31.00,244.50 L32.50,246.00 L32.00,246.50Z M121.50,245.00 L122.50,245.00 L121.00,246.50 L120.50,246.00Z M329.50,245.00 L330.50,245.00 L328.00,247.50 L327.50,247.00Z M50.50,246.00 L51.00,245.50 L68.50,263.00 L68.00,263.50Z M235.50,246.00 L236.00,245.50 L239.50,248.00 L239.00,248.50Z M290.50,246.00 L291.50,246.00 L290.00,247.50 L289.50,247.00Z M63.50,247.00 L64.00,246.50 L69.50,251.00 L69.00,251.50Z M32.50,248.00 L33.00,247.50 L34.50,249.00 L34.00,249.50Z M145.50,248.00 L146.50,248.00 L138.00,256.50 L137.50,256.00Z M287.50,248.00 L288.50,248.00 L287.00,249.50 L284.50,250.00Z M325.50,248.00 L326.50,248.00 L305.00,269.50 L304.50,269.00Z M25.50,249.00 L26.00,248.50 L27.50,250.00 L28.00,252.50Z M43.50,249.00 L44.00,248.50 L46.50,251.00 L46.00,251.50Z M184.50,249.00 L185.00,248.50 L188.50,252.00 L190.50,256.00 L190.00,256.50 L187.50,252.00Z M111.50,250.00 L113.00,249.50 L113.00,250.50 L111.00,251.50 L109.50,251.00Z M192.50,250.00 L193.00,249.50 L194.50,251.00 L195.00,253.50Z M203.50,250.00 L204.00,249.50 L205.50,251.00 L205.00,251.50Z M231.50,250.00 L232.00,249.50 L235.00,252.50 L245.50,259.00 L245.00,259.50 L241.00,257.50Z M10.50,251.00 L11.00,250.50 L15.50,255.00 L15.00,255.50Z M34.50,251.00 L35.00,250.50 L36.50,252.00 L37.00,254.50Z M128.50,251.00 L129.50,251.00 L127.00,253.50 L126.50,253.00Z M244.50,251.00 L246.00,250.50 L248.50,252.00 L247.00,252.50Z M281.50,251.00 L283.50,251.00 L279.00,253.50 L276.50,253.00Z M70.50,252.00 L71.00,251.50 L75.00,254.50 L82.50,258.00 L81.00,258.50 L75.00,255.50Z M163.50,252.00 L165.00,251.50 L165.00,252.50 L162.00,253.50 L160.00,255.50 L159.50,255.00Z M175.50,252.00 L176.00,251.50 L179.50,254.00 L178.00,254.50Z M46.50,253.00 L47.00,252.50 L49.50,255.00 L51.50,258.00 L51.00,258.50Z M205.50,253.00 L206.00,252.50 L207.50,254.00 L208.00,256.50Z M28.50,254.00 L29.00,253.50 L30.50,255.00 L32.50,259.00 L32.00,260.50Z M124.50,254.00 L125.50,254.00 L121.00,257.50 L119.50,257.00Z M211.50,254.00 L212.00,253.50 L214.50,256.00 L220.50,265.00 L221.00,267.50Z M37.50,256.00 L38.00,255.50 L39.50,257.00 L41.50,261.00 L41.00,261.50Z M157.50,256.00 L158.50,256.00 L151.00,263.50 L150.50,263.00Z M179.50,256.00 L180.00,255.50 L182.50,258.00 L183.50,260.00 L183.00,261.50 L181.50,258.00Z M8.50,257.00 L9.00,256.50 L10.50,258.00 L10.00,258.50Z M15.50,257.00 L16.00,256.50 L17.50,258.00 L18.50,260.00 L18.00,261.50Z M135.50,257.00 L136.50,257.00 L132.00,261.50 L129.00,263.50 L128.50,263.00Z M292.50,257.00 L293.50,257.00 L292.00,258.50 L291.50,258.00Z M167.50,258.00 L171.00,257.50 L172.50,259.00Z M208.50,258.00 L209.00,257.50 L210.50,259.00 L211.00,261.50Z M161.50,259.00 L163.50,259.00 L161.00,260.50 L160.50,260.00Z M289.50,259.00 L290.50,259.00 L289.00,260.50 L285.00,262.50 L283.50,262.00Z M328.50,259.00 L330.00,258.50 L330.00,259.50 L324.00,262.50 L310.50,276.00 L310.50,277.00 L298.00,291.50 L297.50,291.00 L309.50,277.00 L309.50,276.00 L324.00,261.50Z M338.50,259.00 L339.00,258.50 L340.50,260.00 L340.00,260.50Z M10.50,260.00 L11.00,259.50 L12.50,261.00 L12.00,261.50Z M51.50,260.00 L52.00,259.50 L54.50,262.00 L56.50,265.00 L56.00,265.50Z M173.50,260.00 L174.00,259.50 L175.50,261.00 L175.00,261.50Z M191.50,260.00 L192.00,259.50 L193.50,262.00 L193.00,263.50Z M158.50,261.00 L159.50,261.00 L158.00,262.50 L157.50,262.00Z M248.50,261.00 L250.00,260.50 L252.50,262.00 L251.00,262.50Z M74.50,262.00 L76.00,261.50 L80.50,265.00 L80.00,265.50Z M301.50,262.00 L302.50,262.00 L299.00,265.50 L298.50,265.00Z M155.50,263.00 L156.50,263.00 L146.00,273.50 L145.50,273.00Z M175.50,263.00 L176.00,262.50 L177.50,264.00 L178.50,266.00 L178.00,267.50Z M199.50,263.00 L200.50,263.00 L200.00,264.50Z M33.50,264.00 L34.00,263.50 L35.50,266.00 L35.00,267.50Z M69.50,264.00 L70.00,263.50 L75.00,268.50 L85.00,275.50 L92.50,279.00 L91.00,279.50 L85.00,276.50 L75.00,269.50Z M126.50,264.00 L127.50,264.00 L126.00,265.50 L125.50,265.00Z M13.50,265.00 L14.50,265.00 L14.00,266.50Z M19.50,265.00 L20.50,265.00 L20.00,266.50Z M193.50,265.00 L194.50,265.00 L194.00,266.50Z M212.50,265.00 L213.00,264.50 L214.50,266.00 L218.50,274.00 L218.00,275.50Z M296.50,266.00 L297.50,266.00 L295.00,268.50 L292.50,269.00Z M56.50,267.00 L57.00,266.50 L58.50,268.00 L58.00,268.50Z M121.50,267.00 L122.50,267.00 L121.00,268.50 L119.50,268.00Z M244.50,267.00 L246.00,266.50 L247.50,268.00 L247.00,268.50Z M14.50,268.00 L15.50,268.00 L15.00,269.50Z M20.50,268.00 L21.50,268.00 L21.00,270.50Z M135.50,268.00 L136.50,268.00 L132.00,272.50 L129.00,274.50 L128.50,274.00Z M160.50,268.00 L162.00,267.50 L162.00,268.50 L159.00,269.50 L151.00,277.50 L150.50,277.00 L159.00,268.50Z M166.50,268.00 L167.00,267.50 L171.50,273.00 L171.00,281.50 L170.50,273.00Z M194.50,268.00 L195.50,268.00 L195.00,269.50Z M201.50,268.00 L202.50,268.00 L202.00,269.50Z M225.50,268.00 L226.00,267.50 L228.50,270.00 L228.00,270.50Z M35.50,269.00 L36.50,269.00 L36.00,270.50Z M44.50,269.00 L45.00,268.50 L46.50,271.00 L46.00,272.50Z M116.50,269.00 L118.00,268.50 L118.00,269.50 L116.00,270.50 L114.50,270.00Z M144.50,269.00 L145.50,269.00 L144.00,270.50 L143.50,270.00Z M221.50,269.00 L222.00,268.50 L223.50,270.00 L223.00,270.50Z M248.50,269.00 L249.00,268.50 L257.50,273.00 L256.00,273.50Z M58.50,270.00 L59.00,269.50 L61.50,272.00 L71.50,287.00 L72.00,289.50Z M178.50,270.00 L179.50,270.00 L179.00,271.50Z M241.50,270.00 L242.00,269.50 L245.50,273.00 L245.00,273.50Z M290.50,270.00 L291.50,270.00 L290.00,271.50 L286.00,273.50 L284.50,273.00Z M302.50,270.00 L303.50,270.00 L299.00,274.50 L298.50,274.00Z M195.50,271.00 L196.50,271.00 L196.00,274.50Z M202.50,271.00 L203.50,271.00 L203.00,272.50Z M15.50,272.00 L16.50,272.00 L16.00,276.50Z M25.50,272.00 L26.50,272.00 L26.00,274.50Z M36.50,272.00 L37.50,272.00 L37.00,273.50Z M223.50,272.00 L224.00,271.50 L225.50,273.00 L226.00,275.50Z M228.50,272.00 L229.00,271.50 L231.50,274.00 L233.50,277.00 L233.00,277.50Z M326.50,272.00 L327.50,272.00 L321.50,277.00 L318.00,283.50 L317.50,282.00 L320.50,277.00Z M331.50,272.00 L332.00,271.50 L335.50,276.00 L335.00,279.50 L334.50,276.00Z M21.50,273.00 L22.50,273.00 L22.00,278.50Z M183.50,274.00 L184.50,274.00 L184.00,284.50Z M203.50,274.00 L204.50,274.00 L204.00,276.50Z M246.50,274.00 L247.00,273.50 L252.00,277.50 L261.50,282.00 L260.00,282.50 L252.00,278.50Z M37.50,275.00 L38.50,275.00 L38.00,277.50Z M126.50,275.00 L127.50,275.00 L126.00,276.50 L125.50,276.00Z M144.50,275.00 L145.50,275.00 L140.00,280.50 L139.50,280.00Z M296.50,275.00 L297.50,275.00 L295.00,277.50 L294.50,277.00Z M47.50,276.00 L48.50,276.00 L48.00,277.50Z M179.50,276.00 L180.50,276.00 L180.00,280.50Z M196.50,276.00 L197.50,276.00 L197.00,280.50Z M26.50,277.00 L27.50,277.00 L27.00,292.50Z M123.50,277.00 L124.50,277.00 L123.00,278.50 L121.50,278.00Z M132.50,277.00 L133.50,277.00 L132.00,278.50 L128.00,281.50 L127.50,281.00Z M226.50,277.00 L227.00,276.50 L228.50,278.00 L229.00,280.50Z M15.50,278.00 L16.50,278.00 L16.00,285.50Z M204.50,278.00 L205.50,278.00 L205.00,281.50Z M292.50,278.00 L293.50,278.00 L292.00,279.50 L289.50,280.00Z M38.50,279.00 L39.50,279.00 L39.00,282.50Z M48.50,279.00 L49.00,278.50 L50.50,281.00 L50.00,283.50Z M149.50,279.00 L150.50,279.00 L149.00,280.50 L148.50,280.00Z M219.50,279.00 L220.00,278.50 L221.50,281.00 L221.00,282.50Z M233.50,279.00 L234.00,278.50 L236.50,281.00 L236.00,281.50Z M190.50,280.00 L191.50,280.00 L191.00,290.50Z M333.50,281.00 L334.50,281.00 L334.50,283.00 L333.00,284.50Z M55.50,282.00 L56.00,281.50 L57.50,284.00 L57.00,285.50Z M125.50,282.00 L126.50,282.00 L122.00,285.50 L120.50,285.00Z M138.50,282.00 L139.50,282.00 L136.00,285.50 L135.50,285.00Z M239.50,282.00 L240.00,281.50 L245.50,287.00 L245.00,287.50Z M21.50,283.00 L22.50,283.00 L22.00,289.50Z M169.50,283.00 L170.50,283.00 L170.00,284.50Z M178.50,283.00 L179.50,283.00 L179.50,286.00 L178.00,288.50 L177.50,287.00 L178.50,286.00Z M205.50,283.00 L206.50,283.00 L206.00,288.50Z M236.50,283.00 L237.00,282.50 L239.50,285.00 L241.50,288.00 L241.00,288.50Z M281.50,283.00 L283.50,283.00 L281.00,284.50 L276.50,284.00Z M297.50,283.00 L298.50,283.00 L296.00,285.50 L295.50,285.00Z M197.50,284.00 L198.50,284.00 L198.00,287.50Z M221.50,284.00 L222.50,284.00 L222.00,285.50Z M230.50,284.00 L231.00,283.50 L232.50,285.00 L237.50,295.00 L237.00,296.50Z M39.50,285.00 L40.50,285.00 L40.00,292.50Z M50.50,285.00 L51.50,285.00 L51.00,286.50Z M92.50,285.00 L94.00,284.50 L96.50,286.00 L95.00,286.50Z M247.50,285.00 L250.00,285.50 L254.50,290.00 L254.00,290.50Z M316.50,285.00 L317.50,285.00 L317.00,287.50Z M117.50,286.00 L119.00,285.50 L119.00,286.50 L117.00,287.50 L115.50,287.00Z M145.50,286.00 L146.50,286.00 L146.00,287.50Z M168.50,286.00 L169.50,286.00 L168.00,287.50 L167.50,287.00Z M210.50,286.00 L211.50,286.00 L211.00,288.50Z M293.50,286.00 L294.50,286.00 L292.00,288.50 L291.50,288.00Z M331.50,286.00 L332.50,286.00 L331.00,287.50 L330.50,287.00Z M14.50,287.00 L15.50,287.00 L15.00,289.50Z M57.50,287.00 L58.00,286.50 L59.50,289.00 L59.50,291.00 L60.50,292.00 L60.00,294.50Z M134.50,287.00 L135.50,287.00 L129.00,294.50 L128.50,294.00Z M182.50,287.00 L183.50,287.00 L183.00,289.50Z M222.50,287.00 L223.00,286.50 L224.50,289.00 L224.00,291.50Z M51.50,288.00 L52.50,288.00 L52.00,290.50Z M79.50,288.00 L80.00,287.50 L94.50,302.00 L94.00,302.50Z M86.50,289.00 L87.00,288.50 L89.50,291.00 L89.00,291.50Z M144.50,289.00 L145.50,289.00 L145.00,296.50Z M166.50,289.00 L167.50,289.00 L165.00,291.50 L164.50,291.00Z M245.50,289.00 L246.00,288.50 L263.00,305.50 L268.50,309.00 L268.00,309.50 L263.00,306.50Z M289.50,289.00 L290.50,289.00 L289.00,290.50 L288.50,290.00Z M316.50,289.00 L317.50,289.00 L317.00,291.50Z M176.50,290.00 L177.50,290.00 L177.00,291.50Z M241.50,290.00 L242.00,289.50 L244.50,292.00 L248.50,298.00 L248.00,298.50Z M13.50,291.00 L14.00,290.50 L14.50,292.00 L10.00,299.50 L9.50,299.00Z M20.50,291.00 L21.50,291.00 L21.00,293.50Z M72.50,291.00 L73.00,290.50 L74.50,292.00 L75.00,294.50Z M152.50,291.00 L153.00,290.50 L154.50,292.00 L154.00,292.50Z M181.50,291.00 L182.00,290.50 L182.50,292.00 L181.00,294.50 L180.50,293.00Z M211.50,291.00 L212.50,291.00 L212.00,307.50Z M255.50,291.00 L256.00,290.50 L258.50,293.00 L258.00,293.50Z M52.50,292.00 L53.50,292.00 L53.00,295.50Z M66.50,292.00 L67.00,291.50 L68.50,294.00 L68.00,295.50Z M90.50,292.00 L91.00,291.50 L92.50,293.00 L92.00,293.50Z M162.50,292.00 L163.50,292.00 L162.00,293.50 L158.50,293.00Z M333.50,292.00 L334.50,292.00 L332.00,294.50 L331.50,294.00Z M175.50,293.00 L176.50,293.00 L175.00,294.50 L174.50,294.00Z M189.50,293.00 L190.50,293.00 L190.00,294.50Z M196.50,293.00 L197.50,293.00 L197.00,297.50Z M224.50,293.00 L225.50,293.00 L225.00,294.50Z M265.50,293.00 L268.00,292.50 L269.00,293.50 L276.50,294.00 L269.00,294.50Z M296.50,293.00 L297.50,293.00 L295.00,295.50 L294.50,295.00Z M305.50,293.00 L306.50,293.00 L306.00,294.50Z M317.50,293.00 L318.00,292.50 L320.50,295.00 L320.00,295.50Z M25.50,294.00 L26.50,294.00 L26.00,296.50Z M93.50,294.00 L94.00,293.50 L100.50,297.00 L99.00,297.50Z M121.50,294.00 L122.50,294.00 L121.00,295.50 L118.50,296.00Z M259.50,294.00 L260.00,293.50 L263.50,296.00 L263.00,296.50Z M288.50,294.00 L289.50,294.00 L288.00,295.50 L287.50,295.00Z M19.50,295.00 L20.50,295.00 L20.00,296.50Z M328.50,295.00 L330.50,295.00 L328.00,296.50 L321.50,296.00Z M60.50,296.00 L61.50,296.00 L61.00,297.50Z M75.50,296.00 L76.00,295.50 L77.50,297.00 L78.00,299.50Z M127.50,296.00 L128.50,296.00 L126.00,298.50 L125.50,298.00Z M133.50,296.00 L134.50,296.00 L134.00,297.50Z M173.50,296.00 L174.50,296.00 L169.00,301.50 L168.50,301.00Z M188.50,296.00 L189.50,296.00 L189.00,298.50Z M285.50,296.00 L286.50,296.00 L285.00,297.50 L283.00,298.50 L281.50,298.00Z M39.50,297.00 L40.50,297.00 L40.00,304.50Z M115.50,297.00 L117.00,296.50 L117.00,297.50 L115.00,298.50 L113.50,298.00Z M225.50,297.00 L226.50,297.00 L226.00,299.50Z M264.50,297.00 L266.00,296.50 L270.00,298.50 L274.50,299.00 L270.00,299.50Z M293.50,297.00 L294.50,297.00 L292.00,299.50 L291.50,299.00Z M304.50,297.00 L305.50,297.00 L305.00,300.50Z M18.50,298.00 L19.00,297.50 L19.50,299.00 L17.00,302.50 L16.50,302.00Z M24.50,298.00 L25.50,298.00 L25.50,300.00 L24.00,302.50 L23.50,301.00 L24.50,300.00Z M53.50,298.00 L54.50,298.00 L54.00,306.50Z M145.50,298.00 L146.00,297.50 L147.50,300.00 L151.50,303.00 L149.00,302.50Z M178.50,298.00 L179.50,298.00 L177.50,301.00 L173.00,305.50 L172.50,305.00Z M61.50,299.00 L62.50,299.00 L62.00,302.50Z M69.50,299.00 L70.50,299.00 L70.00,300.50Z M132.50,299.00 L133.50,299.00 L133.00,301.50Z M195.50,299.00 L196.50,299.00 L196.00,301.50Z M218.50,299.00 L219.50,299.00 L219.00,311.50Z M124.50,300.00 L125.50,300.00 L123.00,302.50 L122.50,302.00Z M128.50,300.00 L129.50,300.00 L128.00,302.50 L127.50,301.00Z M205.50,300.00 L206.50,300.00 L206.00,304.50Z M238.50,300.00 L239.00,299.50 L240.50,302.00 L240.00,303.50Z M248.50,300.00 L249.00,299.50 L250.50,301.00 L250.00,301.50Z M78.50,301.00 L79.00,300.50 L80.50,302.00 L84.50,310.00 L84.00,311.50Z M226.50,301.00 L227.50,301.00 L227.00,305.50Z M290.50,301.00 L291.50,301.00 L289.00,303.50 L288.50,303.00Z M297.50,301.00 L298.50,301.00 L298.00,309.50Z M340.50,301.00 L341.50,301.00 L339.00,303.50 L338.50,303.00Z M70.50,302.00 L71.50,302.00 L71.00,303.50Z M310.50,302.00 L311.00,301.50 L315.00,305.50 L318.50,307.00 L317.00,307.50 L315.00,306.50Z M28.50,303.00 L29.50,303.00 L29.00,304.50Z M95.50,303.00 L96.00,302.50 L97.50,304.00 L97.00,304.50Z M194.50,303.00 L195.50,303.00 L195.00,304.50Z M250.50,303.00 L251.00,302.50 L252.50,304.00 L252.00,304.50Z M15.50,304.00 L16.50,304.00 L15.00,305.50 L14.50,305.00Z M62.50,304.00 L63.50,304.00 L63.00,308.50Z M121.50,304.00 L122.50,304.00 L120.00,306.50 L119.50,306.00Z M126.50,304.00 L127.50,304.00 L127.00,306.50Z M336.50,304.00 L337.50,304.00 L335.00,306.50 L333.50,306.00Z M46.50,305.00 L47.50,305.00 L47.00,307.50Z M71.50,305.00 L72.50,305.00 L72.00,306.50Z M98.50,305.00 L99.00,304.50 L103.50,307.00 L102.00,307.50Z M240.50,305.00 L241.50,305.00 L241.00,306.50Z M287.50,305.00 L288.50,305.00 L286.00,307.50 L285.50,307.00Z M306.50,305.00 L307.00,304.50 L307.50,306.00 L314.50,312.00 L312.00,311.50 L306.50,306.00Z M21.50,306.00 L22.50,306.00 L20.00,309.50 L19.50,309.00Z M27.50,306.00 L28.00,305.50 L28.50,307.00 L25.00,312.50 L24.50,312.00Z M38.50,306.00 L39.50,306.00 L39.00,308.50Z M114.50,306.00 L116.50,306.00 L112.00,308.50 L104.50,308.00 L112.00,307.50Z M177.50,306.00 L178.50,306.00 L174.00,310.50 L170.00,312.50 L169.50,312.00 L174.00,309.50Z M184.50,306.00 L185.50,306.00 L183.00,308.50 L182.50,308.00Z M252.50,306.00 L253.00,305.50 L254.50,307.00 L254.00,307.50Z M13.50,307.00 L14.50,307.00 L9.00,312.50 L8.50,312.00Z M132.50,307.00 L133.50,307.00 L133.00,308.50Z M204.50,307.00 L205.50,307.00 L205.00,309.50Z M330.50,307.00 L332.50,307.00 L330.00,308.50 L324.50,308.00Z M72.50,308.00 L73.50,308.00 L73.00,310.50Z M77.50,308.00 L78.50,308.00 L78.50,310.00 L79.50,311.00 L79.00,313.50Z M118.50,308.00 L119.50,308.00 L117.00,310.50 L116.50,310.00Z M125.50,308.00 L126.50,308.00 L126.00,310.50Z M192.50,308.00 L193.50,308.00 L192.50,311.00 L188.00,316.50 L187.50,316.00 L191.50,311.00Z M227.50,308.00 L228.50,308.00 L228.00,318.50Z M241.50,308.00 L242.50,308.00 L242.00,309.50Z M246.50,308.00 L247.50,308.00 L247.00,309.50Z M254.50,309.00 L255.00,308.50 L256.50,310.00 L256.00,310.50Z M284.50,309.00 L285.50,309.00 L280.00,316.50 L280.50,314.00Z M37.50,310.00 L38.50,310.00 L38.00,312.50Z M45.50,310.00 L46.50,310.00 L46.00,313.50Z M53.50,310.00 L54.50,310.00 L54.00,316.50Z M91.50,310.00 L92.50,310.00 L94.50,313.00 L94.00,313.50Z M133.50,310.00 L134.50,310.00 L135.50,313.00 L141.50,319.00 L141.00,319.50 L134.50,313.00Z M144.50,310.00 L145.00,309.50 L146.50,311.00 L146.00,311.50Z M181.50,310.00 L182.50,310.00 L179.00,313.50 L178.50,313.00Z M210.50,310.00 L211.50,310.00 L211.50,313.00 L210.00,316.50 L209.50,314.00 L210.50,313.00Z M269.50,310.00 L271.00,309.50 L273.50,311.00 L272.00,311.50Z M339.50,310.00 L340.50,310.00 L339.00,311.50 L335.00,313.50 L333.50,313.00Z M18.50,311.00 L19.50,311.00 L12.00,318.50 L9.00,320.50 L8.50,320.00Z M203.50,311.00 L204.50,311.00 L204.00,312.50Z M232.50,311.00 L233.50,311.00 L233.00,324.50Z M242.50,311.00 L243.50,311.00 L243.00,313.50Z M247.50,311.00 L248.00,310.50 L249.50,313.00 L249.00,314.50Z M298.50,311.00 L299.50,311.00 L299.00,312.50Z M73.50,312.00 L74.50,312.00 L74.00,315.50Z M115.50,312.00 L116.50,312.00 L114.00,314.50 L113.50,314.00Z M147.50,312.00 L148.00,311.50 L150.50,313.00 L149.00,313.50Z M304.50,312.00 L305.00,311.50 L311.50,317.00 L309.00,316.50Z M63.50,313.00 L64.50,313.00 L64.00,318.50Z M23.50,314.00 L24.50,314.00 L22.00,316.50 L21.50,316.00Z M36.50,314.00 L37.00,313.50 L37.50,315.00 L36.00,317.50 L35.50,316.00Z M119.50,314.00 L120.50,314.00 L120.00,316.50Z M126.50,314.00 L127.50,314.00 L127.00,315.50Z M176.50,314.00 L177.50,314.00 L175.00,316.50 L171.00,318.50 L170.50,318.00Z M202.50,314.00 L203.00,313.50 L203.50,315.00 L199.50,323.00 L197.00,325.50 L196.50,325.00 L198.50,323.00Z M257.50,314.00 L258.00,313.50 L259.50,315.00 L260.00,317.50Z M299.50,314.00 L300.00,313.50 L302.50,316.00 L302.00,316.50Z M44.50,315.00 L45.50,315.00 L45.00,317.50Z M79.50,315.00 L80.50,315.00 L80.00,317.50Z M85.50,315.00 L86.50,315.00 L86.00,316.50Z M94.50,315.00 L95.00,314.50 L96.50,316.00 L96.00,316.50Z M217.50,315.00 L218.50,315.00 L218.00,318.50Z M243.50,315.00 L244.50,315.00 L244.00,318.50Z M112.50,316.00 L113.50,316.00 L111.00,318.50 L110.50,318.00Z M249.50,316.00 L250.50,316.00 L250.00,318.50Z M20.50,318.00 L21.50,318.00 L17.00,322.50 L16.50,322.00Z M74.50,318.00 L75.50,318.00 L75.00,330.50Z M86.50,318.00 L87.50,318.00 L87.50,320.00 L88.50,321.00 L88.00,325.50Z M96.50,318.00 L97.00,317.50 L98.50,319.00 L98.00,319.50Z M208.50,318.00 L209.50,318.00 L209.00,319.50Z M338.50,318.00 L340.00,317.50 L340.00,318.50 L338.00,319.50 L336.50,319.00Z M43.50,319.00 L44.50,319.00 L44.00,320.50Z M52.50,319.00 L53.50,319.00 L53.00,321.50Z M80.50,319.00 L81.50,319.00 L81.00,324.50Z M120.50,319.00 L121.50,319.00 L121.00,320.50Z M128.50,319.00 L129.00,318.50 L131.50,321.00 L131.00,321.50Z M260.50,319.00 L261.00,318.50 L262.50,321.00 L262.00,322.50Z M304.50,319.00 L305.00,318.50 L310.50,323.00 L308.00,322.50Z M109.50,320.00 L110.50,320.00 L109.00,321.50 L108.50,321.00Z M142.50,320.00 L143.00,319.50 L149.50,323.00 L148.00,323.50Z M183.50,320.00 L184.50,320.00 L181.00,323.50 L180.50,323.00Z M216.50,320.00 L217.50,320.00 L217.00,322.50Z M250.50,320.00 L251.50,320.00 L251.00,324.50Z M277.50,320.00 L278.50,320.00 L278.00,322.50Z M288.50,320.00 L289.00,319.50 L290.50,321.00 L291.00,323.50Z M33.50,321.00 L34.50,321.00 L31.50,326.00 L21.00,336.50 L17.00,338.50 L16.50,338.00 L18.00,336.50 L21.00,335.50 L30.50,326.00Z M244.50,321.00 L245.50,321.00 L245.00,329.50Z M42.50,322.00 L43.00,321.50 L43.50,323.00 L39.00,330.50 L38.50,330.00Z M226.50,322.00 L227.50,322.00 L227.00,325.50Z M14.50,323.00 L15.50,323.00 L13.00,325.50 L9.00,327.50 L8.50,327.00Z M62.50,323.00 L63.50,323.00 L63.00,327.50Z M131.50,323.00 L132.00,322.50 L134.50,325.00 L134.00,325.50Z M206.50,323.00 L207.00,322.50 L207.50,324.00 L205.00,327.50 L204.50,327.00Z M51.50,324.00 L52.50,324.00 L52.00,325.50Z M122.50,324.00 L123.00,323.50 L133.00,334.50 L142.50,341.00 L140.00,340.50 L133.00,335.50Z M178.50,324.00 L179.50,324.00 L178.00,325.50 L177.50,325.00Z M215.50,324.00 L216.50,324.00 L216.00,325.50Z M262.50,324.00 L263.50,324.00 L263.00,326.50Z M277.50,324.00 L278.50,324.00 L279.50,327.00 L285.50,334.00 L285.00,334.50 L280.50,330.00Z M100.50,325.00 L101.50,325.00 L101.50,330.00 L100.00,331.50Z M291.50,325.00 L292.00,324.50 L305.50,337.00 L305.00,337.50 L302.00,335.50Z M107.50,326.00 L108.00,325.50 L109.50,327.00 L109.50,328.00 L114.50,333.00 L114.00,333.50Z M135.50,326.00 L136.00,325.50 L141.50,330.00 L139.00,329.50Z M174.50,326.00 L176.00,325.50 L176.00,326.50 L174.00,327.50 L172.50,327.00Z M50.50,327.00 L51.50,327.00 L51.00,328.50Z M195.50,327.00 L196.50,327.00 L189.00,334.50 L186.00,336.50 L185.50,336.00Z M214.50,327.00 L215.00,326.50 L215.50,328.00 L211.50,336.00 L209.00,338.50 L208.50,338.00 L210.50,336.00Z M225.50,327.00 L226.50,327.00 L226.00,329.50Z M231.50,327.00 L232.50,327.00 L232.00,330.50Z M88.50,328.00 L89.50,328.00 L89.00,329.50Z M61.50,329.00 L62.50,329.00 L62.00,331.50Z M203.50,329.00 L204.50,329.00 L203.50,331.00 L197.00,338.50 L196.50,338.00 L198.50,335.00Z M80.50,331.00 L81.50,331.00 L81.00,335.50Z M142.50,331.00 L143.00,330.50 L147.50,333.00 L146.00,333.50Z M224.50,331.00 L225.50,331.00 L225.00,332.50Z M37.50,332.00 L38.50,332.00 L36.00,334.50 L35.50,334.00Z M230.50,332.00 L231.50,332.00 L231.00,334.50Z M267.50,332.00 L268.50,332.00 L267.00,333.50 L266.50,333.00Z M274.50,332.00 L275.00,331.50 L284.50,341.00 L284.00,341.50Z M307.50,332.00 L309.00,331.50 L315.50,335.00 L314.00,335.50Z M60.50,333.00 L61.50,333.00 L61.00,334.50Z M73.50,333.00 L74.50,333.00 L74.00,335.50Z M243.50,333.00 L244.50,333.00 L244.00,336.50Z M250.50,333.00 L251.50,333.00 L251.00,336.50Z M47.50,334.00 L48.00,333.50 L48.50,335.00 L47.00,336.50Z M87.50,334.00 L88.50,334.00 L88.00,336.50Z M223.50,334.00 L224.50,334.00 L224.00,335.50Z M97.50,335.00 L98.50,335.00 L97.00,336.50 L96.50,336.00Z M114.50,335.00 L115.00,334.50 L121.50,341.00 L121.00,341.50Z M265.50,335.00 L266.50,335.00 L261.00,341.50 L261.50,339.00Z M34.50,336.00 L35.50,336.00 L30.00,341.50 L29.50,341.00Z M59.50,336.00 L60.00,335.50 L60.50,337.00 L59.00,339.50 L58.50,338.00Z M229.50,336.00 L230.50,336.00 L230.00,337.50Z M285.50,336.00 L286.00,335.50 L291.50,341.00 L291.00,341.50Z M72.50,337.00 L73.50,337.00 L73.00,339.50Z M79.50,337.00 L80.50,337.00 L80.00,339.50Z M45.50,338.00 L46.50,338.00 L44.00,341.50 L43.50,341.00Z M86.50,338.00 L87.50,338.00 L87.00,340.50Z M95.50,338.00 L96.50,338.00 L95.00,339.50 L94.50,339.00Z M242.50,338.00 L243.50,338.00 L243.00,340.50Z M249.50,338.00 L250.50,338.00 L250.00,340.50Z M306.50,338.00 L307.00,337.50 L312.50,341.00 L312.00,341.50Z M194.50,339.00 L195.50,339.00 L193.00,341.50 L192.50,341.00Z M221.50,339.00 L222.00,338.50 L222.50,340.00 L221.00,341.50Z M228.50,339.00 L229.00,338.50 L229.50,340.00 L228.00,341.50Z M207.50,340.00 L208.50,340.00 L207.00,341.50 L206.50,341.00Z" fill="#000000" fill-rule="evenodd" stroke="none"/>
</svg>
