<svg xmlns="http://www.w3.org/2000/svg" viewBox="0 0 1400 616">
  <path d="M236.50,1.00 L230.00,3.50 L228.00,5.50 L226.00,5.50 L225.50,7.00 L220.50,11.00 L218.50,15.00 L215.50,18.00 L215.50,20.00 L214.50,21.00 L213.50,29.00 L212.50,30.00 L212.50,40.00 L213.50,41.00 L213.50,50.00 L214.50,51.00 L215.50,66.00 L214.50,67.00 L213.50,75.00 L209.50,82.00 L209.50,84.00 L207.50,86.00 L202.50,96.00 L202.50,98.00 L199.50,104.00 L198.50,114.00 L197.50,115.00 L197.50,134.00 L196.50,135.00 L196.50,140.00 L195.50,141.00 L195.50,144.00 L192.50,150.00 L192.50,152.00 L188.50,162.00 L188.50,166.00 L187.50,167.00 L187.50,185.00 L186.50,186.00 L186.50,191.00 L182.50,200.00 L180.50,203.00 L175.50,207.00 L173.50,212.00 L171.50,214.00 L168.50,220.00 L167.50,230.00 L168.50,231.00 L169.50,240.00 L171.50,244.00 L171.50,253.00 L160.50,269.00 L160.50,271.00 L159.50,272.00 L159.50,283.00 L162.50,290.00 L162.50,297.00 L158.50,303.00 L154.00,305.50 L153.50,307.00 L147.50,312.00 L143.50,318.00 L143.50,325.00 L144.50,326.00 L144.50,328.00 L152.50,340.00 L152.50,343.00 L151.50,344.00 L151.50,346.00 L150.00,346.50 L148.00,349.50 L142.00,352.50 L141.50,354.00 L137.50,357.00 L134.50,362.00 L134.50,367.00 L137.50,373.00 L142.00,375.50 L142.50,377.00 L149.50,383.00 L149.50,384.00 L146.00,388.50 L144.00,388.50 L139.00,391.50 L134.00,392.50 L132.00,394.50 L130.00,394.50 L124.00,397.50 L123.50,399.00 L119.50,402.00 L119.50,409.00 L123.00,411.50 L124.00,413.50 L131.00,418.50 L133.00,418.50 L135.00,420.50 L140.00,422.50 L140.50,425.00 L135.00,428.50 L129.00,429.50 L126.00,431.50 L123.00,431.50 L122.00,432.50 L119.00,432.50 L116.00,434.50 L110.00,435.50 L106.00,437.50 L105.50,439.00 L101.50,442.00 L101.50,447.00 L107.00,451.50 L112.00,452.50 L115.00,454.50 L118.00,454.50 L125.00,457.50 L132.00,458.50 L135.00,460.50 L138.00,460.50 L141.50,463.00 L137.00,465.50 L134.00,465.50 L130.00,467.50 L126.00,467.50 L121.00,469.50 L112.00,470.50 L111.00,471.50 L104.00,472.50 L100.00,474.50 L97.00,474.50 L96.00,475.50 L94.00,475.50 L89.50,479.00 L89.50,485.00 L94.00,488.50 L96.00,488.50 L100.00,490.50 L103.00,490.50 L107.00,492.50 L111.00,492.50 L112.00,493.50 L115.00,493.50 L116.00,494.50 L124.00,495.50 L128.00,497.50 L135.00,498.50 L136.00,499.50 L138.00,499.50 L138.50,501.00 L131.00,502.50 L130.00,503.50 L121.00,504.50 L120.00,505.50 L108.00,506.50 L107.00,507.50 L103.00,507.50 L102.00,508.50 L97.00,508.50 L96.00,509.50 L90.00,509.50 L89.00,510.50 L80.00,511.50 L76.00,513.50 L73.00,513.50 L68.50,516.00 L68.50,521.00 L69.50,523.00 L72.00,524.50 L74.00,524.50 L78.00,526.50 L81.00,526.50 L82.00,527.50 L85.00,527.50 L86.00,528.50 L91.00,528.50 L92.00,529.50 L96.00,529.50 L97.00,530.50 L101.00,530.50 L102.00,531.50 L107.00,531.50 L108.00,532.50 L117.00,533.50 L125.00,536.50 L128.00,536.50 L129.50,538.00 L126.00,539.50 L123.00,539.50 L122.00,540.50 L119.00,540.50 L118.00,541.50 L114.00,541.50 L113.00,542.50 L109.00,542.50 L108.00,543.50 L104.00,543.50 L103.00,544.50 L99.00,544.50 L98.00,545.50 L93.00,545.50 L92.00,546.50 L88.00,546.50 L87.00,547.50 L79.00,548.50 L78.00,549.50 L70.00,551.50 L67.50,554.00 L67.50,559.00 L72.00,562.50 L78.00,563.50 L86.00,566.50 L90.00,566.50 L95.00,568.50 L103.00,569.50 L107.00,571.50 L114.00,572.50 L118.50,575.00 L118.50,576.00 L116.00,577.50 L113.00,577.50 L112.00,578.50 L106.00,579.50 L103.00,581.50 L100.00,581.50 L95.00,583.50 L95.00,589.50 L104.00,589.50 L105.00,590.50 L263.00,590.50 L264.00,589.50 L304.00,589.50 L305.00,590.50 L405.00,590.50 L406.00,589.50 L413.00,589.50 L414.50,588.00 L414.50,584.00 L413.00,582.50 L403.00,580.50 L402.00,579.50 L399.00,579.50 L398.00,578.50 L395.00,578.50 L394.00,577.50 L389.00,576.50 L389.00,575.50 L392.00,575.50 L393.00,574.50 L400.00,573.50 L401.00,572.50 L405.00,572.50 L406.00,571.50 L423.00,569.50 L424.00,568.50 L440.00,567.50 L441.00,566.50 L449.00,566.50 L450.00,565.50 L462.00,565.50 L463.00,564.50 L489.00,564.50 L490.00,565.50 L498.00,565.50 L499.00,566.50 L504.00,566.50 L505.00,567.50 L514.00,568.50 L519.00,570.50 L528.00,571.50 L532.00,573.50 L535.00,573.50 L543.00,576.50 L550.00,577.50 L553.00,579.50 L556.00,579.50 L559.00,581.50 L565.00,582.50 L569.00,585.50 L573.00,586.50 L574.50,588.00 L571.00,591.50 L569.00,591.50 L565.50,594.00 L565.50,599.00 L568.00,600.50 L571.00,600.50 L572.00,601.50 L581.00,601.50 L582.00,602.50 L610.00,602.50 L611.00,603.50 L699.00,602.50 L700.00,601.50 L774.00,602.50 L775.00,603.50 L828.00,603.50 L829.00,602.50 L848.00,602.50 L849.00,601.50 L854.00,601.50 L857.50,600.00 L857.50,595.00 L846.50,589.00 L855.00,583.50 L857.00,583.50 L860.00,581.50 L863.00,581.50 L868.00,578.50 L871.00,578.50 L877.00,575.50 L880.00,575.50 L883.00,573.50 L890.00,572.50 L894.00,570.50 L897.00,570.50 L898.00,569.50 L901.00,569.50 L906.00,567.50 L918.00,566.50 L919.00,565.50 L934.00,565.50 L935.00,564.50 L956.00,564.50 L957.00,565.50 L1002.00,565.50 L1002.50,566.00 L1000.00,567.50 L995.00,567.50 L994.00,568.50 L983.00,570.50 L979.00,572.50 L976.00,572.50 L973.00,574.50 L966.00,576.50 L963.50,580.00 L963.50,585.00 L968.00,588.50 L970.00,588.50 L971.00,589.50 L976.00,589.50 L977.00,590.50 L986.00,590.50 L987.00,591.50 L1028.00,591.50 L1029.00,590.50 L1050.00,590.50 L1051.00,589.50 L1104.00,589.50 L1105.00,590.50 L1192.00,590.50 L1193.00,589.50 L1247.00,589.50 L1248.00,590.50 L1272.00,590.50 L1273.00,591.50 L1317.00,591.50 L1318.00,590.50 L1330.00,590.50 L1331.00,589.50 L1336.00,589.50 L1337.00,588.50 L1344.00,587.50 L1347.50,584.00 L1347.50,579.00 L1343.00,575.50 L1341.00,575.50 L1334.00,572.50 L1327.00,571.50 L1326.00,570.50 L1322.00,570.50 L1321.00,569.50 L1317.00,569.50 L1312.00,567.50 L1308.00,567.50 L1307.00,566.50 L1303.00,566.50 L1302.00,565.50 L1295.00,564.50 L1289.50,562.00 L1291.00,560.50 L1297.00,559.50 L1304.00,556.50 L1308.00,556.50 L1309.00,555.50 L1312.00,555.50 L1317.00,553.50 L1321.00,553.50 L1326.00,551.50 L1330.00,551.50 L1331.00,550.50 L1334.00,550.50 L1335.00,549.50 L1338.00,549.50 L1339.00,548.50 L1344.00,547.50 L1348.50,544.00 L1348.50,539.00 L1347.00,537.50 L1345.00,537.50 L1341.00,535.50 L1338.00,535.50 L1337.00,534.50 L1332.00,534.50 L1331.00,533.50 L1327.00,533.50 L1326.00,532.50 L1320.00,532.50 L1319.00,531.50 L1313.00,531.50 L1312.00,530.50 L1308.00,530.50 L1307.00,529.50 L1302.00,529.50 L1301.00,528.50 L1292.00,527.50 L1291.00,526.50 L1288.00,526.50 L1285.00,524.50 L1283.00,524.50 L1282.50,524.00 L1284.00,522.50 L1286.00,522.50 L1289.00,520.50 L1292.00,520.50 L1296.00,518.50 L1300.00,518.50 L1305.00,516.50 L1309.00,516.50 L1314.00,514.50 L1318.00,514.50 L1319.00,513.50 L1330.00,511.50 L1336.50,508.00 L1336.50,502.00 L1332.00,499.50 L1329.00,499.50 L1324.00,497.50 L1320.00,497.50 L1319.00,496.50 L1315.00,496.50 L1314.00,495.50 L1309.00,495.50 L1308.00,494.50 L1303.00,494.50 L1302.00,493.50 L1297.00,493.50 L1296.00,492.50 L1291.00,492.50 L1286.00,490.50 L1278.00,489.50 L1269.50,486.00 L1275.00,484.50 L1278.00,482.50 L1286.00,481.50 L1290.00,479.50 L1294.00,479.50 L1295.00,478.50 L1299.00,478.50 L1303.00,476.50 L1311.00,475.50 L1314.00,473.50 L1316.00,473.50 L1319.50,470.00 L1319.50,466.00 L1314.00,461.50 L1312.00,461.50 L1302.00,457.50 L1299.00,457.50 L1295.00,455.50 L1292.00,455.50 L1288.00,453.50 L1285.00,453.50 L1272.50,448.00 L1274.00,445.50 L1278.00,443.50 L1283.00,442.50 L1289.00,439.50 L1292.00,439.50 L1295.00,437.50 L1297.00,437.50 L1299.00,435.50 L1301.00,435.50 L1304.50,432.00 L1304.50,427.00 L1302.00,423.50 L1298.00,422.50 L1292.00,418.50 L1289.00,418.50 L1284.00,415.50 L1277.00,413.50 L1268.50,408.00 L1268.50,406.00 L1270.50,403.00 L1277.00,399.50 L1277.50,398.00 L1282.50,394.00 L1282.50,386.00 L1281.50,384.00 L1278.00,381.50 L1277.00,379.50 L1269.00,373.50 L1266.00,372.50 L1265.50,371.00 L1261.50,368.00 L1261.50,364.00 L1262.50,362.00 L1265.00,360.50 L1267.00,357.50 L1272.50,354.00 L1272.50,352.00 L1273.50,351.00 L1273.50,342.00 L1268.00,335.50 L1265.00,334.50 L1264.50,333.00 L1258.50,328.00 L1255.50,323.00 L1255.50,321.00 L1254.50,320.00 L1255.50,319.00 L1255.50,317.00 L1257.50,315.00 L1257.50,313.00 L1259.50,309.00 L1259.50,299.00 L1254.50,291.00 L1252.50,290.00 L1250.50,286.00 L1245.50,282.00 L1242.50,275.00 L1242.50,268.00 L1245.50,261.00 L1245.50,250.00 L1242.50,242.00 L1240.50,240.00 L1237.50,233.00 L1235.50,232.00 L1231.50,224.00 L1231.50,222.00 L1230.50,221.00 L1230.50,216.00 L1229.50,215.00 L1229.50,212.00 L1230.50,211.00 L1230.50,202.00 L1229.50,201.00 L1228.50,192.00 L1223.50,183.00 L1223.50,181.00 L1221.50,177.00 L1217.50,171.00 L1217.50,168.00 L1215.50,165.00 L1215.50,162.00 L1214.50,161.00 L1215.50,133.00 L1214.50,132.00 L1213.50,125.00 L1211.50,122.00 L1209.50,115.00 L1203.50,106.00 L1203.50,104.00 L1199.50,97.00 L1199.50,94.00 L1197.50,89.00 L1197.50,84.00 L1196.50,83.00 L1196.50,77.00 L1197.50,76.00 L1197.50,52.00 L1196.50,51.00 L1196.50,46.00 L1195.50,45.00 L1194.50,38.00 L1189.50,28.00 L1189.50,26.00 L1183.50,18.00 L1182.50,15.00 L1180.00,13.50 L1176.00,8.50 L1168.00,2.50 L1161.50,0.00Z M264.50,0.00 L273.00,2.50 L282.00,8.50 L286.50,14.00 L290.50,22.00 L290.50,25.00 L291.50,26.00 L291.50,63.00 L292.50,64.00 L292.50,67.00 L295.50,72.00 L295.50,74.00 L297.50,76.00 L298.50,80.00 L300.50,82.00 L306.50,94.00 L306.50,97.00 L308.50,102.00 L308.50,106.00 L309.50,107.00 L310.50,128.00 L311.50,129.00 L313.50,139.00 L316.50,144.00 L316.50,146.00 L320.50,153.00 L320.50,155.00 L322.50,159.00 L322.50,180.00 L321.50,181.00 L321.50,193.00 L329.50,208.00 L331.50,209.00 L336.50,218.00 L336.50,221.00 L337.50,222.00 L336.50,248.00 L338.50,253.00 L345.50,263.00 L347.50,268.00 L347.50,280.00 L345.50,283.00 L345.50,285.00 L343.50,289.00 L343.50,295.00 L347.50,301.00 L349.00,301.50 L351.00,304.50 L354.00,305.50 L354.50,307.00 L357.00,308.50 L362.50,315.00 L362.50,317.00 L363.50,318.00 L363.50,325.00 L361.50,330.00 L357.50,335.00 L356.50,340.00 L359.50,345.00 L361.00,345.50 L363.00,348.50 L366.00,349.50 L367.00,351.50 L370.00,352.50 L370.50,354.00 L374.50,357.00 L374.50,359.00 L375.50,360.00 L375.50,366.00 L374.50,367.00 L374.50,369.00 L372.00,370.50 L370.00,373.50 L365.00,375.50 L364.00,377.50 L360.00,379.50 L358.50,382.00 L361.00,385.50 L365.00,387.50 L367.00,387.50 L369.00,389.50 L376.00,391.50 L382.00,395.50 L384.00,395.50 L388.00,398.50 L390.50,402.00 L390.50,408.00 L389.50,410.00 L385.00,413.50 L383.00,413.50 L378.00,417.50 L374.00,418.50 L371.00,420.50 L369.50,423.00 L371.00,424.50 L375.00,425.50 L380.00,428.50 L385.00,429.50 L388.00,431.50 L391.00,431.50 L394.00,433.50 L397.00,433.50 L406.00,438.50 L408.50,442.00 L408.50,446.00 L405.00,449.50 L399.00,452.50 L396.00,452.50 L395.00,453.50 L385.00,455.50 L378.00,458.50 L371.00,459.50 L369.00,461.50 L365.50,463.00 L371.00,464.50 L377.00,467.50 L380.00,467.50 L391.00,471.50 L395.00,471.50 L406.00,475.50 L409.00,475.50 L412.00,477.50 L416.00,478.50 L417.50,480.00 L417.50,486.00 L414.00,488.50 L412.00,488.50 L408.00,490.50 L405.00,490.50 L404.00,491.50 L401.00,491.50 L400.00,492.50 L396.00,492.50 L392.00,494.50 L383.00,495.50 L382.00,496.50 L374.00,498.50 L370.50,501.00 L376.00,504.50 L379.00,504.50 L387.00,507.50 L401.00,509.50 L402.00,510.50 L409.00,510.50 L410.00,511.50 L416.00,511.50 L417.00,512.50 L426.00,512.50 L427.00,513.50 L448.00,513.50 L449.00,512.50 L451.00,512.50 L452.50,511.00 L451.50,509.00 L448.50,507.00 L447.50,504.00 L445.50,503.00 L441.50,496.00 L441.50,490.00 L442.50,489.00 L442.50,486.00 L445.50,484.00 L446.50,481.00 L448.00,480.50 L449.00,478.50 L452.00,477.50 L452.50,476.00 L454.00,475.50 L454.50,474.00 L457.00,472.50 L461.50,467.00 L461.50,461.00 L453.50,446.00 L452.50,438.00 L453.50,437.00 L453.50,434.00 L456.50,430.00 L457.50,427.00 L459.00,426.50 L459.50,425.00 L461.50,424.00 L462.50,421.00 L466.50,418.00 L467.50,415.00 L469.50,414.00 L472.50,408.00 L472.50,400.00 L468.50,389.00 L468.50,375.00 L471.50,369.00 L475.50,364.00 L476.50,361.00 L482.50,353.00 L482.50,351.00 L484.50,348.00 L484.50,336.00 L482.50,333.00 L482.50,330.00 L479.50,323.00 L479.50,308.00 L480.50,307.00 L480.50,304.00 L485.50,299.00 L485.50,298.00 L494.00,290.50 L496.00,290.50 L498.00,288.50 L511.00,282.50 L517.00,281.50 L524.00,278.50 L529.00,278.50 L530.00,277.50 L539.00,277.50 L540.00,276.50 L553.00,277.50 L554.00,278.50 L559.00,279.50 L561.00,281.50 L563.00,281.50 L569.50,288.00 L572.50,294.00 L575.50,297.00 L576.50,301.00 L578.50,304.00 L591.00,319.50 L593.00,319.50 L596.00,322.50 L602.00,325.50 L609.00,325.50 L613.50,322.00 L615.50,317.00 L615.50,310.00 L614.50,309.00 L614.50,293.00 L617.50,287.00 L619.50,285.00 L620.50,281.00 L622.50,279.00 L625.50,272.00 L625.50,261.00 L624.50,260.00 L624.50,256.00 L623.50,255.00 L623.50,251.00 L622.50,250.00 L622.50,240.00 L623.50,239.00 L623.50,235.00 L625.50,233.00 L625.50,230.00 L628.50,226.00 L628.50,223.00 L632.50,217.00 L632.50,214.00 L634.50,210.00 L634.50,206.00 L635.50,205.00 L635.50,201.00 L636.50,200.00 L636.50,192.00 L637.50,191.00 L637.50,182.00 L639.50,177.00 L639.50,172.00 L641.50,168.00 L641.50,165.00 L644.50,158.00 L644.50,155.00 L645.50,154.00 L645.50,151.00 L647.50,146.00 L648.50,136.00 L649.50,135.00 L649.50,128.00 L650.50,127.00 L650.50,120.00 L651.50,119.00 L652.50,110.00 L653.50,109.00 L654.50,103.00 L655.50,102.00 L658.50,91.00 L660.50,88.00 L660.50,85.00 L664.50,74.00 L664.50,67.00 L665.50,66.00 L665.50,48.00 L666.50,47.00 L667.50,33.00 L672.50,21.00 L674.50,19.00 L675.50,16.00 L677.00,15.50 L681.00,10.50 L691.00,3.50 L693.00,3.50 L699.00,0.50 L703.50,0.00Z M721.50,0.00 L734.00,3.50 L741.00,8.50 L743.00,11.50 L747.00,13.50 L751.50,20.00 L756.50,32.00 L756.50,38.00 L757.50,39.00 L757.50,53.00 L756.50,54.00 L756.50,61.00 L755.50,62.00 L755.50,76.00 L756.50,77.00 L757.50,83.00 L759.50,86.00 L759.50,88.00 L762.50,92.00 L762.50,94.00 L766.50,101.00 L766.50,103.00 L768.50,105.00 L769.50,111.00 L771.50,114.00 L771.50,117.00 L772.50,118.00 L772.50,122.00 L773.50,123.00 L773.50,144.00 L774.50,145.00 L774.50,151.00 L778.50,162.00 L778.50,165.00 L782.50,173.00 L782.50,176.00 L783.50,177.00 L783.50,180.00 L785.50,185.00 L786.50,210.00 L789.50,216.00 L789.50,219.00 L793.50,227.00 L795.50,228.00 L797.50,233.00 L799.50,235.00 L799.50,238.00 L801.50,241.00 L801.50,255.00 L799.50,258.00 L799.50,260.00 L794.50,267.00 L793.50,272.00 L792.50,273.00 L792.50,277.00 L796.50,284.00 L798.00,284.50 L799.00,286.50 L804.00,288.50 L808.00,291.50 L815.00,292.50 L816.00,293.50 L823.00,293.50 L824.00,292.50 L830.00,291.50 L834.00,288.50 L837.00,287.50 L838.50,284.00 L840.50,282.00 L840.50,274.00 L839.50,273.00 L839.50,269.00 L837.50,266.00 L837.50,263.00 L835.50,259.00 L835.50,247.00 L836.50,246.00 L836.50,243.00 L840.50,235.00 L844.50,230.00 L844.50,228.00 L848.50,223.00 L848.50,221.00 L850.50,219.00 L853.50,211.00 L853.50,208.00 L855.50,203.00 L855.50,183.00 L856.50,182.00 L857.50,172.00 L858.50,171.00 L858.50,168.00 L860.50,165.00 L861.50,159.00 L865.50,151.00 L865.50,149.00 L869.50,139.00 L869.50,136.00 L871.50,132.00 L871.50,129.00 L873.50,124.00 L873.50,120.00 L874.50,119.00 L874.50,114.00 L875.50,113.00 L875.50,107.00 L876.50,106.00 L876.50,102.00 L877.50,101.00 L878.50,91.00 L879.50,90.00 L879.50,87.00 L880.50,86.00 L880.50,83.00 L881.50,82.00 L884.50,67.00 L886.50,63.00 L886.50,60.00 L889.50,54.00 L889.50,51.00 L890.50,50.00 L891.50,45.00 L893.50,42.00 L893.50,40.00 L896.50,35.00 L896.50,33.00 L900.50,27.00 L907.00,21.50 L915.00,21.50 L922.50,28.00 L922.50,30.00 L926.50,35.00 L928.50,39.00 L928.50,41.00 L932.50,48.00 L932.50,50.00 L935.50,56.00 L935.50,59.00 L938.50,66.00 L938.50,69.00 L939.50,70.00 L939.50,73.00 L940.50,74.00 L940.50,77.00 L942.50,82.00 L942.50,86.00 L943.50,87.00 L943.50,92.00 L944.50,93.00 L944.50,99.00 L945.50,100.00 L945.50,107.00 L946.50,108.00 L946.50,115.00 L947.50,116.00 L948.50,126.00 L950.50,131.00 L950.50,135.00 L952.50,138.00 L952.50,142.00 L954.50,145.00 L954.50,149.00 L956.50,152.00 L958.50,162.00 L959.50,163.00 L960.50,175.00 L961.50,176.00 L962.50,194.00 L963.50,195.00 L965.50,205.00 L968.50,210.00 L968.50,212.00 L971.50,218.00 L974.50,222.00 L975.50,227.00 L978.50,233.00 L978.50,238.00 L979.50,239.00 L978.50,265.00 L979.50,266.00 L979.50,269.00 L987.50,285.00 L989.50,286.00 L989.50,288.00 L993.50,296.00 L993.50,316.00 L997.50,322.00 L999.50,327.00 L1004.50,331.00 L1010.50,341.00 L1010.50,349.00 L1005.50,357.00 L1004.00,357.50 L997.50,365.00 L997.50,369.00 L1008.00,374.50 L1016.00,375.50 L1017.00,376.50 L1022.00,376.50 L1023.00,377.50 L1044.00,377.50 L1045.00,376.50 L1049.00,376.50 L1054.00,373.50 L1053.50,371.00 L1051.00,369.50 L1050.00,367.50 L1047.00,366.50 L1043.00,361.50 L1039.50,360.00 L1035.50,354.00 L1035.50,347.00 L1038.50,343.00 L1042.50,340.00 L1043.00,338.50 L1046.00,337.50 L1046.50,336.00 L1049.50,334.00 L1053.50,328.00 L1054.50,326.00 L1054.50,321.00 L1051.50,315.00 L1051.50,305.00 L1056.50,298.00 L1058.00,297.50 L1059.50,295.00 L1065.50,290.00 L1066.50,287.00 L1069.50,285.00 L1070.50,275.00 L1068.50,273.00 L1068.50,270.00 L1066.50,268.00 L1064.50,263.00 L1064.50,252.00 L1066.50,248.00 L1066.50,245.00 L1072.50,236.00 L1076.50,225.00 L1076.50,211.00 L1077.50,210.00 L1077.50,204.00 L1079.50,201.00 L1079.50,198.00 L1085.50,187.00 L1087.50,185.00 L1094.50,169.00 L1094.50,163.00 L1095.50,162.00 L1095.50,160.00 L1094.50,159.00 L1094.50,143.00 L1095.50,142.00 L1095.50,137.00 L1096.50,136.00 L1097.50,131.00 L1099.50,128.00 L1099.50,126.00 L1102.50,122.00 L1103.50,118.00 L1105.50,116.00 L1105.50,114.00 L1109.50,106.00 L1111.50,96.00 L1112.50,95.00 L1112.50,88.00 L1113.50,87.00 L1113.50,63.00 L1114.50,62.00 L1114.50,55.00 L1115.50,54.00 L1117.50,43.00 L1118.50,42.00 L1119.50,37.00 L1121.50,34.00 L1121.50,31.00 L1124.50,27.00 L1124.50,25.00 L1130.50,16.00 L1131.50,13.00 L1134.50,9.00 L1142.00,2.50 L1148.50,0.00Z M251.50,4.00 L254.00,3.50 L255.00,4.50 L260.00,4.50 L271.00,8.50 L279.50,15.00 L282.50,19.00 L282.50,21.00 L285.50,26.00 L285.50,29.00 L286.50,30.00 L286.50,66.00 L287.50,67.00 L287.50,70.00 L290.50,76.00 L290.50,78.00 L292.50,80.00 L293.50,84.00 L297.50,89.00 L297.50,91.00 L299.50,93.00 L301.50,98.00 L301.50,101.00 L302.50,102.00 L303.50,109.00 L304.50,110.00 L305.50,132.00 L306.50,133.00 L308.50,143.00 L312.50,150.00 L312.50,152.00 L315.50,157.00 L315.50,159.00 L317.50,163.00 L316.50,196.00 L321.50,206.00 L323.50,208.00 L324.50,211.00 L326.50,212.00 L328.50,217.00 L331.50,221.00 L331.50,224.00 L332.50,225.00 L332.50,234.00 L331.50,235.00 L331.50,251.00 L334.50,258.00 L341.50,268.00 L341.50,271.00 L342.50,272.00 L342.50,277.00 L340.50,280.00 L340.50,282.00 L338.50,286.00 L338.50,298.00 L341.50,303.00 L344.00,304.50 L344.50,306.00 L347.00,307.50 L351.00,312.50 L354.50,314.00 L358.50,322.00 L357.50,323.00 L357.50,325.00 L354.50,328.00 L351.50,334.00 L351.50,344.00 L353.50,347.00 L359.50,352.00 L360.00,353.50 L363.00,354.50 L363.50,356.00 L369.50,361.00 L369.50,365.00 L367.00,366.50 L365.00,369.50 L362.00,370.50 L361.00,372.50 L354.50,376.00 L352.50,379.00 L352.50,385.00 L355.50,389.00 L359.00,391.50 L361.00,391.50 L366.00,394.50 L368.00,394.50 L370.00,396.50 L372.00,396.50 L380.00,400.50 L385.50,405.00 L381.00,408.50 L376.00,410.50 L372.00,413.50 L370.00,413.50 L366.00,416.50 L363.50,419.00 L363.50,426.00 L367.00,429.50 L369.00,429.50 L376.00,433.50 L379.00,433.50 L382.00,435.50 L396.00,439.50 L398.00,441.50 L401.50,443.00 L400.00,445.50 L398.00,445.50 L395.00,447.50 L389.00,448.50 L385.00,450.50 L381.00,450.50 L380.00,451.50 L378.00,451.50 L374.00,453.50 L371.00,453.50 L364.00,456.50 L359.50,460.00 L359.50,465.00 L362.00,466.50 L363.00,468.50 L367.00,469.50 L370.00,471.50 L373.00,471.50 L374.00,472.50 L376.00,472.50 L380.00,474.50 L383.00,474.50 L387.00,476.50 L395.00,477.50 L396.00,478.50 L402.00,479.50 L411.50,483.00 L408.00,483.50 L404.00,485.50 L401.00,485.50 L400.00,486.50 L397.00,486.50 L396.00,487.50 L392.00,487.50 L388.00,489.50 L384.00,489.50 L383.00,490.50 L376.00,491.50 L370.00,494.50 L368.00,494.50 L363.50,499.00 L363.50,503.00 L364.50,505.00 L368.00,507.50 L379.00,511.50 L387.00,512.50 L388.00,513.50 L392.00,513.50 L393.00,514.50 L397.00,514.50 L398.00,515.50 L405.00,515.50 L406.00,516.50 L412.00,516.50 L413.00,517.50 L422.00,517.50 L423.00,518.50 L452.00,518.50 L453.00,517.50 L455.00,517.50 L458.50,514.00 L458.50,510.00 L456.50,506.00 L455.00,505.50 L452.50,501.00 L450.50,500.00 L449.50,497.00 L446.50,493.00 L448.50,488.00 L450.50,487.00 L451.50,484.00 L455.00,482.50 L461.00,475.50 L464.00,474.50 L466.50,470.00 L466.50,458.00 L458.50,443.00 L458.50,437.00 L460.50,435.00 L462.50,430.00 L466.50,427.00 L467.50,424.00 L469.00,423.50 L469.50,422.00 L471.50,421.00 L472.50,418.00 L474.50,417.00 L477.50,411.00 L477.50,397.00 L473.50,386.00 L473.50,379.00 L476.50,373.00 L480.50,368.00 L480.50,366.00 L485.50,360.00 L489.50,352.00 L490.50,339.00 L489.50,338.00 L489.50,333.00 L487.50,329.00 L487.50,326.00 L485.50,323.00 L485.50,320.00 L484.50,319.00 L484.50,312.00 L485.50,311.00 L485.50,308.00 L493.00,299.50 L505.00,291.50 L507.00,291.50 L518.00,286.50 L521.00,286.50 L528.00,283.50 L533.00,283.50 L534.00,282.50 L549.00,282.50 L550.00,283.50 L555.00,284.50 L557.00,286.50 L559.00,286.50 L565.50,293.00 L566.50,296.00 L571.50,302.00 L572.50,306.00 L580.50,317.00 L586.00,323.50 L589.00,324.50 L594.00,328.50 L599.00,330.50 L612.00,330.50 L616.00,328.50 L619.50,324.00 L619.50,321.00 L620.50,320.00 L619.50,296.00 L625.50,287.00 L625.50,285.00 L629.50,279.00 L629.50,276.00 L630.50,275.00 L630.50,258.00 L629.50,257.00 L629.50,253.00 L628.50,252.00 L627.50,244.00 L628.50,243.00 L628.50,239.00 L633.50,229.00 L633.50,226.00 L636.50,222.00 L638.50,217.00 L638.50,214.00 L640.50,209.00 L640.50,204.00 L641.50,203.00 L642.50,185.00 L643.50,184.00 L644.50,176.00 L646.50,172.00 L646.50,169.00 L648.50,165.00 L648.50,162.00 L650.50,158.00 L651.50,150.00 L653.50,145.00 L654.50,132.00 L655.50,131.00 L655.50,124.00 L656.50,123.00 L657.50,114.00 L659.50,110.00 L659.50,107.00 L660.50,106.00 L663.50,95.00 L665.50,92.00 L665.50,89.00 L666.50,88.00 L668.50,78.00 L669.50,77.00 L669.50,71.00 L670.50,70.00 L670.50,52.00 L671.50,51.00 L672.50,37.00 L673.50,36.00 L674.50,31.00 L677.50,25.00 L679.50,23.00 L679.50,21.00 L690.00,11.50 L700.00,6.50 L707.00,5.50 L708.00,4.50 L717.00,4.50 L718.00,5.50 L725.00,6.50 L728.00,8.50 L730.00,8.50 L736.00,13.50 L739.00,14.50 L739.50,16.00 L743.50,19.00 L750.50,32.00 L751.50,42.00 L752.50,43.00 L751.50,58.00 L750.50,59.00 L750.50,80.00 L752.50,84.00 L752.50,87.00 L755.50,92.00 L755.50,94.00 L757.50,96.00 L757.50,98.00 L760.50,102.00 L761.50,107.00 L764.50,111.00 L764.50,114.00 L767.50,122.00 L767.50,126.00 L768.50,127.00 L768.50,148.00 L769.50,149.00 L769.50,155.00 L773.50,166.00 L773.50,169.00 L778.50,180.00 L778.50,184.00 L780.50,189.00 L780.50,201.00 L781.50,202.00 L781.50,213.00 L782.50,214.00 L782.50,217.00 L784.50,219.00 L784.50,222.00 L788.50,230.00 L790.50,231.00 L796.50,244.00 L796.50,252.00 L794.50,254.00 L794.50,256.00 L788.50,266.00 L788.50,269.00 L787.50,270.00 L787.50,280.00 L790.50,286.00 L793.00,287.50 L797.00,292.50 L799.00,292.50 L802.00,295.50 L804.00,295.50 L808.00,297.50 L811.00,297.50 L812.00,298.50 L827.00,298.50 L828.00,297.50 L834.00,296.50 L840.00,292.50 L845.50,285.00 L845.50,270.00 L844.50,269.00 L844.50,266.00 L842.50,263.00 L842.50,260.00 L840.50,255.00 L841.50,246.00 L849.50,234.00 L849.50,232.00 L853.50,227.00 L853.50,225.00 L855.50,223.00 L858.50,215.00 L858.50,212.00 L860.50,207.00 L860.50,187.00 L861.50,186.00 L862.50,176.00 L863.50,175.00 L864.50,169.00 L866.50,166.00 L867.50,159.00 L869.50,157.00 L872.50,146.00 L874.50,143.00 L874.50,139.00 L876.50,136.00 L876.50,133.00 L878.50,128.00 L878.50,124.00 L879.50,123.00 L880.50,111.00 L881.50,110.00 L881.50,105.00 L882.50,104.00 L884.50,90.00 L886.50,86.00 L889.50,71.00 L891.50,67.00 L891.50,64.00 L892.50,63.00 L896.50,49.00 L901.50,39.00 L901.50,37.00 L905.50,32.00 L906.50,29.00 L911.00,26.50 L915.50,29.00 L918.50,35.00 L920.50,37.00 L924.50,47.00 L926.50,49.00 L926.50,51.00 L927.50,52.00 L928.50,57.00 L930.50,60.00 L930.50,63.00 L933.50,70.00 L933.50,73.00 L934.50,74.00 L934.50,77.00 L935.50,78.00 L935.50,81.00 L937.50,86.00 L943.50,130.00 L944.50,131.00 L945.50,138.00 L947.50,142.00 L947.50,145.00 L948.50,146.00 L949.50,152.00 L952.50,159.00 L952.50,162.00 L954.50,167.00 L954.50,171.00 L955.50,172.00 L956.50,189.00 L957.50,190.00 L957.50,198.00 L958.50,199.00 L960.50,209.00 L964.50,216.00 L964.50,218.00 L966.50,222.00 L969.50,226.00 L970.50,231.00 L973.50,237.00 L973.50,242.00 L974.50,243.00 L974.50,246.00 L973.50,247.00 L973.50,268.00 L974.50,269.00 L974.50,272.00 L982.50,288.00 L984.50,289.00 L984.50,291.00 L988.50,299.00 L988.50,320.00 L990.50,322.00 L994.50,330.00 L999.50,334.00 L1000.50,337.00 L1005.50,344.00 L1005.50,346.00 L1001.50,352.00 L995.50,357.00 L991.50,364.00 L991.50,369.00 L992.50,370.00 L992.50,372.00 L994.00,372.50 L997.00,376.50 L999.00,376.50 L1004.00,379.50 L1012.00,380.50 L1013.00,381.50 L1018.00,381.50 L1019.00,382.50 L1048.00,382.50 L1049.00,381.50 L1055.00,380.50 L1059.50,377.00 L1059.50,369.00 L1057.00,365.50 L1054.00,364.50 L1053.00,362.50 L1050.00,361.50 L1048.00,357.50 L1043.50,355.00 L1041.50,352.00 L1041.50,350.00 L1042.50,348.00 L1055.50,336.00 L1059.50,330.00 L1059.50,318.00 L1058.50,317.00 L1056.50,309.00 L1060.50,303.00 L1063.00,301.50 L1063.50,300.00 L1069.50,295.00 L1070.50,292.00 L1073.50,290.00 L1075.50,285.00 L1075.50,272.00 L1073.50,269.00 L1072.50,265.00 L1070.50,263.00 L1069.50,255.00 L1070.50,254.00 L1071.50,249.00 L1079.50,235.00 L1079.50,232.00 L1081.50,228.00 L1081.50,214.00 L1082.50,213.00 L1082.50,207.00 L1084.50,204.00 L1084.50,201.00 L1092.50,189.00 L1099.50,173.00 L1099.50,166.00 L1100.50,165.00 L1099.50,147.00 L1100.50,146.00 L1100.50,141.00 L1101.50,140.00 L1103.50,132.00 L1111.50,117.00 L1111.50,115.00 L1115.50,107.00 L1115.50,104.00 L1117.50,99.00 L1117.50,91.00 L1118.50,90.00 L1118.50,67.00 L1119.50,66.00 L1119.50,59.00 L1120.50,58.00 L1123.50,43.00 L1126.50,38.00 L1126.50,35.00 L1129.50,31.00 L1129.50,29.00 L1131.50,25.00 L1135.50,20.00 L1135.50,18.00 L1141.00,11.50 L1142.00,11.50 L1147.00,6.50 L1149.00,6.50 L1152.00,4.50 L1157.00,4.50 L1158.00,5.50 L1163.00,6.50 L1171.00,12.50 L1173.50,16.00 L1177.50,19.00 L1180.50,25.00 L1184.50,30.00 L1190.50,45.00 L1191.50,55.00 L1192.50,56.00 L1192.50,72.00 L1191.50,73.00 L1191.50,86.00 L1192.50,87.00 L1192.50,93.00 L1193.50,94.00 L1193.50,97.00 L1194.50,98.00 L1195.50,103.00 L1197.50,105.00 L1197.50,107.00 L1200.50,113.00 L1202.50,115.00 L1202.50,117.00 L1204.50,119.00 L1204.50,121.00 L1208.50,129.00 L1208.50,132.00 L1210.50,137.00 L1210.50,146.00 L1209.50,147.00 L1209.50,165.00 L1210.50,166.00 L1210.50,169.00 L1212.50,172.00 L1213.50,177.00 L1216.50,181.00 L1218.50,185.00 L1218.50,187.00 L1224.50,199.00 L1224.50,204.00 L1225.50,205.00 L1225.50,208.00 L1224.50,209.00 L1224.50,218.00 L1225.50,219.00 L1226.50,228.00 L1228.50,230.00 L1230.50,235.00 L1232.50,236.00 L1236.50,245.00 L1239.50,249.00 L1239.50,252.00 L1240.50,253.00 L1240.50,257.00 L1237.50,265.00 L1237.50,278.00 L1238.50,279.00 L1238.50,282.00 L1240.50,285.00 L1245.50,289.00 L1246.50,292.00 L1249.50,294.00 L1250.50,297.00 L1254.50,302.00 L1254.50,305.00 L1249.50,317.00 L1249.50,324.00 L1250.50,325.00 L1250.50,327.00 L1252.50,330.00 L1255.00,331.50 L1255.50,333.00 L1268.50,345.00 L1267.50,350.00 L1266.00,350.50 L1263.00,354.50 L1259.00,356.50 L1256.50,360.00 L1256.50,362.00 L1255.50,363.00 L1255.50,368.00 L1257.50,373.00 L1262.00,375.50 L1262.50,377.00 L1268.00,381.50 L1274.00,384.50 L1277.50,390.00 L1274.00,394.50 L1268.00,397.50 L1267.50,399.00 L1263.50,402.00 L1262.50,404.00 L1262.50,410.00 L1264.50,413.00 L1269.00,416.50 L1271.00,416.50 L1273.00,418.50 L1275.00,418.50 L1283.00,422.50 L1288.00,423.50 L1295.00,427.50 L1297.00,427.50 L1298.50,429.00 L1291.00,433.50 L1289.00,433.50 L1285.00,435.50 L1282.00,435.50 L1279.00,437.50 L1272.00,439.50 L1269.00,441.50 L1266.50,445.00 L1266.50,450.00 L1269.00,451.50 L1270.00,453.50 L1276.00,456.50 L1278.00,456.50 L1281.00,458.50 L1284.00,458.50 L1288.00,460.50 L1291.00,460.50 L1295.00,462.50 L1298.00,462.50 L1305.00,465.50 L1308.00,465.50 L1311.50,468.00 L1307.00,470.50 L1299.00,471.50 L1295.00,473.50 L1291.00,473.50 L1290.00,474.50 L1287.00,474.50 L1282.00,476.50 L1278.00,476.50 L1277.00,477.50 L1274.00,477.50 L1271.00,479.50 L1269.00,479.50 L1263.50,483.00 L1263.50,490.00 L1274.00,494.50 L1278.00,494.50 L1279.00,495.50 L1282.00,495.50 L1287.00,497.50 L1292.00,497.50 L1293.00,498.50 L1310.00,500.50 L1311.00,501.50 L1315.00,501.50 L1316.00,502.50 L1320.00,502.50 L1321.00,503.50 L1328.00,504.50 L1328.50,505.00 L1326.00,506.50 L1323.00,506.50 L1319.00,508.50 L1315.00,508.50 L1314.00,509.50 L1310.00,509.50 L1309.00,510.50 L1301.00,511.50 L1296.00,513.50 L1292.00,513.50 L1291.00,514.50 L1285.00,515.50 L1282.00,517.50 L1280.00,517.50 L1275.50,521.00 L1275.50,526.00 L1279.00,529.50 L1281.00,529.50 L1284.00,531.50 L1287.00,531.50 L1288.00,532.50 L1292.00,532.50 L1293.00,533.50 L1297.00,533.50 L1298.00,534.50 L1303.00,534.50 L1304.00,535.50 L1309.00,535.50 L1310.00,536.50 L1315.00,536.50 L1316.00,537.50 L1322.00,537.50 L1323.00,538.50 L1327.00,538.50 L1328.00,539.50 L1338.00,540.50 L1340.50,542.00 L1334.00,544.50 L1331.00,544.50 L1326.00,546.50 L1322.00,546.50 L1317.00,548.50 L1313.00,548.50 L1309.00,550.50 L1300.00,551.50 L1293.00,554.50 L1287.00,555.50 L1282.50,559.00 L1282.50,564.00 L1286.00,567.50 L1291.00,569.50 L1294.00,569.50 L1299.00,571.50 L1303.00,571.50 L1304.00,572.50 L1308.00,572.50 L1309.00,573.50 L1313.00,573.50 L1318.00,575.50 L1322.00,575.50 L1323.00,576.50 L1334.00,578.50 L1337.00,580.50 L1339.00,580.50 L1340.50,582.00 L1337.00,583.50 L1333.00,583.50 L1332.00,584.50 L1327.00,584.50 L1326.00,585.50 L1315.00,585.50 L1314.00,586.50 L1277.00,586.50 L1276.00,585.50 L1252.00,585.50 L1251.00,584.50 L1189.00,584.50 L1188.00,585.50 L1048.00,584.50 L1047.00,585.50 L1026.00,585.50 L1025.00,586.50 L991.00,586.50 L990.00,585.50 L975.00,584.50 L974.00,583.50 L971.00,583.50 L969.50,582.00 L970.00,581.50 L972.00,581.50 L980.00,577.50 L983.00,577.50 L987.00,575.50 L990.00,575.50 L991.00,574.50 L994.00,574.50 L999.00,572.50 L1004.00,572.50 L1005.00,571.50 L1010.00,571.50 L1011.00,570.50 L1015.00,570.50 L1016.00,569.50 L1020.00,569.50 L1021.00,568.50 L1026.00,568.50 L1028.50,567.00 L1028.50,563.00 L1026.00,561.50 L1006.00,561.50 L1005.00,560.50 L961.00,560.50 L960.00,559.50 L931.00,559.50 L930.00,560.50 L915.00,560.50 L914.00,561.50 L902.00,562.50 L901.00,563.50 L894.00,564.50 L890.00,566.50 L879.00,568.50 L876.00,570.50 L873.00,570.50 L870.00,572.50 L864.00,573.50 L859.00,576.50 L856.00,576.50 L853.00,578.50 L851.00,578.50 L846.00,582.50 L843.00,583.50 L840.50,587.00 L840.50,591.00 L841.50,593.00 L846.50,596.00 L844.00,597.50 L825.00,597.50 L824.00,598.50 L779.00,598.50 L778.00,597.50 L739.00,597.50 L738.00,596.50 L696.00,596.50 L695.00,597.50 L614.00,598.50 L613.00,597.50 L586.00,597.50 L585.00,596.50 L576.00,596.50 L575.50,596.00 L578.50,594.00 L580.50,590.00 L580.50,586.00 L578.00,582.50 L566.00,576.50 L563.00,576.50 L560.00,574.50 L557.00,574.50 L554.00,572.50 L547.00,571.50 L546.00,570.50 L536.00,568.50 L532.00,566.50 L528.00,566.50 L527.00,565.50 L523.00,565.50 L518.00,563.50 L514.00,563.50 L513.00,562.50 L509.00,562.50 L508.00,561.50 L503.00,561.50 L502.00,560.50 L494.00,560.50 L493.00,559.50 L459.00,559.50 L458.00,560.50 L446.00,560.50 L445.00,561.50 L437.00,561.50 L436.00,562.50 L420.00,563.50 L419.00,564.50 L402.00,566.50 L401.00,567.50 L397.00,567.50 L396.00,568.50 L392.00,568.50 L389.00,570.50 L386.00,570.50 L381.50,574.00 L381.50,579.00 L383.00,580.50 L385.00,580.50 L388.00,582.50 L399.00,584.50 L399.00,585.50 L309.00,585.50 L308.00,584.50 L260.00,584.50 L259.00,585.50 L110.00,585.50 L110.00,584.50 L113.00,584.50 L114.00,583.50 L119.00,582.50 L124.50,579.00 L124.50,573.00 L122.00,569.50 L114.00,566.50 L111.00,566.50 L107.00,564.50 L99.00,563.50 L94.00,561.50 L90.00,561.50 L89.00,560.50 L86.00,560.50 L85.00,559.50 L82.00,559.50 L81.00,558.50 L74.50,557.00 L79.00,554.50 L82.00,554.50 L87.00,552.50 L91.00,552.50 L92.00,551.50 L96.00,551.50 L97.00,550.50 L102.00,550.50 L107.00,548.50 L112.00,548.50 L113.00,547.50 L122.00,546.50 L123.00,545.50 L126.00,545.50 L127.00,544.50 L132.00,543.50 L136.50,540.00 L136.50,535.00 L132.00,531.50 L129.00,531.50 L125.00,529.50 L117.00,528.50 L116.00,527.50 L112.00,527.50 L111.00,526.50 L106.00,526.50 L105.00,525.50 L101.00,525.50 L100.00,524.50 L90.00,523.50 L89.00,522.50 L78.00,520.50 L76.50,519.00 L80.00,518.50 L84.00,516.50 L93.00,515.50 L94.00,514.50 L106.00,513.50 L107.00,512.50 L111.00,512.50 L112.00,511.50 L118.00,511.50 L119.00,510.50 L124.00,510.50 L125.00,509.50 L134.00,508.50 L135.00,507.50 L138.00,507.50 L146.50,504.00 L146.50,498.00 L142.00,494.50 L139.00,494.50 L135.00,492.50 L132.00,492.50 L131.00,491.50 L128.00,491.50 L127.00,490.50 L124.00,490.50 L123.00,489.50 L120.00,489.50 L115.00,487.50 L107.00,486.50 L106.00,485.50 L98.00,483.50 L96.50,482.00 L98.00,480.50 L104.00,479.50 L108.00,477.50 L111.00,477.50 L116.00,475.50 L120.00,475.50 L125.00,473.50 L129.00,473.50 L130.00,472.50 L134.00,472.50 L135.00,471.50 L146.00,468.50 L148.50,466.00 L148.50,460.00 L145.00,457.50 L132.00,452.50 L129.00,452.50 L122.00,449.50 L119.00,449.50 L116.00,447.50 L113.00,447.50 L111.00,446.50 L108.50,443.00 L117.00,439.50 L120.00,439.50 L123.00,437.50 L130.00,436.50 L133.00,434.50 L136.00,434.50 L139.00,432.50 L141.00,432.50 L144.00,430.50 L146.50,427.00 L146.50,421.00 L137.00,413.50 L135.00,413.50 L130.00,409.50 L127.00,408.50 L125.50,405.00 L127.00,402.50 L129.00,402.50 L131.00,400.50 L133.00,400.50 L138.00,397.50 L140.00,397.50 L143.00,395.50 L145.00,395.50 L147.00,393.50 L151.00,392.50 L155.50,386.00 L155.50,382.00 L153.50,378.00 L141.50,368.00 L140.50,364.00 L144.50,358.00 L150.00,355.50 L152.00,352.50 L156.00,350.50 L157.50,347.00 L157.50,337.00 L152.50,330.00 L148.50,322.00 L153.50,314.00 L157.00,312.50 L157.50,311.00 L164.50,305.00 L168.50,297.00 L168.50,292.00 L167.50,291.00 L167.50,287.00 L164.50,279.00 L164.50,276.00 L166.50,271.00 L176.50,256.00 L176.50,241.00 L173.50,233.00 L173.50,223.00 L177.50,217.00 L179.50,212.00 L182.00,210.50 L183.50,207.00 L186.50,205.00 L188.50,200.00 L190.50,198.00 L191.50,190.00 L192.50,189.00 L192.50,171.00 L193.50,170.00 L193.50,166.00 L194.50,165.00 L197.50,154.00 L200.50,148.00 L200.50,144.00 L201.50,143.00 L201.50,139.00 L202.50,138.00 L202.50,119.00 L203.50,118.00 L204.50,108.00 L205.50,107.00 L206.50,102.00 L208.50,99.00 L208.50,97.00 L210.50,95.00 L210.50,93.00 L212.50,91.00 L215.50,85.00 L215.50,83.00 L218.50,79.00 L218.50,76.00 L219.50,75.00 L219.50,70.00 L220.50,69.00 L220.50,55.00 L219.50,54.00 L218.50,37.00 L217.50,36.00 L217.50,34.00 L218.50,33.00 L218.50,28.00 L219.50,27.00 L220.50,22.00 L224.50,16.00 L228.00,12.50 L229.00,12.50 L230.00,10.50 L232.00,10.50 L234.00,8.50 L241.00,5.50Z M794.50,307.00 L814.00,306.50 L816.00,308.50 L823.00,308.50 L825.00,310.50 L840.00,311.50 L842.00,313.50 L845.00,313.50 L847.50,316.00 L847.50,321.00 L844.00,323.50 L842.00,323.50 L840.00,325.50 L836.50,326.00 L839.50,329.00 L839.50,333.00 L837.00,335.50 L811.00,334.50 L809.00,332.50 L804.00,332.50 L802.00,330.50 L798.00,330.50 L797.50,323.00 L795.00,320.50 L790.00,320.50 L788.00,318.50 L786.00,318.50 L783.50,316.00 L784.00,310.50 L786.00,310.50 L788.00,308.50 L793.00,308.50Z M799.50,312.00 L809.00,311.50 L811.00,313.50 L818.00,313.50 L820.00,315.50 L835.00,316.50 L836.50,319.00 L835.00,320.50 L832.00,320.50 L829.50,323.00 L830.00,330.50 L827.00,330.50 L826.00,329.50 L816.00,329.50 L814.00,327.50 L809.00,327.50 L806.00,325.50 L805.50,319.00 L804.00,317.50 L802.00,317.50 L800.00,315.50 L795.00,315.50 L793.50,314.00 L798.00,313.50Z M580.50,338.00 L596.00,337.50 L598.00,339.50 L605.00,339.50 L607.00,341.50 L612.00,341.50 L614.00,343.50 L616.50,344.00 L616.50,349.00 L614.50,351.00 L618.00,351.50 L621.00,353.50 L626.00,353.50 L628.00,355.50 L631.00,355.50 L633.50,358.00 L633.50,363.00 L630.00,363.50 L628.00,365.50 L621.00,365.50 L619.00,367.50 L598.00,367.50 L597.00,365.50 L591.00,365.50 L589.00,363.50 L578.00,362.50 L576.00,360.50 L574.00,360.50 L572.50,359.00 L572.50,354.00 L575.00,350.50 L577.00,350.50 L580.50,348.00 L579.50,347.00 L579.50,339.00Z M585.50,343.00 L591.00,342.50 L593.00,344.50 L600.00,344.50 L602.00,346.50 L607.00,346.50 L607.00,355.50 L614.00,356.50 L616.00,358.50 L621.00,358.50 L622.50,360.00 L616.00,360.50 L614.00,362.50 L603.00,362.50 L601.00,360.50 L596.00,360.50 L594.00,358.50 L583.00,357.50 L581.50,356.00 L584.00,353.50 L586.50,353.00 L586.50,344.00Z M806.50,344.00 L812.00,343.50 L813.00,344.50 L819.00,344.50 L821.00,346.50 L824.00,346.50 L825.50,348.00 L825.00,355.50 L828.00,357.50 L838.00,358.50 L840.00,360.50 L844.00,360.50 L844.50,366.00 L841.00,369.50 L838.00,369.50 L837.00,370.50 L828.00,370.50 L827.00,369.50 L816.00,369.50 L814.00,367.50 L804.00,367.50 L802.00,365.50 L793.00,365.50 L788.50,362.00 L788.50,357.00 L790.00,355.50 L795.00,355.50 L797.00,353.50 L802.00,353.50 L804.00,351.50 L806.00,351.50Z M814.50,351.00 L815.00,350.50 L817.50,352.00 L816.50,353.00 L816.50,359.00 L818.00,360.50 L821.00,360.50 L823.00,362.50 L833.50,364.00 L821.00,364.50 L819.00,362.50 L809.00,362.50 L807.00,360.50 L801.00,360.50 L800.50,360.00 L802.00,358.50 L807.00,358.50 L809.00,356.50 L813.00,356.50 L814.50,355.00Z M581.50,384.00 L591.00,383.50 L592.00,384.50 L603.00,384.50 L605.00,386.50 L615.00,386.50 L617.00,388.50 L624.00,388.50 L626.00,390.50 L630.50,391.00 L630.50,396.00 L628.00,398.50 L623.00,398.50 L621.00,400.50 L612.00,400.50 L610.00,402.50 L600.00,402.50 L595.00,398.50 L591.00,398.50 L589.00,396.50 L579.00,395.50 L576.50,393.00 L576.50,388.00Z M796.50,389.00 L805.00,388.50 L807.00,390.50 L827.00,391.50 L829.00,393.50 L835.00,393.50 L837.50,396.00 L837.50,401.00 L833.00,403.50 L821.00,403.50 L820.00,402.50 L811.00,402.50 L809.00,400.50 L802.00,400.50 L800.00,398.50 L793.00,398.50 L790.50,396.00 L790.50,391.00 L795.00,390.50Z M584.50,390.00 L598.00,389.50 L600.00,391.50 L610.00,391.50 L612.00,393.50 L617.50,394.00 L616.00,395.50 L607.00,395.50 L605.00,397.50 L600.00,393.50 L596.00,393.50 L594.00,391.50 L589.00,391.50 L588.00,390.50Z M1004.50,391.00 L1015.00,390.50 L1019.00,393.50 L1026.00,393.50 L1028.00,395.50 L1039.00,395.50 L1041.00,397.50 L1062.00,398.50 L1064.00,400.50 L1066.00,400.50 L1067.50,402.00 L1067.50,406.00 L1066.00,407.50 L1064.00,407.50 L1062.00,409.50 L1049.00,410.50 L1047.00,412.50 L1042.00,412.50 L1041.50,420.00 L1040.00,421.50 L1035.00,421.50 L1034.00,419.50 L1025.00,419.50 L1023.00,417.50 L1016.00,417.50 L1011.50,415.00 L1011.50,410.00 L1009.00,407.50 L1004.00,407.50 L1002.00,405.50 L995.00,405.50 L993.00,403.50 L986.00,403.50 L982.50,401.00 L982.50,396.00 L985.00,395.50 L987.00,393.50 L994.00,393.50 L996.00,391.50Z M1009.50,396.00 L1012.00,396.50 L1014.00,398.50 L1021.00,398.50 L1023.00,400.50 L1034.00,400.50 L1036.00,402.50 L1048.00,402.50 L1049.00,403.50 L1057.50,404.00 L1052.00,404.50 L1051.00,405.50 L1044.00,405.50 L1042.00,407.50 L1037.00,407.50 L1034.50,410.00 L1034.50,414.00 L1030.00,414.50 L1028.00,412.50 L1021.00,412.50 L1020.00,411.50 L1018.00,411.50 L1018.50,405.00 L1016.00,404.50 L1014.00,402.50 L1009.00,402.50 L1007.00,400.50 L1000.00,400.50 L998.50,399.00 L1001.00,396.50Z M1005.50,429.00 L1014.00,428.50 L1016.00,430.50 L1036.00,431.50 L1038.00,433.50 L1040.00,433.50 L1041.50,435.00 L1041.50,441.00 L1040.50,443.00 L1042.00,444.50 L1052.00,445.50 L1054.50,448.00 L1054.50,454.00 L1034.00,454.50 L1032.00,452.50 L1020.00,452.50 L1018.00,450.50 L1007.00,450.50 L1006.00,449.50 L1001.00,449.50 L999.50,448.00 L999.50,442.00 L1004.00,438.50 L1008.00,438.50 L1009.50,437.00 L1007.00,436.50 L1004.50,434.00 L1004.50,430.00Z M1016.50,436.00 L1022.00,435.50 L1023.00,436.50 L1031.00,436.50 L1032.50,438.00 L1029.50,440.00 L1029.50,445.00 L1031.50,447.00 L1024.00,447.50 L1022.00,445.50 L1012.00,445.50 L1011.00,444.50 L1009.00,444.50 L1009.00,443.50 L1013.00,443.50 L1016.50,442.00Z M591.50,467.00 L601.00,466.50 L603.00,468.50 L612.00,468.50 L614.00,470.50 L617.00,470.50 L618.50,472.00 L618.50,476.00 L616.00,478.50 L610.00,478.50 L609.00,477.50 L602.00,477.50 L600.00,475.50 L593.00,475.50 L590.50,473.00 L590.50,468.00Z M998.50,474.00 L1012.00,473.50 L1014.00,475.50 L1025.00,475.50 L1027.00,477.50 L1050.00,478.50 L1052.00,480.50 L1056.50,481.00 L1056.50,487.00 L1054.00,487.50 L1052.00,489.50 L1037.00,489.50 L1035.00,487.50 L1025.00,487.50 L1023.00,485.50 L1012.00,485.50 L1010.00,483.50 L1002.00,483.50 L1001.00,482.50 L997.00,482.50 L996.50,476.00Z M407.50,523.00 L417.00,522.50 L417.50,525.00 L420.00,525.50 L422.00,527.50 L429.00,527.50 L431.00,529.50 L438.00,529.50 L440.00,531.50 L447.00,531.50 L449.00,532.50 L450.50,534.00 L450.50,541.00 L449.50,543.00 L455.00,543.50 L457.00,545.50 L461.00,545.50 L462.50,547.00 L462.50,553.00 L460.00,553.50 L459.00,555.50 L452.00,555.50 L449.00,557.50 L444.00,557.50 L442.00,555.50 L435.00,555.50 L433.00,553.50 L419.00,553.50 L417.00,551.50 L385.00,550.50 L383.00,548.50 L375.00,548.50 L374.00,546.50 L371.50,546.00 L371.50,541.00 L373.00,539.50 L376.00,539.50 L377.00,538.50 L382.00,538.50 L385.50,536.00 L384.00,534.50 L381.50,534.00 L382.00,527.50 L384.00,527.50 L387.00,525.50 L393.00,525.50 L394.00,524.50 L407.00,524.50Z M398.50,530.00 L411.00,529.50 L413.00,531.50 L416.00,531.50 L417.00,532.50 L424.00,532.50 L426.00,534.50 L433.00,534.50 L435.00,536.50 L442.00,536.50 L443.50,538.00 L440.50,539.00 L440.50,544.00 L445.00,548.50 L450.00,548.50 L452.50,550.00 L440.00,550.50 L438.00,548.50 L424.00,548.50 L422.00,546.50 L389.00,545.50 L387.50,544.00 L389.00,541.50 L394.00,541.50 L396.50,539.00 L396.50,534.00 L393.50,532.00 L397.00,531.50Z" fill="#000000" fill-rule="evenodd" stroke="none"/>
</svg>
