<svg xmlns="http://www.w3.org/2000/svg" viewBox="0 0 350 350">
  <path d="M105.50,34.00 L118.00,33.50 L119.00,34.50 L122.00,34.50 L125.00,36.50 L127.00,36.50 L133.00,40.50 L137.50,45.00 L141.50,51.00 L141.50,53.00 L143.50,56.00 L143.50,60.00 L144.50,61.00 L145.00,65.50 L205.00,65.50 L206.50,57.00 L210.50,48.00 L217.00,40.50 L223.00,36.50 L228.00,34.50 L231.00,34.50 L232.00,33.50 L244.00,33.50 L255.00,37.50 L263.50,45.00 L267.50,51.00 L267.50,53.00 L269.50,56.00 L269.50,60.00 L270.50,61.00 L270.50,71.00 L269.50,72.00 L268.50,78.00 L262.50,88.00 L260.00,89.50 L255.50,94.00 L255.50,95.00 L260.50,104.00 L262.50,106.00 L264.50,111.00 L266.50,113.00 L268.50,118.00 L273.50,125.00 L283.50,144.00 L286.00,146.50 L289.00,144.50 L295.00,143.50 L296.00,142.50 L306.00,142.50 L307.00,143.50 L310.00,143.50 L311.00,144.50 L316.00,145.50 L322.00,149.50 L322.50,151.00 L324.00,151.50 L328.50,157.00 L332.50,165.00 L332.50,169.00 L333.50,170.00 L333.50,180.00 L332.50,181.00 L332.50,185.00 L326.50,196.00 L323.00,198.50 L322.00,200.50 L316.00,204.50 L314.00,204.50 L310.00,206.50 L307.00,206.50 L306.00,207.50 L296.00,207.50 L295.00,206.50 L289.00,205.50 L286.00,203.50 L283.50,206.00 L281.50,211.00 L279.50,213.00 L277.50,218.00 L275.50,220.00 L273.50,225.00 L271.50,227.00 L270.50,230.00 L268.50,232.00 L266.50,237.00 L264.50,239.00 L262.50,244.00 L260.50,246.00 L255.50,255.00 L255.50,256.00 L262.50,262.00 L268.50,272.00 L269.50,278.00 L270.50,279.00 L270.50,289.00 L269.50,290.00 L269.50,294.00 L267.50,297.00 L267.50,299.00 L263.50,305.00 L255.00,312.50 L244.00,316.50 L232.00,316.50 L231.00,315.50 L228.00,315.50 L223.00,313.50 L217.00,309.50 L210.50,302.00 L206.50,293.00 L205.00,284.50 L145.00,284.50 L144.50,289.00 L143.50,290.00 L143.50,294.00 L141.50,297.00 L141.50,299.00 L137.50,305.00 L129.00,312.50 L118.00,316.50 L106.00,316.50 L105.00,315.50 L102.00,315.50 L97.00,313.50 L91.00,309.50 L86.50,305.00 L81.50,296.00 L80.50,290.00 L79.50,289.00 L79.50,279.00 L80.50,278.00 L81.50,272.00 L87.50,262.00 L90.00,260.50 L94.50,256.00 L94.50,255.00 L89.50,246.00 L87.50,244.00 L85.50,239.00 L83.50,237.00 L81.50,232.00 L76.50,225.00 L66.50,206.00 L65.00,204.50 L62.00,204.50 L54.00,207.50 L44.00,207.50 L43.00,206.50 L40.00,206.50 L31.00,202.50 L27.00,198.50 L26.00,198.50 L21.50,193.00 L18.50,187.00 L17.50,181.00 L16.50,180.00 L16.50,170.00 L17.50,169.00 L18.50,163.00 L24.50,153.00 L31.00,147.50 L37.00,144.50 L43.00,143.50 L44.00,142.50 L54.00,142.50 L62.00,145.50 L65.00,145.50 L70.50,137.00 L72.50,132.00 L74.50,130.00 L76.50,125.00 L81.50,118.00 L83.50,113.00 L85.50,111.00 L87.50,106.00 L92.50,99.00 L94.50,94.00 L87.50,88.00 L81.50,78.00 L80.50,72.00 L79.50,71.00 L79.50,61.00 L80.50,60.00 L81.50,54.00 L86.50,45.00 L91.00,40.50 L97.00,36.50Z M106.50,36.00 L118.00,35.50 L126.00,38.50 L134.00,44.50 L140.50,54.00 L141.50,60.00 L142.50,61.00 L142.50,65.00 L112.00,65.50 L109.50,68.00 L107.50,73.00 L102.50,80.00 L97.50,90.00 L95.00,91.50 L89.50,87.00 L82.50,75.00 L82.50,72.00 L81.50,71.00 L81.50,61.00 L82.50,60.00 L82.50,57.00 L84.50,54.00 L84.50,52.00 L88.50,46.00 L96.00,39.50 L100.00,37.50Z M232.50,36.00 L244.00,35.50 L252.00,38.50 L260.50,45.00 L266.50,54.00 L267.50,60.00 L268.50,61.00 L268.50,71.00 L267.50,72.00 L267.50,75.00 L260.50,87.00 L254.00,91.50 L249.50,85.00 L244.50,75.00 L242.50,73.00 L240.50,68.00 L238.00,65.50 L207.50,65.00 L208.50,57.00 L210.50,54.00 L210.50,52.00 L214.50,46.00 L222.00,39.50 L226.00,37.50Z M115.50,67.00 L142.00,66.50 L142.50,71.00 L139.50,79.00 L137.00,79.50Z M144.50,67.00 L205.00,66.50 L206.50,75.00 L209.50,81.00 L205.00,84.50 L189.00,92.50 L184.00,96.50 L175.00,101.50 L166.00,96.50 L161.00,92.50 L145.00,84.50 L140.50,81.00 L143.50,75.00Z M207.50,67.00 L234.50,67.00 L213.00,79.50 L211.00,79.50 L208.50,75.00Z M110.50,70.00 L111.50,70.00 L111.50,96.00 L108.00,96.50 L107.00,95.50 L101.00,94.50 L97.50,92.00 L99.50,90.00 L101.50,85.00 L103.50,83.00 L105.50,78.00 L107.50,76.00Z M238.50,70.00 L239.00,69.50 L241.50,73.00 L250.50,90.00 L252.50,92.00 L249.00,94.50 L243.00,95.50 L242.00,96.50 L238.50,96.00Z M116.50,72.00 L117.00,71.50 L120.00,73.50 L126.00,79.50 L134.00,85.50 L134.50,87.00 L128.00,91.50Z M232.50,72.00 L233.00,71.50 L233.50,73.00 L231.50,75.00 L226.50,85.00 L222.00,91.50 L215.50,87.00 L216.00,85.50 L217.00,85.50Z M114.50,73.00 L115.50,73.00 L124.50,90.00 L126.50,92.00 L125.00,93.50 L120.00,95.50 L119.00,95.50 L117.50,93.00Z M234.50,73.00 L235.50,73.00 L234.50,83.00 L233.50,84.00 L232.50,93.00 L231.50,95.00 L230.00,95.50 L225.00,93.50 L223.50,92.00 L225.50,90.00Z M122.50,74.00 L124.00,73.50 L128.00,76.50 L133.00,78.50 L136.00,80.50 L137.50,83.00 L136.00,84.50 L133.00,83.50Z M225.50,74.00 L227.50,74.00 L217.00,83.50 L214.00,84.50 L212.50,83.00 L214.00,80.50Z M112.50,75.00 L113.50,75.00 L113.50,80.00 L114.50,81.00 L114.50,85.00 L115.50,86.00 L115.50,90.00 L116.50,91.00 L116.00,96.50 L112.50,96.00Z M236.50,75.00 L237.50,75.00 L237.50,96.00 L234.00,96.50 L233.50,91.00 L234.50,90.00 L234.50,86.00 L235.50,85.00 L235.50,81.00 L236.50,80.00Z M139.50,83.00 L140.00,82.50 L148.50,88.00 L139.00,88.50 L137.50,86.00Z M209.50,83.00 L210.00,82.50 L212.50,86.00 L211.00,88.50 L201.50,88.00Z M141.50,90.00 L146.00,89.50 L147.00,90.50 L151.00,90.50 L160.00,94.50 L165.50,99.00 L168.50,103.00 L168.50,105.00 L162.00,108.50Z M203.50,90.00 L208.50,90.00 L188.00,108.50 L185.00,107.50 L180.50,104.00 L184.50,100.00 L184.50,99.00 L190.00,94.50 L196.00,91.50Z M135.50,91.00 L139.00,90.50 L142.00,92.50 L156.00,105.50 L157.00,105.50 L160.50,109.00 L160.50,110.00 L148.00,116.50 L144.00,119.50 L129.50,95.00 L131.00,92.50Z M210.50,91.00 L214.00,90.50 L215.00,91.50 L217.00,91.50 L219.00,92.50 L220.50,95.00 L206.00,119.50 L202.00,116.50 L197.00,114.50 L195.00,112.50 L190.00,110.50 L189.50,109.00Z M96.50,95.00 L97.00,94.50 L103.00,97.50 L107.00,97.50 L108.00,98.50 L111.50,99.00 L111.50,138.00 L103.00,142.50 L101.00,144.50 L94.00,147.50 L87.00,152.50 L82.00,154.50 L80.00,156.50 L77.00,157.50 L74.50,154.00 L66.50,147.00 L66.50,146.00 L71.50,137.00 L73.50,135.00 L75.50,130.00 L77.50,128.00 L79.50,123.00 L84.50,116.00 L94.50,97.00Z M126.50,95.00 L127.00,94.50 L129.50,97.00 L131.50,102.00 L133.50,104.00 L135.50,109.00 L137.50,111.00 L139.50,116.00 L142.50,120.00 L134.00,125.50 L129.00,127.50 L127.00,129.50 L125.00,129.50 L119.50,102.00 L121.50,99.00Z M222.50,95.00 L223.00,94.50 L227.00,97.50 L230.50,102.00 L225.00,129.50 L223.00,129.50 L221.00,127.50 L216.00,125.50 L207.50,120.00 L210.50,116.00 L212.50,111.00 L214.50,109.00 L216.50,104.00 L218.50,102.00 L220.50,97.00Z M252.50,95.00 L253.00,94.50 L255.50,97.00 L257.50,102.00 L259.50,104.00 L261.50,109.00 L263.50,111.00 L265.50,116.00 L267.50,118.00 L268.50,121.00 L270.50,123.00 L272.50,128.00 L274.50,130.00 L276.50,135.00 L278.50,137.00 L283.50,146.00 L283.50,147.00 L279.00,151.50 L278.00,151.50 L273.00,157.50 L268.00,155.50 L253.00,145.50 L249.00,144.50 L247.00,142.50 L238.50,138.00 L238.50,99.00 L242.00,98.50 L243.00,97.50 L247.00,97.50Z M116.50,98.00 L117.50,98.00 L117.50,101.00 L115.50,103.00 L113.00,109.50 L112.50,99.00Z M232.50,98.00 L237.50,99.00 L237.00,109.50 L234.50,103.00 L232.50,101.00Z M169.50,101.00 L171.00,100.50 L172.50,103.00 L172.00,103.50Z M178.50,101.00 L180.50,101.00 L178.00,103.50 L177.50,102.00Z M117.50,104.00 L118.50,104.00 L118.50,106.00 L119.50,107.00 L119.50,111.00 L120.50,112.00 L120.50,116.00 L121.50,117.00 L121.50,121.00 L122.50,122.00 L122.50,126.00 L123.50,127.00 L123.50,131.00 L118.00,134.50 L117.00,134.50 L114.50,131.00 L113.50,123.00 L112.50,122.00 L113.50,113.00Z M173.50,104.00 L176.00,103.50 L177.50,105.00 L175.00,112.50 L172.50,106.00Z M231.50,105.00 L232.00,104.50 L233.50,106.00 L235.50,110.00 L235.50,112.00 L236.50,113.00 L236.50,118.00 L237.50,119.00 L236.50,128.00 L234.50,133.00 L233.00,134.50 L226.50,131.00 L226.50,127.00 L227.50,126.00 L227.50,122.00 L228.50,121.00 L228.50,117.00 L229.50,116.00 L229.50,112.00 L230.50,111.00 L230.50,107.00Z M168.50,107.00 L170.00,106.50 L172.50,110.00 L172.50,112.00 L173.50,113.00 L173.00,117.50 L164.50,110.00 L165.00,108.50Z M179.50,107.00 L181.00,106.50 L185.00,108.50 L185.50,110.00 L177.00,117.50 L176.50,113.00Z M161.50,111.00 L164.00,111.50 L171.00,118.50 L172.00,118.50 L172.00,119.50 L147.50,119.00Z M187.50,111.00 L188.00,110.50 L192.00,112.50 L194.00,114.50 L202.50,119.00 L178.00,119.50 L178.00,118.50 L179.00,118.50 L186.00,111.50Z M150.50,122.00 L171.50,122.00 L166.00,127.50Z M178.50,122.00 L199.50,122.00 L185.00,127.50 L184.00,127.50Z M138.50,124.00 L140.50,124.00 L128.00,145.50 L125.50,132.00Z M146.50,124.00 L148.00,123.50 L150.00,125.50 L160.00,130.50 L160.50,132.00 L154.00,137.50Z M172.50,124.00 L173.50,124.00 L173.50,128.00 L172.00,129.50 L167.50,128.00Z M176.50,124.00 L179.00,124.50 L182.50,128.00 L178.00,129.50 L176.50,127.00Z M201.50,124.00 L203.50,124.00 L196.00,137.50 L192.00,134.50 L189.50,131.00Z M209.50,124.00 L211.00,123.50 L213.00,125.50 L218.00,127.50 L224.50,132.00 L222.00,145.50Z M144.50,125.00 L145.50,125.00 L150.50,135.00 L152.50,137.00 L152.00,138.50 L147.00,140.50 L144.50,140.00Z M204.50,125.00 L205.50,125.00 L205.50,140.00 L203.00,140.50 L198.00,138.50 L197.50,137.00 L199.50,135.00Z M154.50,126.00 L157.00,125.50 L158.00,126.50 L163.00,127.50 L163.50,129.00 L162.00,130.50Z M192.50,126.00 L195.50,126.00 L192.00,127.50 L190.00,129.50 L188.00,130.50 L186.50,129.00 L187.00,127.50Z M140.50,127.00 L141.50,127.00 L141.50,129.00 L140.50,130.00 L140.50,134.00 L139.50,135.00 L139.50,140.00 L138.50,141.00 L138.50,143.00 L136.00,144.50 L131.00,145.50 L130.50,144.00 L131.50,142.00 L133.50,140.00Z M208.50,127.00 L209.50,127.00 L213.50,135.00 L218.50,142.00 L219.50,144.00 L219.00,145.50 L217.00,145.50 L211.50,143.00Z M174.50,129.00 L175.50,129.00 L175.00,130.50Z M165.50,130.00 L168.00,129.50 L171.50,131.00 L167.00,133.50 L164.50,131.00Z M181.50,130.00 L184.00,129.50 L185.50,131.00 L183.00,133.50 L178.50,131.00Z M112.50,132.00 L113.50,132.00 L113.50,134.00 L114.50,135.00 L113.00,137.50Z M236.50,132.00 L237.50,132.00 L237.00,137.50 L235.50,136.00Z M123.50,133.00 L124.50,133.00 L124.50,137.00 L125.50,138.00 L125.50,142.00 L126.50,143.00 L126.00,145.50 L118.50,138.00 L118.50,136.00Z M141.50,133.00 L142.50,133.00 L142.50,141.00 L141.00,142.50 L140.50,138.00 L141.50,137.00Z M161.50,133.00 L163.00,132.50 L165.50,134.00 L160.00,135.50 L159.50,135.00Z M173.50,133.00 L176.50,133.00 L177.50,136.00 L176.00,137.50 L174.00,137.50 L172.50,136.00Z M186.50,133.00 L188.00,132.50 L190.50,135.00 L188.00,135.50 L187.00,134.50 L185.00,134.50 L184.50,134.00Z M207.50,133.00 L208.50,133.00 L208.50,137.00 L209.50,138.00 L209.00,142.50 L207.50,141.00Z M225.50,133.00 L226.00,132.50 L230.00,134.50 L231.50,136.00 L231.50,138.00 L224.00,145.50 L223.50,143.00 L224.50,142.00Z M166.50,135.00 L167.00,134.50 L168.50,136.00 L168.50,138.00 L161.00,145.50 L159.00,145.50 L157.50,144.00 L155.50,139.00Z M182.50,135.00 L183.00,134.50 L189.00,137.50 L194.50,139.00 L192.50,144.00 L191.00,145.50 L189.00,145.50 L181.50,138.00 L181.50,136.00Z M114.50,138.00 L115.00,137.50 L120.50,143.00 L118.00,143.50 L117.00,142.50 L113.00,142.50 L112.50,140.00Z M170.50,138.00 L172.50,138.00 L171.00,140.50 L169.50,140.00Z M177.50,138.00 L178.00,137.50 L180.50,140.00 L179.00,140.50Z M233.50,138.00 L235.00,137.50 L237.00,138.50 L237.50,142.00 L230.00,143.50 L229.50,143.00 L233.50,139.00Z M174.50,140.00 L175.00,139.50 L179.50,142.00 L171.00,142.50 L171.00,141.50Z M109.50,141.00 L111.00,140.50 L111.50,142.00 L108.00,142.50 L107.50,142.00Z M152.50,141.00 L154.00,140.50 L155.50,142.00 L157.50,147.00 L154.00,149.50 L145.00,150.50 L144.50,148.00Z M195.50,141.00 L197.00,140.50 L201.00,144.50 L202.00,144.50 L205.50,148.00 L205.50,150.00 L199.00,150.50 L196.00,148.50 L194.00,148.50 L192.50,146.00Z M238.50,141.00 L240.00,140.50 L242.50,142.00 L239.00,142.50Z M146.50,142.00 L148.50,142.00 L145.00,145.50 L144.50,143.00Z M201.50,142.00 L203.00,141.50 L205.00,142.50 L205.50,145.00 L205.00,145.50Z M140.50,144.00 L142.50,144.00 L142.50,147.00 L139.00,150.50 L138.50,148.00Z M207.50,144.00 L209.00,143.50 L210.50,145.00 L210.50,147.00 L211.50,148.00 L211.00,150.50 L207.50,147.00Z M43.50,145.00 L54.00,144.50 L55.00,145.50 L58.00,145.50 L63.50,149.00 L61.50,151.00 L59.50,156.00 L57.50,158.00 L55.50,163.00 L53.50,165.00 L48.50,174.00 L48.50,176.00 L50.50,180.00 L52.50,182.00 L61.50,199.00 L63.50,201.00 L58.00,204.50 L55.00,204.50 L54.00,205.50 L44.00,205.50 L43.00,204.50 L40.00,204.50 L37.00,202.50 L35.00,202.50 L32.00,200.50 L28.00,196.50 L27.00,196.50 L23.50,192.00 L19.50,184.00 L19.50,181.00 L18.50,180.00 L18.50,170.00 L19.50,169.00 L19.50,166.00 L25.50,155.00 L35.00,147.50Z M106.50,145.00 L111.50,145.00 L111.50,152.00 L110.00,153.50 L90.00,159.50 L87.00,161.50 L85.50,161.00 L88.50,155.00 L95.00,149.50 L103.00,145.50Z M112.50,145.00 L117.00,144.50 L118.00,145.50 L121.00,145.50 L124.50,148.00 L116.00,150.50 L113.00,152.50Z M169.50,145.00 L180.00,144.50 L181.00,145.50 L184.00,145.50 L189.50,149.00 L187.50,151.00 L185.50,156.00 L183.50,158.00 L181.50,163.00 L179.50,165.00 L175.00,173.50 L170.50,165.00 L168.50,163.00 L166.50,158.00 L164.50,156.00 L162.50,151.00 L160.50,149.00 L161.00,147.50Z M232.50,145.00 L237.50,145.00 L237.00,152.50 L234.00,150.50 L225.50,148.00 L229.00,145.50Z M238.50,145.00 L243.00,144.50 L244.00,145.50 L247.00,145.50 L255.00,149.50 L260.50,154.00 L265.50,161.00 L263.00,161.50 L260.00,159.50 L240.00,153.50 L238.50,152.00Z M295.50,145.00 L306.00,144.50 L307.00,145.50 L310.00,145.50 L318.00,149.50 L323.50,154.00 L328.50,161.00 L328.50,163.00 L330.50,166.00 L330.50,169.00 L331.50,170.00 L331.50,180.00 L330.50,181.00 L330.50,184.00 L328.50,187.00 L328.50,189.00 L326.50,192.00 L323.50,196.00 L318.00,200.50 L310.00,204.50 L307.00,204.50 L306.00,205.50 L296.00,205.50 L286.50,202.00 L301.50,176.00 L301.50,174.00 L299.50,170.00 L297.50,168.00 L288.50,151.00 L286.50,149.00 L287.00,147.50Z M135.50,146.00 L137.50,146.00 L137.00,150.50 L130.50,148.00Z M212.50,146.00 L214.00,145.50 L219.50,148.00 L213.00,150.50Z M64.50,150.00 L66.00,149.50 L70.00,153.50 L71.00,153.50 L74.50,159.00 L68.00,163.50 L58.00,168.50 L56.00,170.50 L53.00,171.50 L52.50,170.00 L53.50,168.00 L55.50,166.00Z M123.50,150.00 L125.50,150.00 L113.00,171.50 L112.50,154.00Z M157.50,150.00 L159.00,149.50 L160.50,151.00 L165.50,161.00 L170.50,168.00 L173.50,174.00 L173.00,174.50 L144.50,174.00 L145.50,166.00 L149.50,158.00 L151.50,155.00Z M190.50,150.00 L192.00,149.50 L196.00,153.50 L197.00,153.50 L202.50,161.00 L202.50,163.00 L204.50,166.00 L204.50,169.00 L205.50,170.00 L205.00,174.50 L176.50,174.00Z M224.50,150.00 L226.00,149.50 L237.50,154.00 L237.00,171.50Z M283.50,150.00 L285.00,149.50 L286.50,151.00 L291.50,161.00 L296.50,168.00 L297.50,170.00 L297.00,171.50 L287.00,166.50 L275.50,159.00 L277.50,155.00Z M126.50,151.00 L127.00,150.50 L128.50,153.00 L128.50,157.00 L129.50,159.00 L117.00,169.50 L116.50,168.00 L121.50,161.00Z M129.50,151.00 L130.00,150.50 L134.50,154.00 L131.00,157.50 L129.50,155.00Z M219.50,151.00 L220.50,151.00 L220.50,155.00 L219.00,157.50 L215.50,154.00Z M222.50,151.00 L223.50,151.00 L228.50,161.00 L233.50,168.00 L233.00,169.50 L220.50,159.00Z M138.50,153.00 L142.50,153.00 L142.50,156.00 L141.00,157.50 L137.50,155.00Z M144.50,153.00 L148.50,153.00 L145.00,155.50Z M201.50,153.00 L205.00,152.50 L205.50,155.00 L205.00,155.50Z M207.50,153.00 L211.00,152.50 L212.50,155.00 L209.00,157.50 L207.50,156.00Z M109.50,155.00 L111.50,155.00 L111.00,174.50 L81.50,174.00 L81.50,170.00 L84.00,163.50Z M238.50,155.00 L240.00,154.50 L241.00,155.50 L243.00,155.50 L244.00,156.50 L246.00,156.50 L247.00,157.50 L249.00,157.50 L250.00,158.50 L266.00,163.50 L268.50,170.00 L268.50,174.00 L239.00,174.50Z M83.50,156.00 L85.50,156.00 L82.50,162.00 L80.00,163.50 L77.50,160.00Z M146.50,156.00 L148.50,156.00 L145.00,162.50 L144.50,157.00Z M201.50,156.00 L203.00,155.50 L205.50,157.00 L205.00,162.50Z M264.50,156.00 L266.00,155.50 L272.50,160.00 L270.00,163.50 L267.50,162.00Z M134.50,157.00 L135.50,157.00 L135.50,160.00 L132.00,162.50 L130.50,160.00Z M214.50,157.00 L217.00,157.50 L219.50,160.00 L218.00,162.50 L214.50,160.00Z M136.50,158.00 L137.50,158.00 L137.00,159.50Z M212.50,158.00 L213.50,158.00 L213.00,159.50Z M141.50,159.00 L142.50,159.00 L142.00,162.50 L140.50,160.00Z M207.50,159.00 L208.00,158.50 L209.50,160.00 L208.00,162.50Z M74.50,161.00 L76.50,161.00 L77.00,164.50 L67.00,167.50 L61.00,170.50 L59.50,170.00Z M137.50,161.00 L139.50,161.00 L139.50,163.00 L141.50,166.00 L141.50,169.00 L142.50,170.00 L142.00,174.50 L133.50,174.00 L134.50,173.00 L135.50,164.00Z M211.50,161.00 L212.00,160.50 L214.50,164.00 L216.00,174.50 L207.50,174.00 L208.50,166.00Z M274.50,161.00 L275.00,160.50 L277.00,162.50 L282.00,164.50 L290.50,170.00 L289.00,170.50 L283.00,167.50 L273.00,164.50 L272.50,164.00Z M128.50,162.00 L129.50,162.00 L129.00,164.50 L124.00,167.50 L122.50,167.00Z M220.50,162.00 L221.00,161.50 L224.00,163.50 L227.50,167.00 L226.00,167.50 L221.00,164.50Z M132.50,164.00 L134.50,164.00 L133.00,171.50 L132.50,167.00 L131.50,166.00Z M215.50,164.00 L217.00,163.50 L218.50,165.00 L217.00,171.50Z M77.50,166.00 L78.50,166.00 L78.50,169.00 L79.50,170.00 L79.00,174.50 L54.50,174.00Z M129.50,166.00 L130.50,166.00 L130.50,168.00 L131.50,169.00 L132.00,174.50 L115.50,174.00Z M219.50,166.00 L220.00,165.50 L226.00,168.50 L234.50,174.00 L218.00,174.50Z M271.50,166.00 L272.00,165.50 L273.00,166.50 L275.00,166.50 L295.50,174.00 L271.00,174.50 L270.50,170.00 L271.50,169.00Z M54.50,176.00 L79.00,175.50 L79.50,180.00 L78.50,181.00 L78.00,184.50 L77.00,183.50 L75.00,183.50Z M81.50,176.00 L111.00,175.50 L111.50,195.00 L110.00,195.50 L109.00,194.50 L107.00,194.50 L106.00,193.50 L104.00,193.50 L103.00,192.50 L101.00,192.50 L100.00,191.50 L84.00,186.50 L81.50,180.00Z M115.50,176.00 L132.50,176.00 L131.50,177.00 L131.50,181.00 L130.00,184.50Z M133.50,176.00 L142.50,176.00 L141.50,184.00 L139.00,189.50 L138.00,189.50 L135.50,186.00 L135.50,182.00 L134.50,181.00 L134.50,177.00Z M144.50,176.00 L173.50,176.00 L159.00,200.50 L153.00,196.50 L149.50,192.00 L145.50,184.00Z M176.50,176.00 L205.00,175.50 L205.50,180.00 L204.50,181.00 L204.50,184.00 L202.50,187.00 L202.50,189.00 L200.50,192.00 L197.00,196.50 L191.00,200.50Z M207.50,176.00 L216.50,176.00 L215.50,177.00 L214.50,186.00 L212.00,189.50 L208.50,184.00Z M217.50,176.00 L234.50,176.00 L220.00,184.50 L218.50,181.00 L218.50,177.00Z M238.50,176.00 L268.00,175.50 L268.50,180.00 L266.00,186.50 L239.00,195.50Z M270.50,176.00 L295.50,176.00 L290.00,178.50 L273.00,183.50 L272.00,184.50 L271.50,181.00 L270.50,180.00Z M174.50,177.00 L175.50,177.00 L183.50,192.00 L185.50,194.00 L187.50,199.00 L189.50,201.00 L184.00,204.50 L181.00,204.50 L180.00,205.50 L170.00,205.50 L160.50,202.00Z M52.50,179.00 L54.00,178.50 L58.00,181.50 L63.00,183.50 L65.00,185.50 L73.00,189.50 L74.50,192.00 L71.00,196.50 L65.00,200.50 L60.50,194.00 L55.50,184.00 L53.50,182.00Z M112.50,179.00 L113.50,179.00 L116.50,185.00 L118.50,187.00 L120.50,192.00 L122.50,194.00 L125.50,200.00 L125.00,200.50 L112.50,196.00Z M132.50,179.00 L133.50,179.00 L133.50,183.00 L134.50,184.00 L134.00,186.50 L131.50,185.00 L132.50,183.00Z M216.50,179.00 L217.50,179.00 L217.50,183.00 L218.50,184.00 L217.00,186.50 L215.50,186.00Z M236.50,179.00 L237.50,179.00 L237.50,196.00 L225.00,200.50 L224.50,200.00 L227.50,194.00 L229.50,192.00 L231.50,187.00 L233.50,185.00Z M295.50,179.00 L297.50,179.00 L296.50,182.00 L291.50,189.00 L286.50,199.00 L284.00,200.50 L277.50,195.00 L275.50,191.00Z M59.50,180.00 L61.00,179.50 L67.00,182.50 L77.00,185.50 L76.50,189.00 L75.00,189.50 L73.00,187.50 L68.00,185.50Z M288.50,180.00 L290.50,180.00 L289.00,181.50 L284.00,183.50 L275.00,189.50 L272.50,186.00Z M116.50,181.00 L117.00,180.50 L120.00,182.50 L129.50,191.00 L128.50,193.00 L128.50,197.00 L127.00,199.50Z M232.50,181.00 L233.00,180.50 L233.50,182.00 L231.50,184.00 L223.00,199.50 L221.50,197.00 L221.50,193.00 L220.50,191.00Z M122.50,183.00 L124.00,182.50 L129.00,185.50 L129.50,188.00 L129.00,188.50 L126.00,186.50Z M225.50,183.00 L227.50,183.00 L221.00,188.50 L220.50,186.00Z M79.50,187.00 L81.00,186.50 L82.50,188.00 L85.50,194.00 L85.00,194.50 L82.00,193.50 L77.50,190.00Z M268.50,187.00 L270.00,186.50 L272.50,190.00 L268.00,193.50 L265.00,194.50 L264.50,194.00Z M131.50,188.00 L132.00,187.50 L135.50,190.00 L135.00,193.50 L130.50,190.00Z M141.50,188.00 L142.50,188.00 L142.00,191.50 L140.50,190.00Z M144.50,188.00 L145.50,188.00 L148.50,194.00 L148.00,194.50 L144.50,193.00Z M204.50,188.00 L205.50,188.00 L205.50,193.00 L202.00,194.50 L201.50,194.00Z M207.50,188.00 L208.00,187.50 L209.50,190.00 L208.00,191.50Z M217.50,188.00 L218.00,187.50 L219.50,190.00 L216.00,193.50 L215.00,193.50 L214.50,190.00Z M85.50,189.00 L87.00,188.50 L90.00,190.50 L110.00,196.50 L111.50,198.00 L111.50,205.00 L107.00,205.50 L106.00,204.50 L103.00,204.50 L100.00,202.50 L98.00,202.50 L88.50,195.00Z M262.50,189.00 L265.50,189.00 L260.50,196.00 L255.00,200.50 L247.00,204.50 L244.00,204.50 L243.00,205.50 L238.50,205.00 L238.50,198.00 L240.00,196.50 L242.00,196.50Z M136.50,191.00 L137.50,191.00 L137.00,192.50Z M212.50,191.00 L213.50,191.00 L213.00,192.50Z M76.50,193.00 L78.00,192.50 L82.00,194.50 L94.00,202.50 L101.00,205.50 L103.00,207.50 L111.50,212.00 L111.00,251.50 L103.00,252.50 L97.00,255.50 L94.50,253.00 L92.50,248.00 L90.50,246.00 L88.50,241.00 L86.50,239.00 L84.50,234.00 L82.50,232.00 L81.50,229.00 L79.50,227.00 L77.50,222.00 L75.50,220.00 L73.50,215.00 L71.50,213.00 L66.50,204.00 L66.50,203.00 L70.00,200.50 L70.50,199.00 L72.00,198.50Z M130.50,193.00 L131.00,192.50 L134.50,196.00 L130.00,199.50 L129.50,195.00Z M139.50,193.00 L141.00,192.50 L142.50,194.00 L142.00,197.50 L139.00,197.50 L137.50,196.00Z M208.50,193.00 L210.00,192.50 L212.50,195.00 L211.00,197.50 L207.50,197.00 L207.50,194.00Z M218.50,193.00 L219.00,192.50 L220.50,195.00 L220.00,199.50 L215.50,196.00Z M271.50,193.00 L273.00,192.50 L276.50,196.00 L276.50,197.00 L283.50,203.00 L281.50,208.00 L279.50,210.00 L270.50,227.00 L265.50,234.00 L255.50,253.00 L253.00,255.50 L247.00,252.50 L239.00,251.50 L238.50,212.00 L247.00,207.50 L249.00,205.50 L253.00,204.50 L258.00,200.50Z M144.50,195.00 L145.00,194.50 L148.50,197.00 L145.00,197.50Z M204.50,195.00 L205.50,195.00 L205.00,197.50 L201.50,197.00Z M112.50,198.00 L113.00,197.50 L116.00,199.50 L124.50,202.00 L121.00,204.50 L113.00,205.50Z M236.50,198.00 L237.50,198.00 L237.00,205.50 L229.00,204.50 L225.50,202.00Z M135.50,200.00 L137.50,200.00 L137.00,204.50 L130.50,202.00Z M138.50,200.00 L139.00,199.50 L142.50,203.00 L142.00,206.50 L139.50,205.00Z M144.50,200.00 L150.00,199.50 L151.00,200.50 L154.00,200.50 L156.00,201.50 L157.50,204.00 L155.50,208.00 L153.00,209.50 L144.50,202.00Z M198.50,200.00 L205.00,199.50 L205.50,202.00 L201.00,206.50 L196.00,209.50 L194.50,208.00 L192.50,203.00 L194.00,201.50 L196.00,201.50Z M210.50,200.00 L211.50,200.00 L210.50,205.00 L208.00,206.50 L207.50,203.00Z M212.50,200.00 L217.00,200.50 L219.50,202.00 L213.00,204.50Z M125.50,205.00 L126.50,205.00 L126.50,207.00 L125.50,208.00 L125.50,212.00 L124.50,213.00 L124.00,217.50 L120.00,215.50 L118.50,214.00 L118.50,212.00Z M127.50,205.00 L128.00,204.50 L129.50,206.00 L131.50,211.00 L137.50,220.00 L140.50,226.00 L140.00,226.50 L125.50,218.00 L125.50,216.00 L126.50,215.00 L126.50,210.00 L127.50,209.00Z M130.50,205.00 L133.00,204.50 L138.50,207.00 L138.50,209.00 L139.50,210.00 L139.50,215.00 L140.50,216.00 L140.50,220.00 L141.50,221.00 L141.00,223.50 L133.50,210.00 L131.50,208.00Z M144.50,205.00 L145.00,204.50 L148.50,208.00 L147.00,208.50 L145.00,207.50Z M158.50,205.00 L161.00,204.50 L168.50,212.00 L168.50,214.00 L167.00,215.50 L161.00,212.50 L155.50,211.00Z M188.50,205.00 L191.00,204.50 L192.50,206.00 L194.50,211.00 L189.00,212.50 L183.00,215.50 L181.50,214.00 L181.50,212.00Z M204.50,205.00 L205.50,205.00 L205.50,207.00 L202.00,208.50 L201.50,208.00Z M216.50,205.00 L219.00,204.50 L219.50,206.00 L209.00,223.50 L208.50,221.00 L209.50,220.00 L209.50,216.00 L210.50,215.00 L210.50,210.00 L211.50,209.00 L211.50,207.00Z M221.50,205.00 L222.50,205.00 L222.50,209.00 L223.50,210.00 L223.50,215.00 L224.50,216.00 L224.50,218.00 L210.00,226.50 L209.50,226.00 L212.50,220.00 L214.50,218.00 L216.50,213.00 L218.50,211.00Z M223.50,205.00 L224.00,204.50 L231.50,212.00 L231.50,214.00 L226.00,217.50Z M117.50,207.00 L120.50,207.00 L115.00,212.50 L112.50,211.00 L113.00,207.50Z M229.50,207.00 L232.00,206.50 L233.00,207.50 L237.00,207.50 L237.50,211.00 L234.00,212.50Z M107.50,208.00 L111.00,207.50 L111.50,209.00 L110.00,209.50Z M140.50,208.00 L141.00,207.50 L142.50,209.00 L142.00,217.50 L141.50,213.00 L140.50,212.00Z M170.50,208.00 L179.50,208.00 L175.00,210.50Z M208.50,208.00 L209.50,208.00 L209.50,212.00 L208.50,213.00 L208.00,217.50 L207.50,209.00Z M238.50,208.00 L242.50,208.00 L240.00,209.50 L239.00,209.50Z M144.50,210.00 L147.00,209.50 L152.50,212.00 L145.00,225.50Z M169.50,210.00 L171.00,209.50 L172.50,212.00 L171.00,212.50Z M178.50,210.00 L180.50,210.00 L178.00,212.50 L177.50,211.00Z M202.50,210.00 L205.50,210.00 L205.00,225.50 L199.50,215.00 L197.50,213.00 L198.00,211.50Z M112.50,213.00 L113.00,212.50 L114.50,214.00 L113.00,218.50Z M153.50,213.00 L154.00,212.50 L158.00,215.50 L160.50,219.00 L147.00,226.50 L146.50,226.00 L149.50,220.00 L151.50,218.00Z M173.50,213.00 L176.00,212.50 L177.50,214.00 L176.00,217.50 L173.50,217.00 L172.50,215.00Z M195.50,213.00 L196.50,213.00 L198.50,218.00 L200.50,220.00 L203.50,226.00 L203.00,226.50 L189.50,219.00 L189.50,218.00Z M236.50,213.00 L237.50,213.00 L237.00,218.50 L235.50,215.00Z M159.50,215.00 L162.00,214.50 L165.50,216.00 L162.00,217.50Z M187.50,215.00 L190.50,215.00 L188.00,217.50 L184.50,216.00Z M116.50,216.00 L118.00,215.50 L123.50,219.00 L123.50,223.00 L122.50,224.00 L122.50,228.00 L121.50,229.00 L121.50,233.00 L120.50,234.00 L120.50,238.00 L119.50,239.00 L119.50,243.00 L118.00,246.50 L114.50,240.00 L114.50,238.00 L113.50,237.00 L113.50,232.00 L112.50,231.00 L114.50,219.00Z M231.50,216.00 L233.00,215.50 L234.50,217.00 L236.50,222.00 L236.50,227.00 L237.50,228.00 L236.50,237.00 L233.50,244.00 L232.00,245.50 L230.50,243.00 L230.50,239.00 L229.50,238.00 L229.50,234.00 L228.50,233.00 L228.50,229.00 L227.50,228.00 L227.50,224.00 L226.50,223.00 L226.50,219.00Z M166.50,217.00 L170.00,217.50 L171.50,219.00 L166.00,220.50 L164.50,219.00Z M182.50,217.00 L183.00,216.50 L186.50,219.00 L184.00,220.50 L179.00,219.50 L178.50,219.00 L180.00,217.50Z M161.50,220.00 L162.00,219.50 L163.50,221.00 L163.00,222.50 L161.00,222.50 L157.00,224.50 L154.50,224.00Z M174.50,220.00 L175.50,220.00 L175.00,221.50Z M187.50,220.00 L188.00,219.50 L195.50,224.00 L193.00,224.50 L192.00,223.50 L187.00,222.50 L186.50,221.00Z M124.50,221.00 L127.00,220.50 L129.00,222.50 L134.00,224.50 L142.50,230.00 L139.50,234.00 L137.50,239.00 L135.50,241.00 L133.50,246.00 L131.50,248.00 L129.50,253.00 L127.00,255.50 L123.00,252.50 L119.50,248.00 L120.50,246.00 L120.50,242.00 L121.50,241.00 L121.50,236.00 L122.50,235.00 L123.50,226.00 L124.50,225.00Z M170.50,221.00 L172.00,220.50 L173.50,222.00 L173.00,226.50 L167.50,222.00Z M177.50,221.00 L179.00,220.50 L182.50,222.00 L178.00,226.50 L176.50,226.00Z M223.50,221.00 L225.50,221.00 L225.50,225.00 L226.50,226.00 L226.50,230.00 L227.50,231.00 L228.50,241.00 L229.50,242.00 L229.50,246.00 L230.50,248.00 L228.50,251.00 L223.00,255.50 L220.50,253.00 L218.50,248.00 L216.50,246.00 L214.50,241.00 L212.50,239.00 L210.50,234.00 L207.50,230.00Z M164.50,223.00 L166.00,222.50 L171.50,228.00 L171.00,228.50 L150.50,228.00Z M183.50,223.00 L185.00,222.50 L199.50,228.00 L179.00,228.50 L178.50,228.00Z M143.50,231.00 L146.00,231.50 L148.00,233.50 L160.00,239.50 L160.50,241.00 L142.00,257.50 L139.00,259.50 L136.00,259.50 L131.00,257.50 L129.50,255.00Z M147.50,231.00 L171.50,231.00 L162.00,239.50Z M177.50,231.00 L202.50,231.00 L188.00,239.50Z M205.50,231.00 L206.00,230.50 L207.50,232.00 L209.50,237.00 L211.50,239.00 L213.50,244.00 L215.50,246.00 L220.50,255.00 L220.50,256.00 L217.00,258.50 L211.00,259.50 L189.50,241.00 L192.00,238.50Z M172.50,233.00 L173.50,233.00 L173.50,237.00 L171.50,242.00 L169.00,243.50 L165.00,241.50 L164.50,240.00 L171.00,233.50Z M176.50,233.00 L177.00,232.50 L180.00,234.50 L185.50,240.00 L185.50,241.00 L180.00,243.50 L177.50,240.00Z M174.50,238.00 L175.50,238.00 L175.50,240.00 L177.50,244.00 L176.00,246.50 L174.00,246.50 L172.50,245.00Z M112.50,241.00 L113.50,241.00 L113.50,243.00 L117.50,249.00 L117.00,252.50 L116.00,251.50 L112.50,251.00Z M236.50,241.00 L237.50,241.00 L237.50,251.00 L234.00,251.50 L233.00,252.50 L232.50,249.00 L234.50,247.00 L236.50,243.00Z M161.50,242.00 L163.00,241.50 L168.50,245.00 L168.50,247.00 L164.00,252.50 L154.00,258.50 L147.00,259.50 L146.00,260.50 L141.50,260.00Z M186.50,242.00 L188.00,241.50 L208.50,260.00 L204.00,260.50 L203.00,259.50 L199.00,259.50 L190.00,255.50 L186.00,252.50 L180.50,246.00Z M171.50,247.00 L172.00,246.50 L172.50,248.00 L170.00,249.50 L169.50,249.00Z M177.50,247.00 L178.00,246.50 L180.50,249.00 L179.00,249.50Z M174.50,249.00 L175.00,248.50 L179.00,250.50 L189.00,257.50 L198.00,261.50 L209.50,269.00 L206.50,275.00 L205.00,283.50 L144.50,283.00 L143.50,275.00 L140.50,269.00 L145.00,265.50 L161.00,257.50 L166.00,253.50Z M107.50,254.00 L111.50,254.00 L111.00,280.50 L105.50,272.00 L103.50,267.00 L101.50,265.00 L99.50,260.00 L97.50,258.00 L101.00,255.50Z M112.50,254.00 L116.50,254.00 L116.50,259.00 L115.50,260.00 L115.50,264.00 L114.50,265.00 L113.00,275.50Z M233.50,254.00 L237.50,254.00 L237.00,275.50 L235.50,265.00 L234.50,264.00 L234.50,260.00 L233.50,259.00Z M238.50,254.00 L242.00,253.50 L243.00,254.50 L246.00,254.50 L251.00,256.50 L252.50,258.00 L250.50,260.00 L248.50,265.00 L246.50,267.00 L244.50,272.00 L239.00,280.50Z M118.50,255.00 L120.00,254.50 L121.00,255.50 L123.00,255.50 L126.50,258.00 L124.50,260.00 L122.50,265.00 L120.50,267.00 L115.00,277.50 L114.50,273.00 L115.50,272.00 L115.50,267.00 L116.50,266.00 L116.50,262.00 L117.50,261.00 L117.50,257.00Z M229.50,255.00 L231.00,254.50 L232.50,257.00 L232.50,261.00 L233.50,262.00 L233.50,266.00 L234.50,267.00 L234.50,272.00 L235.50,273.00 L235.00,277.50 L229.50,267.00 L227.50,265.00 L225.50,260.00 L223.50,258.00 L225.00,256.50Z M94.50,259.00 L96.00,258.50 L97.50,260.00 L102.50,270.00 L107.50,277.00 L109.50,282.00 L112.00,284.50 L142.50,285.00 L142.50,289.00 L141.50,290.00 L141.50,293.00 L139.50,298.00 L134.50,305.00 L126.00,311.50 L118.00,314.50 L107.00,314.50 L106.00,313.50 L103.00,313.50 L96.00,310.50 L91.00,305.50 L90.00,305.50 L84.50,298.00 L84.50,296.00 L82.50,293.00 L82.50,290.00 L81.50,289.00 L81.50,279.00 L82.50,278.00 L82.50,275.00 L86.50,267.00 L89.50,263.00Z M127.50,259.00 L130.00,259.50 L134.50,263.00 L127.00,270.50 L126.00,270.50 L117.00,278.50 L116.50,277.00 L118.50,275.00Z M220.50,259.00 L222.00,258.50 L223.50,260.00 L228.50,270.00 L233.50,277.00 L233.00,278.50 L215.50,264.00 L215.50,263.00Z M253.50,259.00 L256.00,259.50 L260.50,263.00 L267.50,275.00 L267.50,278.00 L268.50,279.00 L268.50,289.00 L267.50,290.00 L267.50,293.00 L265.50,298.00 L260.50,305.00 L255.00,309.50 L250.00,312.50 L248.00,312.50 L244.00,314.50 L233.00,314.50 L222.00,310.50 L214.50,304.00 L210.50,298.00 L210.50,296.00 L208.50,293.00 L208.50,290.00 L207.50,289.00 L207.50,285.00 L238.00,284.50 L240.50,282.00 L242.50,277.00 L244.50,275.00Z M138.50,262.00 L148.50,262.00 L141.00,266.50 L137.50,264.00Z M201.50,262.00 L211.00,261.50 L212.50,264.00 L210.00,267.50Z M134.50,266.00 L136.00,265.50 L137.50,267.00 L136.00,269.50 L124.00,276.50 L122.50,276.00Z M213.50,266.00 L215.00,265.50 L217.00,266.50 L227.50,276.00 L226.00,276.50 L214.00,269.50 L212.50,268.00Z M136.50,271.00 L139.00,270.50 L141.50,275.00 L141.50,278.00 L142.50,279.00 L142.00,283.50 L115.50,283.00Z M210.50,271.00 L213.00,270.50 L234.50,283.00 L208.00,283.50 L207.50,279.00Z" fill="#000000" fill-rule="evenodd" stroke="none"/>
</svg>
