<svg xmlns="http://www.w3.org/2000/svg" viewBox="0 0 350 350">
  <path d="M184.50,88.00 L188.00,87.50 L190.00,88.50 L192.50,91.00 L192.50,94.00 L191.50,94.00 L191.50,91.00 L190.00,89.50Z M147.50,96.00 L150.50,96.00 L147.00,97.50 L146.50,97.00Z M190.50,96.00 L191.50,96.00 L190.00,97.50 L189.50,97.00Z M143.50,97.00 L145.50,97.00 L144.00,98.50Z M140.50,98.00 L142.50,98.00 L140.00,99.50 L139.50,99.00Z M188.50,99.00 L189.50,99.00 L185.00,103.50 L184.50,103.00Z M133.50,100.00 L134.50,100.00 L133.00,101.50 L132.50,101.00Z M182.50,106.00 L183.50,106.00 L179.50,112.00 L177.50,113.00 L178.50,114.00 L178.00,114.50 L177.00,113.50 L176.00,114.50 L175.50,114.00Z M59.50,110.00 L61.00,109.50 L61.00,110.50 L55.00,113.50 L54.50,113.00Z M48.50,116.00 L49.50,116.00 L48.00,117.50 L47.50,117.00Z M174.50,116.00 L177.00,115.50 L177.50,117.00 L175.00,116.50 L174.00,117.50 L173.50,117.00Z M45.50,118.00 L46.50,118.00 L45.00,119.50 L44.50,119.00Z M172.50,119.00 L176.50,119.00 L174.00,120.50 L173.00,119.50 L172.00,121.50 L171.50,120.00Z M42.50,120.00 L43.50,120.00 L42.00,121.50 L41.50,121.00Z M39.50,122.00 L40.50,122.00 L36.00,126.50 L35.50,126.00Z M173.50,123.00 L174.50,123.00 L174.00,124.50Z M51.50,124.00 L52.50,124.00 L51.50,125.00 L52.50,126.00 L52.00,126.50 L50.50,125.00Z M53.50,124.00 L55.50,124.00 L54.00,125.50Z M173.50,128.00 L174.50,128.00 L174.00,130.50 L172.50,130.00Z M167.50,130.00 L168.50,130.00 L168.00,131.50Z M28.50,133.00 L29.50,133.00 L28.50,134.00 L29.50,135.00 L29.00,135.50 L28.00,134.50 L25.50,138.00 L26.00,139.50 L27.00,138.50 L27.50,139.00 L26.00,140.50 L25.00,139.50 L24.50,141.00 L21.50,143.00 L22.50,144.00 L19.50,146.00 L18.50,148.00 L19.50,149.00 L17.50,151.00 L16.50,155.00 L13.50,159.00 L12.00,164.50 L11.50,162.00 L12.50,161.00 L12.50,159.00 L14.50,156.00 L15.50,151.00 L17.50,149.00 L18.50,145.00 L20.50,144.00 L19.50,143.00 L22.50,141.00 L21.50,140.00 L23.00,139.50Z M31.50,136.00 L32.50,136.00 L31.00,137.50 L30.50,137.00Z M166.50,136.00 L167.50,136.00 L167.00,140.50Z M173.50,137.00 L174.50,137.00 L174.00,138.50Z M167.50,144.00 L168.50,144.00 L168.00,146.50Z M168.50,148.00 L169.50,148.00 L169.00,149.50Z M169.50,151.00 L170.50,151.00 L170.00,152.50Z M173.50,160.00 L174.00,159.50 L175.50,161.00 L175.00,161.50Z M176.50,165.00 L177.00,164.50 L178.50,166.00 L178.00,166.50Z M10.50,166.00 L11.50,166.00 L11.00,168.50Z M9.50,170.00 L10.50,170.00 L10.00,174.50Z M174.50,170.00 L180.00,169.50 L181.50,171.00 L182.50,173.00 L181.50,174.00 L181.00,179.50 L180.50,172.00 L179.00,170.50 L177.00,170.50 L176.00,171.50 L175.00,170.50 L175.00,174.50 L173.50,173.00 L173.50,171.00Z M37.50,172.00 L41.00,172.50 L43.00,174.50 L44.00,173.50 L45.50,174.00 L43.00,175.50Z M182.50,175.00 L183.00,174.50 L184.50,176.00 L184.00,176.50Z M176.50,176.00 L177.00,175.50 L179.50,178.00 L179.00,178.50Z M8.50,177.00 L9.50,177.00 L9.00,195.50Z M185.50,180.00 L186.00,179.50 L187.50,182.00 L187.00,183.50 L186.50,182.00 L184.50,181.00Z M179.50,181.00 L180.50,181.00 L180.00,183.50Z M178.50,185.00 L179.50,185.00 L179.00,186.50Z M187.50,188.00 L188.50,188.00 L188.00,190.50Z M176.50,190.00 L177.50,190.00 L177.00,191.50Z M184.50,190.00 L185.00,189.50 L190.50,194.00 L189.00,194.50Z M175.50,193.00 L176.50,193.00 L176.00,194.50Z M174.50,196.00 L175.50,196.00 L175.00,197.50Z M9.50,197.00 L10.50,197.00 L11.00,199.50 L9.50,199.00Z M194.50,197.00 L195.50,197.00 L195.00,198.50Z M10.50,202.00 L11.50,202.00 L11.00,203.50Z M102.50,203.00 L105.00,202.50 L105.50,203.00 L103.50,204.00 L105.50,205.00 L103.00,205.50 L102.00,204.50 L101.00,205.50 L100.50,204.00Z M171.50,204.00 L172.50,204.00 L172.00,205.50Z M11.50,206.00 L12.50,206.00 L12.00,207.50Z M106.50,206.00 L110.00,205.50 L111.00,206.50 L116.50,207.00 L115.00,208.50 L114.00,207.50Z M125.50,208.00 L126.00,207.50 L128.50,209.00 L125.00,209.50 L124.50,209.00Z M12.50,209.00 L13.50,209.00 L13.00,210.50Z M136.50,209.00 L137.50,209.00 L136.50,211.00 L135.00,211.50 L134.50,211.00Z M129.50,210.00 L132.50,210.00 L131.50,211.00 L132.50,212.00 L131.00,213.50 L130.50,213.00 L131.50,212.00Z M138.50,212.00 L140.00,211.50 L141.50,213.00 L141.00,213.50Z M15.50,213.00 L16.50,213.00 L15.50,215.00 L17.00,217.50 L18.00,215.50 L19.50,216.00 L18.50,217.00 L19.50,218.00 L18.50,220.00 L21.50,222.00 L20.50,223.00 L21.00,223.50 L23.00,223.50 L23.50,221.00 L24.50,221.00 L24.50,226.00 L29.50,232.00 L28.50,233.00 L30.00,233.50 L31.00,232.50 L36.00,237.50 L37.00,237.50 L39.00,240.50 L42.50,241.00 L40.00,244.50 L38.50,243.00 L39.50,242.00 L38.00,240.50 L36.50,241.00 L37.50,242.00 L37.00,242.50 L35.50,241.00 L36.00,238.50 L34.00,238.50 L33.00,237.50 L32.00,238.50 L23.50,229.00 L17.50,220.00 L18.50,218.00 L18.00,217.50 L17.00,218.50 L15.50,217.00 L14.50,215.00Z M142.50,213.00 L144.00,212.50 L145.00,213.50 L147.00,213.50 L147.50,215.00 L146.00,216.50 L145.50,216.00 L146.50,215.00Z M166.50,213.00 L167.00,212.50 L168.50,215.00 L164.50,222.00 L171.50,229.00 L171.00,229.50 L165.00,223.50 L164.00,223.50 L163.00,225.50 L161.50,225.00 L162.50,223.00 L161.50,221.00 L164.00,221.50 L167.50,215.00Z M132.50,214.00 L133.00,213.50 L134.50,215.00 L134.00,218.50 L133.50,215.00Z M149.50,217.00 L150.00,216.50 L151.50,218.00 L151.00,218.50Z M153.50,217.00 L155.00,216.50 L157.50,218.00 L155.50,219.00 L156.50,220.00 L156.00,220.50 L155.00,219.50 L153.50,220.00 L158.50,225.00 L158.00,225.50 L157.00,225.50 L155.50,223.00 L151.50,220.00 L155.50,218.00Z M158.50,219.00 L159.00,218.50 L160.50,220.00 L160.00,220.50Z M132.50,220.00 L133.50,220.00 L131.00,222.50 L130.50,222.00Z M157.50,227.00 L159.00,226.50 L161.00,227.50 L162.00,226.50 L163.50,228.00 L163.00,228.50 L162.00,227.50 L160.00,230.50 L159.00,229.50 L157.00,231.50 L156.50,231.00 L159.50,228.00Z M165.50,227.00 L166.00,226.50 L171.00,231.50 L172.00,230.50 L173.50,232.00 L173.00,232.50 L172.00,231.50 L170.00,233.50 L168.50,232.00 L169.50,231.00Z M310.50,228.00 L311.00,227.50 L312.50,229.00 L312.00,229.50Z M315.50,231.00 L316.00,230.50 L318.50,233.00 L318.00,233.50Z M161.50,233.00 L163.00,232.50 L163.50,234.00 L163.00,234.50Z M156.50,234.00 L157.50,234.00 L155.00,236.50 L154.50,236.00Z M173.50,234.00 L174.00,233.50 L174.50,234.00 L173.50,235.00 L175.50,236.00 L174.50,237.00 L176.50,239.00 L176.50,241.00 L177.50,242.00 L177.00,243.50 L174.50,238.00 L171.50,235.00Z M31.50,235.00 L32.50,235.00 L32.00,237.50 L30.50,236.00Z M320.50,235.00 L321.00,234.50 L327.50,241.00 L327.00,241.50Z M65.50,241.00 L66.00,240.50 L68.50,242.00 L67.00,242.50Z M149.50,241.00 L150.50,241.00 L148.00,243.50 L147.50,243.00Z M43.50,243.00 L44.50,243.00 L44.00,244.50Z M63.50,243.00 L64.00,242.50 L65.50,244.00 L65.00,246.50 L62.50,246.00 L62.50,244.00Z M327.50,243.00 L328.00,242.50 L329.50,244.00 L329.00,244.50Z M45.50,244.00 L46.00,243.50 L49.00,245.50 L51.00,245.50 L51.50,247.00 L48.00,246.50 L46.00,245.50Z M63.50,244.00 L64.50,244.00 L64.00,245.50Z M145.50,244.00 L146.50,244.00 L145.00,245.50 L144.50,245.00Z M41.50,245.00 L42.00,244.50 L43.50,246.00 L43.00,246.50Z M177.50,245.00 L178.50,245.00 L178.00,247.50Z M87.50,246.00 L88.50,246.00 L87.00,247.50 L86.50,247.00Z M329.50,246.00 L330.50,246.00 L330.00,247.50Z M64.50,248.00 L66.00,247.50 L66.50,249.00 L70.00,251.50 L71.00,250.50 L71.50,252.00 L75.50,255.00 L75.50,256.00 L74.00,256.50 L73.00,254.50 L72.00,255.50 L69.00,255.50 L68.00,253.50 L64.00,254.50 L64.00,253.50 L66.00,253.50 L68.50,252.00 L66.00,250.50Z M178.50,249.00 L179.50,249.00 L181.50,259.00 L182.50,260.00 L182.50,262.00 L181.50,263.00 L183.50,265.00 L183.50,268.00 L186.50,272.00 L185.50,273.00 L188.50,275.00 L186.50,276.00 L188.50,279.00 L187.00,281.50 L186.50,281.00 L187.50,280.00 L186.00,279.50 L184.50,277.00 L185.50,274.00 L183.50,274.00 L184.50,271.00 L182.50,271.00 L183.50,269.00 L181.50,267.00 L180.50,259.00 L179.50,258.00 L179.50,254.00 L178.50,253.00Z M330.50,249.00 L331.50,249.00 L330.00,250.50 L329.50,250.00Z M82.50,251.00 L83.50,251.00 L83.50,253.00 L85.00,255.50 L87.00,254.50 L89.50,255.00 L86.50,256.00 L88.50,257.00 L87.00,258.50 L83.50,259.00 L86.00,257.50 L86.00,256.50 L84.00,256.50 L83.00,257.50 L81.00,256.50 L79.00,257.50 L76.50,257.00 L77.00,254.50 L78.00,255.50 L83.00,255.50Z M68.50,253.00 L70.00,252.50 L70.50,254.00 L70.00,254.50Z M331.50,253.00 L332.50,253.00 L332.00,256.50Z M93.50,256.00 L99.00,255.50 L101.50,257.00 L100.00,258.50 L97.00,258.50 L96.50,258.00 L99.00,257.50 L99.00,256.50Z M90.50,260.00 L92.00,259.50 L92.50,261.00 L92.00,261.50Z M94.50,260.00 L95.50,260.00 L95.00,261.50 L93.50,261.00Z M97.50,260.00 L98.00,259.50 L100.50,261.00 L98.00,262.50 L97.50,262.00 L98.50,261.00Z M330.50,260.00 L331.50,260.00 L331.00,261.50Z M321.50,261.00 L323.00,260.50 L324.50,262.00 L323.00,262.50 L322.00,264.50Z M102.50,262.00 L104.50,262.00 L102.00,263.50 L101.50,263.00Z M111.50,264.00 L114.00,263.50 L114.00,264.50 L112.00,264.50 L111.00,265.50 L108.50,265.00Z M323.50,264.00 L324.00,263.50 L325.50,265.00 L325.00,266.50Z M117.50,267.00 L120.00,266.50 L120.50,268.00 L120.00,268.50Z M125.50,267.00 L128.00,266.50 L128.00,267.50 L126.00,267.50 L125.00,268.50 L122.50,268.00Z M130.50,268.00 L133.50,268.00 L131.00,269.50 L128.50,269.00Z M324.50,268.00 L325.50,268.00 L324.00,271.50 L323.50,269.00Z M134.50,269.00 L137.00,268.50 L139.50,270.00 L135.00,270.50Z M326.50,269.00 L327.50,269.00 L326.00,270.50 L325.50,270.00Z M321.50,270.00 L322.50,270.00 L323.50,274.00 L316.00,281.50 L315.50,281.00 L318.50,277.00 L321.00,275.50 L322.50,273.00 L321.50,272.00Z M190.50,280.00 L191.50,280.00 L191.00,281.50Z M193.50,281.00 L194.50,281.00 L194.00,282.50Z M188.50,282.00 L189.00,281.50 L190.50,283.00 L189.00,284.50 L187.50,283.00Z M313.50,282.00 L314.50,282.00 L311.00,285.50 L306.00,288.50 L305.50,288.00Z M197.50,284.00 L198.00,283.50 L200.50,285.00 L199.00,285.50Z M189.50,286.00 L192.50,286.00 L191.00,287.50Z M203.50,286.00 L205.00,285.50 L206.50,287.00 L205.00,287.50Z M211.50,286.00 L212.00,285.50 L215.50,288.00 L210.00,288.50 L208.50,287.00 L210.00,286.50 L212.00,287.50 L212.50,287.00Z M191.50,289.00 L192.00,288.50 L197.50,294.00 L197.00,294.50Z M303.50,289.00 L304.50,289.00 L303.00,290.50 L300.50,291.00Z M242.50,294.00 L243.00,293.50 L245.50,295.00 L244.00,295.50Z M198.50,295.00 L199.00,294.50 L201.50,297.00 L201.00,297.50Z M246.50,295.00 L248.00,294.50 L249.50,296.00 L248.00,296.50Z M250.50,296.00 L252.00,295.50 L253.50,297.00 L252.00,297.50Z M254.50,297.00 L256.00,296.50 L257.50,298.00 L255.00,298.50Z M287.50,297.00 L289.00,296.50 L289.00,297.50 L287.00,298.50 L285.50,298.00Z M202.50,298.00 L203.00,297.50 L204.00,298.50 L205.00,297.50 L206.00,299.50 L211.50,302.00 L210.00,302.50Z M258.50,298.00 L259.00,297.50 L262.50,299.00 L259.00,299.50Z M278.50,300.00 L281.50,300.00 L278.00,301.50 L276.50,301.00Z M268.50,302.00 L269.00,301.50 L271.50,303.00 L270.00,303.50Z" fill="#000000" fill-rule="evenodd" stroke="none"/>
</svg>
