<svg xmlns="http://www.w3.org/2000/svg" viewBox="0 0 350 350">
  <path d="M326.50,10.00 L328.00,9.50 L332.50,12.00 L333.50,14.00 L333.50,18.00 L332.50,19.00 L331.50,25.00 L328.50,30.00 L328.50,32.00 L325.50,36.00 L322.50,43.00 L312.50,58.00 L311.50,61.00 L299.50,79.00 L296.50,82.00 L290.50,92.00 L287.50,95.00 L285.50,99.00 L279.50,106.00 L269.50,121.00 L231.50,171.00 L233.00,171.50 L234.00,170.50 L249.00,167.50 L250.00,166.50 L256.00,165.50 L260.00,163.50 L263.00,163.50 L267.00,161.50 L271.00,161.50 L276.00,159.50 L283.00,159.50 L284.00,158.50 L292.00,159.50 L294.50,163.00 L293.50,166.00 L285.00,174.50 L279.00,178.50 L261.00,187.50 L259.00,187.50 L251.00,191.50 L249.00,191.50 L239.00,195.50 L236.00,195.50 L232.00,197.50 L228.00,197.50 L227.00,198.50 L223.00,198.50 L222.00,199.50 L209.00,200.50 L201.50,209.00 L198.50,214.00 L186.50,228.00 L171.50,248.00 L167.50,252.00 L167.50,253.00 L163.50,257.00 L163.50,258.00 L159.50,262.00 L159.50,263.00 L136.50,290.00 L132.50,296.00 L107.50,324.00 L107.50,325.00 L93.00,339.50 L88.00,342.50 L85.50,341.00 L85.50,336.00 L86.50,335.00 L88.50,327.00 L93.50,317.00 L93.50,315.00 L97.50,308.00 L97.50,306.00 L102.50,297.00 L102.50,295.00 L108.50,284.00 L108.50,282.00 L114.50,271.00 L114.50,269.00 L120.50,258.00 L120.50,256.00 L125.50,247.00 L125.50,245.00 L130.50,236.00 L130.50,234.00 L137.50,220.00 L138.00,216.50 L134.00,217.50 L97.00,236.50 L95.00,236.50 L54.00,257.50 L52.00,257.50 L30.00,268.50 L28.00,268.50 L25.00,270.50 L23.00,270.50 L16.00,273.50 L12.00,273.50 L11.00,274.50 L7.50,273.00 L7.50,270.00 L11.50,263.00 L33.00,240.50 L34.00,240.50 L48.00,226.50 L49.00,226.50 L59.00,216.50 L60.00,216.50 L92.00,187.50 L93.00,187.50 L120.00,163.50 L121.00,163.50 L140.50,147.00 L140.50,126.00 L141.50,125.00 L141.50,120.00 L142.50,119.00 L143.50,111.00 L144.50,110.00 L147.50,99.00 L155.50,83.00 L162.50,73.00 L167.00,68.50 L174.00,64.50 L177.00,64.50 L180.50,67.00 L182.50,71.00 L183.50,84.00 L182.50,85.00 L182.50,93.00 L181.50,94.00 L181.50,99.00 L180.50,100.00 L180.50,105.00 L179.50,106.00 L179.50,111.00 L178.50,112.00 L178.50,114.00 L180.00,114.50 L190.00,105.50 L196.00,101.50 L202.00,94.50 L203.00,94.50 L222.00,78.50 L227.00,75.50 L231.00,71.50 L236.00,68.50 L240.00,64.50 L268.00,43.50 L272.00,41.50 L275.00,38.50 L309.00,16.50 L317.00,12.50Z M323.50,12.00 L330.00,11.50 L331.50,13.00 L331.50,20.00 L329.00,26.50 L328.50,22.00 L329.50,20.00 L328.50,19.00 L328.50,17.00 L325.00,14.50 L317.00,15.50 L312.00,18.50 L309.50,18.00 L318.00,13.50Z M318.50,17.00 L326.00,16.50 L327.50,18.00 L327.50,24.00 L324.00,32.50 L323.50,30.00 L324.50,29.00 L324.50,22.00 L322.00,19.50 L315.00,19.50 L309.00,22.50 L307.50,22.00 L311.00,19.50 L313.00,19.50Z M316.50,21.00 L321.00,20.50 L323.50,23.00 L323.50,28.00 L321.00,34.50 L320.50,26.00 L319.00,24.50 L317.00,23.50 L313.00,23.50 L309.00,25.50 L306.50,25.00 L313.00,21.50Z M310.50,26.00 L318.00,25.50 L319.50,27.00 L319.50,32.00 L317.00,38.50 L316.50,30.00 L315.00,28.50 L311.00,27.50 L306.00,29.50 L303.50,29.00Z M327.50,27.00 L328.50,27.00 L328.00,28.50Z M307.50,30.00 L314.00,29.50 L315.50,31.00 L315.50,36.00 L313.00,42.50 L312.50,39.00 L313.50,37.00 L312.00,33.50 L310.00,32.50 L304.00,32.50 L303.00,33.50 L300.50,33.00Z M322.50,33.00 L323.50,33.00 L323.00,34.50Z M304.50,34.00 L309.00,33.50 L311.50,35.00 L311.50,41.00 L310.00,44.50 L309.50,40.00 L307.00,36.50 L299.50,36.00Z M319.50,35.00 L320.50,35.00 L320.00,36.50Z M301.50,38.00 L306.00,37.50 L307.50,39.00 L307.50,46.00 L306.00,49.50 L305.50,43.00 L303.00,40.50 L297.00,40.50 L296.00,41.50 L293.50,41.00Z M315.50,39.00 L316.50,39.00 L316.00,40.50Z M298.50,42.00 L302.00,41.50 L304.50,44.00 L304.50,47.00 L303.50,48.00 L303.50,51.00 L302.00,54.50 L301.50,51.00 L302.50,50.00 L302.50,48.00 L301.50,46.00 L300.00,44.50 L292.50,44.00 L295.00,42.50Z M311.50,43.00 L312.50,43.00 L312.00,45.50Z M313.50,44.00 L314.50,44.00 L314.00,45.50Z M308.50,45.00 L309.50,45.00 L309.00,47.50Z M294.50,46.00 L299.00,45.50 L300.50,47.00 L300.50,53.00 L299.00,56.50 L298.50,50.00 L297.00,48.50 L295.00,48.50 L294.00,47.50 L292.00,48.50 L288.50,48.00 L291.00,46.50Z M310.50,46.00 L311.50,46.00 L311.00,47.50Z M307.50,48.00 L308.50,48.00 L308.00,49.50Z M289.50,50.00 L296.00,49.50 L297.50,52.00 L297.50,55.00 L296.50,56.00 L295.50,61.00 L288.50,75.00 L261.50,116.00 L258.50,119.00 L251.50,130.00 L245.50,137.00 L243.50,141.00 L219.50,173.00 L216.00,176.50 L196.00,182.50 L193.00,184.50 L188.00,185.50 L185.00,187.50 L180.00,188.50 L174.00,191.50 L169.00,189.50 L165.00,186.50 L159.50,181.00 L159.50,178.00 L161.50,175.00 L161.50,173.00 L162.50,172.00 L162.50,170.00 L170.50,148.00 L170.50,145.00 L172.50,141.00 L172.50,138.00 L173.50,137.00 L175.50,129.00 L195.00,114.50 L199.00,110.50 L212.00,101.50 L216.00,97.50 L228.00,88.50 L232.00,86.50 L239.00,80.50 L243.00,78.50 L246.00,75.50 L270.00,59.50 L285.00,51.50 L287.00,51.50Z M304.50,50.00 L305.50,50.00 L305.00,51.50Z M300.50,55.00 L301.50,55.00 L301.00,56.50Z M170.50,83.00 L174.00,82.50 L177.50,86.00 L177.50,88.00 L178.50,89.00 L178.50,106.00 L177.50,107.00 L175.50,118.00 L147.00,141.50 L146.50,132.00 L147.50,131.00 L147.50,125.00 L148.50,124.00 L149.50,117.00 L150.50,116.00 L152.50,108.00 L154.50,105.00 L154.50,103.00 L161.50,91.00 L169.00,83.50Z M169.50,134.00 L170.00,133.50 L170.50,135.00 L169.50,136.00 L165.50,150.00 L163.50,153.00 L163.50,155.00 L162.50,156.00 L161.50,161.00 L159.50,164.00 L158.50,169.00 L156.50,172.00 L156.50,174.00 L155.00,175.50 L149.50,165.00 L149.50,162.00 L147.50,157.00 L147.50,152.00 L152.00,147.50 L153.00,147.50Z M140.50,157.00 L142.50,157.00 L144.50,164.00 L148.50,172.00 L154.50,179.00 L152.50,182.00 L152.50,184.00 L150.50,187.00 L150.50,189.00 L148.50,192.00 L146.50,199.00 L143.00,204.50 L139.00,205.50 L132.00,209.50 L130.00,209.50 L123.00,213.50 L121.00,213.50 L114.00,217.50 L112.00,217.50 L103.00,222.50 L101.00,222.50 L92.00,227.50 L90.00,227.50 L83.00,231.50 L81.00,231.50 L72.00,236.50 L70.00,236.50 L58.00,242.50 L56.00,242.50 L53.00,244.50 L51.00,244.50 L47.00,246.50 L44.00,246.50 L43.00,247.50 L40.50,247.00 L41.50,243.00 L61.00,223.50 L62.00,223.50 L70.00,215.50 L71.00,215.50 L91.00,197.50 L92.00,197.50 L97.00,192.50 L98.00,192.50 L103.00,187.50 L104.00,187.50 L109.00,182.50 L115.00,178.50Z M288.50,161.00 L291.00,160.50 L292.50,162.00 L292.00,165.50 L291.50,163.00Z M287.50,163.00 L289.50,163.00 L289.00,167.50 L288.50,164.00Z M284.50,164.00 L286.00,163.50 L287.50,165.00 L286.00,168.50 L285.50,165.00Z M281.50,165.00 L283.00,164.50 L284.50,166.00 L284.00,168.50Z M276.50,167.00 L278.00,166.50 L279.50,168.00 L279.00,170.50Z M280.50,167.00 L281.50,167.00 L281.00,170.50Z M256.50,168.00 L266.00,167.50 L271.00,169.50 L272.50,172.00 L270.50,176.00 L262.00,183.50 L257.00,185.50 L253.00,188.50 L251.00,188.50 L248.00,190.50 L246.00,190.50 L242.00,192.50 L239.00,192.50 L234.00,194.50 L230.00,194.50 L229.00,195.50 L224.00,195.50 L223.00,196.50 L215.00,196.50 L214.00,197.50 L211.50,197.00 L227.00,176.50 L246.00,169.50Z M275.50,169.00 L276.50,169.00 L276.00,172.50Z M273.50,170.00 L274.50,170.00 L274.00,172.50Z M157.50,184.00 L159.00,183.50 L163.00,187.50 L170.50,192.00 L167.00,194.50 L165.00,194.50 L160.00,197.50 L153.00,199.50 L152.50,197.00 L157.50,186.00Z M208.50,184.00 L210.50,184.00 L209.50,186.00 L200.00,197.50 L190.00,196.50 L189.00,195.50 L184.50,195.00 L188.00,192.50 L190.00,192.50 L195.00,189.50 L197.00,189.50Z M178.50,197.00 L182.00,196.50 L183.00,197.50 L186.00,197.50 L191.00,199.50 L198.50,200.00 L186.50,216.00 L182.50,220.00 L179.50,225.00 L175.50,229.00 L172.50,234.00 L140.50,273.00 L140.50,274.00 L123.50,293.00 L123.50,294.00 L111.00,306.50 L109.00,307.50 L108.50,303.00 L109.50,302.00 L111.50,294.00 L113.50,291.00 L115.50,284.00 L118.50,279.00 L118.50,277.00 L121.50,272.00 L121.50,270.00 L125.50,263.00 L125.50,261.00 L128.50,256.00 L128.50,254.00 L131.50,249.00 L131.50,247.00 L134.50,242.00 L134.50,240.00 L138.50,233.00 L138.50,231.00 L143.50,221.00 L143.50,219.00 L145.50,216.00 L146.50,212.00Z M37.50,247.00 L38.00,246.50 L40.00,248.50 L43.50,249.00 L37.00,250.50 L36.50,248.00Z M34.50,249.00 L35.50,249.00 L36.00,251.50 L39.50,252.00 L34.00,253.50 L32.50,252.00Z M30.50,252.00 L31.00,251.50 L33.00,254.50 L35.50,255.00 L30.00,256.50 L29.50,253.00Z M26.50,255.00 L27.00,254.50 L29.00,257.50 L32.50,258.00 L26.00,259.50 L25.50,256.00Z M22.50,258.00 L23.00,257.50 L25.00,260.50 L29.50,261.00 L22.00,262.50 L21.50,260.00Z M18.50,261.00 L19.00,260.50 L21.00,263.50 L26.50,264.00 L23.00,265.50 L18.00,265.50 L17.50,263.00Z M14.50,264.00 L15.00,263.50 L17.00,266.50 L20.50,268.00 L15.00,269.50 L13.50,268.00Z M10.50,267.00 L11.50,267.00 L11.50,269.00 L13.00,270.50 L18.50,271.00 L15.00,271.50 L14.00,272.50 L9.00,272.50 L8.50,271.00Z M106.50,309.00 L109.50,309.00 L108.00,310.50 L106.00,310.50 L105.50,310.00Z M103.50,312.00 L105.00,311.50 L106.50,313.00 L104.00,314.50Z M101.50,315.00 L102.00,314.50 L105.50,316.00 L104.00,317.50 L102.00,317.50Z M99.50,317.00 L100.00,316.50 L102.50,320.00 L101.00,321.50 L99.50,321.00Z M97.50,322.00 L98.00,321.50 L101.50,323.00 L98.00,325.50Z M94.50,325.00 L95.00,324.50 L98.50,327.00 L97.00,328.50 L95.00,328.50Z M92.50,327.00 L93.50,327.00 L93.50,329.00 L95.50,331.00 L94.00,332.50 L92.50,332.00Z M89.50,333.00 L90.00,332.50 L93.50,335.00 L90.00,336.50Z M87.50,334.00 L88.50,334.00 L88.50,337.00 L90.50,339.00 L89.00,340.50 L86.50,340.00Z" fill="#000000" fill-rule="evenodd" stroke="none"/>
</svg>
