<svg xmlns="http://www.w3.org/2000/svg" viewBox="0 0 350 350">
  <path d="M136.50,12.00 L140.00,11.50 L142.00,12.50 L148.50,20.00 L157.50,40.00 L165.00,68.50 L165.50,59.00 L166.50,58.00 L166.50,53.00 L167.50,52.00 L168.50,45.00 L173.00,37.50 L176.00,37.50 L178.50,40.00 L181.50,47.00 L182.50,55.00 L183.50,56.00 L183.50,63.00 L184.50,64.00 L184.50,81.00 L185.50,81.00 L186.50,77.00 L191.00,69.50 L193.00,68.50 L195.50,71.00 L196.50,73.00 L197.00,94.50 L208.50,68.00 L210.50,66.00 L214.50,58.00 L223.00,48.50 L227.00,47.50 L229.50,50.00 L229.50,63.00 L228.50,64.00 L228.50,67.00 L227.50,68.00 L227.50,71.00 L226.50,72.00 L226.50,75.00 L225.50,76.00 L223.50,84.00 L218.50,95.00 L219.00,97.50 L233.50,78.00 L239.50,72.00 L239.50,71.00 L259.00,51.50 L266.00,46.50 L275.00,42.50 L277.00,42.50 L280.50,45.00 L280.50,54.00 L279.50,55.00 L278.50,60.00 L272.50,72.00 L269.50,76.00 L272.50,78.00 L272.50,84.00 L269.50,90.00 L262.50,100.00 L257.50,105.00 L257.50,109.00 L252.50,117.00 L237.00,132.50 L236.00,132.50 L221.50,145.00 L223.00,145.50 L240.00,136.50 L242.00,136.50 L249.00,132.50 L251.00,132.50 L264.00,126.50 L266.00,126.50 L273.00,123.50 L276.00,123.50 L280.00,121.50 L283.00,121.50 L284.00,120.50 L298.00,119.50 L301.50,122.00 L300.50,127.00 L295.00,132.50 L289.00,136.50 L268.00,147.50 L266.00,147.50 L261.00,150.50 L259.00,150.50 L251.00,154.50 L246.00,155.50 L243.00,157.50 L241.00,157.50 L231.00,161.50 L228.00,161.50 L221.00,164.50 L218.00,164.50 L218.00,165.50 L231.00,164.50 L232.00,163.50 L240.00,163.50 L241.00,162.50 L251.00,162.50 L252.00,161.50 L267.00,161.50 L268.00,160.50 L296.00,160.50 L297.00,161.50 L309.00,161.50 L310.00,162.50 L317.00,162.50 L318.00,163.50 L327.00,164.50 L339.00,169.50 L342.50,174.00 L341.50,177.00 L338.00,180.50 L332.00,183.50 L326.00,184.50 L325.00,185.50 L321.00,185.50 L320.00,186.50 L305.00,187.50 L304.00,188.50 L259.00,188.50 L258.00,187.50 L246.00,187.50 L245.00,186.50 L228.00,185.50 L227.00,184.50 L221.00,184.50 L220.00,183.50 L216.50,184.00 L247.00,193.50 L250.00,195.50 L255.00,196.50 L265.00,201.50 L267.00,201.50 L290.00,213.50 L301.50,224.00 L301.50,228.00 L299.00,229.50 L287.00,229.50 L286.00,228.50 L282.00,228.50 L281.00,227.50 L278.00,227.50 L277.00,226.50 L260.00,221.50 L243.00,213.50 L241.00,213.50 L222.00,203.50 L220.50,204.00 L228.00,209.50 L233.00,214.50 L234.00,214.50 L249.50,229.00 L249.50,230.00 L256.50,238.00 L257.50,240.00 L257.50,244.00 L268.50,258.00 L272.50,266.00 L272.50,271.00 L270.00,272.50 L269.50,274.00 L274.50,281.00 L280.50,295.00 L280.50,304.00 L278.00,306.50 L273.00,306.50 L265.00,302.50 L256.00,294.50 L255.00,294.50 L236.50,275.00 L236.50,274.00 L227.50,264.00 L218.00,250.50 L217.50,252.00 L221.50,260.00 L221.50,262.00 L227.50,278.00 L227.50,281.00 L228.50,282.00 L228.50,286.00 L229.50,287.00 L229.50,299.00 L228.50,301.00 L224.00,301.50 L213.50,290.00 L201.50,267.00 L201.50,265.00 L197.00,255.50 L196.50,277.00 L195.50,279.00 L194.00,280.50 L192.00,280.50 L187.50,275.00 L185.50,268.00 L184.50,268.00 L184.50,286.00 L183.50,287.00 L183.50,294.00 L182.50,295.00 L181.50,303.00 L178.50,310.00 L175.00,312.50 L173.00,311.50 L169.50,307.00 L169.50,305.00 L167.50,301.00 L167.50,297.00 L166.50,296.00 L165.00,280.50 L162.50,293.00 L160.50,297.00 L160.50,300.00 L159.50,301.00 L155.50,315.00 L152.50,320.00 L152.50,322.00 L147.50,331.00 L141.00,337.50 L138.00,338.50 L134.50,336.00 L131.50,328.00 L131.50,306.00 L132.50,305.00 L133.50,294.00 L133.00,293.50 L132.50,295.00 L125.00,301.50 L122.00,301.50 L119.50,298.00 L120.50,284.00 L121.50,283.00 L121.50,280.00 L125.50,269.00 L125.00,266.50 L122.00,268.50 L119.50,266.00 L119.50,262.00 L120.50,261.00 L120.50,258.00 L122.50,255.00 L122.50,253.00 L124.50,250.00 L124.50,248.00 L133.50,231.00 L133.00,230.50 L106.00,257.50 L105.00,257.50 L96.00,265.50 L84.00,272.50 L78.00,272.50 L76.50,270.00 L77.50,265.00 L81.50,257.00 L91.50,245.00 L91.50,244.00 L120.00,215.50 L121.00,215.50 L123.50,213.00 L123.00,212.50 L114.00,217.50 L112.00,219.50 L107.00,221.50 L105.00,223.50 L96.00,227.50 L94.00,229.50 L82.00,235.50 L80.00,235.50 L73.00,239.50 L71.00,239.50 L66.00,242.50 L61.00,243.50 L58.00,245.50 L56.00,245.50 L52.00,247.50 L49.00,247.50 L48.00,248.50 L45.00,248.50 L44.00,249.50 L40.00,249.50 L39.00,250.50 L28.00,250.50 L23.50,247.00 L24.50,241.00 L30.00,234.50 L31.00,234.50 L40.00,226.50 L49.00,220.50 L52.00,219.50 L58.00,214.50 L68.00,209.50 L70.00,207.50 L78.00,203.50 L80.00,203.50 L87.00,199.50 L89.00,199.50 L96.00,195.50 L103.00,193.50 L106.00,191.50 L137.50,182.00 L134.00,181.50 L133.00,182.50 L125.00,182.50 L124.00,183.50 L113.00,183.50 L112.00,184.50 L89.00,184.50 L88.00,185.50 L85.00,185.50 L84.00,184.50 L64.00,184.50 L63.00,183.50 L56.00,183.50 L55.00,182.50 L47.00,181.50 L40.00,178.50 L37.50,176.00 L37.50,173.00 L39.00,171.50 L45.00,168.50 L48.00,168.50 L53.00,166.50 L58.00,166.50 L59.00,165.50 L69.00,165.50 L70.00,164.50 L104.00,164.50 L105.00,165.50 L118.00,165.50 L119.00,166.50 L129.00,166.50 L130.00,167.50 L136.50,167.00 L129.00,165.50 L122.00,162.50 L119.00,162.50 L118.00,161.50 L110.00,159.50 L107.00,157.50 L102.00,156.50 L69.00,141.50 L67.00,139.50 L62.00,137.50 L56.00,133.50 L53.00,130.50 L45.00,126.50 L34.00,118.50 L25.50,110.00 L23.50,106.00 L23.50,102.00 L25.00,100.50 L30.00,98.50 L36.00,98.50 L37.00,99.50 L42.00,99.50 L43.00,100.50 L50.00,101.50 L51.00,102.50 L62.00,105.50 L70.00,109.50 L72.00,109.50 L81.00,114.50 L83.00,114.50 L121.00,135.50 L121.50,135.00 L95.50,110.00 L95.50,109.00 L85.50,98.00 L77.50,85.00 L76.50,79.00 L79.00,76.50 L82.00,76.50 L89.00,79.50 L98.00,85.50 L109.00,95.50 L110.00,95.50 L129.50,115.00 L129.50,116.00 L134.00,120.50 L134.50,120.00 L122.50,97.00 L122.50,95.00 L120.50,91.00 L120.50,88.00 L119.50,87.00 L119.50,84.00 L121.00,81.50 L125.50,82.00 L125.50,80.00 L122.50,73.00 L121.50,66.00 L120.50,65.00 L120.50,61.00 L119.50,60.00 L119.50,51.00 L122.00,47.50 L124.00,47.50 L133.00,55.50 L133.50,55.00 L133.50,52.00 L132.50,51.00 L132.50,44.00 L131.50,43.00 L131.50,21.00 L132.50,20.00 L133.50,15.00Z M137.50,13.00 L139.00,12.50 L141.00,13.50 L144.50,17.00 L151.50,29.00 L151.50,31.00 L154.50,36.00 L154.50,38.00 L158.50,48.00 L158.50,51.00 L160.50,55.00 L160.50,58.00 L161.50,59.00 L161.50,62.00 L163.50,67.00 L163.50,71.00 L164.50,72.00 L164.50,104.00 L165.50,105.00 L165.50,118.00 L166.50,119.00 L166.50,129.00 L167.50,130.00 L167.50,137.00 L168.50,138.00 L168.00,142.50 L167.50,139.00 L165.50,135.00 L165.50,132.00 L163.50,128.00 L163.50,125.00 L162.50,124.00 L155.50,101.00 L153.50,98.00 L153.50,96.00 L151.50,93.00 L149.50,86.00 L145.50,79.00 L145.50,77.00 L137.50,62.00 L135.50,60.00 L134.50,48.00 L133.50,47.00 L133.50,38.00 L132.50,37.00 L132.50,26.00 L133.50,25.00 L133.50,19.00 L134.50,18.00 L134.50,16.00Z M173.50,39.00 L175.00,38.50 L177.50,41.00 L179.50,45.00 L180.50,52.00 L181.50,53.00 L181.50,58.00 L182.50,59.00 L182.50,68.00 L183.50,69.00 L183.50,88.00 L181.50,93.00 L181.50,97.00 L180.50,98.00 L180.50,102.00 L179.50,103.00 L179.50,108.00 L178.50,109.00 L178.50,114.00 L177.50,115.00 L175.00,144.50 L174.50,134.00 L173.50,133.00 L173.50,122.00 L172.50,121.00 L172.50,112.00 L171.50,111.00 L171.50,104.00 L170.50,103.00 L169.50,90.00 L168.50,89.00 L167.50,79.00 L166.50,78.00 L166.50,63.00 L167.50,62.00 L167.50,55.00 L168.50,54.00 L168.50,50.00 L169.50,49.00 L170.50,44.00Z M272.50,45.00 L278.00,44.50 L279.50,47.00 L279.50,52.00 L278.50,53.00 L278.50,56.00 L276.50,59.00 L276.50,61.00 L267.50,77.00 L259.00,80.50 L244.00,91.50 L215.50,120.00 L215.50,121.00 L209.50,127.00 L209.50,128.00 L199.50,139.00 L195.00,145.50 L194.50,144.00 L197.50,138.00 L199.50,136.00 L212.50,109.00 L227.50,88.00 L240.50,73.00 L240.50,72.00 L259.00,53.50 L267.00,47.50Z M121.50,50.00 L125.00,49.50 L127.00,50.50 L134.50,60.00 L135.50,68.00 L136.50,69.00 L136.50,72.00 L137.50,73.00 L140.50,88.00 L141.50,89.00 L142.50,95.00 L143.50,96.00 L143.50,98.00 L145.50,102.00 L145.50,105.00 L147.50,109.00 L147.00,111.50 L140.50,102.00 L139.50,99.00 L127.50,84.00 L127.50,82.00 L124.50,75.00 L124.50,72.00 L122.50,68.00 L122.50,64.00 L121.50,63.00 L121.50,56.00 L120.50,55.00Z M223.50,50.00 L227.00,49.50 L228.50,51.00 L228.50,60.00 L227.50,61.00 L226.50,70.00 L225.50,71.00 L220.50,88.00 L218.50,91.00 L218.50,93.00 L216.50,96.00 L216.50,98.00 L213.50,103.00 L213.50,105.00 L211.50,109.00 L205.50,117.00 L204.50,120.00 L194.50,135.00 L182.00,158.50 L181.50,156.00 L184.50,149.00 L184.50,146.00 L186.50,142.00 L186.50,139.00 L187.50,138.00 L189.50,128.00 L190.50,127.00 L190.50,123.00 L192.50,118.00 L192.50,114.00 L193.50,113.00 L193.50,109.00 L194.50,108.00 L195.50,101.00 L197.50,98.00 L197.50,96.00 L199.50,93.00 L201.50,86.00 L205.50,79.00 L205.50,77.00 L208.50,71.00 L210.50,69.00 L215.50,59.00Z M137.50,67.00 L138.50,67.00 L143.50,76.00 L143.50,78.00 L147.50,85.00 L147.50,87.00 L152.50,97.00 L154.50,105.00 L156.50,108.00 L156.50,110.00 L161.50,123.00 L161.50,126.00 L163.50,130.00 L163.50,133.00 L165.50,137.00 L165.50,140.00 L166.50,141.00 L166.50,144.00 L167.50,145.00 L167.50,148.00 L168.50,149.00 L168.50,152.00 L170.50,157.00 L170.00,160.50 L167.50,155.00 L167.50,153.00 L164.50,148.00 L164.50,146.00 L158.50,135.00 L158.50,133.00 L152.50,121.00 L152.50,119.00 L145.50,100.00 L145.50,97.00 L142.50,90.00 L142.50,87.00 L141.50,86.00 L141.50,83.00 L140.50,82.00Z M192.50,71.00 L193.00,70.50 L194.50,72.00 L194.50,74.00 L195.50,75.00 L195.50,89.00 L194.50,90.00 L194.50,98.00 L193.50,99.00 L193.50,104.00 L187.50,120.00 L187.50,123.00 L184.50,130.00 L184.50,133.00 L183.50,134.00 L182.00,140.50 L181.50,134.00 L182.50,133.00 L183.50,113.00 L184.50,112.00 L184.50,88.00 L185.50,87.00 L185.50,84.00 L188.50,78.00 L188.50,76.00Z M78.50,79.00 L84.00,78.50 L88.00,80.50 L108.00,95.50 L137.50,126.00 L137.50,127.00 L144.50,135.00 L152.50,148.00 L166.50,166.00 L165.00,166.50 L158.00,160.50 L137.00,146.50 L127.00,137.50 L126.00,137.50 L118.00,129.50 L117.00,129.50 L89.50,101.00 L80.50,88.00 L78.50,84.00Z M267.50,79.00 L271.00,78.50 L271.50,82.00 L268.50,89.00 L264.50,95.00 L256.00,105.50 L254.00,104.50 L247.00,107.50 L246.50,107.00 L249.50,103.00 L260.50,90.00Z M263.50,80.00 L265.50,80.00 L261.50,86.00 L252.50,98.00 L242.50,109.00 L242.50,110.00 L230.00,118.50 L219.00,128.50 L218.00,128.50 L206.00,140.50 L205.00,140.50 L188.00,158.50 L187.50,157.00 L196.50,145.00 L209.50,130.00 L209.50,129.00 L215.50,123.00 L215.50,122.00 L227.50,110.00 L227.50,109.00 L251.00,87.50 L255.00,85.50 L258.00,82.50Z M165.50,82.00 L166.50,82.00 L166.50,87.00 L167.50,88.00 L167.50,93.00 L168.50,94.00 L168.50,100.00 L169.50,101.00 L169.50,107.00 L170.50,108.00 L170.50,116.00 L171.50,117.00 L171.50,126.00 L172.50,127.00 L172.50,140.00 L173.50,141.00 L173.00,161.50 L172.50,156.00 L171.50,155.00 L171.50,150.00 L170.50,149.00 L170.50,143.00 L169.50,142.00 L168.50,126.00 L167.50,125.00Z M121.50,83.00 L124.00,83.50 L127.50,87.00 L129.50,91.00 L129.50,93.00 L131.50,96.00 L131.50,98.00 L134.50,103.00 L134.50,105.00 L150.50,137.00 L154.50,143.00 L154.00,144.50 L143.50,132.00 L138.50,123.00 L136.50,121.00 L134.50,116.00 L132.50,114.00 L124.50,98.00 L124.50,96.00 L121.50,89.00Z M130.50,91.00 L131.00,90.50 L135.50,96.00 L141.50,105.00 L142.50,108.00 L144.50,110.00 L145.50,113.00 L147.50,115.00 L155.50,131.00 L155.50,133.00 L157.50,136.00 L157.50,138.00 L159.50,141.00 L161.50,148.00 L166.50,158.00 L166.00,159.50 L159.50,150.00 L153.50,138.00 L151.50,136.00 L135.50,104.00 L135.50,102.00 L132.50,97.00 L132.50,95.00Z M195.50,95.00 L196.50,95.00 L196.00,96.50Z M182.50,96.00 L183.50,96.00 L182.50,119.00 L181.50,120.00 L180.50,138.00 L179.50,139.00 L179.50,145.00 L178.50,146.00 L178.50,152.00 L177.50,153.00 L177.50,158.00 L176.50,159.00 L176.00,164.50 L175.50,154.00 L176.50,153.00 L177.50,127.00 L178.50,126.00 L178.50,119.00 L179.50,118.00 L179.50,112.00 L180.50,111.00 L180.50,106.00 L181.50,105.00Z M217.50,98.00 L218.50,98.00 L218.00,99.50Z M27.50,101.00 L39.00,100.50 L40.00,101.50 L44.00,101.50 L45.00,102.50 L48.00,102.50 L49.00,103.50 L63.00,107.50 L73.00,112.50 L75.00,112.50 L115.00,133.50 L131.00,144.50 L134.00,145.50 L144.50,154.00 L143.00,154.50 L137.00,150.50 L105.00,134.50 L103.00,134.50 L98.00,131.50 L96.00,131.50 L88.00,127.50 L86.00,127.50 L73.00,122.50 L70.00,122.50 L65.00,120.50 L61.00,120.50 L60.00,119.50 L51.00,119.50 L47.50,122.00 L47.50,124.00 L48.50,125.00 L48.00,126.50 L34.00,116.50 L27.50,110.00 L25.50,107.00 L25.50,102.00Z M251.50,107.00 L254.50,107.00 L241.00,121.50 L240.00,121.50 L228.00,133.50 L227.00,133.50 L215.00,144.50 L214.00,144.50 L201.00,155.50 L199.50,155.00 L206.00,148.50 L207.00,148.50 L244.00,110.50Z M254.50,109.00 L255.00,108.50 L255.50,110.00 L250.50,117.00 L237.00,130.50 L236.00,130.50 L230.00,136.50 L229.00,136.50 L213.00,149.50 L211.50,149.00 L228.00,134.50 L229.00,134.50Z M147.50,112.00 L148.50,112.00 L148.00,113.50Z M189.50,119.00 L190.50,119.00 L190.00,120.50Z M232.50,119.00 L233.00,118.50 L233.50,120.00 L207.00,146.50 L206.00,146.50 L189.00,162.50 L186.00,164.50 L185.50,164.00 L185.50,163.00 L218.00,130.50 L219.00,130.50 L225.00,124.50Z M53.50,121.00 L55.00,120.50 L56.00,121.50 L68.00,122.50 L72.00,124.50 L75.00,124.50 L76.00,125.50 L87.00,128.50 L90.00,130.50 L97.00,132.50 L102.00,135.50 L104.00,135.50 L136.00,151.50 L144.50,157.00 L143.00,157.50 L127.00,149.50 L125.00,149.50 L117.00,145.50 L112.00,144.50 L109.00,142.50 L107.00,142.50 L103.00,140.50 L100.00,140.50 L96.00,138.50 L89.00,137.50 L88.00,136.50 L81.00,136.50 L79.00,135.50 L78.00,136.50 L75.00,136.50 L73.50,139.00 L72.00,139.50 L53.00,129.50 L49.50,125.00 L49.50,122.00Z M293.50,121.00 L295.00,120.50 L296.00,121.50 L299.00,121.50 L300.50,123.00 L299.50,126.00 L294.00,131.50 L285.00,136.50 L283.00,138.50 L267.00,146.50 L265.00,146.50 L255.00,151.50 L250.00,152.50 L247.00,154.50 L245.00,154.50 L223.00,162.50 L220.00,162.50 L216.00,164.50 L213.00,164.50 L209.00,166.50 L206.00,166.50 L205.00,167.50 L202.00,167.50 L201.00,168.50 L198.00,168.50 L193.00,170.50 L189.00,170.50 L188.00,171.50 L184.00,171.50 L183.00,172.50 L180.50,172.00 L189.00,167.50 L210.00,153.50 L239.00,138.50 L241.00,138.50 L248.00,134.50 L250.00,134.50 L260.00,129.50 L262.00,129.50 L278.00,123.50 L281.00,123.50 L286.00,121.50Z M188.50,122.00 L189.50,122.00 L189.00,124.50Z M187.50,125.00 L188.50,125.00 L188.50,128.00 L187.50,129.00 L185.50,140.00 L184.50,141.00 L182.00,150.50 L181.50,147.00 L182.50,146.00 L182.50,143.00 L183.50,142.00 L183.50,139.00 L184.50,138.00 L184.50,135.00 L186.50,131.00Z M200.50,128.00 L201.50,128.00 L201.00,129.50Z M199.50,130.00 L200.50,130.00 L200.00,131.50Z M198.50,132.00 L199.00,131.50 L199.50,133.00 L197.00,136.50 L196.50,135.00Z M195.50,137.00 L196.00,136.50 L196.50,138.00 L192.00,145.50 L191.50,144.00Z M75.50,138.00 L85.00,137.50 L86.00,138.50 L90.00,138.50 L91.00,139.50 L94.00,139.50 L98.00,141.50 L101.00,141.50 L102.00,142.50 L110.00,144.50 L113.00,146.50 L118.00,147.50 L128.00,152.50 L130.00,152.50 L137.00,156.50 L139.00,156.50 L166.50,171.00 L163.00,171.50 L162.00,170.50 L151.00,168.50 L147.00,166.50 L144.00,166.50 L137.00,163.50 L134.00,163.50 L133.00,162.50 L110.00,155.50 L107.00,153.50 L102.00,152.50 L99.00,150.50 L97.00,150.50 L94.00,148.50 L87.00,146.50 L80.00,142.50 L78.00,142.50 L75.50,140.00Z M180.50,142.00 L181.50,142.00 L181.00,144.50Z M154.50,145.00 L155.00,144.50 L156.50,146.00 L156.00,147.50Z M190.50,146.00 L191.00,145.50 L191.50,147.00 L189.00,150.50 L188.50,149.00Z M209.50,150.00 L211.50,150.00 L208.00,152.50 L207.50,152.00Z M180.50,151.00 L181.50,151.00 L181.00,153.50Z M187.50,151.00 L188.50,151.00 L188.00,152.50Z M186.50,153.00 L187.50,153.00 L187.00,154.50Z M144.50,155.00 L146.00,154.50 L147.50,156.00 L146.00,156.50Z M179.50,155.00 L180.50,155.00 L180.00,157.50Z M183.50,158.00 L184.50,158.00 L184.00,159.50Z M178.50,159.00 L179.50,159.00 L179.00,160.50Z M180.50,159.00 L181.50,159.00 L181.00,160.50Z M166.50,160.00 L167.50,160.00 L167.00,161.50Z M170.50,161.00 L171.50,161.00 L171.00,162.50Z M258.50,163.00 L304.00,162.50 L305.00,163.50 L320.00,164.50 L321.00,165.50 L325.00,165.50 L338.00,170.50 L340.50,173.00 L340.50,176.00 L337.00,179.50 L333.00,181.50 L331.00,181.50 L327.00,183.50 L318.00,184.50 L317.00,185.50 L310.00,185.50 L309.00,186.50 L297.00,186.50 L296.00,187.50 L269.00,187.50 L268.00,186.50 L241.00,185.50 L241.00,184.50 L262.00,184.50 L263.00,185.50 L265.00,185.50 L266.00,184.50 L286.00,184.50 L287.00,183.50 L294.00,183.50 L295.00,182.50 L303.00,181.50 L310.00,178.50 L311.50,177.00 L312.50,174.00 L309.00,170.50 L301.00,167.50 L291.00,166.50 L290.00,165.50 L281.00,165.50 L280.00,164.50 L246.00,164.50 L246.00,163.50Z M77.50,166.00 L94.00,165.50 L95.00,166.50 L125.00,167.50 L126.00,168.50 L134.00,168.50 L135.00,169.50 L142.00,169.50 L143.00,170.50 L149.00,170.50 L150.00,171.50 L161.00,172.50 L162.00,173.50 L166.00,173.50 L169.50,175.00 L159.00,176.50 L158.00,177.50 L153.00,177.50 L152.00,178.50 L146.00,178.50 L145.00,179.50 L139.00,179.50 L138.00,180.50 L130.00,180.50 L129.00,181.50 L120.00,181.50 L119.00,182.50 L107.00,182.50 L106.00,183.50 L68.00,183.50 L67.00,182.50 L59.00,182.50 L58.00,181.50 L48.00,180.50 L41.00,177.50 L38.50,174.00 L44.00,170.50 L46.00,170.50 L50.00,168.50 L62.00,167.50 L63.00,166.50Z M254.50,166.00 L271.00,165.50 L272.00,166.50 L287.00,166.50 L288.00,167.50 L294.00,167.50 L295.00,168.50 L299.00,168.50 L300.00,169.50 L303.00,169.50 L308.00,171.50 L310.50,174.00 L310.50,176.00 L307.00,178.50 L305.00,178.50 L301.00,180.50 L298.00,180.50 L297.00,181.50 L292.00,181.50 L291.00,182.50 L282.00,182.50 L281.00,183.50 L244.00,183.50 L244.00,182.50 L252.00,182.50 L253.00,181.50 L265.00,181.50 L266.00,180.50 L272.00,180.50 L273.00,179.50 L279.00,178.50 L282.50,175.00 L280.00,171.50 L278.00,171.50 L274.00,169.50 L270.00,169.50 L269.00,168.50 L262.00,168.50 L261.00,167.50 L236.00,167.50 L236.00,166.50Z M235.50,169.00 L252.00,168.50 L253.00,169.50 L265.00,169.50 L266.00,170.50 L276.00,171.50 L280.50,174.00 L279.00,176.50 L274.00,178.50 L270.00,178.50 L269.00,179.50 L261.00,179.50 L260.00,180.50 L225.00,180.50 L224.00,179.50 L212.00,179.50 L211.00,178.50 L203.00,178.50 L202.00,177.50 L195.00,177.50 L194.00,176.50 L188.00,176.50 L187.00,175.50 L180.50,175.00 L184.00,173.50 L198.00,172.50 L199.00,171.50 L206.00,171.50 L207.00,170.50Z M164.50,178.00 L167.50,178.00 L162.00,180.50 L160.00,182.50 L138.00,193.50 L136.00,193.50 L129.00,197.50 L127.00,197.50 L114.00,203.50 L112.00,203.50 L96.00,209.50 L88.00,210.50 L87.00,211.50 L81.00,211.50 L79.00,212.50 L75.50,211.00 L78.00,207.50 L86.00,203.50 L88.00,203.50 L93.00,200.50 L103.00,197.50 L106.00,195.50 L108.00,195.50 L109.00,194.50 L114.00,193.50 L117.00,191.50 L119.00,191.50 L129.00,187.50 L132.00,187.50 L139.00,184.50 L142.00,184.50 L146.00,182.50 L149.00,182.50 L153.00,180.50 L156.00,180.50 L157.00,179.50Z M181.50,178.00 L186.00,177.50 L191.00,179.50 L195.00,179.50 L196.00,180.50 L211.00,183.50 L215.00,185.50 L218.00,185.50 L225.00,188.50 L228.00,188.50 L229.00,189.50 L243.00,193.50 L246.00,195.50 L248.00,195.50 L259.00,200.50 L261.00,200.50 L284.00,211.50 L286.00,213.50 L292.00,216.50 L298.50,222.00 L300.50,225.00 L300.50,227.00 L298.00,228.50 L289.00,228.50 L288.00,227.50 L284.00,227.50 L283.00,226.50 L276.00,225.50 L275.00,224.50 L264.00,221.50 L261.00,219.50 L259.00,219.50 L256.00,217.50 L249.00,215.50 L209.00,195.50 L193.00,184.50 L190.00,183.50 L185.00,179.50Z M166.50,182.00 L167.00,181.50 L167.50,183.00 L163.50,187.00 L151.50,203.00 L147.50,210.00 L144.50,213.00 L143.50,216.00 L133.50,227.00 L133.50,228.00 L121.50,240.00 L121.50,241.00 L104.00,257.50 L103.00,257.50 L95.00,264.50 L85.00,270.50 L79.00,271.50 L78.50,266.00 L82.50,258.00 L85.50,255.00 L87.50,251.00 L102.50,235.00 L102.50,234.00 L135.00,204.50 L149.00,195.50Z M184.50,185.00 L186.00,184.50 L201.00,198.50 L202.00,198.50 L233.50,230.00 L232.00,230.50 L228.00,227.50 L214.00,214.50 L213.00,214.50Z M175.50,186.00 L176.50,186.00 L176.50,190.00 L177.50,191.00 L177.50,197.00 L178.50,198.00 L179.50,211.00 L180.50,212.00 L180.50,219.00 L181.50,220.00 L182.50,243.00 L183.50,244.00 L183.00,254.50 L182.50,250.00 L181.50,249.00 L181.50,245.00 L180.50,244.00 L180.50,238.00 L179.50,237.00 L179.50,231.00 L178.50,230.00 L178.50,223.00 L177.50,222.00Z M170.50,187.00 L171.50,187.00 L171.00,188.50Z M166.50,188.00 L167.50,188.00 L167.00,189.50Z M172.50,189.00 L173.50,189.00 L172.50,222.00 L171.50,223.00 L171.50,233.00 L170.50,234.00 L169.50,249.00 L168.50,250.00 L168.50,256.00 L167.50,257.00 L167.50,262.00 L166.50,263.00 L166.00,267.50 L165.50,256.00 L166.50,255.00 L166.50,236.00 L167.50,235.00 L167.50,225.00 L168.50,224.00 L168.50,216.00 L169.50,215.00 L169.50,208.00 L170.50,207.00 L170.50,201.00 L171.50,200.00Z M180.50,189.00 L181.50,189.00 L181.00,190.50Z M165.50,190.00 L166.50,190.00 L166.00,191.50Z M169.50,190.00 L170.50,190.00 L170.50,193.00 L169.50,194.00 L166.50,209.00 L164.50,213.00 L162.50,223.00 L161.50,224.00 L154.50,247.00 L152.50,250.00 L151.50,255.00 L146.50,265.00 L146.50,267.00 L138.00,283.50 L137.50,280.00 L138.50,279.00 L138.50,275.00 L139.50,274.00 L140.50,267.00 L142.50,263.00 L142.50,260.00 L144.50,256.00 L144.50,253.00 L148.50,243.00 L149.50,237.00 L151.50,234.00 L154.50,223.00 L161.50,210.00 L161.50,208.00 L165.50,201.00 L165.50,199.00 L168.50,194.00Z M178.50,190.00 L179.50,190.00 L179.00,191.50Z M186.50,190.00 L187.00,189.50 L188.50,191.00 L188.00,192.50Z M181.50,191.00 L182.50,191.00 L192.50,211.00 L194.50,213.00 L204.50,231.00 L210.50,239.00 L215.50,249.00 L215.50,251.00 L221.50,264.00 L221.50,266.00 L225.50,276.00 L226.50,283.00 L227.50,284.00 L227.50,288.00 L228.50,289.00 L228.50,298.00 L227.00,300.50 L225.00,300.50 L222.00,298.50 L216.50,292.00 L213.50,286.00 L211.50,284.00 L200.50,261.00 L200.50,259.00 L198.50,256.00 L198.50,254.00 L196.50,251.00 L196.50,249.00 L194.50,245.00 L193.50,237.00 L192.50,236.00 L192.50,232.00 L191.50,231.00 L191.50,227.00 L190.50,226.00 L187.50,211.00 L185.50,207.00 L185.50,204.00 L182.50,197.00Z M143.50,192.00 L145.50,192.00 L144.00,193.50 L137.00,196.50 L135.00,198.50 L105.00,213.50 L103.00,213.50 L98.00,216.50 L96.00,216.50 L88.00,220.50 L86.00,220.50 L70.00,226.50 L66.00,226.50 L65.00,227.50 L61.00,227.50 L60.00,228.50 L51.00,228.50 L49.50,227.00 L49.50,224.00 L54.00,219.50 L73.00,209.50 L76.00,213.50 L85.00,213.50 L86.00,212.50 L90.00,212.50 L91.00,211.50 L98.00,210.50 L99.00,209.50 L113.00,205.50 L116.00,203.50 L118.00,203.50 L121.00,201.50 L128.00,199.50 L133.00,196.50 L135.00,196.50Z M164.50,192.00 L165.50,192.00 L165.50,194.00 L162.50,199.00 L162.50,201.00 L160.50,204.00 L160.50,206.00 L158.50,209.00 L158.50,211.00 L156.50,214.00 L154.50,221.00 L142.50,243.00 L132.00,257.50 L131.50,255.00 L134.50,250.00 L134.50,248.00 L137.50,243.00 L137.50,241.00 L148.50,219.00 L150.50,217.00 L153.50,210.00 L155.50,208.00 L157.50,203.00 L159.50,201.00Z M184.50,192.00 L185.50,192.00 L185.00,193.50Z M179.50,193.00 L180.50,193.00 L180.00,195.50Z M197.50,193.00 L199.00,192.50 L211.00,202.50 L212.00,202.50 L223.00,212.50 L224.00,212.50 L232.00,220.50 L233.00,220.50 L253.50,241.00 L253.50,242.00 L251.00,242.50 L242.00,237.50 L240.50,235.00 L227.50,222.00 L227.50,221.00Z M185.50,194.00 L186.50,194.00 L186.00,195.50Z M189.50,194.00 L190.00,193.50 L222.00,224.50 L223.00,224.50 L236.00,235.50 L240.00,237.50 L245.50,243.00 L245.50,244.00 L250.50,249.00 L250.50,250.00 L260.50,262.00 L264.50,268.00 L264.00,269.50 L259.00,267.50 L248.00,259.50 L220.50,233.00 L220.50,232.00 L212.50,224.00 L212.50,223.00 L198.50,207.00Z M143.50,195.00 L145.50,195.00 L144.00,196.50 L119.00,213.50 L104.00,221.50 L102.00,223.50 L74.00,237.50 L72.00,237.50 L67.00,240.50 L62.00,241.50 L59.00,243.50 L57.00,243.50 L50.00,246.50 L43.00,247.50 L42.00,248.50 L30.00,249.50 L25.50,247.00 L25.50,243.00 L26.50,241.00 L37.00,230.50 L47.00,223.50 L48.50,224.00 L47.50,225.00 L47.50,227.00 L50.00,229.50 L63.00,229.50 L64.00,228.50 L75.00,226.50 L76.00,225.50 L84.00,223.50 L87.00,221.50 L92.00,220.50 L95.00,218.50 L97.00,218.50 L102.00,215.50 L104.00,215.50Z M180.50,196.00 L181.50,196.00 L182.50,202.00 L184.50,206.00 L184.50,209.00 L186.50,213.00 L186.50,216.00 L188.50,221.00 L188.00,224.50 L185.50,218.00 L185.50,215.00 L183.50,211.00Z M186.50,196.00 L187.00,195.50 L188.50,197.00 L189.50,199.00 L189.00,200.50Z M209.50,199.00 L211.00,198.50 L213.50,201.00 L212.00,201.50Z M189.50,201.00 L190.00,200.50 L191.50,202.00 L193.50,207.00 L195.50,209.00 L197.50,213.00 L197.00,214.50 L192.50,208.00Z M213.50,202.00 L215.00,201.50 L232.00,215.50 L233.00,215.50 L246.50,228.00 L246.50,229.00 L252.50,235.00 L254.50,239.00 L254.00,239.50 L235.00,220.50 L234.00,220.50 L225.00,211.50 L224.00,211.50Z M193.50,203.00 L194.50,203.00 L194.00,204.50Z M154.50,204.00 L155.00,203.50 L155.50,205.00 L152.50,209.00 L149.50,216.00 L147.50,218.00 L136.50,240.00 L136.50,242.00 L132.50,249.00 L132.50,251.00 L130.50,254.00 L130.50,256.00 L128.50,259.00 L127.50,263.00 L125.00,265.50 L122.00,266.50 L121.50,260.00 L129.50,241.00 L131.50,239.00 L134.50,232.00 L136.50,230.00 L142.50,219.00Z M194.50,205.00 L195.00,204.50 L198.50,208.00 L201.50,213.00 L219.50,233.00 L219.50,234.00 L240.00,254.50 L241.00,254.50 L247.00,260.50 L255.00,266.50 L268.50,274.00 L277.50,291.00 L277.50,293.00 L279.50,297.00 L279.50,303.00 L277.00,305.50 L272.00,304.50 L262.00,298.50 L256.00,292.50 L255.00,292.50 L237.50,274.00 L213.50,242.00 L202.50,219.00 L200.50,217.00Z M174.50,206.00 L175.50,206.00 L175.50,217.00 L176.50,218.00 L176.50,227.00 L177.50,228.00 L178.50,241.00 L179.50,242.00 L180.50,252.00 L181.50,253.00 L181.50,256.00 L183.50,261.00 L183.50,281.00 L182.50,282.00 L182.50,291.00 L181.50,292.00 L180.50,301.00 L179.50,302.00 L178.50,307.00 L176.00,310.50 L174.00,310.50 L170.50,306.00 L169.50,300.00 L168.50,299.00 L168.50,295.00 L167.50,294.00 L167.50,288.00 L166.50,287.00 L166.50,271.00 L167.50,270.00 L167.50,266.00 L168.50,265.00 L168.50,260.00 L169.50,259.00 L169.50,254.00 L170.50,253.00 L170.50,246.00 L171.50,245.00 L171.50,238.00 L172.50,237.00 L173.50,217.00 L174.50,216.00Z M180.50,206.00 L181.50,206.00 L181.00,208.50Z M167.50,208.00 L168.50,208.00 L168.50,211.00 L167.50,212.00 L166.50,230.00 L165.50,231.00 L165.50,245.00 L164.50,246.00 L164.50,278.00 L163.50,279.00 L163.50,282.00 L162.50,283.00 L159.50,298.00 L158.50,299.00 L153.50,316.00 L146.50,330.00 L140.00,336.50 L137.00,336.50 L134.50,333.00 L134.50,331.00 L133.50,330.00 L133.50,325.00 L132.50,324.00 L132.50,313.00 L133.50,312.00 L133.50,302.00 L134.50,301.00 L135.50,290.00 L139.50,284.00 L147.50,268.00 L147.50,266.00 L150.50,261.00 L150.50,259.00 L154.50,251.00 L155.50,246.00 L157.50,243.00 L157.50,241.00 L161.50,231.00 L161.50,228.00 L164.50,221.00 L164.50,218.00 L166.50,214.00Z M181.50,209.00 L182.50,209.00 L182.50,212.00 L185.50,220.00 L185.50,223.00 L193.50,245.00 L194.50,260.00 L195.50,261.00 L195.50,274.00 L194.50,275.00 L194.50,278.00 L193.00,279.50 L190.50,277.00 L187.50,271.00 L187.50,269.00 L185.50,265.00 L185.50,262.00 L184.50,261.00 L184.50,237.00 L183.50,236.00 L183.50,226.00 L182.50,225.00Z M197.50,215.00 L198.50,215.00 L198.00,216.50Z M198.50,217.00 L199.50,217.00 L199.00,218.50Z M199.50,219.00 L200.00,218.50 L201.50,220.00 L201.00,221.50Z M201.50,222.00 L202.50,222.00 L202.00,223.50Z M188.50,225.00 L189.50,225.00 L189.00,228.50Z M189.50,230.00 L190.50,230.00 L190.00,231.50Z M147.50,236.00 L148.50,236.00 L148.50,238.00 L147.50,239.00 L147.50,241.00 L143.50,251.00 L143.50,254.00 L141.50,258.00 L141.50,261.00 L139.50,265.00 L139.50,268.00 L138.50,269.00 L138.50,272.00 L136.50,277.00 L136.50,281.00 L135.50,282.00 L134.50,289.00 L131.50,294.00 L126.00,299.50 L123.00,300.50 L121.50,299.00 L121.50,296.00 L120.50,295.00 L121.50,293.00 L121.50,286.00 L122.50,285.00 L123.50,278.00 L124.50,277.00 L127.50,266.00 L138.50,252.00Z M254.50,240.00 L255.50,240.00 L255.00,241.50Z M246.50,242.00 L247.00,241.50 L252.00,244.50 L256.00,244.50 L263.50,253.00 L271.50,267.00 L271.50,270.00 L270.00,271.50 L266.50,269.00 L261.50,261.00 L251.50,249.00 L251.50,248.00 L246.50,243.00Z M195.50,253.00 L196.50,253.00 L196.00,254.50Z" fill="#000000" fill-rule="evenodd" stroke="none"/>
</svg>
