<svg xmlns="http://www.w3.org/2000/svg" viewBox="0 0 350 350">
  <path d="M162.50,8.00 L167.00,7.50 L175.00,11.50 L179.00,8.50 L181.00,8.50 L182.00,7.50 L187.00,7.50 L188.00,8.50 L190.00,8.50 L195.00,12.50 L199.00,10.50 L208.00,10.50 L213.00,13.50 L215.00,16.50 L217.00,15.50 L221.00,15.50 L222.00,14.50 L227.00,15.50 L235.00,22.50 L245.00,22.50 L247.00,23.50 L254.00,31.50 L261.00,31.50 L265.00,33.50 L268.50,37.00 L271.00,42.50 L275.00,42.50 L280.00,44.50 L284.50,49.00 L287.00,55.50 L294.00,57.50 L298.50,62.00 L300.50,67.00 L300.50,70.00 L309.50,75.00 L312.50,81.00 L312.50,87.00 L319.00,90.50 L322.50,96.00 L322.50,99.00 L323.50,100.00 L322.50,105.00 L329.50,111.00 L331.50,116.00 L330.50,125.00 L334.50,128.00 L337.50,134.00 L337.50,138.00 L336.50,139.00 L335.50,144.00 L340.50,151.00 L340.50,160.00 L337.50,164.00 L340.50,168.00 L342.50,173.00 L341.50,180.00 L337.50,185.00 L340.50,190.00 L340.50,198.00 L338.50,202.00 L335.50,205.00 L335.50,207.00 L337.50,211.00 L337.50,215.00 L335.50,220.00 L330.50,225.00 L330.50,228.00 L331.50,229.00 L331.50,234.00 L330.50,235.00 L330.50,237.00 L326.00,242.50 L322.50,244.00 L323.50,249.00 L322.50,250.00 L322.50,254.00 L321.50,256.00 L317.00,260.50 L312.50,263.00 L312.50,269.00 L310.50,273.00 L307.00,276.50 L300.50,279.00 L300.50,283.00 L297.50,289.00 L293.00,292.50 L287.00,293.50 L285.50,299.00 L281.00,304.50 L277.00,306.50 L271.00,306.50 L269.50,309.00 L269.50,311.00 L264.00,316.50 L259.00,317.50 L258.00,318.50 L254.00,317.50 L251.50,322.00 L246.00,326.50 L244.00,326.50 L243.00,327.50 L237.00,327.50 L235.00,326.50 L230.00,332.50 L226.00,334.50 L219.00,334.50 L218.00,333.50 L215.00,333.50 L211.00,337.50 L206.00,339.50 L201.00,339.50 L195.00,336.50 L191.00,340.50 L189.00,340.50 L188.00,341.50 L180.00,341.50 L176.00,338.50 L174.00,338.50 L169.00,341.50 L161.00,341.50 L157.00,339.50 L154.00,336.50 L148.00,339.50 L143.00,339.50 L142.00,338.50 L140.00,338.50 L136.00,335.50 L134.00,332.50 L130.00,334.50 L124.00,334.50 L123.00,333.50 L121.00,333.50 L114.00,326.50 L112.00,327.50 L106.00,327.50 L102.00,325.50 L97.50,321.00 L96.00,317.50 L91.00,318.50 L90.00,317.50 L85.00,316.50 L81.50,313.00 L79.50,310.00 L79.50,308.00 L78.00,306.50 L73.00,306.50 L72.00,305.50 L70.00,305.50 L64.50,300.00 L63.00,293.50 L59.00,293.50 L55.00,291.50 L50.50,287.00 L50.50,285.00 L49.50,284.00 L49.50,279.00 L44.00,277.50 L40.50,275.00 L36.50,267.00 L36.50,262.00 L30.00,258.50 L27.50,255.00 L27.50,253.00 L26.50,252.00 L26.50,244.00 L25.00,243.50 L18.50,236.00 L18.50,227.00 L19.50,225.00 L14.50,221.00 L12.50,217.00 L12.50,209.00 L14.50,205.00 L12.50,204.00 L8.50,197.00 L8.50,191.00 L11.50,186.00 L7.50,178.00 L7.50,171.00 L11.50,165.00 L8.50,158.00 L8.50,153.00 L10.50,148.00 L14.50,144.00 L12.50,140.00 L12.50,132.00 L19.50,124.00 L18.50,122.00 L18.50,114.00 L20.50,110.00 L27.50,105.00 L26.50,104.00 L26.50,97.00 L28.50,93.00 L32.00,89.50 L36.50,87.00 L36.50,83.00 L37.50,82.00 L38.50,77.00 L43.00,72.50 L49.50,70.00 L49.50,65.00 L51.50,61.00 L54.00,58.50 L58.00,56.50 L63.00,55.50 L63.50,52.00 L65.50,48.00 L68.00,45.50 L71.00,43.50 L79.00,42.50 L80.50,38.00 L86.00,32.50 L88.00,32.50 L89.00,31.50 L96.00,31.50 L98.50,27.00 L101.00,24.50 L105.00,22.50 L115.00,22.50 L115.50,21.00 L122.00,15.50 L128.00,14.50 L129.00,15.50 L134.00,16.50 L138.00,12.50 L142.00,10.50 L150.00,10.50 L153.00,12.50 L155.00,12.50 L158.00,9.50Z M160.50,10.00 L169.00,9.50 L173.50,13.00 L169.50,17.00 L165.00,24.50 L162.50,20.00 L155.50,14.00Z M180.50,10.00 L188.00,9.50 L193.50,13.00 L193.50,14.00 L184.00,24.50 L181.50,19.00 L176.50,13.00 L177.00,11.50Z M142.50,12.00 L148.00,11.50 L153.50,14.00 L149.50,19.00 L148.50,23.00 L146.00,26.50 L135.50,17.00 L139.00,13.50Z M200.50,12.00 L206.00,11.50 L207.00,12.50 L209.00,12.50 L213.50,17.00 L203.00,26.50 L200.50,20.00 L196.50,14.00Z M174.50,14.00 L175.00,13.50 L177.50,16.00 L183.50,26.00 L178.50,35.00 L178.50,37.00 L176.50,40.00 L175.00,45.50 L173.50,44.00 L171.50,36.00 L166.50,27.00 L166.50,25.00 L168.50,21.00Z M194.50,15.00 L195.00,14.50 L197.50,18.00 L200.50,24.00 L201.50,29.00 L194.50,39.00 L191.00,47.50 L188.50,35.00 L185.50,28.00 L185.50,25.00Z M153.50,16.00 L155.00,15.50 L157.00,16.50 L164.50,26.00 L160.50,37.00 L159.50,45.00 L158.00,46.50 L155.50,40.00 L147.50,28.00Z M123.50,17.00 L130.00,16.50 L133.50,18.00 L130.50,23.00 L128.00,31.50 L125.00,28.50 L116.50,23.00 L120.00,18.50Z M218.50,17.00 L225.00,16.50 L226.00,17.50 L228.00,17.50 L233.50,23.00 L226.00,27.50 L222.00,31.50 L220.50,30.00 L219.50,24.00 L216.50,19.00 L216.50,18.00Z M134.50,19.00 L135.00,18.50 L138.00,20.50 L145.50,28.00 L144.50,38.00 L143.50,39.00 L143.50,47.00 L142.00,49.50 L134.50,38.00 L129.50,33.00 L130.50,27.00Z M214.50,19.00 L215.50,19.00 L217.50,23.00 L217.50,25.00 L219.50,29.00 L219.50,33.00 L207.00,49.50 L205.50,36.00 L204.50,35.00 L204.50,31.00 L203.50,29.00 L209.00,22.50Z M106.50,24.00 L112.00,23.50 L113.50,25.00 L110.00,38.50 L108.00,36.50 L97.50,32.00 L99.50,28.00 L102.00,25.50Z M237.50,24.00 L243.00,23.50 L247.00,25.50 L250.50,29.00 L251.50,32.00 L243.00,35.50 L239.00,38.50 L237.50,29.00 L235.50,25.00Z M233.50,25.00 L234.50,25.00 L234.50,27.00 L236.50,31.00 L237.50,40.00 L236.00,40.50 L223.50,53.00 L223.00,54.50 L222.50,38.00 L221.50,37.00 L221.50,34.00 L227.00,28.50Z M114.50,26.00 L117.00,25.50 L121.00,27.50 L127.50,33.00 L127.00,54.50 L122.50,50.00 L122.50,49.00 L112.50,40.00 L112.50,33.00 L113.50,32.00Z M165.50,29.00 L166.50,29.00 L168.50,33.00 L168.50,35.00 L170.50,38.00 L170.50,40.00 L172.50,43.00 L172.50,46.00 L173.50,47.00 L173.50,53.00 L171.50,58.00 L170.50,70.00 L169.50,71.00 L169.00,81.50 L167.50,74.00 L166.50,73.00 L166.50,70.00 L165.50,69.00 L165.50,66.00 L164.50,65.00 L164.50,62.00 L159.50,50.00 L160.50,49.00 L161.50,39.00Z M183.50,29.00 L184.50,29.00 L186.50,34.00 L186.50,37.00 L188.50,42.00 L188.50,46.00 L189.50,47.00 L189.50,51.00 L184.50,64.00 L184.50,67.00 L182.50,71.00 L182.50,75.00 L181.50,76.00 L181.00,80.50 L180.50,75.00 L179.50,74.00 L178.50,61.00 L177.50,60.00 L177.50,56.00 L176.50,55.00 L175.50,48.00 L176.50,47.00 L178.50,39.00 L180.50,36.00 L180.50,34.00Z M201.50,31.00 L202.50,31.00 L203.50,38.00 L204.50,39.00 L204.50,48.00 L205.50,49.00 L205.50,53.00 L197.50,68.00 L197.50,70.00 L195.50,73.00 L193.00,81.50 L191.50,49.00Z M146.50,32.00 L148.00,31.50 L149.50,33.00 L158.50,50.00 L158.50,52.00 L157.50,53.00 L157.50,65.00 L156.50,66.00 L156.50,75.00 L157.50,76.00 L157.00,82.50 L155.50,77.00 L153.50,74.00 L153.50,72.00 L151.50,69.00 L151.50,67.00 L144.50,54.00 L144.50,43.00 L145.50,42.00Z M91.50,33.00 L94.00,32.50 L95.50,34.00 L94.50,36.00 L94.00,47.50 L88.00,44.50 L82.00,43.50 L80.50,42.00 L81.50,39.00 L86.00,34.50Z M255.50,33.00 L258.00,32.50 L259.00,33.50 L264.00,34.50 L268.50,40.00 L268.50,43.00 L259.00,45.50 L256.00,47.50 L255.50,39.00 L254.50,38.00 L254.50,34.00Z M96.50,34.00 L98.00,33.50 L99.00,34.50 L101.00,34.50 L108.00,38.50 L110.50,41.00 L110.50,50.00 L111.50,51.00 L111.50,57.00 L112.50,58.00 L112.00,61.50 L107.00,56.50 L95.50,48.00 L95.50,39.00 L96.50,38.00Z M250.50,34.00 L252.00,33.50 L253.50,36.00 L253.50,49.00 L246.00,53.50 L238.00,60.50 L237.50,55.00 L238.50,54.00 L238.50,41.00 L243.00,37.50Z M129.50,36.00 L130.00,35.50 L136.50,43.00 L142.50,53.00 L143.50,73.00 L144.50,74.00 L144.50,80.00 L145.50,81.00 L145.00,84.50 L139.50,73.00 L129.50,58.00 L129.50,55.00 L128.50,54.00 L128.50,38.00Z M219.50,36.00 L220.50,36.00 L220.50,58.00 L213.50,67.00 L205.00,83.50 L204.50,78.00 L205.50,77.00 L205.50,69.00 L206.50,68.00 L206.50,53.00 L214.50,41.00Z M112.50,43.00 L113.00,42.50 L125.50,55.00 L128.50,60.00 L128.50,66.00 L129.50,67.00 L129.50,71.00 L130.50,72.00 L132.50,83.00 L134.50,87.00 L134.00,88.50 L124.50,75.00 L114.50,64.00 L113.50,54.00 L112.50,53.00Z M235.50,43.00 L237.50,43.00 L237.50,49.00 L236.50,50.00 L235.50,62.00 L233.50,66.00 L226.50,73.00 L220.50,81.00 L216.00,88.50 L215.50,86.00 L216.50,85.00 L216.50,82.00 L217.50,81.00 L217.50,78.00 L218.50,77.00 L218.50,74.00 L220.50,69.00 L221.50,59.00 L226.50,52.00Z M72.50,45.00 L78.50,45.00 L78.50,48.00 L77.50,49.00 L77.50,51.00 L78.50,52.00 L78.00,58.50 L73.00,56.50 L69.00,56.50 L68.00,55.50 L64.50,55.00 L65.50,51.00 L67.50,48.00Z M79.50,45.00 L83.00,44.50 L84.00,45.50 L89.00,46.50 L94.50,50.00 L95.50,59.00 L98.50,67.00 L98.00,69.50 L80.50,59.00 L80.50,57.00 L79.50,56.00Z M266.50,45.00 L269.50,45.00 L269.50,59.00 L259.00,64.50 L251.00,70.50 L250.50,69.00 L252.50,65.00 L255.50,50.00 L263.00,45.50Z M271.50,45.00 L276.00,44.50 L277.00,45.50 L279.00,45.50 L283.50,50.00 L284.50,55.00 L271.00,58.50Z M252.50,51.00 L253.50,51.00 L253.50,54.00 L252.50,55.00 L252.50,59.00 L251.50,60.00 L251.50,63.00 L250.50,64.00 L248.50,72.00 L244.00,76.50 L243.00,76.50 L227.00,93.50 L226.50,91.00 L229.50,86.00 L230.50,81.00 L232.50,78.00 L235.50,66.00 L246.00,55.50Z M96.50,52.00 L98.00,51.50 L102.00,54.50 L113.50,65.00 L118.50,82.00 L123.50,92.00 L123.00,93.50 L103.00,73.50 L101.50,73.00 L99.50,68.00 L99.50,65.00 L97.50,61.00 L97.50,58.00 L96.50,57.00Z M174.50,54.00 L175.50,54.00 L175.50,58.00 L176.50,59.00 L176.50,63.00 L177.50,64.00 L178.50,81.00 L179.50,82.00 L179.50,92.00 L178.50,93.00 L178.50,101.00 L177.50,102.00 L177.50,122.00 L176.50,123.00 L177.50,124.00 L177.50,126.00 L176.50,127.00 L176.50,133.00 L175.50,134.00 L175.00,138.50 L173.50,135.00 L173.50,130.00 L172.50,129.00 L172.50,108.00 L171.50,107.00 L171.50,97.00 L170.50,96.00 L170.50,76.00 L171.50,75.00 L171.50,67.00 L172.50,66.00 L172.50,61.00 L173.50,60.00 L173.50,56.00Z M189.50,54.00 L190.50,54.00 L190.50,67.00 L191.50,68.00 L191.50,73.00 L190.50,74.00 L190.50,90.00 L189.50,91.00 L189.50,94.00 L187.50,99.00 L187.50,103.00 L185.50,108.00 L185.50,113.00 L184.50,114.00 L184.50,119.00 L183.50,120.00 L183.50,127.00 L181.50,131.00 L180.50,137.00 L179.00,138.50 L178.50,124.00 L179.50,123.00 L179.50,114.00 L180.50,113.00 L180.50,90.00 L181.50,89.00 L182.50,78.00 L183.50,77.00 L185.50,66.00 L186.50,65.00Z M159.50,55.00 L160.50,55.00 L160.50,57.00 L163.50,64.00 L163.50,67.00 L164.50,68.00 L164.50,71.00 L166.50,76.00 L166.50,80.00 L167.50,81.00 L167.50,85.00 L168.50,86.00 L168.50,106.00 L169.50,107.00 L169.50,118.00 L170.50,119.00 L170.00,139.50 L169.50,136.00 L166.50,129.00 L164.50,111.00 L163.50,110.00 L162.50,101.00 L161.50,100.00 L161.50,97.00 L159.50,92.00 L159.50,85.00 L158.50,84.00 L158.50,58.00 L159.50,57.00Z M204.50,57.00 L205.50,57.00 L205.50,61.00 L204.50,62.00 L204.50,73.00 L203.50,74.00 L203.50,80.00 L202.50,81.00 L201.50,90.00 L192.50,114.00 L192.50,117.00 L190.50,121.00 L189.50,128.00 L184.00,139.50 L183.50,134.00 L184.50,133.00 L184.50,126.00 L185.50,125.00 L185.50,122.00 L187.50,117.00 L187.50,113.00 L188.50,112.00 L188.50,108.00 L189.50,107.00 L189.50,103.00 L190.50,102.00 L191.50,90.00 L192.50,89.00 L193.50,83.00 L196.50,77.00 L197.50,72.00Z M59.50,58.00 L62.50,58.00 L62.50,62.00 L63.50,63.00 L64.50,71.00 L51.00,70.50 L50.50,67.00 L51.50,66.00 L51.50,64.00 L57.00,58.50Z M64.50,58.00 L70.00,57.50 L79.50,61.00 L79.50,63.00 L80.50,64.00 L82.50,72.00 L84.50,75.00 L84.50,77.00 L86.50,80.00 L86.00,80.50 L74.00,74.50 L72.00,74.50 L66.50,72.00 L65.50,66.00 L64.50,65.00Z M144.50,58.00 L145.50,58.00 L149.50,66.00 L149.50,68.00 L152.50,73.00 L152.50,75.00 L157.50,88.00 L158.50,98.00 L159.50,99.00 L159.50,105.00 L160.50,106.00 L161.50,115.00 L162.50,116.00 L162.50,119.00 L163.50,120.00 L163.50,123.00 L165.50,128.00 L165.00,138.50 L160.50,129.00 L158.50,119.00 L157.50,118.00 L152.50,101.00 L150.50,98.00 L150.50,96.00 L148.50,92.00 L147.50,84.00 L146.50,83.00 L146.50,77.00 L145.50,76.00 L145.50,69.00 L144.50,68.00Z M278.50,58.00 L285.50,58.00 L283.50,71.00 L280.00,73.50 L273.00,75.50 L264.00,80.50 L263.50,79.00 L267.50,71.00 L267.50,69.00 L269.50,65.00 L269.50,62.00 L272.00,59.50Z M286.50,58.00 L290.00,57.50 L294.00,59.50 L296.50,62.00 L298.50,66.00 L298.00,70.50 L289.00,70.50 L288.00,71.50 L284.50,71.00 L285.50,66.00 L286.50,65.00Z M81.50,62.00 L82.00,61.50 L91.00,66.50 L100.50,74.00 L102.50,78.00 L102.50,80.00 L112.50,98.00 L112.00,99.50 L111.00,99.50 L105.00,93.50 L97.00,87.50 L89.50,83.00 L82.50,68.00Z M267.50,62.00 L268.00,61.50 L268.50,63.00 L267.50,64.00 L265.50,72.00 L260.50,82.00 L258.00,84.50 L247.00,91.50 L236.00,101.50 L235.50,100.00 L240.50,93.00 L246.50,81.00 L246.50,79.00 L248.50,75.00 L257.00,67.50Z M130.50,63.00 L131.50,63.00 L137.50,74.00 L139.50,76.00 L147.50,93.00 L148.50,99.00 L150.50,103.00 L150.50,106.00 L151.50,107.00 L155.50,121.00 L159.50,129.00 L160.50,137.00 L161.50,138.00 L161.00,140.50 L157.50,136.00 L153.50,128.00 L153.50,126.00 L150.50,121.00 L150.50,119.00 L137.50,94.00 L137.50,92.00 L135.50,88.00 L135.50,85.00 L133.50,81.00 L132.50,74.00 L131.50,73.00Z M218.50,63.00 L219.50,63.00 L219.50,65.00 L218.50,66.00 L218.50,71.00 L217.50,72.00 L215.50,83.00 L214.50,84.00 L211.50,95.00 L198.50,120.00 L196.50,127.00 L189.00,140.50 L188.50,136.00 L189.50,135.00 L189.50,131.00 L197.50,111.00 L197.50,108.00 L199.50,104.00 L201.50,94.00 L209.50,77.00 L211.50,75.00 L213.50,70.00Z M116.50,69.00 L117.50,69.00 L117.50,70.00 L126.50,80.00 L137.50,97.00 L138.50,101.00 L140.50,104.00 L140.50,106.00 L144.50,113.00 L144.50,115.00 L154.50,133.00 L154.50,135.00 L156.50,139.00 L156.00,141.50 L149.50,134.00 L141.50,119.00 L133.50,107.00 L130.50,104.00 L122.50,88.00 L122.50,86.00 L120.50,83.00Z M231.50,70.00 L232.50,70.00 L232.50,73.00 L231.50,74.00 L230.50,79.00 L219.50,103.00 L210.50,115.00 L209.50,118.00 L205.50,123.00 L203.50,128.00 L201.50,130.00 L198.50,136.00 L193.00,142.50 L192.50,140.00 L195.50,134.00 L195.50,132.00 L204.50,116.00 L204.50,114.00 L208.50,107.00 L208.50,105.00 L210.50,102.00 L210.50,100.00 L212.50,96.00 L224.50,78.00Z M50.50,72.00 L57.00,71.50 L58.00,72.50 L63.00,72.50 L65.00,73.50 L67.50,77.00 L67.50,79.00 L69.50,83.00 L75.50,92.00 L74.00,92.50 L65.00,88.50 L55.00,86.50 L51.50,79.00Z M291.50,72.00 L298.50,72.00 L298.50,77.00 L295.50,85.00 L292.00,87.50 L285.00,88.50 L275.00,92.50 L274.50,91.00 L279.50,84.00 L283.50,74.00 L286.00,72.50Z M46.50,73.00 L49.50,73.00 L49.50,77.00 L50.50,78.00 L50.50,81.00 L52.50,84.00 L52.50,86.00 L50.00,86.50 L49.00,85.50 L45.00,85.50 L44.00,86.50 L39.00,86.50 L38.50,81.00 L40.50,77.00 L43.00,74.50Z M300.50,73.00 L302.00,72.50 L303.00,73.50 L305.00,73.50 L309.50,78.00 L311.50,83.00 L311.00,86.50 L306.00,86.50 L305.00,85.50 L301.00,85.50 L300.00,86.50 L296.50,86.00 L299.50,79.00Z M67.50,75.00 L70.00,74.50 L73.00,76.50 L75.00,76.50 L88.00,83.50 L93.50,92.00 L94.50,95.00 L105.50,109.00 L104.00,109.50 L98.00,104.50 L95.00,103.50 L88.00,98.50 L79.00,94.50 L73.50,87.00Z M279.50,75.00 L281.00,74.50 L281.50,76.00 L276.50,86.00 L274.50,88.00 L273.50,91.00 L269.00,95.50 L258.00,100.50 L248.00,107.50 L245.50,108.00 L257.50,91.00 L260.50,85.00 L263.00,82.50 L266.00,81.50 L270.00,78.50 L272.00,78.50 L277.00,75.50Z M103.50,77.00 L104.00,76.50 L120.50,93.00 L120.50,94.00 L128.50,103.00 L136.50,118.00 L149.50,136.00 L153.50,144.00 L153.00,145.50 L143.50,136.00 L133.50,122.00 L119.50,107.00 L114.50,98.00 L112.50,96.00 L109.50,89.00 L107.50,87.00Z M244.50,78.00 L245.00,77.50 L245.50,79.00 L237.50,95.00 L235.50,97.00 L234.50,100.00 L228.50,109.00 L218.50,119.00 L203.50,139.00 L197.00,144.50 L196.50,143.00 L200.50,135.00 L203.50,132.00 L213.50,117.00 L222.50,101.00 L232.50,90.00 L232.50,89.00Z M203.50,84.00 L204.50,84.00 L204.00,85.50Z M91.50,87.00 L93.00,86.50 L100.00,91.50 L120.50,110.00 L130.50,124.00 L144.50,139.00 L148.50,145.00 L149.00,147.50 L144.00,144.50 L126.00,126.50 L125.00,126.50 L118.00,119.50 L117.00,119.50 L108.50,111.00 L108.50,110.00 L98.50,98.00 L93.50,89.00Z M256.50,87.00 L257.00,86.50 L257.50,88.00 L249.50,100.00 L243.50,108.00 L237.50,114.00 L237.50,115.00 L230.00,121.50 L229.00,121.50 L207.00,143.50 L201.00,147.50 L200.50,146.00 L204.50,140.00 L221.50,121.00 L227.50,112.00 L241.00,98.50Z M40.50,88.00 L53.00,87.50 L56.50,92.00 L57.50,95.00 L65.50,105.00 L63.00,105.50 L62.00,104.50 L53.00,103.50 L52.00,102.50 L45.00,102.50 L39.50,93.00 L39.50,90.00 L38.50,89.00Z M295.50,88.00 L309.00,87.50 L310.50,89.00 L309.50,94.00 L306.50,100.00 L304.00,102.50 L298.00,102.50 L297.00,103.50 L292.00,103.50 L291.00,104.50 L284.00,105.50 L283.50,105.00 L292.50,94.00Z M36.50,89.00 L37.50,89.00 L38.50,94.00 L42.50,102.00 L35.00,102.50 L34.00,103.50 L29.00,104.50 L28.50,96.00 L33.00,90.50Z M56.50,89.00 L59.00,88.50 L63.00,90.50 L66.00,90.50 L78.00,95.50 L85.50,106.00 L97.50,118.00 L96.00,118.50 L83.00,111.50 L70.00,107.50 L61.50,98.00Z M290.50,89.00 L293.00,88.50 L292.50,91.00 L286.50,100.00 L279.00,107.50 L269.00,110.50 L255.00,117.50 L253.50,117.00 L266.50,103.00 L266.50,102.00 L273.00,94.50Z M312.50,90.00 L314.00,89.50 L316.00,90.50 L320.50,95.00 L320.50,97.00 L321.50,98.00 L321.00,104.50 L316.00,103.50 L315.00,102.50 L306.50,102.00 L309.50,98.00 L309.50,96.00Z M266.50,98.00 L268.50,98.00 L264.50,102.00 L264.50,103.00 L254.50,113.00 L254.50,114.00 L253.00,114.50 L243.00,124.50 L227.00,134.50 L211.00,147.50 L208.00,148.50 L204.00,151.50 L202.50,151.00 L211.00,141.50 L219.00,135.50 L240.00,114.50 L256.00,103.50Z M82.50,99.00 L84.00,98.50 L90.00,101.50 L112.00,116.50 L113.50,119.00 L125.00,130.50 L126.00,130.50 L134.00,138.50 L135.00,138.50 L144.50,148.00 L145.50,150.00 L144.00,150.50 L140.00,148.50 L121.00,133.50 L104.00,122.50 L87.50,106.00Z M38.50,104.00 L44.00,103.50 L47.50,109.00 L57.50,119.00 L48.00,119.50 L47.00,118.50 L40.00,118.50 L39.00,119.50 L37.00,119.50 L32.50,114.00 L29.50,108.00 L29.50,106.00 L33.00,104.50Z M45.50,104.00 L55.00,104.50 L56.00,105.50 L60.00,105.50 L61.00,106.50 L64.00,106.50 L69.00,108.50 L82.00,121.50 L83.00,121.50 L90.50,128.00 L89.00,128.50 L79.00,124.50 L76.00,124.50 L72.00,122.50 L61.00,120.50Z M305.50,104.00 L310.00,103.50 L311.00,104.50 L317.00,104.50 L320.50,106.00 L315.50,116.00 L312.00,119.50 L310.00,118.50 L293.00,119.50 L292.50,119.00 L299.50,112.00Z M294.50,105.00 L302.00,104.50 L302.50,106.00 L295.50,113.00 L295.50,114.00 L288.00,120.50 L278.00,122.50 L277.00,123.50 L274.00,123.50 L261.00,128.50 L258.50,128.00 L264.00,124.50 L270.00,118.50 L271.00,118.50 L282.00,107.50Z M321.50,107.00 L324.00,107.50 L329.50,114.00 L329.50,122.00 L328.00,123.50 L325.00,121.50 L314.50,119.00 L319.50,113.00 L321.50,109.00Z M25.50,108.00 L27.00,107.50 L28.50,109.00 L30.50,114.00 L34.50,119.00 L31.00,120.50 L28.00,120.50 L21.00,123.50 L19.50,120.00 L19.50,116.00 L22.50,110.00Z M275.50,110.00 L277.50,110.00 L271.00,116.50 L270.00,116.50 L264.00,122.50 L252.00,130.50 L249.00,133.50 L247.00,133.50 L235.00,139.50 L233.00,141.50 L228.00,143.50 L226.00,145.50 L223.00,146.50 L214.00,152.50 L212.00,152.50 L209.00,154.50 L206.50,154.00 L212.00,148.50 L229.00,137.50 L245.00,124.50 L266.00,113.50 L268.00,113.50Z M73.50,111.00 L76.00,110.50 L77.00,111.50 L79.00,111.50 L103.00,123.50 L119.00,136.50 L123.00,138.50 L129.00,143.50 L135.00,146.50 L144.50,155.00 L143.00,155.50 L140.00,153.50 L138.00,153.50 L130.00,149.50 L120.00,142.50 L99.00,132.50 L96.00,129.50 L88.00,124.50 L83.00,119.50 L82.00,119.50Z M34.50,121.00 L36.00,120.50 L46.00,130.50 L52.50,135.00 L30.00,136.50 L23.50,129.00 L21.50,125.00 L26.00,122.50Z M38.50,121.00 L53.00,120.50 L54.00,121.50 L60.00,121.50 L70.00,129.50 L85.50,139.00 L82.00,139.50 L77.00,137.50 L65.00,136.50 L64.00,135.50 L56.00,135.50 L46.00,128.50Z M296.50,121.00 L311.50,121.00 L301.00,130.50 L294.00,135.50 L285.00,135.50 L284.00,136.50 L278.00,136.50 L277.00,137.50 L273.00,137.50 L272.00,138.50 L268.00,138.50 L267.00,139.50 L263.50,139.00 L269.00,136.50 L281.00,128.50 L288.00,122.50 L290.00,121.50Z M313.50,121.00 L320.00,121.50 L321.00,122.50 L326.00,123.50 L327.50,125.00 L324.50,131.00 L319.00,136.50 L296.50,135.00 L306.00,128.50Z M65.50,124.00 L69.00,123.50 L70.00,124.50 L77.00,125.50 L78.00,126.50 L89.00,129.50 L92.00,131.50 L94.00,131.50 L102.00,135.50 L114.00,143.50 L133.00,152.50 L141.50,159.00 L140.00,159.50 L136.00,157.50 L130.00,156.50 L123.00,152.50 L121.00,152.50 L111.00,147.50 L97.00,143.50 L82.00,135.50Z M279.50,124.00 L283.50,124.00 L274.00,131.50 L252.00,143.50 L241.00,146.50 L219.00,156.50 L217.00,156.50 L213.00,158.50 L210.00,158.50 L209.00,159.50 L207.50,159.00 L218.00,151.50 L222.00,150.50 L230.00,146.50 L232.00,144.50 L239.00,141.50 L251.00,133.50 L253.00,133.50 L258.00,130.50Z M19.50,126.00 L20.50,126.00 L21.50,129.00 L28.50,137.00 L16.00,142.50 L13.50,138.00 L13.50,134.00 L15.50,130.00Z M328.50,127.00 L331.00,126.50 L333.50,129.00 L335.50,133.00 L335.50,140.00 L334.00,142.50 L320.50,137.00 L326.50,131.00Z M40.50,137.00 L55.00,136.50 L59.00,139.50 L64.00,141.50 L66.00,143.50 L83.50,151.00 L51.00,150.50 L42.00,145.50 L33.50,139.00 L34.00,137.50Z M176.50,137.00 L177.50,137.00 L177.00,146.50 L175.50,146.00Z M181.50,137.00 L182.50,137.00 L182.00,138.50Z M293.50,137.00 L308.00,136.50 L309.00,137.50 L316.00,137.50 L316.00,139.50 L306.00,146.50 L298.00,150.50 L266.50,151.00 L287.00,141.50Z M60.50,138.00 L68.00,137.50 L69.00,138.50 L74.00,138.50 L75.00,139.50 L79.00,139.50 L80.00,140.50 L91.00,142.50 L92.00,143.50 L97.00,144.50 L106.00,149.50 L113.00,151.50 L116.00,153.50 L130.00,157.50 L139.50,163.00 L135.00,163.50 L134.00,162.50 L129.00,162.50 L128.00,161.50 L126.00,161.50 L122.00,159.50 L119.00,159.50 L115.00,157.50 L112.00,157.50 L111.00,156.50 L108.00,156.50 L103.00,154.50 L99.00,154.50 L98.00,153.50 L94.00,153.50 L93.00,152.50 L85.00,150.50 L82.00,148.50 L80.00,148.50 L62.00,139.50Z M167.50,138.00 L168.50,138.00 L168.50,140.00 L170.50,144.00 L169.00,146.50 L167.50,144.00Z M281.50,138.00 L289.00,137.50 L289.00,138.50 L274.00,146.50 L272.00,146.50 L262.00,151.50 L260.00,151.50 L256.00,153.50 L251.00,153.50 L246.00,155.50 L242.00,155.50 L241.00,156.50 L231.00,158.50 L221.00,162.50 L216.00,162.50 L215.00,163.50 L209.50,163.00 L220.00,157.50 L236.00,152.50 L246.00,147.50 L248.00,147.50 L255.00,143.50 L258.00,143.50 L266.00,140.50 L270.00,140.50 L271.00,139.50Z M28.50,139.00 L30.00,138.50 L32.00,139.50 L39.00,145.50 L47.50,150.00 L46.00,151.50 L35.00,152.50 L27.00,155.50 L23.00,151.50 L22.00,151.50 L16.50,145.00 L19.00,142.50Z M318.50,139.00 L320.00,138.50 L321.00,139.50 L326.00,140.50 L332.50,144.00 L332.50,146.00 L325.00,153.50 L322.00,155.50 L314.00,152.50 L304.00,151.50 L302.50,150.00 L312.00,144.50Z M171.50,140.00 L173.50,140.00 L173.00,147.50 L171.50,144.00Z M180.50,140.00 L181.50,140.00 L181.50,145.00 L180.00,147.50 L179.50,143.00 L180.50,142.00Z M185.50,140.00 L186.50,140.00 L186.50,142.00 L185.50,143.00 L185.50,146.00 L184.00,147.50 L183.50,144.00Z M158.50,141.00 L159.50,141.00 L159.00,142.50Z M163.50,141.00 L164.50,141.00 L166.50,145.00 L166.00,148.50 L163.50,145.00Z M156.50,142.00 L157.50,142.00 L157.00,143.50Z M189.50,142.00 L190.50,142.00 L190.00,143.50Z M159.50,143.00 L160.00,142.50 L162.50,146.00 L162.00,148.50 L159.50,145.00Z M188.50,144.00 L189.50,144.00 L189.50,147.00 L187.00,149.50 L186.50,147.00Z M193.50,144.00 L194.00,143.50 L194.50,145.00 L192.50,149.00 L190.00,151.50 L189.50,150.00Z M155.50,145.00 L156.00,144.50 L159.50,148.00 L159.00,150.50 L157.50,150.00Z M14.50,146.00 L15.00,145.50 L17.50,149.00 L25.50,156.00 L21.00,157.50 L13.00,163.50 L10.50,159.00 L10.50,152.00Z M333.50,146.00 L334.00,145.50 L337.50,149.00 L339.50,153.00 L339.50,158.00 L337.00,162.50 L335.00,162.50 L332.00,159.50 L324.50,156.00 L333.50,147.00Z M151.50,147.00 L152.00,146.50 L156.50,151.00 L156.00,152.50 L153.50,151.00Z M195.50,148.00 L197.50,148.00 L193.00,153.50 L192.50,152.00Z M162.50,149.00 L163.50,149.00 L163.00,150.50Z M167.50,149.00 L168.50,149.00 L168.00,150.50Z M174.50,149.00 L175.50,149.00 L175.00,151.50Z M177.50,149.00 L178.50,149.00 L178.00,151.50Z M147.50,150.00 L149.00,149.50 L153.00,152.50 L154.50,155.00 L153.00,155.50Z M164.50,150.00 L165.50,150.00 L165.00,151.50Z M171.50,150.00 L172.50,150.00 L172.00,152.50Z M180.50,150.00 L181.50,150.00 L181.00,152.50Z M168.50,151.00 L169.50,151.00 L169.00,152.50Z M183.50,151.00 L184.50,151.00 L184.00,152.50Z M198.50,151.00 L200.00,150.50 L200.50,152.00 L196.00,155.50 L195.50,154.00Z M54.50,152.00 L72.00,151.50 L73.00,152.50 L90.00,153.50 L91.00,154.50 L94.00,154.50 L104.00,158.50 L129.00,163.50 L139.50,168.00 L129.00,168.50 L128.00,167.50 L123.00,167.50 L122.00,166.50 L117.00,166.50 L116.00,165.50 L110.00,165.50 L109.00,164.50 L90.00,163.50 L89.00,162.50 L85.00,162.50 L77.00,159.50 L74.00,159.50Z M165.50,152.00 L166.50,152.00 L166.00,153.50Z M186.50,152.00 L187.00,151.50 L187.50,153.00 L186.00,154.50 L185.50,153.00Z M276.50,152.00 L294.00,151.50 L294.00,152.50 L272.00,160.50 L269.00,160.50 L268.00,161.50 L265.00,161.50 L260.00,163.50 L241.00,164.50 L240.00,165.50 L234.00,165.50 L233.00,166.50 L221.00,167.50 L220.00,168.50 L209.50,168.00 L221.00,163.50 L229.00,162.50 L234.00,160.50 L238.00,160.50 L242.00,158.50 L249.00,157.50 L260.00,153.50Z M42.50,153.00 L53.00,152.50 L66.00,158.50 L82.50,163.00 L64.00,163.50 L63.00,164.50 L56.00,164.50 L55.00,165.50 L51.00,165.50 L50.00,166.50 L44.00,163.50 L42.00,163.50 L29.50,157.00 L30.00,155.50Z M162.50,153.00 L163.50,153.00 L163.00,154.50Z M203.50,153.00 L205.50,153.00 L203.00,155.50 L199.00,158.50 L197.50,158.00 L199.00,155.50Z M296.50,153.00 L306.00,152.50 L307.00,153.50 L312.00,153.50 L313.00,154.50 L316.00,154.50 L319.50,156.00 L319.50,157.00 L316.00,159.50 L305.00,164.50 L303.00,164.50 L300.00,166.50 L299.00,165.50 L286.00,164.50 L285.00,163.50 L267.50,163.00 L289.00,156.50 L294.00,153.50Z M145.50,154.00 L147.00,153.50 L149.00,154.50 L152.50,158.00 L151.00,158.50 L149.00,157.50Z M159.50,154.00 L160.00,153.50 L161.50,155.00 L161.00,156.50Z M175.50,154.00 L176.50,154.00 L176.00,155.50Z M180.50,155.00 L181.50,155.00 L181.00,156.50Z M191.50,156.00 L192.00,155.50 L192.50,157.00 L191.00,158.50 L190.50,157.00Z M24.50,158.00 L28.00,157.50 L32.00,160.50 L38.00,163.50 L40.00,163.50 L45.50,167.00 L33.00,170.50 L27.00,173.50 L25.00,173.50 L20.00,170.50 L14.50,165.00 L16.00,162.50Z M143.50,158.00 L145.00,157.50 L146.00,158.50 L148.00,158.50 L150.50,161.00 L148.00,161.50Z M203.50,158.00 L206.00,157.50 L206.00,158.50 L201.00,161.50 L199.50,161.00Z M320.50,158.00 L325.00,157.50 L332.00,161.50 L335.50,165.00 L331.00,169.50 L325.00,173.50 L322.00,173.50 L314.00,169.50 L304.50,167.00 L305.00,165.50 L307.00,165.50Z M155.50,159.00 L156.00,158.50 L157.50,160.00 L156.00,160.50Z M192.50,159.00 L194.50,159.00 L193.00,160.50Z M152.50,161.00 L154.00,160.50 L155.50,162.00 L154.00,162.50Z M141.50,162.00 L145.00,161.50 L148.50,164.00 L145.00,164.50Z M204.50,162.00 L208.00,161.50 L208.00,162.50 L204.00,164.50 L200.50,164.00Z M151.50,164.00 L153.00,163.50 L154.50,165.00 L153.00,165.50Z M196.50,164.00 L198.50,164.00 L197.00,165.50 L195.50,165.00Z M70.50,165.00 L91.00,164.50 L92.00,165.50 L102.00,166.50 L103.00,167.50 L109.00,167.50 L110.00,168.50 L129.00,169.50 L130.00,170.50 L137.50,172.00 L136.00,173.50 L81.00,173.50 L80.00,172.50 L74.00,172.50 L73.00,171.50 L64.00,170.50 L63.00,169.50 L60.00,169.50 L59.00,168.50 L54.00,167.50 L54.00,166.50 L59.00,166.50 L60.00,165.50Z M258.50,165.00 L279.00,164.50 L280.00,165.50 L296.00,166.50 L296.00,167.50 L294.00,167.50 L290.00,169.50 L286.00,169.50 L285.00,170.50 L276.00,171.50 L275.00,172.50 L269.00,172.50 L268.00,173.50 L213.00,173.50 L211.50,172.00 L215.00,171.50 L216.00,170.50 L220.00,170.50 L221.00,169.50 L239.00,168.50 L240.00,167.50 L247.00,167.50 L248.00,166.50 L253.00,166.50 L254.00,165.50Z M12.50,166.00 L13.00,165.50 L13.50,167.00 L20.00,172.50 L23.50,174.00 L22.00,176.50 L18.00,178.50 L13.00,183.50 L10.50,181.00 L8.50,176.00 L9.50,170.00Z M139.50,166.00 L145.00,165.50 L148.50,168.00 L145.00,168.50Z M204.50,166.00 L210.50,166.00 L205.00,168.50 L200.50,168.00Z M335.50,167.00 L337.00,166.50 L339.50,169.00 L339.50,171.00 L340.50,172.00 L340.50,178.00 L337.00,183.50 L330.00,177.50 L325.50,175.00 L331.00,171.50Z M48.50,168.00 L50.00,167.50 L54.00,169.50 L57.00,169.50 L58.00,170.50 L61.00,170.50 L66.00,172.50 L76.00,173.50 L77.00,174.50 L80.50,175.00 L68.00,176.50 L67.00,177.50 L56.00,179.50 L52.00,181.50 L46.00,181.50 L45.00,180.50 L42.00,180.50 L41.00,179.50 L33.00,177.50 L28.50,175.00 L32.00,172.50 L34.00,172.50 L44.00,168.50Z M172.50,168.00 L177.00,167.50 L179.00,168.50 L181.50,172.00 L181.50,178.00 L178.00,181.50 L172.00,181.50 L170.00,180.50 L167.50,177.00 L167.50,173.00 L168.50,171.00Z M298.50,168.00 L301.00,167.50 L302.00,168.50 L309.00,169.50 L310.00,170.50 L315.00,171.50 L318.00,173.50 L320.00,173.50 L321.50,175.00 L307.00,180.50 L304.00,180.50 L303.00,181.50 L298.00,181.50 L297.00,180.50 L287.00,178.50 L286.00,177.50 L269.50,175.00 L273.00,173.50 L284.00,172.50 L285.00,171.50 L292.00,170.50Z M136.50,170.00 L144.00,169.50 L147.50,171.00 L144.00,172.50 L143.00,171.50Z M204.50,170.00 L213.50,170.00 L210.00,170.50 L209.00,171.50 L203.00,171.50 L202.50,171.00Z M140.50,174.00 L145.00,173.50 L147.50,175.00 L137.00,175.50 L137.00,174.50Z M204.50,174.00 L208.00,173.50 L209.00,174.50 L212.50,175.00 L203.00,175.50 L202.50,175.00Z M25.50,176.00 L26.00,175.50 L34.00,179.50 L46.50,183.00 L41.00,185.50 L39.00,185.50 L33.00,188.50 L31.00,190.50 L26.00,192.50 L18.00,188.50 L14.50,185.00 L14.50,184.00 L18.00,180.50Z M84.50,176.00 L97.00,175.50 L98.00,176.50 L118.00,176.50 L119.00,175.50 L131.00,175.50 L132.00,176.50 L139.50,177.00 L132.00,178.50 L131.00,179.50 L127.00,179.50 L126.00,180.50 L106.00,181.50 L105.00,182.50 L100.00,182.50 L99.00,183.50 L94.00,183.50 L93.00,184.50 L65.00,184.50 L64.00,183.50 L57.00,183.50 L55.00,182.50 L55.00,181.50 L65.00,179.50 L66.00,178.50 L70.00,178.50 L71.00,177.50Z M217.50,176.00 L231.00,175.50 L232.00,176.50 L251.00,176.50 L252.00,175.50 L264.00,175.50 L265.00,176.50 L272.00,176.50 L273.00,177.50 L278.00,177.50 L279.00,178.50 L288.00,179.50 L289.00,180.50 L295.50,182.00 L293.00,183.50 L286.00,183.50 L285.00,184.50 L256.00,184.50 L255.00,183.50 L244.00,182.50 L243.00,181.50 L218.00,179.50 L217.00,178.50 L209.50,177.00Z M322.50,176.00 L324.00,175.50 L326.00,177.50 L329.00,178.50 L335.50,185.00 L333.00,187.50 L330.00,188.50 L326.00,191.50 L322.00,192.50 L320.00,190.50 L303.50,183.00 L318.00,178.50Z M142.50,178.00 L147.50,178.00 L146.00,179.50 L139.00,179.50 L139.00,178.50Z M202.50,178.00 L207.00,177.50 L208.00,178.50 L211.50,179.00 L204.00,179.50Z M124.50,182.00 L138.00,181.50 L138.50,182.00 L136.00,183.50 L134.00,183.50 L127.00,186.50 L123.00,186.50 L122.00,187.50 L118.00,187.50 L117.00,188.50 L106.00,190.50 L105.00,191.50 L99.00,192.50 L92.00,195.50 L79.00,196.50 L78.00,197.50 L56.50,197.00 L61.00,194.50 L63.00,194.50 L79.00,188.50 L86.00,187.50 L87.00,186.50 L93.00,186.50 L94.00,185.50 L105.00,185.50 L106.00,184.50 L112.00,184.50 L113.00,183.50 L119.00,183.50 L120.00,182.50Z M142.50,182.00 L147.00,181.50 L147.50,182.00 L146.00,183.50 L142.00,183.50 L141.00,184.50 L137.50,184.00Z M201.50,182.00 L206.00,181.50 L211.50,184.00 L209.00,184.50 L208.00,183.50 L204.00,183.50Z M210.50,182.00 L224.00,181.50 L225.00,182.50 L230.00,182.50 L231.00,183.50 L236.00,183.50 L237.00,184.50 L262.00,186.50 L263.00,187.50 L274.00,189.50 L293.50,197.00 L272.00,197.50 L271.00,196.50 L257.00,195.50 L256.00,194.50 L254.00,194.50 L247.00,191.50 L244.00,191.50 L240.00,189.50 L232.00,188.50 L231.00,187.50 L227.00,187.50 L226.00,186.50 L222.00,186.50 L216.00,183.50Z M47.50,184.00 L52.00,183.50 L53.00,184.50 L59.00,184.50 L60.00,185.50 L69.00,185.50 L70.00,186.50 L80.50,187.00 L62.00,192.50 L52.00,197.50 L47.00,197.50 L46.00,196.50 L40.00,196.50 L39.00,195.50 L32.00,194.50 L29.50,193.00 L31.00,191.50Z M296.50,184.00 L301.00,183.50 L302.00,184.50 L304.00,184.50 L317.00,190.50 L320.50,193.00 L314.00,195.50 L303.00,196.50 L302.00,197.50 L298.00,197.50 L285.00,191.50 L269.50,187.00 L279.00,186.50 L280.00,185.50 L290.00,185.50 L291.00,184.50Z M145.50,185.00 L149.00,184.50 L149.50,185.00 L148.00,186.50 L143.00,188.50 L140.50,188.00Z M200.50,185.00 L203.00,184.50 L209.50,188.00 L207.00,188.50 L206.00,187.50 L203.00,187.50Z M137.50,186.00 L140.00,185.50 L140.00,186.50 L131.00,191.50 L115.00,196.50 L112.00,198.50 L105.00,200.50 L96.00,205.50 L86.00,207.50 L85.00,208.50 L82.00,208.50 L81.00,209.50 L72.00,210.50 L71.00,211.50 L65.00,211.50 L64.00,212.50 L59.50,212.00 L61.00,210.50 L79.00,201.50 L81.00,201.50 L89.00,197.50 L96.00,196.50 L97.00,195.50 L101.00,195.50 L102.00,194.50 L105.00,194.50 L110.00,192.50 L113.00,192.50 L114.00,191.50 L120.00,190.50 L127.00,187.50Z M208.50,186.00 L211.00,185.50 L212.00,186.50 L218.00,186.50 L219.00,187.50 L222.00,187.50 L233.00,191.50 L236.00,191.50 L240.00,193.50 L244.00,193.50 L249.00,195.50 L257.00,196.50 L258.00,197.50 L263.00,198.50 L266.00,200.50 L268.00,200.50 L273.00,203.50 L275.00,203.50 L290.50,212.00 L286.00,212.50 L285.00,211.50 L279.00,211.50 L278.00,210.50 L273.00,210.50 L272.00,209.50 L268.00,209.50 L267.00,208.50 L260.00,207.50 L259.00,206.50 L254.00,205.50 L249.00,202.50 L247.00,202.50 L242.00,199.50 L235.00,197.50 L232.00,195.50 L221.00,192.50Z M12.50,187.00 L15.00,187.50 L20.00,191.50 L24.00,192.50 L25.50,194.00 L24.00,194.50 L15.00,203.50 L10.50,198.00 L10.50,190.00Z M193.50,187.00 L195.00,186.50 L196.50,188.00 L195.00,188.50Z M335.50,187.00 L337.00,186.50 L338.50,189.00 L339.50,196.00 L337.50,201.00 L334.00,203.50 L332.50,201.00 L324.50,194.00Z M146.50,189.00 L149.50,189.00 L147.00,191.50 L145.00,191.50 L144.00,192.50 L142.50,192.00Z M199.50,189.00 L202.00,188.50 L206.50,192.00 L205.00,192.50Z M192.50,190.00 L194.00,189.50 L194.50,191.00 L194.00,191.50Z M137.50,191.00 L141.50,191.00 L134.00,196.50 L115.00,205.50 L113.00,207.50 L108.00,209.50 L103.00,213.50 L95.00,217.50 L85.00,220.50 L82.00,222.50 L79.00,222.50 L78.00,223.50 L68.00,225.50 L67.00,226.50 L65.50,226.00 L78.00,216.50 L96.00,206.50 L107.00,203.50 L110.00,201.50 L112.00,201.50 L115.00,199.50 L122.00,197.50 L131.00,192.50 L134.00,192.50Z M208.50,191.00 L211.00,190.50 L212.00,191.50 L215.00,191.50 L216.00,192.50 L221.00,193.50 L230.00,198.50 L232.00,198.50 L240.00,202.50 L251.00,205.50 L270.00,215.50 L284.50,226.00 L282.00,226.50 L281.00,225.50 L274.00,224.50 L273.00,223.50 L262.00,220.50 L254.00,216.50 L252.00,216.50 L243.00,210.50 L240.00,209.50 L238.00,207.50 L231.00,204.50 L229.00,202.50 L217.00,197.50Z M149.50,192.00 L151.50,192.00 L150.00,194.50 L146.00,196.50 L144.50,196.00Z M157.50,192.00 L159.50,192.00 L158.00,193.50Z M197.50,192.00 L200.00,191.50 L203.50,195.00 L202.00,195.50Z M153.50,194.00 L154.00,193.50 L154.50,195.00 L151.00,198.50 L150.00,198.50 L149.50,197.00Z M159.50,194.00 L161.50,194.00 L160.00,195.50Z M170.50,194.00 L171.50,194.00 L171.00,195.50Z M188.50,194.00 L189.50,194.00 L189.00,195.50Z M194.50,194.00 L196.00,193.50 L201.50,199.00 L200.00,199.50 L197.00,197.50Z M26.50,195.00 L29.00,194.50 L33.00,196.50 L37.00,196.50 L38.00,197.50 L48.50,199.00 L43.00,201.50 L31.00,210.50 L28.00,210.50 L27.00,209.50 L22.00,208.50 L16.50,205.00 L17.50,203.00 L25.00,195.50Z M141.50,195.00 L143.50,195.00 L138.00,200.50 L121.00,211.50 L102.00,226.50 L80.00,237.50 L78.00,237.50 L75.00,239.50 L72.50,239.00 L85.00,227.50 L100.00,216.50 L119.00,207.50 L131.00,199.50Z M185.50,195.00 L186.00,194.50 L187.50,196.00 L187.00,197.50Z M205.50,195.00 L208.00,194.50 L213.00,197.50 L215.00,197.50 L227.00,205.50 L232.00,207.50 L234.00,209.50 L246.00,215.50 L248.00,215.50 L267.00,229.50 L276.50,239.00 L275.00,239.50 L269.00,236.50 L267.00,236.50 L244.00,224.50 L239.00,219.50 L227.00,210.50 L214.00,202.50Z M319.50,195.00 L323.00,194.50 L327.00,198.50 L328.00,198.50 L332.50,204.00 L331.00,206.50 L322.00,210.50 L318.00,210.50 L314.00,206.50 L301.50,199.00 L306.00,198.50 L307.00,197.50 L312.00,197.50 L313.00,196.50 L316.00,196.50Z M162.50,196.00 L163.50,196.00 L163.00,197.50Z M182.50,196.00 L183.00,195.50 L184.50,197.00 L184.00,198.50Z M155.50,197.00 L156.50,197.00 L156.50,199.00 L153.00,201.50 L152.50,200.00Z M165.50,197.00 L166.50,197.00 L166.00,198.50Z M168.50,197.00 L169.50,197.00 L169.00,199.50Z M171.50,197.00 L172.50,197.00 L172.00,199.50Z M192.50,197.00 L194.00,196.50 L196.50,199.00 L197.50,201.00 L197.00,202.50 L192.50,198.00Z M145.50,198.00 L147.50,198.00 L141.50,204.00 L141.50,205.00 L131.00,214.50 L130.00,214.50 L110.00,234.50 L91.00,247.50 L83.00,251.50 L81.50,251.00 L94.50,237.00 L94.50,236.00 L107.00,224.50 L110.00,223.50 L119.00,217.50 L136.00,203.50 L139.00,202.50Z M174.50,198.00 L175.50,198.00 L175.00,200.50Z M177.50,198.00 L178.50,198.00 L178.00,201.50Z M180.50,198.00 L181.50,198.00 L181.00,200.50Z M73.50,199.00 L81.00,198.50 L81.00,199.50 L65.00,206.50 L56.00,212.50 L37.00,212.50 L36.00,211.50 L32.50,211.00 L50.00,199.50Z M158.50,199.00 L159.50,199.00 L159.50,201.00 L156.00,205.50 L155.50,203.00Z M189.50,199.00 L190.00,198.50 L192.50,200.00 L194.50,204.00 L194.00,205.50 L190.50,202.00Z M203.50,199.00 L205.00,198.50 L209.00,201.50 L212.00,202.50 L225.00,213.50 L246.00,227.50 L261.50,243.00 L267.50,251.00 L266.00,251.50 L257.00,246.50 L255.00,244.50 L252.00,243.50 L237.00,232.50 L235.50,230.00 L224.00,218.50 L223.00,218.50 L215.00,210.50 L214.00,210.50 L204.50,201.00Z M267.50,199.00 L276.00,198.50 L277.00,199.50 L299.00,199.50 L310.00,205.50 L316.50,211.00 L313.00,212.50 L294.00,212.50 L288.00,208.50Z M162.50,200.00 L163.00,199.50 L163.50,201.00 L160.00,207.50 L159.50,204.00Z M186.50,200.00 L187.00,199.50 L189.50,203.00 L189.50,205.00 L190.50,206.00 L190.00,208.50 L188.50,205.00 L186.50,203.00Z M165.50,201.00 L166.50,201.00 L166.50,205.00 L164.00,209.50 L163.50,205.00Z M148.50,202.00 L149.00,201.50 L149.50,203.00 L145.50,209.00 L132.50,223.00 L121.50,238.00 L108.00,251.50 L93.00,262.50 L92.50,261.00 L93.50,259.00 L99.50,250.00 L111.50,236.00 L111.50,235.00 L120.00,227.50 L121.00,227.50 L142.00,206.50Z M172.50,202.00 L173.50,202.00 L173.00,210.50 L171.50,210.00 L171.50,205.00 L172.50,204.00Z M179.50,202.00 L180.00,201.50 L181.50,204.00 L181.00,210.50 L179.50,207.00Z M183.50,202.00 L184.00,201.50 L185.50,204.00 L185.50,207.00 L186.50,208.00 L186.00,210.50 L183.50,206.00Z M199.50,202.00 L201.00,201.50 L209.00,208.50 L210.00,208.50 L210.50,210.00 L224.00,223.50 L225.00,223.50 L232.00,230.50 L233.00,230.50 L240.50,238.00 L240.50,239.00 L248.50,248.00 L256.50,260.00 L257.00,262.50 L253.00,260.50 L245.00,253.50 L244.00,253.50 L228.50,239.00 L223.50,231.00 L205.50,211.00Z M168.50,203.00 L169.00,202.50 L170.50,205.00 L168.00,211.50 L167.50,205.00Z M175.50,204.00 L177.50,204.00 L177.00,213.50Z M196.50,205.00 L197.00,204.50 L206.50,214.00 L208.50,218.00 L212.50,222.00 L216.50,228.00 L229.50,242.00 L235.50,251.00 L237.50,256.00 L239.50,258.00 L245.50,270.00 L245.00,272.50 L228.50,256.00 L228.50,255.00 L220.50,246.00 L214.50,234.00 L204.50,219.00 L201.50,216.00Z M151.50,206.00 L152.00,205.50 L152.50,207.00 L148.50,215.00 L137.50,230.00 L127.50,248.00 L116.50,260.00 L116.50,261.00 L107.00,270.50 L105.00,271.50 L104.50,269.00 L110.50,257.00 L112.50,255.00 L118.50,244.00 L135.50,225.00 L145.50,211.00Z M15.50,207.00 L16.00,206.50 L23.00,210.50 L28.50,212.00 L28.50,213.00 L22.50,219.00 L20.00,223.50 L16.50,221.00 L13.50,215.00 L13.50,211.00Z M156.50,207.00 L157.00,206.50 L157.50,208.00 L156.50,209.00 L155.50,214.00 L153.50,217.00 L153.50,219.00 L151.50,221.00 L142.50,239.00 L142.50,241.00 L139.50,246.00 L139.50,248.00 L135.50,256.00 L124.50,272.00 L117.00,280.50 L116.50,278.00 L117.50,277.00 L119.50,269.00 L129.50,247.00 L132.50,244.00 L142.50,229.00 L148.50,217.00Z M332.50,207.00 L334.00,206.50 L335.50,210.00 L335.50,217.00 L334.50,219.00 L330.00,223.50 L329.00,223.50 L327.50,220.00 L320.50,212.00 L329.00,209.50Z M187.50,208.00 L188.50,208.00 L188.00,209.50Z M192.50,208.00 L193.00,207.50 L199.50,215.00 L209.50,233.00 L220.50,248.00 L229.50,268.00 L229.50,270.00 L233.50,280.00 L233.00,281.50 L220.50,266.00 L215.50,257.00 L213.50,255.00 L209.50,247.00 L207.50,240.00 L197.50,220.00 L195.50,218.00Z M160.50,209.00 L161.50,209.00 L161.50,212.00 L160.50,213.00 L159.50,220.00 L152.50,237.00 L152.50,240.00 L149.50,247.00 L147.50,257.00 L137.50,277.00 L131.00,286.50 L130.50,281.00 L132.50,276.00 L132.50,272.00 L134.50,268.00 L134.50,265.00 L135.50,264.00 L138.50,253.00 L142.50,247.00 L148.50,235.00 L148.50,233.00 L151.50,228.00 L151.50,226.00 L154.50,221.00 L154.50,219.00Z M165.50,209.00 L166.50,209.00 L166.00,210.50Z M162.50,210.00 L163.50,210.00 L163.00,211.50Z M183.50,210.00 L184.50,210.00 L185.50,214.00 L188.50,219.00 L189.50,225.00 L191.50,229.00 L191.50,232.00 L192.50,233.00 L197.50,250.00 L200.50,256.00 L200.50,259.00 L202.50,264.00 L202.50,269.00 L203.50,270.00 L203.50,276.00 L204.50,277.00 L204.50,287.00 L205.50,288.00 L205.00,292.50 L198.50,280.00 L198.50,278.00 L196.50,275.00 L196.50,273.00 L191.50,260.00 L189.50,242.00 L188.50,241.00 L187.50,232.00 L186.50,231.00 L186.50,228.00 L184.50,223.00Z M188.50,210.00 L189.50,210.00 L192.50,216.00 L194.50,218.00 L195.50,222.00 L197.50,225.00 L197.50,227.00 L201.50,234.00 L201.50,236.00 L206.50,246.00 L208.50,248.00 L210.50,252.00 L210.50,254.00 L212.50,257.00 L213.50,263.00 L217.50,274.00 L217.50,278.00 L218.50,279.00 L218.50,283.00 L219.50,284.00 L219.00,287.50 L211.50,276.00 L202.50,258.00 L202.50,256.00 L200.50,252.00 L200.50,249.00 L199.50,248.00 L199.50,245.00 L189.50,218.00Z M262.50,210.00 L265.00,209.50 L270.00,211.50 L275.00,211.50 L276.00,212.50 L281.00,212.50 L282.00,213.50 L290.00,213.50 L291.00,214.50 L294.00,214.50 L303.00,220.50 L310.50,228.00 L309.00,229.50 L303.00,229.50 L302.00,228.50 L293.00,228.50 L292.00,227.50 L289.00,227.50 L273.00,215.50Z M79.50,211.00 L84.00,210.50 L84.50,211.00 L83.00,212.50 L72.00,218.50 L61.00,227.50 L58.00,227.50 L57.00,228.50 L47.00,228.50 L46.00,229.50 L41.00,229.50 L38.50,228.00 L43.00,223.50 L55.00,214.50 L59.00,214.50 L60.00,213.50 L68.00,213.50 L69.00,212.50 L74.00,212.50 L75.00,211.50Z M164.50,211.00 L165.50,211.00 L165.50,221.00 L164.50,222.00 L164.50,225.00 L162.50,230.00 L162.50,234.00 L160.50,239.00 L160.50,244.00 L159.50,245.00 L159.50,250.00 L158.50,251.00 L158.50,258.00 L156.50,262.00 L156.50,265.00 L155.50,266.00 L154.50,271.00 L150.50,279.00 L150.50,281.00 L145.00,291.50 L144.50,281.00 L145.50,280.00 L145.50,273.00 L146.50,272.00 L146.50,267.00 L147.50,266.00 L148.50,257.00 L153.50,246.00 L153.50,244.00 L156.50,237.00 L156.50,234.00 L158.50,230.00 L158.50,227.00 L160.50,223.00 L160.50,220.00 L163.50,215.00Z M169.50,211.00 L170.50,211.00 L170.50,230.00 L169.50,231.00 L169.50,242.00 L168.50,243.00 L168.50,263.00 L167.50,264.00 L167.50,269.00 L165.50,274.00 L164.50,282.00 L163.50,283.00 L160.00,294.50 L158.50,291.00 L158.50,265.00 L159.50,264.00 L159.50,257.00 L160.50,256.00 L160.50,253.00 L161.50,252.00 L161.50,249.00 L163.50,244.00 L163.50,239.00 L164.50,238.00 L164.50,234.00 L165.50,233.00 L166.50,221.00 L167.50,220.00 L167.50,217.00 L168.50,216.00Z M174.50,211.00 L175.50,211.00 L176.50,223.00 L177.50,224.00 L176.50,226.00 L177.50,227.00 L177.50,248.00 L178.50,249.00 L178.50,257.00 L179.50,258.00 L178.50,278.00 L177.50,279.00 L177.50,285.00 L176.50,286.00 L176.50,291.00 L175.50,292.00 L175.00,296.50 L173.50,293.00 L172.50,283.00 L171.50,282.00 L171.50,275.00 L170.50,274.00 L170.50,254.00 L171.50,253.00 L171.50,242.00 L172.50,241.00 L172.50,220.00 L173.50,219.00 L173.50,214.00 L174.50,213.00Z M178.50,211.00 L179.00,210.50 L180.50,213.00 L180.50,215.00 L182.50,219.00 L182.50,222.00 L183.50,223.00 L184.50,236.00 L185.50,237.00 L186.50,246.00 L187.50,247.00 L187.50,250.00 L189.50,255.00 L189.50,259.00 L190.50,260.00 L190.50,275.00 L191.50,276.00 L191.50,281.00 L190.50,282.00 L190.00,295.50 L186.50,287.00 L185.50,281.00 L184.50,280.00 L183.50,272.00 L182.50,271.00 L182.50,267.00 L181.50,266.00 L181.50,261.00 L180.50,260.00 L180.50,236.00 L179.50,235.00 L179.50,227.00 L178.50,226.00Z M181.50,211.00 L182.50,211.00 L182.00,213.50Z M30.50,213.00 L32.00,212.50 L33.00,213.50 L51.50,215.00 L44.00,221.50 L43.00,221.50 L36.00,228.50 L32.00,228.50 L31.00,227.50 L25.00,226.50 L21.50,224.00 L24.50,219.00Z M316.50,213.00 L319.00,212.50 L327.50,223.00 L327.00,225.50 L325.00,225.50 L322.00,227.50 L319.00,227.50 L318.00,228.50 L313.00,228.50 L304.00,219.50 L297.50,215.00 L309.00,214.50 L310.00,213.50Z M258.50,221.00 L260.00,220.50 L263.00,222.50 L265.00,222.50 L272.00,225.50 L275.00,225.50 L276.00,226.50 L279.00,226.50 L284.00,228.50 L288.00,228.50 L303.50,245.00 L298.00,245.50 L297.00,244.50 L292.00,244.50 L291.00,243.50 L281.00,241.50 L267.00,227.50 L266.00,227.50Z M86.50,222.00 L89.50,222.00 L80.00,230.50 L79.00,230.50 L68.00,241.50 L66.00,241.50 L62.00,243.50 L58.00,243.50 L57.00,244.50 L52.00,244.50 L51.00,245.50 L46.50,245.00 L53.50,237.00 L53.50,236.00 L62.00,228.50 L74.00,226.50 L75.00,225.50Z M20.50,227.00 L22.00,226.50 L29.00,229.50 L34.50,230.00 L27.00,242.50 L25.00,241.50 L20.50,236.00 L20.50,234.00 L19.50,233.00Z M326.50,227.00 L328.00,226.50 L329.50,228.00 L329.50,235.00 L326.50,240.00 L322.00,242.50 L315.50,230.00 L320.00,229.50Z M53.50,230.00 L57.50,230.00 L50.50,237.00 L50.50,238.00 L44.00,245.50 L35.00,245.50 L34.00,244.50 L31.00,244.50 L29.50,243.00 L29.50,241.00 L31.50,237.00 L37.00,230.50Z M291.50,230.00 L313.00,230.50 L318.50,238.00 L320.50,243.00 L314.00,245.50 L306.00,245.50Z M94.50,232.00 L96.50,232.00 L89.50,239.00 L89.50,240.00 L83.50,246.00 L83.50,247.00 L77.00,254.50 L61.00,260.50 L56.50,260.00 L60.50,253.00 L69.00,242.50 L71.00,242.50 L82.00,237.50 L84.00,237.50Z M252.50,232.00 L254.00,231.50 L268.00,238.50 L270.00,238.50 L273.00,240.50 L280.00,242.50 L287.50,251.00 L293.50,261.00 L285.00,259.50 L284.00,258.50 L279.00,257.50 L274.00,254.50 L272.00,254.50 L263.50,243.00Z M103.50,241.00 L104.00,240.50 L104.50,242.00 L98.50,249.00 L90.50,261.00 L89.50,264.00 L86.00,267.50 L74.00,273.50 L72.00,273.50 L71.00,274.50 L68.50,274.00 L68.50,272.00 L71.50,266.00 L73.50,264.00 L76.50,258.00 L80.00,254.50 L89.00,250.50Z M244.50,241.00 L246.00,240.50 L259.00,249.50 L270.00,254.50 L272.50,257.00 L276.50,265.00 L278.50,267.00 L281.50,275.00 L281.00,275.50 L273.00,271.50 L271.00,271.50 L267.00,268.50 L262.00,266.50 L252.50,251.00Z M64.50,244.00 L66.50,244.00 L61.50,249.00 L54.00,261.50 L49.00,261.50 L48.00,262.50 L46.00,262.50 L45.00,261.50 L38.50,261.00 L40.50,254.00 L45.00,247.50 L47.00,247.50 L48.00,246.50 L55.00,246.50 L56.00,245.50 L60.00,245.50 L61.00,244.50Z M284.50,245.00 L289.00,244.50 L294.00,246.50 L301.00,246.50 L302.00,247.50 L305.00,247.50 L306.50,251.00 L308.50,253.00 L308.50,255.00 L310.50,258.00 L310.50,261.00 L305.00,261.50 L304.00,262.50 L302.00,262.50 L301.00,261.50 L296.00,261.50 L289.50,251.00Z M320.50,245.00 L321.50,245.00 L321.50,252.00 L319.50,256.00 L317.00,258.50 L313.00,260.50 L311.50,259.00 L310.50,254.00 L307.50,248.00 L311.00,247.50 L312.00,246.50 L317.00,246.50Z M28.50,246.00 L32.00,245.50 L33.00,246.50 L38.00,246.50 L39.00,247.50 L42.50,248.00 L38.50,255.00 L37.00,260.50 L34.00,259.50 L29.50,255.00 L28.50,253.00Z M112.50,249.00 L113.00,248.50 L113.50,250.00 L110.50,254.00 L101.50,272.00 L100.50,276.00 L90.00,283.50 L82.00,287.50 L81.50,285.00 L88.50,268.00 L103.00,257.50Z M236.50,250.00 L239.00,250.50 L249.00,259.50 L260.50,267.00 L265.50,278.00 L265.50,280.00 L267.50,283.00 L268.00,287.50 L261.00,284.50 L248.50,275.00 L248.50,273.00Z M225.50,255.00 L226.50,255.00 L226.00,256.50Z M122.50,256.00 L123.00,255.50 L123.50,257.00 L117.50,270.00 L113.50,284.00 L104.00,293.50 L97.00,298.50 L96.50,293.00 L97.50,292.00 L98.50,285.00 L101.50,277.00 L105.00,273.50 L106.00,273.50Z M226.50,257.00 L227.00,256.50 L248.50,278.00 L250.50,283.00 L251.50,290.00 L252.50,291.00 L252.50,295.00 L253.50,296.00 L253.00,298.50 L243.00,291.50 L235.50,284.00 L235.50,281.00Z M72.50,258.00 L74.00,257.50 L74.50,259.00 L71.50,263.00 L66.50,273.00 L66.50,275.00 L65.00,276.50 L62.00,276.50 L61.00,277.50 L50.50,277.00 L51.50,271.00 L55.00,262.50 L63.00,261.50Z M274.50,258.00 L277.00,257.50 L283.00,260.50 L294.00,262.50 L295.50,264.00 L295.50,266.00 L298.50,272.00 L298.50,277.00 L289.00,277.50 L288.00,276.50 L285.00,276.50 L283.50,275.00 L277.50,262.00Z M214.50,260.00 L215.50,260.00 L215.00,261.50Z M133.50,261.00 L134.50,261.00 L134.00,262.50Z M215.50,262.00 L216.00,261.50 L217.50,263.00 L224.50,274.00 L234.50,285.00 L235.50,292.00 L236.50,293.00 L236.50,299.00 L237.50,300.00 L237.00,307.50 L221.50,291.00 L219.50,276.00 L218.50,275.00 L218.50,272.00 L217.50,271.00 L217.50,268.00 L216.50,267.00Z M38.50,263.00 L40.00,262.50 L41.00,263.50 L52.50,264.00 L49.50,272.00 L49.00,277.50 L44.00,275.50 L39.50,271.00 L38.50,269.00Z M132.50,263.00 L133.50,263.00 L133.50,266.00 L130.50,274.00 L130.50,278.00 L129.50,279.00 L129.50,283.00 L128.50,284.00 L128.50,289.00 L127.50,290.00 L127.50,292.00 L113.00,307.50 L112.50,296.00 L113.50,295.00 L114.50,286.00 L126.50,272.00Z M309.50,263.00 L311.50,263.00 L311.50,266.00 L310.50,267.00 L309.50,272.00 L304.00,276.50 L302.00,276.50 L301.00,277.50 L299.50,270.00 L296.50,264.00Z M203.50,265.00 L204.50,265.00 L204.00,266.50Z M144.50,266.00 L145.50,266.00 L145.50,269.00 L144.50,270.00 L144.50,275.00 L143.50,276.00 L142.50,297.00 L134.50,309.00 L130.00,313.50 L128.50,311.00 L128.50,296.00 L129.50,295.00 L129.50,291.00 L137.50,280.00Z M156.50,267.00 L157.50,267.00 L156.50,283.00 L157.50,284.00 L157.50,297.00 L158.50,299.00 L153.50,310.00 L151.50,312.00 L148.50,318.00 L147.00,318.50 L146.50,314.00 L145.50,313.00 L145.50,308.00 L144.50,307.00 L144.50,296.00 L153.50,278.00Z M204.50,267.00 L205.50,267.00 L208.50,274.00 L220.50,292.00 L220.00,314.50 L213.50,307.00 L206.50,296.00 L206.50,281.00 L205.50,280.00Z M85.50,269.00 L86.00,268.50 L86.50,270.00 L81.50,280.00 L79.50,288.00 L76.00,290.50 L65.00,292.50 L64.50,285.00 L65.50,284.00 L66.50,278.00 L68.00,276.50 L73.00,275.50Z M168.50,269.00 L169.50,269.00 L169.50,279.00 L170.50,280.00 L170.50,286.00 L171.50,287.00 L171.50,291.00 L172.50,292.00 L172.50,296.00 L173.50,297.00 L173.50,303.00 L172.50,304.00 L170.50,312.00 L166.50,320.00 L165.00,320.50 L162.50,314.00 L159.50,299.00 L161.50,296.00 L161.50,294.00 L165.50,284.00Z M192.50,269.00 L193.50,269.00 L193.50,271.00 L198.50,282.00 L198.50,284.00 L205.50,297.00 L205.50,301.00 L204.50,302.00 L204.50,310.00 L203.50,311.00 L203.50,316.00 L202.00,318.50 L195.50,309.00 L191.50,300.00 L191.50,293.00 L192.50,292.00Z M180.50,270.00 L181.50,270.00 L181.50,274.00 L182.50,275.00 L183.50,282.00 L185.50,286.00 L185.50,289.00 L189.50,298.00 L188.50,308.00 L187.50,309.00 L187.50,312.00 L184.00,321.50 L179.50,313.00 L179.50,311.00 L177.50,308.00 L176.50,302.00 L175.50,301.00 L176.50,295.00 L177.50,294.00 L177.50,290.00 L178.50,289.00 L178.50,284.00 L179.50,283.00 L179.50,275.00 L180.50,274.00Z M263.50,270.00 L265.00,269.50 L274.00,274.50 L281.00,276.50 L283.50,279.00 L283.50,281.00 L284.50,282.00 L284.50,287.00 L285.50,288.00 L285.00,292.50 L277.00,291.50 L270.50,289.00 L266.50,276.00Z M63.50,278.00 L65.50,278.00 L63.50,282.00 L63.50,287.00 L62.50,288.00 L62.00,292.50 L61.00,291.50 L56.00,290.50 L52.50,287.00 L50.50,280.00 L58.00,279.50 L59.00,278.50Z M284.50,278.00 L291.00,278.50 L292.00,279.50 L298.00,279.50 L298.50,284.00 L297.50,286.00 L293.00,290.50 L288.00,291.50 L287.00,292.50 L286.50,284.00 L285.50,283.00Z M97.50,280.00 L98.50,280.00 L98.50,282.00 L95.50,290.00 L94.50,300.00 L85.00,304.50 L81.00,304.50 L80.00,305.50 L79.50,294.00 L80.50,293.00 L80.50,290.00 L88.00,286.50Z M250.50,280.00 L252.00,279.50 L258.00,284.50 L261.00,285.50 L269.50,291.00 L269.00,305.50 L268.00,304.50 L262.00,303.50 L255.50,300.00 L254.50,298.00 L253.50,288.00Z M129.50,287.00 L130.50,287.00 L130.00,288.50Z M236.50,288.00 L237.00,287.50 L243.00,293.50 L253.50,301.00 L253.50,313.00 L252.00,315.50 L250.00,315.50 L238.50,309.00 L238.50,296.00 L237.50,295.00 L237.50,290.00Z M111.50,289.00 L112.50,289.00 L112.50,292.00 L111.50,293.00 L111.50,299.00 L110.50,300.00 L110.50,309.00 L106.00,312.50 L100.00,315.50 L97.00,315.50 L96.50,312.00 L95.50,311.00 L95.50,301.00 L100.00,298.50Z M77.50,291.00 L78.50,291.00 L78.50,298.00 L77.50,299.00 L78.50,301.00 L78.50,305.00 L75.00,305.50 L70.00,303.50 L66.50,300.00 L64.50,294.00 L71.00,293.50Z M270.50,291.00 L278.00,292.50 L279.00,293.50 L284.50,294.00 L284.50,297.00 L281.00,302.50 L275.00,305.50 L271.50,305.00 L271.50,293.00Z M126.50,295.00 L127.50,295.00 L127.50,316.00 L123.00,320.50 L116.00,324.50 L114.50,323.00 L113.50,317.00 L112.50,316.00 L112.50,310.00 L125.50,297.00Z M222.50,296.00 L223.00,295.50 L226.50,299.00 L226.50,300.00 L237.50,310.00 L236.50,319.00 L234.00,324.50 L225.00,319.50 L221.50,316.00 L221.50,313.00 L222.50,312.00Z M206.50,300.00 L207.50,300.00 L211.50,307.00 L219.50,316.00 L218.50,324.00 L215.00,330.50 L212.00,329.50 L203.50,321.00 L204.50,315.00 L205.50,314.00Z M141.50,301.00 L142.00,300.50 L143.50,302.00 L143.50,311.00 L144.50,312.00 L145.50,321.00 L140.00,327.50 L135.00,330.50 L131.50,325.00 L129.50,317.00 L136.50,309.00Z M93.50,302.00 L94.50,302.00 L94.50,314.00 L95.50,316.00 L89.00,316.50 L85.00,314.50 L82.50,312.00 L80.50,307.00 L89.00,304.50Z M190.50,303.00 L191.50,303.00 L196.50,314.00 L201.50,321.00 L199.50,328.00 L195.00,334.50 L189.50,330.00 L185.50,324.00 L185.50,321.00 L188.50,314.00Z M255.50,303.00 L257.00,302.50 L260.00,304.50 L269.50,307.00 L267.50,311.00 L263.00,315.50 L261.00,315.50 L260.00,316.50 L253.50,316.00 L255.50,311.00Z M157.50,304.00 L159.50,304.00 L159.50,308.00 L160.50,309.00 L161.50,316.00 L164.50,322.00 L164.50,324.00 L155.00,334.50 L150.50,329.00 L147.50,321.00 L153.50,313.00Z M174.50,304.00 L175.50,304.00 L179.50,317.00 L183.50,323.00 L178.50,332.00 L175.00,335.50 L174.00,335.50 L169.50,330.00 L166.50,324.00 L166.50,322.00 L169.50,318.00 L169.50,316.00 L172.50,311.00Z M238.50,311.00 L239.00,310.50 L244.00,314.50 L248.00,316.50 L250.00,316.50 L251.50,318.00 L248.00,323.50 L244.00,325.50 L235.50,325.00 L238.50,317.00Z M108.50,312.00 L110.00,311.50 L111.50,314.00 L111.50,319.00 L113.50,323.00 L113.00,325.50 L105.00,325.50 L103.00,324.50 L97.50,318.00Z M126.50,319.00 L128.50,319.00 L130.50,327.00 L132.50,330.00 L132.00,332.50 L128.00,332.50 L127.00,333.50 L126.00,332.50 L123.00,332.50 L116.50,327.00 L117.00,325.50 L123.00,322.50Z M220.50,319.00 L222.00,318.50 L228.00,323.50 L233.00,325.50 L232.50,328.00 L227.00,332.50 L224.00,332.50 L223.00,333.50 L218.00,332.50 L216.50,331.00 L218.50,328.00 L218.50,326.00 L220.50,322.00Z M202.50,323.00 L203.00,322.50 L213.50,332.00 L211.00,335.50 L207.00,337.50 L200.00,337.50 L196.50,335.00 L198.50,333.00 L202.50,325.00Z M145.50,324.00 L147.50,324.00 L147.50,326.00 L150.50,332.00 L152.50,334.00 L152.50,336.00 L150.00,337.50 L142.00,337.50 L135.50,332.00 L140.00,329.50Z M164.50,326.00 L165.00,325.50 L166.50,327.00 L170.50,334.00 L173.50,337.00 L172.00,338.50 L167.00,340.50 L160.00,339.50 L155.50,336.00Z M183.50,326.00 L184.00,325.50 L193.50,336.00 L191.00,338.50 L186.00,340.50 L182.00,340.50 L176.50,337.00 L182.50,329.00Z" fill="#000000" fill-rule="evenodd" stroke="none"/>
</svg>
