<svg xmlns="http://www.w3.org/2000/svg" viewBox="0 0 350 350">
  <path d="M13.50,8.00 L14.50,8.00 L14.50,10.00 L15.50,11.00 L16.50,26.00 L15.50,27.00 L15.50,32.00 L13.50,35.00 L13.50,37.00 L9.50,43.00 L8.00,43.50 L8.50,41.00 L11.50,38.00 L11.50,36.00 L13.50,33.00 L13.50,30.00 L14.50,29.00 L14.50,14.00 L13.50,13.00Z M20.50,8.00 L21.00,7.50 L22.50,9.00 L23.50,20.00 L24.50,21.00 L23.50,36.00 L22.50,37.00 L21.50,42.00 L16.50,51.00 L10.00,57.50 L8.00,57.50 L7.50,57.00 L9.00,56.50 L15.50,50.00 L21.50,38.00 L21.50,35.00 L22.50,34.00 L22.50,16.00 L21.50,15.00Z M27.50,8.00 L28.00,7.50 L29.50,9.00 L29.50,12.00 L31.50,17.00 L31.50,21.00 L32.50,22.00 L32.50,40.00 L31.50,41.00 L31.50,45.00 L28.50,51.00 L28.50,53.00 L23.50,61.00 L16.00,68.50 L8.00,72.50 L7.50,72.00 L9.00,70.50 L15.00,67.50 L23.50,59.00 L24.50,56.00 L27.50,52.00 L27.50,50.00 L30.50,43.00 L30.50,38.00 L31.50,37.00 L31.50,25.00 L30.50,24.00 L30.50,19.00 L29.50,18.00Z M34.50,8.00 L35.50,8.00 L38.50,16.00 L38.50,19.00 L40.50,24.00 L40.50,29.00 L41.50,30.00 L41.50,47.00 L40.50,48.00 L40.50,53.00 L39.50,54.00 L38.50,59.00 L32.50,70.00 L26.00,77.50 L25.00,77.50 L21.00,81.50 L13.00,85.50 L8.00,86.50 L8.00,85.50 L12.00,84.50 L20.00,80.50 L24.00,76.50 L25.00,76.50 L31.50,69.00 L37.50,58.00 L37.50,55.00 L39.50,51.00 L39.50,46.00 L40.50,45.00 L40.50,32.00 L39.50,31.00 L38.50,21.00 L34.50,11.00Z M40.50,8.00 L41.50,8.00 L43.50,12.00 L43.50,14.00 L45.50,17.00 L45.50,19.00 L48.50,26.00 L49.50,34.00 L50.50,35.00 L50.50,42.00 L51.50,43.00 L50.50,59.00 L49.50,60.00 L49.50,63.00 L48.50,64.00 L47.50,69.00 L42.50,79.00 L30.00,92.50 L24.00,95.50 L22.00,97.50 L20.00,97.50 L17.00,99.50 L8.00,100.50 L8.00,99.50 L11.00,99.50 L12.00,98.50 L15.00,98.50 L16.00,97.50 L21.00,96.50 L23.00,94.50 L29.00,91.50 L39.50,81.00 L46.50,68.00 L47.50,62.00 L48.50,61.00 L48.50,57.00 L49.50,56.00 L49.50,38.00 L48.50,37.00 L48.50,32.00 L47.50,31.00 L46.50,24.00 L41.50,13.00Z M48.50,8.00 L49.50,8.00 L52.50,15.00 L54.50,17.00 L55.50,21.00 L60.50,30.00 L60.50,32.00 L64.50,42.00 L65.50,50.00 L66.50,51.00 L66.50,72.00 L65.50,73.00 L65.50,76.00 L64.50,77.00 L62.50,85.00 L59.50,91.00 L52.50,101.00 L41.00,112.50 L35.00,116.50 L23.00,121.50 L8.00,122.50 L7.50,122.00 L9.00,120.50 L21.00,120.50 L25.00,118.50 L28.00,118.50 L40.00,111.50 L54.50,96.00 L62.50,81.00 L63.50,75.00 L64.50,74.00 L64.50,70.00 L65.50,69.00 L65.50,54.00 L64.50,53.00 L64.50,48.00 L63.50,47.00 L63.50,43.00 L62.50,42.00 L60.50,34.00 L53.50,20.00 L53.50,18.00 L51.50,16.00 L48.50,10.00Z M63.50,8.00 L64.00,7.50 L87.00,29.50 L93.00,33.50 L103.00,37.50 L112.00,37.50 L122.00,33.50 L130.00,26.50 L131.00,26.50 L142.00,15.50 L142.50,17.00 L133.00,26.50 L132.00,26.50 L123.00,34.50 L114.00,38.50 L107.00,39.50 L106.00,38.50 L101.00,38.50 L100.00,37.50 L98.00,37.50 L86.00,30.50 L82.00,26.50 L81.00,26.50 L63.50,9.00Z M74.50,8.00 L76.00,7.50 L81.00,11.50 L91.00,16.50 L98.00,17.50 L99.00,18.50 L110.00,18.50 L111.00,17.50 L115.00,17.50 L118.00,15.50 L122.00,14.50 L132.00,7.50 L133.50,8.00 L123.00,15.50 L112.00,19.50 L96.00,19.50 L80.00,12.50Z M142.50,8.00 L143.00,7.50 L143.50,9.00 L131.00,20.50 L125.00,24.50 L113.00,29.50 L101.00,29.50 L100.00,28.50 L94.00,27.50 L86.50,23.00 L88.00,22.50 L95.00,26.50 L102.00,27.50 L103.00,28.50 L111.00,28.50 L112.00,27.50 L115.00,27.50 L124.00,23.50 L130.00,19.50Z M153.50,8.00 L154.00,7.50 L154.50,9.00 L142.50,22.00 L125.50,45.00 L120.50,56.00 L120.50,62.00 L123.50,68.00 L127.50,72.00 L127.50,73.00 L136.00,80.50 L150.00,88.50 L152.00,88.50 L159.00,91.50 L176.00,91.50 L177.00,90.50 L180.00,90.50 L183.00,88.50 L185.00,88.50 L195.00,81.50 L201.50,74.00 L207.50,63.00 L207.50,61.00 L209.50,57.00 L209.50,53.00 L210.50,52.00 L210.50,32.00 L209.50,31.00 L208.50,22.00 L207.50,21.00 L205.50,13.00 L203.50,10.00 L203.50,8.00 L204.00,7.50 L205.50,9.00 L205.50,11.00 L209.50,21.00 L209.50,24.00 L211.50,29.00 L211.50,35.00 L212.50,36.00 L212.50,49.00 L211.50,50.00 L211.50,55.00 L209.50,59.00 L209.50,62.00 L204.50,72.00 L197.00,81.50 L186.00,89.50 L184.00,89.50 L178.00,92.50 L174.00,92.50 L173.00,93.50 L163.00,93.50 L162.00,92.50 L158.00,92.50 L157.00,91.50 L151.00,90.50 L141.00,85.50 L127.50,75.00 L127.50,74.00 L122.50,69.00 L119.50,63.00 L119.50,54.00 L124.50,44.00 L141.50,21.00Z M175.50,8.00 L176.00,7.50 L177.50,9.00 L178.50,15.00 L179.50,16.00 L179.50,25.00 L178.50,26.00 L178.50,30.00 L174.50,38.00 L168.00,44.50 L161.00,47.50 L155.00,47.50 L150.00,45.50 L147.50,43.00 L148.00,42.50 L153.00,45.50 L163.00,45.50 L167.00,43.50 L173.50,37.00 L176.50,31.00 L176.50,29.00 L177.50,28.00 L177.50,23.00 L178.50,22.00 L177.50,20.00 L177.50,14.00 L176.50,13.00Z M183.50,8.00 L184.50,8.00 L185.50,14.00 L186.50,15.00 L186.50,30.00 L185.50,31.00 L185.50,35.00 L183.50,38.00 L183.50,40.00 L178.50,48.00 L172.00,53.50 L166.00,56.50 L162.00,56.50 L161.00,57.50 L155.00,57.50 L145.00,53.50 L141.50,50.00 L138.50,44.00 L138.50,38.00 L140.00,34.50 L140.50,45.00 L142.50,49.00 L146.00,52.50 L150.00,54.50 L152.00,54.50 L153.00,55.50 L164.00,55.50 L171.00,52.50 L177.50,47.00 L182.50,39.00 L182.50,37.00 L184.50,33.00 L184.50,29.00 L185.50,28.00 L185.50,19.00 L184.50,18.00Z M190.50,8.00 L191.50,8.00 L191.50,10.00 L192.50,11.00 L193.50,20.00 L194.50,21.00 L194.50,34.00 L193.50,35.00 L192.50,43.00 L190.50,46.00 L189.50,50.00 L181.00,60.50 L171.00,66.50 L160.00,68.50 L159.00,67.50 L149.00,66.50 L143.00,63.50 L136.50,58.00 L132.50,50.00 L132.50,43.00 L133.50,42.00 L133.50,39.00 L137.50,31.00 L140.00,28.50 L140.50,30.00 L138.50,32.00 L135.50,38.00 L134.50,44.00 L133.50,45.00 L134.50,52.00 L140.00,59.50 L144.00,62.50 L154.00,66.50 L166.00,66.50 L167.00,65.50 L172.00,64.50 L180.00,59.50 L184.50,55.00 L188.50,49.00 L188.50,47.00 L190.50,44.00 L191.50,38.00 L192.50,37.00 L193.50,26.00 L192.50,25.00 L192.50,17.00 L190.50,12.00Z M210.50,8.00 L211.50,8.00 L213.50,12.00 L213.50,14.00 L216.50,19.00 L216.50,21.00 L218.50,24.00 L219.50,30.00 L221.50,34.00 L222.50,44.00 L223.50,45.00 L223.50,60.00 L222.50,61.00 L221.50,70.00 L214.50,85.00 L207.50,93.00 L207.50,94.00 L206.00,94.50 L200.00,100.50 L189.00,106.50 L183.00,107.50 L182.00,108.50 L165.00,108.50 L164.00,107.50 L161.00,107.50 L160.00,106.50 L155.00,105.50 L145.00,100.50 L130.00,89.50 L122.50,82.00 L123.00,80.50 L131.00,88.50 L146.00,99.50 L154.00,103.50 L156.00,103.50 L163.00,106.50 L167.00,106.50 L168.00,107.50 L180.00,107.50 L181.00,106.50 L188.00,105.50 L196.00,101.50 L204.00,94.50 L205.00,94.50 L213.50,84.00 L218.50,74.00 L218.50,72.00 L220.50,68.00 L220.50,65.00 L221.50,64.00 L221.50,57.00 L222.50,56.00 L222.50,49.00 L221.50,48.00 L220.50,36.00 L219.50,35.00 L219.50,32.00 L218.50,31.00 L215.50,20.00 L211.50,13.00Z M222.50,8.00 L223.00,7.50 L225.50,10.00 L248.50,44.00 L257.50,61.00 L258.50,67.00 L259.50,68.00 L259.50,77.00 L258.50,78.00 L258.50,81.00 L256.50,84.00 L256.50,86.00 L254.50,88.00 L253.50,91.00 L247.50,100.00 L244.00,103.50 L244.50,101.00 L255.50,85.00 L255.50,83.00 L257.50,80.00 L257.50,76.00 L258.50,75.00 L258.50,69.00 L256.50,65.00 L256.50,62.00 L250.50,50.00Z M232.50,8.00 L233.00,7.50 L242.00,16.50 L243.00,16.50 L252.00,24.50 L263.00,30.50 L269.00,31.50 L270.00,32.50 L278.00,32.50 L279.00,31.50 L282.00,31.50 L292.00,26.50 L302.00,17.50 L303.00,17.50 L313.00,7.50 L313.50,9.00 L297.00,24.50 L293.00,26.50 L290.00,29.50 L279.00,33.50 L269.00,33.50 L268.00,32.50 L262.00,31.50 L247.00,22.50 L242.00,17.50 L241.00,17.50 L232.50,9.00Z M240.50,8.00 L241.00,7.50 L244.00,10.50 L250.00,13.50 L252.00,15.50 L254.00,15.50 L259.00,18.50 L265.00,19.50 L266.00,20.50 L276.00,20.50 L277.00,19.50 L281.00,19.50 L292.00,14.50 L301.00,7.50 L301.50,9.00 L293.00,15.50 L285.00,19.50 L283.00,19.50 L279.00,21.50 L264.00,21.50 L251.00,16.50 L242.00,10.50Z M244.50,8.00 L246.00,7.50 L253.00,11.50 L255.00,11.50 L258.00,13.50 L261.00,13.50 L262.00,14.50 L267.00,14.50 L268.00,15.50 L272.00,15.50 L273.00,14.50 L277.50,15.00 L276.00,16.50 L264.00,16.50 L263.00,15.50 L260.00,15.50 L259.00,14.50 L254.00,13.50Z M320.50,8.00 L321.00,7.50 L321.50,9.00 L305.50,26.00 L286.50,52.00 L283.50,59.00 L283.50,65.00 L287.50,72.00 L300.00,84.50 L310.00,91.50 L326.00,98.50 L330.00,98.50 L331.00,99.50 L341.00,99.50 L341.00,100.50 L328.00,100.50 L324.00,98.50 L321.00,98.50 L309.00,92.50 L299.00,85.50 L286.50,73.00 L281.50,63.00 L282.50,62.00 L282.50,57.00 L289.50,45.00 L304.50,25.00 L309.50,20.00 L309.50,19.00Z M52.50,9.00 L54.00,8.50 L55.50,10.00 L58.50,16.00 L62.50,21.00 L64.50,26.00 L66.50,28.00 L74.50,44.00 L74.50,46.00 L76.50,49.00 L76.50,51.00 L78.50,55.00 L79.50,64.00 L80.50,65.00 L80.50,75.00 L79.50,76.00 L79.50,81.00 L78.50,82.00 L77.50,87.00 L71.50,99.00 L61.50,113.00 L50.00,124.50 L42.00,130.50 L29.00,136.50 L25.00,136.50 L24.00,137.50 L12.00,137.50 L11.00,136.50 L8.00,136.50 L8.00,135.50 L13.00,135.50 L14.00,136.50 L22.00,136.50 L23.00,135.50 L27.00,135.50 L41.00,129.50 L49.00,123.50 L60.50,112.00 L69.50,100.00 L76.50,86.00 L76.50,83.00 L78.50,78.00 L78.50,61.00 L77.50,60.00 L76.50,53.00 L74.50,50.00 L73.50,45.00 L65.50,29.00 L63.50,27.00 L61.50,22.00 L57.50,17.00 L56.50,14.00Z M163.50,9.00 L168.00,9.50 L170.50,12.00 L172.50,16.00 L172.50,25.00 L169.50,32.00 L165.00,36.50 L162.00,38.50 L155.00,38.50 L150.50,34.00 L150.50,28.00 L153.50,21.00 L158.00,16.50 L162.00,14.50 L164.00,14.50 L167.50,18.00 L167.50,26.00 L163.00,31.50 L161.00,32.50 L157.00,32.50 L154.50,30.00 L155.00,26.50 L155.50,29.00 L158.00,31.50 L160.00,31.50 L165.50,27.00 L165.50,25.00 L166.50,24.00 L166.50,19.00 L164.00,16.50 L159.00,17.50 L154.50,22.00 L151.50,29.00 L151.50,32.00 L155.00,36.50 L159.00,37.50 L164.00,35.50 L168.50,31.00 L170.50,27.00 L170.50,24.00 L171.50,23.00 L170.50,15.00 L167.00,10.50 L161.00,10.50 L161.00,9.50Z M196.50,9.00 L198.50,9.00 L198.50,11.00 L200.50,15.00 L200.50,18.00 L201.50,19.00 L201.50,23.00 L202.50,24.00 L202.50,44.00 L201.50,45.00 L201.50,48.00 L200.50,49.00 L199.50,54.00 L195.50,62.00 L186.00,72.50 L177.00,77.50 L175.00,77.50 L171.00,79.50 L156.00,79.50 L155.00,78.50 L152.00,78.50 L144.00,75.50 L135.00,69.50 L131.50,66.00 L126.50,58.00 L125.50,52.00 L127.00,48.50 L127.50,57.00 L132.50,65.00 L140.00,71.50 L150.00,76.50 L157.00,77.50 L158.00,78.50 L169.00,78.50 L170.00,77.50 L176.00,76.50 L185.00,71.50 L194.50,61.00 L198.50,53.00 L199.50,47.00 L200.50,46.00 L200.50,42.00 L201.50,41.00 L201.50,27.00 L200.50,26.00 L199.50,16.00Z M64.50,15.00 L65.00,14.50 L67.50,17.00 L67.50,18.00 L83.50,36.00 L83.50,37.00 L99.00,51.50 L107.00,55.50 L111.00,54.50 L115.00,51.50 L116.50,52.00 L114.00,54.50 L110.00,56.50 L105.00,56.50 L98.00,52.50 L83.50,39.00 L83.50,38.00 L67.50,20.00Z M220.50,15.00 L221.00,14.50 L222.50,16.00 L230.50,32.00 L230.50,34.00 L232.50,37.00 L232.50,39.00 L235.50,46.00 L236.50,54.00 L237.50,55.00 L237.50,74.00 L236.50,75.00 L236.50,78.00 L235.50,79.00 L233.50,87.00 L225.50,101.00 L211.00,116.50 L202.00,122.50 L192.00,126.50 L189.00,126.50 L188.00,127.50 L175.00,127.50 L174.00,126.50 L166.00,125.50 L161.00,122.50 L157.00,121.50 L142.00,111.50 L129.00,99.50 L128.00,99.50 L106.00,78.50 L102.00,78.50 L98.00,81.50 L96.50,81.00 L99.00,78.50 L103.00,76.50 L107.00,77.50 L139.00,107.50 L140.00,107.50 L148.00,114.50 L151.00,115.50 L160.00,121.50 L162.00,121.50 L168.00,124.50 L177.00,125.50 L178.00,126.50 L190.00,125.50 L191.00,124.50 L194.00,124.50 L197.00,122.50 L199.00,122.50 L201.00,120.50 L206.00,118.50 L210.00,115.50 L221.50,104.00 L228.50,94.00 L232.50,86.00 L232.50,84.00 L234.50,80.00 L234.50,77.00 L235.50,76.00 L235.50,71.00 L236.50,70.00 L236.50,58.00 L235.50,57.00 L235.50,52.00 L234.50,51.00 L233.50,44.00 L228.50,33.00 L228.50,31.00Z M326.50,18.00 L330.00,17.50 L332.50,20.00 L332.50,25.00 L330.00,28.50 L327.00,30.50 L325.00,30.50 L322.50,28.00 L323.50,23.00 L326.00,20.50 L330.50,20.00 L329.00,18.50Z M330.50,21.00 L331.50,21.00 L331.00,22.50Z M326.50,22.00 L329.50,22.00 L329.50,24.00 L328.50,25.00 L329.50,27.00 L327.00,28.50 L325.00,28.50 L324.50,24.00Z M241.50,23.00 L243.00,22.50 L258.00,35.50 L261.00,36.50 L265.00,39.50 L267.00,39.50 L271.00,41.50 L279.00,41.50 L286.00,38.50 L290.00,35.50 L290.50,37.00 L281.00,42.50 L277.00,42.50 L276.00,43.50 L274.00,42.50 L269.00,42.50 L257.00,36.50Z M340.50,23.00 L341.50,23.00 L341.50,25.00 L337.50,34.00 L332.00,39.50 L327.00,40.50 L326.00,41.50 L323.00,41.50 L322.00,40.50 L320.00,40.50 L316.50,37.00 L317.00,34.50 L321.00,39.50 L328.00,39.50 L332.00,37.50 L336.50,33.00Z M309.50,27.00 L310.00,26.50 L310.50,28.00 L308.50,30.00 L307.50,34.00 L305.50,37.00 L305.50,47.00 L313.00,55.50 L321.00,58.50 L329.00,58.50 L330.00,57.50 L334.00,57.50 L340.00,53.50 L341.50,54.00 L339.00,56.50 L331.00,59.50 L319.00,59.50 L312.00,56.50 L305.50,50.00 L303.50,45.00 L304.50,36.00 L307.50,29.00Z M248.50,37.00 L250.00,36.50 L264.00,50.50 L270.00,54.50 L276.00,55.50 L279.00,53.50 L279.50,55.00 L277.00,56.50 L272.00,56.50 L271.00,55.50 L269.00,55.50 L263.00,51.50Z M78.50,39.00 L79.00,38.50 L82.50,43.00 L83.50,46.00 L90.50,56.00 L91.50,60.00 L93.50,63.00 L93.50,65.00 L95.50,69.00 L95.50,75.00 L94.50,76.00 L94.00,79.50 L92.50,79.00 L93.50,78.00 L93.50,67.00 L92.50,66.00 L92.50,64.00 L86.50,52.00 L82.50,47.00Z M54.50,43.00 L55.50,43.00 L55.50,47.00 L56.50,48.00 L55.50,64.00 L54.50,65.00 L54.50,68.00 L53.50,69.00 L52.50,74.00 L44.50,88.00 L39.00,94.50 L38.00,94.50 L30.00,101.50 L16.00,107.50 L8.00,107.50 L8.00,106.50 L18.00,105.50 L29.00,100.50 L37.00,93.50 L38.00,93.50 L43.50,87.00 L47.50,81.00 L52.50,70.00 L53.50,62.00 L54.50,61.00Z M227.50,44.00 L228.00,43.50 L229.50,46.00 L229.50,52.00 L230.50,53.00 L230.50,64.00 L229.50,65.00 L229.50,71.00 L227.50,75.00 L227.50,78.00 L225.50,81.00 L225.50,83.00 L223.50,87.00 L221.50,89.00 L218.50,95.00 L209.00,105.50 L201.00,111.50 L193.00,115.50 L187.00,116.50 L186.00,117.50 L178.00,117.50 L177.00,118.50 L175.00,118.50 L174.00,117.50 L168.00,117.50 L164.00,115.50 L161.00,115.50 L148.50,109.00 L151.00,108.50 L155.00,111.50 L157.00,111.50 L160.00,113.50 L162.00,113.50 L166.00,115.50 L170.00,115.50 L171.00,116.50 L184.00,116.50 L185.00,115.50 L189.00,115.50 L192.00,113.50 L194.00,113.50 L207.00,105.50 L217.50,94.00 L220.50,88.00 L222.50,86.00 L223.50,82.00 L225.50,79.00 L225.50,77.00 L227.50,73.00 L227.50,69.00 L228.50,68.00 L228.50,48.00 L227.50,47.00Z M241.50,44.00 L243.50,44.00 L243.50,46.00 L248.50,56.00 L249.50,64.00 L250.50,65.00 L250.50,78.00 L249.50,79.00 L249.50,82.00 L248.50,83.00 L247.50,88.00 L243.00,96.50 L241.50,96.00 L246.50,87.00 L247.50,81.00 L248.50,80.00 L249.50,68.00 L248.50,67.00 L247.50,58.00Z M296.50,45.00 L298.50,45.00 L297.50,47.00 L297.50,52.00 L299.50,57.00 L301.50,60.00 L309.00,66.50 L321.00,71.50 L334.00,71.50 L339.00,69.50 L341.50,70.00 L336.00,72.50 L326.00,73.50 L325.00,72.50 L320.00,72.50 L308.00,67.50 L304.00,64.50 L298.50,58.00 L296.50,54.00Z M309.50,46.00 L311.00,45.50 L313.00,48.50 L316.00,49.50 L318.00,51.50 L322.00,51.50 L323.00,52.50 L334.00,50.50 L340.00,45.50 L341.50,46.00 L336.00,50.50 L329.00,53.50 L321.00,53.50 L320.00,52.50 L317.00,52.50Z M191.50,51.00 L192.00,50.50 L192.50,52.00 L187.50,60.00 L179.00,67.50 L173.00,70.50 L167.00,71.50 L166.00,72.50 L157.00,72.50 L156.00,71.50 L152.00,71.50 L146.50,69.00 L147.00,67.50 L153.00,70.50 L159.00,70.50 L160.00,71.50 L161.00,70.50 L168.00,70.50 L169.00,69.50 L172.00,69.50 L181.00,64.50 L187.50,58.00Z M303.50,56.00 L305.00,55.50 L310.00,60.50 L319.00,64.50 L325.00,64.50 L326.00,65.50 L328.00,65.50 L329.00,64.50 L334.00,64.50 L340.00,61.50 L341.50,62.00 L338.00,64.50 L332.00,65.50 L331.00,66.50 L321.00,66.50 L309.00,61.50Z M289.50,57.00 L290.50,57.00 L291.50,62.00 L295.50,68.00 L301.00,73.50 L308.00,78.50 L316.00,82.50 L318.00,82.50 L322.00,84.50 L326.00,84.50 L327.00,85.50 L337.00,85.50 L338.00,84.50 L341.50,85.00 L339.00,86.50 L325.00,86.50 L324.00,85.50 L321.00,85.50 L320.00,84.50 L315.00,83.50 L307.00,79.50 L294.50,69.00 L289.50,61.00Z M214.50,58.00 L215.50,58.00 L215.50,62.00 L211.50,73.00 L209.50,75.00 L206.50,81.00 L200.50,87.00 L200.50,88.00 L195.00,92.50 L186.00,97.50 L180.00,98.50 L179.00,99.50 L175.00,99.50 L174.00,100.50 L167.00,100.50 L166.00,99.50 L160.50,99.00 L161.00,97.50 L163.00,98.50 L177.00,98.50 L178.00,97.50 L182.00,97.50 L194.00,91.50 L201.50,85.00 L207.50,77.00 L208.50,74.00 L211.50,70.00 L211.50,68.00 L214.50,61.00Z M241.50,58.00 L242.00,57.50 L243.50,59.00 L243.50,77.00 L242.50,78.00 L242.50,81.00 L241.50,82.00 L241.50,85.00 L239.50,88.00 L239.50,90.00 L236.50,96.00 L234.00,97.50 L233.50,97.00 L235.50,95.00 L237.50,91.00 L237.50,89.00 L239.50,86.00 L240.50,80.00 L241.50,79.00 L241.50,75.00 L242.50,74.00 L242.50,62.00 L241.50,61.00Z M31.50,59.00 L33.50,59.00 L30.50,65.00 L23.00,73.50 L10.00,81.50 L7.50,81.00 L15.00,77.50 L22.00,72.50 L29.50,64.00Z M72.50,59.00 L73.50,59.00 L73.50,61.00 L74.50,62.00 L74.50,71.00 L73.50,72.00 L73.50,77.00 L72.50,78.00 L72.50,81.00 L71.50,82.00 L70.50,87.00 L62.50,102.00 L52.50,113.00 L52.50,114.00 L51.00,114.50 L50.50,114.00 L53.50,110.00 L58.50,105.00 L63.50,98.00 L69.50,86.00 L69.50,84.00 L71.50,80.00 L71.50,76.00 L72.50,75.00Z M276.50,63.00 L278.50,63.00 L277.50,64.00 L277.50,69.00 L282.50,76.00 L294.50,88.00 L294.00,89.50 L282.50,78.00 L276.50,70.00 L276.50,68.00 L275.50,67.00Z M198.50,65.00 L200.50,65.00 L196.50,71.00 L186.00,80.50 L174.00,85.50 L168.00,85.50 L167.00,86.50 L157.00,85.50 L156.00,84.50 L150.00,83.50 L147.00,81.50 L145.00,81.50 L133.50,74.00 L134.00,72.50 L146.00,80.50 L148.00,80.50 L154.00,83.50 L157.00,83.50 L158.00,84.50 L172.00,84.50 L173.00,83.50 L179.00,82.50 L185.00,79.50 L195.50,70.00Z M59.50,74.00 L60.00,73.50 L60.50,75.00 L59.50,76.00 L58.50,81.00 L52.50,92.00 L38.00,107.50 L32.00,110.50 L30.00,112.50 L28.00,112.50 L22.00,115.50 L19.00,115.50 L18.00,116.50 L7.50,116.00 L16.00,115.50 L17.00,114.50 L24.00,113.50 L34.00,108.50 L38.00,105.50 L51.50,91.00 L56.50,82.00 L56.50,80.00Z M268.50,79.00 L270.00,78.50 L275.00,80.50 L306.00,110.50 L307.00,110.50 L315.00,117.50 L324.00,123.50 L335.00,128.50 L341.00,129.50 L341.50,131.00 L337.00,130.50 L331.00,127.50 L329.00,127.50 L314.00,118.50 L305.00,110.50 L304.00,110.50 L274.00,81.50 L272.00,80.50 L268.00,80.50 L262.00,85.50 L261.50,84.00 L266.00,79.50Z M100.50,85.00 L101.00,84.50 L108.00,87.50 L112.00,91.50 L113.00,91.50 L121.50,100.00 L121.50,101.00 L152.00,131.50 L153.00,131.50 L157.00,135.50 L166.00,141.50 L174.00,145.50 L180.00,146.50 L181.00,147.50 L196.00,147.50 L208.00,142.50 L220.00,133.50 L235.50,118.00 L235.50,117.00 L247.50,105.00 L247.50,104.00 L257.00,95.50 L261.00,93.50 L268.00,93.50 L272.00,95.50 L282.50,105.00 L282.50,106.00 L291.50,116.00 L299.50,128.00 L302.50,131.00 L304.50,135.00 L307.50,138.00 L317.50,153.00 L318.50,156.00 L322.50,161.00 L323.50,164.00 L325.50,166.00 L333.50,182.00 L333.50,184.00 L335.50,187.00 L336.50,194.00 L337.50,195.00 L337.50,207.00 L331.50,222.00 L328.00,226.50 L327.50,225.00 L330.50,221.00 L332.50,217.00 L332.50,215.00 L334.50,212.00 L334.50,210.00 L335.50,209.00 L335.50,203.00 L336.50,202.00 L335.50,192.00 L334.50,191.00 L332.50,183.00 L321.50,162.00 L299.50,129.00 L282.50,108.00 L282.50,107.00 L271.00,96.50 L267.00,94.50 L262.00,94.50 L254.00,99.50 L222.00,133.50 L221.00,133.50 L216.00,138.50 L212.00,140.50 L209.00,143.50 L197.00,148.50 L193.00,148.50 L192.00,149.50 L184.00,149.50 L183.00,148.50 L179.00,148.50 L178.00,147.50 L173.00,146.50 L165.00,142.50 L156.00,136.50 L151.00,131.50 L150.00,131.50 L111.00,91.50 L103.00,86.50 L99.00,86.50 L95.00,88.50 L84.50,99.00 L84.50,100.00 L78.50,106.00 L72.50,114.00 L69.00,116.50 L68.50,116.00 L84.50,98.00 L84.50,97.00 L94.00,87.50 L97.00,85.50Z M266.50,88.00 L271.00,87.50 L277.00,91.50 L294.50,110.00 L293.00,110.50 L275.00,91.50 L272.00,90.50 L270.00,88.50Z M297.50,95.00 L300.00,94.50 L308.00,101.50 L321.00,109.50 L323.00,109.50 L326.00,111.50 L328.00,111.50 L332.00,113.50 L341.00,114.50 L341.50,116.00 L334.00,115.50 L333.00,114.50 L327.00,113.50 L324.00,111.50 L322.00,111.50 L307.00,102.50Z M93.50,98.00 L98.00,97.50 L106.00,101.50 L116.50,113.00 L125.50,126.00 L126.50,129.00 L131.50,136.00 L142.50,160.00 L142.50,162.00 L144.50,166.00 L144.50,169.00 L145.50,170.00 L145.50,174.00 L146.50,175.00 L146.50,181.00 L147.50,182.00 L147.50,191.00 L146.50,192.00 L145.50,203.00 L144.50,204.00 L143.50,209.00 L136.50,222.00 L123.00,236.50 L109.00,244.50 L106.00,244.50 L101.00,246.50 L87.00,246.50 L86.00,245.50 L82.00,245.50 L79.00,243.50 L74.00,242.50 L68.00,239.50 L66.00,237.50 L57.00,232.50 L47.00,223.50 L46.00,223.50 L23.00,200.50 L19.50,200.00 L22.00,198.50 L24.00,199.50 L48.00,223.50 L49.00,223.50 L58.00,231.50 L67.00,236.50 L69.00,238.50 L84.00,244.50 L98.00,245.50 L99.00,244.50 L104.00,244.50 L105.00,243.50 L110.00,242.50 L122.00,235.50 L135.50,221.00 L141.50,210.00 L141.50,208.00 L144.50,201.00 L144.50,197.00 L145.50,196.00 L145.50,177.00 L144.50,176.00 L144.50,172.00 L141.50,164.00 L141.50,161.00 L130.50,137.00 L128.50,135.00 L127.50,132.00 L125.50,130.00 L124.50,127.00 L118.50,118.00 L111.50,110.00 L111.50,109.00 L105.00,102.50 L100.00,99.50 L93.00,99.50 L87.00,103.50 L86.50,103.00 L88.00,100.50Z M260.50,102.00 L262.00,101.50 L263.00,102.50 L268.00,103.50 L275.50,110.00 L285.50,124.00 L294.50,142.00 L294.50,144.00 L296.50,147.00 L296.50,149.00 L298.50,153.00 L298.50,156.00 L300.50,161.00 L300.50,165.00 L301.50,166.00 L301.50,185.00 L300.50,186.00 L300.50,190.00 L299.00,192.50 L298.50,189.00 L299.50,188.00 L299.50,183.00 L300.50,182.00 L300.50,170.00 L299.50,169.00 L298.50,158.00 L297.50,157.00 L296.50,151.00 L294.50,148.00 L293.50,143.00 L284.50,125.00 L274.50,111.00 L267.00,104.50 L265.00,103.50 L261.00,103.50Z M93.50,104.00 L98.00,104.50 L102.00,106.50 L108.50,113.00 L118.50,128.00 L123.50,139.00 L123.50,141.00 L125.50,144.00 L125.50,146.00 L127.50,150.00 L127.50,153.00 L128.50,154.00 L129.50,166.00 L130.50,167.00 L130.50,177.00 L129.50,178.00 L129.50,183.00 L128.50,184.00 L127.50,191.00 L125.50,194.00 L124.50,198.00 L118.50,207.00 L111.00,214.50 L107.00,217.50 L95.00,222.50 L80.00,223.50 L79.00,222.50 L75.00,222.50 L74.00,221.50 L66.00,219.50 L55.00,213.50 L42.50,203.00 L35.50,193.00 L37.00,192.50 L42.50,201.00 L56.00,212.50 L67.00,218.50 L69.00,218.50 L73.00,220.50 L76.00,220.50 L77.00,221.50 L93.00,221.50 L94.00,220.50 L100.00,219.50 L110.00,213.50 L120.50,202.00 L121.50,199.00 L124.50,195.00 L124.50,193.00 L127.50,186.00 L127.50,182.00 L128.50,181.00 L128.50,161.00 L127.50,160.00 L126.50,152.00 L125.50,151.00 L122.50,140.00 L119.50,135.00 L119.50,133.00 L108.50,115.00 L101.00,107.50 L97.00,105.50 L91.00,105.50 L90.00,106.50 L86.50,107.00 L86.50,106.00 L89.00,104.50Z M226.50,108.00 L228.50,108.00 L217.00,120.50 L216.00,120.50 L208.00,127.50 L200.00,131.50 L198.00,131.50 L195.00,133.50 L191.00,133.50 L190.00,134.50 L177.00,134.50 L174.50,133.00 L179.00,132.50 L180.00,133.50 L188.00,133.50 L189.00,132.50 L193.00,132.50 L194.00,131.50 L199.00,130.50 L207.00,126.50 L215.00,119.50 L216.00,119.50Z M231.50,109.00 L232.00,108.50 L232.50,110.00 L230.50,113.00 L217.00,126.50 L209.00,132.50 L201.00,136.50 L200.50,136.00 L201.00,134.50 L208.00,131.50 L215.00,126.50 L229.50,112.00Z M253.50,111.00 L262.00,110.50 L265.00,112.50 L272.50,120.00 L275.50,126.00 L277.50,128.00 L283.50,144.00 L284.50,154.00 L285.50,155.00 L285.00,164.50 L283.50,163.00 L283.50,151.00 L282.50,150.00 L282.50,146.00 L281.50,145.00 L281.50,142.00 L280.50,141.00 L279.50,136.00 L277.50,133.00 L277.50,131.00 L271.50,121.00 L264.00,113.50 L259.00,111.50 L253.00,112.50 L243.00,119.50 L237.00,125.50 L235.50,125.00 L247.00,114.50Z M97.50,112.00 L98.00,111.50 L108.50,123.00 L114.50,135.00 L114.50,137.00 L116.50,141.00 L116.50,144.00 L118.50,149.00 L118.50,154.00 L119.50,155.00 L119.50,169.00 L118.50,170.00 L117.50,178.00 L110.50,192.00 L98.00,203.50 L87.00,207.50 L72.00,207.50 L71.00,206.50 L63.00,204.50 L53.00,198.50 L44.50,189.00 L44.50,187.00 L42.50,183.00 L42.50,178.00 L47.50,166.00 L49.50,163.00 L51.00,162.50 L51.50,163.00 L48.50,167.00 L44.50,176.00 L44.50,185.00 L45.50,186.00 L45.50,188.00 L47.50,191.00 L58.00,200.50 L64.00,203.50 L66.00,203.50 L70.00,205.50 L74.00,205.50 L75.00,206.50 L85.00,206.50 L86.00,205.50 L90.00,205.50 L93.00,203.50 L95.00,203.50 L100.00,200.50 L109.50,191.00 L114.50,182.00 L114.50,180.00 L116.50,176.00 L116.50,173.00 L117.50,172.00 L117.50,163.00 L118.50,162.00 L117.50,161.00 L117.50,151.00 L116.50,150.00 L116.50,147.00 L115.50,146.00 L115.50,143.00 L114.50,142.00 L112.50,134.00 L107.50,124.00 L97.50,113.00Z M202.50,114.00 L204.50,114.00 L202.00,116.50 L190.00,121.50 L187.00,121.50 L186.00,122.50 L171.50,122.00 L172.00,120.50 L175.00,120.50 L176.00,121.50 L183.00,121.50 L184.00,120.50 L192.00,119.50 L201.00,115.50Z M84.50,117.00 L93.00,116.50 L95.00,117.50 L103.50,127.00 L109.50,142.00 L109.50,147.00 L110.50,148.00 L110.50,163.00 L109.50,164.00 L109.50,167.00 L108.50,168.00 L108.50,171.00 L106.50,174.00 L106.50,176.00 L104.50,178.00 L103.50,181.00 L95.00,189.50 L86.00,194.50 L82.00,194.50 L81.00,195.50 L72.00,195.50 L71.00,194.50 L65.00,193.50 L59.00,190.50 L51.50,183.00 L51.50,181.00 L50.50,180.00 L51.00,178.50 L52.50,180.00 L52.50,182.00 L60.00,189.50 L66.00,192.50 L69.00,192.50 L70.00,193.50 L84.00,193.50 L93.00,189.50 L97.50,186.00 L105.50,175.00 L105.50,173.00 L107.50,169.00 L107.50,166.00 L108.50,165.00 L109.50,152.00 L108.50,151.00 L108.50,145.00 L107.50,144.00 L107.50,140.00 L106.50,139.00 L105.50,134.00 L100.50,125.00 L92.00,117.50 L87.00,117.50 L86.00,118.50 L84.00,118.50 L76.00,123.50 L75.50,123.00 L79.00,119.50Z M295.50,117.00 L297.00,116.50 L313.50,135.00 L313.50,136.00 L332.00,154.50 L333.00,154.50 L341.50,162.00 L340.00,162.50 L332.00,155.50 L331.00,155.50 L313.50,138.00 L313.50,137.00Z M39.50,121.00 L41.50,121.00 L40.00,122.50 L37.00,123.50 L35.00,125.50 L33.00,125.50 L27.00,128.50 L24.00,128.50 L23.00,129.50 L7.50,129.00 L21.00,128.50 L22.00,127.50 L29.00,126.50Z M61.50,121.00 L62.00,120.50 L62.50,122.00 L54.00,130.50 L53.00,130.50 L45.00,137.50 L36.00,142.50 L34.00,142.50 L30.00,144.50 L27.00,144.50 L26.00,145.50 L15.00,145.50 L14.00,144.50 L10.00,144.50 L7.50,143.00 L11.00,142.50 L12.00,143.50 L23.00,144.50 L24.00,143.50 L29.00,143.50 L30.00,142.50 L35.00,141.50 L47.00,134.50Z M249.50,121.00 L258.00,120.50 L260.00,121.50 L265.50,127.00 L268.50,132.00 L268.50,134.00 L270.50,137.00 L271.50,144.00 L272.50,145.00 L272.50,159.00 L271.50,160.00 L271.00,164.50 L270.00,164.50 L269.50,163.00 L270.50,162.00 L270.50,158.00 L271.50,157.00 L271.50,149.00 L270.50,148.00 L270.50,142.00 L269.50,141.00 L269.50,138.00 L267.50,135.00 L267.50,133.00 L262.00,124.50 L257.00,121.50 L251.00,121.50 L249.00,122.50 L248.50,122.00Z M306.50,122.00 L308.00,121.50 L320.00,132.50 L328.00,138.50 L341.50,146.00 L340.00,146.50 L327.00,139.50 L319.00,133.50Z M137.50,123.00 L138.00,122.50 L157.00,141.50 L158.00,141.50 L166.00,148.50 L176.00,154.50 L178.00,154.50 L181.00,156.50 L185.00,156.50 L186.00,157.50 L195.00,157.50 L196.00,156.50 L199.00,156.50 L204.00,153.50 L206.00,153.50 L217.00,145.50 L227.00,135.50 L228.50,136.00 L218.00,146.50 L207.00,154.50 L196.00,158.50 L184.00,158.50 L173.00,154.50 L161.00,146.50 L156.00,141.50 L155.00,141.50 L138.50,125.00Z M84.50,125.00 L86.00,124.50 L87.00,125.50 L90.00,125.50 L93.50,128.00 L98.50,136.00 L99.50,142.00 L100.50,143.00 L100.50,157.00 L99.50,158.00 L98.50,164.00 L92.50,174.00 L87.00,178.50 L80.00,181.50 L69.00,181.50 L63.00,178.50 L59.50,175.00 L57.50,171.00 L57.50,163.00 L62.50,152.00 L65.50,148.00 L77.00,137.50 L79.00,136.50 L84.00,136.50 L87.50,139.00 L89.50,143.00 L89.50,148.00 L90.50,149.00 L89.50,151.00 L89.50,155.00 L86.50,161.00 L82.00,165.50 L78.00,167.50 L72.00,167.50 L66.50,163.00 L66.50,156.00 L69.50,150.00 L78.00,142.50 L81.00,142.50 L81.50,144.00 L77.00,144.50 L70.50,151.00 L67.50,158.00 L67.50,161.00 L71.00,165.50 L73.00,166.50 L77.00,166.50 L81.00,164.50 L85.50,160.00 L88.50,153.00 L88.50,144.00 L85.00,138.50 L81.00,137.50 L76.00,139.50 L72.00,142.50 L63.50,153.00 L60.50,159.00 L58.50,168.00 L59.50,169.00 L60.50,174.00 L64.00,177.50 L71.00,180.50 L78.00,180.50 L79.00,179.50 L84.00,178.50 L91.50,173.00 L97.50,163.00 L97.50,160.00 L99.50,155.00 L99.50,146.00 L98.50,145.00 L98.50,141.00 L95.50,133.00 L92.50,129.00 L89.00,126.50 L82.00,126.50 L74.00,131.50 L45.00,161.50 L37.00,167.50 L31.00,170.50 L27.00,170.50 L26.00,171.50 L24.00,170.50 L19.00,170.50 L10.00,166.50 L8.50,165.00 L9.00,163.50 L11.00,165.50 L21.00,169.50 L29.00,169.50 L36.00,166.50 L43.00,161.50 L72.00,131.50 L79.00,126.50Z M293.50,129.00 L294.00,128.50 L295.50,130.00 L299.50,138.00 L301.50,140.00 L307.50,152.00 L307.50,154.00 L310.50,159.00 L310.50,161.00 L313.50,168.00 L313.50,171.00 L315.50,176.00 L315.50,182.00 L316.50,183.00 L316.50,195.00 L315.50,196.00 L314.50,205.00 L313.00,206.50 L312.50,205.00 L314.50,200.00 L314.50,178.00 L313.50,177.00 L313.50,173.00 L311.50,169.00 L310.50,163.00 L306.50,155.00 L306.50,153.00Z M61.50,130.00 L62.00,129.50 L62.50,131.00 L50.00,142.50 L43.00,147.50 L35.00,151.50 L33.00,151.50 L29.00,153.50 L16.00,153.50 L7.50,150.00 L10.00,149.50 L11.00,150.50 L18.00,151.50 L19.00,152.50 L26.00,152.50 L27.00,151.50 L34.00,150.50 L45.00,144.50Z M247.50,130.00 L254.00,129.50 L256.00,130.50 L259.50,134.00 L262.50,141.00 L263.50,151.00 L262.50,152.00 L262.50,157.00 L258.50,166.00 L251.00,173.50 L246.00,175.50 L242.00,175.50 L241.00,176.50 L236.00,175.50 L232.00,173.50 L228.50,169.00 L227.50,162.00 L228.50,161.00 L228.50,158.00 L232.00,151.50 L233.50,152.00 L229.50,160.00 L229.50,168.00 L233.00,172.50 L237.00,174.50 L245.00,174.50 L250.00,172.50 L255.50,168.00 L260.50,159.00 L260.50,156.00 L261.50,155.00 L261.50,143.00 L258.50,135.00 L253.00,130.50 L246.00,131.50 L240.00,135.50 L228.50,147.00 L228.50,148.00 L217.50,161.00 L216.50,163.00 L218.50,164.00 L215.50,169.00 L214.50,176.00 L213.50,177.00 L214.50,183.00 L216.50,187.00 L223.00,193.50 L232.00,198.50 L234.00,198.50 L238.00,200.50 L252.00,200.50 L260.00,197.50 L266.00,193.50 L270.50,189.00 L277.50,177.00 L277.50,175.00 L279.50,171.00 L279.50,167.00 L281.00,164.50 L281.50,168.00 L280.50,169.00 L280.50,173.00 L274.50,186.00 L268.00,193.50 L259.00,199.50 L257.00,199.50 L253.00,201.50 L248.00,201.50 L247.00,202.50 L233.00,200.50 L228.00,197.50 L226.00,197.50 L222.00,194.50 L215.50,188.00 L213.50,184.00 L213.50,182.00 L212.50,181.00 L212.50,174.00 L213.50,173.00 L214.50,168.00 L216.50,165.00 L216.00,163.50 L206.50,178.00 L206.50,180.00 L204.50,184.00 L204.50,189.00 L206.50,194.00 L209.50,198.00 L217.00,205.50 L224.00,210.50 L234.00,215.50 L236.00,215.50 L240.00,217.50 L243.00,217.50 L244.00,218.50 L257.00,218.50 L258.00,217.50 L264.00,216.50 L276.00,209.50 L282.50,203.00 L289.50,191.00 L289.50,189.00 L291.50,185.00 L291.50,182.00 L292.50,181.00 L292.50,174.00 L293.50,173.00 L292.50,157.00 L290.50,152.00 L292.00,150.50 L292.50,154.00 L293.50,155.00 L293.50,161.00 L294.50,162.00 L294.50,177.00 L293.50,178.00 L293.50,182.00 L292.50,183.00 L292.50,186.00 L291.50,187.00 L290.50,192.00 L285.50,201.00 L277.00,210.50 L273.00,213.50 L259.00,219.50 L242.00,219.50 L226.00,213.50 L216.00,206.50 L208.50,199.00 L205.50,195.00 L203.50,190.00 L203.50,182.00 L204.50,181.00 L204.50,179.00 L213.50,164.00 L223.50,152.00 L223.50,151.00 L228.50,146.00 L228.50,145.00 L239.00,134.50 L245.00,130.50Z M132.50,132.00 L133.00,131.50 L134.50,133.00 L137.50,139.00 L144.50,149.00 L154.50,169.00 L154.50,171.00 L156.50,174.00 L156.50,176.00 L158.50,180.00 L159.50,188.00 L160.50,189.00 L160.50,203.00 L159.50,204.00 L159.50,209.00 L158.50,210.00 L157.50,215.00 L154.50,220.00 L154.50,222.00 L144.50,237.00 L130.00,251.50 L121.00,257.50 L108.00,262.50 L93.00,262.50 L92.00,261.50 L89.00,261.50 L88.00,260.50 L83.00,259.50 L73.00,254.50 L64.00,248.50 L57.50,243.00 L58.00,241.50 L74.00,253.50 L84.00,258.50 L90.00,259.50 L91.00,260.50 L95.00,260.50 L96.00,261.50 L110.00,260.50 L122.00,255.50 L129.00,250.50 L135.00,244.50 L136.00,244.50 L146.50,232.00 L156.50,214.00 L156.50,211.00 L158.50,207.00 L159.50,193.00 L158.50,192.00 L158.50,186.00 L155.50,178.00 L155.50,175.00 L143.50,150.00 L133.50,135.00Z M158.50,132.00 L159.00,131.50 L161.00,133.50 L171.00,138.50 L173.00,138.50 L177.00,140.50 L182.00,140.50 L183.00,141.50 L189.00,141.50 L190.00,140.50 L190.50,142.00 L181.00,142.50 L180.00,141.50 L176.00,141.50 L160.00,134.50Z M90.50,133.00 L91.00,132.50 L93.50,135.00 L96.50,143.00 L96.50,154.00 L95.50,155.00 L94.50,161.00 L90.50,168.00 L86.00,172.50 L82.00,174.50 L81.50,173.00 L85.00,171.50 L89.50,167.00 L94.50,157.00 L95.50,148.00 L94.50,147.00 L93.50,138.00Z M142.50,136.00 L143.00,135.50 L147.50,140.00 L147.50,141.00 L158.50,153.00 L158.50,154.00 L181.00,175.50 L187.00,178.50 L193.00,179.50 L198.00,177.50 L202.00,174.50 L203.50,175.00 L195.00,180.50 L188.00,180.50 L180.00,176.50 L158.50,156.00 L158.50,155.00 L152.50,149.00 L152.50,148.00 L147.50,143.00Z M248.50,136.00 L252.00,136.50 L254.50,139.00 L256.50,143.00 L256.50,155.00 L253.50,161.00 L249.00,165.50 L246.00,167.50 L242.00,167.50 L240.00,168.50 L236.00,166.50 L233.50,164.00 L233.50,162.00 L232.50,161.00 L233.50,157.00 L234.50,157.00 L234.50,163.00 L237.00,165.50 L239.00,166.50 L244.00,166.50 L248.00,164.50 L252.50,160.00 L255.50,153.00 L255.50,144.00 L252.00,138.50 L246.50,137.00Z M242.50,145.00 L248.00,144.50 L250.50,148.00 L250.50,152.00 L248.50,156.00 L245.00,159.50 L241.00,159.50 L238.50,157.00 L239.50,152.00 L243.00,148.50 L244.50,149.00 L240.50,153.00 L240.50,157.00 L242.00,158.50 L244.00,158.50 L248.50,153.00 L248.50,147.00 L247.00,145.50 L244.00,145.50 L243.00,146.50Z M317.50,147.00 L319.00,146.50 L322.50,150.00 L322.50,151.00 L329.50,158.00 L329.50,159.00 L341.50,171.00 L341.00,172.50 L329.50,161.00 L329.50,160.00Z M219.50,150.00 L221.50,150.00 L210.00,161.50 L198.00,168.50 L195.00,168.50 L194.00,169.50 L192.00,169.50 L191.00,168.50 L185.00,168.50 L177.50,165.00 L178.00,163.50 L183.00,166.50 L186.00,166.50 L187.00,167.50 L196.00,167.50 L197.00,166.50 L199.00,166.50 L209.00,160.50Z M134.50,159.00 L135.00,158.50 L136.50,160.00 L137.50,168.00 L138.50,169.00 L138.50,189.00 L137.50,190.00 L137.50,194.00 L136.50,195.00 L135.50,201.00 L130.50,211.00 L125.50,218.00 L115.00,227.50 L106.00,232.50 L104.00,232.50 L100.00,234.50 L96.00,234.50 L95.00,235.50 L85.00,235.50 L84.00,234.50 L79.00,234.50 L78.00,233.50 L70.00,231.50 L62.00,227.50 L48.00,217.50 L33.50,203.00 L29.50,197.00 L28.50,191.00 L30.50,186.00 L32.50,183.00 L34.00,182.50 L33.50,185.00 L30.50,189.00 L30.50,196.00 L31.50,198.00 L34.50,202.00 L54.00,220.50 L69.00,229.50 L71.00,229.50 L74.00,231.50 L80.00,232.50 L81.00,233.50 L88.00,233.50 L89.00,234.50 L90.00,233.50 L98.00,233.50 L99.00,232.50 L105.00,231.50 L114.00,226.50 L124.50,217.00 L129.50,210.00 L133.50,202.00 L133.50,200.00 L136.50,193.00 L136.50,188.00 L137.50,187.00 L137.50,172.00 L136.50,171.00 L136.50,166.00 L135.50,165.00 L135.50,161.00Z M155.50,161.00 L156.50,161.00 L160.50,167.00 L168.50,182.00 L168.50,184.00 L170.50,187.00 L170.50,189.00 L172.50,193.00 L172.50,198.00 L173.50,199.00 L172.50,200.00 L172.50,208.00 L171.50,209.00 L171.50,212.00 L166.50,222.00 L154.50,239.00 L148.50,245.00 L148.50,246.00 L131.00,262.50 L125.00,266.50 L114.00,271.50 L110.00,271.50 L109.00,272.50 L98.00,272.50 L97.00,271.50 L93.00,271.50 L92.00,270.50 L87.00,269.50 L76.00,263.50 L74.50,262.00 L75.00,260.50 L80.00,264.50 L86.00,267.50 L88.00,267.50 L95.00,270.50 L99.00,270.50 L100.00,271.50 L112.00,270.50 L113.00,269.50 L118.00,268.50 L130.00,261.50 L134.00,257.50 L135.00,257.50 L153.50,238.00 L165.50,221.00 L169.50,213.00 L170.50,207.00 L171.50,206.00 L171.50,195.00 L170.50,194.00 L169.50,188.00 L163.50,175.00 L155.50,163.00Z M305.50,166.00 L306.00,165.50 L307.50,167.00 L307.50,171.00 L308.50,172.00 L308.50,193.00 L307.50,194.00 L307.50,198.00 L306.00,199.50 L305.50,197.00 L306.50,196.00 L306.50,192.00 L307.50,191.00 L307.50,175.00 L306.50,174.00 L306.50,169.00 L305.50,168.00Z M7.50,172.00 L10.00,171.50 L16.00,176.50 L23.00,179.50 L29.00,178.50 L33.00,176.50 L38.00,171.50 L39.50,172.00 L34.00,177.50 L28.00,180.50 L22.00,180.50 L21.00,179.50 L19.00,179.50Z M97.50,172.00 L98.50,172.00 L95.50,177.00 L89.00,182.50 L85.00,184.50 L79.00,185.50 L78.00,186.50 L72.00,186.50 L71.00,185.50 L68.00,185.50 L66.50,184.00 L80.00,184.50 L81.00,183.50 L84.00,183.50 L93.00,177.50Z M272.50,172.00 L273.50,172.00 L273.50,174.00 L270.50,180.00 L264.00,187.50 L254.00,193.50 L247.00,194.50 L246.00,195.50 L235.00,194.50 L228.00,191.50 L225.00,189.50 L217.50,181.00 L218.00,178.50 L219.50,182.00 L227.00,189.50 L231.00,191.50 L233.00,191.50 L236.00,193.50 L250.00,193.50 L262.00,187.50 L269.50,179.00Z M287.50,172.00 L288.50,172.00 L287.50,180.00 L286.50,181.00 L285.50,186.00 L280.50,195.00 L273.00,203.50 L261.00,210.50 L258.00,210.50 L253.00,212.50 L243.00,212.50 L242.00,211.50 L238.00,211.50 L224.00,205.50 L217.00,200.50 L211.50,195.00 L212.00,193.50 L222.00,202.50 L233.00,208.50 L239.00,209.50 L240.00,210.50 L246.00,210.50 L247.00,211.50 L249.00,210.50 L256.00,210.50 L268.00,205.50 L277.50,197.00 L284.50,185.00Z M319.50,173.00 L320.50,173.00 L320.50,175.00 L322.50,179.00 L322.50,182.00 L323.50,183.00 L324.50,200.00 L323.50,201.00 L323.50,206.00 L322.50,207.00 L321.50,213.00 L319.50,216.00 L319.50,218.00 L317.50,222.00 L314.00,226.50 L313.50,225.00 L317.50,219.00 L317.50,217.00 L319.50,214.00 L319.50,212.00 L321.50,208.00 L321.50,205.00 L322.50,204.00 L322.50,185.00 L321.50,184.00Z M168.50,174.00 L170.00,173.50 L171.50,175.00 L184.50,193.00 L185.50,198.00 L186.50,199.00 L184.00,202.50 L183.50,201.00 L184.50,200.00 L184.50,196.00 L183.50,194.00Z M262.50,178.00 L263.00,177.50 L263.50,179.00 L258.00,184.50 L249.00,188.50 L240.00,189.50 L239.00,188.50 L232.00,187.50 L228.50,185.00 L230.00,184.50 L233.00,186.50 L236.00,186.50 L237.00,187.50 L248.00,187.50 L257.00,183.50Z M325.50,180.00 L327.50,180.00 L327.50,182.00 L329.50,186.00 L329.50,191.00 L330.50,192.00 L330.50,205.00 L329.50,206.00 L327.50,216.00 L319.50,231.00 L313.50,239.00 L298.00,254.50 L291.00,259.50 L283.00,263.50 L277.00,264.50 L276.00,265.50 L269.00,265.50 L267.00,266.50 L266.00,265.50 L256.00,264.50 L255.00,263.50 L250.00,262.50 L236.00,254.50 L214.50,236.00 L215.00,234.50 L229.00,247.50 L240.00,255.50 L249.00,260.50 L251.00,260.50 L257.00,263.50 L260.00,263.50 L261.00,264.50 L275.00,264.50 L279.00,262.50 L282.00,262.50 L290.00,258.50 L297.00,253.50 L302.00,248.50 L303.00,248.50 L313.50,237.00 L315.50,233.00 L318.50,230.00 L325.50,217.00 L325.50,215.00 L328.50,208.00 L328.50,202.00 L329.50,201.00 L328.50,188.00Z M7.50,182.00 L9.50,182.00 L17.50,195.00 L17.50,203.00 L9.00,215.50 L7.50,215.00 L13.50,207.00 L16.50,201.00 L16.50,197.00 L14.50,192.00Z M162.50,186.00 L163.00,185.50 L164.50,188.00 L164.50,192.00 L165.50,193.00 L165.50,204.00 L164.50,205.00 L163.50,213.00 L160.00,220.50 L159.50,218.00 L163.50,208.00 L163.50,201.00 L164.50,200.00 L163.50,198.00 L163.50,190.00 L162.50,189.00Z M151.50,193.00 L152.50,193.00 L152.50,200.00 L151.50,201.00 L151.50,204.00 L150.50,205.00 L150.50,208.00 L149.50,209.00 L148.50,214.00 L140.50,228.00 L133.00,236.50 L132.50,235.00 L139.50,227.00 L147.50,213.00 L147.50,211.00 L149.50,207.00 L149.50,204.00 L150.50,203.00Z M195.50,193.00 L196.50,193.00 L196.50,195.00 L201.50,203.00 L214.00,215.50 L215.00,215.50 L223.00,222.50 L235.00,229.50 L237.00,229.50 L243.00,232.50 L251.00,233.50 L252.00,234.50 L262.00,234.50 L263.00,233.50 L267.00,233.50 L273.00,230.50 L275.00,230.50 L277.00,228.50 L280.00,227.50 L291.50,217.00 L296.50,210.00 L300.50,201.00 L302.50,201.00 L297.50,211.00 L292.50,218.00 L281.00,228.50 L278.00,229.50 L274.00,232.50 L272.00,232.50 L268.00,234.50 L265.00,234.50 L264.00,235.50 L249.00,235.50 L248.00,234.50 L245.00,234.50 L244.00,233.50 L241.00,233.50 L238.00,231.50 L236.00,231.50 L225.00,225.50 L218.00,220.50 L201.50,205.00 L196.50,198.00Z M95.50,194.00 L98.50,194.00 L95.00,195.50 L93.00,197.50 L88.00,199.50 L85.00,199.50 L84.00,200.50 L71.00,200.50 L65.50,198.00 L68.00,197.50 L69.00,198.50 L73.00,198.50 L74.00,199.50 L81.00,199.50 L82.00,198.50 L86.00,198.50 L87.00,197.50 L92.00,196.50Z M113.50,198.00 L114.50,198.00 L113.50,201.00 L107.00,207.50 L101.00,211.50 L97.00,212.50 L94.00,214.50 L90.00,214.50 L89.00,215.50 L75.00,215.50 L74.00,214.50 L71.00,214.50 L70.00,213.50 L65.00,212.50 L58.50,209.00 L61.00,208.50 L66.00,211.50 L68.00,211.50 L72.00,213.50 L87.00,214.50 L88.00,213.50 L92.00,213.50 L100.00,210.50 L106.00,206.50 L113.50,199.00Z M294.50,201.00 L295.00,200.50 L295.50,202.00 L290.50,210.00 L283.00,218.50 L276.00,223.50 L270.00,226.50 L268.00,226.50 L264.00,228.50 L260.00,228.50 L259.00,229.50 L250.00,229.50 L249.00,228.50 L244.50,228.00 L245.00,226.50 L246.00,227.50 L262.00,227.50 L263.00,226.50 L269.00,225.50 L275.00,222.50 L282.00,217.50 L286.50,213.00Z M183.50,206.00 L190.00,205.50 L194.00,208.50 L221.50,235.00 L220.00,235.50 L190.00,207.50 L185.00,206.50 L182.00,209.50 L181.50,208.00Z M21.50,208.00 L24.00,208.50 L28.00,211.50 L49.50,233.00 L47.00,232.50 L26.00,211.50 L22.00,209.50Z M307.50,208.00 L309.50,208.00 L307.50,211.00 L307.50,213.00 L300.50,224.00 L294.00,231.50 L282.00,240.50 L272.00,244.50 L269.00,244.50 L268.00,245.50 L253.00,245.50 L252.00,244.50 L245.00,243.50 L242.50,242.00 L246.00,241.50 L247.00,242.50 L254.00,243.50 L255.00,244.50 L265.00,244.50 L266.00,243.50 L271.00,243.50 L281.00,239.50 L295.50,228.00 L295.50,227.00 L302.50,219.00 L303.50,216.00 L305.50,214.00 L305.50,212.00Z M133.50,212.00 L134.00,211.50 L134.50,213.00 L132.50,217.00 L121.00,229.50 L112.00,235.50 L109.50,235.00 L119.00,229.50 L128.50,220.00Z M14.50,215.00 L19.00,214.50 L20.00,215.50 L22.00,215.50 L30.00,222.50 L31.00,222.50 L31.50,224.00 L45.50,238.00 L45.50,239.00 L73.00,266.50 L74.00,266.50 L78.00,270.50 L94.00,279.50 L101.00,280.50 L102.00,281.50 L111.00,281.50 L112.00,280.50 L118.00,279.50 L124.00,276.50 L135.00,268.50 L159.00,244.50 L160.00,244.50 L168.00,237.50 L173.00,235.50 L179.00,235.50 L183.00,237.50 L191.50,246.00 L195.50,252.00 L202.50,267.00 L202.50,269.00 L204.50,273.00 L204.50,276.00 L205.50,277.00 L205.50,281.00 L206.50,282.00 L206.50,288.00 L207.50,289.00 L206.50,305.00 L205.50,306.00 L204.50,313.00 L199.50,323.00 L197.50,326.00 L185.00,337.50 L175.00,341.50 L170.50,341.00 L174.00,339.50 L177.00,339.50 L184.00,336.50 L196.50,325.00 L202.50,314.00 L202.50,312.00 L204.50,308.00 L204.50,304.00 L205.50,303.00 L205.50,284.00 L204.50,283.00 L204.50,279.00 L203.50,278.00 L203.50,275.00 L202.50,274.00 L199.50,263.00 L190.50,247.00 L182.00,238.50 L175.00,236.50 L174.00,237.50 L171.00,237.50 L166.00,240.50 L136.00,269.50 L125.00,277.50 L119.00,280.50 L113.00,281.50 L112.00,282.50 L100.00,282.50 L99.00,281.50 L93.00,280.50 L83.00,275.50 L72.00,267.50 L45.50,241.00 L45.50,240.00 L29.00,222.50 L21.00,216.50 L18.00,216.50 L17.00,215.50 L16.00,216.50 L14.00,216.50 L13.50,216.00Z M315.50,215.00 L316.00,214.50 L316.50,216.00 L313.50,222.00 L303.50,236.00 L292.00,246.50 L286.00,249.50 L284.00,251.50 L282.00,251.50 L279.00,253.50 L273.00,254.50 L272.00,255.50 L256.00,255.50 L255.00,254.50 L252.00,254.50 L246.00,251.50 L244.00,251.50 L231.50,244.00 L234.00,243.50 L239.00,247.50 L245.00,250.50 L247.00,250.50 L254.00,253.50 L258.00,253.50 L259.00,254.50 L270.00,254.50 L271.00,253.50 L278.00,252.50 L281.00,250.50 L283.00,250.50 L295.00,242.50 L303.50,234.00 L309.50,226.00Z M179.50,216.00 L187.00,215.50 L192.00,218.50 L238.00,266.50 L239.00,266.50 L248.00,274.50 L254.00,277.50 L256.00,279.50 L267.00,283.50 L280.00,283.50 L281.00,282.50 L286.00,281.50 L288.00,279.50 L293.00,277.50 L301.00,270.50 L302.00,270.50 L329.00,244.50 L336.00,240.50 L338.00,240.50 L339.00,239.50 L341.50,240.00 L333.00,243.50 L325.00,249.50 L303.00,271.50 L302.00,271.50 L294.00,278.50 L289.00,280.50 L287.00,282.50 L285.00,282.50 L281.00,284.50 L271.00,285.50 L270.00,284.50 L265.00,284.50 L264.00,283.50 L259.00,282.50 L243.00,272.50 L220.50,251.00 L220.50,250.00 L199.50,228.00 L199.50,227.00 L188.00,217.50 L186.00,216.50 L182.00,216.50 L181.00,217.50 L179.00,217.50 L173.00,222.50 L172.50,221.00Z M110.50,220.00 L112.50,220.00 L106.00,224.50 L104.00,224.50 L101.00,226.50 L95.00,227.50 L94.00,228.50 L81.00,228.50 L79.50,227.00 L83.00,226.50 L84.00,227.50 L90.00,227.50 L91.00,226.50 L96.00,226.50 L97.00,225.50 L100.00,225.50 L103.00,223.50 L105.00,223.50 L107.00,221.50Z M183.50,221.00 L185.00,220.50 L193.00,225.50 L199.50,232.00 L199.50,233.00 L211.50,247.00 L210.00,247.50 L208.50,246.00 L204.50,240.00 L192.00,226.50Z M340.50,221.00 L341.00,220.50 L341.50,222.00 L328.50,235.00 L328.50,236.00 L321.50,243.00 L321.50,244.00 L302.00,263.50 L292.00,270.50 L284.00,274.50 L278.00,275.50 L277.00,276.50 L266.00,276.50 L265.00,275.50 L261.00,275.50 L246.00,268.50 L243.50,266.00 L245.00,265.50 L247.00,267.50 L263.00,274.50 L268.00,274.50 L269.00,275.50 L271.00,275.50 L272.00,274.50 L279.00,274.50 L280.00,273.50 L283.00,273.50 L291.00,269.50 L301.00,262.50 L321.50,242.00 L321.50,241.00 L328.50,234.00 L328.50,233.00Z M10.50,222.00 L19.00,221.50 L25.00,225.50 L33.50,234.00 L33.50,235.00 L38.50,240.00 L53.50,260.00 L57.50,267.00 L60.50,270.00 L72.50,288.00 L73.50,291.00 L78.50,298.00 L87.50,317.00 L88.50,325.00 L89.50,326.00 L89.50,332.00 L88.50,333.00 L87.50,340.00 L86.00,341.50 L85.50,340.00 L87.50,336.00 L87.50,322.00 L86.50,321.00 L84.50,313.00 L71.50,289.00 L57.50,268.00 L49.50,258.00 L47.50,254.00 L37.50,242.00 L37.50,241.00 L32.50,236.00 L32.50,235.00 L24.00,226.50 L18.00,222.50 L8.00,223.50 L8.00,222.50Z M176.50,227.00 L182.00,226.50 L188.00,229.50 L197.50,239.00 L211.50,260.00 L222.50,283.00 L222.50,285.00 L226.50,295.00 L227.50,305.00 L228.50,306.00 L228.50,321.00 L227.50,322.00 L227.50,326.00 L226.50,327.00 L226.50,330.00 L225.50,331.00 L224.50,336.00 L221.00,341.50 L220.50,340.00 L223.50,335.00 L223.50,333.00 L225.50,329.00 L226.50,317.00 L227.50,316.00 L227.50,312.00 L226.50,311.00 L226.50,302.00 L225.50,301.00 L225.50,297.00 L224.50,296.00 L224.50,293.00 L223.50,292.00 L221.50,284.00 L210.50,261.00 L196.50,240.00 L187.00,230.50 L183.00,228.50 L180.00,228.50 L179.00,227.50 L178.00,228.50 L175.00,228.50 L172.00,230.50 L172.00,228.50Z M10.50,229.00 L13.00,228.50 L20.00,231.50 L31.50,244.00 L37.50,253.00 L38.50,256.00 L40.50,258.00 L45.50,268.00 L45.50,270.00 L48.50,275.00 L48.50,277.00 L52.50,287.00 L53.50,295.00 L54.50,296.00 L54.50,317.00 L53.50,318.00 L53.50,322.00 L52.50,323.00 L50.50,331.00 L47.50,337.00 L44.00,341.50 L43.50,340.00 L49.50,330.00 L49.50,328.00 L51.50,324.00 L51.50,321.00 L52.50,320.00 L52.50,316.00 L53.50,315.00 L53.50,299.00 L52.50,298.00 L52.50,293.00 L51.50,292.00 L50.50,285.00 L49.50,284.00 L47.50,276.00 L44.50,271.00 L44.50,269.00 L31.50,246.00 L19.00,232.50 L15.00,230.50 L8.00,230.50 L8.00,229.50Z M7.50,235.00 L10.00,234.50 L17.00,237.50 L23.50,244.00 L28.50,251.00 L34.50,263.00 L34.50,265.00 L36.50,268.00 L36.50,270.00 L38.50,274.00 L39.50,283.00 L40.50,284.00 L40.50,292.00 L41.50,293.00 L40.50,295.00 L40.50,305.00 L39.50,306.00 L38.50,313.00 L35.50,318.00 L35.50,320.00 L26.00,332.50 L25.00,332.50 L21.00,336.50 L11.00,341.50 L8.00,341.50 L8.00,340.50 L15.00,338.50 L24.00,332.50 L32.50,322.00 L38.50,308.00 L38.50,303.00 L39.50,302.00 L39.50,286.00 L38.50,285.00 L38.50,280.00 L37.50,279.00 L37.50,276.00 L36.50,275.00 L33.50,264.00 L27.50,252.00 L23.50,246.00 L16.00,238.50 L12.00,236.50 L9.00,236.50Z M124.50,242.00 L126.50,242.00 L123.00,245.50 L114.00,250.50 L112.00,250.50 L108.00,252.50 L105.00,252.50 L104.00,253.50 L94.50,253.00 L110.00,250.50 L113.00,248.50 L115.00,248.50 L119.00,246.50Z M169.50,242.00 L177.00,241.50 L178.00,242.50 L180.00,242.50 L186.50,249.00 L190.50,255.00 L196.50,270.00 L197.50,281.00 L198.50,282.00 L198.50,292.00 L197.50,293.00 L197.50,298.00 L195.50,302.00 L195.50,305.00 L192.50,311.00 L188.50,317.00 L183.00,322.50 L177.00,326.50 L175.00,326.50 L172.00,328.50 L169.00,328.50 L168.00,329.50 L155.00,329.50 L144.00,325.50 L144.00,323.50 L149.00,326.50 L156.00,327.50 L157.00,328.50 L166.00,328.50 L167.00,327.50 L171.00,327.50 L174.00,325.50 L176.00,325.50 L182.00,321.50 L187.50,316.00 L193.50,306.00 L193.50,304.00 L195.50,300.00 L195.50,296.00 L196.50,295.00 L196.50,277.00 L195.50,276.00 L195.50,272.00 L193.50,268.00 L193.50,265.00 L191.50,262.00 L191.50,260.00 L189.50,256.00 L187.50,254.00 L186.50,251.00 L179.00,243.50 L177.00,243.50 L176.00,242.50 L171.00,242.50 L170.00,243.50 L168.00,243.50 L167.50,243.00Z M8.50,249.00 L9.00,248.50 L12.00,250.50 L18.50,259.00 L18.50,261.00 L21.50,267.00 L22.50,279.00 L23.50,280.00 L22.50,281.00 L22.50,290.00 L21.50,291.00 L20.50,297.00 L15.50,306.00 L9.00,312.50 L7.50,312.00 L14.50,305.00 L20.50,293.00 L20.50,289.00 L21.50,288.00 L21.50,273.00 L20.50,272.00 L20.50,269.00 L19.50,268.00 L18.50,263.00 L15.50,257.00 L13.50,254.00 L8.50,250.00Z M167.50,250.00 L173.00,249.50 L177.00,251.50 L182.50,258.00 L184.50,262.00 L184.00,263.50 L182.50,262.00 L180.50,257.00 L176.00,252.50 L172.00,250.50 L169.00,250.50 L164.00,252.50 L158.00,256.50 L144.00,270.50 L142.50,270.00 L157.00,255.50 L163.00,251.50Z M211.50,253.00 L212.00,252.50 L213.50,254.00 L221.50,266.00 L222.50,269.00 L226.50,274.00 L240.50,301.00 L240.50,303.00 L243.50,310.00 L243.50,313.00 L244.50,314.00 L244.50,319.00 L245.50,320.00 L245.50,331.00 L244.50,332.00 L244.50,337.00 L242.00,341.50 L241.50,340.00 L243.50,335.00 L243.50,329.00 L244.50,328.00 L244.50,326.00 L243.50,325.00 L243.50,316.00 L242.50,315.00 L240.50,305.00 L228.50,280.00 L212.50,256.00Z M7.50,257.00 L9.00,256.50 L12.50,260.00 L16.50,270.00 L16.50,286.00 L15.50,287.00 L15.50,290.00 L9.00,301.50 L7.50,301.00 L9.50,299.00 L13.50,291.00 L14.50,285.00 L15.50,284.00 L15.50,273.00 L14.50,272.00 L13.50,265.00 L11.50,261.00Z M165.50,257.00 L169.00,256.50 L170.00,257.50 L172.00,257.50 L176.50,262.00 L178.50,266.00 L179.50,272.00 L180.50,273.00 L180.50,281.00 L179.50,282.00 L179.50,286.00 L178.50,287.00 L177.50,292.00 L168.00,302.50 L163.00,304.50 L159.00,304.50 L158.00,305.50 L150.00,303.50 L144.50,298.00 L143.50,291.00 L144.50,290.00 L144.50,287.00 L148.50,279.00 L157.00,269.50 L162.00,266.50 L166.00,266.50 L168.00,267.50 L171.50,272.00 L171.50,282.00 L170.50,283.00 L170.50,285.00 L168.50,288.00 L162.00,293.50 L158.00,293.50 L157.00,294.50 L152.50,291.00 L153.00,289.50 L156.00,292.50 L161.00,292.50 L163.00,291.50 L168.50,286.00 L168.50,284.00 L170.50,281.00 L170.50,274.00 L169.50,273.00 L169.50,271.00 L165.00,267.50 L161.00,268.50 L151.50,277.00 L146.50,286.00 L146.50,288.00 L145.50,289.00 L145.50,296.00 L146.50,298.00 L153.00,303.50 L162.00,303.50 L165.00,301.50 L167.00,301.50 L174.50,294.00 L176.50,291.00 L176.50,289.00 L178.50,285.00 L178.50,279.00 L179.50,278.00 L178.50,277.00 L178.50,270.00 L175.50,263.00 L171.00,258.50 L165.00,258.50 L164.00,259.50 L162.00,259.50 L155.00,264.50 L136.50,285.00 L108.50,323.00 L108.50,326.00 L121.50,340.00 L121.00,341.50 L106.50,326.00 L106.50,324.00 L108.50,320.00 L128.50,293.00 L132.50,289.00 L140.50,278.00 L147.50,271.00 L147.50,270.00 L158.00,260.50 L163.00,257.50Z M332.50,257.00 L335.00,256.50 L336.00,257.50 L338.00,257.50 L340.00,258.50 L341.50,261.00 L341.00,261.50 L337.00,258.50 L331.00,258.50 L324.00,262.50 L311.50,275.00 L311.50,276.00 L298.50,291.00 L283.50,311.00 L278.50,320.00 L278.50,325.00 L282.50,331.00 L292.50,341.00 L291.00,341.50 L281.50,332.00 L277.50,326.00 L277.50,324.00 L276.50,323.00 L277.50,318.00 L297.50,290.00 L311.50,274.00 L311.50,273.00 L322.00,262.50 L328.00,258.50Z M224.50,266.00 L225.00,265.50 L227.50,268.00 L229.50,272.00 L235.50,279.00 L237.50,283.00 L240.50,286.00 L257.50,311.00 L263.50,323.00 L264.00,327.50 L262.50,327.00 L260.50,319.00 L254.50,310.00 L253.50,307.00 L248.50,301.00 L237.50,284.00 L231.50,277.00 L229.50,273.00 L226.50,270.00Z M182.50,270.00 L183.00,269.50 L184.50,272.00 L184.50,285.00 L183.50,286.00 L183.50,290.00 L178.50,300.00 L172.00,306.50 L171.50,305.00 L179.50,296.00 L179.50,294.00 L182.50,288.00 L182.50,284.00 L183.50,283.00 L183.50,275.00 L182.50,274.00Z M327.50,271.00 L332.00,270.50 L334.50,273.00 L334.50,275.00 L335.50,276.00 L334.50,283.00 L333.50,285.00 L331.00,287.50 L330.50,287.00 L333.50,282.00 L333.50,274.00 L329.00,271.50 L324.00,274.50 L319.50,280.00 L317.50,284.00 L317.50,291.00 L318.50,293.00 L322.00,295.50 L327.00,295.50 L328.00,294.50 L330.00,294.50 L333.00,291.50 L334.50,292.00 L331.00,295.50 L329.00,295.50 L328.00,296.50 L321.00,296.50 L318.00,294.50 L316.50,292.00 L316.50,290.00 L315.50,289.00 L316.50,283.00 L320.50,276.00Z M25.50,272.00 L26.50,272.00 L26.50,274.00 L27.50,275.00 L27.50,293.00 L26.50,294.00 L25.50,300.00 L20.50,310.00 L12.00,318.50 L8.00,320.50 L7.50,320.00 L19.50,309.00 L24.50,299.00 L25.50,291.00 L26.50,290.00 L26.50,278.00 L25.50,277.00Z M131.50,277.00 L133.50,277.00 L127.00,282.50 L115.00,288.50 L110.00,288.50 L109.00,289.50 L100.00,288.50 L89.50,284.00 L90.00,282.50 L95.00,285.50 L101.00,286.50 L102.00,287.50 L112.00,287.50 L113.00,286.50 L116.00,286.50 L121.00,284.50Z M190.50,279.00 L191.50,279.00 L191.50,291.00 L190.50,292.00 L190.50,295.00 L189.50,296.00 L188.50,301.00 L183.50,309.00 L177.00,315.50 L169.00,319.50 L167.00,319.50 L166.00,320.50 L157.00,320.50 L157.00,319.50 L164.00,319.50 L165.00,318.50 L168.00,318.50 L176.00,314.50 L182.50,308.00 L186.50,302.00 L189.50,294.00 L189.50,290.00 L190.50,289.00Z M55.50,281.00 L56.00,280.50 L57.50,283.00 L57.50,285.00 L62.50,298.00 L63.50,309.00 L64.50,310.00 L64.50,322.00 L63.50,323.00 L63.50,328.00 L62.50,329.00 L61.50,335.00 L59.50,338.00 L59.50,340.00 L58.00,341.50 L57.50,339.00 L59.50,336.00 L59.50,334.00 L61.50,330.00 L61.50,326.00 L62.50,325.00 L62.50,305.00 L61.50,304.00 L60.50,296.00 L59.50,295.00 L57.50,287.00 L55.50,284.00Z M239.50,281.00 L240.00,280.50 L242.50,283.00 L242.50,284.00 L249.50,291.00 L249.50,292.00 L260.00,302.50 L268.00,308.50 L272.00,309.50 L273.50,311.00 L272.00,311.50 L267.00,309.50 L259.00,303.50 L241.50,285.00Z M61.50,282.00 L62.00,281.50 L63.50,283.00 L67.50,291.00 L67.50,293.00 L70.50,298.00 L70.50,300.00 L73.50,307.00 L73.50,310.00 L74.50,311.00 L74.50,315.00 L75.50,316.00 L75.50,331.00 L74.50,332.00 L73.50,340.00 L72.00,341.50 L71.50,339.00 L73.50,335.00 L73.50,329.00 L74.50,328.00 L73.50,313.00 L72.50,312.00 L70.50,302.00Z M297.50,282.00 L298.00,281.50 L298.50,283.00 L295.00,286.50 L288.00,291.50 L281.00,294.50 L269.00,294.50 L268.00,293.50 L265.00,293.50 L263.50,292.00 L266.00,291.50 L270.00,293.50 L279.00,293.50 L287.00,290.50 L293.00,286.50Z M210.50,285.00 L211.50,285.00 L211.50,289.00 L212.50,290.00 L212.50,308.00 L211.50,309.00 L210.50,317.00 L203.50,331.00 L200.50,335.00 L193.00,341.50 L192.50,341.00 L199.50,334.00 L204.50,327.00 L209.50,315.00 L210.50,307.00 L211.50,306.00 L211.50,292.00 L210.50,291.00Z M247.50,285.00 L249.00,284.50 L253.00,288.50 L263.00,295.50 L271.00,298.50 L279.00,298.50 L286.00,295.50 L290.00,292.50 L290.50,294.00 L281.00,299.50 L277.00,299.50 L276.00,300.50 L275.00,299.50 L269.00,299.50 L266.00,297.50 L262.00,296.50 L256.00,292.50Z M79.50,288.00 L80.00,287.50 L96.00,302.50 L105.00,307.50 L111.00,307.50 L116.00,304.50 L116.50,306.00 L112.00,308.50 L104.00,308.50 L98.00,305.50 L90.00,299.50 L79.50,289.00Z M85.50,288.00 L86.00,287.50 L97.00,295.50 L99.00,295.50 L102.00,297.50 L106.00,297.50 L107.00,298.50 L114.00,297.50 L115.00,296.50 L117.00,296.50 L121.00,293.50 L122.50,294.00 L118.00,297.50 L116.00,297.50 L112.00,299.50 L105.00,299.50 L104.00,298.50 L101.00,298.50 L98.00,296.50 L96.00,296.50 L87.00,290.50Z M134.50,293.00 L135.50,293.00 L135.50,295.00 L133.50,298.00 L133.50,308.00 L134.50,309.00 L134.50,311.00 L140.00,317.50 L148.00,321.50 L149.50,323.00 L149.00,323.50 L142.00,320.50 L138.00,317.50 L132.50,310.00 L132.50,308.00 L131.50,307.00 L131.50,301.00Z M305.50,293.00 L306.50,293.00 L306.50,295.00 L305.50,296.00 L305.50,301.00 L308.50,307.00 L316.00,312.50 L318.00,312.50 L319.00,313.50 L331.00,313.50 L341.00,308.50 L341.50,310.00 L333.00,314.50 L330.00,314.50 L329.00,315.50 L321.00,315.50 L320.00,314.50 L317.00,314.50 L310.00,310.50 L305.50,305.00 L305.50,303.00 L304.50,302.00 L304.50,294.00Z M217.50,296.00 L218.00,295.50 L219.50,297.00 L219.50,313.00 L218.50,314.00 L218.50,319.00 L217.50,320.00 L217.50,323.00 L215.50,326.00 L215.50,328.00 L211.50,336.00 L207.00,341.50 L206.50,340.00 L210.50,335.00 L214.50,327.00 L214.50,325.00 L216.50,321.00 L216.50,318.00 L217.50,317.00 L217.50,311.00 L218.50,310.00 L218.50,301.00 L217.50,300.00Z M127.50,300.00 L129.50,300.00 L126.50,308.00 L127.50,315.00 L130.50,320.00 L138.00,327.50 L149.00,333.50 L155.00,334.50 L156.00,335.50 L162.00,335.50 L164.00,336.50 L165.00,335.50 L172.00,335.50 L176.00,333.50 L177.50,334.00 L176.00,335.50 L170.00,336.50 L169.00,337.50 L159.00,337.50 L158.00,336.50 L150.00,335.50 L137.00,328.50 L129.50,321.00 L125.50,314.00 L125.50,306.00 L126.50,305.00Z M297.50,300.00 L298.50,300.00 L298.50,309.00 L299.50,310.00 L299.50,312.00 L301.50,315.00 L310.00,322.50 L320.00,326.50 L325.00,326.50 L326.00,327.50 L335.00,326.50 L340.00,324.50 L341.50,325.00 L340.00,326.50 L334.00,327.50 L333.00,328.50 L323.00,328.50 L322.00,327.50 L315.00,326.50 L309.00,323.50 L300.50,316.00 L297.50,311.00 L297.50,308.00 L296.50,307.00Z M310.50,301.00 L311.00,300.50 L314.00,304.50 L321.00,307.50 L329.00,307.50 L334.00,305.50 L340.00,300.50 L341.50,301.00 L335.00,306.50 L330.00,308.50 L319.00,308.50 L313.00,305.50Z M28.50,302.00 L30.50,302.00 L23.50,316.00 L15.00,324.50 L8.00,327.50 L7.50,327.00 L9.00,325.50 L14.00,323.50 L22.50,315.00 L27.50,306.00Z M46.50,305.00 L47.50,305.00 L47.50,308.00 L46.50,309.00 L46.50,314.00 L45.50,315.00 L45.50,318.00 L43.50,321.00 L43.50,323.00 L36.50,335.00 L30.00,341.50 L29.00,341.50 L28.50,341.00 L38.50,330.00 L42.50,322.00 L42.50,320.00 L44.50,316.00 L44.50,313.00 L45.50,312.00 L45.50,306.00Z M177.50,305.00 L178.00,304.50 L178.50,306.00 L174.00,310.50 L171.00,311.50 L169.00,313.50 L163.00,314.50 L162.00,315.50 L156.00,315.50 L155.00,314.50 L149.00,313.50 L145.00,311.50 L140.50,307.00 L142.00,306.50 L146.00,310.50 L153.00,313.50 L164.00,313.50 L173.00,309.50Z M76.50,308.00 L78.50,308.00 L78.50,310.00 L80.50,314.00 L80.50,317.00 L81.50,318.00 L81.50,325.00 L82.50,326.00 L81.50,336.00 L80.50,337.00 L80.50,340.00 L79.00,341.50 L78.50,339.00 L80.50,334.00 L80.50,320.00 L79.50,319.00 L79.50,315.00Z M231.50,308.00 L232.00,307.50 L233.50,309.00 L233.50,326.00 L232.50,327.00 L231.50,335.00 L229.50,338.00 L229.50,340.00 L228.00,341.50 L227.50,340.00 L230.50,333.00 L231.50,323.00 L232.50,322.00 L232.50,313.00 L231.50,312.00Z M246.50,308.00 L247.50,308.00 L248.50,312.00 L250.50,315.00 L251.50,325.00 L252.50,326.00 L252.50,331.00 L251.50,332.00 L251.50,337.00 L250.50,338.00 L250.00,341.50 L249.00,341.50 L248.50,340.00 L250.50,335.00 L250.50,321.00 L249.50,320.00 L249.50,317.00 L248.50,316.00Z M90.50,309.00 L91.00,308.50 L93.50,311.00 L101.50,324.00 L101.50,330.00 L94.00,341.50 L92.50,341.00 L98.50,333.00 L100.50,329.00 L100.50,326.00 L97.50,319.00 L92.50,313.00Z M119.50,311.00 L121.50,311.00 L120.50,313.00 L120.50,317.00 L123.50,324.00 L126.50,328.00 L128.00,328.50 L136.00,336.50 L143.00,340.50 L143.00,341.50 L141.00,341.50 L138.00,339.50 L126.50,330.00 L119.50,319.00Z M304.50,312.00 L306.00,311.50 L311.00,316.50 L321.00,320.50 L330.00,320.50 L331.00,319.50 L335.00,319.50 L341.00,316.50 L341.50,318.00 L333.00,321.50 L320.00,321.50 L310.00,317.50Z M288.50,320.00 L289.00,319.50 L291.50,322.00 L293.50,326.00 L300.00,332.50 L313.50,341.00 L311.00,341.50 L299.00,333.50 L292.50,327.00Z M269.50,330.00 L272.00,329.50 L274.00,330.50 L285.50,341.00 L284.00,341.50 L273.00,331.50 L270.00,331.50 L263.50,338.00 L263.50,339.00 L260.00,341.50 L259.50,341.00 L262.50,337.00Z M306.50,331.00 L308.00,330.50 L317.00,335.50 L324.00,336.50 L325.00,337.50 L337.00,337.50 L338.00,336.50 L341.50,337.00 L339.00,338.50 L334.00,338.50 L333.00,339.50 L332.00,338.50 L323.00,338.50 L322.00,337.50 L319.00,337.50 L318.00,336.50 L313.00,335.50Z" fill="#000000" fill-rule="evenodd" stroke="none"/>
</svg>
