<svg xmlns="http://www.w3.org/2000/svg" viewBox="0 0 350 350">
  <path d="M218.50,15.00 L224.00,14.50 L228.50,19.00 L230.50,24.00 L231.50,34.00 L232.50,35.00 L232.50,72.00 L233.50,73.00 L233.50,82.00 L234.50,83.00 L234.50,86.00 L236.50,91.00 L240.00,94.50 L245.00,96.50 L256.00,96.50 L257.00,95.50 L262.00,95.50 L263.00,94.50 L272.00,93.50 L277.00,91.50 L281.00,91.50 L282.00,90.50 L290.00,89.50 L291.00,88.50 L296.00,88.50 L297.00,87.50 L314.00,87.50 L315.00,88.50 L317.00,88.50 L320.50,92.00 L320.50,100.00 L315.50,110.00 L291.50,142.00 L282.50,157.00 L282.50,159.00 L280.50,162.00 L279.50,168.00 L278.50,169.00 L278.50,178.00 L282.50,185.00 L290.00,192.50 L291.00,192.50 L302.00,202.50 L314.00,211.50 L326.50,224.00 L330.50,231.00 L330.50,237.00 L327.00,240.50 L323.00,242.50 L315.00,243.50 L314.00,244.50 L300.00,244.50 L299.00,245.50 L273.00,245.50 L272.00,246.50 L263.00,246.50 L262.00,247.50 L258.00,247.50 L257.00,248.50 L254.00,248.50 L253.00,249.50 L248.00,250.50 L238.00,256.50 L231.50,264.00 L225.50,276.00 L225.50,278.00 L220.50,291.00 L220.50,294.00 L219.50,295.00 L216.50,310.00 L214.50,314.00 L214.50,317.00 L213.50,318.00 L210.50,329.00 L206.50,336.00 L203.00,339.50 L201.00,339.50 L200.00,340.50 L198.00,340.50 L194.00,338.50 L185.50,329.00 L163.50,286.00 L156.00,277.50 L152.00,275.50 L146.00,275.50 L139.00,278.50 L99.00,308.50 L89.00,313.50 L81.00,313.50 L76.50,308.00 L75.50,299.00 L76.50,298.00 L76.50,290.00 L77.50,289.00 L77.50,284.00 L78.50,283.00 L78.50,279.00 L79.50,278.00 L79.50,274.00 L80.50,273.00 L80.50,269.00 L81.50,268.00 L81.50,263.00 L82.50,262.00 L82.50,258.00 L83.50,257.00 L83.50,251.00 L84.50,250.00 L84.50,228.00 L83.50,227.00 L83.50,224.00 L77.50,213.00 L71.00,206.50 L53.00,194.50 L34.00,185.50 L32.00,183.50 L23.00,179.50 L17.00,175.50 L10.50,170.00 L8.50,167.00 L7.50,162.00 L13.00,155.50 L18.00,152.50 L20.00,152.50 L23.00,150.50 L25.00,150.50 L29.00,148.50 L32.00,148.50 L33.00,147.50 L36.00,147.50 L37.00,146.50 L40.00,146.50 L41.00,145.50 L44.00,145.50 L49.00,143.50 L53.00,143.50 L54.00,142.50 L57.00,142.50 L58.00,141.50 L61.00,141.50 L62.00,140.50 L70.00,138.50 L76.00,135.50 L81.50,130.00 L81.50,128.00 L82.50,127.00 L82.50,121.00 L81.50,120.00 L81.50,117.00 L80.50,116.00 L79.50,111.00 L71.50,95.00 L71.50,93.00 L65.50,82.00 L65.50,80.00 L63.50,77.00 L63.50,75.00 L61.50,72.00 L60.50,66.00 L59.50,65.00 L58.50,57.00 L59.50,56.00 L59.50,54.00 L63.00,50.50 L65.00,49.50 L72.00,49.50 L73.00,50.50 L76.00,50.50 L77.00,51.50 L82.00,52.50 L85.00,54.50 L87.00,54.50 L90.00,56.50 L92.00,56.50 L115.00,67.50 L117.00,67.50 L120.00,69.50 L122.00,69.50 L129.00,72.50 L137.00,73.50 L138.00,74.50 L149.00,74.50 L150.00,73.50 L154.00,73.50 L157.00,71.50 L161.00,70.50 L173.00,61.50 L186.50,47.00 L186.50,46.00 L192.50,40.00 L197.50,33.00 L213.00,17.50Z M219.50,16.00 L223.00,15.50 L227.50,20.00 L229.50,25.00 L229.50,29.00 L230.50,30.00 L230.50,40.00 L231.50,41.00 L231.50,78.00 L232.50,79.00 L232.50,84.00 L233.50,85.00 L234.50,90.00 L239.00,95.50 L243.00,97.50 L259.00,97.50 L260.00,96.50 L264.00,96.50 L265.00,95.50 L269.00,95.50 L270.00,94.50 L274.00,94.50 L279.00,92.50 L283.00,92.50 L284.00,91.50 L293.00,90.50 L294.00,89.50 L299.00,89.50 L300.00,88.50 L313.00,88.50 L314.00,89.50 L316.00,89.50 L319.50,93.00 L319.50,98.00 L314.50,109.00 L290.50,141.00 L285.50,150.00 L283.50,152.00 L277.50,167.00 L277.50,174.00 L276.50,175.00 L277.50,176.00 L277.50,179.00 L282.50,187.00 L295.00,198.50 L296.00,198.50 L312.00,212.50 L313.00,212.50 L325.50,225.00 L329.50,232.00 L329.50,236.00 L326.00,239.50 L321.00,241.50 L318.00,241.50 L317.00,242.50 L311.00,242.50 L310.00,243.50 L287.00,243.50 L286.00,244.50 L268.00,244.50 L267.00,245.50 L256.00,246.50 L255.00,247.50 L249.00,248.50 L241.00,252.50 L237.00,256.50 L236.00,256.50 L226.50,270.00 L226.50,272.00 L224.50,275.00 L224.50,277.00 L222.50,280.00 L222.50,282.00 L220.50,286.00 L220.50,289.00 L218.50,293.00 L218.50,296.00 L217.50,297.00 L217.50,300.00 L216.50,301.00 L216.50,304.00 L215.50,305.00 L215.50,308.00 L214.50,309.00 L214.50,312.00 L212.50,316.00 L212.50,319.00 L211.50,320.00 L210.50,325.00 L208.50,328.00 L207.50,332.00 L202.00,338.50 L197.00,338.50 L195.00,337.50 L189.50,332.00 L183.50,323.00 L164.50,285.00 L157.00,276.50 L153.00,274.50 L145.00,274.50 L138.00,277.50 L98.00,307.50 L87.00,312.50 L82.00,312.50 L77.50,307.00 L77.50,293.00 L78.50,292.00 L78.50,286.00 L79.50,285.00 L79.50,281.00 L80.50,280.00 L80.50,276.00 L81.50,275.00 L81.50,271.00 L82.50,270.00 L82.50,266.00 L83.50,265.00 L83.50,260.00 L84.50,259.00 L84.50,254.00 L85.50,253.00 L85.50,246.00 L86.50,245.00 L86.50,232.00 L85.50,231.00 L85.50,226.00 L84.50,225.00 L84.50,223.00 L80.50,215.00 L72.00,205.50 L54.00,193.50 L35.00,184.50 L33.00,182.50 L24.00,178.50 L18.00,174.50 L14.00,171.50 L9.50,166.00 L9.50,161.00 L14.00,156.50 L22.00,152.50 L24.00,152.50 L31.00,149.50 L34.00,149.50 L35.00,148.50 L38.00,148.50 L39.00,147.50 L42.00,147.50 L43.00,146.50 L46.00,146.50 L47.00,145.50 L50.00,145.50 L51.00,144.50 L54.00,144.50 L55.00,143.50 L58.00,143.50 L59.00,142.50 L69.00,140.50 L77.00,136.50 L83.50,129.00 L83.50,119.00 L82.50,118.00 L81.50,112.00 L72.50,94.00 L72.50,92.00 L66.50,81.00 L66.50,79.00 L64.50,76.00 L64.50,74.00 L62.50,71.00 L62.50,68.00 L60.50,64.00 L60.50,55.00 L62.00,52.50 L67.00,51.50 L68.00,50.50 L69.00,51.50 L78.00,52.50 L84.00,55.50 L86.00,55.50 L91.00,58.50 L93.00,58.50 L100.00,62.50 L102.00,62.50 L109.00,66.50 L111.00,66.50 L114.00,68.50 L116.00,68.50 L119.00,70.50 L121.00,70.50 L131.00,74.50 L135.00,74.50 L136.00,75.50 L152.00,75.50 L162.00,71.50 L168.00,67.50 L175.00,60.50 L176.00,60.50 L187.50,48.00 L187.50,47.00 L198.50,35.00 L198.50,34.00 L214.00,18.50Z M212.50,40.00 L215.00,39.50 L217.00,40.50 L219.50,43.00 L221.50,47.00 L222.50,57.00 L223.50,58.00 L223.50,92.00 L224.50,93.00 L225.50,102.00 L230.00,107.50 L232.00,108.50 L246.00,108.50 L247.00,107.50 L256.00,106.50 L261.00,104.50 L265.00,104.50 L266.00,103.50 L270.00,103.50 L271.00,102.50 L275.00,102.50 L276.00,101.50 L285.00,101.50 L286.00,100.50 L288.00,101.50 L293.00,101.50 L295.00,102.50 L297.50,106.00 L297.50,111.00 L296.50,112.00 L296.50,114.00 L291.50,123.00 L288.50,126.00 L286.50,130.00 L268.50,154.00 L263.50,164.00 L262.50,173.00 L261.50,174.00 L262.50,175.00 L262.50,179.00 L264.50,182.00 L275.00,192.50 L276.00,192.50 L281.00,197.50 L293.00,206.50 L301.50,215.00 L305.50,221.00 L305.50,227.00 L300.00,231.50 L298.00,231.50 L297.00,232.50 L292.00,232.50 L291.00,233.50 L254.00,234.50 L253.00,235.50 L242.00,236.50 L241.00,237.50 L236.00,238.50 L228.00,243.50 L224.50,247.00 L218.50,257.00 L218.50,259.00 L216.50,262.00 L216.50,264.00 L214.50,268.00 L212.50,279.00 L210.50,283.00 L210.50,286.00 L209.50,287.00 L209.50,290.00 L208.50,291.00 L208.50,294.00 L207.50,295.00 L205.50,303.00 L202.50,309.00 L198.00,313.50 L193.00,313.50 L191.00,312.50 L185.50,307.00 L181.50,301.00 L167.50,272.00 L163.50,266.00 L156.00,259.50 L151.00,259.50 L144.00,262.50 L109.00,288.50 L102.00,291.50 L96.00,291.50 L92.50,288.00 L92.50,286.00 L91.50,285.00 L91.50,275.00 L92.50,274.00 L92.50,268.00 L93.50,267.00 L93.50,263.00 L94.50,262.00 L94.50,258.00 L95.50,257.00 L95.50,253.00 L96.50,252.00 L96.50,248.00 L97.50,247.00 L97.50,242.00 L98.50,241.00 L98.50,234.00 L99.50,233.00 L99.50,224.00 L98.50,223.00 L98.50,218.00 L97.50,217.00 L97.50,215.00 L94.50,209.00 L81.00,196.50 L71.00,191.50 L69.00,189.50 L50.00,180.50 L48.00,178.50 L42.00,175.50 L35.50,169.00 L34.50,167.00 L34.50,163.00 L40.00,157.50 L44.00,155.50 L46.00,155.50 L56.00,151.50 L64.00,150.50 L65.00,149.50 L68.00,149.50 L69.00,148.50 L72.00,148.50 L73.00,147.50 L76.00,147.50 L77.00,146.50 L80.00,146.50 L81.00,145.50 L86.00,144.50 L92.00,141.50 L96.50,137.00 L97.50,131.00 L96.50,130.00 L95.50,123.00 L82.50,96.00 L82.50,94.00 L80.50,91.00 L80.50,89.00 L77.50,82.00 L77.50,74.00 L80.00,70.50 L82.00,69.50 L89.00,69.50 L90.00,70.50 L93.00,70.50 L99.00,73.50 L101.00,73.50 L106.00,76.50 L108.00,76.50 L115.00,80.50 L117.00,80.50 L122.00,83.50 L129.00,85.50 L132.00,87.50 L138.00,88.50 L139.00,89.50 L143.00,89.50 L144.00,90.50 L153.00,90.50 L154.00,89.50 L160.00,88.50 L171.00,81.50 L181.50,71.00 L181.50,70.00 L187.50,64.00 L192.50,57.00 L207.00,42.50Z M211.50,42.00 L216.00,41.50 L218.50,44.00 L220.50,49.00 L220.50,52.00 L221.50,53.00 L221.50,64.00 L222.50,65.00 L222.50,95.00 L223.50,96.00 L224.50,103.00 L229.00,108.50 L234.00,110.50 L242.00,110.50 L243.00,109.50 L248.00,109.50 L249.00,108.50 L253.00,108.50 L254.00,107.50 L258.00,107.50 L263.00,105.50 L267.00,105.50 L268.00,104.50 L272.00,104.50 L273.00,103.50 L278.00,103.50 L279.00,102.50 L291.00,102.50 L295.50,105.00 L296.50,110.00 L292.50,119.00 L273.50,144.00 L267.50,153.00 L262.50,163.00 L261.50,169.00 L260.50,170.00 L260.50,177.00 L263.50,183.00 L274.00,193.50 L275.00,193.50 L291.00,207.50 L292.00,207.50 L301.50,217.00 L304.50,222.00 L304.50,226.00 L299.00,230.50 L289.00,231.50 L288.00,232.50 L263.00,232.50 L262.00,233.50 L250.00,233.50 L249.00,234.50 L244.00,234.50 L240.00,236.50 L237.00,236.50 L227.00,242.50 L221.50,249.00 L217.50,256.00 L217.50,258.00 L215.50,261.00 L215.50,263.00 L212.50,270.00 L212.50,273.00 L211.50,274.00 L210.50,281.00 L208.50,285.00 L207.50,292.00 L205.50,296.00 L205.50,299.00 L203.50,302.00 L203.50,304.00 L201.50,308.00 L197.00,312.50 L192.00,311.50 L186.50,306.00 L182.50,300.00 L168.50,271.00 L164.50,265.00 L157.00,258.50 L149.00,258.50 L143.00,261.50 L113.00,284.50 L104.00,289.50 L97.00,290.50 L93.50,287.00 L93.50,271.00 L94.50,270.00 L94.50,265.00 L95.50,264.00 L95.50,260.00 L96.50,259.00 L96.50,255.00 L97.50,254.00 L97.50,250.00 L98.50,249.00 L98.50,245.00 L99.50,244.00 L99.50,238.00 L100.50,237.00 L100.50,221.00 L99.50,220.00 L98.50,214.00 L95.50,208.00 L86.00,198.50 L77.00,192.50 L72.00,190.50 L70.00,188.50 L51.00,179.50 L49.00,177.50 L43.00,174.50 L36.50,168.00 L35.50,164.00 L41.00,158.50 L45.00,156.50 L47.00,156.50 L54.00,153.50 L65.00,151.50 L66.00,150.50 L70.00,150.50 L71.00,149.50 L78.00,148.50 L79.00,147.50 L90.00,144.50 L97.50,138.00 L97.50,136.00 L98.50,135.00 L97.50,125.00 L94.50,119.00 L94.50,117.00 L88.50,106.00 L88.50,104.00 L83.50,95.00 L83.50,93.00 L81.50,90.00 L81.50,88.00 L79.50,84.00 L79.50,81.00 L78.50,80.00 L78.50,75.00 L81.00,71.50 L86.00,70.50 L87.00,71.50 L91.00,71.50 L92.00,72.50 L100.00,74.50 L123.00,85.50 L125.00,85.50 L128.00,87.50 L130.00,87.50 L137.00,90.50 L141.00,90.50 L142.00,91.50 L155.00,91.50 L165.00,87.50 L172.00,82.50 L181.50,73.00 L181.50,72.00 L187.50,66.00 L193.50,58.00 L208.00,43.50Z M203.50,66.00 L208.00,65.50 L210.00,66.50 L213.50,74.00 L213.50,80.00 L214.50,81.00 L214.50,110.00 L215.50,111.00 L216.50,117.00 L220.00,120.50 L222.00,120.50 L223.00,121.50 L229.00,121.50 L230.00,120.50 L235.00,120.50 L236.00,119.50 L245.00,118.50 L246.00,117.50 L254.00,116.50 L255.00,115.50 L262.00,115.50 L263.00,114.50 L271.00,115.50 L274.50,119.00 L274.50,123.00 L272.50,128.00 L249.50,160.00 L245.50,170.00 L245.50,177.00 L248.50,182.00 L254.00,187.50 L260.00,191.50 L276.50,206.00 L280.50,212.00 L280.50,214.00 L281.50,215.00 L280.50,216.00 L280.50,218.00 L277.00,220.50 L270.00,221.50 L269.00,222.50 L251.00,222.50 L250.00,223.50 L236.00,223.50 L235.00,224.50 L230.00,224.50 L229.00,225.50 L224.00,226.50 L219.00,229.50 L214.50,234.00 L209.50,243.00 L209.50,245.00 L206.50,252.00 L204.50,263.00 L202.50,267.00 L200.50,277.00 L197.50,283.00 L193.00,287.50 L188.00,286.50 L183.50,282.00 L179.50,276.00 L168.50,253.00 L163.50,246.00 L159.00,243.50 L155.00,243.50 L147.00,247.50 L139.00,254.50 L119.00,268.50 L117.00,268.50 L116.00,269.50 L111.00,269.50 L107.50,265.00 L107.50,254.00 L108.50,253.00 L108.50,248.00 L109.50,247.00 L109.50,243.00 L110.50,242.00 L110.50,238.00 L111.50,237.00 L111.50,232.00 L112.50,231.00 L112.50,226.00 L113.50,225.00 L113.50,212.00 L112.50,211.00 L112.50,208.00 L108.50,201.00 L99.00,192.50 L81.00,183.50 L79.00,181.50 L72.00,178.50 L66.00,174.50 L61.50,170.00 L61.50,165.00 L63.00,162.50 L70.00,158.50 L105.00,149.50 L111.50,144.00 L111.50,136.00 L110.50,135.00 L110.50,133.00 L98.50,108.00 L98.50,106.00 L96.50,102.00 L96.50,99.00 L95.50,98.00 L95.50,94.00 L99.00,89.50 L106.00,89.50 L107.00,90.50 L115.00,92.50 L122.00,96.50 L124.00,96.50 L129.00,99.50 L131.00,99.50 L136.00,102.50 L138.00,102.50 L145.00,105.50 L157.00,106.50 L158.00,105.50 L164.00,104.50 L170.00,100.50 L182.50,88.00 L188.50,80.00 L201.00,67.50Z M205.50,67.00 L207.00,66.50 L209.50,68.00 L212.50,76.00 L213.50,112.00 L214.50,113.00 L215.50,118.00 L219.00,121.50 L221.00,122.50 L232.00,122.50 L233.00,121.50 L237.00,121.50 L238.00,120.50 L242.00,120.50 L243.00,119.50 L247.00,119.50 L248.00,118.50 L257.00,117.50 L258.00,116.50 L270.00,116.50 L272.50,119.00 L272.50,124.00 L271.50,125.00 L271.50,127.00 L256.50,147.00 L246.50,163.00 L246.50,165.00 L244.50,169.00 L244.50,178.00 L247.50,183.00 L252.00,187.50 L264.00,196.50 L276.50,208.00 L279.50,213.00 L279.50,217.00 L276.00,219.50 L274.00,219.50 L273.00,220.50 L267.00,220.50 L266.00,221.50 L242.00,221.50 L241.00,222.50 L233.00,222.50 L232.00,223.50 L229.00,223.50 L228.00,224.50 L223.00,225.50 L218.00,228.50 L211.50,236.00 L208.50,242.00 L208.50,244.00 L204.50,254.00 L204.50,257.00 L203.50,258.00 L203.50,261.00 L202.50,262.00 L202.50,265.00 L201.50,266.00 L201.50,269.00 L200.50,270.00 L198.50,278.00 L194.50,285.00 L192.00,286.50 L189.00,285.50 L184.50,281.00 L180.50,275.00 L169.50,252.00 L161.00,242.50 L154.00,242.50 L153.00,243.50 L151.00,243.50 L123.00,264.50 L117.00,267.50 L112.00,268.50 L109.50,266.00 L109.50,264.00 L108.50,263.00 L108.50,257.00 L109.50,256.00 L109.50,250.00 L110.50,249.00 L110.50,245.00 L111.50,244.00 L111.50,240.00 L112.50,239.00 L112.50,234.00 L113.50,233.00 L113.50,229.00 L114.50,228.00 L114.50,210.00 L113.50,209.00 L113.50,207.00 L109.50,200.00 L104.00,194.50 L95.00,188.50 L84.00,183.50 L82.00,181.50 L68.00,174.50 L62.50,169.00 L62.50,166.00 L64.00,163.50 L71.00,159.50 L77.00,158.50 L81.00,156.50 L85.00,156.50 L86.00,155.50 L97.00,153.50 L98.00,152.50 L106.00,150.50 L112.50,145.00 L113.50,139.00 L112.50,138.00 L112.50,135.00 L111.50,134.00 L110.50,129.00 L104.50,118.00 L104.50,116.00 L100.50,109.00 L100.50,107.00 L97.50,101.00 L97.50,93.00 L99.00,91.50 L104.00,90.50 L105.00,91.50 L111.00,92.50 L140.00,105.50 L143.00,105.50 L148.00,107.50 L159.00,107.50 L160.00,106.50 L165.00,105.50 L171.00,101.50 L182.50,90.00 L182.50,89.00 L195.50,75.00 L195.50,74.00 L202.00,68.50Z M195.50,92.00 L201.00,91.50 L203.50,94.00 L203.50,96.00 L204.50,97.00 L204.50,103.00 L205.50,104.00 L205.50,127.00 L206.50,128.00 L206.50,130.00 L210.00,133.50 L220.00,133.50 L225.00,131.50 L229.00,131.50 L230.00,130.50 L234.00,130.50 L235.00,129.50 L240.00,129.50 L241.00,128.50 L246.00,128.50 L250.50,131.00 L251.50,134.00 L248.50,141.00 L235.50,158.00 L229.50,169.00 L229.50,178.00 L255.50,202.00 L256.50,206.00 L255.50,208.00 L252.00,210.50 L248.00,210.50 L247.00,211.50 L229.00,211.50 L228.00,212.50 L219.00,212.50 L209.00,216.50 L205.50,220.00 L201.50,227.00 L194.50,253.00 L191.50,259.00 L188.00,261.50 L185.00,260.50 L180.50,256.00 L169.50,234.00 L167.50,231.00 L163.00,227.50 L159.00,227.50 L155.00,229.50 L136.00,244.50 L130.00,247.50 L126.00,247.50 L123.50,245.00 L123.50,232.00 L124.50,231.00 L124.50,227.00 L125.50,226.00 L125.50,222.00 L126.50,221.00 L126.50,216.00 L127.50,215.00 L127.50,202.00 L126.50,201.00 L126.50,199.00 L118.00,189.50 L91.00,174.50 L88.50,172.00 L87.50,168.00 L90.00,164.50 L96.00,161.50 L106.00,159.50 L107.00,158.50 L115.00,157.50 L123.00,154.50 L125.50,152.00 L126.50,150.00 L126.50,146.00 L114.50,119.00 L114.50,112.00 L117.00,109.50 L123.00,109.50 L124.00,110.50 L129.00,111.50 L136.00,115.50 L138.00,115.50 L143.00,118.50 L145.00,118.50 L151.00,121.50 L161.00,122.50 L169.00,119.50 L174.00,114.50 L175.00,114.50 L175.50,113.00 L190.50,97.00 L190.50,96.00Z M196.50,93.00 L200.00,92.50 L202.50,95.00 L202.50,98.00 L203.50,99.00 L203.50,121.00 L204.50,122.00 L204.50,128.00 L205.50,129.00 L205.50,131.00 L209.00,134.50 L215.00,135.50 L216.00,134.50 L222.00,134.50 L223.00,133.50 L231.00,132.50 L232.00,131.50 L236.00,131.50 L237.00,130.50 L248.00,130.50 L249.50,132.00 L249.50,136.00 L247.50,140.00 L232.50,160.00 L228.50,168.00 L227.50,176.00 L228.50,177.00 L228.50,179.00 L236.00,186.50 L243.00,191.50 L254.50,203.00 L254.50,207.00 L250.00,209.50 L244.00,209.50 L243.00,210.50 L223.00,210.50 L222.00,211.50 L217.00,211.50 L208.00,215.50 L204.50,219.00 L199.50,228.00 L198.50,234.00 L195.50,242.00 L195.50,245.00 L194.50,246.00 L194.50,249.00 L190.50,258.00 L189.00,259.50 L186.00,259.50 L181.50,255.00 L170.50,233.00 L168.50,230.00 L164.00,226.50 L158.00,226.50 L156.00,227.50 L146.00,234.50 L138.00,241.50 L128.00,246.50 L124.50,244.00 L124.50,235.00 L125.50,234.00 L125.50,229.00 L126.50,228.00 L126.50,224.00 L127.50,223.00 L127.50,219.00 L128.50,218.00 L128.50,211.00 L129.50,210.00 L128.50,200.00 L126.50,196.00 L119.00,188.50 L92.00,173.50 L89.50,171.00 L89.50,167.00 L95.00,163.50 L97.00,163.50 L101.00,161.50 L104.00,161.50 L105.00,160.50 L108.00,160.50 L109.00,159.50 L112.00,159.50 L113.00,158.50 L116.00,158.50 L117.00,157.50 L122.00,156.50 L126.50,153.00 L127.50,151.00 L127.50,145.00 L126.50,144.00 L125.50,139.00 L119.50,128.00 L119.50,126.00 L117.50,123.00 L117.50,121.00 L115.50,117.00 L115.50,113.00 L118.00,110.50 L125.00,111.50 L128.00,113.50 L130.00,113.50 L135.00,116.50 L137.00,116.50 L144.00,120.50 L146.00,120.50 L150.00,122.50 L153.00,122.50 L154.00,123.50 L163.00,123.50 L170.00,120.50 L183.50,107.00 L189.50,99.00Z" fill="#000000" fill-rule="evenodd" stroke="none"/>
</svg>
