<svg xmlns="http://www.w3.org/2000/svg" viewBox="0 0 350 350">
  <path d="M219.50,15.00 L223.00,14.50 L227.50,18.00 L227.00,18.50 L223.00,15.50Z M213.50,18.00 L214.50,18.00 L211.00,21.50 L210.50,21.00Z M208.50,22.00 L209.50,22.00 L204.00,27.50 L203.50,27.00Z M228.50,22.00 L229.50,22.00 L229.00,23.50Z M229.50,25.00 L230.50,25.00 L230.00,27.50Z M202.50,29.00 L203.50,29.00 L197.00,35.50 L196.50,35.00Z M230.50,29.00 L231.50,29.00 L231.00,33.50Z M195.50,37.00 L196.50,37.00 L192.00,41.50 L191.50,41.00Z M231.50,38.00 L232.50,38.00 L232.00,70.50Z M211.50,41.00 L216.00,40.50 L218.50,42.00 L217.00,42.50 L216.00,41.50Z M190.50,43.00 L191.50,43.00 L186.00,48.50 L185.50,48.00Z M207.50,43.00 L208.50,43.00 L206.00,45.50 L205.50,45.00Z M218.50,44.00 L219.00,43.50 L220.50,45.00 L220.00,46.50Z M203.50,46.00 L204.50,46.00 L199.00,51.50 L198.50,51.00Z M220.50,48.00 L221.50,48.00 L221.00,50.50Z M184.50,50.00 L185.50,50.00 L169.00,66.50 L166.00,68.50 L165.50,68.00Z M61.50,52.00 L62.50,52.00 L60.50,55.00 L60.00,64.50 L59.50,55.00Z M75.50,52.00 L78.00,51.50 L83.50,54.00 L82.00,54.50Z M221.50,52.00 L222.50,52.00 L222.00,56.50Z M197.50,53.00 L198.50,53.00 L192.00,59.50 L191.50,59.00Z M84.50,55.00 L86.00,54.50 L88.50,56.00 L87.00,56.50Z M89.50,57.00 L91.00,56.50 L95.50,59.00 L94.00,59.50Z M98.50,61.00 L100.00,60.50 L104.50,63.00 L103.00,63.50Z M190.50,61.00 L191.50,61.00 L187.00,65.50 L186.50,65.00Z M222.50,61.00 L223.50,61.00 L223.00,91.50Z M107.50,65.00 L109.00,64.50 L113.50,67.00 L112.00,67.50Z M60.50,66.00 L61.50,66.00 L61.00,67.50Z M185.50,67.00 L186.50,67.00 L180.00,73.50 L179.50,73.00Z M208.50,67.00 L209.00,66.50 L211.50,69.00 L212.50,71.00 L212.00,73.50 L210.50,69.00Z M114.50,68.00 L116.00,67.50 L118.50,69.00 L117.00,69.50Z M201.50,68.00 L202.50,68.00 L201.00,69.50 L200.50,69.00Z M61.50,69.00 L62.50,69.00 L62.50,71.00 L63.50,72.00 L63.00,73.50 L61.50,71.00Z M163.50,69.00 L164.50,69.00 L163.00,70.50 L162.50,70.00Z M198.50,70.00 L199.50,70.00 L182.00,89.50 L181.50,89.00 L186.50,84.00 L186.50,83.00Z M80.50,71.00 L82.50,71.00 L81.00,71.50 L79.00,74.50 L78.50,73.00Z M122.50,71.00 L124.00,70.50 L127.50,72.00 L125.00,72.50Z M98.50,74.00 L100.00,73.50 L102.50,75.00 L101.00,75.50Z M63.50,75.00 L64.50,75.00 L64.00,76.50Z M178.50,75.00 L179.50,75.00 L174.00,80.50 L173.50,80.00Z M212.50,75.00 L213.50,75.00 L213.00,79.50Z M77.50,76.00 L78.50,76.00 L78.00,79.50Z M105.50,77.00 L107.00,76.50 L109.50,78.00 L108.00,78.50Z M232.50,77.00 L233.50,77.00 L233.00,82.50Z M65.50,80.00 L66.50,80.00 L68.50,84.00 L68.00,85.50Z M114.50,81.00 L116.00,80.50 L120.50,83.00 L119.00,83.50Z M171.50,81.00 L172.50,81.00 L168.00,85.50 L161.00,89.50 L159.50,89.00 L165.00,86.50Z M78.50,82.00 L79.50,82.00 L79.00,84.50Z M121.50,84.00 L123.00,83.50 L125.50,85.00 L124.00,85.50Z M233.50,84.00 L234.50,84.00 L234.00,86.50Z M213.50,85.00 L214.50,85.00 L214.00,109.50Z M79.50,86.00 L80.50,86.00 L80.00,87.50Z M234.50,88.00 L235.50,88.00 L236.50,91.00 L240.50,95.00 L240.00,95.50 L235.50,91.00Z M80.50,89.00 L81.50,89.00 L81.00,90.50Z M314.50,89.00 L316.00,88.50 L319.50,91.00 L319.00,91.50Z M98.50,91.00 L99.50,91.00 L97.00,94.50 L96.50,93.00Z M180.50,91.00 L181.50,91.00 L172.00,100.50 L171.50,100.00Z M71.50,93.00 L72.50,93.00 L76.50,101.00 L76.00,102.50Z M112.50,93.00 L114.00,92.50 L116.50,94.00 L115.00,94.50Z M195.50,93.00 L196.50,93.00 L195.00,94.50 L194.00,94.50 L188.00,100.50 L187.50,100.00 L194.00,93.50Z M201.50,93.00 L202.00,92.50 L203.50,95.00 L203.00,96.50Z M319.50,93.00 L320.50,93.00 L320.00,99.50Z M82.50,94.00 L83.00,93.50 L84.50,96.00 L84.00,97.50Z M223.50,95.00 L224.50,95.00 L224.00,98.50Z M121.50,97.00 L123.00,96.50 L125.50,98.00 L124.00,98.50Z M96.50,98.00 L97.50,98.00 L97.00,100.50Z M203.50,98.00 L204.50,98.00 L204.00,102.50Z M128.50,100.00 L130.00,99.50 L134.50,102.00 L133.00,102.50Z M169.50,101.00 L170.50,101.00 L168.00,103.50 L165.50,104.00Z M224.50,101.00 L225.50,101.00 L227.50,105.00 L227.00,105.50Z M318.50,101.00 L319.00,100.50 L319.50,102.00 L318.00,104.50 L317.50,103.00Z M186.50,102.00 L187.50,102.00 L183.00,106.50 L182.50,106.00Z M86.50,103.00 L87.50,103.00 L91.50,111.00 L91.00,112.50Z M97.50,103.00 L98.50,103.00 L98.00,104.50Z M135.50,103.00 L137.00,102.50 L139.50,104.00 L138.00,104.50Z M292.50,103.00 L294.00,102.50 L297.50,106.00 L297.00,111.50 L296.50,106.00Z M77.50,106.00 L78.00,105.50 L79.50,108.00 L79.00,109.50Z M316.50,106.00 L317.50,106.00 L315.00,109.50 L314.50,109.00Z M228.50,107.00 L229.00,106.50 L230.50,108.00 L230.00,108.50Z M99.50,108.00 L100.50,108.00 L100.00,109.50Z M181.50,108.00 L182.50,108.00 L171.00,119.50 L170.50,119.00Z M122.50,111.00 L125.00,110.50 L127.50,112.00 L126.00,112.50Z M313.50,111.00 L314.50,111.00 L313.00,112.50 L312.50,112.00Z M204.50,112.00 L205.50,112.00 L205.00,127.50Z M214.50,112.00 L215.50,112.00 L215.00,114.50Z M80.50,113.00 L81.50,113.00 L81.00,114.50Z M114.50,113.00 L115.50,113.00 L115.00,117.50Z M128.50,113.00 L130.00,112.50 L132.50,114.00 L131.00,114.50Z M295.50,113.00 L296.00,112.50 L296.50,114.00 L294.00,117.50 L293.50,117.00Z M311.50,114.00 L312.50,114.00 L311.00,115.50 L310.50,115.00Z M102.50,115.00 L103.50,115.00 L106.50,121.00 L106.00,122.50Z M81.50,116.00 L82.50,116.00 L82.00,118.50Z M135.50,116.00 L137.00,115.50 L141.50,118.00 L140.00,118.50Z M215.50,116.00 L216.50,116.00 L218.50,120.00 L218.00,120.50Z M257.50,116.00 L270.00,115.50 L273.50,118.00 L273.00,118.50 L270.00,116.50Z M309.50,117.00 L310.50,117.00 L308.50,120.00 L299.00,131.50 L298.50,131.00Z M93.50,118.00 L94.00,117.50 L95.50,120.00 L95.00,121.50Z M115.50,119.00 L116.50,119.00 L116.00,120.50Z M142.50,119.00 L144.00,118.50 L146.50,120.00 L145.00,120.50Z M82.50,120.00 L83.50,120.00 L83.00,128.50Z M168.50,120.00 L169.50,120.00 L168.00,121.50 L166.00,122.50 L164.50,122.00Z M273.50,120.00 L274.50,120.00 L274.00,122.50Z M291.50,121.00 L292.50,121.00 L291.00,122.50 L290.50,122.00Z M116.50,122.00 L117.50,122.00 L117.00,123.50Z M95.50,123.00 L96.50,123.00 L96.00,124.50Z M272.50,124.00 L273.50,124.00 L273.00,125.50Z M289.50,124.00 L290.50,124.00 L286.00,129.50 L285.50,129.00Z M96.50,126.00 L97.50,126.00 L97.00,128.50Z M118.50,127.00 L119.50,127.00 L122.50,133.00 L122.00,134.50Z M108.50,128.00 L109.00,127.50 L110.50,130.00 L110.00,131.50Z M205.50,129.00 L206.50,129.00 L208.50,133.00 L208.00,133.50Z M270.50,129.00 L271.50,129.00 L270.50,131.00 L266.00,136.50 L265.50,136.00Z M81.50,130.00 L82.00,129.50 L82.50,131.00 L77.00,136.50 L71.00,139.50 L69.50,139.00 L77.00,135.50 L81.50,131.00Z M97.50,130.00 L98.50,130.00 L98.00,135.50Z M244.50,130.00 L248.00,129.50 L250.50,132.00 L250.00,132.50 L248.00,130.50Z M284.50,131.00 L285.50,131.00 L283.00,133.50 L282.50,133.00Z M110.50,133.00 L111.50,133.00 L111.00,134.50Z M297.50,133.00 L298.50,133.00 L286.00,150.50 L286.50,148.00Z M281.50,135.00 L282.50,135.00 L277.00,141.50 L276.50,141.00 L278.50,138.00Z M111.50,136.00 L112.50,136.00 L112.00,138.50Z M249.50,136.00 L250.00,135.50 L250.50,137.00 L248.00,140.50 L247.50,140.00Z M264.50,138.00 L265.50,138.00 L263.00,140.50 L262.50,140.00Z M95.50,139.00 L96.50,139.00 L93.00,142.50 L90.50,143.00Z M124.50,140.00 L125.00,139.50 L126.50,142.00 L126.00,143.50Z M246.50,142.00 L247.50,142.00 L246.00,143.50 L245.50,143.00Z M261.50,142.00 L262.50,142.00 L260.00,144.50 L259.50,144.00Z M111.50,143.00 L112.50,143.00 L112.00,144.50Z M275.50,143.00 L276.50,143.00 L274.00,145.50 L273.50,145.00Z M87.50,144.00 L89.00,143.50 L89.00,144.50 L87.00,145.50 L85.50,145.00Z M126.50,145.00 L127.50,145.00 L127.00,151.50Z M244.50,145.00 L245.50,145.00 L243.50,148.00 L235.00,158.50 L234.50,158.00 L236.50,155.00Z M110.50,146.00 L111.50,146.00 L109.00,148.50 L108.50,148.00Z M258.50,146.00 L259.50,146.00 L257.00,148.50 L256.50,148.00Z M272.50,147.00 L273.50,147.00 L272.00,148.50 L271.50,148.00Z M103.50,150.00 L105.00,149.50 L105.00,150.50 L103.00,151.50 L101.50,151.00Z M255.50,150.00 L256.50,150.00 L251.00,157.50 L251.50,155.00Z M270.50,150.00 L271.50,150.00 L270.00,151.50 L269.50,151.00Z M125.50,153.00 L126.50,153.00 L125.00,154.50 L124.50,154.00Z M268.50,153.00 L269.50,153.00 L267.00,156.50 L266.50,156.00Z M16.50,154.00 L18.50,154.00 L16.00,155.50 L15.50,155.00Z M283.50,154.00 L284.50,154.00 L282.00,158.50 L281.50,157.00Z M47.50,155.00 L49.00,154.50 L49.00,155.50 L47.00,156.50 L45.50,156.00Z M13.50,156.00 L14.50,156.00 L13.00,157.50 L12.50,157.00Z M42.50,157.00 L44.00,156.50 L44.00,157.50 L40.00,159.50 L39.50,159.00Z M249.50,159.00 L250.50,159.00 L248.00,163.50 L247.50,162.00Z M9.50,160.00 L10.50,160.00 L9.00,162.50 L8.50,161.00Z M37.50,160.00 L38.50,160.00 L36.00,163.50 L35.50,162.00Z M68.50,160.00 L70.00,159.50 L70.00,160.50 L65.00,162.50 L63.00,164.50 L62.50,164.00 L65.00,161.50Z M233.50,160.00 L234.50,160.00 L232.00,163.50 L231.50,163.00Z M264.50,160.00 L265.00,159.50 L265.50,161.00 L264.00,163.50 L263.50,162.00Z M280.50,160.00 L281.00,159.50 L281.50,161.00 L280.00,163.50 L279.50,162.00Z M94.50,163.00 L96.00,162.50 L96.00,163.50 L91.00,165.50 L89.00,167.50 L88.50,167.00 L91.00,164.50Z M8.50,165.00 L9.50,165.00 L10.50,168.00 L16.00,173.50 L17.00,173.50 L19.50,176.00 L19.00,176.50 L9.50,168.00Z M34.50,165.00 L35.50,165.00 L35.00,166.50Z M262.50,165.00 L263.50,165.00 L263.00,166.50Z M278.50,165.00 L279.50,165.00 L279.00,167.50Z M61.50,166.00 L62.50,166.00 L63.00,170.50 L61.50,169.00Z M229.50,167.00 L230.50,167.00 L230.00,168.50Z M245.50,167.00 L246.50,167.00 L246.00,169.50Z M261.50,168.00 L262.50,168.00 L262.00,171.50Z M36.50,170.00 L37.00,169.50 L40.50,173.00 L40.00,173.50Z M228.50,170.00 L229.50,170.00 L229.00,172.50Z M277.50,170.00 L278.50,170.00 L278.00,178.50Z M88.50,171.00 L89.00,170.50 L93.50,175.00 L93.00,175.50Z M244.50,171.00 L245.50,171.00 L245.00,177.50Z M65.50,173.00 L66.00,172.50 L68.50,175.00 L68.00,175.50Z M41.50,174.00 L42.00,173.50 L46.50,177.00 L44.00,176.50Z M69.50,176.00 L70.00,175.50 L71.50,177.00 L71.00,177.50Z M94.50,176.00 L95.00,175.50 L98.50,178.00 L98.00,178.50Z M20.50,177.00 L21.00,176.50 L24.50,179.00 L24.00,179.50Z M228.50,177.00 L229.50,177.00 L230.00,179.50Z M47.50,178.00 L48.00,177.50 L51.50,180.00 L51.00,180.50Z M261.50,178.00 L262.50,178.00 L263.50,181.00 L265.50,183.00 L265.00,183.50 L262.50,181.00Z M74.50,179.00 L75.00,178.50 L86.50,185.00 L86.00,185.50Z M27.50,181.00 L28.00,180.50 L37.50,186.00 L37.00,186.50Z M230.50,181.00 L231.00,180.50 L234.50,184.00 L234.00,184.50Z M246.50,181.00 L247.00,180.50 L256.50,190.00 L256.00,190.50Z M279.50,182.00 L280.00,181.50 L281.50,183.00 L281.50,184.00 L293.50,196.00 L293.00,196.50 L280.50,184.00Z M58.50,184.00 L59.00,183.50 L72.50,191.00 L72.00,191.50Z M109.50,184.00 L110.00,183.50 L115.50,187.00 L115.00,187.50Z M235.50,185.00 L236.00,184.50 L240.50,189.00 L240.00,189.50Z M265.50,185.00 L266.00,184.50 L271.50,190.00 L271.00,190.50Z M116.50,188.00 L117.00,187.50 L120.00,189.50 L125.50,195.00 L125.00,195.50Z M93.50,189.00 L94.00,188.50 L97.50,191.00 L97.00,191.50Z M241.50,190.00 L242.00,189.50 L246.00,193.50 L247.00,193.50 L253.50,200.00 L253.00,200.50Z M257.50,191.00 L258.00,190.50 L261.50,194.00 L261.00,194.50Z M272.50,191.00 L273.00,190.50 L277.50,195.00 L277.00,195.50Z M48.50,192.00 L49.00,191.50 L56.50,196.00 L56.00,196.50Z M98.50,192.00 L99.00,191.50 L100.50,193.00 L100.00,193.50Z M75.50,193.00 L76.00,192.50 L79.50,195.00 L79.00,195.50Z M101.50,194.00 L102.00,193.50 L110.50,202.00 L110.00,202.50Z M262.50,195.00 L263.00,194.50 L267.00,198.50 L268.00,198.50 L278.50,209.00 L278.00,209.50Z M80.50,196.00 L81.00,195.50 L82.50,197.00 L82.00,197.50Z M278.50,196.00 L279.00,195.50 L282.50,199.00 L282.00,199.50Z M57.50,197.00 L58.00,196.50 L61.50,199.00 L61.00,199.50Z M294.50,197.00 L295.00,196.50 L298.50,200.00 L298.00,200.50Z M83.50,198.00 L84.00,197.50 L86.50,200.00 L86.00,200.50Z M62.50,200.00 L63.00,199.50 L64.50,201.00 L64.00,201.50Z M283.50,200.00 L284.00,199.50 L288.50,204.00 L288.00,204.50Z M87.50,201.00 L88.00,200.50 L93.50,206.00 L93.00,206.50Z M127.50,201.00 L128.50,201.00 L128.00,204.50Z M299.50,201.00 L300.00,200.50 L309.50,209.00 L309.00,209.50Z M65.50,202.00 L66.00,201.50 L69.00,203.50 L79.50,214.00 L79.00,214.50Z M253.50,202.00 L254.00,201.50 L255.50,203.00 L255.00,204.50Z M110.50,204.00 L111.00,203.50 L112.50,205.00 L112.00,206.50Z M289.50,205.00 L290.00,204.50 L303.50,218.00 L304.00,220.50 L302.50,218.00Z M254.50,207.00 L255.50,207.00 L255.00,208.50Z M93.50,208.00 L94.00,207.50 L96.50,210.00 L97.50,212.00 L97.00,213.50 L95.50,210.00Z M112.50,208.00 L113.50,208.00 L113.00,209.50Z M310.50,210.00 L311.00,209.50 L316.50,215.00 L316.00,215.50Z M113.50,211.00 L114.50,211.00 L114.00,226.50Z M278.50,211.00 L279.00,210.50 L280.50,212.00 L280.00,213.50Z M127.50,212.00 L128.50,212.00 L128.00,217.50Z M214.50,213.00 L217.50,213.00 L214.00,214.50 L212.50,214.00Z M97.50,215.00 L98.00,214.50 L99.50,217.00 L99.00,219.50Z M79.50,216.00 L80.00,215.50 L81.50,217.00 L83.50,221.00 L83.00,222.50Z M208.50,216.00 L209.50,216.00 L204.50,221.00 L201.00,228.50 L200.50,227.00 L203.50,221.00Z M317.50,216.00 L318.00,215.50 L324.50,222.00 L324.00,222.50Z M279.50,217.00 L280.50,217.00 L277.00,220.50 L275.50,220.00Z M126.50,219.00 L127.50,219.00 L127.00,222.50Z M99.50,222.00 L100.50,222.00 L100.00,235.50Z M304.50,222.00 L305.50,222.00 L305.50,227.00 L302.00,230.50 L301.00,230.50 L300.50,230.00 L304.50,227.00Z M83.50,224.00 L84.50,224.00 L84.00,225.50Z M324.50,224.00 L325.00,223.50 L327.50,226.00 L327.00,226.50Z M125.50,225.00 L126.50,225.00 L126.00,227.50Z M84.50,227.00 L85.50,227.00 L85.00,230.50Z M221.50,227.00 L223.50,227.00 L221.00,228.50 L220.50,228.00Z M156.50,228.00 L158.00,227.50 L158.00,228.50 L155.00,229.50 L149.00,234.50 L148.50,234.00 L152.00,230.50Z M164.50,228.00 L165.00,227.50 L169.50,232.00 L170.00,234.50Z M327.50,228.00 L328.00,227.50 L329.50,229.00 L329.00,230.50Z M112.50,229.00 L113.50,229.00 L113.00,232.50Z M218.50,229.00 L219.50,229.00 L214.50,234.00 L210.00,242.50 L209.50,241.00 L211.50,237.00Z M124.50,230.00 L125.50,230.00 L125.00,232.50Z M199.50,230.00 L200.50,230.00 L200.00,231.50Z M329.50,232.00 L330.50,232.00 L330.00,236.50Z M198.50,233.00 L199.50,233.00 L199.00,234.50Z M85.50,234.00 L86.50,234.00 L86.00,242.50Z M111.50,235.00 L112.50,235.00 L112.00,238.50Z M123.50,235.00 L124.50,235.00 L125.00,246.50 L123.50,244.00Z M146.50,235.00 L147.50,235.00 L144.00,238.50 L137.00,243.50 L136.50,243.00Z M170.50,236.00 L171.00,235.50 L172.50,237.00 L175.50,243.00 L175.00,244.50Z M197.50,236.00 L198.50,236.00 L198.00,238.50Z M235.50,238.00 L237.00,237.50 L237.00,238.50 L232.00,240.50 L224.00,247.50 L223.50,247.00 L229.00,241.50Z M328.50,238.00 L329.50,238.00 L327.00,240.50 L325.00,241.50 L323.50,241.00Z M98.50,239.00 L99.50,239.00 L99.00,242.50Z M110.50,240.00 L111.50,240.00 L111.00,243.50Z M196.50,240.00 L197.50,240.00 L197.00,242.50Z M154.50,243.00 L160.00,242.50 L166.50,248.00 L166.00,248.50 L160.00,243.50Z M134.50,244.00 L135.50,244.00 L134.00,245.50 L132.00,246.50 L130.50,246.00Z M195.50,244.00 L196.50,244.00 L196.00,246.50Z M208.50,244.00 L209.00,243.50 L209.50,245.00 L208.00,247.50 L207.50,246.00Z M97.50,245.00 L98.50,245.00 L98.00,248.50Z M109.50,245.00 L110.50,245.00 L110.00,248.50Z M148.50,246.00 L149.50,246.00 L148.00,247.50 L145.00,249.50 L144.50,249.00Z M84.50,247.00 L85.50,247.00 L85.00,252.50Z M194.50,248.00 L195.50,248.00 L195.00,249.50Z M206.50,249.00 L207.50,249.00 L207.00,251.50Z M222.50,249.00 L223.50,249.00 L222.00,250.50 L221.50,250.00Z M108.50,250.00 L109.50,250.00 L109.00,254.50Z M142.50,250.00 L143.50,250.00 L140.00,253.50 L136.00,256.50 L135.50,256.00Z M166.50,250.00 L167.00,249.50 L168.50,251.00 L169.00,253.50Z M177.50,250.00 L178.00,249.50 L179.50,251.00 L180.00,253.50Z M247.50,250.00 L249.00,249.50 L249.00,250.50 L247.00,251.50 L245.50,251.00Z M96.50,251.00 L97.50,251.00 L97.00,253.50Z M193.50,251.00 L194.50,251.00 L194.50,253.00 L193.00,255.50 L192.50,254.00 L193.50,253.00Z M220.50,252.00 L221.50,252.00 L219.00,256.50 L218.50,255.00Z M243.50,252.00 L244.50,252.00 L243.00,253.50 L240.00,255.50 L239.50,255.00Z M205.50,253.00 L206.50,253.00 L206.00,254.50Z M83.50,255.00 L84.50,255.00 L84.00,258.50Z M180.50,255.00 L181.00,254.50 L182.50,256.00 L182.00,256.50Z M95.50,256.00 L96.50,256.00 L96.00,258.50Z M204.50,256.00 L205.50,256.00 L205.00,258.50Z M237.50,256.00 L238.50,256.00 L234.00,260.50 L233.50,260.00Z M107.50,257.00 L108.50,257.00 L108.00,263.50Z M133.50,257.00 L134.50,257.00 L131.00,260.50 L128.00,262.50 L127.50,262.00Z M191.50,257.00 L192.50,257.00 L191.00,258.50 L190.50,258.00Z M182.50,258.00 L183.00,257.50 L184.50,259.00 L184.00,259.50Z M150.50,259.00 L156.00,258.50 L159.50,261.00 L159.00,261.50 L156.00,259.50Z M203.50,260.00 L204.50,260.00 L204.00,262.50Z M216.50,260.00 L217.50,260.00 L217.00,261.50Z M82.50,261.00 L83.50,261.00 L83.00,264.50Z M94.50,261.00 L95.50,261.00 L95.00,263.50Z M145.50,261.00 L146.50,261.00 L145.00,262.50 L142.00,263.50 L140.00,265.50 L139.50,265.00 L142.00,262.50Z M160.50,262.00 L161.00,261.50 L163.50,264.00 L165.50,267.00 L165.00,267.50Z M232.50,262.00 L233.50,262.00 L230.00,266.50 L230.50,264.00Z M125.50,263.00 L126.50,263.00 L125.00,264.50 L124.50,264.00Z M215.50,263.00 L216.50,263.00 L216.00,264.50Z M202.50,264.00 L203.50,264.00 L203.00,266.50Z M122.50,265.00 L123.50,265.00 L122.00,266.50 L121.50,266.00Z M81.50,266.00 L82.50,266.00 L82.00,269.50Z M93.50,266.00 L94.50,266.00 L94.00,269.50Z M137.50,266.00 L138.50,266.00 L136.00,268.50 L132.00,271.50 L131.50,271.00Z M214.50,266.00 L215.50,266.00 L215.00,267.50Z M201.50,268.00 L202.50,268.00 L202.00,269.50Z M165.50,269.00 L166.00,268.50 L167.50,270.00 L168.00,272.50Z M213.50,269.00 L214.50,269.00 L214.00,270.50Z M80.50,271.00 L81.50,271.00 L81.00,274.50Z M200.50,271.00 L201.50,271.00 L201.00,273.50Z M92.50,272.00 L93.50,272.00 L93.00,276.50Z M129.50,272.00 L130.50,272.00 L127.00,275.50 L123.00,278.50 L122.50,278.00Z M212.50,272.00 L213.50,272.00 L213.00,274.50Z M178.50,273.00 L179.00,272.50 L180.50,274.00 L182.50,278.00 L182.00,278.50Z M225.50,274.00 L226.00,273.50 L226.50,275.00 L225.00,277.50 L224.50,276.00Z M199.50,275.00 L200.50,275.00 L200.00,276.50Z M79.50,276.00 L80.50,276.00 L80.00,279.50Z M211.50,276.00 L212.50,276.00 L212.00,278.50Z M140.50,277.00 L142.00,276.50 L142.00,277.50 L138.00,279.50 L137.50,279.00Z M155.50,277.00 L156.00,276.50 L162.50,283.00 L162.00,283.50Z M198.50,278.00 L199.00,277.50 L199.50,279.00 L197.50,283.00 L193.00,287.50 L191.00,287.50 L191.00,286.50 L193.00,286.50 L196.50,283.00Z M120.50,279.00 L121.50,279.00 L119.00,281.50 L118.50,281.00Z M223.50,279.00 L224.50,279.00 L224.00,280.50Z M135.50,280.00 L136.50,280.00 L135.00,281.50 L132.00,283.50 L131.50,283.00Z M182.50,280.00 L183.00,279.50 L185.50,282.00 L185.00,282.50Z M210.50,280.00 L211.50,280.00 L211.00,281.50Z M78.50,281.00 L79.50,281.00 L79.00,284.50Z M116.50,282.00 L117.50,282.00 L115.00,284.50 L110.00,287.50 L109.50,287.00Z M222.50,282.00 L223.50,282.00 L223.00,283.50Z M129.50,284.00 L130.50,284.00 L128.00,286.50 L127.50,286.00Z M185.50,284.00 L186.00,283.50 L187.50,285.00 L187.00,285.50Z M209.50,284.00 L210.50,284.00 L210.00,285.50Z M92.50,285.00 L93.50,285.00 L93.50,287.00 L95.50,290.00 L95.00,290.50 L92.50,287.00Z M162.50,285.00 L163.00,284.50 L164.50,286.00 L164.00,286.50Z M221.50,285.00 L222.50,285.00 L222.00,286.50Z M77.50,287.00 L78.50,287.00 L78.00,290.50Z M125.50,287.00 L126.50,287.00 L123.00,290.50 L119.00,293.50 L118.50,293.00Z M208.50,287.00 L209.50,287.00 L209.00,289.50Z M107.50,288.00 L108.50,288.00 L107.00,289.50 L105.50,289.00Z M164.50,288.00 L165.00,287.50 L166.50,289.00 L167.00,291.50Z M220.50,288.00 L221.50,288.00 L221.00,290.50Z M207.50,291.00 L208.50,291.00 L208.00,293.50Z M219.50,292.00 L220.50,292.00 L220.00,293.50Z M76.50,293.00 L77.50,293.00 L77.00,306.50Z M116.50,294.00 L117.50,294.00 L114.00,297.50 L113.50,297.00Z M206.50,295.00 L207.50,295.00 L207.00,296.50Z M218.50,295.00 L219.50,295.00 L219.00,297.50Z M111.50,298.00 L112.50,298.00 L110.00,300.50 L109.50,300.00Z M180.50,298.00 L181.00,297.50 L182.50,299.00 L183.00,301.50Z M205.50,298.00 L206.50,298.00 L206.00,299.50Z M217.50,299.00 L218.50,299.00 L218.00,301.50Z M107.50,301.00 L108.50,301.00 L106.00,303.50 L105.50,303.00Z M204.50,301.00 L205.50,301.00 L205.00,302.50Z M183.50,303.00 L184.00,302.50 L185.50,304.00 L190.50,311.00 L190.00,311.50Z M216.50,303.00 L217.50,303.00 L217.00,305.50Z M103.50,304.00 L104.50,304.00 L103.00,305.50 L102.50,305.00Z M203.50,304.00 L204.00,303.50 L204.50,305.00 L202.00,308.50 L201.50,308.00Z M100.50,306.00 L101.50,306.00 L100.00,307.50 L99.50,307.00Z M215.50,307.00 L216.50,307.00 L216.00,309.50Z M77.50,308.00 L78.50,308.00 L78.00,309.50Z M97.50,308.00 L98.50,308.00 L97.00,309.50 L91.00,312.50 L89.50,312.00Z M200.50,310.00 L201.50,310.00 L199.00,312.50 L198.50,312.00Z M78.50,311.00 L79.00,310.50 L80.50,312.00 L80.00,312.50Z M176.50,311.00 L177.50,311.00 L179.50,315.00 L179.00,315.50Z M214.50,311.00 L215.50,311.00 L215.00,313.50Z M191.50,312.00 L197.50,313.00 L193.00,313.50Z M213.50,315.00 L214.50,315.00 L214.00,316.50Z M212.50,318.00 L213.50,318.00 L213.00,320.50Z M211.50,322.00 L212.50,322.00 L212.00,323.50Z M182.50,323.00 L183.00,322.50 L184.50,324.00 L185.00,326.50Z M210.50,325.00 L211.00,324.50 L211.50,326.00 L210.00,328.50 L209.50,327.00Z M185.50,328.00 L186.00,327.50 L187.50,329.00 L187.00,329.50Z M187.50,331.00 L188.00,330.50 L190.50,333.00 L190.00,333.50Z M206.50,334.00 L207.50,334.00 L206.50,336.00 L204.00,338.50 L203.50,338.00Z M190.50,335.00 L191.00,334.50 L197.50,339.00 L196.00,339.50Z" fill="#000000" fill-rule="evenodd" stroke="none"/>
</svg>
