<svg xmlns="http://www.w3.org/2000/svg" viewBox="0 0 350 350">
  <path d="M146.50,0.00 L146.00,26.50 L27.00,26.50 L26.50,146.00 L0.00,146.50Z M147.50,1.00 L202.00,0.50 L202.50,26.00 L148.00,26.50Z M203.50,0.00 L204.00,26.50 L323.50,27.00 L323.50,146.00 L349.00,146.50Z M28.50,29.00 L321.00,28.50 L321.50,321.00 L29.00,321.50Z M169.50,32.00 L180.00,31.50 L184.00,33.50 L189.50,39.00 L191.50,44.00 L191.50,51.00 L188.50,57.00 L191.50,64.00 L191.50,71.00 L190.50,72.00 L190.50,74.00 L187.00,79.50 L180.00,83.50 L177.00,83.50 L176.50,85.00 L178.50,87.00 L184.50,99.00 L189.50,106.00 L199.50,125.00 L259.50,126.00 L259.50,128.00 L257.50,130.00 L251.50,142.00 L249.50,144.00 L240.50,161.00 L238.50,163.00 L237.50,166.00 L235.50,168.00 L233.50,173.00 L230.50,177.00 L240.50,196.00 L242.50,198.00 L251.50,215.00 L253.50,217.00 L254.50,221.00 L204.50,222.00 L202.50,227.00 L197.50,234.00 L195.50,239.00 L193.50,241.00 L191.50,246.00 L189.50,248.00 L187.50,253.00 L185.50,255.00 L179.50,266.00 L187.50,271.00 L191.50,279.00 L191.50,286.00 L188.50,292.00 L191.50,299.00 L191.50,306.00 L189.50,311.00 L184.00,316.50 L180.00,318.50 L170.00,318.50 L166.00,316.50 L159.50,309.00 L159.50,307.00 L158.50,306.00 L158.50,299.00 L161.50,292.00 L158.50,286.00 L158.50,279.00 L160.50,274.00 L167.00,267.50 L169.00,267.50 L170.50,266.00 L164.50,255.00 L162.50,253.00 L160.50,248.00 L158.50,246.00 L156.50,241.00 L154.50,239.00 L152.50,234.00 L147.50,227.00 L145.50,222.00 L95.50,221.00 L96.50,217.00 L98.50,215.00 L104.50,203.00 L109.50,196.00 L119.50,177.00 L116.50,173.00 L111.50,163.00 L109.50,161.00 L103.50,149.00 L98.50,142.00 L92.50,130.00 L90.50,128.00 L91.00,125.50 L150.50,125.00 L160.50,106.00 L162.50,104.00 L171.50,87.00 L173.50,85.00 L173.00,83.50 L167.00,82.50 L160.50,76.00 L158.50,71.00 L158.50,64.00 L161.50,58.00 L158.50,51.00 L158.50,44.00 L160.50,39.00 L166.00,33.50Z M171.50,33.00 L178.00,32.50 L179.00,33.50 L181.00,33.50 L187.50,39.00 L189.50,43.00 L190.50,48.00 L187.00,56.50 L184.00,53.50 L180.00,51.50 L170.00,51.50 L166.00,53.50 L163.00,56.50 L162.50,56.00 L159.50,48.00 L160.50,43.00 L162.50,39.00 L167.00,34.50Z M124.50,41.00 L127.00,40.50 L128.00,41.50 L132.00,41.50 L136.00,43.50 L139.50,47.00 L142.50,53.00 L142.50,62.00 L140.50,66.00 L138.00,69.50 L131.00,73.50 L122.00,73.50 L117.00,71.50 L112.50,67.00 L109.50,59.00 L110.50,52.00 L112.50,48.00 L117.00,43.50 L121.00,41.50Z M221.50,41.00 L225.00,40.50 L233.00,43.50 L237.50,48.00 L240.50,56.00 L239.50,63.00 L237.50,67.00 L233.00,71.50 L228.00,73.50 L219.00,73.50 L215.00,71.50 L209.50,66.00 L207.50,61.00 L207.50,53.00 L210.50,47.00 L214.00,43.50 L218.00,41.50Z M121.50,43.00 L130.00,42.50 L134.00,44.50 L137.50,47.00 L141.50,55.00 L141.50,60.00 L139.50,65.00 L134.00,70.50 L129.00,72.50 L124.00,72.50 L117.00,69.50 L112.50,64.00 L112.50,62.00 L111.50,61.00 L111.50,53.00 L113.50,49.00 L118.00,44.50Z M219.50,43.00 L228.00,42.50 L232.00,44.50 L236.50,49.00 L238.50,53.00 L238.50,61.00 L237.50,62.00 L237.50,64.00 L234.00,68.50 L226.00,72.50 L221.00,72.50 L216.00,70.50 L210.50,65.00 L209.50,60.00 L208.50,59.00 L208.50,55.00 L212.50,47.00Z M171.50,53.00 L178.00,52.50 L179.00,53.50 L181.00,53.50 L183.00,54.50 L185.50,58.00 L183.00,60.50 L179.00,62.50 L171.00,62.50 L167.00,60.50 L164.50,57.00 L167.00,54.50 L169.00,54.50Z M162.50,59.00 L163.00,58.50 L166.00,61.50 L170.00,63.50 L180.00,63.50 L187.00,59.50 L189.50,63.00 L189.50,66.00 L190.50,67.00 L189.50,72.00 L187.50,76.00 L183.00,80.50 L179.00,82.50 L171.00,82.50 L167.00,80.50 L162.50,76.00 L159.50,68.00 L160.50,63.00Z M80.50,69.00 L89.00,68.50 L90.00,69.50 L92.00,69.50 L98.50,75.00 L100.50,79.00 L100.50,81.00 L103.00,83.50 L105.00,83.50 L109.00,85.50 L112.50,89.00 L115.50,96.00 L115.50,103.00 L112.50,109.00 L106.00,114.50 L96.00,115.50 L89.00,112.50 L85.50,109.00 L83.50,105.00 L83.50,103.00 L81.00,100.50 L79.00,100.50 L75.00,98.50 L71.50,95.00 L68.50,89.00 L68.50,81.00 L69.50,80.00 L69.50,78.00 L75.00,71.50Z M261.50,69.00 L269.00,68.50 L270.00,69.50 L272.00,69.50 L278.50,75.00 L281.50,81.00 L281.50,88.00 L280.50,89.00 L280.50,91.00 L278.50,95.00 L275.00,98.50 L271.00,100.50 L269.00,100.50 L266.50,103.00 L266.50,105.00 L264.50,109.00 L258.00,114.50 L255.00,114.50 L254.00,115.50 L247.00,115.50 L246.00,114.50 L244.00,114.50 L241.00,112.50 L235.50,106.00 L235.50,104.00 L234.50,103.00 L234.50,95.00 L235.50,94.00 L235.50,92.00 L241.00,85.50 L245.00,83.50 L247.00,83.50 L249.50,81.00 L249.50,79.00 L251.50,75.00 L255.00,71.50Z M83.50,70.00 L86.00,69.50 L87.00,70.50 L90.00,70.50 L95.00,73.50 L98.50,78.00 L99.50,82.00 L93.00,83.50 L88.00,86.50 L83.50,93.00 L82.50,99.00 L80.00,99.50 L71.50,92.00 L69.50,84.00 L72.50,76.00 L76.00,72.50 L80.00,70.50Z M263.50,70.00 L266.00,69.50 L267.00,70.50 L270.00,70.50 L275.00,73.50 L277.50,76.00 L280.50,83.00 L280.50,87.00 L277.50,94.00 L270.00,99.50 L267.50,99.00 L266.50,93.00 L264.50,89.00 L261.00,85.50 L257.00,83.50 L250.50,82.00 L251.50,78.00 L255.00,73.50 L260.00,70.50Z M98.50,84.00 L99.50,84.00 L99.50,90.00 L98.50,92.00 L92.00,98.50 L90.00,98.50 L89.00,99.50 L84.00,99.50 L85.50,92.00 L88.50,88.00 L94.00,84.50Z M101.50,85.00 L104.00,84.50 L111.50,90.00 L113.50,94.00 L114.50,100.00 L111.50,108.00 L109.00,110.50 L104.00,113.50 L98.00,114.50 L90.00,111.50 L85.50,106.00 L84.50,102.00 L88.00,101.50 L95.00,98.50 L98.50,95.00 L100.50,91.00Z M245.50,85.00 L248.50,85.00 L249.50,91.00 L254.00,97.50 L259.00,100.50 L265.50,102.00 L265.50,104.00 L261.50,110.00 L256.00,113.50 L253.00,113.50 L252.00,114.50 L246.00,113.50 L242.00,111.50 L236.50,104.00 L236.50,101.00 L235.50,100.00 L236.50,94.00 L240.50,88.00Z M250.50,85.00 L256.00,84.50 L258.00,85.50 L264.50,92.00 L265.50,94.00 L265.50,98.00 L266.50,99.00 L260.00,99.50 L258.00,98.50 L251.50,92.00Z M174.50,87.00 L175.00,86.50 L176.50,88.00 L186.50,107.00 L188.50,109.00 L193.50,119.00 L195.50,121.00 L197.50,125.00 L197.00,125.50 L187.00,125.50 L183.50,121.00 L177.50,109.00 L175.00,106.50 L172.50,109.00 L166.50,121.00 L163.00,125.50 L152.50,125.00Z M55.50,110.00 L59.00,109.50 L67.00,112.50 L71.50,117.00 L73.50,122.00 L73.50,131.00 L71.50,135.00 L66.00,140.50 L62.00,142.50 L53.00,142.50 L47.00,139.50 L43.50,136.00 L40.50,128.00 L41.50,121.00 L43.50,117.00 L49.00,111.50Z M290.50,110.00 L295.00,109.50 L296.00,110.50 L299.00,110.50 L302.00,112.50 L306.50,117.00 L309.50,125.00 L308.50,132.00 L306.50,136.00 L303.00,139.50 L297.00,142.50 L289.00,142.50 L284.00,140.50 L278.50,135.00 L276.50,131.00 L276.50,122.00 L278.50,117.00 L283.00,112.50 L287.00,110.50Z M174.50,111.00 L175.00,110.50 L176.50,112.00 L177.50,115.00 L179.50,117.00 L181.50,122.00 L183.50,124.00 L183.00,125.50 L166.50,125.00Z M52.50,112.00 L61.00,111.50 L62.00,112.50 L64.00,112.50 L69.50,117.00 L71.50,121.00 L71.50,123.00 L72.50,124.00 L72.50,129.00 L71.50,130.00 L71.50,132.00 L70.50,134.00 L63.00,140.50 L55.00,141.50 L48.00,138.50 L45.50,136.00 L42.50,130.00 L42.50,122.00 L44.50,118.00 L49.00,113.50Z M288.50,112.00 L297.00,111.50 L301.00,113.50 L305.50,118.00 L307.50,122.00 L307.50,130.00 L306.50,131.00 L306.50,133.00 L300.00,139.50 L295.00,141.50 L290.00,141.50 L285.00,139.50 L279.50,134.00 L277.50,129.00 L277.50,124.00 L280.50,117.00 L286.00,112.50Z M93.50,128.00 L148.50,128.00 L144.00,135.50 L107.50,136.00 L109.50,141.00 L111.50,143.00 L113.50,148.00 L115.50,150.00 L125.50,168.00 L121.00,175.50Z M150.50,128.00 L161.00,127.50 L161.50,129.00 L159.50,133.00 L157.00,135.50 L147.00,135.50 L146.50,135.00 L148.50,133.00Z M164.50,128.00 L185.00,127.50 L189.50,135.00 L180.00,135.50 L178.50,134.00 L176.50,129.00 L174.00,128.50 L170.00,135.50 L161.00,135.50 L160.50,135.00Z M188.50,128.00 L199.00,127.50 L201.50,133.00 L203.50,135.00 L193.00,135.50 L190.50,133.00Z M201.50,128.00 L256.50,128.00 L229.00,175.50 L224.50,168.00 L227.50,162.00 L229.50,160.00 L231.50,155.00 L236.50,148.00 L238.50,143.00 L240.50,141.00 L242.50,136.00 L206.00,135.50Z M174.50,132.00 L175.00,131.50 L176.50,134.00 L176.00,135.50 L173.50,135.00Z M110.50,138.00 L142.50,138.00 L138.00,145.50 L125.50,146.00 L125.50,148.00 L130.50,156.00 L130.50,159.00 L127.00,164.50 L125.50,164.00 L116.50,147.00Z M145.50,138.00 L156.50,138.00 L152.00,145.50 L141.50,145.00 L143.50,140.00Z M158.50,138.00 L168.00,137.50 L168.50,139.00 L164.00,145.50 L155.00,145.50 L154.50,145.00 L157.50,141.00Z M171.50,138.00 L178.00,137.50 L182.50,145.00 L168.00,145.50 L167.50,144.00Z M181.50,138.00 L191.00,137.50 L195.50,145.00 L186.00,145.50 L182.50,141.00Z M193.50,138.00 L204.00,137.50 L206.50,140.00 L208.50,145.00 L198.00,145.50Z M207.50,138.00 L239.50,138.00 L233.50,147.00 L231.50,152.00 L229.50,154.00 L224.00,164.50 L221.50,163.00 L219.50,159.00 L219.50,156.00 L222.50,152.00 L224.50,148.00 L224.50,146.00 L212.00,145.50Z M0.50,148.00 L26.50,148.00 L26.00,202.50 L0.50,202.00Z M128.50,148.00 L136.00,147.50 L136.50,149.00 L133.50,154.00 L132.00,154.50Z M139.50,148.00 L150.50,148.00 L146.50,155.00 L142.50,156.00 L143.50,160.00 L140.00,166.50 L138.50,166.00 L135.50,160.00 L133.50,158.00Z M153.50,148.00 L163.50,148.00 L158.00,155.50 L149.50,155.00 L151.50,150.00Z M165.50,148.00 L184.00,147.50 L188.50,155.00 L180.00,155.50 L178.50,154.00 L176.50,149.00 L174.00,148.50 L170.00,155.50 L162.00,155.50 L161.50,155.00Z M186.50,148.00 L196.00,147.50 L198.50,150.00 L200.50,155.00 L192.00,155.50Z M199.50,148.00 L210.00,147.50 L211.50,149.00 L216.50,158.00 L211.00,166.50 L209.50,166.00 L206.50,160.00 L207.50,156.00 L204.00,155.50Z M213.50,148.00 L221.00,147.50 L221.50,149.00 L218.50,154.00 L217.00,154.50Z M323.50,148.00 L323.50,202.00 L349.00,202.50Z M174.50,152.00 L175.00,151.50 L176.50,154.00 L176.00,155.50 L173.50,155.00Z M147.50,158.00 L157.50,158.00 L152.00,167.50 L150.50,167.00 L146.50,160.00Z M159.50,158.00 L168.00,157.50 L168.50,159.00 L164.00,165.50 L158.50,166.00 L160.50,170.00 L160.50,173.00 L157.00,177.50 L152.50,170.00 L154.50,168.00Z M171.50,158.00 L178.00,157.50 L182.50,165.00 L168.00,165.50 L167.50,164.00Z M181.50,158.00 L190.00,157.50 L191.50,161.00 L193.50,163.00 L195.50,168.00 L197.50,170.00 L193.00,177.50 L189.50,173.00 L189.50,170.00 L191.50,166.00 L186.00,165.50 L182.50,161.00Z M192.50,158.00 L202.00,157.50 L203.50,159.00 L199.00,167.50 L197.50,167.00 L195.50,162.00Z M43.50,159.00 L51.00,158.50 L57.00,161.50 L64.00,158.50 L71.00,158.50 L76.00,160.50 L82.50,167.00 L82.50,169.00 L83.50,170.00 L83.50,180.00 L82.50,181.00 L82.50,183.00 L76.00,189.50 L71.00,191.50 L64.00,191.50 L58.00,188.50 L51.00,191.50 L44.00,191.50 L39.00,189.50 L33.50,184.00 L31.50,180.00 L31.50,170.00 L33.50,166.00 L39.00,160.50Z M278.50,159.00 L286.00,158.50 L292.00,161.50 L299.00,158.50 L306.00,158.50 L311.00,160.50 L316.50,166.00 L318.50,170.00 L318.50,180.00 L316.50,184.00 L311.00,189.50 L306.00,191.50 L299.00,191.50 L293.00,188.50 L286.00,191.50 L279.00,191.50 L274.00,189.50 L269.50,186.00 L266.50,180.00 L266.50,170.00 L270.00,163.50 L274.00,160.50Z M46.50,160.00 L49.00,159.50 L56.50,163.00 L53.50,166.00 L51.50,170.00 L51.50,180.00 L53.50,184.00 L56.50,187.00 L49.00,190.50 L43.00,189.50 L39.00,187.50 L34.50,183.00 L32.50,178.00 L32.50,172.00 L34.50,167.00 L39.00,162.50 L43.00,160.50Z M66.50,160.00 L69.00,159.50 L76.00,162.50 L80.50,167.00 L82.50,171.00 L82.50,179.00 L80.50,183.00 L76.00,187.50 L69.00,190.50 L63.00,189.50 L58.50,187.00 L62.50,183.00 L62.50,181.00 L63.50,180.00 L63.50,170.00 L62.50,169.00 L62.50,167.00 L58.50,163.00 L63.00,160.50Z M281.50,160.00 L283.00,159.50 L284.00,160.50 L287.00,160.50 L291.50,163.00 L289.50,164.00 L286.50,170.00 L286.50,180.00 L289.50,186.00 L291.50,187.00 L283.00,190.50 L275.00,188.50 L269.50,183.00 L267.50,179.00 L267.50,171.00 L269.50,167.00 L275.00,161.50Z M301.50,160.00 L303.00,159.50 L304.00,160.50 L307.00,160.50 L311.00,162.50 L315.50,167.00 L317.50,172.00 L317.50,178.00 L315.50,183.00 L311.00,187.50 L303.00,190.50 L295.00,188.50 L293.50,187.00 L296.50,184.00 L298.50,180.00 L298.50,170.00 L296.50,166.00 L293.50,163.00 L295.00,161.50Z M131.50,161.00 L133.50,161.00 L135.50,166.00 L137.50,168.00 L137.50,171.00 L134.00,176.50 L132.50,176.00 L131.50,173.00 L128.50,169.00 L128.50,166.00 L130.50,164.00Z M216.50,161.00 L218.00,160.50 L219.50,164.00 L221.50,166.00 L221.50,169.00 L217.00,176.50 L215.50,176.00 L212.50,171.00 L212.50,168.00 L214.50,166.00Z M144.50,162.00 L145.50,162.00 L146.50,165.00 L149.50,169.00 L149.50,172.00 L147.50,174.00 L146.00,177.50 L144.50,177.00 L142.50,172.00 L140.50,170.00Z M204.50,162.00 L205.50,162.00 L207.50,167.00 L209.50,169.00 L205.00,177.50 L203.50,177.00 L202.50,174.00 L200.50,172.00 L200.50,169.00 L203.50,165.00Z M56.50,165.00 L58.00,164.50 L60.50,167.00 L62.50,171.00 L62.50,179.00 L60.50,183.00 L58.00,185.50 L54.50,183.00 L52.50,178.00 L52.50,172.00 L54.50,167.00Z M291.50,165.00 L293.00,164.50 L295.50,167.00 L297.50,172.00 L297.50,178.00 L295.50,183.00 L293.00,185.50 L289.50,183.00 L287.50,178.00 L287.50,172.00 L289.50,167.00Z M161.50,167.00 L163.00,166.50 L163.50,168.00 L162.00,168.50Z M166.50,167.00 L183.00,166.50 L186.50,171.00 L183.50,177.00 L181.50,179.00 L179.50,184.00 L177.00,186.50 L173.00,186.50 L170.50,184.00 L168.50,179.00 L166.50,177.00 L163.50,171.00Z M186.50,167.00 L188.00,166.50 L188.50,168.00 L187.00,168.50Z M126.50,171.00 L127.50,171.00 L131.50,178.00 L131.50,181.00 L128.00,186.50 L122.50,179.00 L122.50,177.00Z M222.50,171.00 L223.00,170.50 L225.50,173.00 L227.50,177.00 L227.50,179.00 L222.00,186.50 L218.50,181.00 L218.50,178.00Z M138.50,173.00 L140.50,173.00 L142.50,178.00 L144.50,180.00 L140.00,187.50 L135.50,181.00 L135.50,178.00Z M209.50,173.00 L211.00,172.50 L214.50,178.00 L214.50,181.00 L210.00,187.50 L205.50,180.00 L207.50,178.00Z M150.50,174.00 L152.00,173.50 L153.50,177.00 L155.50,179.00 L155.50,181.00 L152.50,186.00 L152.50,188.00 L160.00,188.50 L163.50,193.00 L164.50,195.00 L164.00,196.50 L155.50,196.00 L153.50,191.00 L147.50,182.00 L147.50,179.00Z M173.50,174.00 L176.00,173.50 L176.50,176.00 L174.00,176.50Z M197.50,174.00 L199.00,173.50 L202.50,179.00 L201.50,184.00 L199.50,186.00 L194.00,196.50 L186.00,196.50 L185.50,195.00 L190.00,188.50 L197.50,188.00 L197.50,186.00 L194.50,181.00 L194.50,179.00 L196.50,177.00Z M161.50,175.00 L163.50,175.00 L169.50,186.00 L169.00,186.50 L162.00,186.50 L159.50,183.00 L158.50,180.00Z M186.50,175.00 L188.50,175.00 L191.50,181.00 L188.00,186.50 L181.00,186.50 L180.50,186.00Z M120.50,181.00 L121.00,180.50 L122.50,182.00 L126.50,190.00 L123.50,194.00 L118.50,204.00 L116.50,206.00 L115.50,209.00 L138.00,209.50 L139.50,213.00 L141.50,215.00 L143.50,219.00 L143.00,219.50 L98.50,219.00Z M228.50,181.00 L229.00,180.50 L232.50,185.00 L242.50,204.00 L244.50,206.00 L249.50,216.00 L251.50,218.00 L251.00,219.50 L206.50,219.00 L212.00,209.50 L234.50,209.00 L233.50,206.00 L231.50,204.00 L230.50,201.00 L228.50,199.00 L226.50,194.00 L223.50,190.00Z M132.50,183.00 L134.50,183.00 L135.50,186.00 L138.50,190.00 L134.00,198.50 L131.50,193.00 L129.50,191.00 L129.50,188.00 L131.50,186.00Z M215.50,183.00 L217.00,182.50 L218.50,186.00 L220.50,188.00 L220.50,191.00 L218.50,193.00 L216.00,198.50 L211.50,191.00Z M144.50,184.00 L146.50,184.00 L150.50,192.00 L152.50,194.00 L153.00,196.50 L145.00,196.50 L143.50,195.00 L141.50,191.00 L141.50,189.00 L143.50,187.00Z M156.50,184.00 L157.00,183.50 L159.50,186.00 L156.00,186.50 L155.50,185.00Z M192.50,184.00 L193.00,183.50 L194.50,185.00 L194.00,186.50 L190.50,186.00Z M203.50,184.00 L205.00,183.50 L206.50,187.00 L208.50,189.00 L208.50,191.00 L206.50,195.00 L205.00,196.50 L197.00,196.50 L197.50,194.00 L199.50,192.00Z M163.50,189.00 L171.00,188.50 L172.50,192.00 L175.00,194.50 L177.50,192.00 L179.00,188.50 L186.50,189.00 L182.00,196.50 L168.00,196.50Z M173.50,189.00 L176.50,189.00 L175.00,190.50Z M127.50,193.00 L128.00,192.50 L129.50,194.00 L131.50,199.00 L133.50,201.00 L136.50,207.00 L136.00,207.50 L119.50,207.00 L121.50,202.00Z M139.50,193.00 L140.00,192.50 L141.50,195.00 L141.00,196.50 L137.50,196.00Z M209.50,193.00 L210.50,193.00 L212.50,196.00 L212.00,196.50 L208.50,196.00Z M221.50,193.00 L222.00,192.50 L224.50,195.00 L226.50,200.00 L230.50,206.00 L230.00,207.50 L213.50,207.00Z M134.50,199.00 L143.00,198.50 L144.50,200.00 L147.50,207.00 L140.00,207.50Z M146.50,199.00 L155.00,198.50 L159.50,207.00 L151.00,207.50Z M157.50,199.00 L166.00,198.50 L171.50,207.00 L163.00,207.50 L160.50,205.00Z M169.50,199.00 L180.00,198.50 L180.50,200.00 L176.50,207.00 L174.00,207.50Z M183.50,199.00 L192.00,198.50 L192.50,199.00 L189.50,205.00 L187.00,207.50 L179.00,207.50 L178.50,207.00 L180.50,205.00Z M194.50,199.00 L203.50,199.00 L199.00,207.50 L190.50,207.00Z M206.50,199.00 L215.50,199.00 L210.00,207.50 L202.50,207.00Z M0.00,203.50 L26.50,204.00 L27.00,323.50 L146.00,323.50 L146.50,349.00Z M323.50,204.00 L323.50,323.00 L204.00,323.50 L203.50,349.00Z M52.50,208.00 L62.00,207.50 L66.00,209.50 L71.50,215.00 L73.50,219.00 L73.50,228.00 L71.50,233.00 L67.00,237.50 L63.00,239.50 L56.00,240.50 L55.00,239.50 L49.00,238.50 L43.50,233.00 L41.50,229.00 L40.50,222.00 L43.50,214.00 L47.00,210.50Z M288.50,208.00 L297.00,207.50 L298.00,208.50 L300.00,208.50 L306.50,214.00 L308.50,218.00 L308.50,222.00 L309.50,223.00 L308.50,229.00 L306.50,233.00 L299.00,239.50 L296.00,239.50 L295.00,240.50 L287.00,239.50 L283.00,237.50 L277.50,231.00 L277.50,229.00 L276.50,228.00 L276.50,219.00 L278.50,215.00 L284.00,209.50Z M54.50,209.00 L59.00,208.50 L60.00,209.50 L65.00,210.50 L70.50,216.00 L72.50,221.00 L72.50,226.00 L69.50,233.00 L64.00,237.50 L62.00,237.50 L61.00,238.50 L53.00,238.50 L49.00,236.50 L44.50,232.00 L42.50,228.00 L42.50,220.00 L45.50,214.00 L48.00,211.50Z M289.50,209.00 L295.00,208.50 L300.00,210.50 L306.50,217.00 L306.50,219.00 L307.50,220.00 L307.50,228.00 L305.50,232.00 L301.00,236.50 L297.00,238.50 L289.00,238.50 L288.00,237.50 L286.00,237.50 L280.50,233.00 L277.50,226.00 L277.50,221.00 L279.50,216.00 L285.00,210.50Z M140.50,210.00 L149.00,209.50 L152.50,214.00 L154.50,219.00 L146.00,219.50Z M152.50,210.00 L161.00,209.50 L166.50,219.00 L158.00,219.50Z M163.50,210.00 L172.00,209.50 L174.00,212.50 L176.00,212.50 L178.00,209.50 L186.50,210.00 L184.50,212.00 L182.50,217.00 L180.00,219.50 L170.00,219.50 L167.50,217.00 L165.50,212.00Z M188.50,210.00 L197.00,209.50 L197.50,211.00 L192.00,219.50 L184.00,219.50 L183.50,219.00Z M200.50,210.00 L209.50,210.00 L204.00,219.50 L196.00,219.50 L195.50,218.00Z M147.50,222.00 L156.00,221.50 L157.50,223.00 L174.00,252.50 L176.50,252.00 L178.50,247.00 L180.50,245.00 L182.50,240.00 L187.50,233.00 L192.50,223.00 L194.00,221.50 L202.50,222.00 L199.50,226.00 L197.50,231.00 L195.50,233.00 L193.50,238.00 L191.50,240.00 L189.50,245.00 L184.50,252.00 L178.50,264.00 L176.00,266.50 L174.00,266.50 L171.50,264.00 L169.50,259.00 L167.50,257.00 L165.50,252.00 L163.50,250.00 L162.50,247.00 L160.50,245.00 L158.50,240.00 L156.50,238.00 L154.50,233.00 L152.50,231.00 L150.50,226.00Z M159.50,222.00 L168.00,221.50 L174.00,232.50 L176.50,232.00 L182.00,221.50 L190.50,222.00 L189.50,225.00 L184.50,232.00 L182.50,237.00 L180.50,239.00 L175.00,249.50 L169.50,239.00 L167.50,237.00 L165.50,232.00 L160.50,225.00Z M170.50,222.00 L179.50,222.00 L175.00,229.50Z M95.50,235.00 L102.00,234.50 L103.00,235.50 L106.00,235.50 L112.50,241.00 L115.50,247.00 L115.50,254.00 L114.50,255.00 L114.50,257.00 L112.50,261.00 L109.00,264.50 L105.00,266.50 L103.00,266.50 L100.50,269.00 L100.50,271.00 L98.50,275.00 L92.00,280.50 L90.00,280.50 L89.00,281.50 L81.00,281.50 L80.00,280.50 L78.00,280.50 L75.00,278.50 L69.50,272.00 L69.50,270.00 L68.50,269.00 L68.50,261.00 L71.50,255.00 L75.00,251.50 L79.00,249.50 L81.00,249.50 L83.50,247.00 L83.50,245.00 L85.50,241.00 L89.00,237.50Z M246.50,235.00 L254.00,234.50 L255.00,235.50 L258.00,235.50 L264.50,241.00 L266.50,245.00 L266.50,247.00 L269.00,249.50 L271.00,249.50 L275.00,251.50 L278.50,255.00 L281.50,262.00 L281.50,269.00 L278.50,275.00 L272.00,280.50 L270.00,280.50 L269.00,281.50 L262.00,281.50 L255.00,278.50 L251.50,275.00 L249.50,271.00 L249.50,269.00 L247.00,266.50 L245.00,266.50 L241.00,264.50 L235.50,258.00 L235.50,256.00 L234.50,255.00 L234.50,247.00 L235.50,246.00 L235.50,244.00 L241.00,237.50Z M97.50,236.00 L100.00,235.50 L101.00,236.50 L104.00,236.50 L109.00,239.50 L111.50,242.00 L114.50,250.00 L113.50,256.00 L111.50,260.00 L104.00,265.50 L101.50,265.00 L100.50,259.00 L98.50,255.00 L95.00,251.50 L91.00,249.50 L84.50,248.00 L85.50,244.00 L90.00,238.50 L94.00,236.50Z M249.50,236.00 L252.00,235.50 L253.00,236.50 L256.00,236.50 L261.00,239.50 L264.50,244.00 L265.50,248.00 L259.00,249.50 L254.00,252.50 L249.50,259.00 L248.50,265.00 L246.00,265.50 L241.00,262.50 L237.50,258.00 L235.50,250.00 L236.50,249.00 L236.50,246.00 L239.50,241.00 L242.00,238.50 L246.00,236.50Z M79.50,251.00 L82.50,251.00 L83.50,257.00 L88.00,263.50 L93.00,266.50 L99.50,268.00 L99.50,270.00 L96.50,275.00 L90.00,279.50 L87.00,279.50 L86.00,280.50 L80.00,279.50 L76.00,277.50 L72.50,274.00 L70.50,270.00 L70.50,267.00 L69.50,266.00 L70.50,260.00 L71.50,258.00 L78.00,251.50Z M83.50,251.00 L89.00,250.50 L90.00,251.50 L92.00,251.50 L98.50,258.00 L99.50,260.00 L99.50,266.00 L94.00,265.50 L89.00,262.50 L85.50,258.00 L84.50,252.00Z M259.50,251.00 L266.50,251.00 L265.50,252.00 L265.50,256.00 L264.50,258.00 L258.00,264.50 L256.00,265.50 L251.00,265.50 L250.50,261.00 L251.50,260.00 L251.50,258.00 L258.00,251.50Z M267.50,251.00 L270.00,250.50 L277.50,256.00 L280.50,263.00 L280.50,267.00 L277.50,274.00 L275.00,276.50 L270.00,279.50 L264.00,280.50 L263.00,279.50 L260.00,279.50 L255.00,276.50 L251.50,272.00 L250.50,268.00 L254.00,267.50 L261.00,264.50 L264.50,261.00 L266.50,257.00Z M170.50,268.00 L171.00,267.50 L172.50,269.00 L174.00,272.50 L176.00,272.50 L179.00,267.50 L183.00,269.50 L187.50,274.00 L189.50,278.00 L190.50,283.00 L189.50,284.00 L189.50,287.00 L187.00,290.50 L180.00,286.50 L170.00,286.50 L166.00,288.50 L163.00,291.50 L162.50,291.00 L159.50,283.00 L160.50,278.00 L162.50,274.00 L167.00,269.50Z M174.50,268.00 L175.50,268.00 L175.00,269.50Z M121.50,277.00 L131.00,276.50 L135.00,278.50 L138.50,281.00 L142.50,288.00 L142.50,297.00 L141.50,298.00 L141.50,300.00 L136.00,306.50 L132.00,308.50 L128.00,308.50 L127.00,309.50 L121.00,308.50 L117.00,306.50 L112.50,302.00 L110.50,298.00 L109.50,291.00 L112.50,283.00 L117.00,278.50Z M218.50,277.00 L228.00,276.50 L229.00,277.50 L231.00,277.50 L237.50,283.00 L239.50,287.00 L239.50,290.00 L240.50,291.00 L239.50,298.00 L237.50,302.00 L233.00,306.50 L229.00,308.50 L226.00,308.50 L225.00,309.50 L218.00,308.50 L214.00,306.50 L208.50,300.00 L208.50,298.00 L207.50,297.00 L207.50,289.00 L208.50,288.00 L208.50,286.00 L215.00,278.50Z M123.50,278.00 L129.00,277.50 L134.00,279.50 L139.50,285.00 L141.50,290.00 L141.50,295.00 L139.50,300.00 L137.00,303.50 L130.00,307.50 L122.00,307.50 L118.00,305.50 L113.50,301.00 L111.50,297.00 L111.50,289.00 L112.50,288.00 L112.50,286.00 L117.00,280.50Z M220.50,278.00 L226.00,277.50 L231.00,279.50 L234.50,282.00 L237.50,286.00 L237.50,288.00 L238.50,289.00 L238.50,297.00 L236.50,301.00 L232.00,305.50 L228.00,307.50 L220.00,307.50 L214.00,304.50 L210.50,300.00 L208.50,295.00 L208.50,291.00 L209.50,290.00 L210.50,285.00 L216.00,279.50Z M170.50,288.00 L179.00,287.50 L183.00,289.50 L185.50,293.00 L181.00,296.50 L179.00,296.50 L178.00,297.50 L172.00,297.50 L169.00,295.50 L167.00,295.50 L164.50,293.00 L167.00,289.50Z M162.50,294.00 L163.00,293.50 L166.00,296.50 L170.00,298.50 L180.00,298.50 L184.00,296.50 L187.00,293.50 L190.50,302.00 L189.50,307.00 L187.50,311.00 L183.00,315.50 L178.00,317.50 L172.00,317.50 L167.00,315.50 L162.50,311.00 L159.50,303.00 L160.50,298.00Z M147.50,324.00 L202.00,323.50 L202.50,349.00Z" fill="#000000" fill-rule="evenodd" stroke="none"/>
</svg>
