<svg xmlns="http://www.w3.org/2000/svg" viewBox="0 0 350 350">
  <path d="M191.50,93.00 L192.50,93.00 L192.00,94.50Z M147.50,96.00 L148.50,96.00 L147.00,97.50 L146.50,97.00Z M187.50,100.00 L188.50,100.00 L187.00,101.50 L186.50,101.00Z M181.50,107.00 L182.50,107.00 L181.00,108.50 L180.50,108.00Z M173.50,129.00 L174.50,129.00 L174.00,130.50Z M17.50,149.00 L19.50,149.00 L16.00,151.50 L15.50,151.00Z M13.50,157.00 L14.50,157.00 L14.00,158.50Z M178.50,170.00 L179.00,169.50 L181.50,171.00 L181.00,173.50Z M9.50,171.00 L10.50,171.00 L10.00,172.50Z M40.50,173.00 L41.00,172.50 L42.50,174.00 L42.00,174.50Z M180.50,177.00 L181.50,177.00 L181.00,179.50Z M8.50,178.00 L9.50,178.00 L9.00,191.50Z M185.50,191.00 L186.00,190.50 L187.50,192.00 L187.00,192.50Z M10.50,202.00 L11.50,202.00 L11.00,203.50Z M102.50,203.00 L104.50,203.00 L103.50,204.00 L104.50,205.00 L104.00,205.50Z M125.50,208.00 L126.50,208.00 L126.00,209.50Z M133.50,216.00 L134.50,216.00 L134.00,217.50Z M153.50,221.00 L154.00,220.50 L157.50,224.00 L157.00,224.50Z M23.50,222.00 L24.50,222.00 L24.00,225.50 L22.50,225.00 L23.50,224.00Z M169.50,228.00 L170.00,227.50 L171.50,229.00 L171.00,229.50Z M158.50,229.00 L159.50,229.00 L158.00,230.50 L157.50,230.00Z M26.50,232.00 L27.00,231.50 L30.50,234.00 L29.00,234.50Z M173.50,234.00 L174.50,234.00 L173.00,235.50 L172.50,235.00Z M174.50,236.00 L175.50,236.00 L174.00,237.50 L173.50,237.00Z M323.50,238.00 L324.00,237.50 L326.50,240.00 L326.00,240.50Z M174.50,239.00 L176.50,239.00 L176.50,241.00 L177.50,242.00 L177.00,243.50Z M35.50,240.00 L36.50,240.00 L37.00,242.50Z M177.50,246.00 L178.50,246.00 L178.00,247.50Z M178.50,249.00 L179.50,249.00 L179.00,250.50Z M66.50,250.00 L67.00,249.50 L69.50,252.00 L69.00,252.50Z M82.50,251.00 L83.50,251.00 L83.00,253.50Z M178.50,252.00 L179.00,251.50 L180.50,253.00 L180.00,253.50Z M77.50,256.00 L81.00,255.50 L82.50,257.00Z M180.50,261.00 L182.50,261.00 L181.00,262.50Z M181.50,265.00 L183.50,265.00 L182.00,266.50Z M134.50,269.00 L136.00,268.50 L137.50,270.00 L136.00,270.50Z M183.50,269.00 L184.00,268.50 L184.50,270.00 L183.00,271.50Z M320.50,276.00 L321.50,276.00 L318.00,279.50 L317.50,279.00Z M312.50,283.00 L313.50,283.00 L312.00,284.50 L311.50,284.00Z M194.50,292.00 L195.00,291.50 L196.50,293.00 L196.00,293.50Z M255.50,297.00 L256.00,296.50 L257.50,298.00 L257.00,298.50Z" fill="#000000" fill-rule="evenodd" stroke="none"/>
</svg>
