<svg xmlns="http://www.w3.org/2000/svg" viewBox="0 0 350 350">
  <path d="M161.50,35.00 L188.00,34.50 L189.00,35.50 L202.00,36.50 L203.00,37.50 L207.00,37.50 L215.00,40.50 L218.00,40.50 L221.00,42.50 L231.00,45.50 L247.00,53.50 L264.00,65.50 L270.00,71.50 L271.00,71.50 L284.50,86.00 L297.50,105.00 L304.50,119.00 L307.50,129.00 L309.50,132.00 L309.50,135.00 L312.50,143.00 L313.50,153.00 L314.50,154.00 L314.50,161.00 L315.50,162.00 L315.50,188.00 L314.50,189.00 L313.50,202.00 L312.50,203.00 L312.50,207.00 L309.50,215.00 L309.50,218.00 L307.50,221.00 L304.50,231.00 L297.50,245.00 L284.50,264.00 L271.00,278.50 L247.00,296.50 L231.00,304.50 L221.00,307.50 L218.00,309.50 L215.00,309.50 L207.00,312.50 L197.00,313.50 L196.00,314.50 L189.00,314.50 L188.00,315.50 L162.00,315.50 L161.00,314.50 L148.00,313.50 L147.00,312.50 L143.00,312.50 L135.00,309.50 L132.00,309.50 L129.00,307.50 L119.00,304.50 L105.00,297.50 L85.00,283.50 L80.00,278.50 L79.00,278.50 L65.50,264.00 L52.50,245.00 L45.50,231.00 L45.50,229.00 L40.50,218.00 L40.50,215.00 L37.50,207.00 L36.50,197.00 L35.50,196.00 L35.50,189.00 L34.50,188.00 L34.50,162.00 L35.50,161.00 L36.50,148.00 L37.50,147.00 L37.50,143.00 L40.50,135.00 L40.50,132.00 L45.50,121.00 L45.50,119.00 L52.50,105.00 L65.50,86.00 L79.00,71.50 L80.00,71.50 L94.00,59.50 L103.00,54.50 L105.00,52.50 L119.00,45.50 L129.00,42.50 L132.00,40.50 L135.00,40.50 L139.00,38.50 L147.00,37.50 L148.00,36.50Z M165.50,36.00 L173.50,36.00 L171.50,38.00 L165.50,50.00 L163.50,52.00 L154.50,69.00 L152.50,71.00 L150.50,76.00 L143.00,87.50 L133.00,84.50 L130.00,82.50 L122.00,80.50 L119.00,78.50 L111.00,76.50 L108.00,74.50 L100.00,72.50 L97.00,70.50 L89.00,68.50 L87.50,67.00 L94.00,61.50 L103.00,55.50 L106.00,54.50 L108.00,52.50 L128.00,43.50 L130.00,43.50 L134.00,41.50 L137.00,41.50 L141.00,39.50 L149.00,38.50 L150.00,37.50Z M176.50,36.00 L184.00,35.50 L185.00,36.50 L194.00,36.50 L195.00,37.50 L200.00,37.50 L201.00,38.50 L209.00,39.50 L213.00,41.50 L216.00,41.50 L217.00,42.50 L222.00,43.50 L225.00,45.50 L232.00,47.50 L247.00,55.50 L262.50,67.00 L261.00,68.50 L253.00,70.50 L250.00,72.50 L242.00,74.50 L239.00,76.50 L231.00,78.50 L228.00,80.50 L226.00,80.50 L225.00,81.50 L220.00,82.50 L217.00,84.50 L207.00,87.50 L202.50,81.00 L197.50,71.00 L195.50,69.00 L189.50,57.00 L184.50,50.00 L178.50,38.00Z M174.50,38.00 L175.00,37.50 L176.50,39.00 L178.50,44.00 L180.50,46.00 L182.50,51.00 L184.50,53.00 L186.50,58.00 L188.50,60.00 L189.50,63.00 L191.50,65.00 L193.50,70.00 L195.50,72.00 L197.50,77.00 L199.50,79.00 L204.50,88.00 L203.00,89.50 L201.00,89.50 L198.00,91.50 L196.00,91.50 L195.00,92.50 L190.00,93.50 L187.00,95.50 L179.00,97.50 L176.00,99.50 L174.00,99.50 L171.00,97.50 L169.00,97.50 L168.00,96.50 L163.00,95.50 L160.00,93.50 L152.00,91.50 L149.00,89.50 L147.00,89.50 L145.50,88.00Z M83.50,70.00 L84.50,70.00 L84.50,73.00 L85.50,74.00 L85.50,79.00 L86.50,80.00 L86.50,84.00 L87.50,85.00 L87.50,90.00 L88.50,91.00 L88.50,96.00 L89.50,97.00 L89.50,101.00 L90.50,102.00 L90.50,107.00 L91.50,108.00 L91.50,113.00 L92.50,114.00 L94.50,128.00 L93.00,129.50 L91.00,129.50 L88.00,131.50 L80.00,133.50 L77.00,135.50 L69.00,137.50 L66.00,139.50 L64.00,139.50 L63.00,140.50 L58.00,141.50 L55.00,143.50 L47.00,145.50 L44.00,147.50 L39.00,148.50 L38.50,146.00 L39.50,145.00 L39.50,141.00 L41.50,137.00 L41.50,134.00 L42.50,133.00 L43.50,128.00 L45.50,125.00 L45.50,123.00 L47.50,120.00 L47.50,118.00 L51.50,110.00 L53.50,108.00 L55.50,103.00 L63.50,91.00Z M86.50,70.00 L88.00,69.50 L99.00,74.50 L107.00,76.50 L110.00,78.50 L112.00,78.50 L113.00,79.50 L118.00,80.50 L121.00,82.50 L129.00,84.50 L132.00,86.50 L140.00,88.50 L141.50,90.00 L139.50,95.00 L137.50,97.00 L135.50,102.00 L133.50,104.00 L126.00,117.50 L124.00,117.50 L121.00,119.50 L119.00,119.50 L118.00,120.50 L113.00,121.50 L110.00,123.50 L102.00,125.50 L99.00,127.50 L96.50,127.00Z M261.50,70.00 L263.50,70.00 L263.50,73.00 L262.50,74.00 L262.50,78.00 L261.50,79.00 L261.50,84.00 L260.50,85.00 L260.50,90.00 L259.50,91.00 L259.50,96.00 L258.50,97.00 L258.50,101.00 L257.50,102.00 L257.50,107.00 L256.50,108.00 L256.50,113.00 L255.50,114.00 L255.50,118.00 L254.50,119.00 L254.50,124.00 L253.50,125.00 L253.50,127.00 L251.00,127.50 L248.00,125.50 L246.00,125.50 L245.00,124.50 L240.00,123.50 L237.00,121.50 L224.00,117.50 L219.50,109.00 L217.50,107.00 L215.50,102.00 L210.50,95.00 L208.50,90.00 L210.00,88.50 L218.00,86.50 L221.00,84.50 L229.00,82.50 L232.00,80.50 L240.00,78.50 L243.00,76.50 L251.00,74.50 L254.00,72.50 L256.00,72.50Z M265.50,70.00 L266.00,69.50 L281.50,85.00 L281.50,86.00 L286.50,91.00 L297.50,108.00 L306.50,128.00 L306.50,130.00 L308.50,134.00 L308.50,137.00 L310.50,141.00 L310.50,144.00 L311.50,145.00 L311.00,148.50 L309.00,148.50 L303.00,145.50 L295.00,143.50 L292.00,141.50 L284.00,139.50 L281.00,137.50 L273.00,135.50 L270.00,133.50 L262.00,131.50 L259.00,129.50 L257.00,129.50 L255.50,128.00Z M143.50,91.00 L145.00,90.50 L146.00,91.50 L151.00,92.50 L154.00,94.50 L162.00,96.50 L165.00,98.50 L170.00,99.50 L170.50,101.00 L131.00,115.50 L130.50,114.00 L131.50,112.00 L133.50,110.00Z M204.50,91.00 L206.50,91.00 L212.50,103.00 L217.50,110.00 L219.50,114.00 L219.00,115.50 L179.50,101.00 L180.00,99.50 L185.00,98.50 L188.00,96.50 L190.00,96.50Z M174.50,102.00 L175.00,101.50 L176.00,102.50 L184.00,104.50 L187.00,106.50 L195.00,108.50 L198.00,110.50 L200.00,110.50 L201.00,111.50 L206.00,112.50 L209.00,114.50 L222.00,118.50 L247.50,163.00 L246.50,165.00 L246.50,169.00 L245.50,170.00 L245.50,175.00 L244.50,176.00 L243.50,186.00 L242.50,187.00 L241.50,198.00 L240.50,199.00 L240.50,203.00 L239.50,204.00 L238.50,215.00 L237.50,216.00 L237.50,220.00 L236.50,221.00 L235.50,232.00 L234.50,233.00 L234.50,237.00 L233.50,238.00 L233.50,243.00 L232.00,244.50 L118.00,244.50 L116.50,243.00 L116.50,238.00 L115.50,237.00 L115.50,233.00 L114.50,232.00 L113.50,221.00 L112.50,220.00 L112.50,216.00 L111.50,215.00 L110.50,204.00 L109.50,203.00 L109.50,199.00 L108.50,198.00 L108.50,193.00 L107.50,192.00 L107.50,187.00 L106.50,186.00 L106.50,182.00 L105.50,181.00 L105.50,176.00 L104.50,175.00 L104.50,170.00 L103.50,169.00 L102.50,162.00 L107.50,155.00 L109.50,150.00 L111.50,148.00 L113.50,143.00 L115.50,141.00 L117.50,136.00 L119.50,134.00 L128.00,118.50 L130.00,118.50 L133.00,116.50 L141.00,114.50 L144.00,112.50 L152.00,110.50 L155.00,108.50 L157.00,108.50 L158.00,107.50 L163.00,106.50 L166.00,104.50Z M121.50,121.00 L124.50,121.00 L122.50,123.00 L113.50,140.00 L111.50,142.00 L109.50,147.00 L102.00,158.50 L100.50,148.00 L99.50,147.00 L99.50,142.00 L98.50,141.00 L98.50,136.00 L97.50,135.00 L97.50,130.00Z M226.50,121.00 L228.00,120.50 L231.00,122.50 L239.00,124.50 L242.00,126.50 L244.00,126.50 L252.50,130.00 L252.50,135.00 L251.50,136.00 L251.50,141.00 L250.50,142.00 L250.50,147.00 L249.50,148.00 L248.00,158.50 L244.50,154.00 L242.50,149.00 L240.50,147.00 L238.50,142.00 L236.50,140.00Z M94.50,131.00 L95.50,131.00 L95.50,135.00 L96.50,136.00 L96.50,141.00 L97.50,142.00 L97.50,147.00 L98.50,148.00 L100.50,162.00 L73.00,209.50 L70.50,207.00 L64.50,195.00 L62.50,193.00 L53.50,176.00 L48.50,169.00 L46.50,164.00 L40.50,155.00 L39.50,151.00Z M254.50,131.00 L261.00,132.50 L264.00,134.50 L272.00,136.50 L275.00,138.50 L280.00,139.50 L283.00,141.50 L291.00,143.50 L294.00,145.50 L296.00,145.50 L310.50,151.00 L310.50,153.00 L307.50,157.00 L305.50,162.00 L303.50,164.00 L301.50,169.00 L296.50,176.00 L294.50,181.00 L292.50,183.00 L290.50,188.00 L285.50,195.00 L279.50,207.00 L277.00,209.50 L249.50,162.00 L250.50,153.00 L251.50,152.00 L251.50,148.00 L252.50,147.00 L252.50,142.00 L253.50,141.00 L253.50,136.00 L254.50,135.00Z M37.50,155.00 L38.00,154.50 L40.50,158.00 L50.50,177.00 L52.50,179.00 L61.50,196.00 L63.50,198.00 L64.50,201.00 L66.50,203.00 L68.50,208.00 L71.50,212.00 L54.00,242.50 L51.50,240.00 L47.50,232.00 L45.50,225.00 L43.50,222.00 L43.50,220.00 L41.50,216.00 L41.50,213.00 L39.50,209.00 L38.50,201.00 L37.50,200.00 L36.50,185.00 L35.50,184.00 L35.50,166.00 L36.50,165.00 L36.50,157.00Z M311.50,155.00 L312.00,154.50 L313.50,156.00 L313.50,165.00 L314.50,166.00 L314.50,184.00 L313.50,185.00 L312.50,200.00 L311.50,201.00 L311.50,205.00 L310.50,206.00 L310.50,209.00 L308.50,213.00 L308.50,216.00 L307.50,217.00 L306.50,222.00 L297.50,242.00 L296.00,242.50 L278.50,212.00 L281.50,208.00 L286.50,198.00 L288.50,196.00 L290.50,191.00 L292.50,189.00 L294.50,184.00 L299.50,177.00 L301.50,172.00 L303.50,170.00Z M100.50,166.00 L101.50,166.00 L101.50,169.00 L102.50,170.00 L103.50,181.00 L104.50,182.00 L104.50,186.00 L105.50,187.00 L105.50,192.00 L106.50,193.00 L106.50,198.00 L107.50,199.00 L107.50,203.00 L108.50,204.00 L108.50,209.00 L109.50,210.00 L109.50,215.00 L110.50,216.00 L110.50,220.00 L111.50,221.00 L111.50,226.00 L112.50,227.00 L112.50,232.00 L113.50,233.00 L115.00,244.50 L93.00,244.50 L85.50,233.00 L76.50,216.00 L74.50,214.00 L75.50,209.00 L77.50,207.00 L79.50,202.00 L81.50,200.00 L83.50,195.00 L85.50,193.00 L87.50,188.00 L92.50,181.00Z M248.50,166.00 L249.00,165.50 L251.50,169.00 L261.50,188.00 L263.50,190.00 L272.50,207.00 L274.50,209.00 L275.50,214.00 L273.50,216.00 L264.50,233.00 L257.00,244.50 L235.00,244.50 L235.50,238.00 L236.50,237.00 L236.50,233.00 L237.50,232.00 L237.50,227.00 L238.50,226.00 L238.50,221.00 L239.50,220.00 L239.50,216.00 L240.50,215.00 L240.50,210.00 L241.50,209.00 L241.50,204.00 L242.50,203.00 L242.50,199.00 L243.50,198.00 L243.50,193.00 L244.50,192.00 L244.50,187.00 L245.50,186.00 L245.50,182.00 L246.50,181.00 L246.50,176.00 L247.50,175.00Z M71.50,216.00 L73.00,215.50 L74.50,217.00 L76.50,222.00 L78.50,224.00 L87.50,241.00 L89.50,243.00 L89.00,244.50 L55.50,244.00 L64.50,228.00 L66.50,226.00Z M276.50,216.00 L278.50,216.00 L287.50,233.00 L292.50,240.00 L294.50,244.00 L294.00,244.50 L260.50,244.00Z M55.50,246.00 L90.00,245.50 L92.50,248.00 L94.50,253.00 L96.50,255.00 L98.50,260.00 L100.50,262.00 L102.50,267.00 L107.50,274.00 L109.50,279.00 L111.50,281.00 L113.50,286.00 L115.50,288.00 L124.50,304.00 L123.00,304.50 L108.00,297.50 L86.00,282.50 L67.50,264.00Z M93.50,246.00 L115.50,246.00 L116.50,254.00 L117.50,255.00 L117.50,260.00 L118.50,261.00 L118.50,266.00 L119.50,267.00 L119.50,271.00 L120.50,272.00 L120.50,277.00 L121.50,278.00 L121.50,283.00 L122.50,284.00 L122.50,288.00 L123.50,289.00 L123.50,294.00 L124.50,295.00 L124.00,298.50Z M117.50,246.00 L232.00,245.50 L232.50,249.00 L231.50,250.00 L230.50,260.00 L229.50,261.00 L229.50,266.00 L228.50,267.00 L227.50,277.00 L226.50,278.00 L226.50,283.00 L225.50,284.00 L225.50,288.00 L224.50,289.00 L222.50,306.00 L216.00,308.50 L213.00,308.50 L209.00,310.50 L201.00,311.50 L200.00,312.50 L185.00,313.50 L184.00,314.50 L166.00,314.50 L165.00,313.50 L157.00,313.50 L156.00,312.50 L150.00,312.50 L145.00,310.50 L141.00,310.50 L137.00,308.50 L134.00,308.50 L133.00,307.50 L128.00,306.50Z M234.50,246.00 L256.50,246.00 L226.00,298.50 L225.50,295.00 L226.50,294.00 L226.50,289.00 L227.50,288.00 L227.50,284.00 L228.50,283.00 L228.50,278.00 L229.50,277.00 L229.50,272.00 L230.50,271.00 L230.50,267.00 L231.50,266.00 L231.50,261.00 L232.50,260.00 L232.50,255.00 L233.50,254.00Z M259.50,246.00 L294.00,245.50 L294.50,247.00 L281.50,265.00 L265.00,281.50 L247.00,294.50 L232.00,302.50 L230.00,302.50 L226.00,304.50 L225.50,304.00 L229.50,298.00 L231.50,293.00 L236.50,286.00 L242.50,274.00 L244.50,272.00 L253.50,255.00 L255.50,253.00 L257.50,248.00Z" fill="#000000" fill-rule="evenodd" stroke="none"/>
</svg>
