<svg xmlns="http://www.w3.org/2000/svg" viewBox="0 0 350 350">
  <path d="M158.50,15.00 L191.00,14.50 L192.00,15.50 L199.00,15.50 L200.00,16.50 L210.00,17.50 L211.00,18.50 L218.00,19.50 L222.00,21.50 L225.00,21.50 L228.00,23.50 L238.00,26.50 L258.00,36.50 L279.00,51.50 L302.50,76.00 L311.50,89.00 L316.50,99.00 L318.50,101.00 L328.50,125.00 L328.50,128.00 L329.50,129.00 L331.50,139.00 L332.50,140.00 L333.50,150.00 L334.50,151.00 L334.50,158.00 L335.50,159.00 L335.50,191.00 L334.50,192.00 L334.50,199.00 L333.50,200.00 L332.50,210.00 L331.50,211.00 L330.50,218.00 L328.50,222.00 L328.50,225.00 L318.50,249.00 L316.50,251.00 L311.50,261.00 L302.50,274.00 L279.00,298.50 L258.00,313.50 L238.00,323.50 L228.00,326.50 L225.00,328.50 L222.00,328.50 L221.00,329.50 L211.00,331.50 L210.00,332.50 L200.00,333.50 L199.00,334.50 L192.00,334.50 L191.00,335.50 L159.00,335.50 L158.00,334.50 L151.00,334.50 L150.00,333.50 L145.00,333.50 L144.00,332.50 L140.00,332.50 L139.00,331.50 L132.00,330.50 L131.00,329.50 L117.00,325.50 L114.00,323.50 L112.00,323.50 L94.00,314.50 L76.00,302.50 L52.50,280.00 L52.50,279.00 L44.50,270.00 L36.50,258.00 L34.50,253.00 L32.50,251.00 L32.50,249.00 L30.50,247.00 L29.50,243.00 L25.50,236.00 L25.50,234.00 L19.50,218.00 L19.50,215.00 L17.50,210.00 L17.50,206.00 L16.50,205.00 L16.50,200.00 L15.50,199.00 L15.50,192.00 L14.50,191.00 L14.50,159.00 L15.50,158.00 L15.50,151.00 L16.50,150.00 L16.50,145.00 L17.50,144.00 L17.50,140.00 L18.50,139.00 L19.50,132.00 L20.50,131.00 L25.50,114.00 L29.50,107.00 L30.50,103.00 L32.50,101.00 L32.50,99.00 L34.50,97.00 L36.50,92.00 L44.50,80.00 L48.50,76.00 L52.50,70.00 L76.00,47.50 L94.00,35.50 L112.00,26.50 L114.00,26.50 L117.00,24.50 L119.00,24.50 L132.00,19.50 L135.00,19.50 L140.00,17.50 L144.00,17.50 L145.00,16.50Z M161.50,19.00 L188.00,18.50 L189.00,19.50 L196.00,19.50 L197.00,20.50 L202.00,20.50 L203.00,21.50 L212.00,22.50 L213.00,23.50 L219.00,24.50 L233.50,30.00 L216.00,31.50 L215.00,32.50 L209.00,33.50 L201.00,37.50 L194.00,33.50 L191.00,33.50 L187.00,31.50 L182.00,31.50 L181.00,30.50 L169.00,30.50 L168.00,31.50 L163.00,31.50 L162.00,32.50 L156.00,33.50 L149.00,37.50 L146.00,35.50 L144.00,35.50 L141.00,33.50 L135.00,32.50 L134.00,31.50 L116.50,30.00 L131.00,24.50 L137.00,23.50 L138.00,22.50 L142.00,22.50 L143.00,21.50 L147.00,21.50 L148.00,20.50 L153.00,20.50 L154.00,19.50Z M115.50,33.00 L129.00,32.50 L130.00,33.50 L138.00,34.50 L145.50,38.00 L145.50,39.00 L142.00,41.50 L129.50,55.00 L123.50,68.00 L121.50,82.00 L121.00,82.50 L114.00,78.50 L111.00,78.50 L106.00,76.50 L87.00,76.50 L86.00,77.50 L82.00,77.50 L72.00,81.50 L71.50,74.00 L72.50,73.00 L72.50,70.00 L78.50,57.00 L84.50,49.00 L88.00,45.50 L98.00,38.50 L111.00,33.50Z M168.50,33.00 L181.00,32.50 L182.00,33.50 L186.00,33.50 L187.00,34.50 L193.00,35.50 L198.50,39.00 L193.00,42.50 L185.50,50.00 L177.50,64.00 L175.00,73.50 L172.50,64.00 L166.50,53.00 L158.00,43.50 L151.50,39.00 L157.00,35.50Z M220.50,33.00 L234.00,32.50 L235.00,33.50 L243.00,34.50 L246.00,36.50 L248.00,36.50 L252.00,38.50 L262.00,45.50 L269.50,54.00 L275.50,65.00 L275.50,67.00 L277.50,70.00 L277.50,73.00 L278.50,74.00 L278.50,81.00 L277.00,81.50 L274.00,79.50 L272.00,79.50 L268.00,77.50 L264.00,77.50 L263.00,76.50 L244.00,76.50 L243.00,77.50 L236.00,78.50 L231.00,81.50 L229.00,81.50 L228.50,78.00 L227.50,77.00 L226.50,68.00 L220.50,55.00 L218.50,52.00 L207.00,40.50 L204.50,39.00 L204.50,38.00 L207.00,36.50 L209.00,36.50 L216.00,33.50Z M146.50,41.00 L150.00,40.50 L152.00,41.50 L160.50,49.00 L166.50,57.00 L172.50,70.00 L172.50,73.00 L173.50,74.00 L173.00,81.50 L169.00,79.50 L167.00,79.50 L163.00,77.50 L159.00,77.50 L158.00,76.50 L139.00,76.50 L138.00,77.50 L131.00,78.50 L126.00,81.50 L123.50,81.00 L124.50,72.00 L131.50,56.00 L134.50,52.00Z M199.50,41.00 L202.00,40.50 L207.00,43.50 L218.50,56.00 L225.50,72.00 L225.50,76.00 L226.50,77.00 L226.00,82.50 L219.00,78.50 L216.00,78.50 L211.00,76.50 L192.00,76.50 L191.00,77.50 L187.00,77.50 L186.00,78.50 L181.00,79.50 L178.00,81.50 L176.50,81.00 L176.50,74.00 L177.50,73.00 L177.50,70.00 L183.50,57.00 L189.50,49.00Z M77.50,53.00 L78.00,52.50 L78.50,54.00 L76.50,56.00 L70.50,70.00 L70.50,73.00 L69.50,74.00 L69.50,83.00 L60.00,89.50 L52.50,98.00 L44.50,114.00 L42.50,129.00 L38.00,131.50 L27.50,142.00 L24.50,146.00 L21.00,153.50 L20.50,148.00 L21.50,147.00 L21.50,143.00 L22.50,142.00 L22.50,138.00 L24.50,134.00 L24.50,131.00 L25.50,130.00 L28.50,119.00 L38.50,98.00 L53.50,76.00 L67.00,61.50 L68.00,61.50 L76.00,53.50Z M271.50,53.00 L272.00,52.50 L275.00,54.50 L289.50,68.00 L289.50,69.00 L295.50,75.00 L295.50,76.00 L302.50,84.00 L308.50,93.00 L309.50,96.00 L311.50,98.00 L321.50,119.00 L321.50,121.00 L326.50,134.00 L326.50,138.00 L327.50,139.00 L328.50,147.00 L329.50,148.00 L329.00,153.50 L323.50,143.00 L312.00,131.50 L307.50,129.00 L305.50,114.00 L297.50,98.00 L290.00,89.50 L280.50,83.00 L280.50,74.00 L279.50,73.00 L279.50,70.00 L278.50,69.00 L277.50,64.00Z M93.50,78.00 L98.00,77.50 L99.00,78.50 L106.00,78.50 L107.00,79.50 L113.00,80.50 L120.50,84.00 L115.00,87.50 L103.50,100.00 L96.50,116.00 L95.00,127.50 L88.00,122.50 L83.50,118.00 L75.50,106.00 L75.50,104.00 L72.50,98.00 L72.50,95.00 L71.50,94.00 L71.50,87.00 L70.50,86.00 L71.00,84.50 L77.00,81.50 L79.00,81.50 L83.00,79.50 L86.00,79.50 L87.00,78.50Z M146.50,78.00 L151.00,77.50 L152.00,78.50 L158.00,78.50 L159.00,79.50 L162.00,79.50 L163.00,80.50 L168.00,81.50 L172.50,84.00 L165.00,89.50 L157.50,98.00 L151.50,109.00 L149.00,117.50 L147.50,115.00 L146.50,110.00 L141.50,100.00 L138.50,96.00 L125.50,84.00 L135.00,79.50Z M198.50,78.00 L203.00,77.50 L204.00,78.50 L211.00,78.50 L212.00,79.50 L218.00,80.50 L225.50,84.00 L220.00,87.50 L208.50,100.00 L203.50,110.00 L203.50,112.00 L201.00,117.50 L198.50,109.00 L192.50,98.00 L185.00,89.50 L177.50,84.00 L188.00,79.50Z M251.50,78.00 L256.00,77.50 L257.00,78.50 L263.00,78.50 L264.00,79.50 L267.00,79.50 L268.00,80.50 L273.00,81.50 L279.50,85.00 L278.50,87.00 L278.50,94.00 L277.50,95.00 L277.50,98.00 L273.50,106.00 L273.50,108.00 L266.50,118.00 L262.00,122.50 L255.00,127.50 L253.50,116.00 L246.50,100.00 L243.50,96.00 L230.50,84.00 L240.00,79.50Z M280.50,86.00 L281.00,85.50 L284.00,87.50 L297.50,102.00 L303.50,115.00 L304.50,124.00 L305.50,125.00 L305.00,127.50 L299.00,124.50 L293.00,123.50 L292.00,122.50 L288.00,122.50 L287.00,121.50 L273.00,121.50 L272.00,122.50 L268.00,122.50 L267.00,123.50 L264.50,123.00 L272.50,114.00 L278.50,102.00 L278.50,99.00 L280.50,94.00Z M67.50,87.00 L69.50,87.00 L69.50,94.00 L70.50,95.00 L71.50,102.00 L74.50,107.00 L74.50,109.00 L80.50,118.00 L85.50,123.00 L83.00,123.50 L82.00,122.50 L78.00,122.50 L77.00,121.50 L63.00,121.50 L62.00,122.50 L54.00,123.50 L45.00,127.50 L44.50,125.00 L45.50,124.00 L46.50,115.00 L52.50,102.00 L55.50,98.00Z M119.50,87.00 L121.50,87.00 L121.50,91.00 L122.50,92.00 L123.50,100.00 L129.50,113.00 L135.50,121.00 L138.50,123.00 L136.00,123.50 L135.00,122.50 L130.00,122.50 L129.00,121.50 L116.00,121.50 L115.00,122.50 L110.00,122.50 L109.00,123.50 L101.00,125.50 L98.00,127.50 L97.50,121.00 L98.50,120.00 L98.50,117.00 L104.50,103.00 L108.50,97.00Z M123.50,87.00 L126.00,87.50 L130.00,90.50 L135.50,96.00 L140.50,103.00 L146.50,117.00 L146.50,120.00 L147.50,121.00 L147.00,127.50 L143.00,124.50 L131.50,112.00 L124.50,96.00Z M172.50,87.00 L173.50,87.00 L173.50,94.00 L172.50,95.00 L171.50,101.00 L168.50,106.00 L168.50,108.00 L161.50,118.00 L157.00,122.50 L150.00,127.50 L149.50,125.00 L150.50,124.00 L151.50,115.00 L157.50,102.00 L160.50,98.00Z M176.50,87.00 L179.00,87.50 L192.50,102.00 L198.50,115.00 L199.50,124.00 L200.50,125.00 L200.00,127.50 L193.00,122.50 L188.50,118.00 L180.50,106.00 L180.50,104.00 L178.50,101.00 L177.50,95.00 L176.50,94.00Z M224.50,87.00 L226.50,87.00 L225.50,96.00 L218.50,112.00 L215.50,116.00 L203.00,127.50 L202.50,121.00 L203.50,120.00 L203.50,117.00 L209.50,103.00 L213.50,97.00Z M228.50,87.00 L231.00,87.50 L235.00,90.50 L240.50,96.00 L245.50,103.00 L251.50,117.00 L251.50,120.00 L252.50,121.00 L252.00,127.50 L249.00,125.50 L247.00,125.50 L240.00,122.50 L235.00,122.50 L234.00,121.50 L221.00,121.50 L220.00,122.50 L215.00,122.50 L214.00,123.50 L211.50,123.00 L214.00,121.50 L218.50,116.00 L225.50,103.00 L226.50,97.00 L227.50,96.00 L227.50,92.00 L228.50,91.00Z M174.50,95.00 L175.50,95.00 L176.50,102.00 L179.50,107.00 L179.50,109.00 L185.50,118.00 L190.50,123.00 L190.00,123.50 L183.00,122.50 L182.00,121.50 L168.00,121.50 L167.00,122.50 L163.00,122.50 L162.00,123.50 L159.50,123.00 L167.50,114.00 L173.50,102.00Z M62.50,124.00 L77.00,123.50 L78.00,124.50 L82.00,124.50 L83.00,125.50 L88.00,126.50 L93.50,130.00 L88.00,133.50 L80.50,141.00 L76.50,147.00 L70.50,161.00 L69.00,173.50 L60.00,165.50 L59.00,165.50 L52.50,157.00 L47.50,147.00 L46.50,141.00 L45.50,140.00 L45.50,135.00 L44.50,134.00 L44.50,131.00 L46.00,129.50 L52.00,126.50Z M115.50,124.00 L129.00,123.50 L130.00,124.50 L138.00,125.50 L141.00,127.50 L145.00,128.50 L145.50,130.00 L141.00,132.50 L131.00,134.50 L130.00,135.50 L115.00,135.50 L114.00,134.50 L104.00,132.50 L100.00,130.50 L99.50,129.00 L107.00,125.50Z M167.50,124.00 L182.00,123.50 L183.00,124.50 L187.00,124.50 L188.00,125.50 L193.00,126.50 L197.00,128.50 L197.50,130.00 L193.00,132.50 L191.00,132.50 L187.00,134.50 L183.00,134.50 L182.00,135.50 L168.00,135.50 L167.00,134.50 L163.00,134.50 L151.50,130.00 L157.00,126.50Z M220.50,124.00 L234.00,123.50 L235.00,124.50 L243.00,125.50 L246.00,127.50 L250.00,128.50 L250.50,130.00 L246.00,132.50 L236.00,134.50 L235.00,135.50 L220.00,135.50 L219.00,134.50 L209.00,132.50 L205.00,130.50 L204.50,129.00 L212.00,125.50Z M272.50,124.00 L287.00,123.50 L288.00,124.50 L292.00,124.50 L293.00,125.50 L298.00,126.50 L305.50,131.00 L304.50,140.00 L303.50,141.00 L303.50,144.00 L300.50,150.00 L300.50,152.00 L291.50,165.00 L281.00,173.50 L279.50,161.00 L273.50,147.00 L268.50,140.00 L262.00,133.50 L256.50,130.00 L262.00,126.50Z M41.50,132.00 L42.00,131.50 L43.50,134.00 L43.50,141.00 L44.50,142.00 L45.50,148.00 L50.50,158.00 L56.50,166.00 L67.50,175.00 L56.50,184.00 L47.50,197.00 L47.50,199.00 L44.50,205.00 L44.50,208.00 L43.50,209.00 L43.50,216.00 L42.00,218.50 L38.00,215.50 L26.50,203.00 L21.50,193.00 L21.50,191.00 L19.50,187.00 L19.50,183.00 L18.50,182.00 L18.50,168.00 L19.50,167.00 L19.50,163.00 L20.50,162.00 L21.50,157.00 L28.50,144.00Z M94.50,132.00 L95.50,132.00 L95.50,138.00 L96.50,139.00 L96.50,143.00 L97.50,144.00 L98.50,149.00 L105.50,162.00 L112.50,169.00 L111.00,169.50 L106.00,167.50 L86.00,167.50 L85.00,168.50 L82.00,168.50 L72.00,172.50 L71.50,165.00 L72.50,164.00 L72.50,161.00 L74.50,158.00 L75.50,153.00 L84.50,140.00Z M97.50,132.00 L98.00,131.50 L102.00,134.50 L113.50,147.00 L120.50,163.00 L120.50,167.00 L121.50,168.00 L121.00,172.50 L116.00,169.50 L108.50,162.00 L102.50,153.00 L102.50,151.00 L99.50,146.00 L99.50,143.00 L97.50,138.00Z M146.50,132.00 L147.50,132.00 L147.50,138.00 L146.50,139.00 L145.50,146.00 L139.50,158.00 L129.00,169.50 L124.00,172.50 L123.50,168.00 L124.50,167.00 L124.50,163.00 L131.50,147.00 L133.50,144.00Z M149.50,132.00 L152.00,132.50 L156.00,136.50 L157.00,136.50 L166.50,148.00 L172.50,161.00 L172.50,164.00 L173.50,165.00 L173.00,172.50 L165.00,165.50 L164.00,165.50 L157.50,157.00 L151.50,144.00Z M199.50,132.00 L200.50,132.00 L200.50,134.00 L199.50,135.00 L199.50,140.00 L198.50,141.00 L198.50,144.00 L195.50,150.00 L195.50,152.00 L186.50,165.00 L177.00,172.50 L176.50,165.00 L177.50,164.00 L177.50,161.00 L179.50,158.00 L180.50,153.00 L189.50,140.00Z M202.50,132.00 L203.00,131.50 L207.00,134.50 L218.50,147.00 L225.50,163.00 L225.50,167.00 L226.50,168.00 L226.00,172.50 L221.00,169.50 L213.50,162.00 L207.50,153.00 L207.50,151.00 L204.50,146.00 L204.50,143.00 L202.50,138.00Z M251.50,132.00 L252.50,132.00 L252.50,138.00 L251.50,139.00 L250.50,146.00 L244.50,158.00 L234.00,169.50 L229.00,172.50 L228.50,168.00 L229.50,167.00 L229.50,163.00 L236.50,147.00 L238.50,144.00Z M254.50,132.00 L257.00,132.50 L261.00,136.50 L262.00,136.50 L271.50,148.00 L277.50,161.00 L277.50,164.00 L278.50,165.00 L278.00,172.50 L268.00,168.50 L265.00,168.50 L264.00,167.50 L244.00,167.50 L239.00,169.50 L237.50,169.00 L246.50,159.00 L251.50,149.00 L251.50,147.00 L253.50,143.00 L253.50,139.00 L254.50,138.00Z M307.50,132.00 L308.00,131.50 L312.00,134.50 L323.50,147.00 L328.50,157.00 L328.50,159.00 L330.50,163.00 L330.50,167.00 L331.50,168.00 L331.50,182.00 L330.50,183.00 L330.50,187.00 L329.50,188.00 L328.50,193.00 L323.50,203.00 L320.50,207.00 L308.00,218.50 L306.50,216.00 L306.50,209.00 L305.50,208.00 L305.50,205.00 L299.50,192.00 L294.50,185.00 L282.50,175.00 L290.00,169.50 L294.50,165.00 L299.50,158.00 L305.50,145.00 L305.50,142.00 L306.50,141.00 L306.50,134.00Z M106.50,136.00 L109.00,135.50 L110.00,136.50 L114.00,136.50 L115.00,137.50 L130.00,137.50 L131.00,136.50 L135.00,136.50 L136.00,135.50 L138.50,136.00 L129.50,146.00 L124.50,156.00 L123.00,162.50 L121.50,162.00 L120.50,156.00 L115.50,146.00Z M159.50,136.00 L167.00,136.50 L168.00,137.50 L182.00,137.50 L183.00,136.50 L190.50,136.00 L185.50,141.00 L181.50,147.00 L177.50,155.00 L175.00,164.50 L172.50,155.00 L168.50,147.00Z M211.50,136.00 L214.00,135.50 L215.00,136.50 L219.00,136.50 L220.00,137.50 L235.00,137.50 L236.00,136.50 L240.00,136.50 L241.00,135.50 L243.50,136.00 L234.50,146.00 L229.50,156.00 L228.00,162.50 L226.50,162.00 L225.50,156.00 L220.50,146.00Z M328.50,136.00 L329.50,136.00 L329.00,137.50Z M148.50,142.00 L149.50,142.00 L149.50,145.00 L152.50,151.00 L152.50,153.00 L154.50,155.00 L157.50,161.00 L163.50,168.00 L139.00,167.50 L138.00,168.50 L133.00,169.50 L132.50,169.00 L141.50,159.00 L146.50,149.00Z M200.50,142.00 L201.00,141.50 L202.50,144.00 L203.50,149.00 L208.50,159.00 L217.50,169.00 L217.00,169.50 L212.00,168.50 L211.00,167.50 L186.50,168.00 L194.50,158.00 L199.50,148.00Z M18.50,145.00 L19.50,145.00 L19.00,146.50Z M330.50,145.00 L331.50,145.00 L331.00,147.50Z M17.50,151.00 L18.50,151.00 L18.00,153.50Z M331.50,151.00 L332.50,151.00 L332.00,153.50Z M19.50,154.00 L20.50,154.00 L20.00,155.50Z M329.50,154.00 L330.50,154.00 L330.00,155.50Z M16.50,158.00 L17.50,158.00 L17.00,163.50Z M332.50,158.00 L333.50,158.00 L333.00,163.50Z M92.50,169.00 L99.00,168.50 L100.00,169.50 L106.00,169.50 L107.00,170.50 L113.00,171.50 L120.50,175.00 L113.00,178.50 L107.00,179.50 L106.00,180.50 L100.00,180.50 L99.00,181.50 L87.00,180.50 L86.00,179.50 L83.00,179.50 L82.00,178.50 L77.00,177.50 L72.50,175.00 L83.00,170.50Z M145.50,169.00 L152.00,168.50 L153.00,169.50 L158.00,169.50 L159.00,170.50 L162.00,170.50 L163.00,171.50 L168.00,172.50 L172.50,175.00 L162.00,179.50 L153.00,180.50 L152.00,181.50 L139.00,180.50 L138.00,179.50 L132.00,178.50 L124.50,175.00 L135.00,170.50Z M197.50,169.00 L204.00,168.50 L205.00,169.50 L211.00,169.50 L212.00,170.50 L218.00,171.50 L225.50,175.00 L218.00,178.50 L212.00,179.50 L211.00,180.50 L205.00,180.50 L204.00,181.50 L192.00,180.50 L191.00,179.50 L188.00,179.50 L187.00,178.50 L182.00,177.50 L177.50,175.00 L188.00,170.50Z M250.50,169.00 L257.00,168.50 L258.00,169.50 L263.00,169.50 L264.00,170.50 L267.00,170.50 L268.00,171.50 L273.00,172.50 L277.50,175.00 L267.00,179.50 L258.00,180.50 L257.00,181.50 L244.00,180.50 L243.00,179.50 L237.00,178.50 L229.50,175.00 L240.00,170.50Z M15.50,174.00 L16.50,174.00 L16.00,176.50Z M68.50,177.00 L69.50,177.00 L69.50,185.00 L70.50,186.00 L70.50,189.00 L76.50,203.00 L80.50,209.00 L88.00,216.50 L93.50,220.00 L88.00,223.50 L86.00,223.50 L82.00,225.50 L78.00,225.50 L77.00,226.50 L63.00,226.50 L62.00,225.50 L58.00,225.50 L57.00,224.50 L52.00,223.50 L44.50,219.00 L46.50,206.00 L52.50,193.00 L58.50,185.00Z M280.50,177.00 L281.00,176.50 L284.00,178.50 L290.00,184.50 L291.50,185.00 L300.50,198.00 L300.50,200.00 L302.50,203.00 L303.50,209.00 L304.50,210.00 L305.50,219.00 L298.00,223.50 L296.00,223.50 L292.00,225.50 L288.00,225.50 L287.00,226.50 L273.00,226.50 L272.00,225.50 L268.00,225.50 L267.00,224.50 L262.00,223.50 L256.50,220.00 L262.00,216.50 L268.50,210.00 L273.50,203.00 L279.50,189.00 L279.50,186.00 L280.50,185.00Z M71.50,178.00 L73.00,177.50 L76.00,179.50 L78.00,179.50 L82.00,181.50 L85.00,181.50 L86.00,182.50 L106.00,182.50 L111.00,180.50 L112.50,181.00 L105.50,188.00 L98.50,201.00 L98.50,203.00 L96.50,207.00 L95.00,218.50 L84.50,210.00 L75.50,197.00 L75.50,195.00 L71.50,185.00Z M119.50,178.00 L121.50,178.00 L120.50,187.00 L113.50,203.00 L110.50,207.00 L98.00,218.50 L97.50,212.00 L98.50,211.00 L99.50,204.00 L102.50,199.00 L102.50,197.00 L108.50,188.00Z M123.50,178.00 L125.00,177.50 L129.00,180.50 L139.50,192.00 L145.50,204.00 L145.50,207.00 L147.50,212.00 L147.00,218.50 L143.00,215.50 L131.50,203.00 L124.50,187.00Z M172.50,178.00 L173.50,178.00 L173.50,185.00 L172.50,186.00 L172.50,189.00 L170.50,192.00 L170.50,194.00 L166.50,202.00 L160.50,210.00 L150.00,218.50 L149.50,216.00 L150.50,215.00 L151.50,206.00 L157.50,193.00 L163.50,185.00Z M176.50,178.00 L179.00,178.50 L185.00,184.50 L186.50,185.00 L195.50,198.00 L195.50,200.00 L197.50,203.00 L198.50,209.00 L199.50,210.00 L199.50,215.00 L200.50,216.00 L200.00,218.50 L189.50,210.00 L180.50,197.00 L180.50,195.00 L176.50,185.00Z M224.50,178.00 L226.50,178.00 L225.50,187.00 L218.50,203.00 L215.50,207.00 L203.00,218.50 L202.50,212.00 L203.50,211.00 L204.50,204.00 L207.50,199.00 L207.50,197.00 L213.50,188.00Z M228.50,178.00 L230.00,177.50 L234.00,180.50 L244.50,192.00 L250.50,204.00 L250.50,207.00 L252.50,212.00 L252.00,218.50 L248.00,215.50 L236.50,203.00 L229.50,187.00Z M276.50,178.00 L278.50,178.00 L278.50,185.00 L277.50,186.00 L277.50,189.00 L275.50,192.00 L275.50,194.00 L271.50,202.00 L265.50,210.00 L255.00,218.50 L254.50,212.00 L253.50,211.00 L253.50,207.00 L252.50,206.00 L251.50,201.00 L246.50,191.00 L237.50,181.00 L239.00,180.50 L244.00,182.50 L264.00,182.50 L265.00,181.50 L268.00,181.50Z M132.50,181.00 L134.00,180.50 L139.00,182.50 L163.50,182.00 L157.50,189.00 L154.50,195.00 L152.50,197.00 L149.00,208.50 L147.50,206.00 L146.50,201.00 L141.50,191.00Z M215.50,181.00 L217.50,181.00 L208.50,191.00 L203.50,201.00 L203.50,203.00 L201.00,208.50 L199.50,202.00 L194.50,192.00 L186.50,182.00 L211.00,182.50 L212.00,181.50Z M174.50,186.00 L175.50,186.00 L175.50,189.00 L176.50,190.00 L177.50,195.00 L181.50,203.00 L185.50,209.00 L190.50,214.00 L190.00,214.50 L188.00,213.50 L183.00,213.50 L182.00,212.50 L168.00,212.50 L167.00,213.50 L159.50,214.00 L168.50,203.00 L172.50,195.00 L172.50,193.00 L174.50,189.00Z M16.50,187.00 L17.50,187.00 L17.00,192.50Z M332.50,187.00 L333.50,187.00 L333.00,192.50Z M121.50,188.00 L123.50,188.00 L124.50,194.00 L129.50,204.00 L138.50,214.00 L138.00,214.50 L131.00,213.50 L130.00,212.50 L115.00,212.50 L114.00,213.50 L110.00,213.50 L109.00,214.50 L106.50,214.00 L115.50,204.00 L120.50,194.00Z M226.50,188.00 L228.50,188.00 L229.50,194.00 L234.50,204.00 L243.50,214.00 L243.00,214.50 L236.00,213.50 L235.00,212.50 L220.00,212.50 L219.00,213.50 L215.00,213.50 L214.00,214.50 L211.50,214.00 L220.50,204.00 L225.50,194.00Z M19.50,195.00 L20.50,195.00 L20.00,196.50Z M329.50,195.00 L330.50,195.00 L330.00,196.50Z M17.50,197.00 L18.50,197.00 L18.00,199.50Z M20.50,197.00 L21.50,197.00 L24.50,204.00 L27.50,208.00 L38.00,218.50 L42.50,221.00 L44.50,236.00 L52.50,252.00 L60.00,260.50 L69.50,267.00 L69.50,276.00 L70.50,277.00 L70.50,280.00 L71.50,281.00 L72.50,286.00 L76.50,294.00 L78.50,296.00 L78.00,297.50 L68.00,288.50 L67.00,288.50 L53.50,274.00 L38.50,252.00 L28.50,231.00 L28.50,229.00 L24.50,219.00 L24.50,216.00 L23.50,215.00 L22.50,208.00 L21.50,207.00 L21.50,203.00 L20.50,202.00Z M328.50,197.00 L329.50,197.00 L329.50,202.00 L328.50,203.00 L328.50,207.00 L326.50,212.00 L326.50,216.00 L325.50,217.00 L321.50,231.00 L311.50,252.00 L309.50,254.00 L308.50,257.00 L302.50,266.00 L295.50,274.00 L295.50,275.00 L289.50,281.00 L289.50,282.00 L272.00,297.50 L271.50,296.00 L273.50,294.00 L279.50,280.00 L279.50,277.00 L280.50,276.00 L280.50,267.00 L290.00,260.50 L297.50,252.00 L305.50,236.00 L307.50,221.00 L312.00,218.50 L323.50,207.00Z M331.50,197.00 L332.50,197.00 L332.00,199.50Z M330.50,203.00 L331.50,203.00 L331.00,205.50Z M18.50,204.00 L19.50,204.00 L19.00,205.50Z M328.50,213.00 L329.50,213.00 L329.00,214.50Z M114.50,215.00 L130.00,214.50 L131.00,215.50 L141.00,217.50 L145.00,219.50 L145.50,221.00 L138.00,224.50 L130.00,225.50 L129.00,226.50 L116.00,226.50 L115.00,225.50 L107.00,224.50 L99.50,221.00 L100.00,219.50 L104.00,217.50Z M167.50,215.00 L182.00,214.50 L183.00,215.50 L187.00,215.50 L188.00,216.50 L193.00,217.50 L197.00,219.50 L197.50,221.00 L193.00,223.50 L191.00,223.50 L187.00,225.50 L183.00,225.50 L182.00,226.50 L168.00,226.50 L167.00,225.50 L163.00,225.50 L162.00,224.50 L157.00,223.50 L151.50,220.00 L163.00,215.50Z M219.50,215.00 L235.00,214.50 L236.00,215.50 L246.00,217.50 L250.00,219.50 L250.50,221.00 L243.00,224.50 L235.00,225.50 L234.00,226.50 L221.00,226.50 L220.00,225.50 L212.00,224.50 L204.50,221.00 L205.00,219.50 L209.00,217.50Z M44.50,223.00 L48.00,223.50 L54.00,226.50 L62.00,227.50 L63.00,228.50 L77.00,228.50 L78.00,227.50 L82.00,227.50 L83.00,226.50 L85.50,227.00 L80.50,232.00 L74.50,241.00 L74.50,243.00 L71.50,248.00 L71.50,251.00 L69.50,256.00 L69.00,263.50 L65.00,261.50 L52.50,248.00 L46.50,235.00Z M94.50,223.00 L95.50,223.00 L96.50,234.00 L103.50,250.00 L106.50,254.00 L115.00,262.50 L120.00,265.50 L120.00,266.50 L110.00,270.50 L107.00,270.50 L106.00,271.50 L94.00,272.50 L93.00,271.50 L83.00,270.50 L70.50,265.00 L71.50,263.00 L71.50,256.00 L72.50,255.00 L72.50,252.00 L75.50,246.00 L75.50,244.00 L83.50,232.00 L88.00,227.50Z M97.50,223.00 L98.00,222.50 L101.00,224.50 L103.00,224.50 L110.00,227.50 L115.00,227.50 L116.00,228.50 L129.00,228.50 L130.00,227.50 L135.00,227.50 L136.00,226.50 L138.50,227.00 L136.00,228.50 L131.50,234.00 L124.50,247.00 L121.00,263.50 L116.00,260.50 L108.50,253.00 L104.50,247.00 L98.50,233.00Z M146.50,223.00 L147.50,223.00 L147.50,229.00 L146.50,230.00 L146.50,233.00 L145.50,234.00 L144.50,239.00 L140.50,247.00 L135.50,254.00 L130.00,259.50 L124.00,263.50 L123.50,259.00 L124.50,258.00 L124.50,254.00 L131.50,238.00 L133.50,235.00Z M149.50,223.00 L152.00,223.50 L156.00,227.50 L157.00,227.50 L161.50,232.00 L168.50,242.00 L168.50,244.00 L171.50,249.00 L172.50,255.00 L173.50,256.00 L173.00,263.50 L170.00,261.50 L157.50,248.00 L151.50,235.00Z M199.50,223.00 L200.50,223.00 L200.50,225.00 L199.50,226.00 L198.50,235.00 L192.50,248.00 L190.50,251.00 L179.00,262.50 L177.00,263.50 L176.50,256.00 L177.50,255.00 L177.50,252.00 L180.50,246.00 L180.50,244.00 L188.50,232.00 L193.00,227.50Z M202.50,223.00 L203.00,222.50 L206.00,224.50 L218.50,238.00 L225.50,254.00 L225.50,258.00 L226.50,259.00 L226.00,263.50 L221.00,260.50 L213.50,253.00 L209.50,247.00 L203.50,233.00Z M251.50,223.00 L252.50,223.00 L252.50,229.00 L251.50,230.00 L251.50,233.00 L250.50,234.00 L249.50,239.00 L245.50,247.00 L240.50,254.00 L235.00,259.50 L229.00,263.50 L225.50,247.00 L218.50,234.00 L214.50,230.00 L214.50,229.00 L211.50,227.00 L214.00,226.50 L215.00,227.50 L220.00,227.50 L221.00,228.50 L234.00,228.50 L235.00,227.50 L240.00,227.50Z M254.50,223.00 L257.00,223.50 L261.00,227.50 L262.00,227.50 L266.50,232.00 L273.50,242.00 L273.50,244.00 L277.50,252.00 L277.50,255.00 L278.50,256.00 L278.50,263.00 L279.50,265.00 L267.00,270.50 L257.00,271.50 L256.00,272.50 L244.00,271.50 L243.00,270.50 L237.00,269.50 L230.50,266.00 L234.00,262.50 L235.00,262.50 L246.50,250.00 L253.50,234.00Z M303.50,223.00 L305.50,223.00 L305.50,225.00 L304.50,226.00 L304.50,231.00 L303.50,232.00 L302.50,238.00 L297.50,248.00 L295.50,251.00 L281.00,264.50 L280.50,256.00 L279.50,255.00 L278.50,248.00 L272.50,236.00 L264.50,227.00 L267.00,226.50 L268.00,227.50 L272.00,227.50 L273.00,228.50 L287.00,228.50 L288.00,227.50 L296.00,226.50Z M159.50,227.00 L162.00,226.50 L163.00,227.50 L167.00,227.50 L168.00,228.50 L182.00,228.50 L183.00,227.50 L187.00,227.50 L188.00,226.50 L190.50,227.00 L185.50,232.00 L179.50,241.00 L179.50,243.00 L176.50,248.00 L175.00,255.50 L173.50,248.00 L167.50,236.00Z M148.50,233.00 L149.50,233.00 L149.50,236.00 L151.50,239.00 L151.50,241.00 L157.50,252.00 L161.50,256.00 L161.50,257.00 L170.00,264.50 L171.00,264.50 L172.50,266.00 L172.00,266.50 L162.00,270.50 L159.00,270.50 L158.00,271.50 L147.00,272.50 L146.00,271.50 L139.00,271.50 L138.00,270.50 L135.00,270.50 L125.50,266.00 L129.00,262.50 L130.00,262.50 L141.50,250.00 L146.50,240.00Z M200.50,233.00 L201.00,232.50 L202.50,235.00 L203.50,240.00 L208.50,250.00 L211.50,254.00 L220.00,262.50 L225.00,265.50 L225.00,266.50 L215.00,270.50 L212.00,270.50 L211.00,271.50 L199.00,272.50 L198.00,271.50 L188.00,270.50 L177.50,266.00 L185.00,260.50 L192.50,252.00 L198.50,241.00 L198.50,239.00 L200.50,236.00Z M120.50,268.00 L121.50,268.00 L123.50,282.00 L129.50,295.00 L132.50,299.00 L145.50,311.00 L145.00,312.50 L141.00,313.50 L138.00,315.50 L130.00,316.50 L129.00,317.50 L116.00,317.50 L115.00,316.50 L111.00,316.50 L110.00,315.50 L102.00,313.50 L92.00,307.50 L84.50,301.00 L78.50,293.00 L72.50,280.00 L72.50,277.00 L71.50,276.00 L72.00,268.50 L76.00,270.50 L78.00,270.50 L82.00,272.50 L86.00,272.50 L87.00,273.50 L106.00,273.50 L107.00,272.50 L114.00,271.50Z M225.50,268.00 L226.50,268.00 L225.50,278.00 L218.50,294.00 L207.00,306.50 L202.00,309.50 L200.00,309.50 L193.00,304.50 L185.50,296.00 L179.50,285.00 L179.50,283.00 L177.50,280.00 L177.50,277.00 L176.50,276.00 L177.00,268.50 L181.00,270.50 L183.00,270.50 L187.00,272.50 L191.00,272.50 L192.00,273.50 L211.00,273.50 L212.00,272.50 L219.00,271.50Z M123.50,269.00 L126.00,268.50 L131.00,271.50 L134.00,271.50 L139.00,273.50 L158.00,273.50 L159.00,272.50 L163.00,272.50 L173.00,268.50 L173.50,276.00 L172.50,277.00 L172.50,280.00 L170.50,283.00 L170.50,285.00 L164.50,296.00 L160.50,300.00 L160.50,301.00 L152.00,308.50 L147.00,309.50 L143.00,306.50 L131.50,294.00 L124.50,278.00Z M228.50,269.00 L231.00,268.50 L236.00,271.50 L239.00,271.50 L244.00,273.50 L263.00,273.50 L264.00,272.50 L268.00,272.50 L278.00,268.50 L278.50,276.00 L277.50,277.00 L277.50,280.00 L275.50,283.00 L275.50,285.00 L271.50,293.00 L265.50,301.00 L257.00,308.50 L243.00,315.50 L235.00,316.50 L234.00,317.50 L221.00,317.50 L220.00,316.50 L216.00,316.50 L215.00,315.50 L207.00,313.50 L205.00,312.50 L204.50,311.00 L207.00,309.50 L220.50,295.00 L226.50,282.00Z M174.50,277.00 L175.50,277.00 L175.50,280.00 L176.50,281.00 L177.50,286.00 L181.50,294.00 L185.50,300.00 L193.00,307.50 L198.50,311.00 L197.00,312.50 L190.00,315.50 L182.00,316.50 L181.00,317.50 L169.00,317.50 L168.00,316.50 L164.00,316.50 L163.00,315.50 L157.00,314.50 L151.50,311.00 L158.00,306.50 L166.50,297.00 L172.50,286.00 L172.50,284.00 L174.50,280.00Z M148.50,313.00 L149.00,312.50 L156.00,316.50 L162.00,317.50 L163.00,318.50 L168.00,318.50 L169.00,319.50 L181.00,319.50 L182.00,318.50 L187.00,318.50 L191.00,316.50 L194.00,316.50 L201.00,312.50 L204.00,314.50 L206.00,314.50 L209.00,316.50 L215.00,317.50 L216.00,318.50 L233.50,320.00 L219.00,325.50 L213.00,326.50 L212.00,327.50 L208.00,327.50 L207.00,328.50 L203.00,328.50 L202.00,329.50 L197.00,329.50 L196.00,330.50 L189.00,330.50 L188.00,331.50 L162.00,331.50 L161.00,330.50 L154.00,330.50 L153.00,329.50 L148.00,329.50 L147.00,328.50 L138.00,327.50 L137.00,326.50 L131.00,325.50 L116.50,320.00 L134.00,318.50 L135.00,317.50 L141.00,316.50Z" fill="#000000" fill-rule="evenodd" stroke="none"/>
</svg>
