<svg xmlns="http://www.w3.org/2000/svg" viewBox="0 0 350 350">
  <path d="M148.50,34.00 L149.50,34.00 L149.00,35.50Z M221.50,46.00 L222.50,46.00 L222.00,47.50Z M184.50,65.00 L185.50,65.00 L185.00,66.50Z M247.50,76.00 L248.50,76.00 L248.00,77.50Z M157.50,85.00 L158.50,85.00 L158.00,86.50Z M225.50,90.00 L226.50,90.00 L226.00,91.50Z M105.50,91.00 L106.50,91.00 L106.00,92.50Z M194.50,100.00 L195.50,100.00 L195.00,101.50Z M275.50,115.00 L276.50,115.00 L276.00,116.50Z M241.50,117.00 L242.50,117.00 L242.00,118.50Z M253.50,132.00 L254.50,132.00 L254.00,133.50Z M116.50,133.00 L117.50,133.00 L117.00,134.50Z M231.50,139.00 L232.50,139.00 L232.00,140.50Z M175.50,142.00 L176.50,142.00 L176.00,143.50Z M251.50,150.00 L252.50,150.00 L252.00,151.50Z M165.50,153.00 L166.50,153.00 L166.00,154.50Z M156.50,155.00 L157.50,155.00 L157.00,156.50Z M173.50,155.00 L174.50,155.00 L174.00,156.50Z M89.50,160.00 L90.50,160.00 L90.00,161.50Z M148.50,161.00 L149.50,161.00 L149.00,162.50Z M128.50,171.00 L129.50,171.00 L129.00,172.50Z M223.50,180.00 L224.50,180.00 L224.00,181.50Z M273.50,185.00 L274.50,185.00 L274.00,186.50Z M250.50,188.00 L251.50,188.00 L251.00,189.50Z M119.50,193.00 L120.50,193.00 L120.00,194.50Z M198.50,208.00 L199.50,208.00 L199.00,209.50Z M101.50,245.00 L102.50,245.00 L102.00,246.50Z M147.50,266.00 L148.50,266.00 L148.00,267.50Z M196.50,292.00 L197.50,292.00 L197.00,293.50Z" fill="#000000" fill-rule="evenodd" stroke="none"/>
</svg>
