<svg xmlns="http://www.w3.org/2000/svg" viewBox="0 0 350 350">
  <path d="M137.50,12.00 L139.50,12.00 L136.00,13.50 L134.00,17.50 L133.50,16.00 L134.50,14.00Z M140.50,13.00 L141.00,12.50 L147.50,19.00 L148.00,21.50Z M132.50,19.00 L133.50,19.00 L133.00,22.50Z M149.50,25.00 L150.00,24.50 L151.50,26.00 L151.00,27.50Z M131.50,26.00 L132.50,26.00 L132.00,37.50Z M152.50,31.00 L153.00,30.50 L154.50,33.00 L154.00,34.50Z M154.50,36.00 L155.00,35.50 L156.50,38.00 L156.50,40.00 L159.50,47.00 L159.00,49.50Z M172.50,39.00 L173.50,39.00 L172.00,40.50 L171.50,40.00Z M176.50,39.00 L177.00,38.50 L178.50,40.00 L179.50,42.00 L179.00,43.50Z M132.50,41.00 L133.50,41.00 L133.00,47.50Z M169.50,44.00 L170.50,44.00 L170.00,45.50Z M272.50,44.00 L278.00,43.50 L280.50,46.00 L280.50,48.00 L279.50,48.00 L279.50,46.00 L278.00,44.50 L273.00,44.50 L271.00,45.50 L270.50,45.00Z M179.50,45.00 L180.50,45.00 L180.00,46.50Z M268.50,46.00 L269.50,46.00 L268.00,47.50 L260.00,52.50 L239.00,73.50 L238.50,73.00 L251.00,59.50 L252.00,59.50 L260.00,51.50Z M168.50,47.00 L169.50,47.00 L169.00,48.50Z M180.50,48.00 L181.50,48.00 L181.00,49.50Z M121.50,49.00 L122.50,49.00 L121.00,51.50 L120.50,50.00Z M124.50,49.00 L126.00,48.50 L134.00,57.50 L135.00,56.50 L135.50,57.00 L135.50,60.00 L137.50,63.00 L136.00,65.50 L134.50,59.00 L131.50,55.00Z M223.50,49.00 L225.50,49.00 L224.00,49.50 L217.50,56.00 L214.00,61.50 L213.50,61.00 L216.50,56.00Z M133.50,50.00 L134.50,50.00 L134.00,54.50Z M279.50,50.00 L280.50,50.00 L280.00,53.50Z M159.50,51.00 L160.50,51.00 L160.00,52.50Z M167.50,51.00 L168.50,51.00 L168.00,53.50Z M228.50,51.00 L229.50,51.00 L229.00,54.50Z M181.50,52.00 L182.50,52.00 L182.00,55.50Z M160.50,54.00 L161.50,54.00 L161.00,56.50Z M278.50,55.00 L279.50,55.00 L279.50,57.00 L278.00,59.50 L277.50,58.00 L278.50,57.00Z M166.50,56.00 L167.50,56.00 L167.00,60.50Z M228.50,56.00 L229.50,56.00 L229.00,62.50Z M161.50,58.00 L162.50,58.00 L162.00,60.50Z M182.50,58.00 L183.50,58.00 L183.00,62.50Z M120.50,59.00 L121.50,59.00 L121.00,63.50Z M276.50,61.00 L277.00,60.50 L277.50,62.00 L273.00,69.50 L272.50,69.00Z M162.50,62.00 L163.50,62.00 L163.00,64.50Z M212.50,63.00 L213.50,63.00 L211.00,66.50 L210.50,66.00Z M165.50,64.00 L166.50,64.00 L166.50,72.00 L165.00,73.50 L164.50,71.00 L165.50,70.00Z M227.50,64.00 L228.50,64.00 L228.00,66.50Z M121.50,65.00 L122.50,65.00 L122.00,68.50Z M137.50,65.00 L138.00,64.50 L139.50,66.00 L142.50,72.00 L142.00,72.50Z M163.50,66.00 L164.50,66.00 L164.00,69.50Z M183.50,66.00 L184.50,66.00 L184.00,79.50Z M136.50,67.00 L137.50,67.00 L137.00,70.50Z M226.50,69.00 L227.50,69.00 L227.00,70.50Z M122.50,70.00 L123.50,70.00 L123.00,71.50Z M191.50,70.00 L194.00,69.50 L195.50,72.00 L195.00,72.50 L194.00,70.50 L192.00,70.50 L188.00,77.50 L187.50,76.00Z M208.50,70.00 L209.50,70.00 L206.00,76.50 L205.50,75.00Z M271.50,71.00 L272.50,71.00 L270.50,75.00 L262.00,86.50 L261.50,86.00 L266.50,79.00 L265.50,78.00 L269.50,75.00Z M137.50,72.00 L138.50,72.00 L138.00,74.50Z M225.50,72.00 L226.50,72.00 L226.00,74.50Z M123.50,73.00 L124.50,73.00 L124.00,75.50Z M142.50,74.00 L143.50,74.00 L147.50,82.00 L147.00,83.50Z M195.50,74.00 L196.50,74.00 L196.00,92.50Z M165.50,75.00 L166.50,75.00 L166.00,78.50Z M237.50,75.00 L238.50,75.00 L234.00,79.50 L233.50,79.00Z M138.50,76.00 L139.50,76.00 L139.00,78.50Z M224.50,76.00 L225.50,76.00 L225.00,77.50Z M124.50,77.00 L125.50,77.00 L125.00,78.50Z M78.50,78.00 L79.50,78.00 L78.00,79.50 L77.50,79.00Z M81.50,78.00 L84.00,77.50 L91.50,82.00 L91.00,82.50 L84.00,78.50Z M270.50,78.00 L271.00,77.50 L272.50,79.00 L272.00,83.50 L271.50,79.00Z M186.50,79.00 L187.00,78.50 L187.50,80.00 L185.00,86.50 L184.50,84.00Z M223.50,79.00 L224.50,79.00 L224.00,80.50Z M125.50,80.00 L126.50,80.00 L126.00,81.50Z M139.50,80.00 L140.50,80.00 L140.00,82.50Z M166.50,81.00 L167.50,81.00 L167.00,84.50Z M232.50,81.00 L233.50,81.00 L224.00,92.50 L223.50,92.00 L225.50,89.00Z M259.50,81.00 L260.50,81.00 L259.00,82.50 L255.00,84.50 L248.00,90.50 L247.50,90.00 L251.00,86.50Z M77.50,82.00 L78.50,82.00 L78.50,84.00 L82.50,91.00 L82.00,91.50 L77.50,84.00Z M121.50,82.00 L122.50,82.00 L121.00,84.50 L120.50,83.00Z M164.50,82.00 L165.50,82.00 L165.00,91.50Z M202.50,82.00 L203.00,81.50 L203.50,83.00 L201.00,87.50 L200.50,86.00Z M222.50,82.00 L223.50,82.00 L223.00,83.50Z M92.50,83.00 L93.00,82.50 L94.50,84.00 L94.00,84.50Z M126.50,83.00 L127.50,83.00 L127.50,85.00 L135.50,94.00 L137.50,97.00 L137.00,97.50 L131.50,90.00 L130.00,88.50 L129.00,89.50 L128.50,89.00 L127.50,86.00 L125.50,84.00Z M140.50,84.00 L141.50,84.00 L141.00,86.50Z M95.50,85.00 L96.00,84.50 L98.50,87.00 L98.00,87.50Z M221.50,85.00 L222.50,85.00 L222.00,86.50Z M120.50,86.00 L121.50,86.00 L121.00,89.50Z M167.50,86.00 L168.50,86.00 L168.00,90.50Z M148.50,87.00 L149.00,86.50 L150.50,89.00 L150.00,90.50Z M269.50,87.00 L270.00,86.50 L270.50,88.00 L269.00,89.50Z M99.50,88.00 L100.00,87.50 L104.00,91.50 L105.00,91.50 L115.50,102.00 L115.00,102.50Z M141.50,88.00 L142.50,88.00 L142.00,90.50Z M183.50,88.00 L184.50,88.00 L184.00,90.50Z M220.50,88.00 L221.00,87.50 L221.50,89.00 L220.00,91.50 L219.50,90.00Z M260.50,88.00 L261.50,88.00 L256.50,95.00 L248.00,104.50 L247.50,104.00Z M199.50,89.00 L200.00,88.50 L200.50,90.00 L199.00,92.50 L198.50,91.00Z M121.50,91.00 L122.50,91.00 L122.50,93.00 L123.50,94.00 L123.00,95.50 L121.50,93.00Z M129.50,91.00 L130.00,90.50 L131.50,93.00 L131.00,94.50Z M245.50,91.00 L246.50,91.00 L239.00,98.50 L238.50,98.00Z M267.50,91.00 L268.50,91.00 L267.00,92.50 L266.50,92.00Z M142.50,92.00 L143.50,92.00 L143.00,93.50Z M150.50,92.00 L151.00,91.50 L152.50,94.00 L152.00,95.50Z M168.50,92.00 L169.50,92.00 L169.00,96.50Z M182.50,92.00 L183.00,91.50 L184.50,94.00 L184.00,109.50 L183.50,95.00 L182.50,94.00Z M82.50,93.00 L83.00,92.50 L84.50,94.00 L84.00,94.50Z M218.50,93.00 L219.00,92.50 L219.50,94.00 L218.00,96.50 L217.50,95.00Z M197.50,94.00 L198.00,93.50 L198.50,95.00 L197.00,97.50 L196.50,96.00Z M222.50,94.00 L223.50,94.00 L212.50,109.00 L209.50,116.00 L207.50,117.00 L208.50,118.00 L206.50,118.00 L207.50,120.00 L207.00,120.50 L206.00,119.50 L205.00,120.50 L205.50,118.00 L211.50,110.00 L213.50,105.00 L215.50,104.00 L214.50,102.00 L216.50,98.00 L217.00,97.50 L218.00,99.50Z M265.50,94.00 L266.50,94.00 L265.00,95.50 L264.50,95.00Z M143.50,95.00 L144.50,95.00 L144.50,97.00 L145.50,98.00 L145.00,100.50Z M194.50,95.00 L195.50,95.00 L195.50,98.00 L196.50,99.00 L196.00,100.50 L194.50,100.00Z M84.50,96.00 L85.00,95.50 L87.50,98.00 L87.00,98.50Z M131.50,96.00 L132.00,95.50 L133.50,98.00 L133.00,99.50Z M181.50,96.00 L182.50,96.00 L182.00,98.50Z M123.50,97.00 L124.00,96.50 L125.50,99.00 L125.00,100.50Z M152.50,97.00 L153.50,97.00 L153.00,98.50Z M263.50,97.00 L264.50,97.00 L262.00,99.50 L261.50,99.00Z M137.50,99.00 L138.00,98.50 L139.50,100.00 L139.00,100.50Z M169.50,99.00 L170.50,99.00 L170.00,103.50Z M236.50,99.00 L237.50,99.00 L224.00,112.50 L223.50,112.00Z M87.50,100.00 L88.00,99.50 L92.50,104.00 L92.50,105.00 L102.50,115.00 L102.00,115.50Z M153.50,100.00 L154.00,99.50 L155.50,102.00 L155.00,103.50Z M216.50,100.00 L217.50,100.00 L217.00,101.50Z M25.50,101.00 L26.50,101.00 L25.00,102.50 L24.50,102.00Z M180.50,101.00 L181.50,101.00 L181.00,104.50Z M260.50,101.00 L261.50,101.00 L256.50,106.00 L257.50,107.00 L256.50,111.00 L250.50,119.00 L239.00,130.50 L238.00,130.50 L227.00,140.50 L226.50,140.00 L238.00,129.50 L239.00,129.50 L253.50,114.00 L256.50,109.00 L256.00,107.50 L231.00,132.50 L230.50,132.00 L255.50,107.00 L249.50,107.00 L252.00,105.50 L256.00,105.50Z M139.50,102.00 L140.00,101.50 L141.50,103.00 L141.00,103.50Z M145.50,102.00 L146.50,102.00 L146.00,103.50Z M165.50,102.00 L166.50,102.00 L166.00,113.50Z M194.50,102.00 L195.00,101.50 L195.50,103.00 L193.50,107.00 L193.00,112.50 L191.50,110.00Z M49.50,103.00 L52.00,102.50 L60.50,106.00 L59.00,106.50Z M134.50,103.00 L135.00,102.50 L136.50,105.00 L136.00,106.50Z M118.50,105.00 L119.00,104.50 L120.50,106.00 L120.00,106.50Z M141.50,105.00 L142.00,104.50 L143.50,106.00 L144.00,108.50Z M146.50,105.00 L147.50,105.00 L147.00,106.50Z M155.50,105.00 L156.50,105.00 L156.00,106.50Z M24.50,106.00 L25.50,106.00 L26.50,109.00 L37.00,119.50 L38.00,119.50 L40.50,122.00 L40.00,122.50 L29.50,114.00 L29.50,113.00 L25.50,109.00Z M127.50,106.00 L128.50,106.00 L129.00,108.50Z M170.50,106.00 L171.50,106.00 L171.00,111.50Z M179.50,106.00 L180.50,106.00 L180.00,109.50Z M246.50,106.00 L247.50,106.00 L245.50,108.00 L248.50,108.00 L244.00,110.50 L211.00,144.50 L210.00,144.50 L192.50,161.00 L194.00,162.50 L197.00,158.50 L199.00,159.50 L199.50,159.00 L198.50,158.00 L201.00,155.50 L201.50,156.00 L199.50,158.00 L201.00,158.50 L225.00,140.50 L225.50,141.00 L218.50,147.00 L220.00,147.50 L239.00,137.50 L240.00,137.50 L240.00,138.50 L218.00,149.50 L217.50,149.00 L218.50,148.00 L217.00,147.50 L215.50,149.00 L216.50,150.00 L216.00,150.50 L215.00,149.50 L213.00,152.50 L206.00,155.50 L195.00,163.50 L192.00,164.50 L187.00,168.50 L178.50,173.00 L181.00,173.50 L182.00,172.50 L191.00,171.50 L192.00,170.50 L195.00,170.50 L196.00,169.50 L199.00,169.50 L204.00,167.50 L206.00,167.50 L207.00,169.50 L208.00,166.50 L212.00,167.50 L214.50,170.00 L207.00,170.50 L206.00,169.50 L204.00,171.50 L197.00,171.50 L196.00,172.50 L183.00,173.50 L182.00,174.50 L178.00,174.50 L177.50,176.00 L183.00,175.50 L184.00,176.50 L190.00,176.50 L191.00,177.50 L206.00,178.50 L207.50,180.00 L207.50,182.00 L205.00,182.50 L204.00,181.50 L201.00,181.50 L200.00,180.50 L197.00,180.50 L192.00,178.50 L188.00,178.50 L187.00,177.50 L183.00,177.50 L182.00,176.50 L179.50,177.00 L186.00,181.50 L189.00,182.50 L200.00,190.50 L208.00,194.50 L211.00,196.50 L212.00,198.50 L213.00,197.50 L220.50,202.00 L217.50,202.00 L225.00,207.50 L229.50,212.00 L229.00,212.50 L225.00,208.50 L203.00,192.50 L200.00,191.50 L200.00,193.50 L197.50,191.00 L198.50,190.00 L198.00,189.50 L196.00,190.50 L193.00,186.50 L191.50,188.00 L206.00,201.50 L207.00,201.50 L235.50,230.00 L235.50,231.00 L243.50,239.00 L244.00,240.50 L245.00,239.50 L251.50,243.00 L250.00,243.50 L247.00,241.50 L245.50,242.00 L253.50,251.00 L256.50,255.00 L256.00,255.50 L242.00,238.50 L238.00,236.50 L226.00,226.50 L225.00,226.50 L219.00,220.50 L218.00,220.50 L206.00,208.50 L205.00,208.50 L186.00,188.50 L185.50,190.00 L187.50,192.00 L186.00,192.50 L183.00,188.50 L182.00,189.50 L181.00,188.50 L180.00,190.50 L180.00,186.50 L178.50,188.00 L178.50,192.00 L179.50,193.00 L179.00,195.50 L177.50,194.00 L177.50,189.00 L176.50,188.00 L176.50,184.00 L177.50,183.00 L177.00,181.50 L175.50,183.00 L175.00,196.50 L174.50,182.00 L173.00,180.50 L172.50,182.00 L173.50,183.00 L173.50,186.00 L172.50,187.00 L171.50,198.00 L169.50,198.00 L170.50,192.00 L171.50,191.00 L171.50,187.00 L171.00,186.50 L170.50,188.00 L168.50,189.00 L169.50,191.00 L168.00,193.50 L166.50,192.00 L168.50,191.00 L167.50,190.00 L168.50,188.00 L168.00,186.50 L164.50,191.00 L163.50,194.00 L160.50,196.00 L161.50,197.00 L160.50,199.00 L159.00,200.50 L158.00,199.50 L156.00,201.50 L154.50,200.00 L159.50,193.00 L164.50,189.00 L163.50,188.00 L170.50,180.00 L169.00,179.50 L157.00,189.50 L154.00,191.50 L153.00,190.50 L150.00,194.50 L136.00,203.50 L125.00,213.50 L124.50,213.00 L126.50,211.00 L126.00,210.50 L121.00,213.50 L120.50,213.00 L122.00,211.50 L127.00,208.50 L128.00,209.50 L130.00,206.50 L137.00,202.50 L145.00,195.50 L146.00,195.50 L148.50,193.00 L147.00,192.50 L146.00,193.50 L145.50,193.00 L147.00,191.50 L149.00,190.50 L149.50,191.00 L148.50,192.00 L150.00,193.50 L150.50,193.00 L151.50,191.00 L150.50,190.00 L151.50,189.00 L151.00,188.50 L141.00,193.50 L140.00,193.50 L140.00,192.50 L160.00,182.50 L161.00,183.50 L162.00,181.50 L163.00,182.50 L165.00,179.50 L170.00,177.50 L170.00,176.50 L160.00,178.50 L159.00,179.50 L156.00,179.50 L155.00,180.50 L152.00,180.50 L144.00,183.50 L142.00,182.50 L141.00,184.50 L139.00,184.50 L138.00,183.50 L137.00,185.50 L135.00,184.50 L134.00,186.50 L131.00,185.50 L131.00,187.50 L129.00,187.50 L113.00,193.50 L109.00,192.50 L108.50,193.00 L110.00,193.50 L110.00,194.50 L106.00,193.50 L105.50,194.00 L107.50,195.00 L105.00,196.50 L103.00,195.50 L100.50,196.00 L102.00,196.50 L102.00,197.50 L98.00,196.50 L97.50,197.00 L99.50,198.00 L97.00,199.50 L93.00,198.50 L92.50,199.00 L94.50,200.00 L92.00,201.50 L89.00,200.50 L89.00,199.50 L100.00,194.50 L102.00,194.50 L105.00,192.50 L107.00,192.50 L126.00,185.50 L129.00,185.50 L133.00,183.50 L144.00,181.50 L144.50,181.00 L143.00,180.50 L143.00,179.50 L147.00,179.50 L148.00,180.50 L150.00,178.50 L161.00,177.50 L162.00,176.50 L166.00,176.50 L167.00,175.50 L171.00,175.50 L172.00,176.50 L172.50,175.00 L169.00,174.50 L168.00,173.50 L158.00,172.50 L157.00,171.50 L151.00,171.50 L149.00,169.50 L148.00,170.50 L144.00,170.50 L143.50,170.00 L145.00,169.50 L145.00,168.50 L137.00,169.50 L137.00,168.50 L141.00,168.50 L141.00,167.50 L130.00,165.50 L129.00,164.50 L127.00,164.50 L123.00,162.50 L120.00,162.50 L119.00,161.50 L111.00,159.50 L108.00,157.50 L103.00,156.50 L74.00,143.50 L73.50,143.00 L75.50,142.00 L75.00,140.50 L72.00,142.50 L66.00,139.50 L64.00,136.50 L63.00,137.50 L59.50,135.00 L60.00,133.50 L61.00,135.50 L62.00,134.50 L73.00,140.50 L75.00,139.50 L78.00,142.50 L85.00,145.50 L85.00,147.50 L87.00,146.50 L90.00,147.50 L90.50,148.00 L88.50,149.00 L91.00,150.50 L95.00,149.50 L97.50,151.00 L96.00,151.50 L96.00,152.50 L100.00,151.50 L100.50,152.00 L99.00,152.50 L99.00,153.50 L101.00,153.50 L102.00,152.50 L105.00,153.50 L105.50,154.00 L104.00,154.50 L104.00,155.50 L108.00,154.50 L108.50,155.00 L107.00,155.50 L107.00,156.50 L111.00,155.50 L116.00,157.50 L116.00,159.50 L119.00,158.50 L119.00,160.50 L121.00,159.50 L122.50,160.00 L121.50,161.00 L122.00,161.50 L125.00,160.50 L125.00,162.50 L129.00,161.50 L130.00,162.50 L135.00,163.50 L136.00,165.50 L138.00,164.50 L139.00,166.50 L140.00,165.50 L142.00,165.50 L146.00,167.50 L149.00,167.50 L153.00,169.50 L156.00,169.50 L157.00,170.50 L160.00,170.50 L161.00,171.50 L164.00,171.50 L165.00,172.50 L170.00,173.50 L170.50,173.00 L169.00,171.50 L158.00,166.50 L156.50,165.00 L157.50,164.00 L157.00,162.50 L155.00,164.50 L155.00,162.50 L153.00,163.50 L153.00,158.50 L151.00,160.50 L149.00,159.50 L147.50,158.00 L150.50,158.00 L149.00,155.50 L148.00,156.50 L140.00,149.50 L132.00,144.50 L130.00,141.50 L129.00,142.50 L122.50,138.00 L125.50,138.00 L122.50,135.00 L123.00,134.50 L129.00,141.50 L130.00,140.50 L135.00,145.50 L156.00,159.50 L168.00,169.50 L169.50,169.00 L154.50,150.00 L152.50,147.00 L153.50,146.00 L149.50,143.00 L143.50,133.00 L134.50,123.00 L136.50,123.00 L136.00,120.50 L138.50,124.00 L137.50,125.00 L140.50,127.00 L142.50,131.00 L149.50,139.00 L148.50,140.00 L150.00,140.50 L156.50,148.00 L155.50,150.00 L156.00,150.50 L157.00,149.50 L158.00,150.50 L158.00,147.50 L159.50,149.00 L160.50,151.00 L158.50,154.00 L159.00,154.50 L161.00,152.50 L163.50,156.00 L162.50,157.00 L165.50,159.00 L168.00,163.50 L168.50,162.00 L170.00,161.50 L171.50,164.00 L171.50,166.00 L172.50,166.00 L172.50,163.00 L171.50,162.00 L171.50,159.00 L169.50,154.00 L169.50,152.00 L171.00,150.50 L171.50,151.00 L171.50,157.00 L172.50,158.00 L172.50,162.00 L173.50,163.00 L173.50,167.00 L172.50,168.00 L174.00,168.50 L175.00,153.50 L175.50,167.00 L177.00,167.50 L176.50,162.00 L177.50,161.00 L177.50,156.00 L179.00,154.50 L179.00,161.50 L181.50,153.00 L182.50,153.00 L182.50,155.00 L180.50,159.00 L181.00,161.50 L183.50,156.00 L185.00,154.50 L185.50,155.00 L182.50,160.00 L183.00,161.50 L185.50,157.00 L188.50,155.00 L187.50,154.00 L188.50,152.00 L190.00,150.50 L191.00,151.50 L192.00,150.50 L192.50,151.00 L188.50,154.00 L189.50,155.00 L184.50,161.00 L185.00,162.50 L210.00,136.50 L211.00,136.50 L226.00,122.50 L226.50,123.00 L211.00,137.50 L210.00,137.50 L193.50,154.00 L193.50,155.00 L183.50,165.00 L183.50,166.00 L185.00,166.50 L198.00,154.50 L199.00,154.50 L210.00,143.50 L211.00,143.50 L230.50,124.00 L230.50,123.00 L236.50,117.00 L235.00,116.50 L228.00,122.50 L227.50,122.00 L231.00,118.50 L238.00,113.50 L239.00,114.50 L239.50,113.00Z M64.50,108.00 L66.00,107.50 L68.50,109.00 L67.00,109.50Z M147.50,108.00 L148.50,108.00 L148.00,109.50Z M156.50,108.00 L157.50,108.00 L157.00,109.50Z M121.50,109.00 L122.00,108.50 L134.50,121.00 L134.00,121.50Z M69.50,110.00 L71.00,109.50 L75.50,112.00 L74.00,112.50Z M144.50,110.00 L145.00,109.50 L146.50,111.00 L148.50,115.00 L148.00,115.50Z M148.50,111.00 L149.50,111.00 L149.00,112.50Z M157.50,111.00 L158.50,111.00 L158.00,112.50Z M178.50,112.00 L179.50,112.00 L179.00,116.50Z M190.50,113.00 L191.00,112.50 L192.50,114.00 L192.00,117.50Z M131.50,114.00 L132.00,113.50 L133.50,115.00 L135.50,119.00 L135.00,119.50Z M139.50,114.00 L140.50,114.00 L146.50,126.00 L146.00,126.50 L144.50,125.00Z M149.50,114.00 L150.50,114.00 L150.00,115.50Z M158.50,114.00 L159.50,114.00 L159.00,115.50Z M182.50,114.00 L183.50,114.00 L183.00,122.50Z M222.50,114.00 L223.50,114.00 L214.00,123.50 L213.50,123.00Z M80.50,115.00 L82.00,114.50 L95.50,122.00 L95.00,122.50Z M171.50,115.00 L172.50,115.00 L172.00,121.50Z M189.50,116.00 L190.50,116.00 L190.00,117.50Z M148.50,117.00 L151.50,117.00 L150.50,119.00 L152.00,119.50 L153.50,122.00 L154.50,127.00 L160.50,138.00 L160.00,139.50 L158.50,139.00 L157.50,135.00 L155.50,132.00 L155.50,130.00Z M159.50,117.00 L160.50,117.00 L160.00,118.50Z M166.50,117.00 L167.50,117.00 L167.00,124.50Z M104.50,119.00 L105.00,118.50 L106.50,120.00 L106.00,120.50Z M177.50,119.00 L178.50,119.00 L178.00,124.50Z M188.50,119.00 L189.50,119.00 L189.00,120.50Z M190.50,119.00 L191.50,119.00 L191.00,121.50Z M160.50,120.00 L161.50,120.00 L161.00,121.50Z M49.50,121.00 L51.50,121.00 L49.00,122.50 L48.50,122.00Z M297.50,121.00 L300.00,120.50 L301.50,122.00 L301.50,125.00 L300.50,127.00 L293.00,133.50 L292.50,133.00 L296.00,130.50 L300.50,125.00 L300.50,122.00Z M108.50,122.00 L109.00,121.50 L121.50,134.00 L121.00,134.50Z M187.50,122.00 L188.50,122.00 L188.00,123.50Z M203.50,122.00 L204.50,122.00 L203.50,124.00 L196.00,135.50 L195.50,135.00 L197.50,131.00Z M41.50,123.00 L42.00,122.50 L43.50,124.00 L43.00,124.50Z M161.50,123.00 L162.50,123.00 L162.00,124.50Z M189.50,123.00 L190.50,123.00 L190.00,126.50Z M98.50,124.00 L99.00,123.50 L106.50,128.00 L106.00,128.50Z M44.50,125.00 L45.00,124.50 L46.50,126.00 L46.00,126.50Z M48.50,125.00 L49.00,124.50 L54.00,130.50 L57.00,131.50 L58.50,134.00 L58.00,134.50 L52.00,129.50 L49.00,128.50 L47.50,127.00Z M172.50,125.00 L173.50,125.00 L173.00,133.50Z M186.50,125.00 L187.50,125.00 L187.00,127.50Z M212.50,125.00 L213.50,125.00 L204.00,135.50 L203.50,135.00 L207.50,131.00 L207.50,130.00Z M162.50,126.00 L163.50,126.00 L163.00,128.50Z M181.50,126.00 L182.50,126.00 L182.00,131.50Z M203.50,126.00 L204.50,126.00 L199.00,135.50 L198.50,135.00Z M176.50,127.00 L177.50,127.00 L177.00,134.50Z M85.50,128.00 L87.00,127.50 L89.50,129.00 L88.00,129.50Z M167.50,128.00 L168.50,128.00 L168.00,133.50Z M188.50,128.00 L189.50,128.00 L189.00,130.50Z M107.50,129.00 L108.00,128.50 L112.00,130.50 L121.50,137.00 L119.00,136.50Z M185.50,129.00 L186.50,129.00 L186.00,130.50Z M259.50,129.00 L261.00,128.50 L261.00,129.50 L259.00,130.50 L257.50,130.00Z M90.50,130.00 L92.00,129.50 L94.50,131.00 L93.00,131.50Z M163.50,130.00 L164.50,130.00 L164.00,131.50Z M254.50,131.00 L256.00,130.50 L256.00,131.50 L254.00,132.50 L252.50,132.00Z M95.50,132.00 L97.00,131.50 L99.50,133.00 L98.00,133.50Z M184.50,132.00 L185.50,132.00 L185.00,134.50Z M187.50,132.00 L188.50,132.00 L188.00,134.50Z M164.50,133.00 L165.50,133.00 L165.00,135.50Z M228.50,133.00 L229.50,133.00 L223.00,139.50 L222.00,139.50 L217.00,144.50 L216.50,144.00Z M149.50,134.00 L150.00,133.50 L151.50,135.00 L153.50,139.00 L153.00,139.50Z M247.50,134.00 L249.00,133.50 L249.00,134.50 L247.00,135.50 L245.50,135.00Z M290.50,134.00 L291.50,134.00 L290.00,135.50 L289.50,135.00Z M102.50,135.00 L104.00,134.50 L108.50,137.00 L107.00,137.50Z M180.50,135.00 L181.50,135.00 L181.00,139.50Z M183.50,136.00 L184.50,136.00 L184.00,137.50Z M186.50,136.00 L187.50,136.00 L187.00,137.50Z M287.50,136.00 L288.50,136.00 L287.00,137.50 L284.50,138.00Z M75.50,137.00 L85.50,137.00 L76.00,137.50 L75.00,138.50 L74.50,138.00Z M165.50,137.00 L166.50,137.00 L166.00,138.50Z M168.50,137.00 L169.50,137.00 L169.00,141.50Z M173.50,137.00 L174.50,137.00 L174.00,150.50Z M194.50,137.00 L195.50,137.00 L192.00,142.50 L191.50,142.00Z M202.50,137.00 L203.50,137.00 L200.00,140.50 L199.50,140.00Z M175.50,138.00 L176.50,138.00 L176.00,148.50Z M182.50,139.00 L183.50,139.00 L183.00,141.50Z M185.50,139.00 L186.50,139.00 L186.00,141.50Z M196.50,139.00 L197.50,139.00 L195.00,142.50 L194.50,142.00Z M282.50,139.00 L283.50,139.00 L282.00,140.50 L272.00,145.50 L270.50,145.00Z M95.50,140.00 L98.00,139.50 L101.50,141.00 L99.00,141.50Z M113.50,140.00 L115.00,139.50 L126.50,146.00 L126.00,146.50Z M166.50,140.00 L167.50,140.00 L167.00,142.50Z M159.50,141.00 L161.50,141.00 L160.50,142.00 L162.50,143.00 L164.50,147.00 L163.50,149.00 L165.50,150.00 L164.00,151.50 L161.50,147.00 L162.50,145.00 L160.50,144.00Z M198.50,142.00 L199.50,142.00 L193.00,149.50 L192.00,148.50 L191.00,149.50 L190.50,149.00 L193.00,145.50 L193.00,148.50Z M154.50,143.00 L155.00,142.50 L156.50,144.00 L157.00,146.50Z M179.50,143.00 L180.50,143.00 L180.50,146.00 L181.50,147.00 L181.00,149.50 L179.50,147.00Z M181.50,143.00 L182.50,143.00 L182.00,145.50Z M184.50,143.00 L185.50,143.00 L185.50,145.00 L184.00,148.50 L183.50,146.00 L184.50,145.00Z M167.50,144.00 L168.50,144.00 L168.00,146.50Z M169.50,144.00 L170.50,144.00 L170.50,148.00 L169.00,150.50 L168.50,148.00 L169.50,147.00Z M190.50,144.00 L191.50,144.00 L187.00,151.50 L186.50,151.00Z M111.50,145.00 L113.00,144.50 L115.50,146.00 L114.00,146.50Z M214.50,145.00 L215.50,145.00 L212.00,148.50 L211.50,148.00Z M119.50,148.00 L121.00,147.50 L123.50,149.00 L122.00,149.50Z M263.50,148.00 L265.00,147.50 L265.00,148.50 L263.00,149.50 L261.50,149.00Z M209.50,149.00 L210.50,149.00 L207.00,152.50 L206.50,152.00Z M133.50,150.00 L134.00,149.50 L139.50,153.00 L139.00,153.50Z M178.50,150.00 L179.00,149.50 L180.50,151.00 L180.00,153.50 L178.50,153.00Z M182.50,150.00 L183.50,150.00 L183.00,151.50Z M126.50,151.00 L128.00,150.50 L130.50,152.00 L129.00,152.50Z M165.50,152.00 L166.00,151.50 L167.50,154.00 L166.50,156.00 L168.50,157.00 L169.50,159.00 L169.00,160.50 L167.50,160.00 L168.50,159.00 L166.50,158.00 L164.50,154.00Z M253.50,152.00 L255.00,151.50 L255.00,152.50 L253.00,153.50 L251.50,153.00Z M204.50,153.00 L205.50,153.00 L203.00,155.50 L202.50,155.00Z M133.50,154.00 L135.00,153.50 L143.50,158.00 L142.00,158.50Z M248.50,154.00 L250.00,153.50 L250.00,154.50 L248.00,155.50 L246.50,155.00Z M142.50,155.00 L143.00,154.50 L146.50,157.00 L146.00,157.50Z M177.50,162.00 L178.50,162.00 L178.00,164.50Z M179.50,162.00 L180.50,162.00 L180.00,163.50Z M181.50,162.00 L182.50,162.00 L182.00,163.50Z M224.50,162.00 L227.00,161.50 L227.00,162.50 L225.00,162.50 L224.00,163.50 L221.50,163.00Z M168.50,164.00 L169.50,164.00 L169.00,165.50Z M211.50,166.00 L213.00,165.50 L214.00,166.50 L218.00,166.50 L223.00,168.50 L229.50,169.00 L218.00,169.50Z M220.50,166.00 L225.00,165.50 L226.00,166.50 L232.50,167.00 L226.00,167.50 L225.00,166.50Z M326.50,166.00 L329.00,165.50 L334.50,168.00 L333.00,168.50Z M304.50,170.00 L306.00,169.50 L310.00,171.50 L311.50,174.00 L311.00,174.50 L310.00,172.50Z M337.50,170.00 L338.00,169.50 L341.50,173.00 L341.00,173.50Z M39.50,172.00 L40.50,172.00 L39.00,173.50 L38.50,173.00Z M277.50,172.00 L279.00,171.50 L281.50,174.00 L281.00,174.50Z M280.50,176.00 L281.50,176.00 L280.00,177.50 L278.00,178.50 L276.50,178.00Z M310.50,176.00 L311.50,176.00 L308.00,179.50 L306.50,179.00Z M340.50,176.00 L341.00,175.50 L341.50,177.00 L338.00,180.50 L334.00,182.50 L332.50,182.00 L338.00,179.50Z M40.50,178.00 L41.00,177.50 L43.50,179.00 L42.00,179.50Z M209.50,180.00 L217.50,180.00 L210.00,183.50 L208.50,183.00 L209.50,182.00Z M220.50,181.00 L235.50,181.00 L225.00,181.50 L220.00,183.50 L215.50,183.00Z M181.50,182.00 L183.00,181.50 L188.00,186.50 L190.00,185.50 L190.50,186.00 L189.50,187.00 L206.00,202.50 L207.00,202.50 L234.50,230.00 L235.50,232.00 L234.00,232.50 L226.00,225.50 L225.00,225.50 L219.00,219.50 L218.00,219.50 L185.50,187.00 L185.50,186.00Z M169.50,183.00 L170.00,182.50 L172.50,184.00 L172.00,186.50Z M227.50,183.00 L236.50,183.00 L228.00,183.50 L227.00,184.50 L222.50,184.00Z M168.50,185.00 L169.50,185.00 L169.00,186.50Z M177.50,185.00 L179.50,185.00 L178.00,187.50Z M180.50,185.00 L181.50,185.00 L181.00,186.50Z M182.50,185.00 L183.00,184.50 L184.50,186.00 L184.00,187.50Z M153.50,187.00 L155.00,186.50 L155.50,188.00 L155.00,188.50Z M181.50,187.00 L182.50,187.00 L182.00,188.50Z M225.50,188.00 L228.00,187.50 L231.50,189.00 L229.00,189.50Z M153.50,189.00 L154.50,189.00 L154.00,190.50Z M180.50,192.00 L181.50,192.00 L181.50,194.00 L183.50,198.00 L183.00,200.50Z M160.50,193.00 L161.00,192.50 L162.50,194.00 L161.00,194.50Z M241.50,193.00 L243.00,192.50 L245.50,194.00 L244.00,194.50Z M165.50,194.00 L166.00,193.50 L167.50,196.00 L165.00,200.50 L163.50,198.00Z M186.50,194.00 L188.00,193.50 L190.50,196.00 L189.00,197.50Z M201.50,194.00 L202.00,193.50 L204.50,196.00 L204.00,196.50Z M134.50,195.00 L136.00,194.50 L136.00,195.50 L130.00,198.50 L128.50,198.00Z M141.50,195.00 L142.50,195.00 L141.00,196.50 L138.50,197.00Z M184.50,195.00 L185.00,194.50 L186.50,196.00 L190.50,204.00 L190.00,204.50Z M157.50,197.00 L158.00,196.50 L159.50,198.00 L159.00,199.50Z M178.50,197.00 L180.50,197.00 L180.50,199.00 L179.00,200.50Z M205.50,197.00 L206.00,196.50 L209.50,200.00 L209.00,200.50Z M190.50,198.00 L191.00,197.50 L193.50,200.00 L191.50,200.00 L192.00,202.50 L189.50,199.00Z M125.50,199.00 L127.00,198.50 L127.00,199.50 L125.00,200.50 L123.50,200.00Z M134.50,199.00 L135.50,199.00 L134.00,200.50 L126.00,204.50 L125.50,204.00Z M173.50,199.00 L174.50,199.00 L174.00,212.50Z M168.50,200.00 L169.00,199.50 L170.50,201.00 L170.00,205.50Z M85.50,201.00 L87.00,200.50 L87.50,201.00 L85.50,202.00 L87.50,203.00 L85.00,204.50 L83.00,203.50 L82.00,205.50 L81.50,203.00Z M120.50,201.00 L122.00,200.50 L122.00,201.50 L120.00,202.50 L118.50,202.00Z M162.50,201.00 L163.00,200.50 L164.50,203.00 L161.50,209.00 L159.50,210.00 L160.50,211.00 L159.00,211.50 L158.50,210.00 L159.50,208.00 L161.50,207.00 L160.50,206.00 L162.50,205.00 L161.50,204.00Z M180.50,201.00 L181.50,201.00 L181.50,203.00 L180.50,204.00 L180.00,207.50 L179.50,203.00Z M210.50,201.00 L211.00,200.50 L214.50,204.00 L214.00,204.50Z M153.50,202.00 L154.00,201.50 L155.50,203.00 L152.00,205.50 L151.50,206.00 L152.50,207.00 L149.00,210.50 L148.00,210.50 L147.50,210.00 L150.50,208.00 L149.50,207.00Z M157.50,202.00 L158.50,202.00 L156.00,205.50 L155.50,205.00Z M175.50,202.00 L176.50,202.00 L176.00,212.50Z M183.50,202.00 L184.50,202.00 L184.00,203.50Z M193.50,202.00 L194.00,201.50 L196.50,204.00 L196.00,204.50Z M264.50,202.00 L266.00,201.50 L270.50,204.00 L269.00,204.50Z M115.50,203.00 L117.00,202.50 L117.00,203.50 L115.00,204.50 L113.50,204.00Z M79.50,204.00 L80.50,204.00 L80.50,206.00 L77.00,207.50 L75.00,210.50 L73.00,209.50 L55.00,218.50 L49.00,225.50 L48.50,224.00 L47.00,223.50 L33.00,233.50 L28.50,238.00 L28.50,239.00 L26.00,241.50 L25.50,241.00 L27.50,238.00 L38.00,228.50 L50.00,220.50 L53.00,219.50 L59.00,214.50 L61.00,213.50 L62.00,214.50 L64.00,211.50 L66.00,210.50 L68.00,211.50 L68.50,211.00 L67.50,210.00 L70.00,210.50 L70.50,210.00 L69.50,209.00 L71.00,207.50 L75.00,205.50 L78.00,206.50 L78.50,206.00 L77.50,205.00 L78.00,204.50 L79.00,205.50Z M167.50,204.00 L168.50,204.00 L168.00,206.50Z M181.50,205.00 L182.50,205.00 L182.00,207.50Z M184.50,205.00 L185.50,205.00 L185.00,207.50Z M215.50,205.00 L216.00,204.50 L220.50,209.00 L220.00,209.50Z M190.50,206.00 L191.00,205.50 L192.50,207.00 L194.50,211.00 L194.00,211.50Z M193.50,206.00 L194.00,205.50 L195.50,207.00 L196.00,209.50Z M196.50,206.00 L197.00,205.50 L200.50,209.00 L200.00,209.50Z M166.50,208.00 L167.50,208.00 L167.00,210.50Z M114.50,209.00 L116.00,208.50 L116.00,209.50 L108.00,213.50 L106.50,213.00Z M153.50,209.00 L154.50,209.00 L151.00,214.50 L150.50,214.00Z M168.50,209.00 L169.50,209.00 L169.00,213.50Z M182.50,209.00 L183.50,209.00 L183.00,210.50Z M185.50,209.00 L186.50,209.00 L186.00,210.50Z M180.50,210.00 L181.50,210.00 L181.00,215.50Z M221.50,210.00 L222.00,209.50 L227.50,215.00 L227.00,215.50Z M281.50,210.00 L282.00,209.50 L287.50,213.00 L287.00,213.50Z M200.50,211.00 L201.00,210.50 L204.50,214.00 L204.00,214.50Z M146.50,212.00 L148.50,212.00 L141.50,220.00 L140.50,223.00 L133.00,234.50 L132.50,234.00 L136.50,227.00 L136.00,226.50 L133.00,229.50 L132.50,229.00 L143.50,217.00 L144.50,214.00Z M165.50,212.00 L166.50,212.00 L166.00,213.50Z M186.50,212.00 L187.50,212.00 L187.00,214.50Z M239.50,212.00 L241.00,211.50 L245.50,214.00 L244.00,214.50Z M157.50,213.00 L159.50,213.00 L154.50,223.00 L154.50,225.00 L152.00,230.50 L150.50,229.00 L155.50,220.00Z M183.50,213.00 L184.50,213.00 L184.00,214.50Z M194.50,213.00 L195.00,212.50 L196.50,214.00 L198.50,218.00 L198.00,218.50Z M197.50,213.00 L198.00,212.50 L199.50,214.00 L202.50,220.00 L202.00,220.50Z M230.50,213.00 L231.00,212.50 L236.00,217.50 L237.00,217.50 L252.50,233.00 L257.50,241.00 L257.00,244.50 L253.00,244.50 L253.00,243.50 L255.50,243.00 L247.50,235.00 L248.00,234.50 L256.00,242.50 L256.50,241.00 L251.50,233.00Z M118.50,214.00 L119.50,214.00 L115.00,217.50 L111.00,219.50 L110.50,219.00Z M122.50,214.00 L123.50,214.00 L115.00,222.50 L114.50,222.00Z M288.50,214.00 L289.00,213.50 L290.50,215.00 L290.00,215.50Z M101.50,215.00 L103.00,214.50 L103.00,215.50 L99.00,217.50 L97.50,217.00Z M164.50,215.00 L165.50,215.00 L165.00,217.50Z M167.50,216.00 L168.50,216.00 L168.00,222.50Z M176.50,216.00 L177.50,216.00 L177.00,222.50Z M184.50,216.00 L185.50,216.00 L185.00,218.50Z M187.50,216.00 L188.50,216.00 L188.00,218.50Z M204.50,216.00 L205.00,215.50 L209.50,220.00 L209.00,220.50Z M228.50,216.00 L229.00,215.50 L241.50,228.00 L241.00,228.50Z M248.50,216.00 L250.00,215.50 L252.50,217.00 L251.00,217.50Z M291.50,216.00 L292.00,215.50 L295.00,217.50 L300.50,223.00 L300.00,223.50Z M172.50,217.00 L173.50,217.00 L173.00,225.50Z M94.50,218.00 L96.00,217.50 L96.00,218.50 L94.00,219.50 L92.50,219.00Z M148.50,218.00 L149.50,218.00 L138.00,240.50 L137.50,239.00Z M163.50,219.00 L164.50,219.00 L164.00,220.50Z M181.50,219.00 L182.50,219.00 L182.00,224.50Z M89.50,220.00 L91.00,219.50 L91.00,220.50 L89.00,221.50 L87.50,221.00Z M108.50,220.00 L109.50,220.00 L108.00,221.50 L104.00,223.50 L103.50,223.00Z M185.50,220.00 L186.50,220.00 L186.00,221.50Z M188.50,220.00 L189.50,220.00 L189.00,222.50Z M198.50,220.00 L199.00,219.50 L200.50,221.00 L203.50,227.00 L205.00,228.50 L206.00,227.50 L206.50,228.00 L205.50,230.00 L207.50,230.00 L206.50,231.00 L208.50,232.00 L207.50,233.00 L209.00,233.50 L209.00,234.50 L206.50,233.00Z M162.50,222.00 L163.50,222.00 L163.50,224.00 L162.00,227.50 L161.50,225.00 L162.50,224.00Z M209.50,222.00 L210.00,221.50 L215.50,227.00 L215.00,227.50Z M186.50,223.00 L187.50,223.00 L187.00,224.50Z M266.50,223.00 L268.00,222.50 L271.50,224.00 L269.00,224.50Z M101.50,224.00 L102.50,224.00 L101.00,225.50 L91.00,230.50 L90.50,230.00Z M111.50,224.00 L112.50,224.00 L99.00,237.50 L98.50,237.00Z M189.50,224.00 L190.50,224.00 L190.00,226.50Z M300.50,225.00 L301.50,225.00 L301.00,228.50 L299.00,229.50 L295.50,229.00 L299.00,228.50 L300.50,227.00Z M166.50,226.00 L167.50,226.00 L167.00,232.50Z M177.50,226.00 L178.50,226.00 L178.00,231.50Z M187.50,226.00 L188.50,226.00 L188.50,228.00 L189.50,229.00 L189.00,231.50Z M182.50,228.00 L183.50,228.00 L183.00,235.50Z M190.50,228.00 L191.50,228.00 L191.00,231.50Z M160.50,229.00 L161.50,229.00 L161.00,230.50Z M171.50,229.00 L172.50,229.00 L172.00,235.50Z M215.50,229.00 L216.00,228.50 L227.50,240.00 L227.00,240.50Z M243.50,230.00 L244.00,229.50 L245.50,231.00 L245.00,231.50Z M131.50,231.00 L132.50,231.00 L107.00,256.50 L106.50,256.00Z M149.50,231.00 L150.00,230.50 L151.50,232.00 L151.00,233.50Z M159.50,232.00 L160.50,232.00 L160.00,233.50Z M148.50,233.00 L149.50,233.00 L146.00,238.50 L145.50,238.00Z M189.50,233.00 L190.50,233.00 L190.00,234.50Z M191.50,233.00 L192.50,233.00 L192.50,236.00 L191.00,237.50 L190.50,236.00 L191.50,235.00Z M81.50,234.00 L83.00,233.50 L83.00,234.50 L75.00,238.50 L73.50,238.00Z M178.50,234.00 L179.50,234.00 L179.00,238.50Z M149.50,235.00 L150.00,234.50 L150.50,236.00 L147.00,245.50 L146.50,243.00Z M158.50,235.00 L159.50,235.00 L159.00,236.50Z M208.50,236.00 L210.50,236.00 L212.50,241.00 L216.50,246.00 L215.00,247.50 L214.50,247.00 L215.50,246.00 L213.50,245.00 L211.50,240.00Z M165.50,237.00 L166.50,237.00 L166.00,248.50Z M130.50,238.00 L131.50,238.00 L126.00,248.50 L125.50,247.00Z M157.50,238.00 L158.50,238.00 L158.00,239.50Z M170.50,238.00 L171.50,238.00 L171.00,244.50Z M192.50,238.00 L193.50,238.00 L193.50,242.00 L195.50,247.00 L195.00,248.50 L193.50,247.00 L193.50,244.00 L191.50,240.00Z M70.50,239.00 L72.00,238.50 L72.00,239.50 L68.00,241.50 L66.50,241.00Z M97.50,239.00 L98.50,239.00 L91.00,246.50 L90.50,246.00Z M144.50,240.00 L145.50,240.00 L143.00,243.50 L142.50,243.00Z M179.50,240.00 L180.50,240.00 L180.00,244.50Z M156.50,241.00 L157.50,241.00 L157.00,242.50Z M183.50,241.00 L184.50,241.00 L184.50,256.00 L183.00,258.50Z M24.50,243.00 L25.50,243.00 L25.00,244.50Z M60.50,243.00 L62.00,242.50 L62.00,243.50 L60.00,244.50 L58.50,244.00Z M155.50,244.00 L156.50,244.00 L156.00,245.50Z M141.50,245.00 L142.50,245.00 L141.50,247.00 L135.00,255.50 L134.50,255.00Z M134.50,246.00 L135.00,245.50 L135.50,247.00 L134.00,249.50 L133.50,248.00Z M169.50,246.00 L170.50,246.00 L170.00,251.50Z M180.50,246.00 L181.50,246.00 L181.00,249.50Z M257.50,246.00 L258.00,245.50 L265.50,254.00 L271.50,264.00 L271.00,265.50 L264.50,254.00Z M24.50,247.00 L25.00,246.50 L25.50,248.00 L27.50,249.00 L26.00,249.50Z M145.50,247.00 L146.50,247.00 L146.00,248.50Z M154.50,247.00 L155.00,246.50 L155.50,248.00 L154.00,250.50 L153.50,249.00Z M89.50,248.00 L90.50,248.00 L81.00,260.50 L80.50,260.00 L83.50,255.00Z M216.50,248.00 L217.00,247.50 L219.50,250.00 L221.50,253.00 L221.00,253.50 L217.00,248.50 L216.50,250.00 L217.50,252.00 L216.50,252.00 L215.50,250.00Z M234.50,248.00 L235.00,247.50 L244.50,257.00 L244.00,257.50Z M144.50,250.00 L145.50,250.00 L145.00,251.50Z M194.50,250.00 L196.50,250.00 L195.00,255.50Z M181.50,251.00 L182.50,251.00 L182.00,254.50Z M123.50,252.00 L124.00,251.50 L124.50,253.00 L123.00,255.50 L122.50,254.00Z M152.50,252.00 L153.00,251.50 L153.50,253.00 L152.00,255.50 L151.50,254.00Z M131.50,253.00 L132.00,252.50 L132.50,254.00 L131.00,256.50 L130.50,255.00Z M143.50,253.00 L144.50,253.00 L144.50,255.00 L143.00,258.50 L142.50,256.00 L143.50,255.00Z M168.50,254.00 L169.50,254.00 L169.00,258.50Z M197.50,255.00 L198.50,255.00 L198.00,256.50Z M221.50,255.00 L222.00,254.50 L224.50,257.00 L230.50,265.00 L230.00,265.50Z M218.50,256.00 L219.50,256.00 L219.00,257.50Z M104.50,257.00 L105.50,257.00 L101.00,261.50 L97.00,264.50 L96.50,264.00Z M121.50,257.00 L122.50,257.00 L122.50,259.00 L121.50,260.00 L121.00,263.50 L120.50,260.00 L121.50,259.00Z M133.50,257.00 L134.50,257.00 L131.00,260.50 L130.00,259.50 L129.50,260.00 L130.50,262.00 L127.50,265.00 L127.00,267.50 L126.00,266.50 L124.00,267.50 L122.50,267.00 L126.00,265.50 L127.50,263.00 L129.50,262.00 L128.50,260.00 L130.00,257.50 L131.00,259.50Z M150.50,257.00 L151.50,257.00 L151.00,258.50Z M256.50,257.00 L257.00,256.50 L260.50,260.00 L264.50,266.00 L264.00,266.50Z M195.50,258.00 L196.50,258.00 L196.00,276.50Z M198.50,258.00 L199.00,257.50 L200.50,260.00 L200.00,261.50Z M245.50,258.00 L246.00,257.50 L250.00,261.50 L260.00,268.50 L265.50,271.00 L264.00,271.50 L260.00,269.50 L250.00,262.50Z M164.50,259.00 L165.50,259.00 L165.00,268.50Z M141.50,260.00 L142.50,260.00 L142.00,262.50Z M167.50,260.00 L168.50,260.00 L168.00,264.50Z M183.50,260.00 L184.50,260.00 L184.00,262.50Z M220.50,261.00 L221.50,261.00 L221.00,262.50Z M148.50,262.00 L149.00,261.50 L149.50,263.00 L148.00,265.50 L147.50,264.00Z M140.50,264.00 L141.50,264.00 L141.00,265.50Z M184.50,264.00 L185.50,264.00 L185.00,265.50Z M221.50,264.00 L222.50,264.00 L222.00,265.50Z M94.50,265.00 L95.50,265.00 L94.00,266.50 L93.50,266.00Z M201.50,265.00 L202.50,265.00 L204.50,269.00 L204.00,270.50Z M77.50,266.00 L78.50,266.00 L78.00,267.50Z M120.50,266.00 L121.50,266.00 L121.00,267.50Z M166.50,266.00 L167.50,266.00 L167.00,269.50Z M91.50,267.00 L92.50,267.00 L91.00,268.50 L90.50,268.00Z M139.50,267.00 L140.50,267.00 L140.00,269.50Z M185.50,267.00 L186.50,267.00 L186.50,269.00 L187.50,270.00 L187.00,271.50 L185.50,269.00Z M222.50,267.00 L223.00,266.50 L224.50,269.00 L224.00,271.50Z M230.50,267.00 L231.00,266.50 L235.50,271.00 L240.50,278.00 L259.00,296.50 L260.00,296.50 L263.50,300.00 L263.00,300.50 L239.50,278.00 L239.50,277.00Z M271.50,267.00 L272.50,267.00 L272.50,271.00 L271.00,272.50 L267.00,272.50 L267.00,270.50 L268.00,271.50 L271.50,271.00Z M264.50,268.00 L265.00,267.50 L266.50,269.00 L266.00,269.50Z M88.50,269.00 L89.50,269.00 L88.00,270.50 L86.00,271.50 L84.50,271.00Z M125.50,269.00 L126.50,269.00 L126.00,270.50Z M145.50,269.00 L146.00,268.50 L146.50,270.00 L139.00,283.50 L138.50,283.00Z M77.50,271.00 L83.50,272.00 L79.00,272.50Z M138.50,271.00 L139.50,271.00 L139.00,273.50Z M165.50,271.00 L166.50,271.00 L166.00,274.50Z M183.50,271.00 L184.50,271.00 L184.00,283.50Z M124.50,272.00 L125.50,272.00 L125.00,273.50Z M187.50,273.00 L188.50,273.00 L189.50,276.00 L191.50,278.00 L191.00,279.50Z M224.50,273.00 L225.50,273.00 L225.00,274.50Z M268.50,274.00 L269.00,273.50 L270.50,275.00 L271.00,277.50Z M123.50,275.00 L124.50,275.00 L124.00,276.50Z M137.50,275.00 L138.50,275.00 L138.00,278.50Z M164.50,276.00 L165.00,275.50 L166.50,278.00 L166.00,286.50Z M225.50,276.00 L226.50,276.00 L226.00,277.50Z M122.50,278.00 L123.50,278.00 L123.00,280.50Z M194.50,278.00 L195.00,277.50 L195.50,279.00 L193.00,280.50 L192.50,280.00 L194.00,279.50Z M226.50,279.00 L227.50,279.00 L227.00,281.50Z M271.50,279.00 L272.00,278.50 L273.50,280.00 L280.50,296.00 L280.50,304.00 L278.00,306.50 L273.50,306.00 L278.00,305.50 L279.50,304.00 L279.50,296.00 L278.50,295.00 L277.50,290.00Z M136.50,280.00 L137.50,280.00 L137.00,282.50Z M163.50,281.00 L164.50,281.00 L164.00,284.50Z M121.50,282.00 L122.50,282.00 L122.00,284.50Z M209.50,282.00 L210.00,281.50 L211.50,283.00 L213.50,287.00 L213.00,287.50Z M227.50,283.00 L228.50,283.00 L228.00,286.50Z M135.50,284.00 L136.00,283.50 L137.00,285.50 L138.00,284.50 L138.50,285.00 L136.00,288.50Z M162.50,286.00 L163.50,286.00 L163.00,288.50Z M120.50,287.00 L121.50,287.00 L121.00,290.50Z M182.50,288.00 L183.50,288.00 L183.00,292.50Z M228.50,288.00 L229.50,288.00 L229.00,294.50Z M213.50,289.00 L214.00,288.50 L215.50,290.00 L215.00,290.50Z M134.50,290.00 L135.50,290.00 L135.00,293.50 L133.50,291.00Z M161.50,290.00 L162.50,290.00 L162.00,292.50Z M166.50,290.00 L167.50,290.00 L167.00,294.50Z M215.50,292.00 L216.00,291.50 L218.50,294.00 L218.50,295.00 L223.50,300.00 L223.00,300.50Z M132.50,293.00 L133.50,293.00 L131.50,296.00 L127.00,300.50 L122.00,301.50 L120.50,300.00 L121.00,297.50 L122.00,300.50 L127.00,299.50Z M160.50,294.00 L161.50,294.00 L161.00,295.50Z M133.50,295.00 L134.50,295.00 L134.00,299.50Z M181.50,295.00 L182.50,295.00 L182.00,298.50Z M228.50,296.00 L229.50,296.00 L228.50,301.00 L225.00,301.50 L225.00,300.50 L227.00,300.50 L228.50,299.00Z M159.50,297.00 L160.50,297.00 L160.00,299.50Z M167.50,297.00 L168.50,297.00 L168.00,299.50Z M180.50,300.00 L181.50,300.00 L181.00,302.50Z M158.50,301.00 L159.50,301.00 L159.00,302.50Z M168.50,301.00 L169.50,301.00 L169.00,303.50Z M264.50,301.00 L265.00,300.50 L266.50,302.00 L266.00,302.50Z M132.50,302.00 L133.50,302.00 L133.00,308.50Z M267.50,303.00 L268.00,302.50 L272.50,305.00 L271.00,305.50Z M157.50,304.00 L158.50,304.00 L158.00,305.50Z M179.50,304.00 L180.50,304.00 L180.00,305.50Z M169.50,305.00 L170.50,305.00 L172.50,310.00 L174.50,311.00 L174.00,311.50 L171.50,310.00Z M156.50,307.00 L157.50,307.00 L157.00,308.50Z M178.50,307.00 L179.00,306.50 L179.50,308.00 L176.00,311.50 L175.50,311.00Z M155.50,310.00 L156.50,310.00 L156.00,311.50Z M131.50,313.00 L132.50,313.00 L132.00,324.50Z M154.50,313.00 L155.00,312.50 L155.50,314.00 L152.00,321.50 L151.50,320.00 L153.50,317.00Z M148.50,327.00 L149.50,327.00 L147.00,330.50 L146.50,330.00Z M132.50,328.00 L133.50,328.00 L134.50,334.00 L137.50,337.00 L137.00,337.50 L133.50,334.00Z M145.50,332.00 L146.50,332.00 L141.00,337.50 L139.50,337.00Z" fill="#000000" fill-rule="evenodd" stroke="none"/>
</svg>
