<svg xmlns="http://www.w3.org/2000/svg" viewBox="0 0 350 350">
  <path d="M181.50,138.00 L191.00,137.50 L192.00,138.50 L200.00,139.50 L212.00,145.50 L218.00,151.50 L219.50,152.00 L227.50,163.00 L233.50,178.00 L233.50,183.00 L234.50,184.00 L234.50,203.00 L233.50,204.00 L232.50,212.00 L231.50,213.00 L230.50,218.00 L227.50,223.00 L227.50,225.00 L216.50,241.00 L207.00,250.50 L197.00,257.50 L194.00,258.50 L192.00,260.50 L190.00,260.50 L188.00,262.50 L186.00,262.50 L183.00,264.50 L181.00,264.50 L171.00,268.50 L161.00,269.50 L160.00,270.50 L149.00,270.50 L148.00,271.50 L125.00,269.50 L124.00,268.50 L116.00,267.50 L115.00,266.50 L107.00,264.50 L104.00,262.50 L102.00,262.50 L83.00,252.50 L71.00,243.50 L54.50,227.00 L54.50,226.00 L47.50,218.00 L42.50,209.00 L40.50,207.00 L38.50,202.00 L36.50,200.00 L27.50,178.00 L27.50,175.00 L29.50,175.00 L31.50,183.00 L36.50,193.00 L36.50,195.00 L40.50,201.00 L43.50,208.00 L52.50,221.00 L71.00,240.50 L89.00,253.50 L108.00,262.50 L110.00,262.50 L117.00,265.50 L124.00,266.50 L125.00,267.50 L130.00,267.50 L131.00,268.50 L152.00,269.50 L153.00,268.50 L161.00,268.50 L162.00,267.50 L166.00,267.50 L167.00,266.50 L174.00,265.50 L177.50,261.00 L181.50,253.00 L185.50,248.00 L189.50,240.00 L193.50,235.00 L194.50,232.00 L198.50,227.00 L202.50,219.00 L206.50,214.00 L207.50,211.00 L211.50,206.00 L212.50,203.00 L214.50,201.00 L215.50,198.00 L219.50,193.00 L220.50,190.00 L224.50,185.00 L229.50,176.00 L228.00,173.50 L215.00,166.50 L210.00,162.50 L207.00,161.50 L202.00,157.50 L199.00,156.50 L197.00,154.50 L194.00,153.50 L189.00,149.50 L186.00,148.50 L181.00,144.50 L175.00,141.50 L169.50,150.00 L168.50,153.00 L166.50,155.00 L165.50,158.00 L161.50,163.00 L160.50,166.00 L156.50,171.00 L155.50,175.00 L173.00,186.50 L175.00,186.50 L181.50,177.00 L181.50,175.00 L180.00,173.50 L175.00,171.50 L174.50,173.00 L177.00,173.50 L177.50,176.00 L176.00,177.50 L172.00,177.50 L170.50,175.00 L170.50,173.00 L173.00,169.50 L178.00,168.50 L179.00,169.50 L181.00,169.50 L183.50,172.00 L183.50,174.00 L184.50,175.00 L184.50,181.00 L178.00,188.50 L176.00,188.50 L175.00,189.50 L166.00,189.50 L160.00,186.50 L154.50,180.00 L151.50,172.00 L151.50,164.00 L152.50,163.00 L153.50,157.00 L159.50,148.00 L165.00,143.50 L173.00,139.50Z M180.50,140.00 L191.00,139.50 L192.00,140.50 L196.00,140.50 L206.00,144.50 L212.00,148.50 L221.50,158.00 L224.50,162.00 L228.50,170.00 L228.50,172.00 L228.00,172.50 L223.00,168.50 L218.00,166.50 L197.00,152.50 L181.00,143.50 L177.50,141.00Z M170.50,143.00 L172.50,143.00 L171.50,145.00 L169.50,147.00 L165.50,155.00 L154.00,172.50 L153.50,164.00 L156.50,156.00 L166.00,145.50Z M156.50,179.00 L158.00,178.50 L160.00,179.50 L171.50,187.00 L167.00,187.50 L162.00,185.50Z M181.50,179.00 L182.50,179.00 L182.00,180.50Z M229.50,179.00 L231.50,179.00 L231.50,183.00 L232.50,184.00 L232.50,203.00 L231.50,204.00 L231.50,208.00 L230.50,209.00 L228.50,217.00 L222.50,229.00 L217.50,236.00 L212.50,241.00 L212.50,242.00 L203.00,250.50 L196.00,255.50 L191.00,257.50 L189.00,259.50 L178.00,263.50 L177.50,263.00 L180.50,259.00 L181.50,256.00 L190.50,243.00 L194.50,235.00 L198.50,230.00 L199.50,227.00 L203.50,222.00 L207.50,214.00 L211.50,209.00 L212.50,206.00 L214.50,204.00 L215.50,201.00 L219.50,196.00 L220.50,193.00 L224.50,188.00Z M180.50,181.00 L181.00,180.50 L181.50,182.00 L180.00,183.50 L179.50,182.00Z" fill="#000000" fill-rule="evenodd" stroke="none"/>
</svg>
