<svg xmlns="http://www.w3.org/2000/svg" viewBox="0 0 350 350">
  <path d="M166.50,34.00 L183.00,33.50 L184.00,34.50 L194.00,34.50 L195.00,35.50 L200.00,35.50 L201.00,36.50 L210.00,37.50 L214.00,39.50 L217.00,39.50 L218.00,40.50 L223.00,41.50 L245.00,51.50 L247.00,53.50 L253.00,56.50 L256.00,59.50 L259.00,60.50 L264.00,65.50 L270.00,69.50 L285.50,86.00 L291.50,94.00 L294.50,100.00 L298.50,105.00 L305.50,119.00 L305.50,121.00 L308.50,127.00 L308.50,129.00 L310.50,133.00 L310.50,136.00 L312.50,140.00 L312.50,144.00 L314.50,149.00 L314.50,155.00 L315.50,156.00 L315.50,166.00 L316.50,167.00 L315.50,194.00 L314.50,195.00 L314.50,200.00 L313.50,201.00 L313.50,205.00 L312.50,206.00 L312.50,210.00 L310.50,214.00 L310.50,217.00 L309.50,218.00 L308.50,223.00 L306.50,226.00 L305.50,231.00 L298.50,245.00 L285.50,264.00 L270.00,280.50 L264.00,284.50 L259.00,289.50 L256.00,290.50 L253.00,293.50 L247.00,296.50 L245.00,298.50 L231.00,305.50 L226.00,306.50 L224.00,308.50 L221.00,308.50 L217.00,310.50 L214.00,310.50 L213.00,311.50 L206.00,312.50 L205.00,313.50 L201.00,313.50 L200.00,314.50 L195.00,314.50 L194.00,315.50 L184.00,315.50 L183.00,316.50 L156.00,315.50 L155.00,314.50 L150.00,314.50 L149.00,313.50 L140.00,312.50 L136.00,310.50 L126.00,308.50 L124.00,306.50 L119.00,305.50 L97.00,293.50 L81.00,280.50 L80.00,280.50 L60.50,259.00 L52.50,247.00 L52.50,245.00 L50.50,243.00 L44.50,231.00 L44.50,229.00 L41.50,223.00 L41.50,221.00 L39.50,217.00 L39.50,214.00 L37.50,210.00 L37.50,206.00 L36.50,205.00 L36.50,201.00 L35.50,200.00 L35.50,195.00 L34.50,194.00 L34.50,184.00 L33.50,183.00 L34.50,156.00 L35.50,155.00 L35.50,149.00 L36.50,148.00 L39.50,133.00 L40.50,132.00 L41.50,127.00 L43.50,124.00 L44.50,119.00 L50.50,107.00 L52.50,105.00 L52.50,103.00 L64.50,86.00 L80.00,69.50 L81.00,69.50 L94.00,58.50 L105.00,52.50 L107.00,50.50 L119.00,44.50 L121.00,44.50 L127.00,41.50 L129.00,41.50 L133.00,39.50 L136.00,39.50 L140.00,37.50 L144.00,37.50 L145.00,36.50 L149.00,36.50 L150.00,35.50 L155.00,35.50 L156.00,34.50Z M161.50,37.00 L171.50,37.00 L168.50,41.00 L163.50,51.00 L161.50,53.00 L151.50,72.00 L146.50,79.00 L144.50,84.00 L142.00,86.50 L141.00,85.50 L136.00,84.50 L133.00,82.50 L125.00,80.50 L122.00,78.50 L114.00,76.50 L111.00,74.50 L103.00,72.50 L100.00,70.50 L98.00,70.50 L89.50,67.00 L90.00,65.50 L98.00,59.50 L120.00,47.50 L122.00,47.50 L125.00,45.50 L127.00,45.50 L140.00,40.50Z M178.50,37.00 L188.00,36.50 L189.00,37.50 L201.00,38.50 L202.00,39.50 L210.00,40.50 L211.00,41.50 L225.00,45.50 L247.00,56.50 L259.00,64.50 L260.50,67.00 L258.00,68.50 L250.00,70.50 L247.00,72.50 L239.00,74.50 L236.00,76.50 L228.00,78.50 L225.00,80.50 L217.00,82.50 L214.00,84.50 L212.00,84.50 L208.00,86.50 L205.50,84.00 L199.50,72.00 L197.50,70.00 L188.50,53.00 L186.50,51.00 L185.50,48.00 L183.50,46.00 L181.50,41.00Z M174.50,40.00 L175.00,39.50 L177.50,43.00 L183.50,55.00 L185.50,57.00 L194.50,74.00 L196.50,76.00 L201.50,86.00 L203.50,88.00 L195.00,90.50 L192.00,92.50 L184.00,94.50 L181.00,96.50 L179.00,96.50 L175.00,98.50 L147.50,88.00 L149.50,83.00 L151.50,81.00 L153.50,76.00 L155.50,74.00 L157.50,69.00 L162.50,62.00 L164.50,57.00 L166.50,55.00Z M82.50,72.00 L83.00,71.50 L84.50,74.00 L85.50,85.00 L86.50,86.00 L86.50,90.00 L87.50,91.00 L87.50,96.00 L88.50,97.00 L88.50,102.00 L89.50,103.00 L89.50,107.00 L90.50,108.00 L90.50,113.00 L91.50,114.00 L91.50,119.00 L92.50,120.00 L93.50,127.00 L90.00,129.50 L82.00,131.50 L79.00,133.50 L71.00,135.50 L68.00,137.50 L63.00,138.50 L60.00,140.50 L52.00,142.50 L49.00,144.50 L47.00,144.50 L40.00,147.50 L39.50,144.00 L40.50,143.00 L40.50,140.00 L41.50,139.00 L45.50,125.00 L53.50,108.00 L60.50,98.00 L61.50,95.00 L65.50,91.00 L69.50,85.00Z M87.50,72.00 L90.00,71.50 L91.00,72.50 L93.00,72.50 L96.00,74.50 L104.00,76.50 L107.00,78.50 L109.00,78.50 L110.00,79.50 L115.00,80.50 L118.00,82.50 L126.00,84.50 L129.00,86.50 L134.00,87.50 L137.00,89.50 L139.00,89.50 L140.50,91.00 L138.50,93.00 L136.50,98.00 L134.50,100.00 L129.50,110.00 L125.00,116.50 L121.00,117.50 L118.00,119.50 L104.00,123.50 L101.00,125.50 L97.50,126.00 L96.50,124.00 L96.50,119.00 L95.50,118.00 L95.50,114.00 L94.50,113.00 L93.50,102.00 L92.50,101.00 L91.50,91.00 L90.50,90.00 L90.50,85.00 L89.50,84.00 L89.50,80.00 L88.50,79.00 L88.50,74.00Z M259.50,72.00 L262.00,71.50 L262.50,73.00 L261.50,74.00 L261.50,79.00 L260.50,80.00 L260.50,84.00 L259.50,85.00 L258.50,96.00 L257.50,97.00 L256.50,107.00 L255.50,108.00 L255.50,113.00 L254.50,114.00 L254.50,118.00 L253.50,119.00 L253.50,124.00 L252.50,126.00 L249.00,125.50 L246.00,123.50 L244.00,123.50 L225.00,116.50 L219.50,108.00 L218.50,105.00 L216.50,103.00 L214.50,98.00 L212.50,96.00 L210.50,92.00 L210.50,90.00Z M266.50,72.00 L267.00,71.50 L280.50,85.00 L295.50,106.00 L304.50,125.00 L304.50,127.00 L309.50,140.00 L309.50,143.00 L310.50,144.00 L310.00,147.50 L309.00,146.50 L301.00,144.50 L298.00,142.50 L290.00,140.50 L287.00,138.50 L282.00,137.50 L279.00,135.50 L271.00,133.50 L268.00,131.50 L260.00,129.50 L256.50,127.00 L257.50,120.00 L258.50,119.00 L258.50,114.00 L259.50,113.00 L259.50,108.00 L260.50,107.00 L260.50,103.00 L261.50,102.00 L262.50,91.00 L263.50,90.00 L263.50,86.00 L264.50,85.00 L265.50,74.00Z M144.50,92.00 L145.00,91.50 L148.00,93.50 L150.00,93.50 L151.00,94.50 L156.00,95.50 L159.00,97.50 L167.00,99.50 L167.50,101.00 L133.00,113.50 L132.50,113.00 L134.50,109.00 L136.50,107.00Z M204.50,92.00 L205.50,92.00 L209.50,100.00 L214.50,107.00 L217.50,113.00 L217.00,113.50 L182.50,101.00 L183.00,99.50 L191.00,97.50 L194.00,95.50 L196.00,95.50Z M174.50,103.00 L178.00,103.50 L181.00,105.50 L189.00,107.50 L192.00,109.50 L200.00,111.50 L203.00,113.50 L205.00,113.50 L221.00,119.50 L225.50,126.00 L227.50,131.00 L229.50,133.00 L231.50,138.00 L233.50,140.00 L240.50,154.00 L246.50,163.00 L245.50,165.00 L245.50,169.00 L244.50,170.00 L243.50,181.00 L242.50,182.00 L242.50,186.00 L241.50,187.00 L240.50,198.00 L239.50,199.00 L239.50,203.00 L238.50,204.00 L238.50,209.00 L237.50,210.00 L237.50,215.00 L236.50,216.00 L236.50,220.00 L235.50,221.00 L235.50,226.00 L234.50,227.00 L234.50,232.00 L233.50,233.00 L232.00,243.50 L117.50,243.00 L117.50,238.00 L116.50,237.00 L116.50,233.00 L115.50,232.00 L114.50,221.00 L113.50,220.00 L113.50,216.00 L112.50,215.00 L111.50,204.00 L110.50,203.00 L110.50,199.00 L109.50,198.00 L108.50,187.00 L107.50,186.00 L106.50,176.00 L105.50,175.00 L105.50,170.00 L104.50,169.00 L104.50,165.00 L103.50,163.00 L129.00,119.50Z M119.50,123.00 L121.50,123.00 L118.50,129.00 L116.50,131.00 L114.50,136.00 L112.50,138.00 L110.50,143.00 L108.50,145.00 L103.00,155.50 L101.50,152.00 L101.50,148.00 L100.50,147.00 L100.50,142.00 L99.50,141.00 L98.50,131.00 L103.00,128.50 L105.00,128.50Z M228.50,123.00 L230.00,122.50 L233.00,124.50 L236.00,124.50 L239.00,126.50 L247.00,128.50 L251.50,131.00 L250.50,141.00 L249.50,142.00 L249.50,147.00 L248.50,148.00 L248.50,152.00 L247.00,155.50Z M91.50,133.00 L94.00,132.50 L95.50,136.00 L95.50,141.00 L96.50,142.00 L96.50,147.00 L97.50,148.00 L99.50,162.00 L97.50,164.00 L95.50,169.00 L90.50,176.00 L88.50,181.00 L86.50,183.00 L84.50,188.00 L82.50,190.00 L80.50,195.00 L78.50,197.00 L73.00,207.50 L70.50,205.00 L68.50,200.00 L66.50,198.00 L64.50,193.00 L62.50,191.00 L60.50,186.00 L55.50,179.00 L51.50,170.00 L49.50,168.00 L40.50,152.00 L48.00,148.50 L56.00,146.50 L59.00,144.50 L67.00,142.50 L70.00,140.50 L78.00,138.50 L81.00,136.50 L83.00,136.50Z M255.50,133.00 L258.00,132.50 L261.00,134.50 L269.00,136.50 L272.00,138.50 L280.00,140.50 L283.00,142.50 L291.00,144.50 L294.00,146.50 L302.00,148.50 L309.50,152.00 L300.50,168.00 L298.50,170.00 L294.50,179.00 L289.50,186.00 L283.50,198.00 L281.50,200.00 L279.50,205.00 L277.00,207.50 L271.50,197.00 L269.50,195.00 L267.50,190.00 L262.50,183.00 L260.50,178.00 L258.50,176.00 L256.50,171.00 L250.50,162.00Z M37.50,157.00 L38.00,156.50 L40.50,160.00 L51.50,181.00 L53.50,183.00 L55.50,188.00 L57.50,190.00 L59.50,195.00 L61.50,197.00 L62.50,200.00 L64.50,202.00 L66.50,207.00 L69.50,211.00 L69.50,214.00 L64.50,221.00 L62.50,226.00 L60.50,228.00 L54.00,240.50 L52.50,240.00 L45.50,225.00 L45.50,223.00 L40.50,210.00 L39.50,202.00 L38.50,201.00 L37.50,189.00 L36.50,188.00 L36.50,162.00 L37.50,161.00Z M311.50,157.00 L312.50,157.00 L312.50,161.00 L313.50,162.00 L313.50,188.00 L312.50,189.00 L312.50,196.00 L311.50,197.00 L311.50,201.00 L310.50,202.00 L309.50,210.00 L308.50,211.00 L304.50,225.00 L297.50,240.00 L296.00,240.50 L289.50,228.00 L284.50,221.00 L282.50,216.00 L280.50,214.00 L280.50,211.00 L283.50,207.00 L288.50,197.00 L290.50,195.00 L292.50,190.00 L294.50,188.00 L296.50,183.00 L298.50,181.00 L301.50,174.00 L303.50,172.00Z M99.50,170.00 L101.50,170.00 L102.50,181.00 L103.50,182.00 L103.50,186.00 L104.50,187.00 L105.50,198.00 L106.50,199.00 L107.50,209.00 L108.50,210.00 L108.50,215.00 L109.50,216.00 L110.50,226.00 L111.50,227.00 L111.50,232.00 L112.50,233.00 L112.50,237.00 L113.50,238.00 L113.00,243.50 L93.00,243.50 L75.50,213.00 L78.50,206.00 L80.50,204.00 L82.50,199.00 L84.50,197.00 L86.50,192.00 L91.50,185.00Z M248.50,170.00 L250.50,170.00 L258.50,185.00 L260.50,187.00 L262.50,192.00 L264.50,194.00 L269.50,204.00 L271.50,206.00 L274.50,213.00 L257.00,243.50 L237.00,243.50 L236.50,238.00 L237.50,237.00 L237.50,233.00 L238.50,232.00 L238.50,227.00 L239.50,226.00 L239.50,221.00 L240.50,220.00 L240.50,216.00 L241.50,215.00 L242.50,204.00 L243.50,203.00 L243.50,199.00 L244.50,198.00 L245.50,187.00 L246.50,186.00 L246.50,182.00 L247.50,181.00Z M71.50,218.00 L73.00,217.50 L75.50,221.00 L81.50,233.00 L86.50,240.00 L87.50,242.00 L87.00,243.50 L57.50,243.00 L63.50,232.00 L65.50,230.00 L67.50,225.00 L69.50,223.00Z M276.50,218.00 L277.00,217.50 L279.50,220.00 L288.50,237.00 L290.50,239.00 L292.50,243.00 L292.00,243.50 L262.50,243.00Z M56.50,247.00 L90.00,246.50 L92.50,252.00 L97.50,259.00 L99.50,264.00 L101.50,266.00 L103.50,271.00 L108.50,278.00 L110.50,283.00 L112.50,285.00 L114.50,290.00 L119.50,297.00 L121.50,302.00 L120.00,302.50 L106.00,295.50 L101.00,291.50 L98.00,290.50 L91.00,284.50 L87.00,282.50 L69.50,265.00 L69.50,264.00 L61.50,255.00 L60.50,252.00Z M95.50,247.00 L114.50,247.00 L115.50,254.00 L116.50,255.00 L116.50,260.00 L117.50,261.00 L117.50,266.00 L118.50,267.00 L118.50,271.00 L119.50,272.00 L120.50,283.00 L121.50,284.00 L121.50,288.00 L122.50,289.00 L122.00,293.50Z M118.50,247.00 L231.00,246.50 L231.50,249.00 L230.50,250.00 L230.50,254.00 L229.50,255.00 L229.50,260.00 L228.50,261.00 L228.50,266.00 L227.50,267.00 L227.50,271.00 L226.50,272.00 L226.50,277.00 L225.50,278.00 L225.50,283.00 L224.50,284.00 L224.50,288.00 L223.50,289.00 L223.50,294.00 L222.50,295.00 L221.50,305.00 L210.00,309.50 L202.00,310.50 L201.00,311.50 L196.00,311.50 L195.00,312.50 L189.00,312.50 L188.00,313.50 L162.00,313.50 L161.00,312.50 L155.00,312.50 L154.00,311.50 L144.00,310.50 L143.00,309.50 L140.00,309.50 L129.00,305.50Z M235.50,247.00 L254.00,246.50 L254.50,248.00 L252.50,250.00 L250.50,255.00 L248.50,257.00 L246.50,262.00 L241.50,269.00 L239.50,274.00 L237.50,276.00 L235.50,281.00 L233.50,283.00 L228.00,293.50 L227.50,289.00 L228.50,288.00 L228.50,284.00 L229.50,283.00 L229.50,278.00 L230.50,277.00 L230.50,272.00 L231.50,271.00 L231.50,267.00 L232.50,266.00 L232.50,261.00 L233.50,260.00 L233.50,255.00 L234.50,254.00Z M259.50,247.00 L293.00,246.50 L292.50,249.00 L280.50,265.00 L263.00,282.50 L242.00,296.50 L229.00,302.50 L228.50,301.00 L230.50,297.00 L235.50,290.00 L237.50,285.00 L239.50,283.00 L241.50,278.00 L246.50,271.00 L248.50,266.00 L250.50,264.00 L252.50,259.00 L257.50,252.00Z" fill="#000000" fill-rule="evenodd" stroke="none"/>
</svg>
