<svg xmlns="http://www.w3.org/2000/svg" viewBox="0 0 350 350">
  <path d="M170.50,11.00 L180.00,10.50 L181.00,11.50 L194.00,11.50 L195.00,12.50 L202.00,12.50 L203.00,13.50 L212.00,14.50 L213.00,15.50 L220.00,16.50 L224.00,18.50 L227.00,18.50 L230.00,20.50 L235.00,21.50 L245.00,26.50 L247.00,26.50 L251.00,29.50 L258.00,32.50 L260.00,34.50 L266.00,37.50 L269.00,40.50 L272.00,41.50 L282.00,50.50 L283.00,50.50 L300.50,68.00 L300.50,69.00 L308.50,78.00 L309.50,81.00 L312.50,84.00 L315.50,90.00 L317.50,92.00 L326.50,110.00 L329.50,120.00 L331.50,123.00 L331.50,126.00 L332.50,127.00 L334.50,137.00 L335.50,138.00 L335.50,142.00 L336.50,143.00 L336.50,147.00 L337.50,148.00 L337.50,155.00 L338.50,156.00 L338.50,170.00 L339.50,171.00 L337.50,202.00 L336.50,203.00 L335.50,212.00 L334.50,213.00 L333.50,220.00 L331.50,224.00 L331.50,227.00 L329.50,230.00 L326.50,240.00 L317.50,258.00 L315.50,260.00 L312.50,266.00 L309.50,269.00 L308.50,272.00 L300.50,281.00 L300.50,282.00 L276.00,305.50 L272.00,308.50 L269.00,309.50 L263.00,314.50 L251.00,320.50 L247.00,323.50 L245.00,323.50 L240.00,326.50 L230.00,329.50 L227.00,331.50 L224.00,331.50 L223.00,332.50 L213.00,334.50 L212.00,335.50 L208.00,335.50 L207.00,336.50 L203.00,336.50 L202.00,337.50 L195.00,337.50 L194.00,338.50 L181.00,338.50 L180.00,339.50 L148.00,337.50 L147.00,336.50 L143.00,336.50 L142.00,335.50 L138.00,335.50 L137.00,334.50 L126.00,332.50 L123.00,330.50 L110.00,326.50 L92.00,317.50 L90.00,315.50 L84.00,312.50 L81.00,309.50 L78.00,308.50 L70.00,301.50 L69.00,301.50 L44.50,276.00 L41.50,272.00 L40.50,269.00 L35.50,263.00 L30.50,253.00 L28.50,251.00 L28.50,249.00 L23.50,240.00 L23.50,238.00 L19.50,230.00 L19.50,227.00 L16.50,220.00 L16.50,217.00 L14.50,212.00 L14.50,208.00 L13.50,207.00 L13.50,203.00 L12.50,202.00 L12.50,195.00 L11.50,194.00 L11.50,180.00 L10.50,179.00 L12.50,148.00 L13.50,147.00 L14.50,138.00 L15.50,137.00 L16.50,130.00 L19.50,123.00 L19.50,120.00 L21.50,117.00 L23.50,110.00 L28.50,101.00 L28.50,99.00 L30.50,97.00 L32.50,92.00 L34.50,90.00 L37.50,84.00 L40.50,81.00 L41.50,78.00 L49.50,69.00 L49.50,68.00 L69.00,48.50 L70.00,48.50 L78.00,41.50 L81.00,40.50 L84.00,37.50 L90.00,34.50 L92.00,32.50 L110.00,23.50 L123.00,19.50 L126.00,17.50 L129.00,17.50 L130.00,16.50 L133.00,16.50 L138.00,14.50 L142.00,14.50 L143.00,13.50 L147.00,13.50 L148.00,12.50 L155.00,12.50 L156.00,11.50Z M163.50,15.00 L186.00,14.50 L187.00,15.50 L195.50,16.00 L186.00,16.50 L185.00,15.50 L165.00,15.50 L164.00,16.50 L155.00,16.50 L155.00,15.50Z M161.50,20.00 L188.00,19.50 L189.00,20.50 L196.00,20.50 L197.00,21.50 L202.00,21.50 L203.00,22.50 L207.00,22.50 L208.00,23.50 L215.00,24.50 L216.00,25.50 L222.00,26.50 L227.50,29.00 L222.00,29.50 L221.00,30.50 L215.00,30.50 L214.00,31.50 L206.00,33.50 L203.00,35.50 L199.00,35.50 L191.00,31.50 L181.00,30.50 L180.00,29.50 L169.00,29.50 L168.00,30.50 L163.00,30.50 L162.00,31.50 L159.00,31.50 L158.00,32.50 L153.00,33.50 L150.00,35.50 L147.00,35.50 L139.00,31.50 L121.50,29.00 L131.00,25.50 L142.00,23.50 L143.00,22.50 L147.00,22.50 L148.00,21.50 L152.00,21.50 L153.00,20.50Z M115.50,34.00 L129.00,33.50 L130.00,34.50 L134.00,34.50 L135.00,35.50 L140.00,36.50 L143.50,39.00 L140.00,41.50 L134.00,48.50 L132.50,49.00 L126.50,58.00 L122.50,68.00 L120.50,80.00 L120.00,80.50 L117.00,78.50 L115.00,78.50 L111.00,76.50 L107.00,76.50 L106.00,75.50 L87.00,75.50 L86.00,76.50 L82.00,76.50 L81.00,77.50 L76.00,78.50 L73.00,80.50 L72.50,75.00 L73.50,74.00 L74.50,68.00 L76.50,65.00 L76.50,63.00 L78.50,59.00 L82.50,53.00 L91.00,44.50 L100.00,38.50 L102.00,38.50 L105.00,36.50 L107.00,36.50 L111.00,34.50Z M168.50,34.00 L182.00,33.50 L183.00,34.50 L190.00,35.50 L193.00,37.50 L195.00,37.50 L196.50,39.00 L190.00,43.50 L189.50,45.00 L182.50,52.00 L181.50,55.00 L179.50,57.00 L179.50,59.00 L177.50,61.00 L177.50,63.00 L175.00,68.50 L173.50,66.00 L173.50,63.00 L166.50,51.00 L160.50,45.00 L160.00,43.50 L153.50,39.00 L157.00,36.50 L160.00,36.50 L164.00,34.50Z M220.50,34.00 L234.00,33.50 L235.00,34.50 L239.00,34.50 L240.00,35.50 L245.00,36.50 L248.00,38.50 L250.00,38.50 L259.00,44.50 L267.50,53.00 L271.50,59.00 L276.50,71.00 L277.50,79.00 L275.00,79.50 L274.00,78.50 L272.00,78.50 L268.00,76.50 L264.00,76.50 L263.00,75.50 L244.00,75.50 L243.00,76.50 L233.00,78.50 L230.00,80.50 L228.50,77.00 L227.50,68.00 L223.50,58.00 L217.50,49.00 L206.50,39.00 L210.00,36.50Z M147.50,42.00 L150.00,41.50 L154.00,44.50 L162.50,53.00 L166.50,59.00 L171.50,71.00 L171.50,74.00 L172.50,75.00 L172.00,79.50 L170.00,79.50 L163.00,76.50 L159.00,76.50 L158.00,75.50 L139.00,75.50 L138.00,76.50 L131.00,77.50 L125.00,80.50 L124.50,80.00 L126.50,69.00 L133.50,55.00 L141.00,46.50Z M199.50,42.00 L202.00,41.50 L209.00,46.50 L216.50,55.00 L222.50,66.00 L224.50,76.00 L225.50,77.00 L225.00,80.50 L222.00,78.50 L220.00,78.50 L216.00,76.50 L212.00,76.50 L211.00,75.50 L192.00,75.50 L191.00,76.50 L187.00,76.50 L186.00,77.50 L181.00,78.50 L178.00,80.50 L177.50,80.00 L178.50,71.00 L183.50,59.00 L187.50,53.00Z M72.50,58.00 L74.00,57.50 L74.50,59.00 L72.50,61.00 L72.50,63.00 L69.50,69.00 L69.50,73.00 L68.50,74.00 L68.50,82.00 L62.00,86.50 L50.50,99.00 L47.50,104.00 L47.50,106.00 L43.50,114.00 L43.50,117.00 L42.50,118.00 L42.50,127.00 L35.00,132.50 L29.50,138.00 L29.50,139.00 L26.50,141.00 L23.00,147.50 L22.50,143.00 L23.50,142.00 L25.50,131.00 L26.50,130.00 L28.50,122.00 L30.50,119.00 L30.50,117.00 L33.50,112.00 L34.50,108.00 L36.50,106.00 L36.50,104.00 L38.50,102.00 L38.50,100.00 L52.50,79.00Z M275.50,58.00 L276.00,57.50 L279.00,59.50 L291.50,72.00 L291.50,73.00 L302.50,86.00 L307.50,95.00 L311.50,100.00 L311.50,102.00 L313.50,104.00 L313.50,106.00 L316.50,110.00 L316.50,112.00 L319.50,117.00 L320.50,122.00 L323.50,128.00 L323.50,131.00 L324.50,132.00 L324.50,134.00 L326.50,138.00 L326.50,142.00 L327.50,143.00 L327.00,147.50 L323.50,141.00 L315.00,132.50 L307.50,127.00 L307.50,118.00 L306.50,117.00 L306.50,114.00 L305.50,113.00 L304.50,108.00 L299.50,99.00 L288.00,86.50 L281.50,82.00 L281.50,74.00 L278.50,66.00 L278.50,63.00Z M93.50,79.00 L99.00,78.50 L100.00,79.50 L106.00,79.50 L110.00,81.50 L113.00,81.50 L117.50,84.00 L117.00,85.50 L112.00,88.50 L110.50,91.00 L107.50,93.00 L101.50,101.00 L101.50,103.00 L98.50,107.00 L98.50,109.00 L95.50,116.00 L95.50,120.00 L94.50,121.00 L94.00,125.50 L82.50,115.00 L78.50,109.00 L72.50,94.00 L72.50,88.00 L71.50,87.00 L73.00,84.50 L75.00,84.50 L80.00,81.50 L86.00,80.50 L87.00,79.50Z M145.50,79.00 L152.00,78.50 L153.00,79.50 L158.00,79.50 L159.00,80.50 L162.00,80.50 L163.00,81.50 L168.00,82.50 L169.50,84.00 L169.50,85.00 L167.00,86.50 L155.50,99.00 L152.50,104.00 L152.50,106.00 L149.50,111.00 L149.00,113.50 L147.50,112.00 L145.50,105.00 L143.50,103.00 L143.50,101.00 L137.50,93.00 L135.00,91.50 L133.00,88.50 L127.50,85.00 L127.50,84.00 L130.00,82.50 L132.00,82.50 L136.00,80.50 L139.00,80.50 L140.00,79.50Z M198.50,79.00 L204.00,78.50 L205.00,79.50 L211.00,79.50 L215.00,81.50 L218.00,81.50 L222.50,84.00 L222.00,85.50 L217.00,88.50 L215.50,91.00 L212.50,93.00 L206.50,101.00 L206.50,103.00 L204.50,105.00 L202.50,112.00 L201.00,113.50 L199.50,108.00 L194.50,99.00 L191.50,95.00 L180.50,85.00 L181.00,83.50 L185.00,81.50 L191.00,80.50 L192.00,79.50Z M250.50,79.00 L257.00,78.50 L258.00,79.50 L263.00,79.50 L264.00,80.50 L267.00,80.50 L268.00,81.50 L273.00,82.50 L275.00,84.50 L277.00,84.50 L278.50,86.00 L277.50,88.00 L276.50,97.00 L271.50,109.00 L267.50,115.00 L256.00,125.50 L255.50,121.00 L254.50,120.00 L254.50,116.00 L253.50,115.00 L251.50,107.00 L248.50,103.00 L248.50,101.00 L242.50,93.00 L240.00,91.50 L238.00,88.50 L232.50,85.00 L232.50,84.00 L235.00,82.50 L237.00,82.50 L241.00,80.50 L244.00,80.50 L245.00,79.50Z M66.50,89.00 L68.50,89.00 L69.50,99.00 L72.50,105.00 L72.50,107.00 L77.50,116.00 L80.50,120.00 L82.50,121.00 L77.00,121.50 L76.00,120.50 L64.00,120.50 L63.00,121.50 L54.00,122.50 L46.00,125.50 L45.50,124.00 L46.50,123.00 L46.50,119.00 L52.50,104.00 L58.50,96.00Z M119.50,89.00 L120.00,88.50 L121.50,91.00 L121.50,97.00 L122.50,98.00 L124.50,106.00 L129.50,115.00 L134.50,121.00 L129.00,121.50 L128.00,120.50 L116.00,120.50 L115.00,121.50 L106.00,122.50 L103.00,124.50 L99.00,125.50 L98.50,121.00 L99.50,120.00 L99.50,117.00 L104.50,105.00 L108.50,99.00 L118.00,89.50Z M124.50,89.00 L127.00,89.50 L136.50,99.00 L140.50,105.00 L145.50,117.00 L145.50,120.00 L146.50,121.00 L146.00,124.50 L141.00,121.50 L133.50,113.00 L126.50,99.00Z M171.50,89.00 L172.50,89.00 L172.50,93.00 L171.50,94.00 L171.50,97.00 L170.50,98.00 L169.50,103.00 L166.50,109.00 L162.50,115.00 L151.00,125.50 L150.50,124.00 L151.50,123.00 L151.50,119.00 L157.50,104.00 L163.50,96.00Z M177.50,89.00 L178.00,88.50 L182.00,91.50 L192.50,104.00 L197.50,115.00 L198.50,123.00 L199.50,124.00 L199.00,125.50 L187.50,115.00 L183.50,109.00 L177.50,94.00Z M224.50,89.00 L225.50,89.00 L225.50,91.00 L224.50,92.00 L223.50,99.00 L219.50,108.00 L213.50,117.00 L212.00,117.50 L209.00,121.50 L204.00,124.50 L203.50,121.00 L204.50,120.00 L204.50,117.00 L209.50,105.00 L213.50,99.00 L223.00,89.50Z M229.50,89.00 L232.00,89.50 L241.50,99.00 L245.50,105.00 L250.50,117.00 L250.50,120.00 L251.50,121.00 L251.00,125.50 L244.00,122.50 L234.00,121.50 L233.00,120.50 L221.00,120.50 L220.00,121.50 L215.50,121.00 L218.50,118.00 L225.50,106.00 L225.50,104.00 L227.50,100.00 L227.50,97.00 L228.50,96.00 L228.50,91.00Z M281.50,89.00 L283.00,88.50 L287.00,91.50 L297.50,104.00 L302.50,115.00 L303.50,123.00 L304.50,124.00 L304.00,125.50 L296.00,122.50 L287.00,121.50 L286.00,120.50 L274.00,120.50 L273.00,121.50 L267.50,121.00 L269.00,120.50 L272.50,116.00 L278.50,105.00 L280.50,95.00 L281.50,94.00Z M174.50,100.00 L175.50,100.00 L175.50,102.00 L177.50,105.00 L177.50,107.00 L179.50,111.00 L185.50,120.00 L187.50,121.00 L187.00,121.50 L182.00,121.50 L181.00,120.50 L169.00,120.50 L168.00,121.50 L162.50,121.00 L164.50,120.00 L170.50,111.00 L173.50,105.00Z M26.50,114.00 L27.50,114.00 L27.00,115.50Z M324.50,119.00 L325.50,119.00 L325.00,120.50Z M23.50,122.00 L24.50,122.00 L24.00,123.50Z M325.50,122.00 L326.50,122.00 L326.00,123.50Z M22.50,125.00 L23.50,125.00 L23.00,126.50Z M62.50,125.00 L77.00,124.50 L78.00,125.50 L85.00,126.50 L88.00,128.50 L90.00,128.50 L91.50,130.00 L83.50,136.00 L74.50,148.00 L74.50,150.00 L72.50,152.00 L72.50,154.00 L69.50,160.00 L68.00,170.50 L63.00,167.50 L57.50,162.00 L52.50,155.00 L49.50,149.00 L49.50,147.00 L46.50,140.00 L46.50,136.00 L45.50,135.00 L46.00,130.50 L52.00,127.50Z M115.50,125.00 L129.00,124.50 L130.00,125.50 L134.00,125.50 L135.00,126.50 L140.00,127.50 L142.00,128.50 L142.50,130.00 L134.00,133.50 L131.00,133.50 L130.00,134.50 L116.00,134.50 L115.00,133.50 L111.00,133.50 L101.50,130.00 L105.00,127.50Z M167.50,125.00 L182.00,124.50 L183.00,125.50 L187.00,125.50 L193.00,128.50 L195.00,128.50 L195.50,130.00 L193.00,131.50 L191.00,131.50 L187.00,133.50 L183.00,133.50 L182.00,134.50 L168.00,134.50 L167.00,133.50 L163.00,133.50 L154.50,130.00 L154.50,129.00 L157.00,127.50Z M220.50,125.00 L234.00,124.50 L235.00,125.50 L239.00,125.50 L240.00,126.50 L245.00,127.50 L247.00,128.50 L247.50,130.00 L239.00,133.50 L236.00,133.50 L235.00,134.50 L221.00,134.50 L220.00,133.50 L216.00,133.50 L206.50,130.00 L210.00,127.50Z M272.50,125.00 L287.00,124.50 L288.00,125.50 L295.00,126.50 L304.50,131.00 L304.50,135.00 L303.50,136.00 L302.50,144.00 L297.50,155.00 L292.50,162.00 L283.00,170.50 L281.50,170.00 L281.50,165.00 L280.50,164.00 L278.50,154.00 L275.50,150.00 L275.50,148.00 L273.50,146.00 L272.50,143.00 L265.00,134.50 L258.50,130.00 L262.00,127.50Z M326.50,125.00 L327.50,125.00 L327.00,126.50Z M21.50,128.00 L22.50,128.00 L22.00,129.50Z M327.50,128.00 L328.50,128.00 L328.00,129.50Z M20.50,131.00 L21.50,131.00 L21.00,133.50Z M328.50,131.00 L329.50,131.00 L329.00,133.50Z M41.50,134.00 L42.50,134.00 L42.50,141.00 L43.50,142.00 L43.50,145.00 L47.50,153.00 L48.50,157.00 L53.50,164.00 L65.50,175.00 L53.50,186.00 L48.50,193.00 L47.50,197.00 L43.50,205.00 L42.00,216.50 L36.00,212.50 L28.50,204.00 L23.50,195.00 L23.50,193.00 L20.50,187.00 L20.50,183.00 L19.50,182.00 L19.50,168.00 L20.50,167.00 L20.50,163.00 L23.50,157.00 L23.50,155.00 L31.50,142.00 L33.00,141.50 L36.00,137.50Z M93.50,134.00 L94.50,134.00 L95.50,143.00 L96.50,144.00 L98.50,152.00 L101.50,156.00 L101.50,158.00 L108.50,167.00 L86.00,166.50 L85.00,167.50 L81.00,167.50 L75.00,170.50 L73.00,170.50 L72.50,165.00 L78.50,150.00 L82.50,144.00Z M150.50,134.00 L151.00,133.50 L154.00,135.50 L162.50,144.00 L166.50,150.00 L171.50,162.00 L171.50,165.00 L172.50,166.00 L172.00,170.50 L162.50,162.00 L157.50,155.00 L154.50,149.00Z M198.50,134.00 L199.00,133.50 L199.50,135.00 L198.50,136.00 L197.50,144.00 L192.50,155.00 L187.50,162.00 L178.00,170.50 L177.50,165.00 L183.50,150.00 L187.50,144.00Z M255.50,134.00 L256.00,133.50 L259.00,135.50 L267.50,144.00 L271.50,150.00 L276.50,162.00 L276.50,165.00 L277.50,166.00 L277.00,170.50 L272.00,169.50 L268.00,167.50 L265.00,167.50 L264.00,166.50 L241.50,167.00 L248.50,158.00 L248.50,156.00 L251.50,152.00 L251.50,150.00 L253.50,147.00 L253.50,144.00 L254.50,143.00Z M307.50,134.00 L310.00,134.50 L314.00,137.50 L321.50,146.00 L327.50,157.00 L329.50,167.00 L330.50,168.00 L330.50,182.00 L329.50,183.00 L327.50,193.00 L318.50,208.00 L317.00,208.50 L314.00,212.50 L308.00,216.50 L306.50,205.00 L301.50,193.00 L296.50,186.00 L284.50,175.00 L296.50,164.00 L301.50,157.00 L306.50,145.00 L306.50,142.00 L307.50,141.00Z M19.50,135.00 L20.50,135.00 L20.00,137.50Z M98.50,135.00 L100.00,134.50 L104.00,137.50 L111.50,146.00 L117.50,157.00 L119.50,167.00 L120.50,168.00 L120.00,170.50 L113.00,165.50 L105.50,156.00 L100.50,145.00Z M144.50,135.00 L146.50,135.00 L146.50,138.00 L145.50,139.00 L145.50,142.00 L144.50,143.00 L143.50,148.00 L139.50,156.00 L132.50,164.00 L132.50,165.00 L125.00,170.50 L124.50,168.00 L125.50,167.00 L125.50,163.00 L130.50,151.00 L136.50,142.00 L138.00,141.50 L139.50,139.00Z M203.50,135.00 L205.00,134.50 L209.00,137.50 L216.50,146.00 L222.50,157.00 L224.50,167.00 L225.50,168.00 L225.00,170.50 L218.00,165.50 L210.50,156.00 L205.50,145.00Z M249.50,135.00 L251.50,135.00 L251.50,138.00 L250.50,139.00 L250.50,142.00 L249.50,143.00 L248.50,148.00 L244.50,156.00 L237.50,164.00 L237.50,165.00 L230.00,170.50 L229.50,168.00 L230.50,167.00 L230.50,163.00 L235.50,151.00 L241.50,142.00 L243.00,141.50 L244.50,139.00Z M329.50,135.00 L330.50,135.00 L330.00,137.50Z M110.50,138.00 L115.00,137.50 L116.00,138.50 L129.00,138.50 L130.00,137.50 L134.00,137.50 L134.50,139.00 L133.00,139.50 L129.50,144.00 L128.50,147.00 L125.50,151.00 L123.50,158.00 L122.00,158.50 L118.50,149.00 L116.50,147.00 L113.50,141.00Z M162.50,138.00 L187.50,138.00 L182.50,143.00 L181.50,146.00 L179.50,148.00 L179.50,150.00 L177.50,152.00 L177.50,154.00 L175.00,159.50 L173.50,154.00 L170.50,150.00 L170.50,148.00 L168.50,146.00 L167.50,143.00Z M215.50,138.00 L220.00,137.50 L221.00,138.50 L234.00,138.50 L235.00,137.50 L239.00,137.50 L239.50,139.00 L238.00,139.50 L234.50,144.00 L233.50,147.00 L230.50,151.00 L228.50,158.00 L227.00,158.50 L223.50,149.00 L221.50,147.00 L218.50,141.00Z M18.50,139.00 L19.50,139.00 L19.00,141.50Z M330.50,139.00 L331.50,139.00 L331.00,141.50Z M17.50,143.00 L18.50,143.00 L18.00,147.50Z M331.50,143.00 L332.50,143.00 L332.00,146.50Z M148.50,146.00 L149.50,146.00 L149.50,148.00 L152.50,153.00 L153.50,157.00 L161.50,167.00 L161.00,167.50 L159.00,166.50 L136.50,167.00 L143.50,158.00 L143.50,156.00 L145.50,154.00Z M200.50,146.00 L201.00,145.50 L202.50,147.00 L203.50,152.00 L206.50,156.00 L206.50,158.00 L212.50,165.00 L213.00,167.50 L211.00,166.50 L188.50,167.00 L196.50,157.00 L199.50,151.00Z M16.50,148.00 L17.50,148.00 L17.00,153.50Z M332.50,148.00 L333.50,148.00 L333.00,153.50Z M15.50,155.00 L16.50,155.00 L16.50,164.00 L15.50,165.00 L15.50,185.00 L16.50,186.00 L16.00,195.50 L15.50,187.00 L14.50,186.00 L14.50,164.00 L15.50,163.00Z M333.50,155.00 L334.50,155.00 L334.50,163.00 L335.50,164.00 L335.50,186.00 L334.50,187.00 L334.00,195.50 L333.50,186.00 L334.50,185.00 L334.50,165.00 L333.50,164.00Z M92.50,170.00 L100.00,169.50 L101.00,170.50 L106.00,170.50 L107.00,171.50 L113.00,172.50 L118.50,175.00 L113.00,177.50 L110.00,177.50 L106.00,179.50 L101.00,179.50 L100.00,180.50 L87.00,179.50 L86.00,178.50 L83.00,178.50 L74.50,175.00 L83.00,171.50Z M144.50,170.00 L152.00,169.50 L153.00,170.50 L158.00,170.50 L159.00,171.50 L162.00,171.50 L170.50,175.00 L162.00,178.50 L153.00,179.50 L152.00,180.50 L139.00,179.50 L138.00,178.50 L135.00,178.50 L126.50,175.00 L135.00,171.50Z M197.50,170.00 L205.00,169.50 L206.00,170.50 L211.00,170.50 L212.00,171.50 L218.00,172.50 L223.50,175.00 L218.00,177.50 L215.00,177.50 L211.00,179.50 L206.00,179.50 L205.00,180.50 L192.00,179.50 L191.00,178.50 L188.00,178.50 L179.50,175.00 L188.00,171.50Z M249.50,170.00 L257.00,169.50 L258.00,170.50 L263.00,170.50 L264.00,171.50 L267.00,171.50 L275.50,175.00 L267.00,178.50 L258.00,179.50 L257.00,180.50 L244.00,179.50 L243.00,178.50 L240.00,178.50 L231.50,175.00 L240.00,171.50Z M66.50,180.00 L68.50,180.00 L69.50,190.00 L72.50,196.00 L72.50,198.00 L74.50,200.00 L74.50,202.00 L83.50,214.00 L91.50,220.00 L90.00,221.50 L88.00,221.50 L82.00,224.50 L78.00,224.50 L77.00,225.50 L63.00,225.50 L62.00,224.50 L52.00,222.50 L45.50,219.00 L46.50,210.00 L52.50,195.00 L57.50,188.00Z M72.50,180.00 L75.00,179.50 L78.00,181.50 L85.00,182.50 L86.00,183.50 L108.50,183.00 L101.50,192.00 L101.50,194.00 L98.50,198.00 L98.50,200.00 L95.50,207.00 L95.50,211.00 L94.50,212.00 L94.00,216.50 L82.50,206.00 L78.50,200.00 L72.50,185.00Z M119.50,180.00 L120.50,180.00 L120.50,182.00 L119.50,183.00 L118.50,190.00 L114.50,199.00 L108.50,208.00 L107.00,208.50 L104.00,212.50 L99.00,215.50 L98.50,212.00 L99.50,211.00 L99.50,208.00 L105.50,194.00 L112.50,186.00 L112.50,185.00Z M124.50,180.00 L127.00,180.50 L131.00,184.50 L132.00,184.50 L139.50,194.00 L145.50,208.00 L145.50,211.00 L146.50,212.00 L146.00,215.50 L141.00,212.50 L133.50,204.00 L126.50,190.00Z M171.50,180.00 L172.50,180.00 L172.50,184.00 L171.50,185.00 L171.50,188.00 L170.50,189.00 L169.50,194.00 L166.50,200.00 L162.50,206.00 L151.00,216.50 L150.50,215.00 L151.50,214.00 L151.50,210.00 L157.50,195.00 L162.50,188.00Z M177.50,180.00 L178.00,179.50 L182.00,182.50 L187.50,188.00 L192.50,195.00 L197.50,206.00 L198.50,214.00 L199.50,215.00 L199.00,216.50 L187.50,206.00 L183.50,200.00 L177.50,185.00Z M224.50,180.00 L225.50,180.00 L225.50,182.00 L224.50,183.00 L223.50,190.00 L219.50,199.00 L213.50,208.00 L212.00,208.50 L209.00,212.50 L204.00,215.50 L203.50,212.00 L204.50,211.00 L204.50,208.00 L210.50,194.00 L217.50,186.00 L217.50,185.00Z M229.50,180.00 L232.00,180.50 L236.00,184.50 L237.00,184.50 L244.50,194.00 L250.50,208.00 L250.50,211.00 L251.50,212.00 L251.00,215.50 L246.00,212.50 L238.50,204.00 L231.50,190.00Z M275.50,180.00 L277.50,180.00 L277.50,184.00 L276.50,185.00 L276.50,188.00 L275.50,189.00 L274.50,194.00 L271.50,200.00 L267.50,206.00 L256.00,216.50 L255.50,212.00 L254.50,211.00 L254.50,207.00 L253.50,206.00 L253.50,203.00 L251.50,200.00 L251.50,198.00 L248.50,194.00 L248.50,192.00 L241.50,183.00 L264.00,183.50 L265.00,182.50 L268.00,182.50 L269.00,181.50Z M281.50,180.00 L283.00,179.50 L287.00,182.50 L292.50,188.00 L297.50,195.00 L302.50,206.00 L303.50,214.00 L304.50,215.00 L304.50,219.00 L295.00,223.50 L288.00,224.50 L287.00,225.50 L273.00,225.50 L272.00,224.50 L262.00,222.50 L258.50,220.00 L266.50,214.00 L275.50,202.00 L275.50,200.00 L277.50,198.00 L279.50,193.00 L279.50,190.00 L281.50,185.00Z M136.50,183.00 L161.50,183.00 L153.50,193.00 L149.00,204.50 L145.50,196.00 L143.50,194.00 L143.50,192.00Z M188.50,183.00 L213.50,183.00 L206.50,192.00 L206.50,194.00 L204.50,196.00 L202.50,203.00 L201.00,204.50 L199.50,199.00 L196.50,193.00Z M174.50,191.00 L175.50,191.00 L175.50,193.00 L177.50,196.00 L177.50,198.00 L179.50,200.00 L179.50,202.00 L181.50,204.00 L182.50,207.00 L187.50,212.00 L187.00,212.50 L183.00,212.50 L182.00,211.50 L168.00,211.50 L167.00,212.50 L162.50,212.00 L167.50,207.00 L168.50,204.00 L170.50,202.00 L170.50,200.00 L173.50,196.00Z M121.50,192.00 L123.50,192.00 L123.50,194.00 L125.50,197.00 L126.50,201.00 L128.50,203.00 L131.50,209.00 L134.50,211.00 L134.00,212.50 L130.00,212.50 L129.00,211.50 L116.00,211.50 L115.00,212.50 L110.50,212.00 L113.50,209.00 L116.50,203.00 L118.50,201.00 L120.50,197.00Z M226.50,192.00 L228.50,192.00 L228.50,194.00 L230.50,197.00 L231.50,201.00 L233.50,203.00 L236.50,209.00 L239.50,211.00 L239.00,212.50 L235.00,212.50 L234.00,211.50 L221.00,211.50 L220.00,212.50 L215.50,212.00 L218.50,209.00 L221.50,203.00 L223.50,201.00 L225.50,197.00Z M16.50,197.00 L17.50,197.00 L17.00,202.50Z M332.50,197.00 L333.50,197.00 L333.00,202.50Z M17.50,203.00 L18.50,203.00 L18.00,207.50Z M22.50,203.00 L23.50,203.00 L26.50,209.00 L29.00,210.50 L35.00,217.50 L42.50,223.00 L42.50,232.00 L43.50,233.00 L43.50,236.00 L47.50,244.00 L47.50,246.00 L50.50,251.00 L62.00,263.50 L68.50,268.00 L68.50,276.00 L69.50,277.00 L69.50,281.00 L72.50,287.00 L72.50,289.00 L74.50,291.00 L74.00,292.50 L73.00,292.50 L57.50,277.00 L57.50,276.00 L52.50,271.00 L50.50,267.00 L47.50,264.00 L42.50,255.00 L38.50,250.00 L38.50,248.00 L36.50,246.00 L36.50,244.00 L34.50,242.00 L33.50,238.00 L28.50,228.00 L28.50,226.00 L25.50,219.00 L23.50,208.00 L22.50,207.00Z M326.50,203.00 L327.50,203.00 L327.50,207.00 L326.50,208.00 L326.50,212.00 L323.50,219.00 L323.50,222.00 L320.50,228.00 L319.50,233.00 L316.50,238.00 L316.50,240.00 L313.50,244.00 L313.50,246.00 L311.50,248.00 L311.50,250.00 L307.50,255.00 L302.50,264.00 L291.50,277.00 L291.50,278.00 L276.00,292.50 L275.50,291.00 L278.50,287.00 L278.50,284.00 L281.50,276.00 L281.50,268.00 L288.00,263.50 L299.50,251.00 L304.50,242.00 L304.50,240.00 L306.50,236.00 L306.50,233.00 L307.50,232.00 L307.50,223.00 L315.00,217.50 L323.50,209.00Z M331.50,204.00 L332.50,204.00 L332.00,207.50Z M18.50,209.00 L19.50,209.00 L19.00,211.50Z M330.50,209.00 L331.50,209.00 L331.00,211.50Z M19.50,213.00 L20.50,213.00 L20.00,215.50Z M329.50,213.00 L330.50,213.00 L330.00,215.50Z M115.50,216.00 L130.00,215.50 L131.00,216.50 L134.00,216.50 L135.00,217.50 L140.00,218.50 L142.00,219.50 L142.50,221.00 L140.00,222.50 L138.00,222.50 L134.00,224.50 L130.00,224.50 L129.00,225.50 L116.00,225.50 L115.00,224.50 L111.00,224.50 L110.00,223.50 L105.00,222.50 L101.50,220.00 L111.00,216.50Z M167.50,216.00 L182.00,215.50 L183.00,216.50 L187.00,216.50 L188.00,217.50 L193.00,218.50 L195.00,219.50 L195.50,221.00 L190.00,223.50 L183.00,224.50 L182.00,225.50 L168.00,225.50 L167.00,224.50 L160.00,223.50 L154.50,221.00 L154.50,220.00 L157.00,218.50Z M220.50,216.00 L235.00,215.50 L236.00,216.50 L239.00,216.50 L240.00,217.50 L245.00,218.50 L247.00,219.50 L247.50,221.00 L245.00,222.50 L243.00,222.50 L239.00,224.50 L235.00,224.50 L234.00,225.50 L221.00,225.50 L220.00,224.50 L216.00,224.50 L215.00,223.50 L210.00,222.50 L206.50,220.00 L216.00,216.50Z M20.50,217.00 L21.50,217.00 L21.00,219.50Z M328.50,217.00 L329.50,217.00 L329.00,219.50Z M21.50,221.00 L22.50,221.00 L22.00,222.50Z M327.50,221.00 L328.50,221.00 L328.00,222.50Z M22.50,224.00 L23.50,224.00 L23.00,225.50Z M326.50,224.00 L327.50,224.00 L327.00,225.50Z M45.50,225.00 L47.00,224.50 L54.00,227.50 L63.00,228.50 L64.00,229.50 L76.00,229.50 L77.00,228.50 L82.50,229.00 L81.00,229.50 L77.50,234.00 L72.50,243.00 L72.50,245.00 L69.50,251.00 L68.00,261.50 L63.00,258.50 L52.50,246.00 L49.50,240.00Z M93.50,225.00 L94.50,225.00 L95.50,234.00 L96.50,235.00 L98.50,243.00 L101.50,247.00 L101.50,249.00 L107.50,257.00 L110.00,258.50 L112.00,261.50 L117.50,265.00 L117.00,266.50 L106.00,270.50 L94.00,271.50 L93.00,270.50 L83.00,269.50 L75.00,265.50 L73.00,265.50 L71.50,264.00 L72.50,262.00 L72.50,256.00 L78.50,241.00 L82.50,235.00Z M98.50,225.00 L100.00,224.50 L106.00,227.50 L115.00,228.50 L116.00,229.50 L128.00,229.50 L129.00,228.50 L134.50,229.00 L131.50,232.00 L124.50,244.00 L124.50,246.00 L121.50,253.00 L121.50,259.00 L120.00,261.50 L118.00,260.50 L108.50,251.00 L104.50,245.00 L99.50,233.00Z M150.50,225.00 L151.00,224.50 L154.00,226.50 L162.50,235.00 L166.50,241.00 L171.50,253.00 L171.50,256.00 L172.50,257.00 L172.00,261.50 L163.50,254.00 L157.50,246.00 L154.50,240.00Z M198.50,225.00 L199.00,224.50 L199.50,226.00 L198.50,227.00 L197.50,235.00 L192.50,246.00 L186.50,254.00 L178.00,261.50 L177.50,256.00 L183.50,241.00 L187.50,235.00Z M249.50,225.00 L251.50,225.00 L251.50,229.00 L250.50,230.00 L250.50,233.00 L249.50,234.00 L248.50,239.00 L245.50,245.00 L241.50,251.00 L232.00,260.50 L230.00,261.50 L228.50,259.00 L228.50,254.00 L227.50,253.00 L227.50,250.00 L226.50,249.00 L225.50,244.00 L220.50,235.00 L215.50,229.00 L220.00,228.50 L221.00,229.50 L233.00,229.50 L234.00,228.50 L244.00,227.50Z M255.50,225.00 L256.00,224.50 L259.00,226.50 L267.50,235.00 L271.50,241.00 L276.50,253.00 L277.50,262.00 L278.50,264.00 L277.00,265.50 L275.00,265.50 L273.00,267.50 L271.00,267.50 L267.00,269.50 L264.00,269.50 L263.00,270.50 L258.00,270.50 L257.00,271.50 L245.00,270.50 L244.00,269.50 L241.00,269.50 L233.00,266.50 L232.50,265.00 L238.00,261.50 L248.50,249.00 L248.50,247.00 L251.50,243.00 L251.50,241.00 L254.50,234.00Z M302.50,225.00 L304.50,225.00 L303.50,227.00 L303.50,231.00 L297.50,246.00 L291.50,254.00 L289.00,255.50 L287.00,258.50 L282.00,261.50 L281.50,256.00 L280.50,255.00 L278.50,245.00 L272.50,234.00 L269.50,230.00 L267.50,229.00 L273.00,228.50 L274.00,229.50 L286.00,229.50 L287.00,228.50 L292.00,228.50 L293.00,227.50 L296.00,227.50Z M144.50,226.00 L146.50,226.00 L146.50,229.00 L145.50,230.00 L145.50,233.00 L144.50,234.00 L143.50,239.00 L140.50,245.00 L136.50,251.00 L127.00,260.50 L125.00,261.50 L124.50,259.00 L125.50,258.00 L125.50,254.00 L130.50,242.00 L136.50,233.00 L138.00,232.50 L139.50,230.00Z M203.50,226.00 L205.00,225.50 L209.00,228.50 L216.50,237.00 L222.50,248.00 L224.50,258.00 L225.50,259.00 L225.00,261.50 L223.00,260.50 L213.50,251.00 L209.50,245.00 L204.50,233.00Z M23.50,227.00 L24.50,227.00 L24.00,228.50Z M325.50,227.00 L326.50,227.00 L326.00,228.50Z M162.50,229.00 L187.50,229.00 L185.50,230.00 L179.50,239.00 L175.00,250.50 L173.50,245.00 L170.50,239.00 L164.50,230.00Z M324.50,230.00 L325.50,230.00 L325.00,231.50Z M26.50,235.00 L27.50,235.00 L27.00,236.50Z M148.50,237.00 L149.50,237.00 L149.50,239.00 L155.50,251.00 L158.50,255.00 L169.50,265.00 L168.00,267.50 L166.00,267.50 L162.00,269.50 L159.00,269.50 L158.00,270.50 L146.00,271.50 L145.00,270.50 L136.00,269.50 L127.50,266.00 L128.00,264.50 L133.00,261.50 L134.50,259.00 L137.50,257.00 L143.50,249.00 L143.50,247.00 L145.50,245.00Z M200.50,237.00 L201.00,236.50 L202.50,238.00 L203.50,243.00 L206.50,247.00 L206.50,249.00 L212.50,257.00 L215.00,258.50 L217.00,261.50 L222.50,265.00 L222.00,266.50 L211.00,270.50 L199.00,271.50 L198.00,270.50 L188.00,269.50 L180.50,266.00 L180.50,265.00 L183.00,263.50 L194.50,251.00 L199.50,242.00Z M72.50,270.00 L73.00,269.50 L76.00,271.50 L78.00,271.50 L82.00,273.50 L86.00,273.50 L87.00,274.50 L106.00,274.50 L107.00,273.50 L111.00,273.50 L112.00,272.50 L117.00,271.50 L120.00,269.50 L121.50,273.00 L122.50,282.00 L126.50,292.00 L132.50,301.00 L134.00,301.50 L134.50,303.00 L143.50,311.00 L140.00,313.50 L138.00,313.50 L134.00,315.50 L130.00,315.50 L129.00,316.50 L116.00,316.50 L115.00,315.50 L111.00,315.50 L110.00,314.50 L105.00,313.50 L102.00,311.50 L100.00,311.50 L91.00,305.50 L82.50,297.00 L78.50,291.00 L73.50,279.00Z M124.50,270.00 L125.00,269.50 L131.00,272.50 L138.00,273.50 L139.00,274.50 L158.00,274.50 L159.00,273.50 L163.00,273.50 L164.00,272.50 L172.00,270.50 L172.50,275.00 L171.50,276.00 L171.50,279.00 L170.50,280.00 L169.50,285.00 L162.50,297.00 L154.00,305.50 L150.00,308.50 L148.00,308.50 L141.00,303.50 L133.50,295.00 L126.50,281.00Z M177.50,270.00 L178.00,269.50 L181.00,271.50 L183.00,271.50 L187.00,273.50 L191.00,273.50 L192.00,274.50 L211.00,274.50 L212.00,273.50 L216.00,273.50 L217.00,272.50 L222.00,271.50 L225.00,269.50 L225.50,273.00 L224.50,274.00 L222.50,284.00 L216.50,295.00 L209.00,303.50 L202.00,308.50 L200.00,308.50 L187.50,297.00 L183.50,291.00 L178.50,279.00Z M229.50,270.00 L230.00,269.50 L236.00,272.50 L243.00,273.50 L244.00,274.50 L263.00,274.50 L264.00,273.50 L268.00,273.50 L269.00,272.50 L277.00,270.50 L277.50,275.00 L276.50,276.00 L276.50,279.00 L275.50,280.00 L274.50,285.00 L271.50,291.00 L267.50,297.00 L259.00,305.50 L250.00,311.50 L248.00,311.50 L245.00,313.50 L243.00,313.50 L239.00,315.50 L235.00,315.50 L234.00,316.50 L221.00,316.50 L220.00,315.50 L216.00,315.50 L215.00,314.50 L210.00,313.50 L206.50,311.00 L217.50,301.00 L223.50,292.00 L227.50,282.00Z M174.50,282.00 L175.50,282.00 L177.50,289.00 L179.50,291.00 L179.50,293.00 L181.50,295.00 L182.50,298.00 L189.50,305.00 L190.00,306.50 L196.50,311.00 L195.00,312.50 L193.00,312.50 L190.00,314.50 L183.00,315.50 L182.00,316.50 L169.00,316.50 L168.00,315.50 L164.00,315.50 L160.00,313.50 L157.00,313.50 L153.50,311.00 L160.00,306.50 L160.50,305.00 L166.50,299.00 L173.50,287.00Z M146.50,315.00 L150.00,314.50 L153.00,316.50 L155.00,316.50 L159.00,318.50 L168.00,319.50 L169.00,320.50 L180.00,320.50 L181.00,319.50 L191.00,318.50 L199.00,314.50 L203.00,314.50 L206.00,316.50 L208.00,316.50 L215.00,319.50 L221.00,319.50 L222.00,320.50 L227.50,321.00 L222.00,323.50 L216.00,324.50 L215.00,325.50 L212.00,325.50 L207.00,327.50 L203.00,327.50 L202.00,328.50 L197.00,328.50 L196.00,329.50 L189.00,329.50 L188.00,330.50 L162.00,330.50 L161.00,329.50 L153.00,329.50 L152.00,328.50 L143.00,327.50 L142.00,326.50 L139.00,326.50 L138.00,325.50 L135.00,325.50 L134.00,324.50 L131.00,324.50 L130.00,323.50 L122.00,321.50 L122.00,320.50 L128.00,320.50 L129.00,319.50 L139.00,318.50Z M154.50,334.00 L195.50,334.00 L187.00,334.50 L186.00,335.50 L164.00,335.50 L163.00,334.50Z" fill="#000000" fill-rule="evenodd" stroke="none"/>
</svg>
