<svg xmlns="http://www.w3.org/2000/svg" viewBox="0 0 244 344">
  <path d="M11.50,12.00 L231.50,12.00 L231.00,331.50 L11.50,331.00Z M220.50,63.00 L221.50,63.00 L221.50,127.00 L205.50,147.00 L205.50,148.00 L213.50,156.00 L215.50,160.00 L215.50,162.00 L216.50,163.00 L216.50,171.00 L213.50,178.00 L205.00,186.50 L194.50,193.00 L199.50,204.00 L199.50,206.00 L204.50,217.00 L204.50,219.00 L206.50,222.00 L206.50,224.00 L211.50,235.00 L211.50,237.00 L213.50,240.00 L214.50,245.00 L216.50,248.00 L216.50,250.00 L221.50,261.00 L221.50,286.00 L213.00,286.50 L208.50,283.00 L203.50,272.00 L202.50,267.00 L198.50,259.00 L197.50,254.00 L191.50,241.00 L190.50,236.00 L184.50,223.00 L183.50,218.00 L181.50,215.00 L181.50,213.00 L179.50,210.00 L179.50,208.00 L177.50,205.00 L176.00,199.50 L174.50,202.00 L174.50,206.00 L173.50,207.00 L173.50,211.00 L172.50,212.00 L172.50,216.00 L171.50,217.00 L171.50,221.00 L170.50,222.00 L170.50,226.00 L169.50,227.00 L169.50,231.00 L168.50,232.00 L168.50,236.00 L167.50,237.00 L167.50,241.00 L166.50,242.00 L166.50,246.00 L165.50,247.00 L165.50,251.00 L164.50,252.00 L164.50,256.00 L163.50,257.00 L163.50,261.00 L162.50,262.00 L161.50,270.00 L156.00,276.50 L148.00,276.50 L146.00,275.50 L143.50,273.00 L141.50,269.00 L141.50,265.00 L142.50,264.00 L142.50,260.00 L143.50,259.00 L143.50,255.00 L144.50,254.00 L144.50,250.00 L145.50,249.00 L145.50,245.00 L146.50,244.00 L146.50,240.00 L147.50,239.00 L147.50,235.00 L148.50,234.00 L148.50,230.00 L149.50,229.00 L149.50,225.00 L150.50,224.00 L150.50,220.00 L151.50,219.00 L151.50,215.00 L152.50,214.00 L152.50,210.00 L153.50,209.00 L153.00,204.50 L151.00,205.50 L143.00,205.50 L142.00,206.50 L101.00,206.50 L100.00,205.50 L93.00,205.50 L92.00,204.50 L86.00,204.50 L85.00,203.50 L76.00,202.50 L74.50,204.00 L73.50,210.00 L90.50,244.00 L90.50,246.00 L92.50,249.00 L92.50,255.00 L90.50,259.00 L86.00,262.50 L78.00,262.50 L71.50,257.00 L65.00,242.50 L63.50,244.00 L63.50,247.00 L62.50,248.00 L61.50,255.00 L59.50,259.00 L58.50,266.00 L56.50,270.00 L55.50,277.00 L52.50,284.00 L48.00,287.50 L40.00,287.50 L38.00,286.50 L33.50,282.00 L32.50,275.00 L33.50,274.00 L34.50,267.00 L36.50,263.00 L37.50,256.00 L39.50,252.00 L40.50,245.00 L42.50,241.00 L42.50,238.00 L43.50,237.00 L44.50,230.00 L46.50,226.00 L47.50,219.00 L49.50,215.00 L49.50,210.00 L41.50,195.00 L40.50,188.00 L31.50,180.00 L26.50,170.00 L26.50,164.00 L31.50,154.00 L41.00,145.50 L54.00,138.50 L56.00,138.50 L59.00,136.50 L61.00,136.50 L68.00,133.50 L71.00,133.50 L76.00,131.50 L80.00,131.50 L81.00,130.50 L85.00,130.50 L86.00,129.50 L100.00,128.50 L101.00,127.50 L142.00,127.50 L143.00,128.50 L151.00,128.50 L152.00,129.50 L157.00,129.50 L158.00,130.50 L167.00,131.50 L180.50,115.00 L183.50,110.00 L187.50,106.00 L190.50,101.00 L194.50,97.00 L197.50,92.00 L201.50,88.00 L204.50,83.00 L210.00,77.50 L214.50,75.00 L215.50,71.00Z" fill="#000000" fill-rule="evenodd" stroke="none"/>
</svg>
