<svg xmlns="http://www.w3.org/2000/svg" viewBox="0 0 200 300">
  <path d="M198.50,41.00 L194.50,47.00 L192.50,53.00 L188.00,55.50 L182.50,61.00 L179.50,66.00 L175.50,70.00 L172.50,75.00 L168.50,79.00 L165.50,84.00 L161.50,88.00 L158.50,93.00 L145.00,109.50 L136.00,108.50 L135.00,107.50 L130.00,107.50 L129.00,106.50 L121.00,106.50 L120.00,105.50 L79.00,105.50 L78.00,106.50 L64.00,107.50 L63.00,108.50 L59.00,108.50 L58.00,109.50 L54.00,109.50 L53.00,110.50 L46.00,111.50 L45.00,112.50 L37.00,114.50 L34.00,116.50 L32.00,116.50 L19.00,123.50 L9.50,132.00 L4.50,142.00 L4.50,148.00 L9.50,158.00 L18.50,166.00 L19.50,173.00 L27.50,188.00 L27.50,193.00 L25.50,197.00 L25.50,200.00 L22.50,208.00 L20.50,219.00 L18.50,223.00 L17.50,230.00 L15.50,234.00 L14.50,241.00 L13.50,242.00 L11.50,252.00 L10.50,253.00 L11.50,260.00 L16.00,264.50 L18.00,265.50 L26.00,265.50 L30.50,262.00 L33.50,255.00 L33.50,252.00 L36.50,244.00 L37.50,237.00 L39.50,233.00 L41.50,222.00 L43.00,220.50 L49.50,235.00 L56.00,240.50 L64.00,240.50 L68.50,237.00 L70.50,233.00 L70.50,227.00 L68.50,224.00 L68.50,222.00 L51.50,188.00 L52.50,182.00 L54.00,180.50 L58.00,180.50 L59.00,181.50 L63.00,181.50 L64.00,182.50 L70.00,182.50 L71.00,183.50 L78.00,183.50 L79.00,184.50 L120.00,184.50 L121.00,183.50 L129.00,183.50 L131.00,182.50 L131.50,187.00 L130.50,188.00 L130.50,192.00 L129.50,193.00 L129.50,197.00 L128.50,198.00 L128.50,202.00 L127.50,203.00 L127.50,207.00 L126.50,208.00 L126.50,212.00 L125.50,213.00 L125.50,217.00 L124.50,218.00 L124.50,222.00 L123.50,223.00 L123.50,227.00 L122.50,228.00 L122.50,232.00 L121.50,233.00 L119.50,247.00 L121.50,251.00 L124.00,253.50 L126.00,254.50 L134.00,254.50 L139.50,248.00 L140.50,240.00 L141.50,239.00 L141.50,235.00 L142.50,234.00 L142.50,230.00 L143.50,229.00 L143.50,225.00 L144.50,224.00 L144.50,220.00 L145.50,219.00 L145.50,215.00 L146.50,214.00 L146.50,210.00 L147.50,209.00 L147.50,205.00 L148.50,204.00 L148.50,200.00 L149.50,199.00 L149.50,195.00 L150.50,194.00 L150.50,190.00 L151.50,189.00 L151.50,185.00 L152.50,184.00 L152.50,180.00 L154.00,177.50 L155.50,183.00 L157.50,186.00 L157.50,188.00 L159.50,191.00 L159.50,193.00 L161.50,196.00 L162.50,201.00 L168.50,214.00 L169.50,219.00 L175.50,232.00 L176.50,237.00 L180.50,245.00 L181.50,250.00 L186.50,261.00 L191.00,264.50 L199.00,264.50Z M198.50,106.00 L183.50,125.00 L183.50,126.00 L191.50,134.00 L193.50,138.00 L193.50,140.00 L194.50,141.00 L194.50,149.00 L193.50,150.00 L193.50,152.00 L191.50,156.00 L183.00,164.50 L172.50,171.00 L177.50,182.00 L178.50,187.00 L184.50,200.00 L185.50,205.00 L187.50,208.00 L187.50,210.00 L189.50,213.00 L189.50,215.00 L191.50,218.00 L192.50,223.00 L194.50,226.00 L194.50,228.00 L196.50,231.00 L196.50,233.00 L199.00,238.50Z" fill="#000000" fill-rule="evenodd" stroke="none"/>
</svg>
