<svg xmlns="http://www.w3.org/2000/svg" viewBox="0 0 350 350">
  <path d="M158.50,27.00 L191.00,26.50 L192.00,27.50 L199.00,27.50 L200.00,28.50 L204.00,28.50 L205.00,29.50 L209.00,29.50 L210.00,30.50 L217.00,31.50 L218.00,32.50 L226.00,34.50 L229.00,36.50 L231.00,36.50 L234.00,38.50 L236.00,38.50 L248.00,44.50 L265.00,55.50 L285.50,74.00 L285.50,75.00 L295.50,86.00 L296.50,89.00 L299.50,92.00 L300.50,95.00 L305.50,102.00 L311.50,114.00 L311.50,116.00 L313.50,119.00 L313.50,121.00 L315.50,124.00 L315.50,126.00 L318.50,133.00 L318.50,136.00 L320.50,141.00 L320.50,145.00 L321.50,146.00 L321.50,151.00 L322.50,152.00 L322.50,158.00 L323.50,159.00 L323.50,191.00 L322.50,192.00 L322.50,198.00 L321.50,199.00 L321.50,204.00 L320.50,205.00 L320.50,209.00 L319.50,210.00 L318.50,217.00 L317.50,218.00 L315.50,226.00 L313.50,229.00 L313.50,231.00 L311.50,234.00 L311.50,236.00 L305.50,248.00 L303.50,250.00 L299.50,258.00 L296.50,261.00 L295.50,264.00 L290.50,269.00 L285.50,276.00 L283.00,277.50 L280.50,281.00 L270.00,290.50 L258.00,299.50 L255.00,300.50 L248.00,305.50 L236.00,311.50 L234.00,311.50 L231.00,313.50 L229.00,313.50 L226.00,315.50 L224.00,315.50 L217.00,318.50 L214.00,318.50 L209.00,320.50 L205.00,320.50 L204.00,321.50 L200.00,321.50 L199.00,322.50 L192.00,322.50 L191.00,323.50 L159.00,323.50 L158.00,322.50 L146.00,321.50 L145.00,320.50 L141.00,320.50 L133.00,317.50 L130.00,317.50 L129.00,316.50 L124.00,315.50 L121.00,313.50 L119.00,313.50 L116.00,311.50 L114.00,311.50 L102.00,305.50 L81.00,291.50 L73.00,283.50 L72.00,283.50 L58.50,269.00 L44.50,248.00 L38.50,236.00 L38.50,234.00 L36.50,231.00 L36.50,229.00 L34.50,226.00 L34.50,224.00 L32.50,220.00 L32.50,217.00 L29.50,209.00 L29.50,205.00 L28.50,204.00 L28.50,200.00 L27.50,199.00 L27.50,191.00 L26.50,190.00 L26.50,160.00 L27.50,159.00 L27.50,151.00 L28.50,150.00 L28.50,146.00 L29.50,145.00 L29.50,141.00 L32.50,133.00 L32.50,130.00 L33.50,129.00 L34.50,124.00 L36.50,121.00 L36.50,119.00 L38.50,116.00 L38.50,114.00 L44.50,102.00 L58.50,81.00 L64.50,75.00 L64.50,74.00 L67.00,72.50 L68.50,70.00 L81.00,58.50 L102.00,44.50 L114.00,38.50 L116.00,38.50 L119.00,36.50 L121.00,36.50 L124.00,34.50 L126.00,34.50 L130.00,32.50 L133.00,32.50 L137.00,30.50 L145.00,29.50 L146.00,28.50Z M168.50,30.00 L173.00,29.50 L173.50,33.00 L168.50,37.00 L166.50,41.00 L166.50,43.00 L164.50,46.00 L164.50,50.00 L162.50,55.00 L162.50,61.00 L161.00,64.50 L147.00,66.50 L143.00,68.50 L137.00,69.50 L134.00,71.50 L131.00,71.50 L119.00,57.50 L118.00,57.50 L114.00,53.50 L109.00,51.50 L106.00,51.50 L104.50,50.00 L106.00,47.50 L118.00,41.50 L120.00,41.50 L128.00,37.50 L131.00,37.50 L134.00,35.50 L137.00,35.50 L138.00,34.50 L141.00,34.50 L146.00,32.50 L150.00,32.50 L151.00,31.50Z M176.50,30.00 L181.00,29.50 L182.00,30.50 L192.00,30.50 L193.00,31.50 L199.00,31.50 L200.00,32.50 L204.00,32.50 L205.00,33.50 L216.00,35.50 L219.00,37.50 L222.00,37.50 L225.00,39.50 L232.00,41.50 L244.00,47.50 L245.50,50.00 L244.00,51.50 L241.00,51.50 L238.00,53.50 L236.00,53.50 L232.00,57.50 L231.00,57.50 L229.50,60.00 L224.50,64.00 L219.00,71.50 L216.00,71.50 L213.00,69.50 L207.00,68.50 L199.00,65.50 L189.00,64.50 L187.50,61.00 L187.50,55.00 L186.50,54.00 L185.50,46.00 L183.50,43.00 L183.50,41.00 L181.50,37.00 L176.50,33.00Z M172.50,39.00 L173.50,39.00 L173.50,63.00 L166.00,63.50 L165.50,61.00 L166.50,60.00 L166.50,56.00 L167.50,55.00 L168.50,48.00Z M176.50,40.00 L177.00,39.50 L178.50,41.00 L181.50,48.00 L181.50,51.00 L183.50,56.00 L183.50,60.00 L184.50,61.00 L184.00,63.50 L176.50,63.00Z M100.50,51.00 L101.00,50.50 L102.50,52.00 L102.50,54.00 L101.50,55.00 L101.50,68.00 L102.50,69.00 L102.50,72.00 L103.50,73.00 L107.50,86.00 L101.00,90.50 L96.50,95.00 L96.50,96.00 L92.50,99.00 L92.50,100.00 L86.00,107.50 L84.00,107.50 L76.00,103.50 L73.00,103.50 L68.00,101.50 L55.00,101.50 L54.00,102.50 L52.00,102.50 L50.50,101.00 L51.50,99.00 L64.50,81.00 L87.00,59.50 L90.00,58.50 L94.00,54.50Z M248.50,51.00 L249.00,50.50 L253.00,52.50 L265.00,61.50 L284.50,80.00 L298.50,99.00 L299.50,101.00 L298.00,102.50 L296.00,102.50 L295.00,101.50 L282.00,101.50 L281.00,102.50 L278.00,102.50 L277.00,103.50 L264.00,107.50 L263.50,106.00 L256.50,99.00 L256.50,98.00 L242.50,86.00 L242.50,84.00 L244.50,81.00 L244.50,79.00 L247.50,72.00 L247.50,69.00 L248.50,68.00 L248.50,55.00 L247.50,54.00 L247.50,52.00Z M108.50,57.00 L110.00,56.50 L113.00,58.50 L123.50,69.00 L126.50,74.00 L121.00,77.50 L118.50,75.00 L114.50,66.00Z M239.50,57.00 L241.50,57.00 L235.50,66.00 L231.50,75.00 L229.00,77.50 L224.00,74.50 L223.50,73.00 L226.50,69.00Z M104.50,59.00 L106.50,59.00 L110.50,67.00 L112.50,69.00 L115.50,76.00 L117.50,78.00 L117.50,79.00 L113.00,82.50 L111.00,82.50 L109.50,80.00 L109.50,78.00 L106.50,71.00 L106.50,68.00 L105.50,67.00Z M243.50,59.00 L245.50,59.00 L244.50,67.00 L243.50,68.00 L243.50,71.00 L242.50,72.00 L241.50,77.00 L239.50,80.00 L239.50,82.00 L238.00,82.50 L234.00,80.50 L232.50,78.00 L234.50,76.00 L237.50,69.00 L239.50,67.00Z M160.50,67.00 L161.50,67.00 L161.50,69.00 L160.50,70.00 L160.50,89.00 L159.50,90.00 L159.50,101.00 L158.00,102.50 L152.00,103.50 L147.50,97.00 L145.50,92.00 L133.50,75.00 L135.00,73.50 L137.00,73.50 L147.00,69.50Z M165.50,67.00 L173.50,67.00 L173.50,82.00 L169.50,85.00 L169.50,87.00 L167.50,90.00 L167.50,93.00 L166.50,94.00 L166.50,99.00 L164.00,100.50 L163.50,80.00 L164.50,79.00 L164.50,68.00Z M176.50,67.00 L184.00,66.50 L185.50,68.00 L185.50,79.00 L186.50,80.00 L186.00,100.50 L183.50,99.00 L183.50,94.00 L182.50,93.00 L182.50,90.00 L180.50,87.00 L180.50,85.00 L176.50,82.00Z M188.50,68.00 L194.00,67.50 L195.00,68.50 L199.00,68.50 L200.00,69.50 L203.00,69.50 L204.00,70.50 L215.00,73.50 L216.50,75.00 L211.50,81.00 L210.50,84.00 L206.50,89.00 L205.50,92.00 L198.00,103.50 L192.00,102.50 L190.50,101.00 L190.50,90.00 L189.50,89.00 L189.50,70.00Z M127.50,77.00 L129.00,76.50 L135.50,85.00 L138.50,91.00 L145.50,101.00 L147.50,105.00 L147.00,105.50 L146.00,105.50 L140.50,100.00 L140.50,99.00 L138.50,98.00 L138.00,96.50 L134.00,94.50 L129.50,94.00 L127.50,89.00 L125.50,87.00 L122.50,81.00 L123.00,79.50Z M220.50,77.00 L222.00,76.50 L224.00,78.50 L227.50,80.00 L220.50,94.00 L215.00,94.50 L211.00,98.50 L210.00,98.50 L204.00,105.50 L203.00,105.50 L202.50,105.00 L204.50,101.00 L206.50,99.00 L210.50,91.00 L213.50,88.00 L216.50,82.00Z M118.50,82.00 L119.50,82.00 L126.50,94.00 L126.50,107.00 L129.50,114.00 L129.00,115.50 L127.50,115.00 L124.50,109.00 L122.50,107.00 L122.50,105.00 L120.50,103.00 L112.50,86.00Z M230.50,82.00 L231.00,81.50 L237.00,85.50 L237.50,87.00 L224.50,112.00 L222.50,115.00 L221.00,115.50 L220.50,114.00 L223.50,106.00 L223.50,94.00Z M108.50,89.00 L109.50,89.00 L110.50,93.00 L117.50,107.00 L119.50,109.00 L122.50,116.00 L124.50,118.00 L120.00,124.50 L118.00,124.50 L116.00,122.50 L109.00,119.50 L107.00,117.50 L105.00,117.50 L103.00,115.50 L89.50,109.00 L90.50,106.00 L97.50,99.00 L97.50,98.00Z M240.50,89.00 L241.00,88.50 L244.00,90.50 L251.00,97.50 L252.00,97.50 L261.50,109.00 L245.00,116.50 L243.00,118.50 L241.00,118.50 L239.00,120.50 L231.00,124.50 L226.50,121.00 L225.50,118.00 L231.50,109.00 L240.50,91.00Z M172.50,90.00 L173.50,90.00 L173.50,100.00 L170.00,100.50 L170.50,95.00Z M176.50,90.00 L177.00,89.50 L178.50,92.00 L180.00,100.50 L176.50,100.00Z M134.50,101.00 L135.00,100.50 L141.50,107.00 L141.00,108.50 L138.50,109.00Z M214.50,101.00 L215.00,100.50 L215.50,102.00 L211.50,109.00 L209.00,108.50 L208.50,107.00Z M130.50,103.00 L131.00,102.50 L132.50,104.00 L135.50,110.00 L134.00,112.50 L131.50,109.00Z M169.50,103.00 L173.50,103.00 L173.00,137.50 L168.50,137.00 L168.50,107.00 L169.50,106.00Z M176.50,103.00 L180.00,102.50 L180.50,106.00 L181.50,107.00 L181.00,137.50 L176.50,137.00Z M218.50,103.00 L219.50,103.00 L218.50,109.00 L216.00,112.50 L213.50,111.00 L215.50,109.00Z M163.50,104.00 L165.50,104.00 L165.50,109.00 L164.50,110.00 L164.00,133.50 L156.50,122.00 L158.00,121.50 L159.00,122.50 L162.00,122.50 L163.50,121.00Z M184.50,104.00 L186.50,104.00 L186.50,121.00 L188.00,122.50 L192.50,123.00 L186.00,133.50 L185.50,110.00 L184.50,109.00Z M48.50,105.00 L50.00,104.50 L51.50,106.00 L52.50,112.00 L57.50,119.00 L60.00,120.50 L64.00,125.50 L71.50,131.00 L71.50,134.00 L69.50,137.00 L69.50,139.00 L67.50,143.00 L67.50,146.00 L66.50,147.00 L66.50,150.00 L65.50,151.00 L64.50,161.00 L61.00,162.50 L55.00,162.50 L54.00,163.50 L51.00,163.50 L50.00,164.50 L47.00,164.50 L46.00,165.50 L41.00,166.50 L36.00,169.50 L33.00,173.50 L30.00,173.50 L29.50,169.00 L30.50,168.00 L30.50,158.00 L31.50,157.00 L31.50,151.00 L32.50,150.00 L32.50,146.00 L33.50,145.00 L35.50,134.00 L37.50,131.00 L37.50,128.00 L39.50,125.00 L41.50,118.00Z M58.50,105.00 L62.00,104.50 L63.00,105.50 L71.00,106.50 L72.00,107.50 L77.00,108.50 L80.00,110.50 L82.00,110.50 L82.50,112.00 L79.50,117.00 L78.00,117.50 L76.00,115.50 L62.00,108.50 L59.00,106.50Z M157.50,105.00 L159.50,105.00 L159.00,115.50 L153.50,107.00 L155.00,105.50Z M190.50,105.00 L192.00,104.50 L196.50,107.00 L191.00,116.50Z M287.50,105.00 L291.00,104.50 L291.00,106.50 L283.00,110.50 L281.00,112.50 L274.00,115.50 L272.00,117.50 L269.50,116.00 L267.50,112.00 L268.00,110.50 L273.00,109.50 L276.00,107.50Z M299.50,105.00 L301.00,104.50 L302.50,106.00 L308.50,118.00 L308.50,120.00 L312.50,128.00 L312.50,131.00 L314.50,134.00 L314.50,137.00 L316.50,142.00 L316.50,146.00 L317.50,147.00 L317.50,151.00 L318.50,152.00 L318.50,157.00 L319.50,158.00 L319.50,167.00 L320.50,168.00 L320.00,173.50 L317.00,173.50 L313.00,168.50 L307.00,165.50 L304.00,165.50 L299.00,163.50 L295.00,163.50 L294.00,162.50 L289.00,162.50 L285.50,161.00 L284.50,151.00 L283.50,150.00 L283.50,147.00 L282.50,146.00 L282.50,143.00 L281.50,142.00 L280.50,137.00 L278.50,134.00 L278.50,131.00 L292.50,119.00 L292.50,118.00 L296.50,114.00 L298.50,109.00 L298.50,106.00Z M148.50,108.00 L149.50,108.00 L149.00,109.50Z M200.50,108.00 L201.50,108.00 L201.00,109.50Z M56.50,109.00 L59.00,109.50 L66.00,114.50 L75.00,118.50 L77.50,121.00 L75.50,123.00 L75.50,125.00 L74.00,127.50 L58.50,113.00Z M292.50,109.00 L293.00,108.50 L293.50,110.00 L291.50,113.00 L276.00,127.50 L274.50,125.00 L273.50,120.00Z M149.50,110.00 L150.50,110.00 L150.00,111.50Z M199.50,110.00 L200.50,110.00 L200.00,111.50Z M142.50,111.00 L144.00,110.50 L145.50,112.00 L151.50,121.00 L152.50,124.00 L156.50,129.00 L156.50,131.00 L158.50,133.00 L161.50,139.00 L161.00,139.50 L157.00,140.50 L155.50,139.00 L149.50,127.00 L147.50,125.00 L142.50,115.00 L140.50,113.00 L140.50,112.00Z M205.50,111.00 L207.00,110.50 L209.50,112.00 L205.50,120.00 L200.50,127.00 L194.50,139.00 L193.00,140.50 L189.00,139.50 L188.50,139.00 L191.50,133.00 L193.50,131.00 L193.50,129.00Z M85.50,113.00 L87.00,112.50 L105.00,121.50 L107.00,123.50 L114.00,126.50 L115.50,129.00 L114.00,129.50 L107.00,126.50 L94.00,126.50 L92.00,125.50 L90.00,123.50 L81.50,119.00Z M263.50,113.00 L264.50,113.00 L268.50,119.00 L260.00,123.50 L258.00,125.50 L256.00,126.50 L243.00,126.50 L236.00,129.50 L234.50,129.00 L236.00,126.50 L243.00,123.50 L245.00,121.50Z M136.50,114.00 L137.00,113.50 L139.50,116.00 L145.50,128.00 L147.50,130.00 L152.50,140.00 L154.50,142.00 L152.00,144.50 L149.50,144.00 L146.50,138.00 L144.50,136.00 L144.50,134.00 L139.50,127.00 L137.50,123.00 L137.50,121.00 L134.50,116.00Z M212.50,114.00 L213.00,113.50 L215.50,116.00 L214.50,117.00 L214.50,119.00 L210.50,125.00 L207.50,132.00 L205.50,134.00 L205.50,136.00 L199.00,145.50 L196.00,143.50 L195.50,142.00 L197.50,140.00 L199.50,135.00 L201.50,133.00 L210.50,116.00Z M129.50,119.00 L131.50,119.00 L132.50,121.00 L132.00,122.50Z M218.50,119.00 L220.50,119.00 L219.00,120.50Z M79.50,123.00 L81.00,122.50 L87.00,125.50 L89.00,127.50 L94.00,129.50 L95.50,136.00 L101.50,142.00 L101.50,143.00 L105.50,146.00 L105.50,147.00 L103.00,146.50 L101.00,144.50 L93.00,140.50 L78.00,130.50 L76.50,129.00Z M125.50,123.00 L127.50,123.00 L130.50,129.00 L130.00,130.50 L125.00,128.50 L122.50,126.00Z M132.50,123.00 L133.50,123.00 L133.00,124.50Z M223.50,123.00 L224.00,122.50 L227.50,126.00 L227.50,127.00 L220.00,130.50 L219.50,129.00Z M268.50,123.00 L270.00,122.50 L271.50,124.00 L273.50,129.00 L268.00,133.50 L265.00,134.50 L262.00,137.50 L259.00,138.50 L254.00,142.50 L245.00,147.50 L244.50,146.00 L249.00,141.50 L250.00,141.50 L254.50,136.00 L255.50,134.00 L255.50,130.00Z M133.50,125.00 L134.50,125.00 L134.00,126.50Z M230.50,130.00 L231.50,130.00 L231.00,131.50 L229.50,131.00Z M102.50,131.00 L105.00,130.50 L106.00,131.50 L109.00,131.50 L112.50,134.00 L110.00,135.50Z M244.50,131.00 L247.50,131.00 L240.00,135.50 L237.50,134.00 L241.00,131.50Z M137.50,133.00 L138.50,133.00 L140.50,138.00 L142.50,140.00 L144.50,144.00 L144.00,144.50 L132.50,138.00 L137.00,137.50Z M211.50,133.00 L212.50,133.00 L213.00,137.50 L217.50,138.00 L207.00,143.50 L206.50,142.00 L209.50,138.00Z M74.50,134.00 L75.00,133.50 L89.00,143.50 L92.00,144.50 L94.00,146.50 L103.00,151.50 L103.50,154.00 L102.50,155.00 L102.50,158.00 L101.00,159.50 L90.00,159.50 L89.00,160.50 L70.00,160.50 L68.00,161.50 L67.50,155.00 L68.50,154.00 L69.50,147.00Z M274.50,134.00 L275.00,133.50 L276.50,135.00 L276.50,137.00 L280.50,147.00 L280.50,150.00 L282.50,155.00 L282.00,161.50 L280.00,160.50 L261.00,160.50 L260.00,159.50 L249.00,159.50 L247.50,158.00 L246.50,152.00 L248.00,150.50 L253.00,148.50Z M100.50,135.00 L102.00,134.50 L109.00,138.50 L108.50,141.00 L107.00,141.50Z M115.50,135.00 L116.00,134.50 L119.00,136.50 L121.00,136.50 L125.00,138.50 L134.00,144.50 L136.00,144.50 L138.00,146.50 L143.00,148.50 L145.50,151.00 L143.50,154.00 L142.00,154.50 L140.00,152.50 L135.00,150.50 L128.00,145.50 L116.00,139.50 L114.50,138.00 L114.50,136.00Z M233.50,135.00 L234.00,134.50 L236.50,137.00 L234.00,139.50 L222.00,145.50 L220.00,147.50 L210.00,152.50 L208.00,154.50 L205.50,153.00 L204.50,151.00 L207.00,148.50 L209.00,148.50 L214.00,144.50 L216.00,144.50 L223.00,139.50 L225.00,139.50Z M247.50,135.00 L249.50,135.00 L243.00,141.50 L242.00,141.50 L240.50,139.00Z M170.50,140.00 L173.50,140.00 L173.00,168.50 L168.50,160.00 L166.50,158.00 L164.50,153.00 L162.50,151.00 L160.50,146.00 L158.50,144.00 L163.00,141.50 L167.00,141.50Z M176.50,140.00 L179.00,139.50 L183.00,141.50 L187.00,141.50 L191.50,144.00 L189.50,146.00 L187.50,151.00 L185.50,153.00 L183.50,158.00 L181.50,160.00 L177.00,168.50Z M111.50,141.00 L113.00,140.50 L115.00,142.50 L120.00,144.50 L127.00,149.50 L139.00,155.50 L140.50,157.00 L139.50,161.00 L138.00,161.50 L131.00,156.50 L129.00,156.50 L124.00,152.50 L121.00,151.50 L112.00,145.50 L110.50,144.00Z M236.50,141.00 L238.00,140.50 L239.50,143.00 L238.00,145.50 L229.00,151.50 L226.00,152.50 L221.00,156.50 L219.00,156.50 L214.00,160.50 L212.00,161.50 L210.50,161.00 L209.50,157.00 L211.00,155.50 L216.00,153.50 L218.00,151.50 L223.00,149.50 L225.00,147.50 L228.00,146.50Z M155.50,146.00 L156.50,146.00 L159.50,152.00 L161.50,154.00 L163.50,159.00 L169.50,168.00 L169.00,169.50 L145.50,156.00 L146.50,154.00 L150.00,151.50 L154.00,146.50Z M193.50,146.00 L195.00,145.50 L198.50,149.00 L198.50,150.00 L204.50,155.00 L204.50,156.00 L181.00,169.50 L180.50,168.00 L182.50,166.00 L184.50,161.00 L186.50,159.00 L188.50,154.00 L190.50,152.00Z M106.50,154.00 L107.00,153.50 L111.00,155.50 L115.50,159.00 L105.00,159.50 L104.50,158.00Z M242.50,154.00 L243.00,153.50 L244.50,155.00 L244.50,157.00 L245.50,158.00 L245.00,159.50 L233.50,159.00Z M122.50,158.00 L123.00,157.50 L127.00,159.50 L129.00,161.50 L134.00,163.50 L134.00,164.50 L103.50,165.00 L104.00,163.50 L121.00,163.50 L122.50,162.00Z M226.50,158.00 L227.50,158.00 L227.50,162.00 L229.00,163.50 L246.00,163.50 L246.50,165.00 L216.00,164.50 L216.00,163.50Z M143.50,159.00 L144.00,158.50 L146.00,160.50 L151.00,162.50 L153.00,164.50 L158.00,166.50 L160.00,168.50 L168.50,173.00 L140.00,173.50 L139.50,170.00 L141.50,167.00 L141.50,163.00Z M205.50,159.00 L206.50,159.00 L208.50,163.00 L208.50,167.00 L210.50,170.00 L210.00,173.50 L181.50,173.00Z M79.50,164.00 L100.00,163.50 L100.50,165.00 L99.00,166.50 L94.00,166.50 L93.00,167.50 L88.00,168.50 L84.00,170.50 L82.00,173.50 L67.00,173.50 L66.50,166.00 L68.00,164.50Z M249.50,164.00 L270.00,163.50 L271.00,164.50 L282.00,164.50 L283.50,166.00 L283.50,173.00 L268.00,173.50 L267.50,172.00 L263.00,168.50 L257.00,167.50 L256.00,166.50 L251.00,166.50Z M60.50,166.00 L63.50,166.00 L63.00,173.50 L39.50,173.00 L45.00,169.50 L47.00,169.50 L51.00,167.50 L55.00,167.50 L56.00,166.50Z M286.50,166.00 L289.00,165.50 L290.00,166.50 L299.00,167.50 L300.00,168.50 L305.00,169.50 L310.50,173.00 L287.00,173.50Z M106.50,169.00 L137.00,168.50 L137.50,173.00 L103.00,173.50 L102.50,170.00Z M212.50,169.00 L243.00,168.50 L244.00,169.50 L247.00,169.50 L247.50,173.00 L213.00,173.50Z M99.50,170.00 L100.50,170.00 L100.00,173.50 L88.50,173.00 L95.00,170.50Z M249.50,170.00 L251.00,169.50 L252.00,170.50 L255.00,170.50 L261.50,173.00 L250.00,173.50Z M29.50,177.00 L33.00,176.50 L36.00,180.50 L41.00,183.50 L43.00,183.50 L47.00,185.50 L50.00,185.50 L51.00,186.50 L54.00,186.50 L55.00,187.50 L61.00,187.50 L64.50,189.00 L65.50,199.00 L66.50,200.00 L66.50,203.00 L67.50,204.00 L67.50,207.00 L68.50,208.00 L69.50,213.00 L71.50,216.00 L71.50,219.00 L64.00,224.50 L60.50,228.00 L60.50,229.00 L57.50,231.00 L57.50,232.00 L53.50,236.00 L51.50,241.00 L51.50,244.00 L50.00,245.50 L47.50,244.00 L41.50,232.00 L41.50,230.00 L37.50,222.00 L37.50,219.00 L35.50,216.00 L35.50,213.00 L34.50,212.00 L34.50,209.00 L32.50,204.00 L32.50,200.00 L31.50,199.00Z M39.50,177.00 L63.00,176.50 L63.50,184.00 L61.00,184.50 L60.00,183.50 L51.00,182.50 L50.00,181.50 L45.00,180.50Z M66.50,177.00 L82.00,176.50 L84.00,179.50 L94.00,183.50 L99.00,183.50 L100.50,186.00 L80.00,186.50 L79.00,185.50 L68.00,185.50 L66.50,184.00Z M88.50,177.00 L100.00,176.50 L100.50,180.00 L95.00,179.50Z M102.50,177.00 L137.00,176.50 L137.50,181.00 L107.00,181.50 L106.00,180.50 L103.00,180.50Z M139.50,177.00 L168.50,177.00 L160.00,181.50 L158.00,183.50 L153.00,185.50 L151.00,187.50 L146.00,189.50 L144.00,191.50 L141.50,187.00 L141.50,183.00 L139.50,180.00Z M181.50,177.00 L210.00,176.50 L210.50,180.00 L208.50,183.00 L208.50,187.00 L206.00,191.50 L204.00,189.50 L199.00,187.50 L197.00,185.50 L192.00,183.50 L190.00,181.50Z M212.50,177.00 L247.00,176.50 L247.50,180.00 L244.00,180.50 L243.00,181.50 L213.00,181.50Z M249.50,177.00 L261.50,177.00 L255.00,179.50 L252.00,179.50 L251.00,180.50 L249.50,180.00Z M267.50,177.00 L283.00,176.50 L283.50,184.00 L282.00,185.50 L271.00,185.50 L270.00,186.50 L249.50,186.00 L251.00,183.50 L256.00,183.50 L257.00,182.50 L263.00,181.50 L266.00,179.50Z M286.50,177.00 L310.50,177.00 L305.00,180.50 L303.00,180.50 L299.00,182.50 L290.00,183.50 L289.00,184.50 L286.50,184.00Z M316.50,177.00 L320.50,177.00 L319.50,192.00 L318.50,193.00 L318.50,198.00 L317.50,199.00 L316.50,208.00 L315.50,209.00 L314.50,216.00 L312.50,219.00 L312.50,222.00 L310.50,225.00 L308.50,232.00 L302.50,244.00 L300.00,245.50 L298.50,244.00 L298.50,241.00 L296.50,236.00 L291.00,229.50 L290.00,229.50 L278.50,219.00 L278.50,216.00 L280.50,213.00 L280.50,211.00 L282.50,207.00 L282.50,204.00 L284.50,199.00 L284.50,195.00 L285.50,194.00 L285.50,189.00 L289.00,187.50 L294.00,187.50 L295.00,186.50 L299.00,186.50 L300.00,185.50 L307.00,184.50 L313.00,181.50Z M167.50,181.00 L169.00,180.50 L169.50,182.00 L167.50,184.00 L161.50,196.00 L159.50,198.00 L156.50,204.00 L154.00,203.50 L145.50,194.00Z M180.50,181.00 L182.00,180.50 L184.00,182.50 L196.00,188.50 L198.00,190.50 L204.00,193.50 L204.50,195.00 L201.00,198.50 L200.00,198.50 L195.00,204.50 L194.00,204.50Z M172.50,182.00 L173.50,182.00 L173.50,210.00 L171.00,210.50 L167.00,208.50 L163.00,208.50 L158.50,206.00 L160.50,204.00 L162.50,199.00 L164.50,197.00Z M176.50,182.00 L177.50,182.00 L185.50,197.00 L187.50,199.00 L189.50,204.00 L191.50,206.00 L187.00,208.50 L183.00,208.50 L179.00,210.50 L176.50,210.00Z M103.50,185.00 L109.00,184.50 L110.00,185.50 L134.50,186.00 L123.00,192.50 L122.50,188.00 L121.00,186.50 L104.00,186.50Z M240.50,185.00 L246.00,184.50 L246.00,186.50 L229.00,186.50 L227.50,188.00 L227.00,192.50 L215.50,186.00Z M67.50,189.00 L101.00,190.50 L102.50,192.00 L103.50,198.00 L92.00,205.50 L89.00,206.50 L75.00,216.50 L73.50,215.00 L73.50,213.00 L69.50,203.00 L69.50,200.00 L67.50,195.00Z M137.50,189.00 L139.00,188.50 L140.50,191.00 L140.50,193.00 L139.00,194.50 L127.00,200.50 L125.00,202.50 L115.00,207.50 L113.00,209.50 L111.50,209.00 L110.50,206.00 L112.00,204.50Z M210.50,189.00 L212.00,188.50 L214.00,189.50 L219.00,193.50 L221.00,193.50 L226.00,197.50 L229.00,198.50 L238.00,204.50 L239.50,206.00 L238.50,209.00 L237.00,209.50 L235.00,207.50 L230.00,205.50 L223.00,200.50 L211.00,194.50 L209.50,193.00Z M280.50,189.00 L282.50,189.00 L282.50,195.00 L281.50,196.00 L280.50,203.00 L279.50,204.00 L276.50,215.00 L275.00,216.50 L264.00,208.50 L261.00,207.50 L253.00,201.50 L248.00,199.50 L246.50,198.00 L247.50,192.00 L249.00,190.50Z M104.50,191.00 L115.50,191.00 L107.00,196.50 L105.50,195.00Z M233.50,191.00 L245.00,190.50 L245.50,192.00 L243.00,196.50Z M141.50,196.00 L143.00,195.50 L145.50,199.00 L143.00,201.50 L138.00,203.50 L136.00,205.50 L134.00,205.50 L132.00,207.50 L127.00,209.50 L121.00,213.50 L119.00,213.50 L116.00,215.50 L114.50,214.00 L114.50,212.00 L116.00,210.50 L121.00,208.50 L123.00,206.50 L128.00,204.50 L130.00,202.50 L133.00,201.50Z M207.50,196.00 L208.00,195.50 L210.00,197.50 L215.00,199.50 L222.00,204.50 L234.00,210.50 L236.50,213.00 L234.00,215.50 L225.00,210.50 L223.00,210.50 L216.00,205.50 L214.00,205.50 L209.00,201.50 L207.00,201.50 L204.50,199.00 L205.50,197.00Z M104.50,203.00 L105.00,202.50 L105.50,204.00 L102.00,206.50 L101.50,208.00 L95.50,214.00 L94.00,220.50 L89.00,222.50 L87.00,224.50 L81.00,227.50 L78.50,226.00 L76.50,221.00 L78.00,219.50Z M244.50,203.00 L245.00,202.50 L249.00,204.50 L272.00,219.50 L273.50,221.00 L271.50,226.00 L269.00,227.50 L263.00,224.50 L261.00,222.50 L256.00,220.50 L254.50,214.00 L252.50,211.00 L244.50,204.00Z M198.50,205.00 L199.00,204.50 L200.50,206.00 L201.50,209.00 L205.50,214.00 L205.50,216.00 L207.50,218.00 L210.50,225.00 L214.50,231.00 L214.50,233.00 L215.50,234.00 L213.00,236.50 L210.50,234.00 L204.50,222.00 L202.50,220.00 L197.50,210.00 L195.50,208.00 L195.50,207.00Z M142.50,206.00 L144.50,206.00 L138.00,217.50 L137.50,213.00 L132.50,212.00 L138.00,209.50Z M149.50,206.00 L152.00,205.50 L154.50,208.00 L152.50,210.00 L150.50,215.00 L145.50,222.00 L139.50,234.00 L137.00,236.50 L134.50,234.00 L137.50,229.00 L137.50,227.00 L139.50,223.00 L144.50,216.00 L144.50,214.00 L146.50,212.00Z M206.50,207.00 L208.00,206.50 L217.50,212.00 L213.00,212.50 L212.00,217.50Z M106.50,209.00 L108.00,208.50 L109.50,211.00 L101.00,215.50 L100.50,215.00Z M241.50,209.00 L243.00,208.50 L249.50,215.00 L248.00,215.50 L241.00,211.50Z M156.50,210.00 L159.00,209.50 L161.50,211.00 L151.50,229.00 L145.50,238.00 L143.00,239.50 L141.00,238.50 L140.50,237.00 L142.50,235.00 L144.50,230.00 L146.50,228.00Z M190.50,210.00 L193.00,209.50 L194.50,211.00 L200.50,223.00 L202.50,225.00 L207.50,235.00 L209.50,237.00 L209.00,238.50 L206.00,239.50 L198.50,229.00 L188.50,211.00Z M168.50,213.00 L173.50,213.00 L173.00,247.50 L170.00,247.50 L169.50,244.00 L168.50,243.00Z M176.50,213.00 L181.50,213.00 L181.50,243.00 L180.50,244.00 L180.00,247.50 L176.50,247.00Z M109.50,215.00 L111.00,214.50 L112.50,216.00 L111.00,217.50 L106.00,218.50 L105.00,219.50 L102.50,219.00Z M238.50,215.00 L240.00,214.50 L247.50,219.00 L245.00,219.50 L244.00,218.50 L241.00,218.50 L237.50,216.00Z M163.50,217.00 L164.50,217.00 L165.00,246.50 L163.50,246.00 L163.50,229.00 L162.00,227.50 L159.00,227.50 L158.00,228.50 L156.50,228.00 L158.50,226.00Z M185.50,217.00 L186.00,216.50 L187.50,218.00 L192.50,227.00 L188.00,227.50 L186.50,229.00 L186.00,246.50 L184.50,246.00 L184.50,241.00 L185.50,240.00Z M229.50,219.00 L231.00,218.50 L231.50,220.00 L231.00,220.50Z M128.50,220.00 L130.00,219.50 L130.50,221.00 L127.50,227.00 L126.00,227.50 L122.50,224.00 L125.00,221.50Z M219.50,220.00 L221.00,219.50 L227.00,222.50 L227.50,224.00 L224.00,227.50 L221.50,225.00Z M113.50,221.00 L115.50,221.00 L114.00,223.50 L87.00,237.50 L85.50,237.00 L81.50,231.00 L94.00,223.50 L107.00,223.50Z M234.50,221.00 L236.00,220.50 L243.00,223.50 L256.00,223.50 L268.50,231.00 L264.00,237.50 L236.00,223.50Z M73.50,223.00 L74.50,223.00 L75.50,227.00 L77.50,229.00 L75.00,231.50 L66.00,235.50 L57.00,241.50 L56.50,240.00 L58.50,237.00Z M275.50,223.00 L276.00,222.50 L280.00,225.50 L291.50,237.00 L293.50,240.00 L293.00,241.50 L273.50,230.00Z M133.50,224.00 L134.50,224.00 L134.00,225.50Z M117.50,226.00 L120.00,225.50 L124.50,232.00 L122.50,234.00 L119.50,241.00 L117.50,243.00 L109.00,261.50 L97.50,252.00 L97.50,251.00 L90.50,244.00 L89.50,241.00 L103.00,234.50 L105.00,232.50 L107.00,232.50 L109.00,230.50 L116.00,227.50Z M132.50,226.00 L133.50,226.00 L133.00,227.50Z M230.50,226.00 L232.00,225.50 L241.00,231.50 L243.00,231.50 L245.00,233.50 L261.50,241.00 L252.50,251.00 L252.50,252.00 L241.00,261.50 L231.50,241.00 L225.50,232.00 L226.50,229.00Z M131.50,228.00 L132.00,227.50 L132.50,229.00 L131.50,231.00 L130.00,231.50 L129.50,231.00Z M218.50,230.00 L219.00,229.50 L220.50,231.00 L219.00,231.50Z M77.50,233.00 L79.50,233.00 L82.50,238.00 L82.00,239.50 L80.00,239.50 L77.00,241.50 L75.00,241.50 L71.00,243.50 L68.00,243.50 L67.00,244.50 L63.00,244.50 L62.00,245.50 L58.50,245.00 L58.50,244.00 L62.00,241.50 L67.00,239.50 L69.00,237.50 L76.00,234.50Z M270.50,233.00 L272.00,232.50 L274.00,234.50 L281.00,237.50 L283.00,239.50 L291.00,243.50 L291.50,245.00 L288.00,245.50 L287.00,244.50 L283.00,244.50 L282.00,243.50 L279.00,243.50 L273.00,240.50 L268.00,239.50 L267.50,238.00Z M190.50,234.00 L191.50,234.00 L196.50,243.00 L192.00,245.50 L190.50,245.00Z M127.50,235.00 L129.00,234.50 L129.50,236.00 L126.50,243.00 L126.50,256.00 L119.00,268.50 L112.50,264.00 L120.50,247.00 L122.50,245.00 L122.50,243.00 L124.50,241.00Z M158.50,235.00 L159.50,235.00 L159.00,245.50 L155.00,244.50 L153.50,243.00Z M220.50,235.00 L222.00,234.50 L224.50,238.00 L237.50,263.00 L237.00,264.50 L231.00,268.50 L223.50,256.00 L223.50,244.00 L222.50,243.00 L222.50,240.00Z M133.50,238.00 L134.00,237.50 L135.50,240.00 L131.00,247.50 L130.50,245.00 L131.50,244.00 L131.50,241.00Z M215.50,238.00 L216.00,237.50 L218.50,241.00 L218.50,244.00 L219.50,245.00 L219.00,247.50 L213.50,239.00Z M149.50,239.00 L150.50,239.00 L150.00,240.50Z M199.50,239.00 L200.50,239.00 L200.00,240.50Z M138.50,241.00 L141.00,241.50 L141.50,243.00 L135.00,249.50 L134.50,248.00Z M148.50,241.00 L149.50,241.00 L149.00,242.50Z M200.50,241.00 L201.50,241.00 L201.00,242.50Z M210.50,241.00 L211.00,240.50 L213.50,244.00 L215.50,248.00 L215.00,249.50 L208.50,243.00 L208.50,242.00Z M83.50,243.00 L86.00,242.50 L92.50,250.00 L92.50,251.00 L96.00,253.50 L101.00,259.50 L107.50,264.00 L103.50,277.00 L102.50,278.00 L102.50,281.00 L101.50,282.00 L101.50,295.00 L102.50,296.00 L102.50,298.00 L101.00,299.50 L97.00,296.50 L94.00,295.50 L90.00,291.50 L87.00,290.50 L80.00,283.50 L79.00,283.50 L64.50,269.00 L50.50,249.00 L52.00,247.50 L54.00,247.50 L55.00,248.50 L68.00,248.50 L69.00,247.50 L76.00,246.50Z M263.50,243.00 L265.00,242.50 L266.00,243.50 L268.00,243.50 L278.00,247.50 L281.00,247.50 L282.00,248.50 L295.00,248.50 L296.00,247.50 L298.00,247.50 L299.50,249.00 L292.50,260.00 L284.50,269.00 L284.50,270.00 L265.00,288.50 L253.00,297.50 L249.00,299.50 L247.50,298.00 L247.50,296.00 L248.50,295.00 L248.50,282.00 L247.50,281.00 L247.50,278.00 L246.50,277.00 L244.50,269.00 L242.50,266.00 L242.50,264.00 L254.00,253.50 L255.00,253.50 L263.50,244.00Z M145.50,245.00 L147.50,245.00 L145.50,249.00 L130.50,272.00 L128.00,273.50 L126.00,271.50 L123.00,270.50 L122.50,269.00 L125.50,263.00 L127.50,261.00 L129.50,256.00 L134.00,255.50 L138.00,253.50 L138.50,252.00 L140.00,251.50Z M202.50,245.00 L204.00,244.50 L207.50,248.00 L207.50,249.00 L215.00,255.50 L220.50,256.00 L222.50,261.00 L224.50,263.00 L227.50,269.00 L227.00,270.50 L224.00,271.50 L222.00,273.50 L219.50,272.00 L213.50,262.00 L210.50,259.00 L209.50,256.00 L207.50,254.00Z M151.50,247.00 L154.00,246.50 L155.00,247.50 L158.00,247.50 L159.50,249.00 L159.50,260.00 L160.50,261.00 L160.50,280.00 L161.50,281.00 L161.00,283.50 L160.00,282.50 L156.00,282.50 L155.00,281.50 L147.00,280.50 L146.00,279.50 L135.00,276.50 L133.50,275.00 L145.50,258.00 L147.50,253.00Z M195.50,247.00 L198.00,246.50 L199.50,248.00 L200.50,251.00 L210.50,266.00 L211.50,269.00 L216.50,275.00 L215.00,276.50 L213.00,276.50 L203.00,280.50 L195.00,281.50 L194.00,282.50 L189.00,282.50 L190.50,249.00 L192.00,247.50Z M163.50,250.00 L165.00,249.50 L166.50,251.00 L166.50,256.00 L167.50,257.00 L167.50,260.00 L169.50,263.00 L169.50,265.00 L173.50,268.00 L173.00,283.50 L166.00,283.50 L164.50,282.00 L164.50,271.00 L163.50,270.00Z M169.50,250.00 L173.50,250.00 L173.00,260.50 L171.50,258.00 L170.50,251.00Z M176.50,250.00 L180.50,250.00 L179.50,251.00 L179.50,255.00 L177.00,260.50Z M184.50,250.00 L186.50,250.00 L186.50,270.00 L185.50,271.00 L185.50,282.00 L184.00,283.50 L177.00,283.50 L176.50,268.00 L180.50,265.00 L180.50,263.00 L182.50,260.00 L182.50,257.00 L183.50,256.00 L183.50,251.00Z M110.50,268.00 L113.00,267.50 L116.00,269.50 L117.50,272.00 L115.50,274.00 L108.50,288.00 L106.50,291.00 L105.00,291.50 L104.50,288.00 L105.50,287.00 L105.50,283.00 L106.50,282.00 L106.50,279.00Z M237.50,268.00 L239.50,268.00 L239.50,270.00 L241.50,273.00 L241.50,275.00 L243.50,279.00 L244.50,287.00 L245.50,288.00 L245.00,291.50 L244.00,291.50 L241.50,288.00 L234.50,274.00 L232.50,272.00 L234.00,269.50Z M120.50,273.00 L123.00,273.50 L126.00,275.50 L126.50,277.00 L113.00,291.50 L109.00,293.50 L109.50,291.00 L111.50,289.00 L118.50,275.00Z M228.50,273.00 L229.00,272.50 L231.50,275.00 L235.50,284.00 L240.50,291.00 L241.00,293.50 L237.00,291.50 L223.50,277.00 L224.00,275.50Z M130.50,279.00 L134.00,278.50 L137.00,280.50 L143.00,281.50 L147.00,283.50 L161.00,285.50 L162.50,289.00 L162.50,295.00 L164.50,300.00 L164.50,304.00 L166.50,307.00 L166.50,309.00 L168.50,313.00 L173.50,317.00 L173.50,320.00 L169.00,320.50 L168.00,319.50 L158.00,319.50 L157.00,318.50 L151.00,318.50 L150.00,317.50 L146.00,317.50 L145.00,316.50 L134.00,314.50 L131.00,312.50 L128.00,312.50 L125.00,310.50 L118.00,308.50 L106.00,302.50 L104.50,301.00 L106.00,298.50 L109.00,298.50 L114.00,296.50 L123.50,288.00 L123.50,287.00 L130.50,280.00Z M215.50,279.00 L219.00,278.50 L224.50,286.00 L228.00,289.50 L229.00,289.50 L231.00,292.50 L232.00,292.50 L236.00,296.50 L238.00,296.50 L241.00,298.50 L244.00,298.50 L245.50,301.00 L232.00,308.50 L230.00,308.50 L222.00,312.50 L219.00,312.50 L216.00,314.50 L213.00,314.50 L212.00,315.50 L209.00,315.50 L204.00,317.50 L200.00,317.50 L199.00,318.50 L177.00,320.50 L176.50,317.00 L181.50,313.00 L183.50,309.00 L183.50,307.00 L185.50,304.00 L188.50,286.00 L203.00,283.50 L204.00,282.50 L210.00,281.50Z M165.50,287.00 L173.50,287.00 L173.00,311.50 L168.50,302.00Z M176.50,287.00 L184.50,287.00 L181.50,302.00 L178.50,309.00 L177.00,310.50Z" fill="#000000" fill-rule="evenodd" stroke="none"/>
</svg>
