<svg xmlns="http://www.w3.org/2000/svg" viewBox="0 0 350 350">
  <path d="M106.50,33.00 L118.00,32.50 L119.00,33.50 L125.00,34.50 L131.00,37.50 L141.50,49.00 L143.50,53.00 L144.50,61.00 L146.00,64.50 L204.00,64.50 L204.50,61.00 L205.50,60.00 L205.50,56.00 L209.50,47.00 L221.00,36.50 L225.00,34.50 L232.00,33.50 L233.00,32.50 L244.00,32.50 L245.00,33.50 L251.00,34.50 L257.00,37.50 L265.50,46.00 L269.50,53.00 L270.50,61.00 L271.50,62.00 L271.50,70.00 L270.50,71.00 L270.50,75.00 L269.50,76.00 L268.50,81.00 L266.50,83.00 L265.50,86.00 L260.00,91.50 L259.00,91.50 L256.50,95.00 L260.50,101.00 L262.50,106.00 L264.50,108.00 L266.50,113.00 L271.50,120.00 L273.50,125.00 L275.50,127.00 L277.50,132.00 L282.50,139.00 L284.50,144.00 L288.00,144.50 L289.00,143.50 L296.00,142.50 L297.00,141.50 L306.00,141.50 L307.00,142.50 L314.00,143.50 L316.00,145.50 L321.00,147.50 L328.50,155.00 L329.50,158.00 L331.50,160.00 L332.50,165.00 L333.50,166.00 L333.50,170.00 L334.50,171.00 L334.50,179.00 L333.50,180.00 L332.50,188.00 L329.50,192.00 L328.50,195.00 L321.00,202.50 L311.00,207.50 L307.00,207.50 L306.00,208.50 L297.00,208.50 L296.00,207.50 L292.00,207.50 L288.00,205.50 L285.00,205.50 L256.50,255.00 L256.50,256.00 L258.00,256.50 L258.50,258.00 L265.50,264.00 L266.50,267.00 L269.50,271.00 L270.50,279.00 L271.50,280.00 L271.50,288.00 L270.50,289.00 L269.50,297.00 L265.50,304.00 L257.00,312.50 L251.00,315.50 L245.00,316.50 L244.00,317.50 L233.00,317.50 L232.00,316.50 L228.00,316.50 L221.00,313.50 L209.50,303.00 L205.50,294.00 L205.50,290.00 L204.50,289.00 L204.00,285.50 L146.00,285.50 L144.50,289.00 L143.50,297.00 L141.50,301.00 L131.00,312.50 L125.00,315.50 L119.00,316.50 L118.00,317.50 L107.00,317.50 L106.00,316.50 L102.00,316.50 L95.00,313.50 L83.50,303.00 L80.50,297.00 L79.50,290.00 L78.50,289.00 L78.50,279.00 L79.50,278.00 L79.50,275.00 L80.50,274.00 L81.50,269.00 L83.50,265.00 L85.00,264.50 L85.50,263.00 L93.50,256.00 L93.50,255.00 L89.50,249.00 L87.50,244.00 L85.50,242.00 L83.50,237.00 L78.50,230.00 L76.50,225.00 L74.50,223.00 L72.50,218.00 L67.50,211.00 L65.50,206.00 L64.00,204.50 L62.00,206.50 L55.00,207.50 L54.00,208.50 L45.00,208.50 L44.00,207.50 L40.00,207.50 L39.00,206.50 L34.00,205.50 L29.00,202.50 L22.50,196.00 L22.50,195.00 L20.50,194.00 L18.50,190.00 L18.50,188.00 L16.50,185.00 L16.50,181.00 L15.50,180.00 L15.50,170.00 L16.50,169.00 L16.50,165.00 L18.50,162.00 L18.50,160.00 L20.50,156.00 L22.00,155.50 L22.50,154.00 L29.00,147.50 L34.00,144.50 L36.00,144.50 L40.00,142.50 L44.00,142.50 L45.00,141.50 L54.00,141.50 L55.00,142.50 L62.00,143.50 L64.00,145.50 L65.50,144.00 L67.50,139.00 L72.50,132.00 L74.50,127.00 L76.50,125.00 L78.50,120.00 L80.50,118.00 L81.50,115.00 L83.50,113.00 L85.50,108.00 L87.50,106.00 L89.50,101.00 L93.50,95.00 L93.50,94.00 L91.00,92.50 L85.00,85.50 L83.50,85.00 L79.50,75.00 L79.50,72.00 L78.50,71.00 L78.50,61.00 L79.50,60.00 L80.50,53.00 L83.50,47.00 L92.00,38.50 L99.00,34.50Z M105.50,37.00 L117.00,36.50 L118.00,37.50 L121.00,37.50 L124.00,39.50 L126.00,39.50 L130.00,42.50 L137.50,51.00 L140.50,57.00 L141.50,64.00 L111.00,64.50 L96.00,90.50 L89.50,85.00 L83.50,75.00 L83.50,72.00 L82.50,71.00 L82.50,61.00 L83.50,60.00 L83.50,57.00 L85.50,54.00 L85.50,52.00 L88.50,48.00 L95.00,41.50Z M231.50,37.00 L243.00,36.50 L244.00,37.50 L247.00,37.50 L250.00,39.50 L252.00,39.50 L261.50,48.00 L266.50,57.00 L266.50,60.00 L267.50,61.00 L267.50,71.00 L266.50,72.00 L265.50,77.00 L261.50,84.00 L254.00,90.50 L239.00,64.50 L208.50,64.00 L209.50,57.00 L211.50,54.00 L211.50,52.00 L214.50,48.00 L221.00,41.50Z M118.50,68.00 L141.00,67.50 L141.50,71.00 L138.00,79.50 L136.00,77.50 L131.00,75.50 L129.00,73.50Z M145.50,68.00 L204.00,67.50 L207.50,81.00 L205.00,83.50 L200.00,85.50 L194.00,89.50 L192.00,89.50 L184.00,95.50 L175.00,100.50 L166.00,95.50 L161.00,91.50 L145.00,83.50 L142.50,81.00Z M208.50,68.00 L231.50,68.00 L226.00,70.50 L219.00,75.50 L214.00,77.50 L212.00,79.50 L209.50,75.00Z M109.50,73.00 L110.50,73.00 L110.50,95.00 L107.00,95.50 L98.50,92.00 L104.50,83.00Z M239.50,73.00 L240.50,73.00 L241.50,76.00 L243.50,78.00 L245.50,83.00 L250.50,90.00 L251.00,92.50 L246.00,94.50 L243.00,94.50 L242.00,95.50 L239.50,95.00Z M119.50,75.00 L120.00,74.50 L132.50,86.00 L130.00,89.50 L127.50,90.00Z M229.50,75.00 L230.00,74.50 L230.50,76.00 L222.00,90.50 L219.00,88.50 L217.50,86.00Z M115.50,77.00 L116.00,76.50 L117.50,78.00 L119.50,83.00 L124.50,90.00 L125.00,92.50 L120.00,94.50 L118.50,94.00 L118.50,90.00 L117.50,89.00 L117.50,85.00 L116.50,84.00Z M233.50,77.00 L234.50,77.00 L234.50,79.00 L233.50,80.00 L231.50,94.00 L230.00,94.50 L224.50,92.00Z M129.50,79.00 L131.00,78.50 L136.50,82.00 L135.00,83.50Z M218.50,79.00 L220.50,79.00 L215.00,83.50 L213.50,82.00Z M113.50,84.00 L114.50,84.00 L114.50,89.00 L115.50,90.00 L116.00,95.50 L113.50,95.00Z M235.50,84.00 L236.50,84.00 L236.50,95.00 L234.00,95.50 L234.50,90.00 L235.50,89.00Z M139.50,85.00 L141.00,84.50 L145.50,87.00 L139.00,87.50Z M208.50,85.00 L211.00,85.50 L211.00,87.50 L204.50,87.00Z M143.50,91.00 L146.00,90.50 L147.00,91.50 L151.00,91.50 L152.00,92.50 L154.00,92.50 L156.00,94.50 L158.00,94.50 L162.00,97.50 L166.00,102.50 L167.50,103.00 L167.50,105.00 L162.00,107.50Z M203.50,91.00 L206.50,91.00 L188.00,107.50 L183.00,105.50 L181.50,104.00 L183.00,103.50 L183.50,102.00 L192.00,94.50Z M136.50,92.00 L139.00,91.50 L142.00,93.50 L159.50,109.00 L144.00,118.50 L130.50,95.00 L131.00,93.50Z M210.50,92.00 L214.00,91.50 L215.00,92.50 L217.00,92.50 L219.50,95.00 L206.00,118.50 L190.50,109.00Z M96.50,96.00 L97.00,95.50 L103.00,98.50 L108.00,98.50 L110.50,100.00 L110.50,137.00 L108.00,139.50 L103.00,141.50 L99.00,144.50 L95.00,145.50 L87.00,151.50 L77.00,156.50 L76.50,155.00 L69.00,147.50 L67.50,147.00 L67.50,146.00Z M252.50,96.00 L253.00,95.50 L254.50,97.00 L256.50,102.00 L261.50,109.00 L263.50,114.00 L265.50,116.00 L267.50,121.00 L269.50,123.00 L270.50,126.00 L272.50,128.00 L274.50,133.00 L276.50,135.00 L278.50,140.00 L282.50,146.00 L282.50,147.00 L281.00,147.50 L274.50,154.00 L274.50,155.00 L272.00,156.50 L266.00,152.50 L261.00,150.50 L258.00,147.50 L253.00,145.50 L251.00,143.50 L249.00,143.50 L247.00,141.50 L242.00,139.50 L239.50,137.00 L239.50,100.00 L243.00,98.50 L247.00,98.50Z M125.50,97.00 L128.50,97.00 L130.50,102.00 L132.50,104.00 L141.50,120.00 L129.00,126.50 L127.00,128.50 L125.50,128.00 L125.50,126.00 L124.50,125.00 L124.50,121.00 L123.50,120.00 L123.50,116.00 L122.50,115.00 L122.50,111.00 L121.50,110.00 L121.50,106.00 L120.50,105.00 L120.50,102.00Z M221.50,97.00 L223.00,96.50 L225.00,97.50 L229.50,103.00 L228.50,110.00 L227.50,111.00 L227.50,115.00 L226.50,116.00 L226.50,120.00 L225.50,121.00 L225.50,125.00 L224.00,128.50 L208.50,120.00 L217.50,104.00 L219.50,102.00Z M233.50,99.00 L234.00,98.50 L236.50,100.00 L236.00,104.50Z M113.50,100.00 L116.50,100.00 L114.00,103.50Z M173.50,105.00 L176.50,105.00 L175.00,108.50Z M117.50,106.00 L118.50,106.00 L119.50,115.00 L120.50,116.00 L120.50,120.00 L121.50,121.00 L121.50,125.00 L122.50,126.00 L122.50,131.00 L118.00,133.50 L116.50,133.00 L116.50,131.00 L114.50,127.00 L114.50,124.00 L113.50,123.00 L114.50,113.00 L116.50,110.00Z M231.50,107.00 L232.00,106.50 L234.50,110.00 L235.50,118.00 L236.50,119.00 L235.50,127.00 L233.00,133.50 L227.50,131.00 L227.50,126.00 L228.50,125.00 L228.50,121.00 L229.50,120.00 L229.50,116.00 L230.50,115.00 L230.50,110.00 L231.50,109.00Z M168.50,108.00 L170.00,107.50 L171.50,110.00 L171.50,113.00 L172.50,114.00 L172.00,115.50 L165.50,110.00Z M179.50,108.00 L181.00,107.50 L184.50,110.00 L178.00,115.50 L177.50,113.00 L179.50,110.00Z M161.50,112.00 L162.00,111.50 L165.00,113.50 L170.50,119.00 L170.00,119.50 L149.50,119.00Z M187.50,112.00 L188.00,111.50 L192.00,113.50 L200.50,119.00 L180.00,119.50 L179.50,119.00Z M152.50,122.00 L170.50,122.00 L166.00,126.50Z M179.50,122.00 L197.50,122.00 L186.00,125.50 L185.00,126.50 L184.00,126.50Z M171.50,126.00 L172.00,125.50 L172.50,127.00 L170.00,128.50 L169.50,127.00Z M177.50,126.00 L180.00,126.50 L180.50,128.00 L179.00,128.50Z M135.50,127.00 L137.00,126.50 L137.50,128.00 L129.00,142.50 L127.50,141.00 L126.50,132.00Z M144.50,127.00 L145.00,126.50 L146.50,128.00 L148.50,133.00 L151.50,137.00 L151.00,138.50 L149.00,138.50 L145.00,140.50Z M149.50,127.00 L151.00,126.50 L159.50,132.00 L154.00,135.50Z M198.50,127.00 L200.00,126.50 L200.50,128.00 L196.00,135.50 L190.50,132.00Z M204.50,127.00 L205.50,127.00 L205.00,140.50 L198.50,138.00Z M212.50,127.00 L214.00,126.50 L223.50,132.00 L222.50,141.00 L221.00,142.50 L216.50,134.00 L214.50,132.00Z M139.50,130.00 L140.50,130.00 L140.00,131.50Z M209.50,130.00 L210.50,130.00 L210.00,131.50Z M165.50,131.00 L169.50,131.00 L168.00,132.50Z M180.50,131.00 L184.50,131.00 L183.00,132.50Z M138.50,132.00 L139.50,132.00 L138.50,141.00 L136.00,143.50 L132.00,144.50 L132.50,142.00 L134.50,140.00Z M210.50,132.00 L211.00,131.50 L213.50,135.00 L215.50,140.00 L218.50,144.00 L218.00,144.50 L214.00,143.50 L211.50,141.00Z M174.50,133.00 L175.00,132.50 L176.50,135.00 L176.00,136.50 L173.50,136.00Z M121.50,135.00 L123.00,134.50 L124.50,136.00 L124.50,140.00 L125.50,141.00 L125.00,143.50 L119.50,137.00 L119.50,136.00Z M226.50,135.00 L228.00,134.50 L230.00,135.50 L230.50,138.00 L229.00,138.50 L225.00,143.50 L224.50,141.00 L225.50,140.00 L225.50,136.00Z M141.50,136.00 L142.50,136.00 L142.00,141.50 L140.50,141.00 L141.50,140.00Z M166.50,136.00 L167.50,136.00 L167.50,138.00 L166.00,138.50 L162.00,143.50 L159.00,144.50 L156.50,140.00 L158.00,138.50Z M182.50,136.00 L183.00,135.50 L184.00,136.50 L192.00,138.50 L193.50,140.00 L191.50,144.00 L190.00,144.50 L188.00,143.50 L185.50,140.00 L183.50,139.00Z M207.50,136.00 L208.50,136.00 L209.00,141.50 L207.50,141.00Z M114.50,139.00 L115.00,138.50 L116.50,140.00 L116.00,141.50 L113.50,141.00Z M234.50,139.00 L235.00,138.50 L236.50,140.00 L236.00,141.50 L233.50,141.00Z M152.50,142.00 L154.00,141.50 L156.50,146.00 L154.00,148.50 L146.00,149.50 L145.00,150.50 L144.50,149.00Z M195.50,142.00 L197.00,141.50 L201.00,145.50 L202.00,145.50 L205.50,149.00 L205.50,150.00 L200.00,149.50 L199.00,148.50 L194.00,147.50 L193.50,146.00Z M140.50,145.00 L142.00,144.50 L142.50,146.00 L140.00,148.50 L139.50,147.00Z M207.50,145.00 L209.50,145.00 L210.50,147.00 L210.00,148.50Z M43.50,146.00 L54.00,145.50 L62.50,149.00 L47.50,174.00 L48.50,178.00 L50.50,180.00 L52.50,185.00 L54.50,187.00 L56.50,192.00 L62.50,201.00 L54.00,204.50 L44.00,204.50 L43.00,203.50 L40.00,203.50 L32.00,199.50 L31.50,198.00 L30.00,197.50 L23.50,190.00 L19.50,180.00 L19.50,170.00 L20.50,169.00 L20.50,166.00 L25.50,157.00 L30.00,152.50 L31.00,152.50 L32.00,150.50 L40.00,146.50Z M106.50,146.00 L110.50,146.00 L110.00,152.50 L108.00,152.50 L105.00,154.50 L103.00,154.50 L90.00,159.50 L87.50,159.00 L88.50,157.00 L94.50,152.00 L95.00,150.50 L103.00,146.50Z M113.50,146.00 L117.00,145.50 L122.50,148.00 L114.00,150.50Z M169.50,146.00 L180.00,145.50 L188.50,149.00 L175.00,171.50 L161.50,149.00 L166.00,146.50Z M232.50,146.00 L236.50,146.00 L236.00,150.50 L227.50,148.00 L229.00,146.50Z M239.50,146.00 L243.00,145.50 L251.00,148.50 L253.00,150.50 L256.00,151.50 L256.50,153.00 L258.00,153.50 L262.50,159.00 L260.00,159.50 L259.00,158.50 L245.00,154.50 L242.00,152.50 L240.00,152.50Z M295.50,146.00 L306.00,145.50 L307.00,146.50 L312.00,147.50 L316.00,150.50 L319.00,151.50 L319.50,153.00 L321.00,153.50 L326.50,160.00 L330.50,170.00 L330.50,180.00 L329.50,181.00 L328.50,186.00 L324.50,193.00 L321.00,196.50 L320.00,196.50 L319.00,198.50 L316.00,199.50 L312.00,202.50 L310.00,202.50 L306.00,204.50 L296.00,204.50 L287.50,201.00 L302.50,176.00 L301.50,172.00 L299.50,170.00 L297.50,165.00 L295.50,163.00 L293.50,158.00 L287.50,149.00 L292.00,146.50Z M134.50,147.00 L136.00,146.50 L136.50,148.00 L134.00,148.50 L133.50,148.00Z M213.50,147.00 L215.00,146.50 L217.50,148.00 L214.00,148.50Z M64.50,151.00 L67.00,151.50 L67.50,153.00 L69.00,153.50 L73.50,159.00 L55.00,169.50 L54.50,168.00 L56.50,166.00Z M122.50,151.00 L124.50,151.00 L122.50,153.00 L114.00,168.50 L113.50,155.00 L115.00,153.50 L117.00,153.50Z M157.50,151.00 L159.00,150.50 L161.50,154.00 L167.50,166.00 L172.50,173.00 L172.00,173.50 L145.50,173.00 L146.50,166.00 L149.50,160.00 L151.50,157.00 L157.50,152.00Z M190.50,151.00 L193.00,151.50 L193.50,153.00 L195.00,153.50 L200.50,160.00 L204.50,170.00 L204.00,173.50 L177.50,173.00 L182.50,166.00Z M225.50,151.00 L227.00,150.50 L230.00,152.50 L235.00,153.50 L236.50,155.00 L236.00,168.50 L230.50,158.00Z M283.50,151.00 L285.00,150.50 L287.50,154.00 L289.50,159.00 L295.50,168.00 L295.00,169.50 L276.50,159.00 L277.50,157.00 L283.50,152.00Z M126.50,153.00 L127.50,153.00 L128.50,159.00 L127.00,159.50 L121.00,165.50 L120.00,165.50 L119.50,165.00 L121.50,161.00 L123.50,159.00Z M218.50,153.00 L219.50,153.00 L219.00,156.50 L217.50,155.00Z M222.50,153.00 L223.00,152.50 L224.50,154.00 L226.50,159.00 L230.50,165.00 L230.00,165.50 L229.00,165.50 L223.00,159.50 L221.50,159.00Z M130.50,154.00 L132.50,154.00 L131.00,156.50Z M138.50,154.00 L142.00,153.50 L142.50,155.00 L140.00,156.50Z M207.50,154.00 L211.00,153.50 L211.50,155.00 L209.00,156.50Z M108.50,156.00 L110.50,156.00 L110.00,173.50 L82.50,173.00 L83.50,166.00 L86.00,163.50 L88.00,163.50 L89.00,162.50 L94.00,161.50 L97.00,159.50Z M239.50,156.00 L241.00,155.50 L242.00,156.50 L253.00,159.50 L256.00,161.50 L264.00,163.50 L266.50,167.00 L267.50,173.00 L240.00,173.50Z M81.50,158.00 L82.00,157.50 L82.50,159.00 L81.00,162.50 L79.50,161.00 L79.50,159.00Z M144.50,158.00 L145.50,158.00 L145.00,159.50Z M203.50,158.00 L205.00,157.50 L205.50,159.00 L205.00,159.50Z M266.50,158.00 L268.00,157.50 L270.50,159.00 L270.00,162.50Z M132.50,159.00 L134.50,159.00 L133.00,161.50 L131.50,161.00Z M215.50,159.00 L217.00,158.50 L218.50,161.00 L217.00,161.50Z M74.50,162.00 L75.50,162.00 L76.00,164.50 L74.00,164.50 L70.00,166.50 L67.50,166.00Z M137.50,162.00 L138.50,162.00 L141.50,170.00 L141.00,173.50 L134.50,173.00 L135.50,172.00 L135.50,167.00Z M211.50,162.00 L212.00,161.50 L213.50,163.00 L215.00,173.50 L208.50,173.00 L209.50,166.00Z M274.50,162.00 L275.00,161.50 L282.50,166.00 L280.00,166.50 L279.00,165.50 L274.00,164.50Z M132.50,165.00 L133.50,165.00 L133.00,167.50Z M216.50,165.00 L217.50,165.00 L217.00,167.50Z M76.50,167.00 L77.50,167.00 L77.50,169.00 L78.50,170.00 L78.00,173.50 L59.50,173.00Z M129.50,167.00 L130.50,167.00 L131.00,173.50 L118.50,173.00Z M219.50,167.00 L220.00,166.50 L231.50,173.00 L219.00,173.50Z M272.50,167.00 L273.00,166.50 L274.00,167.50 L279.00,168.50 L282.00,170.50 L290.50,173.00 L272.00,173.50 L271.50,170.00 L272.50,169.00Z M59.50,177.00 L78.00,176.50 L78.50,180.00 L77.00,183.50 L76.00,182.50 L71.00,181.50 L68.00,179.50Z M82.50,177.00 L110.00,176.50 L110.50,194.00 L109.00,194.50 L108.00,193.50 L97.00,190.50 L94.00,188.50 L86.00,186.50 L83.50,184.00Z M118.50,177.00 L131.00,176.50 L130.50,183.00 L130.00,183.50Z M134.50,177.00 L141.50,177.00 L141.50,180.00 L138.00,188.50 L136.50,187.00 L135.50,178.00Z M145.50,177.00 L172.50,177.00 L170.50,179.00 L159.00,199.50 L158.00,199.50 L157.50,198.00 L156.00,197.50 L149.50,190.00 L146.50,184.00Z M177.50,177.00 L204.00,176.50 L204.50,180.00 L203.50,181.00 L202.50,186.00 L198.50,193.00 L191.00,199.50 L186.50,191.00 L184.50,189.00 L182.50,184.00Z M208.50,177.00 L215.50,177.00 L214.50,178.00 L213.50,187.00 L212.00,188.50 L209.50,184.00Z M218.50,177.00 L231.50,177.00 L220.00,183.50 L219.50,178.00Z M239.50,177.00 L267.00,176.50 L267.50,180.00 L265.50,185.00 L264.00,186.50 L262.00,186.50 L261.00,187.50 L256.00,188.50 L253.00,190.50 L240.00,194.50Z M271.50,177.00 L290.50,177.00 L282.00,179.50 L279.00,181.50 L277.00,181.50 L273.00,183.50 L271.50,180.00Z M174.50,179.00 L175.00,178.50 L176.50,180.00 L182.50,192.00 L187.50,199.00 L188.00,201.50 L180.00,204.50 L170.00,204.50 L161.50,201.00Z M54.50,181.00 L56.00,180.50 L58.00,182.50 L70.00,188.50 L73.50,191.00 L72.50,193.00 L65.00,199.50Z M293.50,181.00 L295.00,180.50 L295.50,182.00 L293.50,184.00 L287.50,196.00 L285.50,199.00 L284.00,199.50 L283.50,198.00 L282.00,197.50 L276.50,191.00Z M113.50,182.00 L114.50,182.00 L119.50,192.00 L124.50,199.00 L124.00,199.50 L120.00,197.50 L115.00,196.50 L113.50,195.00Z M235.50,182.00 L236.50,182.00 L236.50,195.00 L235.00,196.50 L233.00,196.50 L226.00,199.50 L225.50,199.00 L230.50,192.00Z M132.50,183.00 L133.50,183.00 L133.00,185.50Z M216.50,183.00 L217.50,183.00 L217.00,185.50Z M67.50,184.00 L70.00,183.50 L76.50,186.00 L75.00,188.50Z M279.50,184.00 L282.00,183.50 L282.00,184.50 L279.00,185.50 L275.00,188.50 L274.50,188.00 L274.00,185.50Z M119.50,185.00 L121.00,184.50 L127.00,190.50 L128.50,191.00 L127.00,197.50Z M228.50,185.00 L230.50,185.00 L223.00,197.50 L221.50,192.00Z M80.50,188.00 L81.50,188.00 L81.50,190.00 L82.50,191.00 L82.00,192.50 L79.50,191.00 L79.50,189.00Z M269.50,188.00 L270.50,188.00 L270.50,191.00 L267.00,192.50 L266.50,192.00Z M131.50,189.00 L133.00,188.50 L134.50,191.00 L133.00,191.50Z M216.50,189.00 L218.00,188.50 L218.50,190.00 L216.00,192.50 L215.50,190.00Z M87.50,191.00 L90.00,190.50 L91.00,191.50 L105.00,195.50 L108.00,197.50 L110.00,197.50 L110.50,204.00 L107.00,204.50 L106.00,203.50 L103.00,203.50 L95.00,199.50 L94.50,198.00 L93.00,197.50Z M144.50,191.00 L145.50,191.00 L145.00,192.50Z M204.50,191.00 L205.50,191.00 L205.00,192.50 L203.50,192.00Z M259.50,191.00 L262.50,191.00 L261.50,193.00 L256.50,197.00 L256.00,198.50 L253.00,199.50 L249.00,202.50 L247.00,202.50 L243.00,204.50 L239.50,204.00 L240.00,197.50 L242.00,197.50 L245.00,195.50Z M76.50,194.00 L78.00,193.50 L82.00,195.50 L84.00,197.50 L89.00,199.50 L95.00,204.50 L101.00,206.50 L103.00,208.50 L108.00,210.50 L110.50,213.00 L110.00,250.50 L108.00,251.50 L103.00,251.50 L97.00,254.50 L95.50,253.00 L93.50,248.00 L88.50,241.00 L86.50,236.00 L84.50,234.00 L82.50,229.00 L80.50,227.00 L79.50,224.00 L77.50,222.00 L75.50,217.00 L73.50,215.00 L71.50,210.00 L67.50,204.00 L67.50,203.00 L69.00,202.50 L76.50,195.00Z M130.50,194.00 L131.00,193.50 L132.50,195.00 L132.00,196.50 L130.50,196.00Z M139.50,194.00 L141.00,193.50 L142.50,196.00 L139.00,196.50Z M208.50,194.00 L211.00,194.50 L211.50,196.00 L208.00,196.50 L207.50,195.00Z M218.50,194.00 L219.50,194.00 L219.00,197.50 L217.50,196.00Z M271.50,194.00 L274.00,194.50 L274.50,196.00 L281.00,202.50 L282.50,203.00 L280.50,208.00 L278.50,210.00 L272.50,222.00 L270.50,224.00 L261.50,241.00 L256.50,248.00 L254.50,253.00 L253.00,254.50 L247.00,251.50 L240.00,250.50 L239.50,213.00 L242.00,210.50 L247.00,208.50 L249.00,206.50 L251.00,206.50 L253.00,204.50 L258.00,202.50 L261.00,199.50Z M113.50,200.00 L116.00,199.50 L122.50,202.00 L117.00,204.50 L114.00,204.50Z M144.50,200.00 L154.00,201.50 L156.50,204.00 L154.50,208.00 L153.00,208.50 L149.00,204.50 L148.00,204.50 L144.50,201.00Z M204.50,200.00 L205.00,199.50 L205.50,201.00 L201.00,205.50 L197.00,208.50 L195.50,208.00 L193.50,204.00 L194.00,202.50Z M233.50,200.00 L236.50,200.00 L236.00,204.50 L229.00,203.50 L227.50,202.00Z M133.50,202.00 L136.00,201.50 L136.50,203.00 L135.00,203.50Z M139.50,202.00 L140.00,201.50 L142.50,204.00 L142.00,205.50 L140.50,205.00Z M209.50,202.00 L210.00,201.50 L210.50,203.00 L209.50,205.00 L208.00,205.50 L207.50,204.00Z M213.50,202.00 L217.50,202.00 L215.00,203.50 L214.00,203.50Z M131.50,206.00 L133.00,205.50 L134.00,206.50 L136.00,206.50 L138.50,209.00 L138.50,213.00 L139.50,214.00 L139.00,218.50Z M158.50,206.00 L160.00,205.50 L162.00,206.50 L165.50,210.00 L165.50,211.00 L167.50,212.00 L167.50,214.00 L167.00,214.50 L166.00,213.50 L158.00,211.50 L156.50,210.00Z M189.50,206.00 L191.00,205.50 L193.50,210.00 L192.00,211.50 L190.00,211.50 L183.00,214.50 L182.50,213.00 L183.50,211.00Z M216.50,206.00 L218.50,206.00 L211.00,218.50 L210.50,214.00 L211.50,213.00 L211.50,209.00 L214.00,206.50Z M124.50,207.00 L125.50,207.00 L124.50,214.00 L122.00,215.50 L120.00,214.50 L119.50,213.00Z M224.50,207.00 L225.00,206.50 L228.50,210.00 L228.50,211.00 L230.50,212.00 L230.00,214.50 L227.00,215.50 L225.50,214.00Z M128.50,208.00 L129.50,208.00 L130.50,211.00 L135.50,218.00 L137.50,222.00 L137.00,223.50 L126.50,218.00 L126.50,214.00 L127.50,213.00 L127.50,209.00Z M220.50,208.00 L221.00,207.50 L222.50,209.00 L223.50,218.00 L213.00,223.50 L212.50,222.00 L217.50,213.00 L219.50,211.00Z M113.50,209.00 L116.00,208.50 L116.50,210.00 L115.00,211.50Z M140.50,209.00 L142.50,209.00 L142.00,214.50 L141.50,210.00Z M207.50,209.00 L209.50,209.00 L208.50,210.00 L208.00,214.50Z M233.50,209.00 L236.00,208.50 L236.50,210.00 L235.00,211.50Z M144.50,210.00 L145.00,209.50 L151.50,212.00 L150.50,215.00 L145.00,223.50Z M204.50,210.00 L205.50,210.00 L205.00,223.50 L198.50,213.00 L199.00,211.50Z M173.50,214.00 L176.50,214.00 L175.00,217.50Z M153.50,215.00 L155.00,214.50 L159.50,218.00 L155.00,221.50 L150.00,223.50 L149.50,222.00Z M194.50,215.00 L196.00,214.50 L198.50,218.00 L200.50,222.00 L200.00,223.50 L195.00,221.50 L190.50,218.00Z M116.50,217.00 L118.00,216.50 L122.50,219.00 L122.50,224.00 L121.50,225.00 L121.50,229.00 L120.50,230.00 L119.50,240.00 L118.50,241.00 L118.00,244.50 L114.50,237.00 L114.50,233.00 L113.50,232.00 L113.50,227.00 L114.50,226.00 L114.50,223.00 L115.50,222.00Z M231.50,217.00 L233.00,216.50 L234.50,219.00 L235.50,227.00 L236.50,228.00 L234.50,240.00 L232.00,243.50 L230.50,240.00 L230.50,235.00 L229.50,234.00 L228.50,225.00 L227.50,224.00 L227.50,220.00Z M166.50,218.00 L168.00,217.50 L169.50,219.00 L166.00,219.50 L165.50,219.00Z M181.50,218.00 L183.00,217.50 L184.50,219.00 L181.00,219.50 L180.50,219.00Z M139.50,219.00 L140.50,219.00 L140.00,220.50Z M209.50,219.00 L210.50,219.00 L210.00,220.50Z M125.50,222.00 L127.00,221.50 L129.00,223.50 L141.50,230.00 L128.00,253.50 L126.00,253.50 L120.50,248.00Z M169.50,222.00 L171.00,221.50 L172.50,224.00 L170.00,223.50Z M178.50,222.00 L180.00,221.50 L180.50,223.00 L178.00,225.50 L177.50,223.00Z M222.50,222.00 L224.00,221.50 L225.50,225.00 L225.50,229.00 L226.50,230.00 L226.50,234.00 L227.50,235.00 L227.50,239.00 L228.50,240.00 L228.50,244.00 L229.50,245.00 L228.50,249.00 L223.00,253.50 L221.50,253.00 L219.50,248.00 L217.50,246.00 L216.50,243.00 L214.50,241.00 L212.50,236.00 L209.50,232.00 L209.50,230.00 L211.00,228.50 L216.00,226.50Z M164.50,224.00 L166.00,223.50 L170.50,228.00 L170.00,228.50 L152.50,228.00Z M184.50,224.00 L185.00,223.50 L186.00,224.50 L197.50,228.00 L180.00,228.50 L179.50,228.00Z M149.50,231.00 L170.50,231.00 L162.00,238.50Z M179.50,231.00 L200.50,231.00 L188.00,238.50Z M143.50,232.00 L144.00,231.50 L148.00,233.50 L159.50,241.00 L139.00,258.50 L131.00,256.50 L130.50,255.00 L132.50,251.00 L134.50,249.00Z M205.50,232.00 L206.50,232.00 L207.50,235.00 L209.50,237.00 L211.50,242.00 L213.50,244.00 L215.50,249.00 L219.50,255.00 L217.00,257.50 L211.00,258.50 L190.50,241.00Z M170.50,235.00 L172.00,234.50 L172.50,236.00 L171.50,237.00 L170.50,242.00 L169.00,242.50 L165.50,240.00Z M177.50,235.00 L178.00,234.50 L181.00,236.50 L184.50,240.00 L180.00,242.50 L177.50,237.00Z M174.50,242.00 L175.00,241.50 L176.50,244.00 L176.00,245.50 L173.50,245.00Z M161.50,243.00 L163.00,242.50 L167.50,245.00 L167.50,247.00 L166.00,247.50 L162.00,252.50 L158.00,255.50 L156.00,255.50 L154.00,257.50 L147.00,258.50 L146.00,259.50 L143.50,259.00Z M186.50,243.00 L188.00,242.50 L206.50,259.00 L204.00,259.50 L203.00,258.50 L200.00,258.50 L199.00,257.50 L194.00,256.50 L189.00,253.50 L183.50,248.00 L183.50,247.00 L181.50,246.00Z M235.50,246.00 L236.50,246.00 L236.50,250.00 L234.00,251.50 L233.50,250.00Z M113.50,247.00 L114.00,246.50 L116.50,249.00 L116.00,250.50 L113.50,250.00Z M174.50,250.00 L175.00,249.50 L179.00,251.50 L187.00,257.50 L190.00,258.50 L192.00,260.50 L194.00,260.50 L198.00,262.50 L200.00,264.50 L205.00,266.50 L207.50,269.00 L204.00,282.50 L145.50,282.00 L142.50,269.00 L150.00,263.50 L161.00,258.50 L166.00,254.50Z M106.50,255.00 L110.50,255.00 L110.00,277.50 L98.50,258.00Z M113.50,255.00 L116.50,255.00 L115.50,256.00 L114.00,266.50Z M233.50,255.00 L236.50,255.00 L236.00,266.50 L234.50,256.00Z M239.50,255.00 L242.00,254.50 L251.50,258.00 L240.00,277.50Z M118.50,256.00 L120.00,255.50 L125.50,258.00 L116.00,273.50 L115.50,271.00 L116.50,270.00Z M229.50,256.00 L231.50,256.00 L231.50,260.00 L232.50,261.00 L232.50,265.00 L233.50,266.00 L233.50,270.00 L234.50,271.00 L234.00,273.50 L224.50,258.00Z M95.50,260.00 L96.00,259.50 L98.50,263.00 L100.50,268.00 L102.50,270.00 L104.50,275.00 L106.50,277.00 L111.00,285.50 L141.50,286.00 L140.50,293.00 L137.50,299.00 L135.50,302.00 L126.00,310.50 L124.00,310.50 L121.00,312.50 L118.00,312.50 L117.00,313.50 L106.00,313.50 L95.00,308.50 L85.50,298.00 L85.50,296.00 L83.50,293.00 L83.50,290.00 L82.50,289.00 L82.50,279.00 L83.50,278.00 L83.50,275.00 L89.50,265.00Z M127.50,260.00 L130.00,260.50 L132.50,264.00 L120.00,275.50 L119.50,274.00Z M221.50,260.00 L222.50,260.00 L226.50,268.00 L228.50,270.00 L230.50,274.00 L230.00,275.50 L217.50,264.00 L217.50,263.00Z M253.50,260.00 L256.00,260.50 L256.50,262.00 L261.50,266.00 L265.50,273.00 L265.50,275.00 L267.50,279.00 L267.50,289.00 L266.50,290.00 L266.50,293.00 L261.50,302.00 L252.00,310.50 L250.00,310.50 L247.00,312.50 L244.00,312.50 L243.00,313.50 L232.00,313.50 L221.00,308.50 L211.50,298.00 L211.50,296.00 L209.50,293.00 L208.50,286.00 L239.00,285.50Z M138.50,263.00 L145.50,263.00 L141.00,265.50 L140.00,265.50Z M204.50,263.00 L211.00,262.50 L211.50,264.00 L209.00,265.50Z M134.50,267.00 L135.00,266.50 L136.50,268.00 L136.00,268.50 L131.00,271.50 L129.50,271.00Z M214.50,267.00 L215.00,266.50 L220.50,271.00 L219.00,271.50 L215.00,269.50 L213.50,268.00Z M137.50,271.00 L138.50,271.00 L141.50,279.00 L141.00,282.50 L118.50,282.00Z M211.50,271.00 L212.00,270.50 L214.00,272.50 L219.00,274.50 L221.00,276.50 L231.50,282.00 L209.00,282.50 L208.50,279.00Z" fill="#000000" fill-rule="evenodd" stroke="none"/>
</svg>
