<svg xmlns="http://www.w3.org/2000/svg" viewBox="0 0 350 350">
  <path d="M184.50,75.00 L194.00,74.50 L205.00,79.50 L208.00,82.50 L212.00,84.50 L232.00,88.50 L240.50,96.00 L242.50,101.00 L243.50,112.00 L244.50,113.00 L245.50,120.00 L247.50,124.00 L249.00,124.50 L249.50,126.00 L255.00,130.50 L256.00,130.50 L260.50,135.00 L262.50,139.00 L262.50,141.00 L263.50,142.00 L263.50,159.00 L265.50,164.00 L272.50,172.00 L272.50,175.00 L269.00,175.50 L268.50,174.00 L262.50,168.00 L260.50,164.00 L260.50,161.00 L259.50,160.00 L259.50,150.00 L260.50,149.00 L259.50,147.00 L259.50,143.00 L257.50,139.00 L243.50,126.00 L241.50,122.00 L240.50,112.00 L239.50,111.00 L239.50,106.00 L236.50,98.00 L232.00,93.50 L228.00,91.50 L219.00,90.50 L218.00,89.50 L214.00,89.50 L213.00,88.50 L208.00,87.50 L196.00,79.50 L194.00,79.50 L193.00,78.50 L187.00,78.50 L186.00,79.50 L184.00,79.50 L164.00,94.50 L147.00,94.50 L146.00,95.50 L143.00,95.50 L140.00,97.50 L136.50,101.00 L136.50,102.00 L134.50,103.00 L132.50,107.00 L127.00,111.50 L120.00,112.50 L119.00,113.50 L111.00,113.50 L110.00,114.50 L107.00,114.50 L102.00,116.50 L97.50,121.00 L95.50,125.00 L94.50,135.00 L93.50,136.00 L92.50,143.00 L85.50,153.00 L82.50,161.00 L83.50,162.00 L84.50,167.00 L90.50,175.00 L92.00,175.50 L97.50,182.00 L99.50,186.00 L99.50,203.00 L101.50,206.00 L101.50,208.00 L103.00,208.50 L105.00,211.50 L109.00,213.50 L115.50,220.00 L115.50,223.00 L116.50,224.00 L116.50,232.00 L117.50,233.00 L117.50,239.00 L121.50,247.00 L125.00,249.50 L132.00,250.50 L133.00,251.50 L143.00,252.50 L149.00,255.50 L155.00,260.50 L162.00,262.50 L169.00,259.50 L173.00,256.50 L178.00,250.50 L186.00,245.50 L196.00,245.50 L197.00,246.50 L203.00,245.50 L209.50,240.00 L212.50,235.00 L216.00,231.50 L218.00,230.50 L222.00,230.50 L223.00,229.50 L234.00,229.50 L235.00,228.50 L238.00,228.50 L243.50,225.00 L246.50,219.00 L246.50,213.00 L247.50,212.00 L247.50,207.00 L248.50,206.00 L248.50,204.00 L255.50,194.00 L257.50,190.00 L257.50,186.00 L255.50,182.00 L241.50,167.00 L241.50,164.00 L240.50,163.00 L241.50,150.00 L240.50,148.00 L235.00,142.50 L231.00,140.50 L227.50,137.00 L227.50,135.00 L226.50,134.00 L226.50,122.00 L225.50,121.00 L225.50,116.00 L223.50,112.00 L221.00,109.50 L216.00,107.50 L208.00,107.50 L207.00,106.50 L201.00,105.50 L190.00,97.50 L183.00,98.50 L174.00,107.50 L173.00,107.50 L169.00,112.50 L167.00,113.50 L150.00,113.50 L139.00,126.50 L137.00,126.50 L136.00,127.50 L120.00,127.50 L116.00,129.50 L112.50,133.00 L112.50,136.00 L111.50,137.00 L111.50,146.00 L109.50,151.00 L102.50,161.00 L102.50,166.00 L104.50,169.00 L117.50,181.00 L118.50,183.00 L118.50,192.00 L117.50,193.00 L117.50,196.00 L119.50,200.00 L121.00,201.50 L126.00,203.50 L130.50,208.00 L130.50,211.00 L131.50,212.00 L130.50,225.00 L132.50,230.00 L135.00,232.50 L140.00,234.50 L150.00,234.50 L154.00,236.50 L161.00,242.50 L164.00,243.50 L165.00,242.50 L167.00,242.50 L181.00,227.50 L183.00,226.50 L196.00,227.50 L199.50,224.00 L200.50,221.00 L205.00,215.50 L225.00,215.50 L229.50,211.00 L229.50,202.00 L230.50,201.00 L230.50,197.00 L235.50,191.00 L238.50,185.00 L236.50,181.00 L222.50,169.00 L221.50,167.00 L221.50,163.00 L223.50,158.00 L222.50,155.00 L221.00,153.50 L214.00,150.50 L211.50,147.00 L212.50,129.00 L211.50,127.00 L208.00,124.50 L197.00,124.50 L196.00,123.50 L194.00,123.50 L191.00,121.50 L188.00,117.50 L184.00,116.50 L177.50,122.00 L173.50,129.00 L171.00,131.50 L169.00,132.50 L162.00,132.50 L161.00,131.50 L156.00,132.50 L154.50,137.00 L150.00,142.50 L144.00,142.50 L143.00,141.50 L139.00,141.50 L138.00,140.50 L133.00,140.50 L131.00,141.50 L128.50,145.00 L128.50,156.00 L126.50,160.00 L122.50,163.00 L121.50,167.00 L124.00,170.50 L128.00,172.50 L131.00,175.50 L133.00,175.50 L137.50,180.00 L136.50,191.00 L145.50,196.00 L145.50,206.00 L144.50,207.00 L143.50,213.00 L144.50,214.00 L144.50,216.00 L147.00,217.50 L156.00,216.50 L161.00,218.50 L164.00,222.50 L168.00,223.50 L171.50,220.00 L178.00,208.50 L180.00,207.50 L184.00,207.50 L188.00,209.50 L190.50,207.00 L190.50,205.00 L193.00,200.50 L201.00,200.50 L205.00,202.50 L211.00,202.50 L213.50,200.00 L212.50,198.00 L212.50,190.00 L213.50,188.00 L219.50,183.00 L216.00,178.50 L211.50,176.00 L212.00,173.50 L216.00,173.50 L218.00,174.50 L222.50,179.00 L222.50,186.00 L216.50,192.00 L216.50,203.00 L215.50,205.00 L213.00,206.50 L204.00,206.50 L200.00,204.50 L196.00,204.50 L194.50,206.00 L193.50,211.00 L190.00,213.50 L186.00,213.50 L182.00,211.50 L179.50,214.00 L175.50,222.00 L170.00,227.50 L163.00,227.50 L156.00,220.50 L143.00,220.50 L140.50,217.00 L140.50,206.00 L141.50,205.00 L142.50,200.00 L140.00,197.50 L136.00,196.50 L132.50,193.00 L132.50,185.00 L133.50,184.00 L133.50,182.00 L123.00,175.50 L117.50,169.00 L117.50,163.00 L123.50,156.00 L125.50,152.00 L125.50,150.00 L124.50,149.00 L124.50,144.00 L125.50,143.00 L125.50,141.00 L126.50,139.00 L129.00,137.50 L143.00,137.50 L144.00,138.50 L148.00,138.50 L153.50,129.00 L156.00,127.50 L162.00,127.50 L166.00,129.50 L168.00,128.50 L175.50,117.00 L177.00,116.50 L178.00,114.50 L182.00,112.50 L187.00,112.50 L191.00,114.50 L198.00,120.50 L210.00,120.50 L215.50,125.00 L215.50,127.00 L216.50,128.00 L215.50,145.00 L218.00,147.50 L223.00,149.50 L225.50,152.00 L226.50,154.00 L226.50,163.00 L225.50,164.00 L225.50,166.00 L240.50,179.00 L242.50,184.00 L241.50,190.00 L235.50,197.00 L233.50,201.00 L233.50,212.00 L232.50,213.00 L232.50,215.00 L229.00,218.50 L227.00,218.50 L226.00,219.50 L213.00,219.50 L212.00,218.50 L210.00,218.50 L205.50,221.00 L203.50,226.00 L200.00,230.50 L198.00,231.50 L190.00,231.50 L189.00,230.50 L185.00,230.50 L179.50,235.00 L179.50,236.00 L172.00,244.50 L168.00,246.50 L159.00,246.50 L152.00,240.50 L145.00,237.50 L135.00,237.50 L131.00,235.50 L128.50,233.00 L128.50,231.00 L127.50,230.00 L127.50,212.00 L126.50,210.00 L118.00,204.50 L114.50,201.00 L114.50,185.00 L112.50,182.00 L99.50,170.00 L98.50,168.00 L98.50,159.00 L106.50,148.00 L106.50,146.00 L107.50,145.00 L108.50,132.00 L111.50,127.00 L116.00,124.50 L119.00,124.50 L120.00,123.50 L135.00,123.50 L136.00,122.50 L138.00,122.50 L141.50,116.00 L147.00,110.50 L149.00,109.50 L160.00,109.50 L161.00,110.50 L163.00,110.50 L170.00,105.50 L170.50,104.00 L178.00,96.50 L184.00,93.50 L191.00,93.50 L194.00,95.50 L196.00,95.50 L203.00,101.50 L208.00,103.50 L216.00,103.50 L217.00,104.50 L221.00,104.50 L223.00,105.50 L228.50,112.00 L228.50,114.00 L229.50,115.00 L229.50,129.00 L230.50,130.00 L230.50,133.00 L235.00,137.50 L240.00,140.50 L244.50,146.00 L244.50,148.00 L245.50,149.00 L244.50,163.00 L245.50,165.00 L256.50,176.00 L260.50,182.00 L260.50,185.00 L261.50,186.00 L260.50,194.00 L252.50,206.00 L252.50,208.00 L250.50,212.00 L250.50,220.00 L249.50,221.00 L249.50,224.00 L245.00,229.50 L239.00,232.50 L234.00,232.50 L233.00,233.50 L223.00,233.50 L222.00,234.50 L220.00,234.50 L213.50,241.00 L210.50,246.00 L205.00,249.50 L187.00,249.50 L171.00,263.50 L167.00,265.50 L156.00,265.50 L155.00,264.50 L153.00,264.50 L141.00,256.50 L134.00,255.50 L133.00,254.50 L123.00,253.50 L116.50,248.00 L113.50,240.00 L113.50,230.00 L112.50,229.00 L112.50,225.00 L110.50,221.00 L103.00,215.50 L102.50,214.00 L97.50,210.00 L97.50,208.00 L95.50,204.00 L95.50,194.00 L96.50,193.00 L96.50,191.00 L93.50,184.00 L88.50,179.00 L88.50,178.00 L84.50,175.00 L79.50,166.00 L79.50,156.00 L82.50,149.00 L88.50,141.00 L88.50,139.00 L90.50,135.00 L91.50,124.00 L94.50,117.00 L96.00,116.50 L97.00,114.50 L100.00,112.50 L102.00,112.50 L106.00,110.50 L123.00,108.50 L126.00,106.50 L139.00,92.50 L141.00,92.50 L142.00,91.50 L159.00,91.50 L160.00,90.50 L162.00,90.50 L167.00,87.50 L174.00,80.50 L180.00,76.50Z" fill="#000000" fill-rule="evenodd" stroke="none"/>
</svg>
