<svg xmlns="http://www.w3.org/2000/svg" viewBox="0 0 350 350">
  <path d="M182.50,137.00 L190.00,136.50 L191.00,137.50 L197.00,137.50 L198.00,138.50 L203.00,139.50 L216.00,147.50 L223.50,155.00 L228.50,164.00 L230.50,166.00 L231.50,171.00 L233.50,174.00 L234.50,183.00 L235.50,184.00 L235.50,202.00 L234.50,203.00 L234.50,208.00 L233.50,209.00 L233.50,212.00 L232.50,213.00 L230.50,221.00 L227.50,227.00 L225.50,229.00 L223.50,234.00 L214.50,244.00 L214.50,245.00 L213.00,245.50 L205.00,253.50 L196.00,259.50 L186.00,264.50 L184.00,264.50 L181.00,266.50 L179.00,266.50 L175.00,268.50 L167.00,269.50 L166.00,270.50 L161.00,270.50 L160.00,271.50 L131.00,271.50 L130.00,270.50 L125.00,270.50 L124.00,269.50 L116.00,268.50 L115.00,267.50 L107.00,265.50 L104.00,263.50 L102.00,263.50 L99.00,261.50 L97.00,261.50 L91.00,257.50 L89.00,257.50 L74.00,247.50 L67.00,240.50 L66.00,240.50 L50.50,224.00 L38.50,206.00 L31.50,192.00 L31.50,190.00 L29.50,187.00 L29.50,185.00 L26.50,178.00 L27.00,173.50 L29.00,173.50 L30.50,175.00 L32.50,183.00 L42.50,204.00 L46.50,209.00 L51.50,218.00 L56.50,223.00 L60.50,229.00 L62.00,229.50 L66.00,234.50 L67.00,234.50 L79.00,245.50 L88.00,251.50 L91.00,252.50 L93.00,254.50 L117.00,264.50 L120.00,264.50 L125.00,266.50 L130.00,266.50 L131.00,267.50 L138.00,267.50 L139.00,268.50 L153.00,268.50 L154.00,267.50 L161.00,267.50 L162.00,266.50 L166.00,266.50 L167.00,265.50 L174.00,264.50 L178.50,258.00 L179.50,255.00 L183.50,250.00 L184.50,247.00 L188.50,242.00 L190.50,237.00 L197.50,227.00 L201.50,219.00 L215.50,198.00 L219.50,190.00 L228.50,177.00 L228.50,176.00 L223.00,171.50 L220.00,170.50 L215.00,166.50 L212.00,165.50 L207.00,161.50 L199.00,157.50 L194.00,153.50 L191.00,152.50 L176.00,142.50 L165.50,158.00 L161.50,166.00 L157.50,171.00 L156.50,175.00 L163.00,179.50 L168.00,181.50 L173.00,185.50 L175.00,185.50 L176.50,182.00 L180.50,177.00 L180.50,175.00 L179.00,174.50 L178.50,177.00 L177.00,178.50 L171.00,178.50 L169.50,176.00 L169.50,172.00 L172.00,168.50 L179.00,167.50 L181.00,168.50 L185.50,174.00 L185.50,181.00 L184.50,182.00 L184.50,184.00 L179.00,189.50 L177.00,189.50 L176.00,190.50 L165.00,190.50 L159.00,187.50 L155.50,184.00 L151.50,177.00 L151.50,173.00 L150.50,172.00 L150.50,164.00 L151.50,163.00 L152.50,157.00 L155.50,151.00 L162.00,144.50 L163.00,144.50 L164.00,142.50 L176.00,137.50Z M180.50,141.00 L191.00,140.50 L192.00,141.50 L196.00,141.50 L209.00,147.50 L219.50,157.00 L221.50,161.00 L224.50,164.00 L224.50,166.00 L226.50,168.00 L226.50,170.00 L226.00,170.50 L213.00,161.50 L210.00,160.50 L192.00,148.50 L184.00,144.50 L181.00,142.50Z M167.50,146.00 L169.00,145.50 L169.50,147.00 L165.50,152.00 L164.50,155.00 L155.00,169.50 L154.50,164.00 L157.50,158.00 L157.50,156.00 L159.50,153.00 L161.00,152.50 L161.50,151.00Z M229.50,180.00 L230.50,180.00 L230.50,183.00 L231.50,184.00 L231.50,191.00 L232.50,192.00 L232.50,194.00 L231.50,195.00 L231.50,203.00 L230.50,204.00 L230.50,207.00 L229.50,208.00 L229.50,211.00 L228.50,212.00 L227.50,217.00 L222.50,227.00 L214.50,238.00 L205.00,247.50 L192.00,256.50 L184.00,260.50 L180.00,261.50 L179.50,261.00 L188.50,248.00 L189.50,245.00 L191.50,243.00 L193.50,238.00 L197.50,233.00 L201.50,225.00 L205.50,220.00 L206.50,217.00 L215.50,204.00 L219.50,196.00 L228.50,183.00Z M160.50,182.00 L162.00,181.50 L166.50,185.00 L165.00,185.50Z" fill="#000000" fill-rule="evenodd" stroke="none"/>
</svg>
