<svg xmlns="http://www.w3.org/2000/svg" viewBox="0 0 350 350">
  <path d="M145.50,0.00 L145.00,25.50 L26.00,25.50 L25.50,145.00 L0.00,145.50Z M204.50,0.00 L205.00,25.50 L324.50,26.00 L324.50,145.00 L349.00,145.50Z M148.50,2.00 L201.00,1.50 L201.50,25.00 L149.00,25.50Z M29.50,30.00 L320.00,29.50 L320.50,320.00 L30.00,320.50Z M170.50,31.00 L179.00,30.50 L184.00,32.50 L187.50,35.00 L191.50,42.00 L191.50,53.00 L189.50,57.00 L189.50,59.00 L191.50,62.00 L191.50,73.00 L190.50,74.00 L190.50,76.00 L187.50,80.00 L183.00,83.50 L179.00,84.50 L178.50,86.00 L181.50,90.00 L186.50,100.00 L188.50,102.00 L190.50,107.00 L192.50,109.00 L200.50,124.00 L202.00,125.50 L260.50,126.00 L260.50,128.00 L257.50,134.00 L255.50,136.00 L253.50,141.00 L251.50,143.00 L249.50,148.00 L247.50,150.00 L246.50,153.00 L244.50,155.00 L242.50,160.00 L240.50,162.00 L238.50,167.00 L236.50,169.00 L231.50,178.00 L233.50,180.00 L239.50,192.00 L241.50,194.00 L250.50,211.00 L252.50,213.00 L255.50,219.00 L255.50,222.00 L205.50,223.00 L201.50,231.00 L196.50,238.00 L194.50,243.00 L192.50,245.00 L190.50,250.00 L188.50,252.00 L187.50,255.00 L185.50,257.00 L183.50,262.00 L180.50,266.00 L183.00,266.50 L187.00,269.50 L190.50,274.00 L190.50,276.00 L191.50,277.00 L191.50,281.00 L192.50,283.00 L191.50,284.00 L191.50,288.00 L189.50,291.00 L189.50,293.00 L191.50,297.00 L191.50,301.00 L192.50,303.00 L191.50,304.00 L191.50,308.00 L187.50,315.00 L179.00,319.50 L171.00,319.50 L166.00,317.50 L161.50,314.00 L158.50,308.00 L158.50,297.00 L160.50,293.00 L160.50,291.00 L158.50,288.00 L158.50,277.00 L161.50,271.00 L163.00,270.50 L164.00,268.50 L169.50,266.00 L166.50,262.00 L161.50,252.00 L159.50,250.00 L157.50,245.00 L155.50,243.00 L153.50,238.00 L151.50,236.00 L144.50,223.00 L94.50,222.00 L94.50,219.00 L97.50,213.00 L99.50,211.00 L105.50,199.00 L107.50,197.00 L116.50,180.00 L118.50,178.00 L89.50,128.00 L90.00,125.50 L148.00,125.50 L149.50,124.00 L157.50,109.00 L159.50,107.00 L161.50,102.00 L163.50,100.00 L164.50,97.00 L166.50,95.00 L168.50,90.00 L171.50,86.00 L171.00,84.50 L164.00,81.50 L159.50,76.00 L159.50,74.00 L158.50,73.00 L158.50,62.00 L160.50,59.00 L160.50,57.00 L158.50,53.00 L158.50,42.00 L162.00,35.50 L166.00,32.50Z M170.50,34.00 L179.00,33.50 L183.00,35.50 L187.50,40.00 L187.50,42.00 L189.50,46.00 L189.50,50.00 L187.00,55.50 L184.00,52.50 L179.00,50.50 L171.00,50.50 L166.00,52.50 L163.00,55.50 L162.50,55.00 L160.50,50.00 L160.50,45.00 L162.50,42.00 L162.50,40.00 L167.00,35.50Z M120.50,41.00 L131.00,40.50 L132.00,41.50 L134.00,41.50 L140.50,47.00 L142.50,51.00 L142.50,53.00 L143.50,54.00 L143.50,61.00 L142.50,62.00 L142.50,64.00 L140.50,68.00 L133.00,73.50 L131.00,73.50 L130.00,74.50 L123.00,74.50 L122.00,73.50 L119.00,73.50 L116.00,71.50 L110.50,65.00 L110.50,63.00 L109.50,62.00 L109.50,52.00 L111.50,48.00 L117.00,42.50Z M218.50,41.00 L229.00,40.50 L237.00,45.50 L240.50,52.00 L240.50,62.00 L239.50,63.00 L239.50,65.00 L237.50,68.00 L231.00,73.50 L228.00,73.50 L227.00,74.50 L220.00,74.50 L219.00,73.50 L217.00,73.50 L212.00,70.50 L207.50,64.00 L207.50,61.00 L206.50,60.00 L206.50,54.00 L207.50,53.00 L207.50,51.00 L209.50,47.00 L213.00,43.50Z M124.50,43.00 L127.00,42.50 L128.00,43.50 L133.00,44.50 L137.50,48.00 L140.50,54.00 L140.50,61.00 L139.50,63.00 L134.00,69.50 L129.00,71.50 L123.00,71.50 L117.00,68.50 L113.50,64.00 L112.50,59.00 L111.50,58.00 L111.50,56.00 L114.50,49.00 L118.00,45.50Z M222.50,43.00 L225.00,42.50 L232.00,45.50 L235.50,49.00 L238.50,56.00 L238.50,59.00 L235.50,66.00 L234.00,66.50 L232.00,69.50 L230.00,69.50 L227.00,71.50 L221.00,71.50 L220.00,70.50 L218.00,70.50 L212.50,66.00 L209.50,61.00 L209.50,54.00 L213.50,47.00 L219.00,43.50Z M170.50,54.00 L179.00,53.50 L183.00,55.50 L184.50,58.00 L179.00,61.50 L176.00,61.50 L175.00,62.50 L174.00,61.50 L171.00,61.50 L165.50,58.00 L167.00,55.50Z M162.50,60.00 L163.00,59.50 L164.00,61.50 L170.00,64.50 L180.00,64.50 L181.00,63.50 L183.00,63.50 L187.00,60.50 L189.50,66.00 L189.50,70.00 L187.50,75.00 L183.00,79.50 L176.00,82.50 L168.00,80.50 L162.50,75.00 L160.50,70.00 L160.50,65.00 L162.50,62.00Z M82.50,68.00 L87.00,67.50 L95.00,70.50 L99.50,75.00 L101.50,79.00 L101.50,82.00 L105.00,82.50 L109.00,84.50 L113.50,89.00 L115.50,93.00 L116.50,100.00 L115.50,101.00 L115.50,105.00 L113.50,109.00 L109.00,113.50 L105.00,115.50 L101.00,115.50 L100.00,116.50 L93.00,115.50 L89.00,113.50 L84.50,109.00 L82.50,105.00 L82.00,101.50 L79.00,101.50 L75.00,99.50 L70.50,95.00 L67.50,87.00 L68.50,79.00 L70.50,75.00 L75.00,70.50 L79.00,68.50Z M262.50,68.00 L267.00,67.50 L268.00,68.50 L271.00,68.50 L275.00,70.50 L279.50,75.00 L282.50,83.00 L281.50,91.00 L279.50,95.00 L275.00,99.50 L271.00,101.50 L267.50,102.00 L267.50,105.00 L265.50,109.00 L261.00,113.50 L257.00,115.50 L253.00,115.50 L252.00,116.50 L245.00,115.50 L241.00,113.50 L236.50,109.00 L234.50,105.00 L234.50,102.00 L233.50,101.00 L234.50,93.00 L236.50,89.00 L241.00,84.50 L245.00,82.50 L248.50,82.00 L248.50,79.00 L250.50,75.00 L255.00,70.50 L259.00,68.50Z M81.50,71.00 L88.00,70.50 L92.00,72.50 L95.50,75.00 L98.50,80.00 L98.50,82.00 L93.00,82.50 L89.00,84.50 L84.50,89.00 L82.50,93.00 L82.50,98.00 L80.00,98.50 L73.50,94.00 L70.50,88.00 L70.50,82.00 L73.50,76.00 L79.00,71.50Z M261.50,71.00 L268.00,70.50 L269.00,71.50 L271.00,71.50 L275.50,75.00 L278.50,79.00 L278.50,81.00 L279.50,82.00 L279.50,88.00 L277.50,92.00 L274.00,96.50 L270.00,98.50 L267.50,98.00 L267.50,93.00 L265.50,89.00 L261.00,84.50 L257.00,82.50 L251.50,82.00 L251.50,80.00 L255.50,74.00Z M96.50,85.00 L99.00,84.50 L99.50,87.00 L95.50,95.00 L90.00,98.50 L85.00,99.50 L84.50,97.00 L86.50,92.00 L92.00,86.50Z M250.50,85.00 L253.00,84.50 L261.00,88.50 L264.50,94.00 L265.50,99.00 L263.00,99.50 L258.00,97.50 L252.50,92.00Z M101.50,86.00 L104.00,85.50 L109.50,89.00 L113.50,96.00 L113.50,102.00 L112.50,103.00 L112.50,105.00 L109.50,109.00 L105.00,112.50 L103.00,112.50 L102.00,113.50 L96.00,113.50 L89.50,110.00 L86.50,106.00 L85.50,102.00 L91.00,101.50 L95.00,99.50 L99.50,95.00 L101.50,91.00Z M245.50,86.00 L248.50,86.00 L248.50,91.00 L250.50,95.00 L255.00,99.50 L259.00,101.50 L264.50,102.00 L264.50,104.00 L261.50,109.00 L254.00,113.50 L248.00,113.50 L247.00,112.50 L245.00,112.50 L240.50,109.00 L237.50,105.00 L237.50,103.00 L236.50,102.00 L236.50,96.00 L238.50,92.00 L241.00,88.50Z M174.50,89.00 L175.00,88.50 L177.50,92.00 L187.50,111.00 L189.50,113.00 L194.50,123.00 L196.50,125.00 L196.00,125.50 L188.00,125.50 L183.50,117.00 L181.50,115.00 L179.50,110.00 L176.00,105.50 L174.00,105.50 L172.50,107.00 L162.00,125.50 L153.50,125.00 L155.50,123.00 L157.50,118.00 L162.50,111.00 L164.50,106.00 L166.50,104.00Z M51.50,110.00 L62.00,109.50 L63.00,110.50 L65.00,110.50 L71.50,116.00 L73.50,120.00 L73.50,122.00 L74.50,123.00 L74.50,130.00 L73.50,131.00 L73.50,133.00 L70.50,138.00 L64.00,142.50 L62.00,142.50 L61.00,143.50 L54.00,143.50 L53.00,142.50 L51.00,142.50 L47.00,140.50 L41.50,134.00 L41.50,132.00 L40.50,131.00 L40.50,121.00 L44.50,114.00Z M287.50,110.00 L298.00,109.50 L302.00,111.50 L307.50,117.00 L309.50,121.00 L309.50,131.00 L308.50,132.00 L308.50,134.00 L304.00,139.50 L296.00,143.50 L290.00,143.50 L289.00,142.50 L284.00,141.50 L281.00,139.50 L277.50,135.00 L275.50,130.00 L275.50,123.00 L276.50,122.00 L276.50,119.00 L282.00,112.50Z M55.50,112.00 L59.00,111.50 L64.00,113.50 L68.50,117.00 L71.50,123.00 L71.50,129.00 L70.50,130.00 L70.50,132.00 L66.00,137.50 L61.00,140.50 L54.00,140.50 L48.00,137.50 L44.50,133.00 L43.50,128.00 L42.50,127.00 L43.50,122.00 L45.50,118.00 L49.00,114.50Z M291.50,112.00 L294.00,111.50 L301.00,114.50 L304.50,118.00 L307.50,125.00 L306.50,131.00 L304.50,135.00 L296.00,140.50 L289.00,140.50 L287.00,139.50 L281.50,135.00 L278.50,129.00 L278.50,123.00 L282.50,116.00 L288.00,112.50Z M174.50,113.00 L175.00,112.50 L176.50,114.00 L182.50,125.00 L182.00,125.50 L167.50,125.00Z M95.50,129.00 L146.50,129.00 L144.50,133.00 L142.00,135.50 L107.50,136.00 L107.50,140.00 L109.50,142.00 L111.50,147.00 L113.50,149.00 L123.50,167.00 L123.50,169.00 L121.00,172.50 L118.50,170.00 L116.50,165.00 L114.50,163.00 L112.50,158.00 L107.50,151.00 L105.50,146.00 L103.50,144.00Z M151.50,129.00 L159.00,128.50 L159.50,130.00 L156.00,135.50 L149.00,135.50 L148.50,134.00Z M165.50,129.00 L172.50,129.00 L169.00,135.50 L161.50,135.00Z M177.50,129.00 L184.00,128.50 L188.50,135.00 L181.00,135.50Z M190.50,129.00 L198.00,128.50 L201.50,135.00 L194.00,135.50 L192.50,134.00Z M203.50,129.00 L254.00,128.50 L254.50,130.00 L248.50,139.00 L239.50,156.00 L237.50,158.00 L231.50,170.00 L229.00,172.50 L226.50,169.00 L226.50,167.00 L229.50,161.00 L231.50,159.00 L233.50,154.00 L238.50,147.00 L240.50,142.00 L242.50,140.00 L242.50,136.00 L208.00,135.50 L205.50,133.00Z M112.50,139.00 L140.00,138.50 L140.50,140.00 L138.50,142.00 L137.00,145.50 L124.50,146.00 L124.50,149.00 L129.50,157.00 L129.50,159.00 L127.50,162.00 L126.00,162.50Z M145.50,139.00 L154.50,139.00 L150.00,145.50 L142.50,145.00Z M159.50,139.00 L166.50,139.00 L163.00,145.50 L155.50,145.00Z M172.50,139.00 L177.00,138.50 L179.50,141.00 L181.50,145.00 L169.00,145.50 L168.50,145.00 L170.50,141.00Z M183.50,139.00 L190.00,138.50 L194.50,145.00 L187.00,145.50Z M195.50,139.00 L204.00,138.50 L207.50,145.00 L200.00,145.50Z M209.50,139.00 L237.50,139.00 L224.00,162.50 L223.00,162.50 L220.50,159.00 L220.50,157.00 L225.50,149.00 L225.50,146.00 L213.00,145.50Z M1.50,149.00 L25.50,149.00 L25.00,201.50 L1.50,201.00Z M129.50,149.00 L134.00,148.50 L134.50,150.00 L133.50,152.00 L132.00,152.50Z M140.50,149.00 L148.50,149.00 L146.50,153.00 L144.00,155.50 L141.50,156.00 L142.50,160.00 L139.00,164.50 L135.50,159.00 L135.50,157.00 L138.50,151.00Z M153.50,149.00 L161.50,149.00 L157.00,155.50 L150.50,155.00Z M166.50,149.00 L172.00,148.50 L172.50,150.00 L170.50,152.00 L169.00,155.50 L163.00,155.50 L162.50,155.00Z M177.50,149.00 L183.00,148.50 L187.50,155.00 L181.00,155.50Z M188.50,149.00 L196.00,148.50 L199.50,155.00 L193.00,155.50Z M201.50,149.00 L209.00,148.50 L211.50,151.00 L214.50,157.00 L214.50,159.00 L211.00,164.50 L207.50,160.00 L208.50,156.00 L206.00,155.50 L203.50,153.00Z M215.50,149.00 L220.50,149.00 L218.00,152.50 L216.50,152.00Z M324.50,149.00 L348.50,149.00 L348.00,201.50 L324.50,201.00Z M41.50,159.00 L53.00,158.50 L57.00,160.50 L59.00,160.50 L62.00,158.50 L73.00,158.50 L74.00,159.50 L76.00,159.50 L79.50,162.00 L84.50,170.00 L84.50,180.00 L82.50,184.00 L79.00,188.50 L73.00,191.50 L62.00,191.50 L59.00,189.50 L57.00,189.50 L53.00,191.50 L42.00,191.50 L38.00,189.50 L31.50,182.00 L31.50,180.00 L30.50,179.00 L30.50,171.00 L32.50,166.00 L38.00,160.50Z M147.50,159.00 L155.50,159.00 L151.00,165.50Z M160.50,159.00 L166.00,158.50 L166.50,160.00 L163.00,164.50 L158.00,164.50 L157.50,164.00Z M172.50,159.00 L177.00,158.50 L179.50,161.00 L180.50,164.00 L170.00,164.50 L169.50,163.00Z M183.50,159.00 L189.00,158.50 L192.50,164.00 L187.00,164.50 L184.50,162.00Z M194.50,159.00 L202.00,158.50 L202.50,160.00 L199.00,165.50Z M276.50,159.00 L288.00,158.50 L291.00,160.50 L293.00,160.50 L297.00,158.50 L308.00,158.50 L312.00,160.50 L317.50,166.00 L319.50,171.00 L319.50,179.00 L317.50,184.00 L312.00,189.50 L308.00,191.50 L297.00,191.50 L293.00,189.50 L291.00,189.50 L288.00,191.50 L277.00,191.50 L276.00,190.50 L274.00,190.50 L268.50,186.00 L265.50,180.00 L265.50,170.00 L268.50,164.00 L274.00,159.50Z M44.50,161.00 L50.00,160.50 L55.50,163.00 L52.50,166.00 L50.50,171.00 L50.50,179.00 L52.50,184.00 L55.50,187.00 L50.00,189.50 L45.00,189.50 L42.00,187.50 L40.00,187.50 L35.50,183.00 L33.50,179.00 L33.50,171.00 L35.50,167.00 L40.00,162.50 L42.00,162.50Z M64.50,161.00 L70.00,160.50 L75.00,162.50 L79.50,167.00 L82.50,175.00 L79.50,183.00 L75.00,187.50 L70.00,189.50 L65.00,189.50 L59.50,187.00 L62.50,184.00 L64.50,180.00 L64.50,170.00 L62.50,166.00 L59.50,163.00Z M279.50,161.00 L285.00,160.50 L289.50,163.00 L285.50,170.00 L285.50,180.00 L289.50,187.00 L285.00,189.50 L280.00,189.50 L275.00,187.50 L270.50,183.00 L267.50,175.00 L270.50,167.00 L275.00,162.50Z M299.50,161.00 L305.00,160.50 L308.00,162.50 L310.00,162.50 L314.50,167.00 L316.50,171.00 L316.50,179.00 L314.50,183.00 L310.00,187.50 L308.00,187.50 L305.00,189.50 L300.00,189.50 L294.50,187.00 L297.50,184.00 L299.50,179.00 L299.50,171.00 L297.50,166.00 L294.50,163.00Z M131.50,164.00 L133.00,163.50 L136.50,169.00 L135.50,172.00 L133.00,174.50 L131.50,171.00 L129.50,169.00 L129.50,167.00Z M216.50,164.00 L218.00,163.50 L220.50,167.00 L220.50,169.00 L218.50,171.00 L217.00,174.50 L213.50,170.00Z M144.50,165.00 L145.00,164.50 L146.50,166.00 L148.50,170.00 L146.00,175.50 L144.50,175.00 L142.50,171.00 L142.50,168.00Z M204.50,165.00 L205.00,164.50 L207.50,168.00 L207.50,171.00 L205.00,175.50 L203.50,175.00 L201.50,171.00Z M56.50,166.00 L58.00,165.50 L59.50,167.00 L62.50,175.00 L61.50,176.00 L61.50,179.00 L58.00,184.50 L55.50,183.00 L53.50,179.00 L53.50,171.00Z M156.50,166.00 L157.50,166.00 L157.50,168.00 L159.50,171.00 L157.00,175.50 L154.50,172.00 L154.50,169.00Z M192.50,166.00 L193.00,165.50 L195.50,169.00 L195.50,172.00 L193.00,175.50 L190.50,172.00 L192.50,168.00Z M291.50,166.00 L293.00,165.50 L296.50,171.00 L296.50,179.00 L293.00,184.50 L290.50,183.00 L287.50,175.00 L288.50,174.00 L288.50,171.00Z M166.50,168.00 L183.50,168.00 L184.50,173.00 L182.50,175.00 L177.00,185.50 L172.50,185.00 L170.50,180.00 L165.50,173.00Z M171.50,172.00 L178.00,171.50 L178.50,178.00 L172.00,178.50Z M125.50,174.00 L127.00,173.50 L130.50,179.00 L128.00,184.50 L125.50,182.00 L123.50,178.00Z M222.50,174.00 L224.00,173.50 L226.50,178.00 L224.50,182.00 L222.00,184.50 L219.50,179.00Z M138.50,175.00 L139.00,174.50 L142.50,179.00 L142.50,181.00 L140.00,185.50 L136.50,181.00 L136.50,178.00Z M210.50,175.00 L211.00,174.50 L213.50,178.00 L213.50,181.00 L210.00,185.50 L207.50,181.00 L207.50,179.00Z M150.50,176.00 L151.00,175.50 L154.50,180.00 L151.00,185.50 L148.50,182.00 L148.50,179.00Z M198.50,176.00 L199.00,175.50 L201.50,179.00 L201.50,182.00 L199.00,185.50 L195.50,181.00 L196.50,178.00Z M161.50,177.00 L163.50,177.00 L165.50,182.00 L167.50,184.00 L167.00,185.50 L163.00,185.50 L159.50,181.00Z M186.50,177.00 L188.00,176.50 L190.50,181.00 L187.00,185.50 L183.00,185.50 L182.50,184.00 L184.50,182.00Z M120.50,183.00 L121.50,183.00 L122.50,186.00 L124.50,188.00 L124.50,191.00 L118.50,200.00 L116.50,205.00 L114.50,207.00 L114.50,210.00 L137.00,210.50 L139.50,214.00 L141.50,218.00 L141.00,218.50 L100.50,218.00 L101.50,215.00 L106.50,208.00 L108.50,203.00 L110.50,201.00 L112.50,196.00 L114.50,194.00 L116.50,189.00Z M228.50,183.00 L229.00,182.50 L230.50,184.00 L231.50,187.00 L233.50,189.00 L243.50,208.00 L248.50,215.00 L249.50,217.00 L249.00,218.50 L208.50,218.00 L213.00,210.50 L235.50,210.00 L235.50,207.00 L233.50,205.00 L231.50,200.00 L225.50,191.00 L225.50,188.00 L227.50,186.00Z M132.50,185.00 L133.00,184.50 L136.50,189.00 L136.50,192.00 L134.00,196.50 L130.50,190.00Z M216.50,185.00 L217.50,185.00 L219.50,190.00 L216.00,196.50 L213.50,192.00 L213.50,189.00Z M144.50,186.00 L146.50,186.00 L148.50,191.00 L151.50,195.00 L151.00,196.50 L146.00,196.50 L144.50,195.00 L142.50,191.00Z M203.50,186.00 L205.50,186.00 L207.50,191.00 L204.00,196.50 L199.00,196.50 L198.50,195.00 L201.50,191.00Z M153.50,190.00 L159.00,189.50 L161.50,192.00 L163.50,196.00 L158.00,196.50 L155.50,194.00Z M165.50,190.00 L170.00,189.50 L173.00,194.50 L177.00,194.50 L180.00,189.50 L184.00,189.50 L184.50,191.00 L181.00,196.50 L169.00,196.50Z M190.50,190.00 L196.00,189.50 L196.50,190.00 L194.50,194.00 L192.00,196.50 L187.00,196.50 L186.50,196.00 L188.50,192.00Z M127.50,195.00 L128.50,195.00 L129.50,198.00 L131.50,200.00 L134.50,206.00 L134.00,206.50 L120.50,206.00 L123.50,202.00 L125.50,197.00Z M221.50,195.00 L222.00,194.50 L224.50,197.00 L226.50,202.00 L229.50,206.00 L229.00,206.50 L215.50,206.00Z M136.50,200.00 L142.00,199.50 L146.50,206.00 L140.00,206.50Z M147.50,200.00 L154.00,199.50 L157.50,206.00 L152.00,206.50Z M159.50,200.00 L165.00,199.50 L169.50,206.00 L163.00,206.50Z M170.50,200.00 L179.50,200.00 L175.00,206.50Z M184.50,200.00 L190.00,199.50 L190.50,201.00 L188.50,203.00 L187.00,206.50 L181.00,206.50 L181.50,204.00Z M195.50,200.00 L202.50,200.00 L198.00,206.50 L192.50,206.00Z M207.50,200.00 L213.00,199.50 L213.50,201.00 L211.50,203.00 L210.00,206.50 L204.00,206.50 L203.50,206.00Z M0.00,204.50 L25.50,205.00 L26.00,324.50 L145.00,324.50 L145.50,349.00Z M324.50,205.00 L324.50,324.00 L205.00,324.50 L204.50,349.00Z M53.50,207.00 L61.00,206.50 L66.00,208.50 L70.50,212.00 L74.50,220.00 L74.50,227.00 L71.50,234.00 L68.00,237.50 L62.00,240.50 L52.00,240.50 L48.00,238.50 L44.50,236.00 L40.50,229.00 L40.50,219.00 L41.50,218.00 L41.50,216.00 L47.00,209.50Z M289.50,207.00 L296.00,206.50 L301.00,208.50 L305.50,212.00 L308.50,216.00 L308.50,218.00 L309.50,219.00 L309.50,229.00 L307.50,233.00 L302.00,238.50 L298.00,240.50 L288.00,240.50 L287.00,239.50 L285.00,239.50 L282.00,237.50 L276.50,231.00 L276.50,228.00 L275.50,227.00 L275.50,220.00 L277.50,215.00 L281.00,210.50 L286.00,207.50Z M53.50,210.00 L61.00,209.50 L63.00,210.50 L68.50,215.00 L71.50,221.00 L71.50,227.00 L68.50,233.00 L64.00,236.50 L59.00,238.50 L56.00,238.50 L49.00,235.50 L45.50,232.00 L42.50,224.00 L43.50,219.00 L46.50,214.00Z M288.50,210.00 L296.00,209.50 L300.00,211.50 L304.50,215.00 L307.50,223.00 L307.50,225.00 L304.50,232.00 L301.00,235.50 L294.00,238.50 L288.00,237.50 L284.00,235.50 L278.50,227.00 L278.50,221.00 L279.50,220.00 L279.50,218.00 L284.00,212.50Z M142.50,211.00 L148.00,210.50 L153.50,218.00 L147.00,218.50Z M154.50,211.00 L160.00,210.50 L164.50,218.00 L159.00,218.50 L155.50,214.00Z M165.50,211.00 L172.00,210.50 L174.00,213.50 L176.00,213.50 L178.00,210.50 L184.50,211.00 L180.00,218.50 L170.00,218.50Z M189.50,211.00 L195.00,210.50 L195.50,212.00 L191.00,218.50 L186.00,218.50 L185.50,218.00Z M201.50,211.00 L207.00,210.50 L207.50,211.00 L205.50,215.00 L203.00,218.50 L197.00,218.50 L196.50,218.00Z M149.50,223.00 L155.00,222.50 L157.50,225.00 L163.50,237.00 L165.50,239.00 L170.50,249.00 L174.00,253.50 L176.00,253.50 L179.50,249.00 L181.50,244.00 L186.50,237.00 L192.50,225.00 L195.00,222.50 L200.50,223.00 L176.00,265.50 L173.50,265.00 L172.50,262.00 L170.50,260.00 L168.50,255.00 L166.50,253.00 L164.50,248.00 L162.50,246.00 L161.50,243.00 L159.50,241.00 L157.50,236.00 L155.50,234.00 L153.50,229.00Z M161.50,223.00 L167.00,222.50 L174.00,233.50 L176.00,233.50 L177.50,232.00 L183.00,222.50 L188.50,223.00 L179.50,240.00 L175.00,246.50 L170.50,240.00Z M172.50,223.00 L177.50,223.00 L175.00,226.50Z M97.50,234.00 L100.00,233.50 L101.00,234.50 L105.00,234.50 L109.00,236.50 L113.50,241.00 L115.50,245.00 L115.50,249.00 L116.50,250.00 L115.50,257.00 L113.50,261.00 L109.00,265.50 L105.00,267.50 L101.50,268.00 L101.50,271.00 L99.50,275.00 L95.00,279.50 L87.00,282.50 L79.00,281.50 L75.00,279.50 L70.50,275.00 L68.50,271.00 L68.50,268.00 L67.50,267.00 L68.50,259.00 L70.50,255.00 L75.00,250.50 L79.00,248.50 L82.50,248.00 L82.50,245.00 L84.50,241.00 L89.00,236.50 L93.00,234.50Z M249.50,234.00 L252.00,233.50 L253.00,234.50 L257.00,234.50 L261.00,236.50 L265.50,241.00 L267.50,245.00 L267.50,248.00 L271.00,248.50 L275.00,250.50 L279.50,255.00 L281.50,259.00 L282.50,267.00 L279.50,275.00 L275.00,279.50 L267.00,282.50 L259.00,281.50 L255.00,279.50 L250.50,275.00 L248.50,271.00 L248.00,267.50 L245.00,267.50 L241.00,265.50 L236.50,261.00 L233.50,253.00 L234.50,245.00 L236.50,241.00 L241.00,236.50 L245.00,234.50Z M95.50,237.00 L102.00,236.50 L103.00,237.50 L105.00,237.50 L109.50,241.00 L112.50,245.00 L112.50,247.00 L113.50,248.00 L113.50,254.00 L111.50,258.00 L108.00,262.50 L104.00,264.50 L101.50,264.00 L101.50,259.00 L99.50,255.00 L95.00,250.50 L91.00,248.50 L85.50,248.00 L85.50,246.00 L89.50,240.00Z M247.50,237.00 L254.00,236.50 L258.00,238.50 L261.50,241.00 L264.50,246.00 L264.50,248.00 L259.00,248.50 L255.00,250.50 L250.50,255.00 L248.50,259.00 L248.50,264.00 L246.00,264.50 L241.00,261.50 L238.50,258.00 L236.50,254.00 L236.50,248.00 L237.50,247.00 L237.50,245.00 L240.50,241.00 L245.00,237.50Z M84.50,251.00 L87.00,250.50 L95.00,254.50 L98.50,260.00 L99.50,265.00 L97.00,265.50 L92.00,263.50 L86.50,258.00Z M262.50,251.00 L265.00,250.50 L265.50,253.00 L261.50,261.00 L256.00,264.50 L251.00,265.50 L250.50,263.00 L252.50,258.00 L258.00,252.50Z M79.50,252.00 L82.50,252.00 L82.50,257.00 L84.50,261.00 L89.00,265.50 L93.00,267.50 L98.50,268.00 L98.50,270.00 L95.50,275.00 L88.00,279.50 L82.00,279.50 L81.00,278.50 L79.00,278.50 L73.50,274.00 L70.50,268.00 L70.50,262.00 L73.50,256.00Z M267.50,252.00 L270.00,251.50 L275.50,255.00 L279.50,262.00 L279.50,268.00 L278.50,269.00 L278.50,271.00 L275.50,275.00 L271.00,278.50 L269.00,278.50 L268.00,279.50 L262.00,279.50 L255.50,276.00 L252.50,272.00 L251.50,268.00 L257.00,267.50 L261.00,265.50 L265.50,261.00 L267.50,257.00Z M167.50,270.00 L171.00,269.50 L174.00,273.50 L176.00,273.50 L179.00,269.50 L183.00,270.50 L187.50,275.00 L189.50,280.00 L189.50,284.00 L187.50,289.00 L186.00,289.50 L183.00,286.50 L181.00,286.50 L180.00,285.50 L170.00,285.50 L164.00,288.50 L163.00,290.50 L160.50,285.00 L160.50,280.00 L162.50,275.00Z M122.50,276.00 L130.00,275.50 L135.00,277.50 L140.50,282.00 L143.50,289.00 L143.50,296.00 L140.50,303.00 L137.00,306.50 L131.00,309.50 L121.00,309.50 L117.00,307.50 L111.50,302.00 L109.50,298.00 L109.50,288.00 L110.50,287.00 L110.50,285.00 L116.00,278.50 L119.00,276.50Z M219.50,276.00 L227.00,275.50 L228.00,276.50 L231.00,276.50 L237.50,282.00 L240.50,288.00 L240.50,298.00 L237.50,304.00 L229.00,309.50 L219.00,309.50 L218.00,308.50 L216.00,308.50 L209.50,303.00 L206.50,296.00 L206.50,290.00 L207.50,289.00 L208.50,284.00 L212.00,279.50 L217.00,276.50Z M122.50,279.00 L129.00,278.50 L134.00,280.50 L137.50,284.00 L140.50,289.00 L140.50,296.00 L137.50,302.00 L133.00,305.50 L128.00,306.50 L127.00,307.50 L125.00,307.50 L118.00,304.50 L114.50,301.00 L111.50,294.00 L112.50,288.00 L115.50,283.00Z M220.50,279.00 L227.00,278.50 L230.00,280.50 L232.00,280.50 L232.50,282.00 L235.50,284.00 L238.50,291.00 L238.50,294.00 L235.50,301.00 L232.00,304.50 L225.00,307.50 L219.00,306.50 L214.00,303.50 L209.50,296.00 L209.50,289.00 L210.50,287.00 L215.00,281.50Z M174.50,288.00 L179.00,288.50 L183.00,290.50 L184.50,293.00 L179.00,296.50 L171.00,296.50 L167.00,294.50 L165.50,292.00 L171.00,288.50Z M162.50,295.00 L163.00,294.50 L166.00,297.50 L171.00,299.50 L179.00,299.50 L184.00,297.50 L187.00,294.50 L189.50,300.00 L189.50,304.00 L188.50,305.00 L187.50,310.00 L183.00,314.50 L179.00,316.50 L171.00,316.50 L167.00,314.50 L162.50,310.00 L162.50,308.00 L160.50,305.00 L160.50,300.00Z M148.50,325.00 L201.00,324.50 L201.50,348.00 L149.00,348.50Z" fill="#000000" fill-rule="evenodd" stroke="none"/>
</svg>
