<svg xmlns="http://www.w3.org/2000/svg" viewBox="0 0 394 394">
  <path d="M11.50,12.00 L381.00,11.50 L381.50,381.00 L12.00,381.50Z M195.50,58.00 L198.50,58.00 L198.50,78.00 L200.00,78.50 L201.00,80.50 L203.00,80.50 L203.00,82.50 L201.00,82.50 L200.00,84.50 L194.00,84.50 L193.00,82.50 L191.00,82.50 L190.00,83.50 L182.00,83.50 L181.00,84.50 L176.00,84.50 L171.00,86.50 L167.00,86.50 L157.00,90.50 L154.50,90.00 L154.50,88.00 L157.00,86.50 L160.00,86.50 L171.00,82.50 L176.00,82.50 L177.00,81.50 L182.00,81.50 L183.00,80.50 L193.00,80.50 L193.50,79.00 L195.50,78.00Z M261.50,78.00 L265.00,77.50 L270.50,84.00 L270.50,87.00 L260.00,95.50 L258.00,95.50 L257.50,97.00 L261.00,98.50 L264.00,101.50 L268.00,103.50 L273.00,108.50 L274.00,108.50 L285.50,120.00 L297.00,135.50 L298.00,135.50 L299.50,133.00 L299.50,129.00 L302.00,122.50 L308.00,122.50 L309.00,121.50 L314.50,122.00 L314.00,125.50 L308.00,125.50 L304.50,127.00 L302.50,137.00 L300.50,138.00 L300.50,143.00 L305.50,152.00 L305.50,154.00 L308.50,160.00 L308.50,163.00 L310.50,167.00 L310.50,171.00 L312.50,176.00 L312.50,183.00 L313.50,184.00 L313.50,193.00 L315.50,194.00 L315.50,198.00 L319.00,198.50 L327.00,204.50 L330.00,199.50 L333.50,200.00 L333.50,203.00 L330.50,206.00 L329.00,209.50 L326.00,209.50 L323.00,206.50 L320.00,205.50 L314.00,200.50 L313.50,201.00 L313.50,210.00 L312.50,211.00 L312.50,218.00 L310.50,223.00 L310.50,227.00 L309.50,228.00 L308.50,234.00 L306.50,237.00 L305.50,242.00 L300.50,252.00 L315.00,252.50 L315.50,262.00 L311.50,262.00 L311.00,256.50 L301.00,256.50 L300.00,257.50 L297.00,257.50 L290.50,268.00 L277.00,282.50 L276.00,282.50 L274.50,280.00 L276.00,279.50 L286.50,268.00 L293.50,258.00 L293.50,252.00 L297.50,251.00 L304.50,236.00 L304.50,234.00 L306.50,230.00 L306.50,227.00 L308.50,223.00 L309.50,213.00 L310.50,212.00 L310.50,204.00 L311.50,203.00 L311.50,201.00 L309.50,200.00 L309.50,194.00 L311.50,193.00 L311.50,191.00 L310.50,190.00 L310.50,182.00 L309.50,181.00 L309.50,176.00 L308.50,175.00 L308.50,171.00 L306.50,167.00 L306.50,164.00 L305.50,163.00 L304.50,158.00 L302.50,155.00 L302.50,153.00 L297.50,143.00 L293.50,142.00 L293.50,136.00 L289.50,130.00 L279.50,119.00 L279.50,118.00 L268.00,107.50 L258.00,100.50 L256.00,99.50 L252.00,99.50 L251.00,96.50 L241.00,91.50 L239.00,91.50 L236.00,89.50 L234.00,89.50 L230.00,87.50 L227.00,87.50 L226.00,86.50 L219.00,85.50 L218.00,84.50 L214.00,84.50 L211.50,83.00 L212.00,81.50 L218.00,81.50 L219.00,82.50 L222.00,82.50 L223.00,83.50 L226.00,83.50 L227.00,84.50 L230.00,84.50 L231.00,85.50 L239.00,87.50 L251.00,93.50 L256.00,93.50 L265.50,85.00 L261.50,81.00Z M119.50,83.00 L122.00,82.50 L123.50,84.00 L123.50,87.00 L126.00,91.50 L128.00,91.50 L129.00,92.50 L136.00,92.50 L137.00,93.50 L143.00,93.50 L146.00,91.50 L146.50,95.00 L143.00,96.50 L142.00,99.50 L138.00,99.50 L126.00,107.50 L119.00,114.50 L118.00,114.50 L107.00,126.50 L104.50,125.00 L108.50,121.00 L108.50,120.00 L120.00,108.50 L135.50,97.00 L135.00,95.50 L123.00,95.50 L121.50,94.00 L121.50,92.00 L119.50,88.00Z M212.50,97.00 L216.00,96.50 L217.00,97.50 L219.00,97.50 L227.00,101.50 L230.00,104.50 L237.00,107.50 L254.00,110.50 L262.50,118.00 L264.50,123.00 L265.50,134.00 L266.50,135.00 L267.50,142.00 L269.50,146.00 L271.00,146.50 L271.50,148.00 L277.00,152.50 L278.00,152.50 L282.50,157.00 L284.50,161.00 L284.50,163.00 L285.50,164.00 L285.50,181.00 L287.50,186.00 L294.50,194.00 L294.50,197.00 L293.00,198.50 L278.50,199.00 L281.50,202.00 L282.50,207.00 L283.50,208.00 L282.50,216.00 L274.50,228.00 L274.50,230.00 L272.50,234.00 L272.50,242.00 L271.50,243.00 L271.50,246.00 L270.50,248.00 L265.00,252.50 L263.50,250.00 L263.50,248.00 L265.50,247.00 L268.50,241.00 L268.50,235.00 L269.50,234.00 L269.50,229.00 L270.50,228.00 L270.50,226.00 L279.50,212.00 L279.50,208.00 L277.50,204.00 L272.00,198.50 L260.50,199.00 L263.50,203.00 L264.50,209.00 L262.50,214.00 L257.50,219.00 L255.50,223.00 L255.50,234.00 L253.00,238.50 L250.50,234.00 L251.50,233.00 L251.50,224.00 L252.50,223.00 L252.50,219.00 L260.50,208.00 L258.50,203.00 L255.00,199.50 L253.00,198.50 L242.50,199.00 L244.50,201.00 L244.50,208.00 L238.50,214.00 L238.00,224.50 L234.50,220.00 L234.50,212.00 L235.50,210.00 L241.50,205.00 L238.00,200.50 L234.00,198.50 L199.00,198.50 L199.00,232.50 L199.50,231.00 L202.00,229.50 L206.00,229.50 L210.00,231.50 L212.50,229.00 L212.50,227.00 L215.00,222.50 L223.00,222.50 L224.00,223.50 L226.00,223.50 L228.50,225.00 L228.50,227.00 L229.50,228.00 L226.00,228.50 L222.00,226.50 L218.00,226.50 L216.50,228.00 L216.50,231.00 L214.00,234.50 L212.00,235.50 L208.00,235.50 L204.00,233.50 L201.50,236.00 L198.50,242.00 L198.50,253.00 L199.00,253.50 L205.00,248.50 L218.00,249.50 L221.50,246.00 L222.50,243.00 L227.00,237.50 L235.00,237.50 L237.50,241.00 L235.00,241.50 L234.00,240.50 L232.00,240.50 L228.00,242.50 L223.50,251.00 L220.00,253.50 L212.00,253.50 L211.00,252.50 L207.00,252.50 L205.00,253.50 L198.50,261.00 L198.50,273.00 L201.00,272.50 L204.00,269.50 L208.00,267.50 L218.00,267.50 L219.00,268.50 L225.00,267.50 L227.00,266.50 L231.50,262.00 L234.50,257.00 L240.00,252.50 L245.00,252.50 L246.50,255.00 L244.00,256.50 L242.00,256.50 L235.50,263.00 L232.50,268.00 L227.00,271.50 L209.00,271.50 L207.00,272.50 L198.50,281.00 L198.50,293.00 L196.00,293.50 L195.50,284.00 L195.00,283.50 L193.00,285.50 L192.50,285.00 L192.50,280.00 L195.50,278.00 L195.50,266.00 L192.50,266.00 L193.50,265.00 L193.50,260.00 L195.50,258.00 L195.50,247.00 L193.50,247.00 L193.50,241.00 L195.50,239.00 L195.50,199.00 L156.50,199.00 L159.50,202.00 L158.50,213.00 L167.50,218.00 L167.50,228.00 L165.50,233.00 L166.50,238.00 L169.00,239.50 L178.00,238.50 L183.00,240.50 L186.50,245.00 L186.00,249.50 L185.00,249.50 L178.00,242.50 L164.50,242.00 L162.50,239.00 L162.50,228.00 L163.50,227.00 L164.50,222.00 L162.00,219.50 L158.00,218.50 L154.50,215.00 L154.50,207.00 L155.50,206.00 L155.50,204.00 L147.00,198.50 L135.50,199.00 L140.50,205.00 L140.50,214.00 L139.50,215.00 L139.50,218.00 L141.50,222.00 L143.00,223.50 L148.00,225.50 L152.50,230.00 L152.50,233.00 L153.50,234.00 L152.50,247.00 L154.50,252.00 L157.00,254.50 L162.00,256.50 L172.00,256.50 L176.00,258.50 L182.50,264.00 L182.00,268.50 L170.00,260.50 L168.00,260.50 L167.00,259.50 L157.00,259.50 L153.00,257.50 L150.50,255.00 L150.50,253.00 L149.50,252.00 L149.50,234.00 L147.00,230.50 L140.00,226.50 L136.50,223.00 L136.50,207.00 L134.50,204.00 L128.00,198.50 L115.50,199.00 L121.50,208.00 L121.50,225.00 L123.50,228.00 L123.50,230.00 L125.00,230.50 L127.00,233.50 L131.00,235.50 L137.50,242.00 L137.50,245.00 L138.50,246.00 L138.50,254.00 L139.50,255.00 L139.50,261.00 L143.50,269.00 L150.00,272.50 L161.00,273.50 L171.00,277.50 L177.00,282.50 L180.50,284.00 L180.50,287.00 L178.00,287.50 L177.00,286.50 L175.00,286.50 L163.00,278.50 L156.00,277.50 L155.00,276.50 L145.00,275.50 L138.50,270.00 L135.50,262.00 L135.50,252.00 L134.50,251.00 L134.50,247.00 L132.50,243.00 L125.00,237.50 L124.50,236.00 L119.50,232.00 L119.50,230.00 L117.50,226.00 L117.50,216.00 L118.50,215.00 L118.50,213.00 L115.50,206.00 L110.00,199.50 L108.00,198.50 L100.50,198.00 L101.00,195.50 L105.50,195.00 L101.50,188.00 L101.50,178.00 L104.50,171.00 L110.50,163.00 L110.50,161.00 L112.50,157.00 L113.50,146.00 L115.00,144.50 L117.50,147.00 L115.50,162.00 L114.50,163.00 L114.50,165.00 L107.50,175.00 L104.50,182.00 L106.50,189.00 L112.00,195.50 L124.50,195.00 L120.50,190.00 L120.50,181.00 L128.50,170.00 L131.00,156.50 L133.50,159.00 L133.50,168.00 L131.50,173.00 L124.50,183.00 L124.50,188.00 L131.00,195.50 L142.50,195.00 L139.50,191.00 L139.50,185.00 L145.50,178.00 L147.50,174.00 L147.50,172.00 L146.50,171.00 L147.00,165.50 L150.50,168.00 L150.50,178.00 L148.50,182.00 L144.50,185.00 L143.50,189.00 L144.50,191.00 L149.00,194.50 L151.00,195.50 L195.00,195.50 L195.00,151.50 L191.00,154.50 L184.00,154.50 L183.00,153.50 L178.00,154.50 L176.50,159.00 L172.00,164.50 L161.00,163.50 L154.50,160.00 L165.00,159.50 L166.00,160.50 L170.00,160.50 L176.00,150.50 L178.00,149.50 L184.00,149.50 L188.00,151.50 L190.00,150.50 L195.50,142.00 L195.00,129.50 L194.50,131.00 L189.00,135.50 L172.00,135.50 L167.50,140.00 L165.50,144.00 L161.00,148.50 L159.00,148.50 L158.00,149.50 L142.00,149.50 L141.00,150.50 L137.50,148.00 L138.00,146.50 L141.00,146.50 L142.00,145.50 L157.00,145.50 L158.00,144.50 L160.00,144.50 L163.50,138.00 L171.00,131.50 L182.00,131.50 L183.00,132.50 L187.00,131.50 L191.00,127.50 L192.00,127.50 L195.50,123.00 L195.00,110.50 L186.00,116.50 L169.00,116.50 L168.00,117.50 L165.00,117.50 L162.00,119.50 L158.50,123.00 L158.50,124.00 L156.50,125.00 L154.50,129.00 L149.00,133.50 L142.00,134.50 L141.00,135.50 L133.00,135.50 L128.00,137.50 L125.00,137.50 L121.50,135.00 L128.00,132.50 L145.00,130.50 L148.00,128.50 L161.00,114.50 L163.00,114.50 L164.00,113.50 L181.00,113.50 L182.00,112.50 L184.00,112.50 L189.00,109.50 L195.50,103.00 L196.00,100.50 L200.00,100.50 L203.00,98.50 L203.50,103.00 L198.50,107.00 L198.50,119.00 L199.00,119.50 L202.00,117.50 L202.50,118.00 L202.50,123.00 L198.50,127.00 L198.50,138.00 L199.00,138.50 L200.00,136.50 L202.50,136.00 L202.50,141.00 L198.50,146.00 L198.50,195.00 L248.50,195.00 L243.50,189.00 L243.50,185.00 L245.50,180.00 L244.50,177.00 L243.00,175.50 L236.00,172.50 L233.50,169.00 L233.50,160.00 L234.50,159.00 L234.50,151.00 L233.50,149.00 L230.00,146.50 L219.00,146.50 L218.00,145.50 L216.00,145.50 L213.00,143.50 L209.50,139.00 L210.00,135.50 L213.00,136.50 L220.00,142.50 L232.00,142.50 L237.50,147.00 L237.50,149.00 L238.50,150.00 L237.50,167.00 L240.00,169.50 L245.00,171.50 L248.50,176.00 L248.50,185.00 L247.50,186.00 L247.50,188.00 L256.00,195.50 L268.50,195.00 L268.50,194.00 L267.00,193.50 L263.50,189.00 L263.50,186.00 L262.50,185.00 L262.50,180.00 L263.50,179.00 L263.50,172.00 L262.50,170.00 L257.00,164.50 L253.00,162.50 L249.50,159.00 L249.50,157.00 L248.50,156.00 L248.50,144.00 L247.50,143.00 L247.50,138.00 L245.50,134.00 L243.00,131.50 L238.00,129.50 L230.00,129.50 L229.00,128.50 L223.00,127.50 L211.50,119.00 L211.50,116.00 L213.00,115.50 L216.00,117.50 L218.00,117.50 L227.00,124.50 L229.00,124.50 L230.00,125.50 L238.00,125.50 L239.00,126.50 L243.00,126.50 L249.50,132.00 L251.50,137.00 L251.50,151.00 L252.50,152.00 L252.50,155.00 L265.50,166.00 L267.50,171.00 L267.50,178.00 L266.50,179.00 L266.50,185.00 L267.50,187.00 L276.00,195.50 L289.00,195.50 L289.50,195.00 L284.50,190.00 L281.50,182.00 L281.50,172.00 L282.50,171.00 L281.50,169.00 L281.50,165.00 L279.50,161.00 L265.50,148.00 L263.50,144.00 L262.50,134.00 L261.50,133.00 L261.50,128.00 L258.50,120.00 L254.00,115.50 L250.00,113.50 L241.00,112.50 L240.00,111.50 L236.00,111.50 L235.00,110.50 L230.00,109.50 L220.00,102.50 L213.00,100.50Z M83.50,119.00 L87.00,118.50 L88.50,120.00 L97.00,135.50 L99.00,132.50 L101.50,134.00 L99.50,138.00 L99.50,142.00 L96.50,143.00 L89.50,158.00 L89.50,160.00 L86.50,167.00 L86.50,170.00 L85.50,171.00 L84.50,181.00 L83.50,182.00 L83.50,190.00 L82.50,191.00 L82.50,193.00 L84.50,194.00 L84.50,200.00 L82.50,201.00 L82.50,203.00 L83.50,204.00 L83.50,212.00 L84.50,213.00 L85.50,223.00 L86.50,224.00 L86.50,227.00 L87.50,228.00 L89.50,236.00 L96.50,251.00 L99.50,252.00 L99.50,256.00 L100.50,258.00 L107.50,268.00 L114.50,275.00 L114.50,276.00 L134.00,292.50 L136.00,293.50 L142.00,293.50 L143.00,297.50 L155.00,303.50 L157.00,303.50 L167.00,307.50 L171.00,307.50 L176.00,309.50 L181.00,309.50 L183.50,311.00 L183.00,313.50 L182.00,312.50 L171.00,311.50 L160.00,307.50 L157.00,307.50 L143.00,300.50 L141.00,300.50 L140.50,302.00 L144.50,310.00 L144.50,314.00 L139.00,319.50 L134.00,320.50 L133.50,318.00 L139.50,312.00 L138.50,307.00 L136.50,304.00 L135.50,297.00 L120.00,285.50 L108.50,274.00 L108.50,273.00 L103.50,268.00 L101.50,264.00 L96.00,257.50 L93.00,257.50 L89.00,259.50 L83.00,260.50 L82.50,264.00 L83.50,265.00 L83.50,268.00 L79.50,268.00 L79.50,266.00 L77.50,262.00 L77.50,258.00 L81.00,256.50 L84.00,256.50 L88.00,254.50 L93.00,254.50 L93.50,251.00 L89.50,244.00 L89.50,242.00 L87.50,239.00 L87.50,237.00 L83.50,227.00 L82.50,218.00 L81.50,217.00 L81.50,211.00 L80.50,210.00 L80.50,201.00 L78.00,199.50 L76.00,199.50 L75.00,200.50 L71.00,200.50 L70.00,201.50 L64.00,201.50 L63.50,198.00 L62.50,197.00 L62.50,193.00 L66.00,192.50 L67.00,197.50 L70.00,197.50 L71.00,196.50 L78.00,196.50 L78.50,194.00 L80.50,193.00 L80.50,184.00 L81.50,183.00 L81.50,177.00 L82.50,176.00 L83.50,167.00 L84.50,166.00 L87.50,155.00 L89.50,152.00 L89.50,150.00 L93.50,143.00 L93.50,137.00 L91.50,135.00 L86.50,125.00 L84.50,123.00Z M266.50,287.00 L267.00,286.50 L268.50,288.00 L268.50,290.00 L264.00,292.50 L261.00,295.50 L257.50,297.00 L259.50,305.00 L264.50,316.00 L264.00,319.50 L260.50,319.00 L259.50,315.00 L257.50,312.00 L254.50,301.00 L251.00,300.50 L244.00,304.50 L242.00,304.50 L239.00,306.50 L237.00,306.50 L230.00,309.50 L227.00,309.50 L226.00,310.50 L223.00,310.50 L218.00,312.50 L212.00,312.50 L211.00,313.50 L201.00,313.50 L200.00,315.50 L196.50,316.00 L196.50,319.00 L192.50,327.00 L193.00,328.50 L198.50,331.00 L198.50,334.00 L195.00,334.50 L187.50,330.00 L187.50,327.00 L193.50,315.00 L191.50,312.00 L193.00,311.50 L194.00,309.50 L200.00,309.50 L201.00,311.50 L203.00,311.50 L204.00,310.50 L213.00,310.50 L214.00,309.50 L218.00,309.50 L219.00,308.50 L223.00,308.50 L227.00,306.50 L230.00,306.50 L231.00,305.50 L236.00,304.50 L239.00,302.50 L241.00,302.50 L251.00,297.50 L252.00,293.50 L258.00,293.50Z" fill="#000000" fill-rule="evenodd" stroke="none"/>
</svg>
