<svg xmlns="http://www.w3.org/2000/svg" viewBox="0 0 350 350">
  <path d="M173.50,36.00 L176.50,36.00 L176.50,56.00 L178.00,56.50 L179.00,58.50 L196.00,59.50 L197.00,60.50 L200.00,60.50 L201.00,61.50 L204.00,61.50 L205.00,62.50 L208.00,62.50 L209.00,63.50 L217.00,65.50 L229.00,71.50 L234.00,71.50 L243.50,63.00 L239.50,59.00 L239.50,56.00 L243.00,55.50 L248.50,62.00 L248.50,65.00 L238.00,73.50 L236.00,73.50 L235.50,75.00 L239.00,76.50 L242.00,79.50 L246.00,81.50 L251.00,86.50 L252.00,86.50 L263.50,98.00 L275.00,113.50 L276.00,113.50 L277.50,111.00 L277.50,107.00 L280.00,100.50 L286.00,100.50 L287.00,99.50 L292.50,100.00 L292.00,103.50 L286.00,103.50 L282.50,105.00 L280.50,115.00 L278.50,116.00 L278.50,121.00 L283.50,130.00 L283.50,132.00 L286.50,138.00 L286.50,141.00 L288.50,145.00 L288.50,149.00 L290.50,154.00 L290.50,161.00 L291.50,162.00 L291.50,171.00 L293.50,172.00 L293.50,176.00 L297.00,176.50 L305.00,182.50 L308.00,177.50 L311.50,178.00 L311.50,181.00 L308.50,184.00 L307.00,187.50 L304.00,187.50 L301.00,184.50 L298.00,183.50 L292.00,178.50 L291.50,179.00 L291.50,188.00 L290.50,189.00 L290.50,196.00 L288.50,201.00 L288.50,205.00 L287.50,206.00 L286.50,212.00 L284.50,215.00 L283.50,220.00 L278.50,230.00 L293.00,230.50 L293.50,240.00 L289.50,240.00 L289.00,234.50 L279.00,234.50 L278.00,235.50 L275.00,235.50 L268.50,246.00 L263.50,251.00 L263.50,252.00 L246.00,268.50 L235.50,275.00 L237.50,283.00 L242.50,294.00 L242.00,297.50 L238.50,297.00 L237.50,293.00 L235.50,290.00 L232.50,279.00 L229.00,278.50 L222.00,282.50 L220.00,282.50 L217.00,284.50 L215.00,284.50 L208.00,287.50 L205.00,287.50 L204.00,288.50 L201.00,288.50 L196.00,290.50 L190.00,290.50 L189.00,291.50 L179.00,291.50 L178.00,293.50 L175.00,293.50 L174.50,297.00 L171.50,302.00 L170.50,306.00 L176.50,309.00 L176.00,312.50 L173.00,312.50 L165.50,308.00 L165.50,305.00 L171.50,293.00 L171.00,291.50 L161.00,291.50 L160.00,290.50 L155.00,290.50 L154.00,289.50 L145.00,288.50 L144.00,287.50 L130.00,283.50 L121.00,278.50 L119.00,278.50 L118.50,280.00 L122.50,288.00 L122.50,292.00 L117.00,297.50 L112.00,298.50 L111.50,296.00 L117.50,290.00 L116.50,285.00 L114.50,282.00 L113.50,275.00 L98.00,263.50 L86.50,252.00 L86.50,251.00 L81.50,246.00 L79.50,242.00 L74.00,235.50 L71.00,235.50 L67.00,237.50 L61.00,238.50 L60.50,242.00 L61.50,243.00 L61.50,246.00 L57.50,246.00 L57.50,244.00 L55.50,240.00 L55.50,236.00 L59.00,234.50 L62.00,234.50 L66.00,232.50 L71.00,232.50 L71.50,229.00 L67.50,222.00 L67.50,220.00 L65.50,217.00 L65.50,215.00 L61.50,205.00 L60.50,196.00 L59.50,195.00 L59.50,189.00 L58.50,188.00 L58.50,179.00 L56.00,177.50 L54.00,177.50 L53.00,178.50 L49.00,178.50 L48.00,179.50 L42.00,179.50 L41.50,176.00 L40.50,175.00 L41.00,170.50 L44.50,171.00 L45.00,175.50 L48.00,175.50 L49.00,174.50 L56.00,174.50 L56.50,172.00 L58.50,171.00 L58.50,162.00 L59.50,161.00 L59.50,155.00 L60.50,154.00 L61.50,145.00 L62.50,144.00 L65.50,133.00 L67.50,130.00 L67.50,128.00 L71.50,121.00 L71.50,115.00 L69.50,113.00 L64.50,103.00 L62.50,101.00 L61.50,97.00 L65.00,96.50 L66.50,98.00 L75.00,113.50 L86.50,98.00 L98.00,86.50 L113.50,75.00 L113.00,73.50 L101.00,73.50 L99.50,72.00 L99.50,70.00 L97.50,66.00 L98.00,60.50 L100.00,60.50 L101.50,62.00 L101.50,65.00 L104.00,69.50 L106.00,69.50 L107.00,70.50 L114.00,70.50 L115.00,71.50 L121.00,71.50 L130.00,66.50 L132.00,66.50 L135.00,64.50 L138.00,64.50 L145.00,61.50 L154.00,60.50 L155.00,59.50 L160.00,59.50 L161.00,58.50 L171.00,58.50 L171.50,57.00 L173.50,56.00Z M168.50,61.00 L171.00,60.50 L172.00,62.50 L178.00,62.50 L179.00,60.50 L181.00,60.50 L182.00,61.50 L191.00,61.50 L192.00,62.50 L201.00,63.50 L205.00,65.50 L208.00,65.50 L209.00,66.50 L214.00,67.50 L229.00,74.50 L230.00,77.50 L234.00,77.50 L236.00,78.50 L246.00,85.50 L253.00,92.50 L254.00,92.50 L267.50,108.00 L271.50,114.00 L271.50,120.00 L275.50,121.00 L280.50,131.00 L280.50,133.00 L282.50,136.00 L282.50,138.00 L284.50,142.00 L284.50,145.00 L286.50,149.00 L287.50,159.00 L288.50,160.00 L288.50,168.00 L289.50,169.00 L289.50,171.00 L287.50,172.00 L287.50,178.00 L289.50,179.00 L289.50,181.00 L288.50,182.00 L288.50,190.00 L287.50,191.00 L286.50,201.00 L284.50,205.00 L284.50,208.00 L283.50,209.00 L282.50,214.00 L275.50,229.00 L271.50,230.00 L271.50,236.00 L264.50,246.00 L257.50,253.00 L257.50,254.00 L242.00,267.50 L236.00,271.50 L230.00,271.50 L229.00,275.50 L219.00,280.50 L217.00,280.50 L214.00,282.50 L212.00,282.50 L208.00,284.50 L205.00,284.50 L201.00,286.50 L197.00,286.50 L196.00,287.50 L192.00,287.50 L191.00,288.50 L182.00,288.50 L181.00,289.50 L179.00,289.50 L178.00,287.50 L172.00,287.50 L171.00,289.50 L169.00,289.50 L168.00,288.50 L160.00,288.50 L159.00,287.50 L154.00,287.50 L149.00,285.50 L145.00,285.50 L144.00,284.50 L133.00,281.50 L121.00,275.50 L120.00,271.50 L114.00,271.50 L112.00,270.50 L104.00,264.50 L97.00,257.50 L96.00,257.50 L82.50,242.00 L77.50,234.00 L77.50,230.00 L74.50,229.00 L69.50,219.00 L69.50,217.00 L67.50,214.00 L67.50,212.00 L64.50,205.00 L64.50,202.00 L63.50,201.00 L62.50,191.00 L61.50,190.00 L61.50,182.00 L60.50,181.00 L60.50,179.00 L62.50,178.00 L62.50,172.00 L60.50,171.00 L60.50,169.00 L61.50,168.00 L61.50,160.00 L62.50,159.00 L63.50,149.00 L64.50,148.00 L64.50,145.00 L65.50,144.00 L67.50,136.00 L74.50,121.00 L77.50,120.00 L77.50,116.00 L78.50,114.00 L85.50,104.00 L92.50,97.00 L92.50,96.00 L112.00,79.50 L116.00,77.50 L120.00,77.50 L121.00,74.50 L133.00,68.50 L135.00,68.50 L145.00,64.50 L153.00,63.50 L154.00,62.50Z M184.50,75.00 L194.00,74.50 L205.00,79.50 L208.00,82.50 L212.00,84.50 L232.00,88.50 L240.50,96.00 L242.50,101.00 L243.50,112.00 L244.50,113.00 L245.50,120.00 L247.50,124.00 L249.00,124.50 L249.50,126.00 L255.00,130.50 L256.00,130.50 L260.50,135.00 L262.50,139.00 L262.50,141.00 L263.50,142.00 L263.50,159.00 L265.50,164.00 L272.50,172.00 L272.50,175.00 L271.00,176.50 L256.50,177.00 L260.50,182.00 L261.50,190.00 L260.50,191.00 L259.50,196.00 L252.50,206.00 L252.50,208.00 L250.50,212.00 L250.50,220.00 L249.50,221.00 L249.50,224.00 L245.00,229.50 L239.00,232.50 L234.00,232.50 L233.00,233.50 L223.00,233.50 L222.00,234.50 L220.00,234.50 L213.50,241.00 L210.50,246.00 L205.00,249.50 L187.00,249.50 L185.00,250.50 L176.50,259.00 L176.50,271.00 L174.00,271.50 L173.00,261.50 L167.00,265.50 L156.00,265.50 L155.00,264.50 L153.00,264.50 L141.00,256.50 L134.00,255.50 L133.00,254.50 L123.00,253.50 L116.50,248.00 L113.50,240.00 L113.50,230.00 L112.50,229.00 L112.50,225.00 L110.50,221.00 L103.00,215.50 L102.50,214.00 L97.50,210.00 L97.50,208.00 L95.50,204.00 L95.50,194.00 L96.50,193.00 L96.50,191.00 L93.50,184.00 L88.00,177.50 L86.00,176.50 L79.00,176.50 L78.50,174.00 L83.50,173.00 L79.50,166.00 L79.50,156.00 L82.50,149.00 L88.50,141.00 L88.50,139.00 L90.50,135.00 L91.50,124.00 L94.50,117.00 L96.00,116.50 L97.00,114.50 L100.00,112.50 L102.00,112.50 L106.00,110.50 L123.00,108.50 L126.00,106.50 L139.00,92.50 L141.00,92.50 L142.00,91.50 L159.00,91.50 L160.00,90.50 L162.00,90.50 L167.00,87.50 L173.50,81.00 L174.00,78.50 L178.00,78.50 L180.00,76.50Z M186.50,79.00 L193.00,78.50 L198.00,80.50 L208.00,87.50 L210.00,87.50 L214.00,89.50 L228.00,91.50 L232.00,93.50 L236.50,98.00 L238.50,102.00 L239.50,111.00 L240.50,112.00 L240.50,118.00 L243.50,126.00 L257.50,139.00 L259.50,143.00 L259.50,147.00 L260.50,148.00 L259.50,150.00 L259.50,160.00 L262.50,168.00 L267.50,173.00 L267.00,173.50 L254.00,173.50 L245.50,165.00 L244.50,163.00 L244.50,157.00 L245.50,156.00 L245.50,149.00 L244.50,148.00 L244.50,146.00 L240.00,140.50 L235.00,137.50 L230.50,133.00 L230.50,130.00 L229.50,129.00 L229.50,115.00 L227.50,110.00 L223.00,105.50 L221.00,104.50 L217.00,104.50 L216.00,103.50 L208.00,103.50 L207.00,102.50 L205.00,102.50 L196.00,95.50 L194.00,95.50 L191.00,93.50 L184.00,93.50 L183.00,94.50 L181.00,94.50 L177.00,97.50 L176.50,97.00 L176.50,85.00 L182.00,80.50Z M171.50,89.00 L173.50,89.00 L173.50,101.00 L170.50,105.00 L165.00,109.50 L163.00,110.50 L161.00,110.50 L160.00,109.50 L149.00,109.50 L141.50,116.00 L138.00,122.50 L136.00,122.50 L135.00,123.50 L120.00,123.50 L111.50,127.00 L108.50,132.00 L108.50,139.00 L107.50,140.00 L107.50,145.00 L106.50,146.00 L106.50,148.00 L98.50,159.00 L98.50,168.00 L102.50,173.00 L90.00,173.50 L84.50,167.00 L82.50,160.00 L85.50,153.00 L92.50,143.00 L93.50,136.00 L94.50,135.00 L94.50,129.00 L97.50,121.00 L102.00,116.50 L107.00,114.50 L110.00,114.50 L111.00,113.50 L119.00,113.50 L120.00,112.50 L127.00,111.50 L131.00,108.50 L134.50,103.00 L136.00,102.50 L136.50,101.00 L143.00,95.50 L146.00,95.50 L147.00,94.50 L164.00,94.50Z M185.50,98.00 L190.00,97.50 L201.00,105.50 L207.00,106.50 L208.00,107.50 L216.00,107.50 L221.00,109.50 L223.50,112.00 L225.50,116.00 L225.50,121.00 L226.50,122.00 L226.50,134.00 L227.50,135.00 L227.50,137.00 L231.00,140.50 L235.00,142.50 L240.50,148.00 L241.50,150.00 L240.50,163.00 L241.50,164.00 L241.50,167.00 L244.50,171.00 L246.50,172.00 L246.00,173.50 L234.00,173.50 L225.50,166.00 L225.50,164.00 L226.50,163.00 L226.50,154.00 L223.00,149.50 L218.00,147.50 L215.50,145.00 L216.50,128.00 L215.50,127.00 L215.50,125.00 L212.00,121.50 L210.00,120.50 L198.00,120.50 L191.00,114.50 L187.00,112.50 L182.00,112.50 L178.00,114.50 L177.00,116.50 L176.50,116.00 L176.50,105.00 L183.00,98.50Z M172.50,108.00 L173.50,108.00 L173.50,120.00 L168.00,128.50 L166.00,129.50 L162.00,127.50 L156.00,127.50 L153.50,129.00 L148.00,138.50 L144.00,138.50 L143.00,137.50 L129.00,137.50 L126.50,139.00 L124.50,144.00 L124.50,149.00 L125.50,150.00 L125.50,152.00 L123.50,156.00 L117.50,163.00 L117.50,169.00 L120.50,173.00 L120.00,173.50 L109.00,173.50 L104.50,169.00 L102.50,166.00 L102.50,161.00 L110.50,149.00 L110.50,147.00 L111.50,146.00 L111.50,137.00 L112.50,136.00 L112.50,133.00 L116.00,129.50 L120.00,127.50 L136.00,127.50 L137.00,126.50 L139.00,126.50 L150.00,113.50 L167.00,113.50 L169.00,112.50 L172.50,109.00Z M183.50,117.00 L186.00,116.50 L188.00,117.50 L190.50,121.00 L194.00,123.50 L196.00,123.50 L197.00,124.50 L208.00,124.50 L211.50,127.00 L212.50,129.00 L211.50,147.00 L214.00,150.50 L221.00,153.50 L222.50,155.00 L223.50,158.00 L221.50,163.00 L221.50,167.00 L226.50,173.00 L226.00,173.50 L176.50,173.00 L176.50,124.00 L177.50,122.00Z M172.50,130.00 L173.50,130.00 L173.00,173.50 L129.00,173.50 L122.50,169.00 L121.50,165.00 L122.50,163.00 L126.50,160.00 L128.50,156.00 L128.50,145.00 L131.00,141.50 L133.00,140.50 L138.00,140.50 L139.00,141.50 L143.00,141.50 L144.00,142.50 L150.00,142.50 L154.50,137.00 L156.00,132.50 L158.00,131.50 L161.00,131.50 L162.00,132.50 L169.00,132.50Z M93.50,177.00 L106.00,176.50 L109.00,178.50 L114.50,185.00 L114.50,201.00 L118.00,204.50 L125.00,208.50 L127.50,212.00 L127.50,230.00 L128.50,231.00 L128.50,233.00 L131.00,235.50 L135.00,237.50 L145.00,237.50 L146.00,238.50 L148.00,238.50 L152.00,240.50 L159.00,246.50 L168.00,246.50 L173.00,243.50 L173.50,256.00 L165.00,261.50 L160.00,262.50 L155.00,260.50 L152.00,257.50 L143.00,252.50 L128.00,250.50 L122.00,247.50 L117.50,239.00 L117.50,233.00 L116.50,232.00 L116.50,224.00 L115.50,223.00 L115.50,220.00 L109.00,213.50 L105.00,211.50 L104.50,210.00 L101.50,208.00 L101.50,206.00 L99.50,203.00 L99.50,186.00Z M113.50,177.00 L125.00,176.50 L133.50,182.00 L133.50,184.00 L132.50,185.00 L132.50,193.00 L136.00,196.50 L140.00,197.50 L142.50,200.00 L141.50,205.00 L140.50,206.00 L140.50,217.00 L143.00,220.50 L156.00,220.50 L163.00,227.50 L170.00,227.50 L173.00,224.50 L173.50,225.00 L173.50,236.00 L167.00,242.50 L163.00,243.50 L158.00,240.50 L154.00,236.50 L150.00,234.50 L140.00,234.50 L135.00,232.50 L132.50,230.00 L130.50,225.00 L130.50,218.00 L131.50,217.00 L130.50,208.00 L126.00,203.50 L121.00,201.50 L119.50,200.00 L117.50,196.00 L117.50,193.00 L118.50,192.00 L118.50,183.00Z M134.50,177.00 L173.50,177.00 L173.50,217.00 L168.00,223.50 L164.00,222.50 L161.00,218.50 L156.00,216.50 L147.00,217.50 L144.50,216.00 L143.50,211.00 L145.50,206.00 L145.50,196.00 L136.50,191.00 L137.50,180.00Z M176.50,177.00 L212.00,176.50 L216.00,178.50 L219.50,183.00 L216.00,186.50 L215.00,186.50 L212.50,190.00 L212.50,198.00 L213.50,200.00 L211.00,202.50 L205.00,202.50 L201.00,200.50 L193.00,200.50 L190.50,205.00 L190.50,207.00 L188.00,209.50 L184.00,207.50 L180.00,207.50 L178.00,208.50 L177.00,210.50Z M220.50,177.00 L231.00,176.50 L236.50,181.00 L238.50,185.00 L237.50,188.00 L230.50,197.00 L230.50,201.00 L229.50,202.00 L229.50,211.00 L225.00,215.50 L205.00,215.50 L200.50,221.00 L199.50,224.00 L196.00,227.50 L183.00,226.50 L177.00,231.50 L176.50,220.00 L179.50,214.00 L182.00,211.50 L186.00,213.50 L190.00,213.50 L193.50,211.00 L194.50,206.00 L196.00,204.50 L200.00,204.50 L204.00,206.50 L213.00,206.50 L215.50,205.00 L216.50,203.00 L216.50,192.00 L222.50,186.00 L222.50,179.00Z M238.50,177.00 L250.00,176.50 L255.50,182.00 L257.50,186.00 L257.50,190.00 L248.50,204.00 L248.50,206.00 L247.50,207.00 L247.50,212.00 L246.50,213.00 L246.50,219.00 L243.50,225.00 L238.00,228.50 L235.00,228.50 L234.00,229.50 L223.00,229.50 L222.00,230.50 L218.00,230.50 L212.50,235.00 L209.50,240.00 L205.00,244.50 L200.00,246.50 L197.00,246.50 L196.00,245.50 L186.00,245.50 L177.00,251.50 L176.50,239.00 L183.00,231.50 L185.00,230.50 L189.00,230.50 L190.00,231.50 L198.00,231.50 L201.50,229.00 L205.50,221.00 L210.00,218.50 L212.00,218.50 L213.00,219.50 L226.00,219.50 L227.00,218.50 L229.00,218.50 L232.50,215.00 L232.50,213.00 L233.50,212.00 L233.50,201.00 L235.50,197.00 L240.50,192.00 L242.50,187.00 L241.50,181.00Z" fill="#000000" fill-rule="evenodd" stroke="none"/>
</svg>
