<svg xmlns="http://www.w3.org/2000/svg" viewBox="0 0 350 350">
  <path d="M323.50,11.00 L330.00,10.50 L332.50,13.00 L332.00,13.50 L330.00,11.50Z M315.50,14.00 L317.00,13.50 L317.00,14.50 L309.00,18.50 L308.50,18.00Z M332.50,15.00 L333.50,15.00 L333.00,17.50Z M315.50,17.00 L317.00,16.50 L317.00,17.50 L315.00,18.50 L313.50,18.00Z M327.50,18.00 L328.50,18.00 L328.00,19.50Z M304.50,20.00 L305.50,20.00 L304.00,21.50 L301.50,22.00Z M331.50,20.00 L332.50,20.00 L332.00,21.50Z M322.50,21.00 L323.00,20.50 L324.50,22.00 L324.00,29.50 L323.50,22.00Z M299.50,23.00 L300.50,23.00 L299.50,24.00 L300.00,24.50 L304.00,22.50 L304.50,23.00 L299.00,26.50 L298.50,26.00 L299.50,25.00 L298.50,24.00Z M327.50,23.00 L328.50,23.00 L328.00,25.50Z M330.50,23.00 L331.50,23.00 L331.00,24.50Z M296.50,25.00 L297.50,25.00 L296.50,26.00 L297.50,27.00 L296.50,28.00 L297.00,28.50 L301.00,26.50 L301.50,27.00 L296.00,30.50 L295.50,30.00 L296.50,29.00 L295.50,28.00 L296.50,27.00 L295.00,26.50 L293.50,28.00 L294.50,29.00 L293.50,30.00 L294.50,31.00 L293.50,32.00 L295.00,32.50 L298.00,30.50 L298.50,31.00 L293.00,34.50 L292.50,34.00 L293.50,33.00 L292.50,32.00 L293.50,31.00 L292.00,30.50 L290.50,32.00 L291.50,33.00 L290.50,34.00 L291.50,35.00 L290.50,36.00 L292.00,36.50 L293.00,35.50 L293.00,37.50 L297.00,35.50 L298.00,35.50 L298.00,36.50 L290.00,40.50 L290.00,38.50 L287.50,39.00 L288.50,38.00 L287.50,37.00 L288.50,36.00 L287.00,34.50 L285.50,35.00 L286.50,36.00 L285.50,37.00 L286.50,38.00 L285.50,39.00 L286.50,40.00 L285.50,41.00 L287.00,41.50 L288.00,40.50 L288.00,42.50 L290.50,42.00 L287.50,44.00 L289.00,44.50 L289.00,45.50 L285.00,47.50 L284.50,47.00 L285.50,46.00 L284.50,45.00 L285.50,44.00 L284.50,43.00 L285.50,42.00 L284.50,41.00 L285.50,40.00 L284.50,39.00 L285.50,38.00 L284.00,36.50 L282.50,37.00 L283.50,38.00 L282.50,39.00 L283.50,40.00 L282.50,41.00 L283.50,42.00 L282.50,43.00 L283.50,44.00 L282.50,45.00 L283.50,46.00 L280.50,46.00 L281.50,47.00 L280.50,48.00 L281.50,49.00 L280.50,50.00 L281.50,51.00 L280.50,52.00 L282.00,52.50 L285.00,50.50 L286.00,50.50 L286.00,51.50 L276.00,56.50 L275.50,56.00 L276.50,55.00 L274.00,53.50 L273.50,54.00 L274.50,55.00 L273.50,56.00 L274.50,57.00 L272.00,56.50 L271.50,57.00 L272.50,58.00 L266.00,62.50 L261.00,57.50 L260.50,59.00 L264.50,63.00 L263.00,64.50 L260.00,61.50 L259.50,63.00 L261.50,65.00 L260.00,66.50 L258.00,64.50 L257.50,66.00 L258.50,67.00 L257.00,68.50 L255.00,66.50 L254.50,68.00 L255.50,69.00 L254.00,70.50 L253.00,69.50 L252.50,71.00 L251.00,72.50 L250.00,71.50 L247.00,75.50 L244.00,77.50 L243.00,76.50 L240.00,80.50 L237.00,82.50 L236.00,81.50 L233.00,85.50 L232.00,84.50 L231.50,86.00 L225.00,91.50 L222.00,93.50 L221.00,92.50 L217.00,97.50 L205.00,106.50 L204.00,105.50 L201.00,109.50 L200.00,108.50 L196.00,113.50 L192.00,116.50 L191.00,115.50 L187.00,120.50 L183.00,123.50 L182.00,122.50 L178.00,127.50 L177.00,126.50 L176.50,127.00 L174.50,130.00 L173.50,137.00 L172.50,138.00 L171.50,144.00 L167.50,154.00 L167.50,157.00 L159.50,178.00 L160.50,183.00 L167.00,188.50 L172.00,191.50 L176.00,191.50 L179.00,189.50 L189.00,186.50 L192.00,184.50 L194.00,184.50 L195.00,183.50 L203.00,181.50 L206.00,179.50 L217.00,176.50 L228.50,161.00 L232.50,158.00 L231.50,157.00 L237.50,150.00 L242.50,142.00 L245.00,139.50 L249.50,139.00 L245.50,138.00 L248.00,135.50 L253.50,135.00 L248.50,134.00 L253.00,128.50 L255.50,128.00 L253.50,127.00 L256.00,124.50 L260.50,124.00 L256.50,123.00 L259.50,121.00 L258.50,120.00 L260.50,117.00 L263.00,114.50 L265.50,114.00 L263.50,113.00 L267.50,107.00 L270.00,104.50 L272.50,104.00 L270.50,103.00 L273.50,101.00 L272.50,100.00 L275.50,98.00 L274.50,97.00 L277.50,95.00 L276.50,94.00 L279.00,92.50 L279.50,92.00 L278.50,91.00 L281.50,89.00 L280.50,88.00 L283.50,83.00 L286.50,81.00 L285.50,80.00 L286.50,78.00 L289.50,76.00 L288.50,75.00 L291.50,75.00 L289.50,73.00 L295.50,61.00 L296.00,60.50 L296.50,62.00 L298.00,63.50 L298.50,63.00 L297.50,61.00 L299.50,61.00 L298.50,58.00 L300.00,55.50 L301.00,57.50 L302.00,55.50 L302.50,57.00 L305.00,59.50 L305.50,59.00 L303.50,56.00 L305.50,56.00 L304.50,53.00 L304.00,52.50 L303.50,54.00 L302.50,54.00 L303.50,50.00 L304.50,50.00 L305.00,52.50 L306.00,50.50 L307.00,52.50 L309.00,48.50 L311.00,51.50 L311.00,48.50 L312.00,49.50 L313.00,48.50 L314.00,49.50 L314.50,48.00 L313.50,47.00 L315.50,47.00 L314.50,45.00 L316.50,45.00 L315.50,43.00 L319.50,43.00 L318.50,41.00 L320.50,41.00 L319.50,38.00 L322.00,33.50 L322.50,35.00 L320.50,39.00 L321.00,39.50 L322.00,38.50 L323.00,39.50 L323.50,38.00 L322.50,37.00 L325.50,37.00 L323.50,41.00 L322.00,42.50 L321.00,41.50 L320.50,42.00 L321.50,44.00 L316.00,52.50 L313.00,49.50 L312.50,50.00 L315.50,54.00 L312.50,59.00 L309.50,61.00 L310.50,62.00 L307.50,64.00 L308.50,65.00 L305.50,67.00 L306.50,68.00 L303.50,70.00 L304.50,71.00 L301.50,73.00 L302.50,74.00 L299.50,76.00 L300.50,77.00 L297.50,79.00 L298.50,80.00 L294.50,86.00 L290.50,89.00 L291.50,90.00 L289.50,93.00 L285.50,96.00 L286.50,97.00 L284.50,100.00 L280.50,103.00 L281.50,104.00 L279.50,107.00 L276.00,109.50 L275.50,110.00 L276.50,111.00 L272.50,114.00 L273.50,115.00 L271.50,118.00 L267.50,121.00 L268.50,122.00 L264.50,125.00 L265.50,126.00 L261.50,129.00 L262.50,130.00 L258.50,133.00 L259.50,134.00 L255.50,137.00 L256.50,138.00 L252.50,141.00 L253.50,142.00 L249.50,145.00 L250.50,146.00 L246.50,149.00 L247.50,150.00 L243.50,153.00 L244.50,154.00 L240.50,157.00 L241.50,158.00 L235.50,166.00 L232.00,169.50 L229.50,170.00 L232.00,171.50 L235.00,171.50 L236.00,170.50 L251.00,167.50 L255.00,165.50 L258.00,165.50 L262.00,163.50 L265.00,163.50 L266.00,162.50 L273.00,161.50 L274.00,160.50 L278.00,160.50 L279.00,159.50 L291.00,159.50 L293.50,162.00 L293.00,162.50 L291.00,160.50 L288.00,160.50 L275.00,165.50 L274.50,166.00 L276.00,166.50 L277.50,168.00 L277.00,168.50 L276.00,167.50 L274.00,168.50 L271.00,167.50 L270.50,168.00 L273.50,171.00 L274.00,173.50 L275.00,169.50 L275.50,173.00 L276.00,173.50 L277.00,171.50 L277.50,173.00 L278.50,173.00 L279.50,168.00 L277.50,166.00 L278.00,165.50 L280.50,168.00 L281.00,171.50 L282.00,169.50 L283.00,171.50 L285.00,167.50 L286.00,169.50 L287.00,168.50 L288.00,169.50 L288.50,169.00 L287.50,165.00 L285.50,163.00 L286.00,162.50 L288.50,165.00 L289.00,167.50 L290.00,166.50 L291.00,167.50 L293.00,164.50 L293.50,166.00 L286.00,173.50 L277.00,179.50 L253.00,190.50 L251.00,190.50 L235.00,196.50 L227.00,197.50 L226.00,198.50 L222.00,198.50 L221.00,199.50 L202.00,200.50 L202.00,201.50 L207.50,202.00 L201.00,209.50 L195.50,210.00 L200.50,211.00 L197.50,215.00 L192.50,219.00 L193.50,220.00 L190.00,223.50 L185.50,224.00 L189.50,225.00 L186.00,228.50 L183.50,229.00 L185.50,230.00 L182.50,234.00 L175.00,242.50 L171.50,243.00 L174.50,244.00 L171.00,247.50 L167.50,248.00 L170.50,249.00 L167.00,252.50 L163.50,253.00 L166.50,254.00 L153.50,269.00 L153.50,270.00 L150.00,273.50 L147.50,274.00 L149.50,275.00 L145.50,279.00 L145.50,280.00 L141.00,284.50 L138.50,285.00 L140.50,286.00 L134.50,291.00 L135.50,292.00 L129.50,297.00 L130.50,298.00 L126.00,302.50 L120.50,303.00 L125.50,304.00 L120.00,309.50 L116.50,310.00 L119.50,311.00 L112.50,317.00 L113.50,318.00 L105.00,326.50 L103.50,327.00 L104.50,328.00 L95.00,337.50 L94.00,336.50 L92.50,337.00 L93.50,338.00 L91.00,340.50 L90.50,340.00 L92.50,338.00 L91.50,337.00 L95.50,334.00 L93.50,333.00 L97.00,330.50 L98.00,331.50 L98.50,331.00 L99.50,329.00 L98.50,328.00 L100.50,326.00 L99.50,325.00 L101.00,323.50 L102.00,324.50 L102.50,324.00 L103.50,322.00 L102.50,321.00 L104.50,319.00 L103.50,318.00 L104.00,317.50 L105.00,318.50 L106.50,316.00 L104.00,315.50 L101.00,312.50 L98.00,312.50 L98.00,313.50 L100.00,313.50 L101.50,315.00 L102.00,319.50 L100.50,318.00 L100.00,315.50 L95.00,315.50 L94.50,314.00 L96.50,310.00 L98.50,309.00 L97.50,308.00 L98.50,307.00 L98.50,305.00 L100.50,301.00 L102.50,300.00 L101.50,299.00 L103.50,296.00 L103.50,294.00 L109.50,283.00 L109.50,281.00 L115.50,270.00 L115.50,268.00 L121.50,257.00 L121.50,255.00 L126.50,246.00 L126.50,244.00 L131.50,235.00 L131.50,233.00 L135.50,226.00 L135.50,224.00 L139.50,216.00 L138.00,214.50 L137.00,216.50 L136.00,215.50 L135.00,217.50 L134.00,216.50 L133.00,218.50 L117.00,226.50 L116.00,226.50 L115.00,224.50 L114.00,227.50 L113.00,226.50 L112.00,228.50 L111.00,227.50 L110.00,229.50 L109.00,228.50 L108.00,230.50 L107.00,229.50 L106.00,231.50 L105.00,230.50 L104.00,232.50 L103.00,231.50 L102.00,233.50 L101.00,232.50 L100.50,234.00 L100.00,234.50 L99.00,233.50 L98.00,235.50 L96.00,233.50 L96.00,236.50 L94.00,234.50 L94.00,237.50 L92.00,235.50 L92.00,238.50 L90.00,236.50 L90.00,239.50 L64.00,252.50 L63.00,252.50 L57.00,246.50 L56.50,248.00 L61.50,253.00 L61.00,253.50 L53.00,245.50 L52.00,245.50 L51.50,246.00 L59.50,254.00 L59.00,254.50 L54.00,249.50 L53.00,249.50 L52.50,250.00 L57.50,255.00 L57.00,255.50 L53.00,252.50 L52.50,253.00 L55.50,256.00 L55.00,256.50 L52.00,254.50 L51.50,255.00 L53.50,257.00 L53.00,257.50 L51.00,256.50 L51.00,258.50 L43.00,262.50 L40.00,261.50 L39.50,262.00 L40.50,263.00 L38.00,262.50 L38.00,264.50 L32.00,261.50 L31.50,261.00 L33.50,260.00 L30.50,259.00 L33.00,258.50 L39.00,261.50 L39.50,261.00 L38.00,259.50 L34.50,258.00 L36.00,257.50 L40.00,259.50 L40.50,259.00 L37.50,257.00 L39.50,256.00 L37.50,255.00 L39.00,254.50 L42.00,256.50 L43.50,256.00 L42.00,254.50 L37.50,253.00 L40.00,252.50 L44.00,254.50 L44.50,254.00 L41.50,252.00 L45.50,252.00 L44.00,250.50 L41.50,250.00 L44.00,249.50 L46.00,250.50 L46.50,250.00 L45.50,249.00 L47.50,248.00 L46.00,247.50 L46.00,246.50 L48.00,246.50 L51.00,248.50 L51.50,248.00 L49.50,246.00 L50.00,245.50 L53.00,244.50 L56.00,246.50 L56.50,246.00 L54.50,244.00 L56.00,243.50 L58.00,245.50 L58.00,242.50 L62.00,246.50 L62.50,245.00 L59.50,242.00 L62.00,240.50 L64.00,241.50 L65.00,239.50 L67.00,241.50 L67.00,238.50 L69.00,237.50 L71.00,238.50 L72.00,236.50 L73.00,237.50 L74.00,235.50 L78.00,233.50 L79.00,233.50 L80.00,235.50 L81.00,232.50 L82.00,233.50 L83.00,231.50 L84.00,232.50 L85.00,230.50 L89.00,228.50 L90.00,228.50 L91.00,230.50 L92.00,227.50 L93.00,228.50 L94.00,226.50 L95.00,227.50 L96.00,225.50 L100.00,223.50 L101.00,223.50 L102.00,225.50 L103.00,222.50 L104.00,224.50 L105.00,221.50 L106.00,222.50 L107.00,220.50 L111.00,218.50 L112.50,219.00 L113.00,221.50 L113.50,218.00 L114.00,217.50 L115.00,219.50 L115.50,217.00 L120.00,214.50 L121.50,215.00 L122.00,219.50 L122.50,214.00 L123.50,214.00 L124.00,217.50 L124.50,213.00 L125.50,213.00 L126.00,215.50 L126.50,212.00 L129.00,210.50 L132.50,210.00 L133.00,215.50 L133.50,209.00 L138.00,206.50 L140.00,207.50 L141.00,205.50 L142.00,209.50 L142.50,205.00 L144.50,204.00 L147.50,198.00 L147.50,196.00 L149.50,193.00 L149.50,191.00 L154.50,180.00 L152.50,176.00 L149.50,173.00 L144.50,163.00 L144.50,161.00 L142.00,155.50 L133.00,163.50 L132.00,159.50 L131.50,164.00 L128.00,167.50 L116.00,176.50 L111.00,181.50 L110.00,181.50 L105.00,186.50 L104.00,186.50 L99.00,191.50 L98.00,191.50 L93.00,196.50 L86.00,201.50 L80.00,207.50 L79.00,207.50 L73.00,213.50 L72.00,213.50 L64.00,221.50 L63.00,221.50 L41.50,243.00 L40.00,245.50 L39.00,244.50 L37.00,245.50 L36.50,246.00 L37.50,247.00 L36.50,248.00 L36.50,250.00 L40.00,250.50 L40.00,251.50 L37.00,251.50 L35.50,250.00 L35.00,247.50 L33.00,250.50 L32.00,249.50 L29.50,251.00 L30.50,252.00 L29.00,254.50 L28.00,252.50 L26.00,255.50 L25.00,254.50 L23.00,255.50 L22.50,256.00 L23.50,257.00 L22.00,258.50 L21.00,257.50 L19.00,258.50 L18.50,259.00 L19.50,260.00 L18.00,261.50 L17.00,260.50 L15.00,261.50 L14.50,262.00 L15.50,263.00 L14.00,264.50 L13.00,263.50 L12.00,264.50 L11.50,264.00 L16.00,259.50 L17.00,259.50 L17.50,259.00 L16.50,258.00 L52.00,223.50 L53.00,223.50 L62.00,214.50 L63.00,214.50 L94.00,186.50 L95.00,188.50 L95.50,186.00 L101.00,180.50 L102.00,183.50 L102.50,180.00 L108.00,174.50 L109.00,176.50 L109.50,174.00 L115.00,168.50 L116.00,169.50 L122.00,162.50 L123.00,162.50 L128.00,157.50 L129.00,158.50 L134.00,152.50 L135.00,153.50 L140.50,147.00 L140.50,130.00 L141.50,129.00 L142.50,117.00 L145.50,109.00 L145.50,106.00 L147.50,103.00 L148.50,98.00 L153.50,88.00 L155.50,87.00 L154.50,86.00 L158.50,85.00 L155.50,84.00 L156.50,82.00 L158.50,79.00 L162.50,76.00 L161.50,75.00 L169.00,67.50 L171.00,66.50 L173.00,67.50 L173.50,68.00 L171.50,69.00 L175.50,71.00 L174.00,71.50 L171.00,69.50 L169.50,70.00 L171.00,71.50 L175.50,73.00 L173.00,73.50 L171.00,72.50 L170.50,73.00 L172.00,74.50 L175.50,75.00 L172.00,75.50 L172.00,76.50 L176.00,76.50 L177.50,75.00 L176.50,74.00 L177.50,73.00 L176.50,72.00 L177.00,71.50 L178.00,72.50 L179.50,70.00 L176.50,68.00 L178.50,67.00 L177.00,66.50 L177.00,65.50 L180.50,68.00 L179.50,69.00 L181.00,69.50 L181.50,70.00 L180.50,71.00 L182.50,72.00 L182.50,91.00 L181.50,92.00 L181.50,98.00 L180.50,99.00 L179.50,109.00 L178.50,110.00 L179.00,115.50 L186.00,109.50 L187.00,110.50 L191.00,105.50 L192.00,106.50 L196.00,101.50 L197.00,102.50 L200.50,97.00 L204.00,93.50 L205.00,93.50 L218.00,82.50 L219.00,83.50 L223.00,78.50 L224.00,79.50 L228.00,74.50 L232.00,71.50 L233.00,72.50 L237.00,67.50 L241.00,64.50 L242.00,65.50 L245.00,61.50 L246.00,62.50 L250.00,57.50 L262.00,48.50 L265.00,46.50 L269.00,50.50 L270.00,50.50 L270.50,50.00 L266.50,46.00 L269.00,43.50 L271.00,44.50 L271.50,44.00 L270.50,43.00 L273.00,40.50 L276.00,38.50 L278.00,39.50 L278.50,39.00 L277.50,38.00 L279.00,36.50 L281.00,37.50 L281.50,37.00 L280.50,36.00 L283.00,33.50Z M317.50,25.00 L318.00,24.50 L320.50,27.00 L320.00,33.50 L319.50,27.00Z M307.50,26.00 L309.00,25.50 L309.00,26.50 L307.00,27.50 L305.50,27.00Z M329.50,26.00 L330.00,25.50 L330.50,27.00 L329.00,29.50 L328.50,28.00Z M326.50,27.00 L327.50,27.00 L327.00,28.50Z M307.50,29.00 L314.00,28.50 L316.50,31.00 L316.50,37.00 L315.50,37.00 L315.50,31.00 L314.00,29.50Z M304.50,30.00 L306.00,29.50 L306.00,30.50 L304.00,31.50 L302.50,31.00Z M325.50,30.00 L326.00,29.50 L326.50,31.00 L324.00,35.50 L323.50,34.00Z M322.50,31.00 L323.50,31.00 L323.00,32.50Z M305.50,33.00 L310.00,32.50 L312.50,36.00 L312.00,36.50 L310.00,33.50Z M318.50,35.00 L319.50,35.00 L319.00,36.50Z M301.50,37.00 L306.00,36.50 L308.50,39.00 L308.00,39.50 L306.00,37.50Z M317.50,38.00 L318.00,37.50 L318.50,39.00 L317.00,41.50 L316.50,40.00Z M279.50,39.00 L281.00,38.50 L282.50,40.00 L281.50,41.00 L282.50,42.00 L282.00,42.50 L279.50,41.00 L280.50,40.00Z M295.50,39.00 L297.00,38.50 L297.00,39.50 L295.00,40.50 L293.50,40.00Z M314.50,39.00 L315.50,39.00 L315.00,40.50Z M311.50,40.00 L312.50,40.00 L312.00,42.50Z M321.50,40.00 L322.50,40.00 L322.00,41.50Z M276.50,41.00 L278.00,40.50 L279.50,42.00 L278.50,43.00 L279.50,44.00 L279.00,44.50 L276.50,43.00 L277.50,42.00Z M308.50,41.00 L309.50,41.00 L309.00,42.50Z M272.50,42.00 L274.00,41.50 L275.50,43.00 L274.00,43.50Z M294.50,42.00 L297.50,42.00 L294.00,43.50 L292.50,43.00Z M313.50,42.00 L314.50,42.00 L314.00,43.50Z M304.50,44.00 L305.50,44.00 L305.00,48.50Z M310.50,44.00 L311.50,44.00 L311.00,45.50Z M317.50,44.00 L318.50,44.00 L318.00,45.50Z M273.50,45.00 L275.00,44.50 L276.50,46.00 L275.00,46.50Z M294.50,45.00 L299.00,44.50 L301.50,47.00 L301.00,47.50 L299.00,45.50Z M307.50,45.00 L308.50,45.00 L308.00,47.50Z M269.50,46.00 L271.00,45.50 L273.50,48.00 L272.00,48.50Z M277.50,46.00 L279.00,45.50 L280.50,47.00 L279.00,47.50Z M316.50,46.00 L317.00,45.50 L318.50,47.00 L318.00,48.50Z M288.50,47.00 L290.00,46.50 L290.00,47.50 L288.00,48.50 L286.50,48.00Z M274.50,48.00 L276.00,47.50 L277.50,49.00 L276.00,49.50Z M290.50,49.00 L296.00,48.50 L298.50,51.00 L298.50,56.00 L297.50,56.00 L297.50,51.00 L296.00,49.50Z M272.50,51.00 L274.00,50.50 L275.50,52.00 L274.00,52.50Z M275.50,51.00 L277.00,50.50 L278.50,52.00 L277.00,52.50Z M308.50,51.00 L309.00,50.50 L310.50,52.00 L310.00,53.50Z M300.50,52.00 L301.50,52.00 L301.00,54.50Z M260.50,53.00 L261.00,52.50 L268.50,60.00 L267.00,60.50 L260.50,54.00Z M269.50,53.00 L271.00,52.50 L272.50,54.00 L271.00,54.50Z M305.50,53.00 L306.50,53.00 L306.00,54.50Z M307.50,53.00 L308.00,52.50 L312.50,57.00 L311.00,57.50 L307.50,54.00Z M265.50,54.00 L267.00,53.50 L270.50,57.00 L269.00,57.50Z M255.50,55.00 L256.00,54.50 L257.50,56.00 L257.00,57.50Z M307.50,56.00 L308.00,55.50 L309.50,57.00 L308.00,57.50Z M251.50,58.00 L252.00,57.50 L253.50,59.00 L253.00,60.50Z M296.50,58.00 L297.50,58.00 L297.00,59.50Z M299.50,58.00 L300.50,58.00 L300.00,59.50Z M301.50,58.00 L302.00,57.50 L305.50,61.00 L304.00,61.50Z M255.50,60.00 L256.50,60.00 L256.00,61.50Z M247.50,61.00 L248.50,61.00 L248.00,62.50Z M250.50,62.00 L251.50,62.00 L251.00,63.50Z M253.50,63.00 L254.00,62.50 L255.50,64.00 L255.00,65.50Z M295.50,63.00 L296.00,62.50 L300.50,67.00 L299.00,67.50 L295.50,64.00Z M243.50,64.00 L244.50,64.00 L244.00,65.50Z M246.50,65.00 L247.50,65.00 L247.00,66.50Z M294.50,65.00 L295.00,64.50 L297.50,67.00 L296.00,67.50Z M249.50,66.00 L250.50,66.00 L250.00,67.50Z M251.50,66.00 L252.50,66.00 L252.00,67.50Z M293.50,67.00 L294.00,66.50 L295.50,68.00 L294.00,68.50Z M240.50,68.00 L241.50,68.00 L241.00,69.50Z M242.50,68.00 L243.50,68.00 L243.00,69.50Z M244.50,68.00 L245.50,68.00 L245.00,69.50Z M247.50,69.00 L248.50,69.00 L248.00,70.50Z M249.50,69.00 L250.50,69.00 L250.00,70.50Z M234.50,71.00 L235.50,71.00 L235.00,72.50Z M236.50,71.00 L237.50,71.00 L237.00,72.50Z M238.50,71.00 L239.50,71.00 L239.00,72.50Z M240.50,71.00 L241.50,71.00 L241.00,72.50Z M242.50,71.00 L243.50,71.00 L243.00,72.50Z M167.50,72.00 L168.50,72.00 L168.00,73.50Z M247.50,72.00 L248.50,72.00 L248.00,73.50Z M168.50,74.00 L170.00,73.50 L171.50,75.00 L170.00,75.50Z M230.50,74.00 L231.50,74.00 L231.00,75.50Z M232.50,74.00 L233.50,74.00 L233.00,75.50Z M234.50,74.00 L235.50,74.00 L235.00,75.50Z M236.50,74.00 L237.50,74.00 L237.00,75.50Z M238.50,74.00 L239.50,74.00 L239.00,75.50Z M240.50,74.00 L241.50,74.00 L241.00,75.50Z M242.50,74.00 L243.50,74.00 L243.00,75.50Z M165.50,77.00 L166.00,76.50 L166.50,78.00 L164.00,79.50 L163.50,79.00Z M167.50,77.00 L168.00,76.50 L173.00,80.50 L173.50,80.00 L170.50,78.00 L176.00,77.50 L176.50,78.00 L174.50,79.00 L176.50,80.00 L174.00,81.50 L172.00,81.50 L170.00,80.50Z M232.50,77.00 L233.50,77.00 L233.00,78.50Z M234.50,77.00 L235.50,77.00 L235.00,78.50Z M236.50,77.00 L237.50,77.00 L237.00,78.50Z M238.50,77.00 L239.50,77.00 L239.00,78.50Z M240.50,77.00 L241.50,77.00 L241.00,78.50Z M225.50,78.00 L226.50,78.00 L226.00,79.50Z M230.50,80.00 L231.50,80.00 L231.00,81.50Z M232.50,80.00 L233.50,80.00 L233.00,81.50Z M166.50,81.00 L167.50,81.00 L167.00,82.50Z M223.50,81.00 L224.50,81.00 L224.00,82.50Z M169.50,82.00 L171.00,81.50 L172.00,82.50 L174.00,82.50 L176.00,81.50 L176.50,82.00 L175.50,83.00 L178.50,85.00 L177.50,86.00 L178.50,87.00 L178.50,91.00 L179.50,92.00 L179.50,103.00 L178.50,104.00 L178.50,108.00 L177.50,109.00 L176.50,116.00 L175.50,118.00 L165.50,127.00 L165.00,128.50 L164.00,127.50 L159.00,133.50 L158.00,132.50 L148.00,141.50 L147.00,141.50 L146.50,130.00 L147.50,129.00 L147.50,124.00 L148.50,123.00 L149.50,116.00 L150.50,115.00 L151.50,110.00 L153.50,107.00 L153.50,105.00 L157.50,98.00 L155.50,97.00 L158.00,96.50 L160.50,93.00 L154.50,92.00 L161.00,91.50 L169.00,83.50 L170.50,83.00Z M233.50,82.00 L234.50,82.00 L234.00,83.50Z M226.50,83.00 L227.50,83.00 L227.00,84.50Z M228.50,83.00 L229.50,83.00 L229.00,84.50Z M221.50,84.00 L222.50,84.00 L222.00,85.50Z M216.50,85.00 L217.50,85.00 L217.00,86.50Z M229.50,85.00 L230.50,85.00 L230.00,86.50Z M224.50,86.00 L225.50,86.00 L225.00,87.50Z M219.50,87.00 L220.50,87.00 L220.00,88.50Z M214.50,88.00 L215.50,88.00 L215.00,89.50Z M225.50,88.00 L226.50,88.00 L226.00,89.50Z M211.50,89.00 L212.50,89.00 L212.00,90.50Z M220.50,89.00 L221.50,89.00 L221.00,90.50Z M217.50,90.00 L218.50,90.00 L218.00,91.50Z M212.50,91.00 L213.50,91.00 L213.00,92.50Z M221.50,91.00 L222.50,91.00 L222.00,92.50Z M209.50,92.00 L210.50,92.00 L210.00,93.50Z M206.50,93.00 L207.50,93.00 L207.00,94.50Z M213.50,93.00 L214.50,93.00 L214.00,94.50Z M210.50,94.00 L211.50,94.00 L211.00,95.50Z M217.50,94.00 L218.50,94.00 L218.00,95.50Z M207.50,95.00 L208.50,95.00 L208.00,96.50Z M214.50,95.00 L215.50,95.00 L215.00,96.50Z M204.50,96.00 L205.50,96.00 L205.00,97.50Z M211.50,96.00 L212.50,96.00 L212.00,97.50Z M213.50,97.00 L214.50,97.00 L214.00,98.50Z M210.50,98.00 L211.50,98.00 L211.00,99.50Z M207.50,99.00 L208.50,99.00 L208.00,100.50Z M204.50,100.00 L205.50,100.00 L205.00,101.50Z M201.50,101.00 L202.50,101.00 L202.00,102.50Z M199.50,104.00 L200.50,104.00 L200.00,105.50Z M204.50,104.00 L205.50,104.00 L205.00,105.50Z M196.50,105.00 L197.50,105.00 L197.00,106.50Z M201.50,105.00 L202.50,105.00 L202.00,106.50Z M198.50,106.00 L199.50,106.00 L199.00,107.50Z M200.50,107.00 L201.50,107.00 L201.00,108.50Z M189.50,108.00 L190.50,108.00 L190.00,109.50Z M191.50,109.00 L192.50,109.00 L192.00,110.50Z M193.50,110.00 L194.50,110.00 L194.00,111.50Z M184.50,112.00 L185.50,112.00 L185.00,113.50Z M192.50,112.00 L193.50,112.00 L193.00,113.50Z M186.50,113.00 L187.50,113.00 L187.00,114.50Z M191.50,114.00 L192.50,114.00 L192.00,115.50Z M185.50,115.00 L186.50,115.00 L186.00,116.50Z M179.50,116.00 L180.50,116.00 L180.00,117.50Z M187.50,116.00 L188.50,116.00 L188.00,117.50Z M181.50,117.00 L182.50,117.00 L182.00,118.50Z M186.50,118.00 L187.50,118.00 L187.00,119.50Z M180.50,119.00 L181.50,119.00 L181.00,120.50Z M176.50,121.00 L177.50,121.00 L177.00,122.50Z M179.50,121.00 L180.50,121.00 L180.00,122.50Z M172.50,123.00 L173.50,123.00 L173.00,124.50Z M178.50,123.00 L179.50,123.00 L179.00,124.50Z M168.50,125.00 L169.50,125.00 L169.00,126.50Z M171.50,125.00 L172.50,125.00 L172.00,126.50Z M177.50,125.00 L178.50,125.00 L178.00,126.50Z M167.50,127.00 L168.50,127.00 L168.00,128.50Z M169.50,129.00 L170.50,129.00 L170.00,130.50Z M168.50,131.00 L169.50,131.00 L169.00,132.50Z M161.50,132.00 L162.50,132.00 L162.00,133.50Z M167.50,133.00 L168.50,133.00 L168.00,134.50Z M157.50,134.00 L158.50,134.00 L158.00,135.50Z M160.50,134.00 L161.50,134.00 L161.00,135.50Z M169.50,134.00 L170.50,134.00 L170.50,136.00 L169.50,137.00 L168.50,143.00 L166.50,146.00 L166.50,148.00 L165.50,149.00 L163.50,157.00 L161.50,160.00 L160.50,165.00 L158.50,168.00 L157.50,173.00 L156.50,175.00 L155.00,175.50 L150.50,168.00 L150.50,166.00 L148.50,162.00 L147.50,154.00 L146.50,153.00 L147.50,148.00 L148.50,148.00 L149.00,150.50 L152.50,147.00 L153.00,144.50 L154.00,146.50 L157.50,143.00 L158.00,140.50 L159.00,142.50 L162.50,139.00 L163.00,136.50 L164.00,138.50Z M163.50,135.00 L164.50,135.00 L164.00,136.50Z M156.50,136.00 L157.50,136.00 L157.00,137.50Z M159.50,136.00 L160.50,136.00 L160.00,137.50Z M155.50,138.00 L156.50,138.00 L156.00,139.50Z M151.50,139.00 L152.50,139.00 L152.00,140.50Z M158.50,139.00 L159.50,139.00 L159.00,140.50Z M154.50,140.00 L155.50,140.00 L155.00,141.50Z M150.50,141.00 L151.50,141.00 L151.00,142.50Z M153.50,142.00 L154.50,142.00 L154.00,143.50Z M149.50,143.00 L150.50,143.00 L150.00,144.50Z M148.50,146.00 L149.50,146.00 L149.00,147.50Z M138.50,152.00 L139.50,152.00 L139.00,153.50Z M133.50,154.00 L134.50,154.00 L134.00,155.50Z M137.50,154.00 L138.50,154.00 L138.00,156.50Z M132.50,157.00 L133.50,157.00 L133.00,158.50Z M127.50,159.00 L128.50,159.00 L128.00,160.50Z M126.50,162.00 L127.50,162.00 L127.00,163.50Z M288.50,162.00 L289.00,161.50 L291.50,164.00 L291.00,165.50Z M121.50,164.00 L122.50,164.00 L122.00,165.50Z M279.50,165.00 L281.00,164.50 L282.50,166.00 L282.00,166.50Z M284.50,165.00 L285.50,165.00 L285.00,166.50Z M120.50,166.00 L121.50,166.00 L121.00,169.50Z M265.50,166.00 L269.50,166.00 L269.50,167.00 L267.50,168.00 L270.00,168.50 L272.50,171.00 L273.50,175.00 L273.00,175.50 L272.00,174.50 L270.50,176.00 L271.50,177.00 L271.00,177.50 L267.00,179.50 L258.00,186.50 L247.00,191.50 L244.00,191.50 L236.00,194.50 L232.00,194.50 L231.00,195.50 L227.00,195.50 L226.00,196.50 L220.00,196.50 L219.00,197.50 L212.00,197.50 L210.50,196.00 L214.50,193.00 L208.50,192.00 L215.00,191.50 L221.50,184.00 L219.50,183.00 L222.00,182.50 L227.00,176.50 L231.00,175.50 L234.00,173.50 L239.00,172.50 L245.00,169.50 L254.00,168.50 L255.00,167.50 L266.00,167.50 L266.50,167.00Z M114.50,171.00 L115.50,171.00 L115.00,173.50Z M273.50,176.00 L275.50,176.00 L274.00,177.50Z M157.50,183.00 L158.00,182.50 L165.00,188.50 L171.00,191.50 L171.50,193.00 L166.00,195.50 L164.00,195.50 L159.00,198.50 L157.00,198.50 L156.00,200.50 L155.00,199.50 L154.00,200.50 L152.00,200.50 L151.50,199.00 L156.50,188.00Z M210.50,183.00 L212.50,183.00 L201.00,197.50 L193.00,197.50 L192.00,196.50 L187.00,196.50 L186.00,195.50 L182.50,195.00Z M178.50,196.00 L187.00,197.50 L188.00,198.50 L192.00,198.50 L193.00,199.50 L199.50,200.00 L178.50,226.00 L175.50,231.00 L167.50,240.00 L164.50,245.00 L148.50,264.00 L148.50,265.00 L143.50,270.00 L143.50,271.00 L128.50,288.00 L128.50,289.00 L122.50,295.00 L126.50,296.00 L122.00,296.50 L112.50,306.00 L112.00,307.50 L111.00,306.50 L109.50,308.00 L110.50,309.00 L109.00,310.50 L105.50,312.00 L107.50,313.00 L106.00,314.50 L104.00,314.50 L101.50,311.00 L104.00,310.50 L104.50,309.00 L100.50,308.00 L105.00,307.50 L106.00,308.50 L106.50,306.00 L103.50,305.00 L108.50,305.00 L108.50,303.00 L106.50,302.00 L109.50,301.00 L108.50,299.00 L110.50,298.00 L110.50,296.00 L112.50,293.00 L114.50,286.00 L117.50,281.00 L117.50,279.00 L120.50,274.00 L120.50,272.00 L123.50,267.00 L123.50,265.00 L127.50,258.00 L127.50,256.00 L130.50,251.00 L130.50,249.00 L133.50,244.00 L133.50,242.00 L137.50,235.00 L137.50,233.00 L139.50,230.00 L139.50,228.00 L142.50,223.00 L142.50,221.00 L144.50,218.00 L144.50,216.00 L146.50,212.00 L154.00,208.50 L155.00,203.50 L156.00,207.50 L157.00,203.50 L158.00,206.50 L159.00,204.50 L161.00,205.50 L167.00,202.50 L168.00,199.50 L169.00,201.50 L170.00,199.50 L171.00,200.50 L172.00,199.50 L174.00,199.50 L178.00,197.50Z M165.50,200.00 L166.50,200.00 L166.00,201.50Z M150.50,203.00 L151.50,203.00 L151.00,204.50Z M152.50,203.00 L153.50,203.00 L153.00,205.50Z M134.50,210.00 L135.50,210.00 L135.00,213.50Z M130.50,213.00 L131.50,213.00 L131.00,217.50Z M139.50,213.00 L140.50,213.00 L140.00,214.50Z M128.50,216.00 L129.50,216.00 L129.00,218.50Z M119.50,218.00 L120.50,218.00 L120.00,220.50Z M126.50,218.00 L127.50,218.00 L127.00,220.50Z M124.50,219.00 L125.50,219.00 L125.00,221.50Z M110.50,220.00 L111.50,220.00 L111.00,223.50Z M117.50,220.00 L118.50,220.00 L118.00,222.50Z M115.50,221.00 L116.50,221.00 L116.00,223.50Z M122.50,221.00 L123.50,221.00 L123.00,222.50Z M108.50,222.00 L109.50,222.00 L109.00,224.50Z M120.50,222.00 L121.50,222.00 L121.00,223.50Z M113.50,223.00 L114.50,223.00 L114.00,224.50Z M118.50,223.00 L119.50,223.00 L119.00,224.50Z M106.50,224.00 L107.50,224.00 L107.00,225.50Z M111.50,224.00 L112.50,224.00 L112.00,226.50Z M116.50,224.00 L117.50,224.00 L117.00,225.50Z M99.50,225.00 L100.50,225.00 L100.00,227.50Z M104.50,225.00 L105.50,225.00 L105.00,227.50Z M109.50,225.00 L110.50,225.00 L110.00,227.50Z M97.50,227.00 L98.50,227.00 L98.00,228.50Z M102.50,227.00 L103.50,227.00 L103.00,228.50Z M107.50,227.00 L108.50,227.00 L108.00,228.50Z M95.50,228.00 L96.50,228.00 L96.00,230.50Z M100.50,228.00 L101.50,228.00 L101.00,229.50Z M105.50,228.00 L106.50,228.00 L106.00,229.50Z M98.50,229.00 L99.00,228.50 L100.50,231.00 L100.00,232.50 L98.50,231.00Z M103.50,229.00 L104.50,229.00 L104.00,230.50Z M88.50,230.00 L89.50,230.00 L89.00,231.50Z M93.50,230.00 L94.50,230.00 L94.00,231.50Z M101.50,230.00 L102.50,230.00 L102.00,231.50Z M86.50,231.00 L87.50,231.00 L87.00,233.50Z M91.50,231.00 L92.50,231.00 L92.00,232.50Z M96.50,231.00 L97.50,231.00 L97.00,232.50Z M89.50,232.00 L90.50,232.00 L90.00,233.50Z M94.50,232.00 L95.50,232.00 L95.00,233.50Z M84.50,233.00 L85.50,233.00 L85.00,234.50Z M92.50,233.00 L93.50,233.00 L93.00,234.50Z M82.50,234.00 L83.50,234.00 L83.00,235.50Z M87.50,234.00 L88.00,233.50 L89.50,235.00 L89.00,236.50Z M90.50,234.00 L91.50,234.00 L91.00,235.50Z M77.50,235.00 L78.50,235.00 L78.00,236.50Z M85.50,235.00 L86.50,235.00 L86.00,236.50Z M75.50,236.00 L76.50,236.00 L76.00,237.50Z M80.50,236.00 L81.00,235.50 L82.50,237.00 L82.00,238.50Z M83.50,236.00 L84.50,236.00 L84.00,237.50Z M78.50,237.00 L79.50,237.00 L79.00,238.50Z M73.50,238.00 L74.00,237.50 L75.50,239.00 L75.00,240.50Z M76.50,238.00 L77.50,238.00 L77.00,239.50Z M84.50,238.00 L85.00,237.50 L86.50,239.00 L86.00,240.50Z M87.50,238.00 L88.50,238.00 L88.00,239.50Z M68.50,239.00 L69.00,238.50 L70.50,240.00 L70.00,241.50Z M71.50,239.00 L72.50,239.00 L72.00,240.50Z M82.50,239.00 L83.00,238.50 L84.50,240.00 L84.00,241.50Z M80.50,240.00 L81.00,239.50 L82.50,241.00 L82.00,242.50Z M75.50,241.00 L76.00,240.50 L77.50,242.00 L77.00,243.50Z M78.50,241.00 L79.00,240.50 L80.50,242.00 L80.00,243.50Z M70.50,242.00 L71.00,241.50 L73.50,244.00 L73.00,245.50Z M73.50,242.00 L74.00,241.50 L75.50,243.00 L75.00,244.50Z M62.50,243.00 L63.00,242.50 L65.50,245.00 L65.00,246.50Z M65.50,243.00 L66.00,242.50 L68.50,245.00 L68.00,246.50Z M68.50,243.00 L69.00,242.50 L70.50,244.00 L70.00,245.50Z M47.50,249.00 L49.00,248.50 L50.50,250.00 L49.00,250.50Z M46.50,251.00 L48.00,250.50 L50.50,253.00 L49.00,253.50Z M31.50,252.00 L32.00,251.50 L33.00,253.50 L36.50,254.00 L33.00,254.50Z M45.50,253.00 L47.00,252.50 L49.50,255.00 L48.00,255.50Z M44.50,255.00 L46.00,254.50 L48.50,257.00 L47.00,257.50Z M28.50,256.00 L29.00,255.50 L32.50,257.00 L30.00,257.50Z M24.50,257.00 L25.50,257.00 L26.00,259.50 L29.50,260.00 L26.00,260.50 L24.50,259.00Z M39.50,257.00 L41.00,256.50 L45.50,260.00 L44.00,260.50Z M43.50,257.00 L45.00,256.50 L46.50,258.00 L45.00,258.50Z M20.50,260.00 L21.50,260.00 L22.00,262.50 L26.50,263.00 L22.00,263.50 L20.50,262.00Z M40.50,260.00 L42.00,259.50 L43.50,261.00 L42.00,261.50Z M27.50,262.00 L30.00,261.50 L36.50,265.00 L33.00,266.50 L28.50,264.00 L30.00,263.50 L30.00,262.50Z M16.50,263.00 L17.50,263.00 L17.00,264.50Z M10.50,266.00 L11.50,266.00 L10.00,267.50 L9.50,267.00Z M12.50,266.00 L13.50,266.00 L13.00,267.50Z M25.50,267.00 L27.00,266.50 L29.50,268.00 L26.00,269.50 L25.50,269.00 L27.50,268.00Z M12.50,269.00 L17.50,270.00 L14.00,270.50Z M7.50,271.00 L8.50,271.00 L9.00,273.50Z M19.50,271.00 L21.50,271.00 L19.00,272.50 L16.50,272.00Z M115.50,305.00 L117.50,305.00 L116.00,306.50 L114.50,306.00Z M109.50,311.00 L110.50,311.00 L110.00,312.50Z M93.50,317.00 L98.00,316.50 L99.50,318.00 L99.50,322.00 L98.50,322.00 L98.50,319.00 L97.00,317.50Z M92.50,319.00 L96.00,318.50 L97.50,320.00 L97.00,322.50 L96.00,320.50 L93.50,321.00 L95.50,322.00 L95.50,324.00 L93.50,324.00 L95.00,330.50 L92.00,325.50 L90.50,326.00 L92.50,328.00 L92.00,330.50 L89.50,327.00 L90.50,324.00 L93.50,323.00 L91.50,322.00Z M88.50,329.00 L89.00,328.50 L90.50,330.00 L90.00,331.50Z M87.50,332.00 L88.00,331.50 L89.50,333.00 L89.00,337.50Z M86.50,335.00 L87.50,335.00 L87.00,336.50Z M85.50,339.00 L86.50,339.00 L87.00,341.50Z" fill="#000000" fill-rule="evenodd" stroke="none"/>
</svg>
