<svg xmlns="http://www.w3.org/2000/svg" viewBox="0 0 350 350">
  <path d="M158.50,28.00 L191.00,27.50 L192.00,28.50 L199.00,28.50 L200.00,29.50 L204.00,29.50 L205.00,30.50 L213.00,31.50 L217.00,33.50 L220.00,33.50 L221.00,34.50 L226.00,35.50 L238.00,41.50 L240.00,41.50 L256.00,50.50 L259.00,53.50 L263.00,55.50 L267.00,59.50 L273.00,63.50 L286.50,77.00 L286.50,78.00 L297.50,91.00 L300.50,97.00 L302.50,99.00 L304.50,104.00 L308.50,110.00 L308.50,112.00 L314.50,124.00 L314.50,126.00 L316.50,130.00 L316.50,133.00 L318.50,137.00 L318.50,140.00 L319.50,141.00 L319.50,145.00 L320.50,146.00 L320.50,150.00 L321.50,151.00 L321.50,158.00 L322.50,159.00 L322.50,191.00 L321.50,192.00 L321.50,199.00 L320.50,200.00 L320.50,204.00 L319.50,205.00 L319.50,209.00 L316.50,217.00 L316.50,220.00 L306.50,244.00 L304.50,246.00 L299.50,256.00 L291.50,267.00 L273.00,286.50 L272.00,286.50 L256.00,299.50 L253.00,300.50 L246.00,305.50 L240.00,308.50 L238.00,308.50 L231.00,312.50 L229.00,312.50 L226.00,314.50 L224.00,314.50 L220.00,316.50 L217.00,316.50 L209.00,319.50 L200.00,320.50 L199.00,321.50 L192.00,321.50 L191.00,322.50 L159.00,322.50 L158.00,321.50 L151.00,321.50 L150.00,320.50 L146.00,320.50 L145.00,319.50 L141.00,319.50 L133.00,316.50 L130.00,316.50 L106.00,306.50 L104.00,304.50 L99.00,302.50 L94.00,298.50 L91.00,297.50 L83.00,291.50 L62.50,272.00 L50.50,256.00 L45.50,246.00 L43.50,244.00 L33.50,220.00 L33.50,217.00 L31.50,213.00 L30.50,205.00 L29.50,204.00 L28.50,192.00 L27.50,191.00 L27.50,159.00 L28.50,158.00 L29.50,146.00 L30.50,145.00 L30.50,141.00 L33.50,133.00 L33.50,130.00 L34.50,129.00 L35.50,124.00 L37.50,121.00 L37.50,119.00 L41.50,112.00 L41.50,110.00 L45.50,104.00 L48.50,97.00 L62.50,78.00 L83.00,58.50 L91.00,52.50 L94.00,51.50 L106.00,43.50 L130.00,33.50 L133.00,33.50 L141.00,30.50 L150.00,29.50 L151.00,28.50Z M169.50,29.00 L174.00,28.50 L174.50,34.00 L168.50,39.00 L163.00,57.50 L152.00,58.50 L151.00,59.50 L140.00,61.50 L139.00,62.50 L134.00,63.50 L131.00,65.50 L129.00,65.50 L126.00,67.50 L125.50,66.00 L116.00,56.50 L109.00,52.50 L105.00,52.50 L103.50,50.00 L103.50,48.00 L105.00,46.50 L107.00,46.50 L113.00,42.50 L115.00,42.50 L120.00,39.50 L122.00,39.50 L125.00,37.50 L127.00,37.50 L134.00,34.50 L137.00,34.50 L138.00,33.50 L141.00,33.50 L146.00,31.50 L150.00,31.50 L151.00,30.50Z M175.50,29.00 L179.00,28.50 L180.00,29.50 L192.00,29.50 L193.00,30.50 L199.00,30.50 L200.00,31.50 L204.00,31.50 L205.00,32.50 L216.00,34.50 L217.00,35.50 L225.00,37.50 L228.00,39.50 L230.00,39.50 L235.00,42.50 L237.00,42.50 L243.00,46.50 L245.00,46.50 L246.50,48.00 L246.50,50.00 L245.00,52.50 L241.00,52.50 L234.00,56.50 L224.50,66.00 L224.00,67.50 L221.00,65.50 L219.00,65.50 L216.00,63.50 L214.00,63.50 L210.00,61.50 L207.00,61.50 L206.00,60.50 L203.00,60.50 L198.00,58.50 L187.00,57.50 L182.50,41.00 L180.50,38.00 L175.50,34.00Z M173.50,37.00 L174.50,37.00 L174.50,56.00 L168.00,56.50 L166.00,57.50 L165.50,56.00 L166.50,55.00 L166.50,51.00 L167.50,50.00 L168.50,45.00 L171.50,39.00Z M175.50,37.00 L176.00,36.50 L180.50,42.00 L180.50,44.00 L183.50,51.00 L183.50,55.00 L184.50,56.00 L184.00,57.50 L182.00,56.50 L175.50,56.00Z M99.50,50.00 L101.00,49.50 L103.50,52.00 L103.50,54.00 L102.50,55.00 L102.50,68.00 L105.50,76.00 L105.50,79.00 L98.00,85.50 L97.00,85.50 L85.50,97.00 L85.50,98.00 L79.00,105.50 L76.00,105.50 L68.00,102.50 L55.00,102.50 L54.00,103.50 L52.00,103.50 L49.50,100.00 L61.50,83.00 L68.50,76.00 L68.50,75.00 L84.00,60.50Z M248.50,50.00 L250.00,49.50 L266.00,60.50 L284.50,78.00 L300.50,100.00 L298.00,103.50 L296.00,103.50 L295.00,102.50 L282.00,102.50 L274.00,105.50 L271.00,105.50 L263.50,97.00 L263.50,96.00 L253.00,85.50 L252.00,85.50 L244.50,79.00 L244.50,76.00 L247.50,68.00 L247.50,55.00 L246.50,54.00 L246.50,52.00Z M106.50,55.00 L108.00,54.50 L115.00,58.50 L123.50,68.00 L118.00,71.50 L116.00,71.50Z M241.50,55.00 L243.50,55.00 L234.00,71.50 L232.00,71.50 L226.50,68.00 L226.50,67.00 L234.00,59.50Z M104.50,56.00 L105.00,55.50 L107.50,59.00 L109.50,64.00 L115.50,73.00 L108.00,77.50 L105.50,71.00 L105.50,68.00 L104.50,67.00 L104.50,63.00 L103.50,62.00Z M244.50,56.00 L245.50,56.00 L246.50,62.00 L245.50,63.00 L245.50,67.00 L244.50,68.00 L244.50,71.00 L242.00,77.50 L234.50,73.00 L240.50,64.00Z M160.50,59.00 L163.50,59.00 L162.50,61.00 L162.50,69.00 L161.50,70.00 L161.50,85.00 L160.50,87.00 L153.00,88.50 L152.00,89.50 L149.00,89.50 L144.00,91.50 L141.50,89.00 L130.50,72.00 L127.50,69.00 L133.00,65.50 L135.00,65.50 L142.00,62.50Z M165.50,59.00 L174.50,59.00 L174.50,82.00 L170.00,86.50 L162.50,86.00 L162.50,81.00 L163.50,80.00 L163.50,69.00 L164.50,68.00 L164.50,61.00Z M175.50,59.00 L184.00,58.50 L185.50,61.00 L186.50,81.00 L187.50,82.00 L187.00,86.50 L180.00,86.50 L175.50,83.00Z M186.50,59.00 L189.00,58.50 L190.00,59.50 L195.00,59.50 L196.00,60.50 L200.00,60.50 L201.00,61.50 L208.00,62.50 L209.00,63.50 L217.00,65.50 L222.50,69.00 L206.00,91.50 L201.00,89.50 L198.00,89.50 L197.00,88.50 L189.50,87.00 L188.50,85.00 L188.50,70.00 L187.50,69.00 L187.50,61.00Z M123.50,70.00 L125.00,69.50 L133.50,80.00 L140.50,91.00 L140.00,93.50 L136.00,95.50 L133.00,95.50 L132.00,94.50 L130.00,94.50 L127.50,92.00 L125.50,87.00 L123.50,85.00 L121.50,80.00 L117.50,74.00 L120.00,71.50Z M224.50,70.00 L226.00,69.50 L232.50,74.00 L228.50,80.00 L226.50,85.00 L224.50,87.00 L222.50,92.00 L220.00,94.50 L218.00,94.50 L217.00,95.50 L214.00,95.50 L210.00,93.50 L209.50,91.00 L210.50,89.00Z M114.50,75.00 L116.50,75.00 L127.50,94.00 L127.50,100.00 L121.00,104.50 L119.50,103.00 L108.50,80.00 L109.00,78.50Z M233.50,75.00 L235.00,74.50 L241.00,78.50 L241.50,80.00 L230.50,103.00 L229.00,104.50 L222.50,100.00 L222.50,94.00Z M105.50,81.00 L107.50,81.00 L108.50,86.00 L118.50,105.00 L118.50,106.00 L106.00,118.50 L86.00,108.50 L84.00,108.50 L80.50,106.00 L88.50,97.00 L88.50,96.00Z M243.50,81.00 L244.00,80.50 L252.00,87.50 L253.00,87.50 L262.50,97.00 L262.50,98.00 L269.50,106.00 L264.00,109.50 L262.00,109.50 L253.00,114.50 L251.00,114.50 L245.00,118.50 L244.00,118.50 L231.50,106.00Z M165.50,88.00 L169.00,87.50 L169.50,90.00 L168.50,91.00 L167.50,99.00 L166.50,100.00 L165.50,116.00 L163.00,116.50 L162.50,89.00Z M172.50,88.00 L174.50,88.00 L174.50,115.00 L168.00,115.50 L167.50,107.00 L168.50,106.00 L168.50,100.00 L169.50,99.00 L169.50,95.00Z M175.50,88.00 L177.00,87.50 L178.50,89.00 L179.50,94.00 L180.50,95.00 L181.50,106.00 L182.50,107.00 L182.00,115.50 L175.50,115.00Z M180.50,88.00 L184.00,87.50 L187.50,89.00 L187.00,116.50 L184.50,116.00 L183.50,100.00 L182.50,99.00 L182.50,94.00 L181.50,93.00Z M158.50,89.00 L160.50,89.00 L160.00,117.50 L159.00,117.50 L155.50,113.00 L149.50,101.00 L144.50,94.00 L145.00,92.50Z M189.50,89.00 L191.00,88.50 L192.00,89.50 L199.00,90.50 L205.50,93.00 L201.50,101.00 L196.50,108.00 L194.50,113.00 L191.00,117.50 L189.50,117.00Z M139.50,95.00 L142.00,94.50 L143.50,96.00 L146.50,102.00 L148.50,104.00 L150.50,109.00 L152.50,111.00 L154.50,116.00 L156.50,118.00 L156.00,118.50 L153.50,119.00 L143.50,104.00 L137.00,97.50 L135.50,97.00Z M207.50,95.00 L210.00,94.50 L214.50,97.00 L213.00,97.50 L206.50,104.00 L196.50,119.00 L194.00,118.50 L193.50,118.00 L199.50,109.00 L202.50,102.00Z M132.50,99.00 L134.00,98.50 L136.00,99.50 L139.50,103.00 L151.50,119.00 L151.00,120.50 L147.00,122.50 L144.50,121.00 L136.50,106.00 L134.50,104.00Z M215.50,99.00 L217.00,98.50 L217.50,100.00 L213.50,106.00 L211.50,111.00 L209.50,113.00 L207.50,118.00 L205.50,120.00 L204.50,123.00 L204.00,123.50 L202.00,121.50 L199.00,120.50 L198.50,119.00 L205.50,109.00 L209.50,105.00 L209.50,104.00Z M128.50,101.00 L131.50,101.00 L135.50,109.00 L140.50,116.00 L142.50,121.00 L144.50,123.00 L144.00,124.50 L139.00,127.50 L131.50,112.00 L131.50,110.00 L129.50,106.00 L129.50,102.00Z M218.50,101.00 L221.50,101.00 L220.50,102.00 L220.50,106.00 L219.50,107.00 L218.50,112.00 L216.50,115.00 L216.50,117.00 L211.00,127.50 L206.00,124.50 L205.50,123.00 L207.50,121.00 L209.50,116.00 L211.50,114.00Z M222.50,102.00 L223.00,101.50 L227.00,104.50 L228.50,107.00 L215.00,130.50 L212.50,129.00 L220.50,113.00 L221.50,107.00 L222.50,106.00Z M125.50,103.00 L127.50,103.00 L128.50,110.00 L130.50,113.00 L131.50,118.00 L137.50,129.00 L135.00,130.50 L121.50,107.00 L121.50,106.00Z M47.50,104.00 L50.00,103.50 L52.50,105.00 L52.50,109.00 L56.50,116.00 L66.00,125.50 L67.50,126.00 L65.50,129.00 L65.50,131.00 L63.50,134.00 L63.50,136.00 L61.50,140.00 L61.50,143.00 L60.50,144.00 L60.50,147.00 L58.50,152.00 L57.50,163.00 L39.00,168.50 L34.00,174.50 L29.00,174.50 L28.50,170.00 L29.50,169.00 L29.50,158.00 L30.50,157.00 L30.50,151.00 L31.50,150.00 L31.50,146.00 L32.50,145.00 L34.50,134.00 L35.50,133.00 L37.50,125.00 L39.50,122.00 L39.50,120.00 L42.50,115.00 L42.50,113.00Z M58.50,104.00 L62.00,103.50 L63.00,104.50 L67.00,104.50 L68.00,105.50 L71.00,105.50 L77.50,108.00 L73.00,115.50 L64.00,109.50 L56.00,105.50 L56.00,104.50Z M287.50,104.00 L291.00,103.50 L294.50,105.00 L277.00,115.50 L272.50,108.00 L279.00,105.50Z M299.50,104.00 L302.00,103.50 L303.50,105.00 L303.50,107.00 L307.50,113.00 L307.50,115.00 L310.50,120.00 L310.50,122.00 L312.50,125.00 L312.50,127.00 L315.50,134.00 L315.50,137.00 L316.50,138.00 L316.50,141.00 L318.50,146.00 L318.50,150.00 L319.50,151.00 L319.50,157.00 L320.50,158.00 L320.50,169.00 L321.50,170.00 L321.00,174.50 L316.00,174.50 L311.00,168.50 L292.50,163.00 L291.50,152.00 L290.50,151.00 L288.50,140.00 L287.50,139.00 L286.50,134.00 L284.50,131.00 L284.50,129.00 L282.50,126.00 L284.00,125.50 L293.50,116.00 L297.50,109.00 L297.50,105.00Z M54.50,107.00 L55.00,106.50 L59.00,108.50 L61.00,110.50 L71.50,116.00 L71.50,118.00 L68.00,123.50 L58.50,115.00Z M294.50,107.00 L295.00,106.50 L295.50,108.00 L290.50,116.00 L282.00,123.50 L278.50,118.00 L278.50,116.00Z M118.50,108.00 L119.00,107.50 L120.50,109.00 L125.50,119.00 L130.50,126.00 L133.50,132.00 L132.00,133.50 L107.50,119.00Z M230.50,108.00 L231.00,107.50 L242.50,119.00 L218.00,133.50 L216.50,132.00Z M78.50,109.00 L80.00,108.50 L94.00,115.50 L96.00,115.50 L104.50,121.00 L100.00,127.50 L94.00,127.50 L74.50,116.00Z M269.50,109.00 L271.50,109.00 L275.50,115.00 L275.00,116.50 L256.00,127.50 L249.50,127.00 L245.50,121.00 L247.00,119.50 L250.00,118.50 L252.00,116.50 L254.00,116.50 L265.00,110.50 L267.00,110.50Z M170.50,117.00 L174.50,117.00 L174.50,144.00 L173.00,145.50 L167.00,145.50 L161.00,148.50 L153.50,137.00 L151.50,132.00 L149.50,130.00 L147.50,126.00 L147.50,124.00 L153.00,121.50 L163.50,140.00 L166.00,140.50 L167.50,139.00 L167.50,118.00Z M175.50,117.00 L178.00,116.50 L179.00,117.50 L182.50,118.00 L182.50,139.00 L184.00,140.50 L186.50,140.00 L197.00,121.50 L202.50,124.00 L202.50,126.00 L200.50,130.00 L198.50,132.00 L196.50,137.00 L189.00,148.50 L186.00,146.50 L184.00,146.50 L183.00,145.50 L177.00,145.50 L175.50,144.00Z M73.50,118.00 L74.00,117.50 L78.00,119.50 L80.00,121.50 L92.00,127.50 L94.50,130.00 L95.50,136.00 L93.00,140.50 L91.00,140.50 L89.00,138.50 L86.00,137.50 L69.50,125.00 L71.50,120.00Z M163.50,118.00 L165.50,118.00 L165.00,138.50 L158.50,126.00 L155.50,122.00 L157.00,119.50 L159.00,121.50 L162.00,121.50Z M184.50,118.00 L186.00,117.50 L187.50,119.00 L188.00,121.50 L191.00,121.50 L193.00,119.50 L194.50,121.00 L189.50,131.00 L185.00,137.50Z M275.50,118.00 L276.00,117.50 L278.50,120.00 L280.50,125.00 L264.00,137.50 L261.00,138.50 L259.00,140.50 L257.00,140.50 L254.50,136.00 L255.50,130.00 L258.00,127.50 L263.00,125.50 L265.00,123.50Z M105.50,122.00 L107.00,121.50 L111.00,124.50 L118.00,127.50 L125.00,132.50 L130.00,134.50 L130.50,136.00 L129.00,137.50 L113.00,129.50 L107.00,128.50 L106.00,127.50 L102.00,127.50 L101.50,127.00Z M242.50,122.00 L244.00,121.50 L248.50,127.00 L248.00,127.50 L244.00,127.50 L243.00,128.50 L237.00,129.50 L221.00,137.50 L220.50,137.00 L220.00,134.50 L225.00,132.50 L227.00,130.50Z M143.50,126.00 L145.00,125.50 L146.50,127.00 L150.50,135.00 L155.50,142.00 L157.50,147.00 L159.50,149.00 L157.00,150.50 L149.00,159.50 L147.00,157.50 L142.00,155.50 L140.00,153.50 L130.00,148.50 L125.50,145.00 L129.00,139.50 L148.00,150.50 L150.50,149.00 L146.50,140.00 L144.50,138.00 L139.50,129.00Z M204.50,126.00 L206.00,125.50 L210.50,129.00 L207.50,133.00 L202.50,143.00 L200.50,145.00 L200.50,147.00 L199.50,148.00 L200.00,150.50 L205.00,149.50 L207.00,147.50 L210.00,146.50 L212.00,144.50 L217.00,142.50 L221.00,139.50 L224.50,145.00 L220.00,148.50 L210.00,153.50 L208.00,155.50 L203.00,157.50 L201.00,159.50 L199.50,157.00 L192.00,149.50 L190.50,149.00 L192.50,147.00 L194.50,142.00 L196.50,140.00 L197.50,137.00 L199.50,135.00 L201.50,130.00Z M68.50,128.00 L69.00,127.50 L79.00,135.50 L91.50,143.00 L87.00,160.50 L85.00,161.50 L70.00,161.50 L69.00,162.50 L58.50,163.00 L62.50,142.00 L63.50,141.00 L64.50,136.00 L66.50,133.00 L66.50,131.00Z M280.50,128.00 L281.00,127.50 L282.50,129.00 L287.50,142.00 L287.50,145.00 L289.50,150.00 L289.50,154.00 L290.50,155.00 L290.50,160.00 L291.50,161.00 L291.00,163.50 L289.00,162.50 L281.00,162.50 L280.00,161.50 L265.00,161.50 L262.50,160.00 L262.50,157.00 L261.50,156.00 L261.50,153.00 L260.50,152.00 L260.50,149.00 L259.50,148.00 L258.50,143.00 L274.00,133.50Z M100.50,129.00 L106.00,129.50 L107.00,130.50 L112.00,131.50 L127.50,139.00 L124.50,144.00 L123.00,144.50 L121.00,142.50 L116.00,140.50 L114.00,138.50 L101.00,131.50Z M248.50,129.00 L249.00,128.50 L250.50,130.00 L249.00,131.50 L241.00,135.50 L234.00,140.50 L229.00,142.50 L227.00,144.50 L225.50,144.00 L222.50,139.00 L238.00,131.50Z M137.50,131.00 L138.50,131.00 L142.50,139.00 L144.50,141.00 L146.50,145.00 L146.00,146.50 L130.50,138.00 L132.00,136.50 L136.00,136.50 L136.50,133.00 L135.50,132.00Z M211.50,131.00 L212.00,130.50 L213.50,132.00 L214.00,136.50 L218.00,136.50 L219.50,138.00 L211.00,142.50 L209.00,144.50 L204.00,146.50 L203.50,145.00 L208.50,136.00 L210.50,134.00Z M98.50,133.00 L100.00,132.50 L104.00,134.50 L106.00,136.50 L121.00,144.50 L122.50,147.00 L120.50,151.00 L119.00,151.50 L109.00,144.50 L100.50,137.00Z M249.50,133.00 L251.50,133.00 L250.50,136.00 L245.00,141.50 L231.00,151.50 L229.50,151.00 L227.50,147.00 L229.00,144.50Z M252.50,136.00 L253.50,136.00 L255.50,140.00 L255.50,142.00 L253.00,144.50 L248.00,146.50 L246.00,148.50 L241.00,150.50 L232.00,156.50 L231.50,156.00 L231.00,153.50 L246.00,143.50 L252.50,137.00Z M96.50,137.00 L97.00,136.50 L109.00,147.50 L119.00,153.50 L118.50,156.00 L118.00,156.50 L116.00,154.50 L111.00,152.50 L109.00,150.50 L94.00,142.50 L93.50,142.00Z M92.50,145.00 L94.00,144.50 L103.00,150.50 L108.00,152.50 L110.00,154.50 L116.00,157.50 L117.50,160.00 L89.00,160.50 L89.50,155.00 L90.50,154.00 L90.50,151.00 L91.50,150.00Z M255.50,145.00 L257.50,145.00 L257.50,147.00 L259.50,151.00 L259.50,154.00 L260.50,155.00 L261.00,160.50 L232.50,160.00 L232.50,159.00 L237.00,155.50 L249.00,149.50Z M168.50,147.00 L174.50,147.00 L174.00,171.50 L161.50,150.00Z M175.50,147.00 L181.00,146.50 L182.00,147.50 L187.00,148.50 L188.50,150.00 L176.00,171.50Z M123.50,148.00 L126.00,147.50 L130.00,149.50 L132.00,151.50 L137.00,153.50 L148.50,161.00 L146.50,164.00 L146.50,166.00 L145.50,167.00 L145.50,173.00 L144.00,174.50 L116.50,174.00 L116.50,171.00 L118.00,167.50 L139.00,167.50 L140.50,166.00 L140.50,165.00 L137.00,161.50 L124.00,154.50 L121.50,152.00Z M223.50,148.00 L226.00,147.50 L228.50,153.00 L211.00,162.50 L209.50,164.00 L209.50,166.00 L211.00,167.50 L232.00,167.50 L233.50,174.00 L206.00,174.50 L204.50,173.00 L204.50,167.00 L201.50,161.00 L213.00,153.50Z M159.50,151.00 L160.50,151.00 L165.50,161.00 L170.50,168.00 L171.50,170.00 L171.00,171.50 L150.50,160.00 L151.50,158.00Z M189.50,151.00 L190.00,150.50 L193.00,152.50 L199.50,160.00 L179.00,171.50 L178.50,170.00 L179.50,168.00 L184.50,161.00Z M120.50,156.00 L122.00,155.50 L124.00,156.50 L126.00,158.50 L131.00,160.50 L137.50,165.00 L118.00,165.50 L117.50,164.00 L121.50,161.00 L121.50,159.00 L119.50,157.00Z M227.50,156.00 L229.00,155.50 L230.50,157.00 L228.50,159.00 L228.50,162.00 L231.00,162.50 L232.50,164.00 L232.00,165.50 L212.50,165.00Z M149.50,162.00 L150.00,161.50 L156.00,164.50 L158.00,166.50 L163.00,168.50 L171.50,174.00 L147.00,174.50 L146.50,169.00Z M199.50,162.00 L200.50,162.00 L203.50,169.00 L203.00,174.50 L178.50,174.00Z M80.50,163.00 L86.50,163.00 L86.50,170.00 L83.00,174.50 L58.50,174.00 L59.00,165.50 L61.00,164.50 L68.00,164.50 L69.00,163.50Z M88.50,163.00 L116.00,162.50 L116.50,165.00 L109.00,165.50 L108.00,166.50 L100.00,166.50 L99.00,167.50 L95.00,167.50 L94.00,168.50 L88.00,169.50 L87.50,166.00 L88.50,165.00Z M233.50,163.00 L261.00,162.50 L262.50,166.00 L262.50,169.00 L260.00,169.50 L259.00,168.50 L251.00,167.50 L250.00,166.50 L234.00,165.50Z M263.50,163.00 L269.00,162.50 L270.00,163.50 L289.00,164.50 L291.50,166.00 L291.50,174.00 L267.00,174.50 L263.50,170.00Z M54.50,166.00 L57.50,166.00 L56.50,168.00 L56.00,174.50 L36.50,174.00 L39.00,171.50 L45.00,168.50Z M292.50,166.00 L294.00,165.50 L295.00,166.50 L303.00,167.50 L306.00,169.50 L310.00,170.50 L313.50,174.00 L294.00,174.50 L293.50,168.00Z M106.50,168.00 L115.00,167.50 L115.00,174.50 L87.50,174.00 L87.50,173.00 L91.00,170.50Z M234.50,168.00 L243.00,167.50 L244.00,168.50 L255.00,169.50 L256.00,170.50 L261.00,171.50 L262.50,174.00 L235.00,174.50Z M28.50,176.00 L34.00,175.50 L39.00,181.50 L57.50,187.00 L58.50,198.00 L59.50,199.00 L61.50,210.00 L62.50,211.00 L63.50,216.00 L65.50,219.00 L65.50,221.00 L67.50,224.00 L66.00,224.50 L56.50,234.00 L52.50,241.00 L52.50,245.00 L50.00,246.50 L48.00,246.50 L46.50,245.00 L42.50,237.00 L42.50,235.00 L39.50,230.00 L39.50,228.00 L37.50,225.00 L37.50,223.00 L34.50,216.00 L34.50,213.00 L33.50,212.00 L33.50,209.00 L31.50,204.00 L31.50,200.00 L30.50,199.00Z M36.50,176.00 L56.00,175.50 L56.50,182.00 L57.50,184.00 L55.00,184.50 L54.00,183.50 L51.00,183.50 L50.00,182.50 L45.00,181.50 L39.00,178.50Z M58.50,176.00 L83.00,175.50 L86.50,180.00 L86.50,187.00 L81.00,187.50 L80.00,186.50 L61.00,185.50 L58.50,184.00Z M87.50,176.00 L115.00,175.50 L115.50,182.00 L107.00,182.50 L106.00,181.50 L95.00,180.50 L94.00,179.50 L89.00,178.50Z M116.50,176.00 L144.00,175.50 L145.50,177.00 L145.50,183.00 L148.50,189.00 L137.00,196.50 L132.00,198.50 L130.00,200.50 L126.00,202.50 L124.00,202.50 L121.50,198.00 L124.00,195.50 L137.00,188.50 L140.50,185.00 L140.50,184.00 L139.00,182.50 L118.00,182.50 L116.50,179.00Z M146.50,176.00 L171.50,176.00 L150.00,188.50 L148.50,187.00 L148.50,185.00 L146.50,181.00Z M178.50,176.00 L203.00,175.50 L203.50,181.00 L200.00,188.50Z M205.50,176.00 L233.50,176.00 L232.00,182.50 L211.00,182.50 L209.50,184.00 L209.50,186.00 L211.00,187.50 L228.50,197.00 L226.00,202.50 L224.00,202.50 L220.00,200.50 L218.00,198.50 L213.00,196.50 L201.50,189.00 L204.50,183.00 L204.50,177.00Z M234.50,176.00 L262.00,175.50 L262.50,177.00 L261.00,178.50 L259.00,178.50 L255.00,180.50 L244.00,181.50 L243.00,182.50 L235.00,182.50Z M266.50,176.00 L291.00,175.50 L291.50,184.00 L289.00,185.50 L264.00,187.50 L263.50,180.00Z M293.50,176.00 L313.50,176.00 L308.00,180.50 L306.00,180.50 L303.00,182.50 L300.00,182.50 L299.00,183.50 L295.00,183.50 L294.00,184.50 L292.50,184.00 L293.50,182.00Z M315.50,176.00 L321.50,176.00 L321.50,180.00 L320.50,181.00 L320.50,192.00 L319.50,193.00 L318.50,204.00 L317.50,205.00 L315.50,216.00 L314.50,217.00 L312.50,225.00 L310.50,228.00 L310.50,230.00 L307.50,235.00 L307.50,237.00 L303.50,243.00 L303.50,245.00 L302.00,246.50 L300.00,246.50 L297.50,245.00 L297.50,241.00 L293.50,234.00 L284.00,224.50 L282.50,224.00 L284.50,221.00 L284.50,219.00 L286.50,216.00 L286.50,214.00 L288.50,210.00 L288.50,207.00 L289.50,206.00 L289.50,203.00 L291.50,198.00 L292.50,187.00 L311.00,181.50 L315.50,177.00Z M169.50,179.00 L171.00,178.50 L171.50,180.00 L160.00,199.50 L157.00,197.50 L150.50,190.00Z M173.50,179.00 L174.50,179.00 L174.50,203.00 L169.00,203.50 L161.50,200.00Z M175.50,179.00 L176.50,179.00 L179.50,185.00 L181.50,187.00 L183.50,192.00 L185.50,194.00 L188.50,200.00 L187.00,201.50 L185.00,201.50 L181.00,203.50 L175.50,203.00Z M178.50,179.00 L180.00,178.50 L182.00,179.50 L189.00,184.50 L199.00,189.50 L198.50,192.00 L190.00,199.50Z M87.50,181.00 L90.00,180.50 L91.00,181.50 L99.00,182.50 L100.00,183.50 L116.00,184.50 L116.50,187.00 L89.00,187.50 L87.50,184.00Z M259.50,181.00 L262.50,181.00 L262.50,184.00 L261.00,187.50 L233.50,187.00 L234.00,184.50 L250.00,183.50 L251.00,182.50 L255.00,182.50 L256.00,181.50Z M117.50,185.00 L137.50,185.00 L122.00,194.50 L119.50,193.00 L121.50,191.00 L121.50,189.00 L119.00,187.50Z M212.50,185.00 L232.00,184.50 L232.50,186.00 L231.00,187.50 L228.50,188.00 L228.50,191.00 L230.50,193.00 L228.00,194.50Z M58.50,187.00 L69.00,187.50 L70.00,188.50 L85.00,188.50 L87.00,189.50 L91.50,207.00 L79.00,214.50 L69.00,222.50 L66.50,219.00 L66.50,217.00 L64.50,214.00 L64.50,212.00 L62.50,208.00Z M289.50,187.00 L291.50,187.00 L291.50,189.00 L290.50,190.00 L290.50,195.00 L289.50,196.00 L289.50,200.00 L288.50,201.00 L288.50,204.00 L287.50,205.00 L287.50,208.00 L286.50,209.00 L284.50,217.00 L281.00,222.50 L274.00,216.50 L258.50,207.00 L263.00,189.50 L265.00,188.50 L280.00,188.50 L281.00,187.50Z M88.50,190.00 L117.00,189.50 L117.50,191.00 L108.00,197.50 L93.00,205.50 L90.50,199.00 L90.50,196.00 L89.50,195.00 L89.50,191.00Z M232.50,190.00 L261.00,189.50 L260.50,195.00 L259.50,196.00 L259.50,199.00 L258.50,200.00 L257.50,205.00 L256.00,205.50 L249.00,200.50 L242.00,197.50 L240.00,195.50 L234.00,192.50Z M148.50,191.00 L149.00,190.50 L150.50,193.00 L159.50,201.00 L157.50,203.00 L155.50,208.00 L150.50,215.00 L148.50,220.00 L146.50,223.00 L144.00,224.50 L139.50,221.00 L144.50,212.00 L146.50,210.00 L150.50,201.00 L148.00,199.50 L129.00,210.50 L125.50,205.00 L130.00,201.50 L135.00,199.50 L137.00,197.50 L140.00,196.50Z M200.50,191.00 L201.00,190.50 L203.00,192.50 L208.00,194.50 L210.00,196.50 L220.00,201.50 L224.50,205.00 L221.00,210.50 L217.00,207.50 L207.00,202.50 L205.00,200.50 L203.00,200.50 L202.00,199.50 L199.50,200.00 L200.50,205.00 L202.50,207.00 L203.50,210.00 L205.50,212.00 L207.50,217.00 L210.50,221.00 L206.00,224.50 L205.00,224.50 L201.50,220.00 L199.50,215.00 L197.50,213.00 L192.50,203.00 L190.50,201.00 L192.00,200.50Z M117.50,194.00 L118.50,194.00 L119.00,196.50 L109.00,202.50 L97.00,213.50 L95.50,212.00 L93.50,208.00 L94.00,207.50Z M231.50,194.00 L232.00,193.50 L234.00,195.50 L253.00,205.50 L255.50,208.00 L255.50,210.00 L253.50,214.00 L253.00,214.50 L252.50,213.00 L241.00,202.50 L231.00,196.50Z M118.50,199.00 L120.00,198.50 L122.50,203.00 L121.00,205.50 L106.00,213.50 L104.00,215.50 L100.00,217.50 L98.50,217.00 L100.50,213.00 L103.00,210.50Z M229.50,199.00 L231.00,198.50 L245.00,208.50 L250.50,214.00 L251.50,217.00 L250.00,217.50 L246.00,215.50 L244.00,213.50 L229.00,205.50 L227.50,203.00Z M160.50,202.00 L161.00,201.50 L167.00,204.50 L173.00,204.50 L174.50,206.00 L174.00,233.50 L171.00,233.50 L167.50,232.00 L167.50,211.00 L166.00,209.50 L163.50,210.00 L153.00,228.50 L147.50,226.00 L147.50,224.00 L149.50,220.00 L151.50,218.00 L153.50,213.00 L155.50,211.00Z M188.50,202.00 L189.00,201.50 L190.50,203.00 L191.50,206.00 L196.50,213.00 L198.50,218.00 L202.50,224.00 L202.50,226.00 L197.00,228.50 L186.50,210.00 L184.00,209.50 L182.50,211.00 L182.50,232.00 L176.00,233.50 L175.50,206.00 L177.00,204.50 L183.00,204.50Z M144.50,204.00 L146.00,203.50 L146.50,205.00 L138.00,219.50 L135.50,218.00 L136.50,217.00 L136.50,214.00 L132.00,213.50 L130.50,212.00Z M203.50,204.00 L205.00,203.50 L219.50,212.00 L218.00,213.50 L214.00,213.50 L213.50,218.00 L212.00,219.50 L207.50,211.00 L205.50,209.00Z M122.50,206.00 L124.50,206.00 L127.50,211.00 L127.00,211.50 L112.00,218.50 L110.00,218.50 L106.00,220.50 L100.50,221.00 L101.00,218.50Z M225.50,206.00 L227.00,205.50 L229.00,207.50 L234.00,209.50 L236.00,211.50 L246.00,216.50 L250.50,220.00 L249.00,221.50 L248.00,220.50 L244.00,220.50 L243.00,219.50 L238.00,218.50 L235.00,216.50 L233.00,216.50 L223.00,211.50 L222.50,211.00Z M90.50,210.00 L93.00,209.50 L95.50,214.00 L94.50,220.00 L92.00,222.50 L87.00,224.50 L85.00,226.50 L80.00,228.50 L74.00,232.50 L71.50,230.00 L69.50,225.00 L76.00,219.50Z M256.50,210.00 L259.00,209.50 L261.00,211.50 L264.00,212.50 L280.50,225.00 L278.50,230.00 L276.00,232.50 L270.00,228.50 L265.00,226.50 L263.00,224.50 L258.00,222.50 L255.50,220.00 L254.50,214.00Z M164.50,212.00 L165.50,212.00 L165.00,232.50 L162.50,231.00 L162.00,228.50 L159.00,228.50 L157.00,230.50 L155.50,229.00Z M128.50,213.00 L129.00,212.50 L130.50,214.00 L130.00,215.50 L125.00,217.50 L123.00,219.50 L111.00,225.50 L107.00,228.50 L106.00,228.50 L101.50,223.00 L113.00,220.50Z M184.50,213.00 L185.00,212.50 L186.50,214.00 L187.50,217.00 L189.50,219.00 L191.50,224.00 L194.50,228.00 L193.00,230.50 L191.00,228.50 L188.00,228.50 L187.50,231.00 L186.00,232.50 L184.50,232.00Z M220.50,213.00 L221.00,212.50 L237.00,220.50 L248.50,223.00 L245.50,227.00 L243.00,228.50 L239.00,225.50 L227.00,219.50 L225.00,217.50 L220.00,215.50Z M131.50,217.00 L132.00,216.50 L133.50,218.00 L119.00,242.50 L107.50,231.00 L114.00,226.50 L119.00,224.50 L121.00,222.50Z M217.50,217.00 L218.00,216.50 L222.00,218.50 L224.00,220.50 L229.00,222.50 L231.00,224.50 L236.00,226.50 L242.50,231.00 L231.00,242.50 L226.50,236.00 L221.50,226.00 L219.50,224.00 L216.50,218.00Z M134.50,220.00 L135.00,219.50 L137.50,221.00 L131.50,232.00 L130.50,237.00 L128.50,240.00 L127.50,247.00 L126.00,247.50 L123.00,245.50 L121.50,243.00 L130.50,227.00 L132.50,225.00Z M214.50,220.00 L215.50,220.00 L217.50,225.00 L219.50,227.00 L228.50,243.00 L228.50,244.00 L223.00,248.50 L220.50,237.00 L212.50,221.00Z M93.50,223.00 L100.00,222.50 L104.50,229.00 L96.00,234.50 L94.00,234.50 L85.00,239.50 L83.00,239.50 L79.00,241.50 L74.50,234.00Z M138.50,223.00 L141.00,223.50 L144.00,225.50 L144.50,227.00 L142.50,229.00 L140.50,234.00 L138.50,236.00 L131.50,249.00 L129.00,249.50 L129.50,244.00 L130.50,243.00 L131.50,238.00Z M210.50,223.00 L211.50,223.00 L218.50,238.00 L218.50,240.00 L220.50,244.00 L221.00,249.50 L218.50,249.00 L214.50,241.00 L209.50,234.00 L207.50,229.00 L205.50,227.00 L206.00,225.50Z M249.50,223.00 L256.00,222.50 L260.00,225.50 L265.00,227.50 L267.00,229.50 L272.00,231.50 L275.00,233.50 L275.50,235.00 L271.00,241.50 L267.00,239.50 L265.00,239.50 L254.00,233.50 L252.00,233.50 L245.50,229.00Z M67.50,227.00 L68.00,226.50 L69.50,228.00 L71.50,232.00 L71.50,234.00 L55.00,243.50 L54.50,242.00 L58.50,235.00 L66.00,227.50Z M203.50,227.00 L204.50,227.00 L213.50,244.00 L215.50,246.00 L217.50,250.00 L217.00,251.50 L213.00,249.50 L209.50,246.00 L198.50,231.00 L199.00,229.50Z M281.50,227.00 L282.00,226.50 L285.00,228.50 L290.50,234.00 L295.50,242.00 L295.00,243.50 L278.50,234.00 L278.50,232.00Z M145.50,228.00 L147.00,227.50 L151.00,229.50 L151.50,231.00 L139.50,247.00 L136.00,250.50 L133.00,251.50 L132.50,250.00 L134.50,246.00 L136.50,244.00 L138.50,239.00 L140.50,237.00 L142.50,232.00Z M153.50,231.00 L154.00,230.50 L156.50,232.00 L154.50,234.00 L152.50,239.00 L150.50,241.00 L148.50,246.00 L146.50,248.00 L143.50,254.00 L142.00,255.50 L140.00,255.50 L136.00,253.50 L135.50,253.00 L137.00,252.50 L147.50,241.00Z M195.50,231.00 L196.50,231.00 L206.50,246.00 L213.00,252.50 L214.00,252.50 L214.00,253.50 L210.00,255.50 L208.00,255.50 L206.50,254.00 L202.50,248.00 L199.50,241.00 L197.50,239.00 L195.50,234.00 L193.50,232.00Z M104.50,232.00 L106.00,231.50 L118.50,244.00 L108.50,264.00 L107.00,269.50 L95.00,260.50 L80.50,244.00 L82.00,242.50 L86.00,241.50Z M243.50,232.00 L245.00,231.50 L251.00,235.50 L253.00,235.50 L262.00,240.50 L264.00,240.50 L269.50,244.00 L262.50,252.00 L262.50,253.00 L253.00,262.50 L252.00,262.50 L244.00,269.50 L240.50,264.00 L240.50,262.00 L235.50,253.00 L235.50,251.00 L231.50,245.00 L231.50,244.00Z M158.50,233.00 L160.50,233.00 L160.00,261.50 L144.50,257.00 L147.50,251.00 L149.50,249.00 L152.50,242.00Z M189.50,233.00 L191.00,232.50 L194.50,237.00 L196.50,242.00 L198.50,244.00 L203.50,254.00 L205.50,256.00 L205.00,257.50 L203.00,257.50 L199.00,259.50 L196.00,259.50 L195.00,260.50 L192.00,260.50 L191.00,261.50 L189.50,261.00Z M162.50,234.00 L165.50,234.00 L166.50,250.00 L167.50,251.00 L167.50,255.00 L169.50,260.00 L169.00,262.50 L166.00,262.50 L162.50,261.00Z M184.50,234.00 L187.50,234.00 L187.50,261.00 L184.00,262.50 L181.00,262.50 L180.50,260.00 L182.50,256.00 L182.50,251.00 L183.50,250.00Z M72.50,235.00 L73.50,235.00 L74.50,238.00 L77.50,242.00 L77.00,242.50 L75.00,242.50 L71.00,244.50 L68.00,244.50 L67.00,245.50 L63.00,245.50 L62.00,246.50 L59.00,246.50 L55.50,245.00Z M167.50,235.00 L174.50,235.00 L174.00,262.50 L171.50,261.00 L171.50,259.00 L169.50,255.00 L168.50,244.00 L167.50,243.00Z M175.50,235.00 L182.50,235.00 L181.50,250.00 L180.50,251.00 L179.50,259.00 L177.00,262.50 L175.50,262.00Z M276.50,235.00 L279.00,235.50 L281.00,237.50 L294.50,245.00 L291.00,246.50 L288.00,246.50 L287.00,245.50 L283.00,245.50 L282.00,244.50 L279.00,244.50 L278.00,243.50 L273.00,242.50 L272.50,242.00 L275.50,238.00Z M75.50,245.00 L79.00,244.50 L85.50,252.00 L85.50,253.00 L97.00,264.50 L98.00,264.50 L105.50,271.00 L105.50,274.00 L102.50,282.00 L102.50,295.00 L103.50,296.00 L103.50,298.00 L101.00,300.50 L88.00,292.50 L78.00,283.50 L77.00,283.50 L61.50,267.00 L49.50,250.00 L52.00,246.50 L54.00,246.50 L55.00,247.50 L68.00,247.50 L69.00,246.50 L72.00,246.50Z M270.50,245.00 L274.00,244.50 L282.00,247.50 L295.00,247.50 L296.00,246.50 L298.00,246.50 L300.50,250.00 L284.50,272.00 L274.00,282.50 L273.00,282.50 L262.00,292.50 L249.00,300.50 L246.50,298.00 L246.50,296.00 L247.50,295.00 L247.50,282.00 L244.50,274.00 L244.50,271.00 L252.00,264.50 L253.00,264.50 L263.50,254.00 L263.50,253.00Z M120.50,246.00 L121.00,245.50 L127.50,250.00 L127.50,256.00 L124.50,260.00 L122.50,265.00 L120.50,267.00 L118.50,272.00 L116.50,275.00 L115.00,275.50 L109.00,271.50 L108.50,270.00Z M228.50,246.00 L229.00,245.50 L230.50,247.00 L241.50,270.00 L241.00,271.50 L235.00,275.50 L234.00,275.50 L231.50,272.00 L229.50,267.00 L227.50,265.00 L225.50,260.00 L222.50,256.00 L222.50,250.00Z M132.50,255.00 L136.00,254.50 L140.00,256.50 L140.50,259.00 L127.50,278.00 L124.00,280.50 L120.00,278.50 L117.50,276.00 L121.50,270.00 L123.50,265.00 L125.50,263.00 L127.50,258.00 L130.00,255.50Z M213.50,255.00 L217.00,254.50 L218.00,255.50 L220.00,255.50 L222.50,258.00 L224.50,263.00 L226.50,265.00 L228.50,270.00 L232.50,276.00 L231.00,277.50 L225.00,280.50 L219.50,274.00 L209.50,259.00 L209.50,257.00Z M143.50,259.00 L145.00,258.50 L149.00,260.50 L152.00,260.50 L153.00,261.50 L160.50,263.00 L161.50,265.00 L161.50,280.00 L162.50,281.00 L163.00,291.50 L142.00,287.50 L141.00,286.50 L133.00,284.50 L127.50,281.00 L130.50,278.00 L132.50,274.00 L135.50,271.00Z M204.50,259.00 L206.00,258.50 L208.50,261.00 L214.50,271.00 L222.50,281.00 L217.00,284.50 L215.00,284.50 L208.00,287.50 L187.00,291.50 L187.50,281.00 L188.50,280.00 L188.50,265.00 L189.50,263.00Z M162.50,264.00 L170.00,263.50 L174.50,268.00 L174.00,291.50 L166.00,291.50 L164.50,289.00Z M179.50,264.00 L187.50,264.00 L185.50,289.00 L184.00,291.50 L175.50,291.00 L175.50,267.00Z M107.50,273.00 L108.00,272.50 L115.50,277.00 L105.00,294.50 L103.50,291.00 L103.50,288.00 L104.50,287.00 L104.50,283.00 L105.50,282.00 L105.50,279.00 L106.50,278.00Z M241.50,273.00 L242.50,273.00 L242.50,275.00 L244.50,279.00 L244.50,282.00 L245.50,283.00 L245.50,287.00 L246.50,288.00 L246.50,291.00 L245.00,294.50 L234.50,277.00Z M115.50,279.00 L118.00,278.50 L122.00,280.50 L123.50,282.00 L122.50,284.00 L115.00,291.50 L107.00,295.50 L106.50,295.00 L108.50,291.00 L110.50,289.00Z M231.50,279.00 L234.50,279.00 L239.50,289.00 L241.50,291.00 L243.50,295.00 L243.00,295.50 L238.00,293.50 L234.00,290.50 L226.50,283.00 L228.00,280.50Z M125.50,283.00 L126.00,282.50 L129.00,284.50 L131.00,284.50 L134.00,286.50 L136.00,286.50 L140.00,288.50 L143.00,288.50 L144.00,289.50 L147.00,289.50 L152.00,291.50 L163.00,292.50 L168.50,311.00 L174.50,316.00 L174.50,321.00 L170.00,321.50 L169.00,320.50 L158.00,320.50 L157.00,319.50 L151.00,319.50 L150.00,318.50 L146.00,318.50 L145.00,317.50 L134.00,315.50 L133.00,314.50 L125.00,312.50 L122.00,310.50 L120.00,310.50 L115.00,307.50 L113.00,307.50 L107.00,303.50 L105.00,303.50 L103.50,302.00 L104.50,298.00 L109.00,297.50 L116.00,293.50 L125.50,284.00Z M223.50,283.00 L224.00,282.50 L224.50,284.00 L234.00,293.50 L241.00,297.50 L245.00,297.50 L246.50,300.00 L246.50,302.00 L245.00,303.50 L243.00,303.50 L237.00,307.50 L235.00,307.50 L230.00,310.50 L228.00,310.50 L225.00,312.50 L223.00,312.50 L216.00,315.50 L213.00,315.50 L212.00,316.50 L209.00,316.50 L204.00,318.50 L200.00,318.50 L199.00,319.50 L193.00,319.50 L192.00,320.50 L180.00,320.50 L179.00,321.50 L175.50,321.00 L175.50,316.00 L177.00,315.50 L182.50,309.00 L187.00,292.50 L198.00,291.50 L199.00,290.50 L210.00,288.50Z M165.50,293.00 L167.00,292.50 L168.00,293.50 L174.50,294.00 L174.00,313.50 L171.50,311.00 L168.50,305.00Z M182.50,293.00 L184.50,293.00 L183.50,295.00 L183.50,299.00 L182.50,300.00 L180.50,308.00 L176.00,313.50 L175.50,294.00Z" fill="#000000" fill-rule="evenodd" stroke="none"/>
</svg>
