<svg xmlns="http://www.w3.org/2000/svg" viewBox="0 0 350 156">
  <path d="M60.50,1.00 L67.00,0.50 L71.00,2.50 L73.50,6.00 L73.50,18.00 L77.50,24.00 L77.50,26.00 L78.50,27.00 L78.50,35.00 L82.50,42.00 L81.50,50.00 L86.50,56.00 L86.50,58.00 L84.50,61.00 L84.50,64.00 L88.50,68.00 L86.50,75.00 L91.50,79.00 L90.50,86.00 L94.50,90.00 L94.50,92.00 L89.50,96.00 L98.50,101.00 L96.00,104.50 L92.50,106.00 L94.00,107.50 L99.00,108.50 L102.50,111.00 L102.00,112.50 L92.50,116.00 L96.00,117.50 L99.00,117.50 L100.00,118.50 L103.00,118.50 L105.50,120.00 L105.00,122.50 L98.00,123.50 L97.00,124.50 L95.00,124.50 L94.50,126.00 L98.00,127.50 L102.00,127.50 L103.00,128.50 L113.00,128.50 L113.50,127.00 L111.50,125.00 L111.50,122.00 L115.50,117.00 L115.50,115.00 L114.50,114.00 L114.50,108.00 L117.50,104.00 L117.50,94.00 L121.50,87.00 L121.50,82.00 L120.50,81.00 L121.50,76.00 L124.00,73.50 L131.00,70.50 L141.00,70.50 L143.50,73.00 L146.50,80.00 L148.00,81.50 L152.00,82.50 L154.50,80.00 L154.50,78.00 L152.50,76.00 L152.50,73.00 L156.50,67.00 L156.50,58.00 L160.50,50.00 L161.50,33.00 L162.50,32.00 L162.50,29.00 L166.50,22.00 L166.50,8.00 L171.00,2.50 L176.00,0.50 L180.00,0.50 L186.00,3.50 L188.50,7.00 L188.50,9.00 L189.50,10.00 L189.50,16.00 L188.50,17.00 L188.50,19.00 L189.50,20.00 L190.50,26.00 L193.50,32.00 L193.50,42.00 L194.50,43.00 L195.50,52.00 L196.50,53.00 L197.50,58.00 L199.50,61.00 L199.50,67.00 L198.50,68.00 L199.50,69.00 L199.50,71.00 L203.00,73.50 L207.00,73.50 L209.50,72.00 L209.50,70.00 L210.50,69.00 L209.50,68.00 L209.50,62.00 L212.50,56.00 L212.50,50.00 L213.50,49.00 L213.50,45.00 L214.50,44.00 L216.50,34.00 L217.50,33.00 L217.50,28.00 L218.50,27.00 L220.50,16.00 L223.50,8.00 L225.00,6.50 L228.00,6.50 L231.50,10.00 L233.50,14.00 L234.50,23.00 L235.50,24.00 L235.50,30.00 L239.50,40.00 L239.50,47.00 L244.50,60.00 L243.50,67.00 L248.50,74.00 L248.50,77.00 L246.50,81.00 L249.00,83.50 L253.00,85.50 L261.00,85.50 L263.50,83.00 L261.50,80.00 L261.50,78.00 L267.50,72.00 L265.50,68.00 L265.50,63.00 L268.50,58.00 L269.50,50.00 L273.50,42.00 L273.50,33.00 L276.50,27.00 L277.50,21.00 L278.50,20.00 L278.50,11.00 L279.50,10.00 L279.50,8.00 L286.00,0.50 L290.00,0.50 L294.50,5.00 L295.50,9.00 L297.50,12.00 L299.50,26.00 L303.50,35.00 L303.50,44.00 L306.50,48.00 L306.50,50.00 L307.50,51.00 L307.50,58.00 L310.50,62.00 L310.50,66.00 L308.50,70.00 L309.50,72.00 L314.50,76.00 L313.50,82.00 L319.50,88.00 L319.00,89.50 L313.50,92.00 L314.00,93.50 L317.00,94.50 L320.50,98.00 L319.00,100.50 L315.50,102.00 L317.00,103.50 L324.00,105.50 L326.50,108.00 L323.00,110.50 L320.00,110.50 L316.50,112.00 L319.00,113.50 L322.00,113.50 L323.00,114.50 L328.00,115.50 L329.50,117.00 L326.00,119.50 L323.00,119.50 L317.50,122.00 L325.00,123.50 L326.00,124.50 L330.00,124.50 L332.50,126.00 L332.50,127.00 L330.00,128.50 L320.50,131.00 L322.00,132.50 L327.00,132.50 L328.00,133.50 L332.00,133.50 L335.50,135.00 L335.50,136.00 L332.00,138.50 L329.00,138.50 L328.00,139.50 L325.00,139.50 L321.50,141.00 L333.00,143.50 L334.50,145.00 L334.50,147.00 L331.00,148.50 L310.00,148.50 L309.00,147.50 L299.00,147.50 L298.00,148.50 L275.00,148.50 L274.00,147.50 L264.00,147.50 L263.00,148.50 L244.00,148.50 L239.50,146.00 L242.00,143.50 L249.00,142.50 L249.00,141.50 L228.00,141.50 L227.00,142.50 L224.00,142.50 L223.00,143.50 L212.00,146.50 L211.50,148.00 L213.00,148.50 L213.50,150.00 L211.00,151.50 L144.00,151.50 L142.50,150.00 L142.50,148.00 L143.50,147.00 L138.00,144.50 L135.00,144.50 L134.00,143.50 L131.00,143.50 L126.00,141.50 L110.00,141.50 L109.00,142.50 L99.00,143.50 L99.00,145.50 L103.00,145.50 L104.50,147.00 L103.00,148.50 L80.00,148.50 L79.00,147.50 L78.00,148.50 L26.00,148.50 L24.00,147.50 L23.50,147.00 L25.00,145.50 L29.00,145.50 L30.50,144.00 L28.00,142.50 L21.00,141.50 L19.00,140.50 L18.50,139.00 L20.00,137.50 L29.00,136.50 L32.50,135.00 L29.00,133.50 L21.00,132.50 L17.50,130.00 L19.00,128.50 L30.00,127.50 L31.00,126.50 L34.50,126.00 L24.50,122.00 L25.00,119.50 L27.00,118.50 L31.00,118.50 L36.50,116.00 L27.00,112.50 L26.50,110.00 L36.00,107.50 L37.50,106.00 L31.00,103.50 L30.50,101.00 L39.50,96.00 L34.50,92.00 L34.50,90.00 L38.50,87.00 L37.50,79.00 L42.50,75.00 L40.50,70.00 L43.50,64.00 L42.50,56.00 L47.50,50.00 L47.50,41.00 L51.50,32.00 L51.50,23.00 L54.50,19.00 L54.50,16.00 L55.50,15.00 L54.50,13.00 L54.50,7.00 L56.50,3.00Z M62.50,2.00 L64.00,1.50 L65.00,2.50 L68.00,2.50 L72.50,7.00 L72.50,19.00 L76.50,25.00 L76.50,28.00 L77.50,29.00 L76.50,34.00 L77.50,35.00 L77.50,37.00 L80.50,41.00 L80.50,51.00 L84.50,56.00 L83.50,65.00 L86.50,68.00 L86.50,71.00 L84.50,73.00 L84.50,76.00 L90.50,81.00 L89.50,83.00 L89.50,87.00 L93.50,91.00 L88.50,95.00 L88.50,97.00 L92.00,99.50 L94.00,99.50 L96.50,102.00 L91.00,104.50 L90.50,107.00 L95.00,109.50 L98.00,109.50 L100.50,111.00 L99.00,112.50 L92.00,114.50 L90.50,117.00 L97.00,119.50 L101.00,119.50 L104.50,121.00 L93.00,123.50 L92.50,126.00 L96.00,128.50 L107.00,129.50 L108.00,130.50 L113.00,130.50 L115.50,129.00 L115.50,127.00 L112.50,123.00 L116.50,118.00 L115.50,109.00 L118.50,105.00 L118.50,103.00 L119.50,102.00 L119.50,98.00 L118.50,96.00 L119.50,95.00 L119.50,93.00 L122.50,89.00 L122.50,77.00 L127.00,73.50 L133.00,72.50 L134.00,71.50 L139.00,71.50 L141.50,73.00 L143.50,76.00 L144.50,80.00 L148.00,83.50 L153.00,83.50 L155.50,82.00 L156.50,79.00 L153.50,74.00 L158.50,66.00 L157.50,60.00 L161.50,52.00 L161.50,44.00 L163.50,39.00 L163.50,31.00 L168.50,20.00 L167.50,10.00 L171.00,4.50 L174.00,2.50 L181.00,2.50 L183.00,3.50 L187.50,9.00 L187.50,22.00 L192.50,33.00 L192.50,44.00 L194.50,49.00 L195.50,57.00 L198.50,62.00 L197.50,70.00 L201.00,74.50 L203.00,74.50 L204.00,75.50 L209.00,74.50 L211.50,71.00 L210.50,63.00 L214.50,55.00 L214.50,46.00 L216.50,43.00 L216.50,40.00 L218.50,35.00 L218.50,31.00 L219.50,30.00 L219.50,26.00 L220.50,25.00 L222.50,14.00 L224.50,10.00 L227.00,7.50 L230.50,11.00 L232.50,16.00 L232.50,19.00 L233.50,20.00 L234.50,32.00 L238.50,42.00 L238.50,50.00 L242.50,58.00 L242.50,68.00 L247.50,75.00 L245.50,78.00 L245.50,82.00 L249.00,85.50 L251.50,86.00 L249.00,87.50 L248.00,89.50 L245.00,90.50 L244.50,92.00 L247.00,92.50 L249.00,94.50 L254.00,94.50 L257.00,96.50 L258.00,95.50 L265.00,95.50 L267.50,94.00 L267.00,91.50 L263.00,91.50 L261.00,88.50 L258.50,88.00 L260.00,86.50 L262.00,86.50 L264.50,85.00 L263.50,78.00 L266.00,76.50 L268.50,73.00 L268.50,70.00 L266.50,67.00 L266.50,64.00 L269.50,60.00 L269.50,58.00 L270.50,57.00 L270.50,52.00 L274.50,44.00 L274.50,35.00 L279.50,23.00 L279.50,13.00 L280.50,12.00 L280.50,10.00 L282.50,6.00 L286.00,2.50 L288.00,1.50 L290.00,2.50 L292.50,5.00 L296.50,14.00 L298.50,28.00 L301.50,33.00 L301.50,41.00 L302.50,42.00 L302.50,45.00 L305.50,50.00 L305.50,56.00 L309.50,64.00 L307.50,67.00 L307.50,71.00 L309.50,74.00 L313.50,77.00 L311.50,82.00 L317.50,88.00 L311.50,92.00 L314.00,95.50 L318.50,98.00 L318.50,99.00 L315.00,100.50 L313.50,103.00 L315.00,104.50 L323.00,106.50 L324.50,108.00 L315.00,110.50 L314.50,113.00 L317.00,114.50 L320.00,114.50 L321.00,115.50 L324.00,115.50 L327.50,117.00 L321.00,119.50 L318.00,119.50 L315.50,121.00 L317.00,123.50 L323.00,124.50 L324.00,125.50 L328.00,125.50 L329.50,127.00 L319.00,129.50 L317.50,132.00 L320.00,133.50 L330.00,134.50 L333.50,136.00 L321.00,139.50 L319.50,142.00 L323.00,142.50 L324.00,143.50 L328.00,143.50 L332.50,146.00 L329.00,146.50 L328.00,147.50 L316.00,147.50 L315.00,146.50 L290.00,146.50 L289.00,147.50 L284.00,147.50 L283.00,146.50 L257.00,146.50 L256.00,147.50 L248.00,147.50 L247.00,146.50 L242.00,146.50 L242.00,145.50 L247.00,143.50 L256.00,142.50 L256.00,140.50 L226.00,140.50 L225.00,141.50 L222.00,141.50 L211.00,145.50 L209.50,147.00 L210.50,149.00 L208.00,150.50 L185.00,150.50 L184.00,149.50 L172.00,149.50 L171.00,150.50 L147.00,150.50 L144.50,149.00 L145.50,147.00 L143.00,144.50 L133.00,142.50 L132.00,141.50 L129.00,141.50 L128.00,140.50 L124.00,140.50 L123.00,139.50 L116.00,139.50 L115.50,137.00 L112.50,136.00 L112.00,132.50 L107.00,132.50 L103.00,130.50 L102.00,131.50 L97.00,131.50 L96.50,134.00 L93.50,136.00 L95.00,137.50 L98.00,137.50 L99.00,138.50 L109.00,138.50 L110.00,139.50 L114.50,140.00 L97.00,142.50 L94.50,144.00 L94.50,145.00 L96.50,146.00 L96.00,146.50 L32.00,146.50 L31.50,146.00 L33.50,145.00 L32.00,142.50 L26.00,141.50 L21.50,139.00 L34.00,136.50 L34.50,134.00 L31.00,132.50 L28.00,132.50 L27.00,131.50 L23.00,131.50 L20.50,130.00 L26.00,129.50 L27.00,128.50 L33.00,128.50 L36.50,127.00 L36.00,124.50 L31.00,122.50 L28.00,122.50 L25.50,121.00 L36.00,118.50 L38.50,116.00 L37.00,114.50 L30.00,112.50 L28.50,111.00 L32.00,109.50 L35.00,109.50 L38.50,107.00 L36.00,103.50 L34.00,103.50 L31.50,102.00 L33.00,100.50 L38.00,99.50 L40.50,97.00 L40.50,95.00 L35.50,91.00 L39.50,88.00 L39.50,83.00 L38.50,82.00 L38.50,80.00 L43.50,76.00 L43.50,72.00 L42.50,71.00 L42.50,68.00 L44.50,65.00 L44.50,60.00 L43.50,59.00 L43.50,57.00 L49.50,49.00 L49.50,44.00 L48.50,43.00 L52.50,34.00 L52.50,25.00 L56.50,17.00 L56.50,10.00 L55.50,9.00 L56.50,8.00 L56.50,6.00 L60.00,2.50Z M195.50,78.00 L206.00,77.50 L207.00,78.50 L211.00,78.50 L211.50,81.00 L209.00,84.50 L202.00,84.50 L201.00,83.50 L199.00,83.50 L198.50,81.00 L195.50,80.00Z M198.50,79.00 L204.00,78.50 L207.50,81.00 L207.50,83.00 L203.00,83.50 L201.00,82.50 L200.50,80.00Z M144.50,86.00 L151.00,85.50 L152.00,86.50 L154.00,86.50 L154.50,88.00 L156.00,89.50 L158.00,89.50 L158.50,91.00 L154.00,91.50 L153.00,92.50 L146.00,91.50 L143.50,90.00Z M146.50,87.00 L150.00,86.50 L154.50,90.00 L152.00,91.50 L151.00,90.50 L147.00,90.50Z M200.50,87.00 L204.00,86.50 L206.00,87.50 L208.00,90.50 L210.00,90.50 L210.50,92.00 L202.00,92.50 L201.00,91.50 L197.00,91.50 L196.50,90.00 L199.00,89.50Z M251.50,88.00 L253.00,87.50 L254.00,88.50 L259.00,89.50 L261.00,92.50 L264.50,93.00 L258.00,93.50 L257.00,94.50 L255.00,92.50 L250.00,92.50 L247.50,91.00 L250.00,90.50Z M203.50,89.00 L204.50,89.00 L205.00,91.50 L203.00,91.50 L201.50,90.00Z M145.50,97.00 L148.00,96.50 L149.00,97.50 L155.00,97.50 L157.00,98.50 L157.50,100.00 L148.00,100.50 L144.50,99.00Z M248.50,99.00 L254.00,98.50 L255.00,99.50 L261.00,99.50 L262.00,100.50 L265.00,100.50 L265.50,102.00 L260.00,103.50 L259.00,105.50 L257.00,105.50 L256.00,104.50 L253.00,104.50 L252.50,103.00 L250.00,101.50 L246.00,101.50 L245.50,100.00Z M249.50,100.00 L252.00,99.50 L253.00,100.50 L260.00,100.50 L261.50,102.00 L258.00,103.50 L254.00,103.50 L253.00,101.50Z M252.50,108.00 L256.00,107.50 L259.00,109.50 L259.50,111.00 L262.50,113.00 L262.50,114.00 L260.00,114.50 L259.00,113.50 L251.00,113.50 L249.50,111.00 L251.00,110.50Z M253.50,110.00 L256.00,109.50 L257.50,112.00 L253.00,112.50Z M99.50,133.00 L105.00,132.50 L107.00,134.50 L111.00,134.50 L111.50,137.00 L113.50,138.00 L100.00,137.50 L98.50,136.00 L99.50,135.00Z" fill="#000000" fill-rule="evenodd" stroke="none"/>
</svg>
