<svg xmlns="http://www.w3.org/2000/svg" viewBox="0 0 350 350">
  <path d="M160.50,9.00 L164.50,9.00 L159.00,10.50 L155.50,14.00 L165.00,24.50 L166.00,24.50 L167.50,21.00 L169.00,19.50 L169.50,20.00 L166.50,25.00 L167.00,29.50 L164.50,28.00 L164.50,25.00 L162.50,22.00 L155.00,14.50 L152.50,18.00 L151.00,19.50 L150.50,19.00 L153.50,15.00 L152.50,13.00 L153.00,12.50 L154.00,13.50Z M166.50,9.00 L169.00,8.50 L175.00,12.50 L179.00,9.50 L179.50,10.00 L175.50,13.00 L181.50,20.00 L181.00,20.50 L175.00,13.50 L170.00,18.50 L169.50,18.00 L172.50,15.00 L173.50,12.00Z M189.50,10.00 L191.00,9.50 L197.50,16.00 L197.00,16.50 L195.00,14.50 L184.50,26.00 L188.50,36.00 L188.00,38.50 L184.00,27.50 L180.50,35.00 L180.00,35.50 L179.50,34.00 L185.50,23.00 L189.50,19.00 L189.50,18.00 L194.50,14.00Z M142.50,11.00 L148.50,11.00 L143.00,11.50 L139.00,13.50 L135.50,17.00 L135.50,18.00 L140.00,20.50 L147.50,28.00 L153.50,37.00 L160.50,52.00 L159.00,55.50 L158.50,49.00 L152.50,37.00 L148.00,30.50 L146.50,31.00 L146.50,34.00 L145.50,34.00 L146.50,29.00 L140.00,21.50 L135.00,18.50 L131.50,24.00 L130.50,29.00 L129.50,29.00 L130.50,24.00 L133.50,19.00 L133.50,18.00 L131.50,17.00 L133.00,16.50 L134.00,17.50 L139.00,12.50Z M200.50,11.00 L206.50,11.00 L201.00,11.50 L197.00,13.50 L196.50,13.00 L198.00,11.50Z M207.50,12.00 L209.00,11.50 L211.00,12.50 L215.00,16.50 L218.00,16.50 L219.00,15.50 L226.00,15.50 L230.00,17.50 L235.00,23.50 L237.00,22.50 L243.50,23.00 L237.00,23.50 L235.00,25.50 L234.00,24.50 L229.00,27.50 L228.50,27.00 L230.00,25.50 L233.50,24.00 L232.50,21.00 L230.00,18.50 L226.00,16.50 L219.00,16.50 L218.00,17.50 L216.00,17.50 L216.00,19.50 L214.00,18.50 L211.00,20.50 L203.50,28.00 L204.50,35.00 L203.50,35.00 L203.50,32.00 L202.00,30.50 L196.00,39.50 L195.50,39.00 L197.50,35.00 L202.50,29.00 L201.50,26.00 L202.00,25.50 L203.00,27.50 L214.50,17.00 L211.00,13.50Z M119.50,18.00 L120.50,18.00 L116.50,22.00 L116.50,24.00 L123.00,27.50 L128.00,32.50 L128.50,31.00 L129.50,31.00 L130.50,35.00 L136.50,41.00 L142.50,51.00 L143.50,51.00 L143.50,43.00 L144.50,43.00 L144.50,55.00 L146.50,57.00 L149.50,64.00 L148.50,64.00 L145.00,56.50 L144.00,69.50 L143.50,53.00 L135.50,41.00 L120.00,26.50 L116.00,24.50 L114.50,27.00 L113.50,27.00 L114.50,25.00 L113.50,24.00 L115.00,23.50Z M197.50,18.00 L198.00,17.50 L199.50,19.00 L201.50,23.00 L201.00,24.50Z M181.50,22.00 L182.00,21.50 L183.50,23.00 L183.00,24.50Z M148.50,23.00 L149.00,22.50 L149.50,24.00 L148.00,26.50 L147.50,25.00Z M217.50,23.00 L218.50,23.00 L220.50,28.00 L220.00,31.50Z M103.50,24.00 L105.50,24.00 L102.00,25.50 L98.00,30.50 L98.50,28.00Z M244.50,24.00 L246.00,23.50 L248.00,24.50 L252.50,30.00 L253.50,33.00 L244.00,36.50 L238.50,41.00 L238.00,52.50 L237.00,41.50 L224.50,54.00 L221.50,58.00 L221.50,61.00 L221.00,61.50 L220.00,60.50 L218.50,62.00 L212.00,72.50 L211.50,72.00 L213.50,68.00 L220.50,59.00 L220.50,55.00 L221.00,54.50 L222.00,56.50 L223.50,54.00 L237.50,40.00 L237.50,34.00 L238.50,34.00 L239.00,39.50 L244.00,35.50 L252.50,32.00 L249.50,27.00Z M235.50,27.00 L236.50,27.00 L236.00,28.50Z M226.50,28.00 L227.50,28.00 L221.50,33.00 L221.50,37.00 L220.50,37.00 L220.00,34.50 L213.50,42.00 L208.00,50.50 L208.50,48.00 L216.50,37.00Z M112.50,29.00 L113.50,29.00 L113.00,31.50Z M163.50,30.00 L164.00,29.50 L164.50,31.00 L163.00,34.50 L162.50,32.00Z M236.50,30.00 L237.50,30.00 L237.00,32.50Z M96.50,32.00 L97.00,31.50 L101.50,34.00 L100.00,34.50 L99.00,33.50 L97.00,33.50 L96.00,36.50 L95.50,33.00Z M111.50,33.00 L112.50,33.00 L112.00,38.50Z M85.50,34.00 L86.50,34.00 L83.50,36.00 L80.50,41.00 L80.50,43.00 L83.50,44.00 L79.50,45.00 L79.00,56.50 L78.50,44.00 L82.50,36.00Z M263.50,34.00 L264.00,33.50 L268.50,38.00 L268.00,38.50Z M169.50,35.00 L170.00,34.50 L171.50,37.00 L171.00,38.50Z M253.50,35.00 L254.50,35.00 L254.00,38.50Z M144.50,36.00 L145.50,36.00 L145.00,40.50Z M161.50,36.00 L162.50,36.00 L162.00,37.50Z M106.50,37.00 L109.00,37.50 L113.00,40.50 L125.50,53.00 L135.50,67.00 L136.00,69.50 L130.00,60.50 L129.50,63.00 L128.50,63.00 L128.50,58.00 L124.50,54.00 L124.50,53.00 L113.00,41.50Z M178.50,37.00 L179.00,36.50 L179.50,38.00 L178.00,40.50 L177.50,39.00Z M204.50,37.00 L205.50,37.00 L205.00,42.50Z M127.50,38.00 L128.50,38.00 L128.00,54.50Z M94.50,39.00 L95.50,39.00 L95.50,49.00 L104.00,54.50 L111.00,61.50 L113.00,62.50 L114.00,61.50 L114.50,62.00 L115.50,66.00 L126.50,78.00 L128.50,82.00 L133.50,88.00 L134.00,90.50 L121.50,73.00 L116.00,67.50 L115.00,68.50 L114.50,66.00 L104.00,55.50 L97.00,50.50 L95.00,51.50 L93.00,48.50 L84.50,45.00 L87.00,44.50 L94.00,48.50Z M160.50,39.00 L161.50,39.00 L161.00,42.50Z M171.50,40.00 L172.50,40.00 L172.00,41.50Z M188.50,40.00 L189.50,40.00 L189.00,43.50Z M268.50,40.00 L269.00,39.50 L270.50,42.00 L270.00,44.50 L266.50,44.00 L269.50,43.00Z M221.50,41.00 L222.50,41.00 L222.00,51.50Z M254.50,41.00 L255.50,41.00 L255.50,49.00 L241.00,59.50 L235.50,65.00 L235.50,67.00 L233.50,67.00 L234.50,69.00 L233.50,74.00 L232.50,74.00 L232.50,72.00 L233.50,71.00 L233.00,68.50 L227.50,74.00 L219.00,85.50 L218.50,85.00 L222.50,79.00 L235.50,64.00 L235.50,60.00 L236.50,60.00 L237.00,62.50 L247.00,53.50 L254.50,49.00Z M176.50,42.00 L177.50,42.00 L177.00,43.50Z M172.50,43.00 L173.50,43.00 L173.00,44.50Z M159.50,44.00 L160.50,44.00 L160.00,47.50Z M273.50,44.00 L277.00,43.50 L281.00,45.50 L284.50,50.00 L284.00,50.50 L281.00,46.50 L277.00,44.50Z M70.50,45.00 L71.50,45.00 L66.50,49.00 L65.00,52.50 L64.50,51.00 L65.50,49.00Z M175.50,45.00 L176.50,45.00 L176.00,46.50Z M189.50,45.00 L190.50,45.00 L191.00,48.50 L191.50,47.00 L192.50,47.00 L191.50,49.00 L191.00,57.50 L190.50,54.00 L190.00,53.50 L189.50,55.00 L188.50,55.00 L190.50,50.00 L189.50,49.00Z M205.50,45.00 L206.50,45.00 L206.50,51.00 L207.50,52.00 L206.50,53.00 L206.50,66.00 L205.50,66.00 L205.00,56.50 L199.00,68.50 L198.50,67.00 L205.50,54.00Z M262.50,45.00 L265.50,45.00 L262.00,46.50 L260.50,46.00Z M173.50,46.00 L174.00,45.50 L175.50,48.00 L175.50,51.00 L174.00,54.50 L173.50,52.00 L174.50,51.00 L174.50,48.00Z M270.50,46.00 L271.50,46.00 L271.00,54.50Z M111.50,47.00 L112.50,47.00 L112.00,54.50Z M253.50,52.00 L254.50,52.00 L254.00,56.50Z M284.50,52.00 L285.50,52.00 L285.00,53.50Z M175.50,53.00 L176.50,53.00 L176.00,55.50Z M63.50,54.00 L64.50,54.00 L65.00,56.50 L71.50,57.00 L64.50,58.00 L64.00,65.50 L63.50,58.00 L59.50,57.00 L63.00,56.50Z M95.50,54.00 L96.50,54.00 L96.00,57.50Z M160.50,55.00 L161.00,54.50 L162.50,57.00 L162.50,59.00 L163.50,60.00 L163.00,62.50Z M236.50,55.00 L237.50,55.00 L237.00,58.50Z M285.50,55.00 L286.00,54.50 L287.00,56.50 L290.50,57.00 L286.50,58.00 L286.00,64.50 L285.50,58.00 L278.50,57.00 L285.00,56.50Z M112.50,56.00 L113.50,56.00 L113.00,60.50Z M172.50,56.00 L173.50,56.00 L173.00,59.50Z M176.50,57.00 L177.50,57.00 L177.00,60.50Z M187.50,57.00 L188.50,57.00 L188.00,58.50Z M269.50,57.00 L270.50,57.00 L271.00,59.50 L275.00,57.50 L277.50,58.00 L270.00,60.50Z M56.50,58.00 L58.50,58.00 L55.00,59.50 L52.50,62.00 L51.00,65.50 L50.50,64.00 L51.50,62.00Z M72.50,58.00 L75.00,57.50 L77.50,59.00 L76.00,59.50Z M79.50,58.00 L80.50,58.00 L81.00,60.50 L88.00,63.50 L89.50,65.00 L89.00,65.50 L82.00,61.50 L80.00,61.50 L78.50,60.00Z M157.50,58.00 L158.50,58.00 L158.50,85.00 L157.50,86.00 L159.50,88.00 L159.50,93.00 L161.50,98.00 L161.50,101.00 L160.00,102.50 L158.50,90.00 L156.50,86.00 L156.50,84.00 L157.50,83.00Z M252.50,58.00 L253.50,58.00 L253.00,60.50Z M291.50,58.00 L293.00,57.50 L296.00,59.50 L298.50,63.00 L298.00,63.50Z M96.50,59.00 L97.50,59.00 L97.00,61.50Z M186.50,60.00 L187.50,60.00 L187.00,61.50Z M171.50,61.00 L172.50,61.00 L172.00,65.50Z M191.50,61.00 L192.50,61.00 L192.00,81.50Z M267.50,61.00 L268.00,60.50 L269.50,62.00 L269.00,64.50Z M177.50,62.00 L178.50,62.00 L178.00,66.50Z M251.50,62.00 L252.50,62.00 L252.00,64.50Z M80.50,63.00 L81.50,63.00 L81.00,65.50Z M97.50,63.00 L98.50,63.00 L98.50,65.00 L99.50,66.00 L99.00,68.50Z M185.50,63.00 L186.50,63.00 L186.00,64.50Z M263.50,63.00 L264.50,63.00 L263.00,64.50 L254.00,69.50 L250.00,72.50 L248.00,75.50 L246.50,76.00 L247.50,78.00 L245.00,82.50 L244.50,81.00 L246.50,78.00 L246.50,77.00 L245.00,76.50 L229.50,92.00 L229.50,93.00 L221.50,102.00 L217.50,110.00 L214.50,112.00 L215.50,113.00 L211.00,119.50 L209.50,118.00 L210.50,116.00 L220.50,103.00 L221.50,100.00 L223.50,99.00 L222.50,98.00 L224.50,97.00 L223.50,96.00 L224.00,95.50 L225.00,96.50 L228.50,93.00 L228.50,92.00 L248.50,73.00 L249.00,71.50 L251.00,71.50 L254.00,68.50Z M163.50,64.00 L164.50,64.00 L164.00,65.50Z M219.50,64.00 L220.50,64.00 L220.00,67.50Z M129.50,65.00 L130.50,65.00 L130.00,69.50Z M298.50,65.00 L299.50,65.00 L299.00,66.50Z M90.50,66.00 L93.00,66.50 L95.50,69.00 L95.00,69.50Z M184.50,66.00 L185.50,66.00 L185.00,68.50Z M250.50,66.00 L251.50,66.00 L251.00,67.50Z M267.50,66.00 L268.50,66.00 L268.00,67.50Z M284.50,66.00 L285.50,66.00 L285.00,68.50Z M49.50,67.00 L50.50,67.00 L51.00,70.50 L58.50,71.00 L51.00,71.50 L50.00,75.50 L49.50,73.00 L46.50,72.00 L49.50,71.00Z M64.50,67.00 L65.50,67.00 L65.00,69.50Z M81.50,67.00 L82.50,67.00 L82.00,68.50Z M164.50,67.00 L165.50,67.00 L165.00,69.50Z M170.50,67.00 L171.50,67.00 L171.00,72.50Z M150.50,68.00 L151.00,67.50 L152.50,70.00 L152.00,71.50Z M299.50,68.00 L300.50,68.00 L301.00,71.50 L303.00,71.50 L307.00,73.50 L310.50,77.00 L311.50,79.00 L311.00,80.50 L309.50,77.00 L307.00,74.50 L303.00,72.50 L301.00,72.50 L300.00,74.50 L299.00,71.50 L291.50,71.00 L299.00,70.50Z M178.50,69.00 L179.50,69.00 L179.00,75.50Z M204.50,69.00 L205.50,69.00 L205.00,75.50Z M218.50,69.00 L219.50,69.00 L219.00,72.50Z M249.50,69.00 L250.50,69.00 L250.00,70.50Z M266.50,69.00 L267.50,69.00 L267.00,70.50Z M82.50,70.00 L83.00,69.50 L84.50,72.00 L84.00,73.50Z M96.50,70.00 L97.00,69.50 L99.00,71.50 L100.00,69.50 L101.50,73.00 L106.00,77.50 L107.00,77.50 L124.00,95.50 L124.50,94.00 L123.50,92.00 L124.50,92.00 L129.50,103.00 L140.50,118.00 L141.50,120.00 L140.00,121.50 L135.50,115.00 L136.50,114.00 L133.50,112.00 L131.50,107.00 L124.50,97.00 L107.00,78.50 L104.00,76.50 L103.00,78.50 L100.50,74.00 L100.50,72.00 L100.00,71.50 L99.00,72.50Z M115.50,70.00 L116.50,70.00 L116.50,72.00 L119.50,79.00 L119.00,80.50 L117.50,78.00Z M183.50,70.00 L184.50,70.00 L184.00,72.50Z M197.50,70.00 L198.00,69.50 L198.50,71.00 L197.00,73.50 L196.50,72.00Z M283.50,70.00 L284.50,70.00 L285.00,72.50 L286.00,71.50 L289.50,72.00 L286.00,72.50 L283.00,74.50 L282.50,73.00 L283.50,72.00Z M65.50,71.00 L66.00,70.50 L67.50,73.00 L67.00,75.50 L66.50,74.00 L64.50,73.00Z M130.50,71.00 L131.50,71.00 L131.00,73.50Z M136.50,71.00 L137.00,70.50 L138.50,72.00 L140.50,76.00 L140.00,76.50Z M165.50,71.00 L166.50,71.00 L166.00,73.50Z M144.50,72.00 L145.50,72.00 L145.00,77.50Z M265.50,72.00 L266.00,71.50 L266.50,73.00 L264.00,77.50 L263.50,76.00Z M152.50,73.00 L153.00,72.50 L154.50,75.00 L154.50,77.00 L155.50,78.00 L155.00,79.50Z M42.50,74.00 L43.50,74.00 L39.00,79.50 L38.50,78.00Z M182.50,74.00 L183.50,74.00 L183.00,76.50Z M210.50,74.00 L211.50,74.00 L202.50,91.00 L199.50,103.00 L197.50,104.00 L198.50,105.00 L198.50,107.00 L197.50,108.00 L194.50,119.00 L193.50,121.00 L192.00,121.50 L191.50,120.00 L193.50,119.00 L192.50,118.00 L193.50,113.00 L195.50,113.00 L194.50,110.00 L196.50,110.00 L195.50,107.00 L197.50,107.00 L196.50,104.00 L199.50,98.00 L199.50,96.00 L201.50,92.00 L201.50,89.00 L203.50,88.00 L202.50,87.00 L202.50,84.00 L203.00,83.50 L203.50,86.00 L204.50,86.00Z M217.50,74.00 L218.50,74.00 L218.00,76.50Z M71.50,75.00 L73.00,74.50 L75.50,76.00 L74.00,76.50Z M84.50,75.00 L85.50,75.00 L88.50,82.00 L97.50,89.00 L97.00,89.50 L92.00,85.50 L90.50,86.00 L105.50,108.00 L114.00,117.50 L121.00,122.50 L142.00,143.50 L143.00,143.50 L146.50,147.00 L145.50,148.00 L148.50,152.00 L154.00,156.50 L155.50,156.00 L154.50,154.00 L147.50,148.00 L148.00,147.50 L150.00,149.50 L151.50,149.00 L145.50,140.00 L128.50,121.00 L125.50,117.00 L126.50,116.00 L125.00,115.50 L108.00,97.50 L102.00,93.50 L98.50,90.00 L99.00,89.50 L107.00,96.50 L108.00,96.50 L115.00,103.50 L115.50,102.00 L114.50,101.00 L115.00,100.50 L116.50,102.00 L120.50,109.00 L135.50,125.00 L144.50,138.00 L151.00,144.50 L154.00,146.50 L155.00,145.50 L156.50,149.00 L160.00,152.50 L160.50,150.00 L159.50,148.00 L154.00,141.50 L153.00,142.50 L152.50,142.00 L153.50,140.00 L151.50,140.00 L152.50,139.00 L150.50,138.00 L149.50,135.00 L142.50,126.00 L143.50,125.00 L140.50,123.00 L142.00,121.50 L143.50,123.00 L144.50,125.00 L143.50,126.00 L146.50,128.00 L150.50,136.00 L158.00,144.50 L159.00,143.50 L159.50,144.00 L158.50,146.00 L160.00,146.50 L163.00,150.50 L163.50,150.00 L162.50,145.00 L160.50,143.00 L159.50,140.00 L158.00,138.50 L157.00,139.50 L156.50,139.00 L157.50,137.00 L155.50,136.00 L154.50,132.00 L145.50,116.00 L147.00,113.50 L146.50,116.00 L148.50,116.00 L151.50,122.00 L150.50,124.00 L152.50,125.00 L153.50,129.00 L156.50,135.00 L160.50,140.00 L161.50,143.00 L162.00,143.50 L162.50,142.00 L163.50,142.00 L163.50,146.00 L166.00,149.50 L166.50,144.00 L163.50,138.00 L164.50,138.00 L166.00,141.50 L166.50,136.00 L167.50,134.00 L168.50,134.00 L169.50,139.00 L169.00,139.50 L168.50,137.00 L167.50,137.00 L167.50,145.00 L172.00,153.50 L172.50,149.00 L170.50,148.00 L170.50,143.00 L169.50,141.00 L170.50,139.00 L171.50,139.00 L171.50,145.00 L173.00,148.50 L174.50,146.00 L174.50,142.00 L173.50,141.00 L173.50,138.00 L174.50,138.00 L175.50,146.00 L173.50,151.00 L176.00,156.50 L176.50,153.00 L175.50,152.00 L175.50,148.00 L176.00,147.50 L177.50,149.00 L176.50,151.00 L178.00,152.50 L178.50,152.00 L178.50,148.00 L177.50,147.00 L178.50,143.00 L179.50,143.00 L179.50,149.00 L180.50,150.00 L177.50,155.00 L179.00,155.50 L179.50,154.00 L181.50,153.00 L181.50,150.00 L182.00,149.50 L183.00,150.50 L186.50,145.00 L186.50,140.00 L187.50,140.00 L188.00,142.50 L195.00,131.50 L195.50,133.00 L191.50,143.00 L192.00,144.50 L198.50,137.00 L202.50,131.00 L205.50,124.00 L209.00,119.50 L210.50,121.00 L209.50,123.00 L200.50,135.00 L195.50,145.00 L196.00,146.50 L207.50,135.00 L213.50,126.00 L230.50,107.00 L241.00,89.50 L241.50,90.00 L238.50,96.00 L234.50,102.00 L236.00,102.50 L248.00,91.50 L255.00,86.50 L255.50,87.00 L244.00,96.50 L243.00,96.50 L229.50,109.00 L220.50,122.00 L205.50,138.00 L199.50,147.00 L198.50,149.00 L200.00,149.50 L208.00,142.50 L209.00,142.50 L242.50,110.00 L257.50,89.00 L258.50,86.00 L256.50,86.00 L262.00,82.50 L262.00,80.50 L263.50,82.00 L260.50,84.00 L258.50,89.00 L250.50,101.00 L243.50,109.00 L243.50,110.00 L245.00,110.50 L251.00,105.50 L253.50,105.00 L241.00,113.50 L221.00,133.50 L213.00,139.50 L201.50,152.00 L203.00,152.50 L212.00,147.50 L228.00,134.50 L234.00,130.50 L235.00,131.50 L237.00,128.50 L238.00,129.50 L240.00,126.50 L244.00,124.50 L263.50,105.00 L263.50,104.00 L268.00,99.50 L268.50,100.00 L249.50,120.00 L251.00,120.50 L252.00,119.50 L252.50,120.00 L251.00,121.50 L243.00,125.50 L238.00,130.50 L226.00,139.50 L217.00,145.50 L214.00,146.50 L203.50,156.00 L205.00,156.50 L207.00,155.50 L207.00,156.50 L205.00,157.50 L203.00,156.50 L202.50,158.00 L197.50,162.00 L198.50,163.00 L196.00,163.50 L194.50,165.00 L197.00,165.50 L199.00,164.50 L200.50,163.00 L199.50,162.00 L200.00,161.50 L203.00,161.50 L209.00,156.50 L209.50,157.00 L205.50,160.00 L207.50,161.00 L202.00,162.50 L199.50,165.00 L200.00,165.50 L202.00,166.50 L204.00,164.50 L211.00,161.50 L211.50,161.00 L209.00,160.50 L209.00,159.50 L214.00,158.50 L214.50,160.00 L212.00,159.50 L211.50,160.00 L212.50,161.00 L207.50,164.00 L210.00,164.50 L210.00,165.50 L204.00,165.50 L201.00,167.50 L201.00,168.50 L206.00,168.50 L207.00,167.50 L209.00,168.50 L225.00,168.50 L226.00,167.50 L230.00,167.50 L231.00,166.50 L235.00,166.50 L237.50,168.00 L227.00,168.50 L226.00,169.50 L220.00,169.50 L219.00,170.50 L216.00,170.50 L215.00,169.50 L205.00,169.50 L204.00,170.50 L202.00,169.50 L198.00,169.50 L196.00,171.50 L193.50,172.00 L195.00,173.50 L201.00,170.50 L202.50,172.00 L198.00,172.50 L198.00,174.50 L200.00,174.50 L204.00,172.50 L207.00,172.50 L208.00,171.50 L210.50,172.00 L208.00,173.50 L204.00,173.50 L200.00,175.50 L198.00,175.50 L197.00,174.50 L193.50,175.00 L196.00,175.50 L198.00,177.50 L200.00,177.50 L205.00,180.50 L216.00,180.50 L217.00,179.50 L220.00,179.50 L221.00,180.50 L229.00,180.50 L230.50,182.00 L210.00,181.50 L210.00,182.50 L212.00,182.50 L214.50,184.00 L212.00,185.50 L208.00,185.50 L207.00,186.50 L204.00,184.50 L199.50,185.00 L204.00,187.50 L205.00,189.50 L206.00,188.50 L208.00,188.50 L208.50,189.00 L206.50,190.00 L218.00,198.50 L222.00,199.50 L230.00,203.50 L231.50,205.00 L230.00,206.50 L221.00,201.50 L219.00,199.50 L212.00,196.50 L211.00,194.50 L209.00,195.50 L206.00,193.50 L204.50,194.00 L212.00,201.50 L219.00,206.50 L222.00,207.50 L225.00,211.50 L226.00,210.50 L245.00,225.50 L248.00,226.50 L249.50,228.00 L248.50,229.00 L250.00,230.50 L251.50,230.00 L250.50,229.00 L251.00,228.50 L265.00,235.50 L265.50,236.00 L264.00,236.50 L253.00,230.50 L251.50,231.00 L266.50,247.00 L272.50,256.00 L275.00,255.50 L277.50,257.00 L273.50,257.00 L278.50,265.00 L278.00,265.50 L276.50,264.00 L275.50,261.00 L271.00,254.50 L269.00,254.50 L263.50,251.00 L264.00,250.50 L267.00,252.50 L268.00,252.50 L268.50,251.00 L252.00,232.50 L251.00,232.50 L243.00,224.50 L234.00,219.50 L231.00,215.50 L230.00,216.50 L214.00,203.50 L206.00,199.50 L204.50,198.00 L207.50,198.00 L202.00,192.50 L197.00,190.50 L197.50,193.00 L203.50,197.00 L203.00,197.50 L202.00,196.50 L201.50,198.00 L207.50,204.00 L207.50,205.00 L218.00,214.50 L219.00,214.50 L240.00,235.50 L243.50,238.00 L242.50,239.00 L251.50,250.00 L256.50,258.00 L256.00,258.50 L254.50,257.00 L250.50,250.00 L238.50,236.00 L238.50,235.00 L230.00,227.50 L229.00,227.50 L207.00,205.50 L199.50,200.00 L200.00,199.50 L202.00,201.50 L203.50,201.00 L198.00,194.50 L196.00,193.50 L194.50,194.00 L198.50,199.00 L198.50,201.00 L199.50,202.00 L199.00,202.50 L193.00,195.50 L191.50,196.00 L193.50,200.00 L197.00,203.50 L199.00,204.50 L200.00,203.50 L201.50,205.00 L200.50,206.00 L203.50,208.00 L208.50,215.00 L216.50,223.00 L227.50,238.00 L241.00,251.50 L242.00,251.50 L255.00,262.50 L258.00,264.50 L260.00,264.50 L263.00,267.50 L268.00,269.50 L269.50,271.00 L269.00,271.50 L264.00,268.50 L262.50,269.00 L263.50,270.00 L263.00,271.50 L261.50,268.00 L259.00,265.50 L247.00,257.50 L234.00,245.50 L233.00,246.50 L231.50,245.00 L232.50,244.00 L229.50,242.00 L229.50,241.00 L214.50,225.00 L211.50,221.00 L212.50,220.00 L211.00,219.50 L205.50,212.00 L196.00,203.50 L195.50,205.00 L200.50,215.00 L213.50,233.00 L221.50,248.00 L231.50,259.00 L231.50,260.00 L243.00,271.50 L246.00,273.50 L246.50,272.00 L245.50,270.00 L246.50,270.00 L248.50,274.00 L248.50,276.00 L256.50,282.00 L256.00,282.50 L253.00,280.50 L250.00,277.50 L249.00,278.50 L248.50,277.00 L244.00,272.50 L243.00,272.50 L225.00,253.50 L224.00,254.50 L223.50,254.00 L220.50,247.00 L217.50,244.00 L207.50,229.00 L201.50,217.00 L192.00,205.50 L191.50,207.00 L192.50,208.00 L194.50,216.00 L199.50,225.00 L198.50,226.00 L200.00,226.50 L200.50,227.00 L199.50,228.00 L201.50,229.00 L200.00,230.50 L199.50,230.00 L197.50,226.00 L197.50,224.00 L195.50,221.00 L195.50,219.00 L192.50,215.00 L191.50,212.00 L188.00,207.50 L187.50,209.00 L186.50,209.00 L186.50,205.00 L184.50,202.00 L186.50,199.00 L184.50,198.00 L183.00,194.50 L182.50,198.00 L184.50,200.00 L184.00,200.50 L183.00,199.50 L181.50,202.00 L185.50,210.00 L185.00,210.50 L184.50,209.00 L183.50,209.00 L183.50,216.00 L181.50,216.00 L182.50,214.00 L182.50,205.00 L180.00,200.50 L179.50,207.00 L178.50,207.00 L178.50,205.00 L177.50,204.00 L178.50,202.00 L178.50,198.00 L179.00,197.50 L180.50,200.00 L181.50,200.00 L181.50,197.00 L179.50,196.00 L179.00,193.50 L177.50,195.00 L178.50,196.00 L176.50,199.00 L177.50,201.00 L176.00,202.50 L175.50,202.00 L175.00,196.50 L173.50,199.00 L175.50,204.00 L174.50,212.00 L173.50,212.00 L174.50,204.00 L173.00,201.50 L171.50,204.00 L171.50,210.00 L171.00,210.50 L169.50,209.00 L170.50,207.00 L170.50,202.00 L172.50,201.00 L172.50,197.00 L171.50,197.00 L167.50,205.00 L167.50,213.00 L168.50,214.00 L168.50,216.00 L166.50,220.00 L165.50,231.00 L163.50,231.00 L163.50,228.00 L165.50,223.00 L165.50,217.00 L167.50,216.00 L166.50,214.00 L166.50,209.00 L165.50,209.00 L163.00,214.50 L161.50,213.00 L161.50,210.00 L162.50,210.00 L163.00,212.50 L166.50,206.00 L166.00,200.50 L163.50,204.00 L163.50,208.00 L163.00,208.50 L162.50,207.00 L161.50,207.00 L158.50,213.00 L156.50,215.00 L152.50,223.00 L151.50,227.00 L149.50,228.00 L150.50,230.00 L146.50,238.00 L144.50,238.00 L145.50,240.00 L145.00,240.50 L143.50,238.00 L151.50,222.00 L154.50,218.00 L154.50,216.00 L157.50,209.00 L157.00,206.50 L149.50,215.00 L147.50,220.00 L144.50,222.00 L145.50,223.00 L139.50,233.00 L138.00,234.50 L136.50,233.00 L143.50,222.00 L148.50,216.00 L154.50,204.00 L154.00,202.50 L143.50,213.00 L133.50,227.00 L120.50,241.00 L114.50,250.00 L113.50,253.00 L111.50,255.00 L103.00,272.50 L102.50,271.00 L115.50,247.00 L115.00,246.50 L104.00,256.50 L100.00,259.50 L99.50,259.00 L109.00,250.50 L110.00,250.50 L121.50,239.00 L131.50,225.00 L145.50,210.00 L149.50,203.00 L151.00,201.50 L151.00,204.50 L157.00,198.50 L158.50,198.00 L157.00,195.50 L155.00,196.50 L152.00,200.50 L151.00,199.50 L149.00,201.50 L148.50,201.00 L154.50,196.00 L155.50,192.00 L157.00,191.50 L158.50,189.00 L157.00,187.50 L153.50,192.00 L154.50,193.00 L154.00,193.50 L153.00,192.50 L147.50,199.00 L146.50,201.00 L147.50,202.00 L145.00,204.50 L144.00,203.50 L143.50,205.00 L123.00,225.50 L115.00,231.50 L105.00,242.50 L104.50,242.00 L107.50,239.00 L107.00,238.50 L101.00,242.50 L100.50,242.00 L111.00,234.50 L132.00,213.50 L133.00,213.50 L146.50,200.00 L147.50,198.00 L146.00,197.50 L142.00,200.50 L137.00,202.50 L120.00,216.50 L102.00,228.50 L83.50,248.00 L80.50,252.00 L80.50,254.00 L79.00,254.50 L75.50,259.00 L68.00,273.50 L67.50,272.00 L71.50,264.00 L76.50,257.00 L72.50,257.00 L79.50,253.00 L87.50,242.00 L99.50,230.00 L98.50,229.00 L100.00,227.50 L105.00,225.50 L122.00,211.50 L135.00,203.50 L145.50,194.00 L144.00,193.50 L142.00,194.50 L142.00,193.50 L144.00,192.50 L146.00,193.50 L146.50,192.00 L151.50,188.00 L149.00,186.50 L148.00,188.50 L145.00,189.50 L141.00,192.50 L139.50,194.00 L140.50,195.00 L140.00,195.50 L132.00,198.50 L125.00,203.50 L124.00,202.50 L122.00,205.50 L118.00,207.50 L116.00,206.50 L115.50,207.00 L116.50,208.00 L115.00,209.50 L103.00,215.50 L101.00,215.50 L96.00,219.50 L94.50,218.00 L95.00,217.50 L99.00,216.50 L101.00,214.50 L104.00,213.50 L113.00,207.50 L115.00,208.50 L115.50,208.00 L114.50,207.00 L116.00,205.50 L135.00,196.50 L143.50,190.00 L142.00,189.50 L142.00,188.50 L145.00,188.50 L150.50,185.00 L146.00,184.50 L141.00,187.50 L141.00,185.50 L138.00,185.50 L136.00,184.50 L136.00,183.50 L139.00,182.50 L139.50,183.00 L138.00,183.50 L138.00,184.50 L145.00,184.50 L147.00,183.50 L148.50,182.00 L148.00,181.50 L143.00,181.50 L142.00,182.50 L140.00,181.50 L124.00,181.50 L123.00,182.50 L120.00,182.50 L119.50,181.00 L129.00,180.50 L130.00,179.50 L132.00,179.50 L133.00,180.50 L145.00,180.50 L154.00,175.50 L155.50,176.00 L153.50,177.00 L154.00,178.50 L158.50,176.00 L156.00,174.50 L153.00,174.50 L152.00,175.50 L149.00,175.50 L147.00,177.50 L142.00,177.50 L141.00,178.50 L139.00,178.50 L139.00,177.50 L148.50,175.00 L146.00,173.50 L141.00,173.50 L139.50,172.00 L140.00,171.50 L152.00,174.50 L152.00,172.50 L147.50,172.00 L149.00,170.50 L155.00,173.50 L155.50,172.00 L152.00,169.50 L148.00,169.50 L147.00,170.50 L145.00,169.50 L135.00,169.50 L135.00,170.50 L138.50,171.00 L135.00,171.50 L130.00,169.50 L111.50,168.00 L115.00,166.50 L119.00,166.50 L120.00,167.50 L124.00,167.50 L125.00,168.50 L140.00,168.50 L140.50,168.00 L139.00,167.50 L139.00,166.50 L143.00,168.50 L149.50,168.00 L145.00,165.50 L140.00,165.50 L139.50,165.00 L142.00,164.50 L142.00,163.50 L128.00,156.50 L123.00,155.50 L122.00,153.50 L120.00,154.50 L115.00,152.50 L115.00,150.50 L113.00,151.50 L110.00,150.50 L109.50,150.00 L111.00,148.50 L119.00,151.50 L120.00,153.50 L122.00,152.50 L131.00,157.50 L134.00,157.50 L135.00,159.50 L137.00,158.50 L137.00,160.50 L141.00,159.50 L141.00,160.50 L138.50,161.00 L142.00,162.50 L144.00,164.50 L146.00,164.50 L148.00,166.50 L150.50,165.00 L149.00,163.50 L146.00,161.50 L143.00,161.50 L142.50,161.00 L143.50,160.00 L141.00,157.50 L132.00,151.50 L127.00,149.50 L127.00,147.50 L131.00,150.50 L136.00,152.50 L137.00,154.50 L138.00,153.50 L139.00,155.50 L140.00,154.50 L143.00,155.50 L143.50,156.00 L141.50,157.00 L147.00,161.50 L149.00,161.50 L150.00,163.50 L151.50,162.00 L148.00,158.50 L145.00,157.50 L144.50,157.00 L145.50,156.00 L138.00,148.50 L121.00,137.50 L109.00,127.50 L104.00,124.50 L102.00,121.50 L101.00,122.50 L82.50,113.00 L84.00,112.50 L97.00,119.50 L98.50,119.00 L83.50,103.00 L80.50,99.00 L81.00,98.50 L92.50,111.00 L92.50,112.00 L107.00,125.50 L110.00,126.50 L119.00,132.50 L136.00,146.50 L147.00,152.50 L147.50,152.00 L142.50,145.00 L132.00,135.50 L131.00,135.50 L110.00,114.50 L89.00,100.50 L81.00,96.50 L80.00,97.50 L75.50,94.00 L76.50,93.00 L73.50,89.00 L73.00,86.50 L76.50,92.00 L80.00,95.50 L89.00,99.50 L105.00,110.50 L106.50,110.00 L98.50,100.00 L89.50,85.00 L84.50,81.00 L87.50,81.00Z M131.50,75.00 L132.50,75.00 L132.00,77.50Z M166.50,75.00 L167.50,75.00 L167.00,77.50Z M195.50,75.00 L196.00,74.50 L196.50,76.00 L195.50,77.00 L195.50,79.00 L191.50,89.00 L191.50,92.00 L190.50,93.00 L190.50,100.00 L188.50,101.00 L189.50,102.00 L189.00,106.50 L187.50,104.00 L187.50,101.00 L188.50,100.00 L188.50,97.00 L190.50,92.00 L190.50,85.00 L192.50,85.00Z M276.50,75.00 L278.00,74.50 L278.00,75.50 L276.00,76.50 L274.50,76.00Z M169.50,76.00 L170.50,76.00 L170.50,87.00 L169.00,89.50 L168.50,85.00 L169.50,84.00Z M231.50,76.00 L232.50,76.00 L232.00,77.50Z M281.50,76.00 L282.00,75.50 L282.50,77.00 L277.50,87.00 L274.00,91.50 L273.50,91.00 L276.50,87.00Z M298.50,76.00 L299.50,76.00 L299.00,78.50Z M50.50,77.00 L51.50,77.00 L51.00,79.50Z M271.50,77.00 L273.00,76.50 L273.00,77.50 L265.00,81.50 L264.50,81.00Z M78.50,78.00 L80.00,77.50 L81.50,79.00 L81.00,79.50Z M140.50,78.00 L141.00,77.50 L142.50,79.00 L144.50,83.00 L144.00,84.50Z M179.50,78.00 L180.50,78.00 L180.50,82.00 L181.50,83.00 L181.50,87.00 L180.50,88.00 L180.00,110.50 L179.50,105.00 L178.50,104.00 L178.50,97.00 L179.50,96.00Z M181.50,78.00 L182.50,78.00 L182.00,81.50Z M203.50,78.00 L204.50,78.00 L204.00,81.50Z M216.50,78.00 L217.50,78.00 L217.00,80.50Z M68.50,79.00 L69.50,79.00 L72.50,85.00 L72.00,85.50 L70.50,84.00Z M132.50,79.00 L133.50,79.00 L133.00,81.50Z M145.50,79.00 L146.50,79.00 L146.00,83.50Z M167.50,79.00 L168.50,79.00 L168.00,83.50Z M230.50,79.00 L231.00,78.50 L231.50,80.00 L230.00,82.50 L229.50,81.00Z M103.50,80.00 L104.50,80.00 L111.50,94.00 L111.00,94.50 L109.50,93.00Z M297.50,80.00 L298.50,80.00 L298.50,82.00 L296.50,85.00 L297.00,86.50 L309.50,87.00 L296.00,87.50 L289.50,98.00 L282.50,106.00 L284.00,106.50 L284.00,107.50 L282.00,107.50 L266.00,122.50 L260.00,126.50 L257.50,129.00 L259.00,129.50 L259.00,130.50 L257.00,131.50 L255.00,130.50 L254.00,132.50 L247.00,135.50 L238.00,141.50 L236.50,140.00 L237.00,139.50 L238.00,140.50 L240.00,137.50 L250.00,133.50 L266.00,121.50 L278.50,110.00 L278.50,108.00 L285.50,102.00 L292.50,92.00 L293.50,89.00 L290.50,88.00 L294.00,87.50 L295.50,86.00 L297.50,82.00Z M37.50,81.00 L38.50,81.00 L38.50,87.00 L39.50,88.00 L38.50,90.00 L40.50,95.00 L39.50,95.00 L37.00,88.50 L33.00,90.50 L29.50,94.00 L28.00,98.50 L27.50,96.00 L28.50,94.00 L33.00,89.50 L37.50,87.00Z M51.50,81.00 L52.50,81.00 L52.00,82.50Z M155.50,81.00 L156.50,81.00 L156.00,82.50Z M119.50,82.00 L120.50,82.00 L120.00,83.50Z M215.50,82.00 L216.50,82.00 L216.00,84.50Z M311.50,82.00 L312.50,82.00 L312.50,87.00 L317.00,89.50 L320.50,93.00 L320.00,93.50 L317.00,90.50 L313.00,88.50 L312.00,89.50 L310.50,88.00 L311.50,87.00Z M133.50,83.00 L134.50,83.00 L134.50,85.00 L135.50,86.00 L135.00,88.50Z M52.50,84.00 L53.50,84.00 L55.00,87.50 L59.50,88.00 L56.00,88.50 L56.00,90.50 L54.00,87.50 L40.50,87.00 L53.00,86.50Z M228.50,84.00 L229.00,83.50 L229.50,85.00 L228.00,87.50 L227.50,86.00Z M120.50,85.00 L121.50,85.00 L123.50,89.00 L123.00,90.50Z M146.50,85.00 L147.50,85.00 L147.50,88.00 L146.50,89.00 L148.50,90.00 L148.50,93.00 L152.50,102.00 L151.00,104.50 L150.50,101.00 L148.50,97.00 L148.50,94.00 L145.50,89.00Z M214.50,86.00 L215.50,86.00 L215.00,87.50Z M217.50,87.00 L218.50,87.00 L217.00,88.50 L216.50,88.00Z M213.50,89.00 L214.00,88.50 L215.00,90.50 L216.00,89.50 L216.50,90.00 L213.50,94.00 L209.50,102.00 L208.50,106.00 L206.50,107.00 L207.50,108.00 L205.50,109.00 L206.50,111.00 L197.50,129.00 L196.00,130.50 L195.50,129.00 L197.50,126.00 L197.50,124.00 L198.50,122.00 L200.50,121.00 L199.50,120.00 L201.50,119.00 L200.50,117.00 L208.50,101.00 L211.50,97.00 L212.50,92.00 L214.50,92.00Z M226.50,89.00 L227.00,88.50 L227.50,90.00 L225.00,94.50 L224.50,93.00Z M135.50,90.00 L136.50,90.00 L135.50,92.00 L137.50,93.00 L138.50,97.00 L142.50,104.00 L142.00,104.50 L140.50,104.00 L139.50,100.00 L134.50,92.00Z M169.50,91.00 L170.50,91.00 L170.00,96.50Z M310.50,91.00 L311.50,91.00 L311.00,92.50Z M56.50,92.00 L57.00,91.50 L58.50,93.00 L60.50,97.00 L69.00,107.50 L71.00,107.50 L76.50,110.00 L71.50,110.00 L79.00,117.50 L91.00,126.50 L93.50,129.00 L92.50,130.00 L93.00,130.50 L95.00,129.50 L100.00,133.50 L105.00,135.50 L105.50,137.00 L103.00,136.50 L97.00,132.50 L95.00,132.50 L92.00,130.50 L88.00,129.50 L88.00,128.50 L90.00,129.50 L92.50,129.00 L85.00,123.50 L80.00,118.50 L79.00,118.50 L68.00,107.50 L65.50,107.00 L66.50,105.00 L62.50,101.00Z M70.50,92.00 L72.00,91.50 L74.50,93.00 L73.00,93.50Z M277.50,92.00 L279.00,91.50 L279.00,92.50 L277.00,93.50 L275.50,93.00Z M272.50,93.00 L273.00,92.50 L274.50,94.00 L269.00,98.50 L267.00,97.50 L259.00,101.50 L257.00,103.50 L254.50,104.00 L259.00,100.50 L270.00,95.50Z M309.50,94.00 L310.00,93.50 L310.50,95.00 L306.50,102.00 L311.50,103.00 L306.00,103.50 L302.50,107.00 L302.50,108.00 L290.50,120.00 L294.00,120.50 L294.00,121.50 L289.00,121.50 L276.00,131.50 L275.50,131.00 L278.00,128.50 L282.00,126.50 L285.50,123.00 L284.00,122.50 L284.00,121.50 L288.00,121.50 L301.50,108.00 L304.50,104.00 L302.50,103.00 L305.00,102.50 L306.50,101.00Z M111.50,96.00 L112.00,95.50 L113.50,97.00 L114.00,99.50Z M40.50,97.00 L41.50,97.00 L42.00,99.50Z M321.50,97.00 L322.50,97.00 L322.50,106.00 L321.00,108.50Z M170.50,99.00 L171.50,99.00 L171.50,108.00 L170.50,109.00 L170.00,113.50 L169.50,101.00Z M26.50,100.00 L27.50,100.00 L27.00,101.50Z M42.50,101.00 L43.00,100.50 L45.00,102.50 L47.50,103.00 L45.50,104.00 L47.50,107.00 L52.50,112.00 L52.50,113.00 L62.00,121.50 L66.00,121.50 L67.00,122.50 L70.50,123.00 L67.00,123.50 L66.00,122.50 L64.00,122.50 L64.00,123.50 L78.00,133.50 L81.00,134.50 L87.50,139.00 L87.00,139.50 L78.00,134.50 L61.00,121.50 L56.00,121.50 L56.00,120.50 L59.50,120.00 L50.50,112.00 L46.50,106.00 L44.00,103.50 L38.50,103.00 L43.00,102.50 L43.50,102.00Z M161.50,103.00 L162.50,103.00 L162.50,105.00 L161.00,107.50 L160.50,104.00Z M27.50,104.00 L28.50,104.00 L28.50,106.00 L24.00,108.50 L21.50,111.00 L20.00,114.50 L19.50,113.00 L20.50,111.00 L24.00,107.50 L25.00,107.50Z M152.50,105.00 L153.00,104.50 L153.50,106.00 L152.00,107.50 L151.50,106.00Z M141.50,106.00 L143.00,105.50 L146.50,111.00 L145.00,113.50 L145.50,111.00 L143.50,111.00Z M186.50,106.00 L187.00,105.50 L188.50,108.00 L188.00,111.50 L186.50,109.00Z M162.50,107.00 L163.50,107.00 L163.50,110.00 L162.00,113.50 L161.50,110.00 L162.50,109.00Z M323.50,107.00 L326.00,107.50 L329.50,112.00 L329.00,112.50 L327.50,110.00Z M28.50,108.00 L29.50,108.00 L31.50,113.00 L37.00,119.50 L53.00,119.50 L53.00,120.50 L37.50,121.00 L52.00,133.50 L55.00,135.50 L59.00,135.50 L59.50,136.00 L58.00,136.50 L58.00,137.50 L78.50,148.00 L77.00,148.50 L63.00,141.50 L56.00,136.50 L41.00,136.50 L41.00,135.50 L53.50,135.00 L48.00,131.50 L34.50,120.00 L35.50,119.00 L30.50,113.00Z M153.50,108.00 L154.50,108.00 L153.50,111.00 L155.50,111.00 L154.50,114.00 L156.50,114.00 L155.50,117.00 L157.50,117.00 L157.00,119.50 L155.50,119.00 L152.50,111.00 L152.50,109.00Z M177.50,108.00 L178.50,108.00 L178.50,113.00 L179.50,114.00 L178.00,139.50 L177.50,135.00 L176.50,134.00 L176.50,131.00 L177.50,130.00Z M275.50,109.00 L277.50,109.00 L275.00,110.50 L273.00,110.50 L272.00,111.50 L270.50,111.00Z M77.50,111.00 L79.00,110.50 L81.50,112.00 L80.00,112.50Z M185.50,111.00 L186.00,110.50 L187.50,113.00 L187.00,116.50 L185.50,115.00Z M267.50,112.00 L269.00,111.50 L269.00,112.50 L265.00,114.50 L263.50,114.00Z M318.50,112.00 L319.50,112.00 L318.50,114.00 L314.50,119.00 L315.50,120.00 L313.00,120.50 L309.00,125.50 L308.00,125.50 L299.00,133.50 L298.50,133.00 L311.50,121.00 L295.50,120.00 L313.00,119.50Z M163.50,113.00 L164.50,113.00 L164.50,116.00 L163.00,117.50 L162.50,115.00Z M171.50,113.00 L172.50,113.00 L173.00,136.50 L171.50,134.00 L171.50,124.00 L170.50,123.00Z M329.50,114.00 L330.50,114.00 L330.00,115.50Z M18.50,116.00 L19.50,116.00 L19.00,120.50Z M184.50,117.00 L185.00,116.50 L186.50,118.00 L186.50,120.00 L185.50,121.00 L184.50,130.00 L183.50,131.00 L183.50,141.00 L184.50,142.00 L183.00,144.50 L182.50,136.00 L181.50,135.00 L181.50,133.00 L183.50,129.00Z M163.50,119.00 L165.50,119.00 L165.50,125.00 L166.50,126.00 L166.50,130.00 L167.50,131.00 L166.00,133.50 L165.50,126.00 L164.50,125.00Z M156.50,121.00 L158.50,121.00 L159.50,127.00 L162.50,133.00 L161.00,135.50 L160.50,131.00Z M329.50,121.00 L330.50,121.00 L330.00,123.50Z M19.50,122.00 L20.50,122.00 L21.00,124.50 L22.00,123.50 L22.50,124.00 L21.50,126.00 L24.50,131.00 L37.50,143.00 L37.00,143.50 L34.00,141.50 L31.00,138.50 L26.00,139.50 L26.00,138.50 L28.00,138.50 L29.50,137.00 L23.50,131.00 L20.00,125.50 L14.50,131.00 L14.50,133.00 L13.50,134.00 L13.50,139.00 L14.50,140.00 L14.50,142.00 L16.00,143.50 L24.00,139.50 L24.00,140.50 L16.50,144.00 L17.50,147.00 L25.00,154.50 L27.00,155.50 L32.00,154.50 L32.50,155.00 L30.00,155.50 L29.50,157.00 L31.00,158.50 L42.00,163.50 L42.00,164.50 L31.00,159.50 L27.00,156.50 L25.00,157.50 L24.50,157.00 L26.50,156.00 L25.00,155.50 L16.50,147.00 L16.00,145.50 L15.00,145.50 L11.50,149.00 L10.50,153.00 L9.50,153.00 L10.50,149.00 L14.50,145.00 L14.50,143.00 L12.50,139.00 L12.50,134.00 L13.50,133.00 L13.50,131.00 L16.50,127.00 L19.50,125.00Z M25.50,122.00 L28.50,122.00 L25.00,123.50 L23.50,123.00Z M321.50,122.00 L324.00,121.50 L330.00,124.50 L335.50,130.00 L336.50,134.00 L335.50,134.00 L334.50,130.00 L330.00,125.50Z M190.50,123.00 L192.00,122.50 L192.50,124.00 L189.50,130.00 L189.50,134.00 L187.50,135.00 L188.50,136.00 L188.50,138.00 L188.00,138.50 L187.00,136.50 L185.00,140.50 L184.50,139.00 L188.50,132.00 L188.50,130.00 L190.50,126.00Z M71.50,124.00 L74.00,123.50 L77.50,125.00 L75.00,125.50Z M268.50,126.00 L271.00,125.50 L271.00,126.50 L269.00,126.50 L265.00,128.50 L263.50,128.00Z M327.50,127.00 L328.50,127.00 L327.50,129.00 L320.00,138.50 L316.00,140.50 L310.00,145.50 L307.50,146.00 L317.00,139.50 L317.50,138.00 L324.50,132.00Z M273.50,132.00 L274.50,132.00 L273.00,133.50 L268.00,136.50 L267.50,136.00Z M296.50,134.00 L297.50,134.00 L296.50,135.00 L297.00,135.50 L309.50,136.00 L294.00,136.50 L293.00,137.50 L290.50,136.00 L295.00,135.50Z M162.50,136.00 L163.50,136.00 L162.50,137.00 L162.00,140.50 L161.50,137.00Z M106.50,137.00 L107.00,136.50 L108.00,138.50 L109.00,137.50 L110.00,139.50 L111.00,138.50 L120.50,144.00 L119.00,145.50 L113.00,142.50 L111.00,139.50 L110.00,140.50 L108.00,139.50Z M175.50,137.00 L176.50,137.00 L176.00,140.50Z M180.50,137.00 L181.50,137.00 L181.00,138.50Z M265.50,137.00 L266.50,137.00 L265.00,138.50 L261.50,140.00 L264.00,140.50 L264.00,141.50 L262.00,141.50 L260.50,140.00Z M191.50,138.00 L192.50,138.00 L192.00,139.50Z M290.50,138.00 L291.50,138.00 L290.00,139.50 L287.50,140.00Z M321.50,139.00 L324.00,138.50 L331.00,141.50 L333.00,143.50 L335.50,143.00 L334.50,144.00 L338.50,148.00 L340.50,152.00 L340.50,159.00 L339.00,161.50 L339.50,152.00 L337.50,148.00 L335.00,145.50 L333.00,146.50 L332.50,146.00 L333.50,145.00 L331.00,142.50Z M335.50,139.00 L336.50,139.00 L336.00,141.50Z M80.50,140.00 L84.00,139.50 L85.00,140.50 L88.00,140.50 L89.00,139.50 L96.00,143.50 L101.00,144.50 L101.50,146.00 L98.00,145.50 L92.00,142.50 L89.00,142.50 L88.00,141.50Z M179.50,140.00 L180.50,140.00 L180.00,141.50Z M190.50,140.00 L191.50,140.00 L191.50,142.00 L190.50,143.00 L189.50,148.00 L186.00,151.50 L185.00,151.50 L183.00,154.50 L182.50,152.00 L185.00,148.50 L186.00,149.50 L186.50,149.00 L186.50,146.00Z M157.50,141.00 L158.50,141.00 L158.00,142.50Z M195.50,141.00 L196.50,141.00 L196.00,142.50Z M234.50,141.00 L235.00,140.50 L236.50,142.00 L235.00,143.50 L216.00,152.50 L211.00,156.50 L208.50,155.00 L217.00,151.50 L226.00,145.50 L227.00,146.50 L229.00,143.50Z M258.50,141.00 L259.00,140.50 L260.50,142.00 L260.00,142.50 L258.00,142.50 L257.00,143.50 L254.50,143.00Z M285.50,141.00 L286.50,141.00 L285.00,142.50 L275.00,147.50 L273.50,147.00Z M194.50,143.00 L195.00,142.50 L195.50,144.00 L193.50,147.00 L193.50,149.00 L190.00,152.50 L188.00,152.50 L186.00,155.50 L185.50,153.00 L188.00,150.50 L189.00,151.50 L189.50,151.00 L190.50,147.00Z M38.50,144.00 L41.00,144.50 L47.50,149.00 L47.00,149.50 L43.00,147.50Z M199.50,144.00 L200.00,143.50 L200.50,145.00 L197.50,149.00 L198.50,150.00 L193.00,153.50 L192.50,151.00Z M251.50,144.00 L253.00,143.50 L253.00,144.50 L245.00,148.50 L243.00,147.50 L242.00,149.50 L240.00,148.50 L239.50,149.00 L240.50,150.00 L238.00,151.50 L235.00,150.50 L234.50,151.00 L235.50,152.00 L234.00,152.50 L232.50,151.00 L235.00,149.50 L238.00,150.50 L238.50,150.00 L237.50,149.00 L240.00,147.50 L242.00,147.50 L243.00,146.50 L245.00,147.50 L246.00,145.50Z M121.50,145.00 L124.00,145.50 L125.50,148.00 L125.00,148.50 L124.00,146.50 L123.00,147.50 L122.00,145.50 L121.00,146.50 L120.50,146.00Z M102.50,146.00 L104.00,145.50 L109.50,148.00 L107.00,149.50 L103.00,147.50Z M150.50,146.00 L153.00,146.50 L156.50,150.00 L157.50,153.00 L158.00,153.50 L159.00,152.50 L161.50,156.00 L160.00,156.50 L159.00,154.50 L157.00,154.50 L154.00,152.50Z M305.50,147.00 L306.50,147.00 L305.00,148.50 L293.00,154.50 L291.50,154.00 L295.00,152.50 L295.00,151.50 L276.50,151.00 L299.00,150.50Z M167.50,148.00 L168.00,147.50 L169.50,150.00 L169.00,153.50 L167.50,152.00Z M202.50,148.00 L204.50,148.00 L199.50,153.00 L199.50,154.00 L195.00,156.50 L194.50,155.00Z M270.50,148.00 L272.00,147.50 L272.00,148.50 L268.00,150.50 L266.50,150.00Z M331.50,148.00 L332.50,148.00 L323.50,156.00 L331.00,159.50 L336.00,163.50 L338.00,162.50 L337.50,165.00 L340.50,169.00 L340.00,169.50 L337.00,165.50 L333.00,169.50 L324.50,175.00 L331.00,178.50 L337.00,184.50 L338.50,183.00 L341.00,176.50 L341.50,179.00 L337.50,185.00 L339.50,188.00 L339.00,189.50 L337.00,186.50 L334.00,187.50 L332.00,189.50 L331.50,189.00 L336.50,185.00 L331.00,179.50 L324.00,175.50 L319.00,177.50 L319.00,176.50 L322.50,175.00 L316.50,172.00 L318.00,171.50 L323.00,174.50 L326.00,173.50 L335.50,166.00 L335.50,164.00 L334.00,162.50 L322.00,156.50 L317.00,160.50 L311.00,163.50 L309.50,163.00 L320.00,157.50 L320.50,156.00 L318.00,155.50 L318.00,154.50 L323.00,155.50Z M79.50,149.00 L81.00,148.50 L83.50,150.00 L82.00,150.50Z M164.50,150.00 L165.00,149.50 L169.50,155.00 L169.00,157.50 L165.50,154.00Z M50.50,151.00 L73.50,151.00 L54.00,151.50 L53.00,152.50Z M84.50,151.00 L86.00,150.50 L92.00,153.50 L96.00,153.50 L97.00,154.50 L101.50,155.00 L99.00,156.50 L91.00,153.50 L86.00,153.50 L85.50,153.00 L86.50,152.00Z M161.50,151.00 L162.00,150.50 L164.50,153.00 L164.00,155.50 L160.50,153.00Z M263.50,151.00 L265.50,151.00 L263.50,152.00 L264.50,153.00 L264.00,153.50 L258.50,153.00Z M142.50,152.00 L144.00,151.50 L147.00,153.50 L148.00,152.50 L153.50,159.00 L152.00,160.50 L151.00,158.50 L148.00,157.50Z M205.50,152.00 L207.50,152.00 L200.00,158.50 L199.00,158.50 L198.00,160.50 L196.50,159.00 L196.50,158.00 L200.00,154.50Z M229.50,152.00 L231.00,151.50 L232.50,153.00 L232.00,153.50 L219.00,157.50 L216.00,159.50 L215.50,159.00 L216.00,157.50 L221.00,156.50Z M54.50,153.00 L56.00,152.50 L60.50,155.00 L59.00,155.50Z M170.50,154.00 L171.50,154.00 L171.00,156.50Z M172.50,154.00 L174.00,153.50 L174.50,155.00 L173.00,155.50Z M188.50,154.00 L190.00,153.50 L190.50,155.00 L188.00,157.50 L187.50,156.00Z M253.50,154.00 L257.00,153.50 L257.00,154.50 L255.00,154.50 L248.00,157.50 L246.00,157.50 L244.50,156.00 L247.00,155.50 L248.00,156.50 L249.00,154.50Z M180.50,155.00 L181.50,155.00 L181.00,156.50Z M183.50,155.00 L184.50,155.00 L184.50,157.00 L183.00,158.50 L182.50,156.00Z M192.50,155.00 L193.00,154.50 L193.50,156.00 L192.50,158.00 L190.50,159.00 L192.00,159.50 L195.00,157.50 L195.50,159.00 L192.50,161.00 L192.00,163.50 L190.50,163.00 L191.50,162.00 L191.00,160.50 L189.00,163.50 L188.50,161.00 L189.50,159.00 L188.50,158.00Z M288.50,155.00 L290.00,154.50 L290.00,155.50 L288.00,156.50 L286.50,156.00Z M61.50,156.00 L63.00,155.50 L64.00,156.50 L75.50,160.00 L73.00,160.50Z M102.50,156.00 L105.00,155.50 L105.00,157.50 L107.00,156.50 L109.50,157.00 L107.00,158.50 L105.00,158.50 L104.00,157.50 L102.00,157.50 L101.50,157.00Z M156.50,156.00 L158.00,155.50 L159.50,158.00 L158.00,158.50 L156.00,157.50 L155.50,157.00Z M165.50,156.00 L166.00,155.50 L169.50,159.00 L168.00,159.50Z M163.50,157.00 L164.50,157.00 L164.00,158.50Z M172.50,157.00 L173.50,157.00 L173.00,158.50Z M174.50,157.00 L175.50,157.00 L175.00,158.50Z M176.50,157.00 L177.50,157.00 L177.00,158.50Z M185.50,157.00 L186.00,156.50 L186.50,158.00 L185.00,159.50 L184.50,158.00Z M240.50,157.00 L243.00,156.50 L244.50,158.00 L244.00,158.50 L238.00,159.50 L237.00,160.50 L234.00,160.50 L233.00,159.50 L232.00,161.50 L229.50,161.00 L230.00,159.50 L232.00,159.50 L233.00,158.50 L237.00,159.50 L237.00,157.50 L241.00,158.50 L241.50,158.00Z M283.50,157.00 L285.50,157.00 L283.00,158.50 L281.00,158.50 L277.00,160.50 L274.50,160.00Z M9.50,158.00 L10.50,158.00 L10.50,160.00 L12.50,163.00 L12.00,163.50 L9.50,160.00Z M110.50,158.00 L113.50,158.00 L111.00,159.50 L108.50,159.00Z M153.50,158.00 L155.00,157.50 L157.00,158.50 L157.50,160.00 L156.00,160.50Z M178.50,158.00 L179.00,157.50 L179.50,159.00 L178.00,160.50 L177.50,159.00Z M114.50,159.00 L117.00,158.50 L118.00,159.50 L120.00,159.50 L120.50,161.00 L117.00,161.50 L117.00,159.50 L113.00,160.50 L112.50,160.00Z M161.50,159.00 L162.00,158.50 L164.50,160.00 L162.00,160.50Z M164.50,159.00 L166.00,158.50 L167.50,160.00 L166.00,160.50Z M171.50,159.00 L172.50,159.00 L172.00,160.50Z M173.50,159.00 L174.50,159.00 L174.00,160.50Z M186.50,159.00 L188.00,158.50 L188.50,160.00 L187.00,160.50Z M18.50,160.00 L19.50,160.00 L13.50,165.00 L21.50,172.00 L21.00,172.50 L18.00,170.50 L13.00,165.50 L10.50,168.00 L9.00,172.50 L8.50,170.00 L9.50,168.00 L17.00,160.50Z M121.50,161.00 L123.00,160.50 L124.00,161.50 L131.00,162.50 L132.00,163.50 L137.00,163.50 L137.50,164.00 L135.50,165.00 L137.50,166.00 L136.00,166.50 L126.00,162.50 L122.00,162.50Z M152.50,161.00 L155.00,160.50 L156.50,163.00 L155.00,164.50Z M194.50,161.00 L197.50,161.00 L195.00,163.50 L193.50,163.00Z M226.50,161.00 L228.00,160.50 L228.00,162.50 L224.00,162.50 L223.00,163.50 L217.00,164.50 L211.00,167.50 L209.50,167.00 L214.50,165.00 L212.00,164.50 L212.00,163.50 L218.00,163.50 L219.00,162.50 L223.00,162.50Z M270.50,161.00 L273.00,160.50 L273.00,161.50 L271.00,161.50 L270.00,162.50 L267.50,162.00Z M160.50,162.00 L161.00,161.50 L162.00,163.50 L164.50,164.00 L161.00,164.50Z M83.50,163.00 L86.00,162.50 L87.00,163.50 L93.00,163.50 L94.00,164.50 L105.50,165.00 L102.00,166.50 L98.00,166.50 L97.00,165.50 L93.00,165.50 L92.00,164.50 L71.00,164.50 L71.00,163.50Z M184.50,163.00 L186.00,162.50 L186.50,164.00 L186.00,164.50Z M262.50,163.00 L266.00,162.50 L267.00,163.50 L279.50,164.00 L258.00,164.50 L257.00,165.50 L254.00,165.50 L254.00,164.50 L256.00,164.50 L257.00,163.50Z M150.50,164.00 L153.00,163.50 L154.50,165.00 L152.00,165.50Z M189.50,164.00 L190.00,163.50 L191.50,166.00 L191.00,167.50 L190.00,166.50 L189.00,167.50 L188.50,167.00Z M306.50,164.00 L308.00,163.50 L308.00,164.50 L306.00,165.50 L304.50,165.00Z M43.50,165.00 L45.00,164.50 L46.00,165.50 L57.50,169.00 L55.00,169.50 L51.00,167.50 L48.00,167.50Z M155.50,165.00 L158.00,164.50 L159.50,168.00 L159.00,168.50 L157.50,166.00Z M159.50,165.00 L160.00,164.50 L162.50,166.00 L161.00,167.50Z M244.50,165.00 L252.50,165.00 L251.00,166.50 L248.00,166.50Z M107.50,166.00 L113.50,166.00 L110.00,167.50 L105.00,167.50 L105.00,166.50Z M236.50,166.00 L242.00,165.50 L245.50,167.00 L240.00,167.50Z M301.50,166.00 L303.50,166.00 L301.00,167.50 L299.00,167.50 L298.00,168.50 L295.50,168.00 L298.00,166.50Z M149.50,167.00 L153.00,166.50 L154.50,168.00 L151.00,168.50Z M154.50,167.00 L156.00,166.50 L158.50,170.00 L158.00,170.50Z M192.50,167.00 L195.50,167.00 L194.00,168.50 L193.00,168.50Z M196.50,167.00 L200.50,167.00 L198.00,168.50 L196.00,168.50 L195.50,168.00Z M171.50,168.00 L178.00,167.50 L182.50,173.00 L182.50,177.00 L181.50,179.00 L177.00,182.50 L173.00,182.50 L167.50,178.00 L167.50,172.00Z M189.50,168.00 L190.50,168.00 L190.00,169.50 L188.50,169.00Z M302.50,168.00 L306.00,167.50 L309.50,169.00 L307.00,169.50 L306.00,168.50Z M36.50,170.00 L39.50,170.00 L36.00,171.50 L34.50,171.00Z M191.50,171.00 L192.50,171.00 L192.00,172.50Z M340.50,171.00 L341.50,171.00 L341.00,173.50Z M31.50,172.00 L33.00,171.50 L33.00,172.50 L31.00,173.50 L29.50,173.00Z M22.50,173.00 L23.00,172.50 L26.00,174.50 L28.00,173.50 L28.50,174.00 L27.50,175.00 L31.50,177.00 L30.00,177.50Z M7.50,174.00 L8.50,174.00 L8.00,176.50Z M78.50,174.00 L139.50,174.00 L133.00,174.50 L132.00,175.50 L118.00,175.50 L117.00,174.50 L85.00,175.50 L84.00,174.50Z M210.50,174.00 L271.50,174.00 L266.00,174.50 L265.00,175.50 L252.00,175.50 L251.00,174.50 L218.00,175.50 L217.00,174.50Z M23.50,176.00 L24.50,176.00 L23.00,177.50 L19.00,179.50 L13.50,185.00 L19.00,189.50 L25.00,192.50 L28.00,192.50 L33.00,189.50 L33.50,190.00 L29.00,192.50 L29.00,194.50 L26.00,194.50 L16.50,204.00 L18.50,207.00 L16.00,206.50 L14.00,209.50 L13.50,208.00 L14.50,207.00 L14.50,205.00 L10.50,200.00 L11.00,199.50 L15.00,204.50 L25.50,194.00 L16.00,188.50 L13.00,185.50 L10.00,192.50 L9.50,190.00 L12.50,185.00 L10.50,183.00 L11.00,182.50 L13.00,184.50 L19.00,178.50Z M201.50,176.00 L204.00,175.50 L207.50,177.00 L202.00,177.50Z M189.50,177.00 L191.00,176.50 L192.50,178.00 L191.00,178.50Z M193.50,177.00 L195.00,176.50 L197.00,178.50 L200.00,178.50 L202.50,180.00 L198.00,180.50 L197.00,179.50 L196.00,180.50 L194.00,180.50 L193.50,180.00 L195.50,179.00Z M8.50,178.00 L9.50,178.00 L10.00,181.50 L8.50,180.00Z M32.50,178.00 L34.00,177.50 L43.50,181.00 L41.00,181.50Z M315.50,178.00 L317.50,178.00 L315.00,179.50 L313.00,179.50 L312.00,180.50 L309.50,180.00Z M149.50,179.00 L153.50,179.00 L152.00,180.50 L148.00,180.50 L147.50,180.00Z M158.50,179.00 L160.50,179.00 L159.00,180.50 L157.50,180.00Z M53.50,181.00 L56.50,181.00 L54.00,181.50 L53.00,183.50 L48.00,183.50 L47.00,184.50 L45.50,184.00 L47.50,183.00 L44.50,182.00 L48.00,181.50 L50.00,182.50Z M161.50,181.00 L162.50,181.00 L162.00,182.50 L158.50,182.00Z M187.50,181.00 L188.50,181.00 L188.00,182.50Z M305.50,181.00 L308.00,180.50 L308.00,181.50 L302.00,182.50 L301.00,183.50 L296.50,183.00 L297.00,181.50 L301.00,182.50 L302.00,181.50Z M109.50,182.00 L117.00,181.50 L117.50,183.00 L113.00,183.50Z M150.50,182.00 L154.50,182.00 L152.00,183.50 L149.00,183.50 L148.50,183.00Z M155.50,182.00 L157.50,182.00 L155.00,184.50 L154.50,183.00Z M192.50,182.00 L194.00,181.50 L195.50,184.00 L195.00,184.50Z M195.50,182.00 L199.00,181.50 L200.00,182.50 L201.00,181.50 L207.00,181.50 L212.50,184.00 L205.00,184.50 L202.00,182.50 L201.00,183.50 L197.00,183.50Z M232.50,182.00 L239.50,182.00 L236.00,183.50 L232.00,183.50 L231.50,183.00Z M102.50,183.00 L107.00,182.50 L108.00,183.50 L111.50,184.00 L106.00,184.50Z M241.50,183.00 L247.50,183.00 L244.00,184.50 L239.00,184.50 L239.00,183.50Z M96.50,184.00 L101.00,183.50 L102.50,185.00 L92.00,185.50 L92.00,184.50Z M156.50,184.00 L158.50,184.00 L157.00,185.50 L155.50,185.00Z M163.50,184.00 L164.00,183.50 L165.50,185.00 L164.00,185.50Z M185.50,184.00 L187.50,184.00 L186.00,185.50Z M191.50,184.00 L193.00,183.50 L194.50,185.00 L192.00,185.50Z M248.50,184.00 L253.00,183.50 L254.00,184.50 L258.50,185.00 L247.00,185.50 L246.50,185.00Z M42.50,185.00 L44.00,184.50 L44.00,185.50 L42.00,186.50 L40.50,186.00Z M132.50,185.00 L134.00,184.50 L136.00,185.50 L136.00,186.50 L130.00,186.50 L122.00,189.50 L120.50,189.00 L121.00,187.50 L125.00,187.50 L126.00,186.50 L129.00,186.50Z M151.50,185.00 L154.50,185.00 L153.00,186.50 L151.00,186.50 L150.50,186.00Z M158.50,185.00 L159.50,185.00 L159.00,187.50 L157.50,187.00Z M195.50,185.00 L198.00,184.50 L199.50,186.00 L197.00,186.50Z M215.50,185.00 L217.00,184.50 L221.00,186.50 L229.00,187.50 L229.50,189.00 L227.00,189.50 L220.00,186.50 L214.00,186.50 L213.50,186.00Z M305.50,185.00 L307.00,184.50 L313.50,188.00 L312.00,188.50Z M75.50,186.00 L90.50,186.00 L86.00,186.50 L85.00,187.50Z M160.50,186.00 L163.00,185.50 L163.50,188.00 L163.00,188.50 L162.50,187.00Z M187.50,186.00 L191.00,185.50 L192.50,187.00 L191.00,187.50Z M259.50,186.00 L274.50,186.00 L268.00,186.50 L267.00,187.50Z M153.50,187.00 L156.50,187.00 L154.00,190.50 L151.50,189.00Z M193.50,187.00 L195.00,186.50 L197.50,189.00 L196.00,189.50Z M208.50,187.00 L209.00,186.50 L220.00,192.50 L228.00,194.50 L230.00,195.50 L231.00,197.50 L233.00,196.50 L233.00,198.50 L236.00,197.50 L238.50,199.00 L237.50,200.00 L238.00,200.50 L241.00,199.50 L245.00,201.50 L245.50,203.00 L244.00,203.50 L243.00,201.50 L241.00,202.50 L241.00,200.50 L238.00,201.50 L235.50,200.00 L236.50,199.00 L236.00,198.50 L233.00,199.50 L229.00,197.50 L228.00,195.50 L227.00,196.50 L219.00,192.50 L210.00,190.50 L209.50,190.00 L211.50,189.00Z M35.50,188.00 L37.50,188.00 L35.00,189.50 L34.50,189.00Z M159.50,188.00 L161.50,188.00 L160.00,189.50Z M188.50,188.00 L190.00,187.50 L190.50,189.00 L189.00,189.50Z M192.50,188.00 L193.50,188.00 L196.50,192.00 L196.00,192.50 L192.50,191.00 L191.50,189.00Z M198.50,188.00 L201.00,187.50 L208.50,193.00 L207.00,193.50 L206.00,192.50 L204.00,192.50Z M268.50,188.00 L271.00,187.50 L274.50,189.00 L272.00,189.50Z M115.50,189.00 L119.00,188.50 L119.50,190.00 L114.00,191.50 L111.50,190.00 L114.00,189.50 L116.00,190.50 L116.50,190.00Z M136.50,189.00 L140.00,189.50 L140.00,190.50 L138.00,190.50 L137.00,189.50 L136.00,191.50 L126.00,194.50 L119.00,198.50 L116.50,197.00 L119.00,195.50 L130.00,192.50Z M163.50,189.00 L165.50,189.00 L164.00,192.50Z M230.50,189.00 L233.50,189.00 L232.00,190.50 L231.00,190.50Z M314.50,189.00 L315.00,188.50 L319.00,190.50 L321.00,192.50 L324.00,192.50 L324.50,193.00 L323.50,194.00 L325.00,194.50 L333.50,203.00 L334.00,204.50 L336.50,203.00 L339.50,198.00 L340.00,190.50 L340.50,198.00 L335.50,205.00 L335.50,207.00 L335.00,207.50 L334.00,205.50 L330.00,208.50 L329.50,208.00 L333.50,205.00 L332.50,203.00 L323.00,194.50 L317.00,195.50 L317.00,194.50 L319.00,194.50 L320.50,193.00Z M71.50,190.00 L74.00,189.50 L74.00,190.50 L72.00,190.50 L65.00,193.50 L63.50,193.00Z M158.50,190.00 L161.00,190.50 L162.00,189.50 L162.50,191.00 L161.50,192.00 L163.50,193.00 L162.00,193.50 L159.00,197.50 L158.50,196.00 L160.50,192.00 L159.50,192.00 L158.00,195.50 L156.50,194.00Z M165.50,190.00 L167.50,190.00 L166.00,191.50Z M173.50,190.00 L174.50,190.00 L174.00,191.50Z M175.50,190.00 L176.50,190.00 L176.00,191.50Z M185.50,190.00 L188.00,189.50 L188.50,191.00 L188.00,191.50Z M234.50,190.00 L238.00,189.50 L239.00,190.50 L242.00,190.50 L245.50,192.00 L244.00,193.50 L242.00,193.50 L242.00,191.50 L238.00,192.50 L238.00,190.50 L234.00,191.50 L233.50,191.00Z M329.50,190.00 L330.50,190.00 L329.00,191.50 L327.00,192.50 L325.50,192.00Z M107.50,191.00 L110.00,190.50 L112.50,192.00 L110.00,192.50Z M151.50,191.00 L153.50,191.00 L151.00,194.50 L145.00,197.50 L143.50,197.00 L149.00,191.50Z M167.50,191.00 L169.50,191.00 L166.00,194.50 L165.50,193.00Z M178.50,191.00 L179.50,191.00 L179.00,192.50Z M184.50,191.00 L185.00,190.50 L186.50,192.00 L186.00,193.50Z M104.50,192.00 L106.00,191.50 L108.50,193.00 L106.00,193.50Z M174.50,192.00 L175.50,192.00 L175.00,193.50Z M176.50,192.00 L177.50,192.00 L177.00,193.50Z M182.50,192.00 L183.00,191.50 L184.50,193.00 L184.00,194.50Z M190.50,192.00 L192.00,191.50 L193.50,194.00 L192.00,194.50Z M100.50,193.00 L103.00,192.50 L104.50,194.00 L104.00,194.50 L100.00,194.50 L99.00,195.50 L91.00,196.50 L88.00,198.50 L81.00,200.50 L76.00,203.50 L74.50,203.00 L81.00,199.50 L85.00,198.50 L85.50,198.00 L84.00,197.50 L84.00,196.50 L90.00,196.50 L91.00,195.50 L94.00,195.50Z M168.50,193.00 L169.00,192.50 L169.50,194.00 L165.00,200.50 L163.50,198.00Z M180.50,193.00 L181.50,193.00 L181.00,195.50Z M187.50,193.00 L188.00,192.50 L190.50,194.00 L190.00,196.50 L186.50,194.00Z M246.50,193.00 L249.00,192.50 L256.00,195.50 L266.50,197.00 L262.00,198.50 L258.00,196.50 L250.00,195.50 L249.00,193.50 L248.00,194.50 L246.00,194.50 L245.50,194.00Z M284.50,193.00 L286.00,192.50 L293.50,196.00 L292.00,196.50Z M60.50,194.00 L62.00,193.50 L62.00,194.50 L60.00,195.50 L58.50,195.00Z M170.50,194.00 L171.50,194.00 L171.00,196.50Z M173.50,194.00 L174.50,194.00 L174.00,196.50 L172.50,195.00Z M175.50,194.00 L176.50,194.00 L176.00,196.50Z M162.50,195.00 L164.00,194.50 L164.50,196.00 L162.00,199.50 L160.50,197.00 L162.00,196.50Z M185.50,195.00 L186.00,194.50 L188.00,197.50 L189.00,196.50 L193.50,201.00 L193.50,202.00 L195.50,203.00 L194.50,204.00 L195.50,206.00 L195.00,207.50 L189.50,201.00 L189.50,199.00 L189.00,198.50 L188.00,199.50 L185.50,197.00Z M55.50,196.00 L57.00,195.50 L57.00,196.50 L45.00,202.50 L44.50,202.00 L49.50,199.00 L45.00,198.50 L45.00,197.50 L53.00,197.50Z M9.50,197.00 L10.50,197.00 L10.00,198.50Z M168.50,197.00 L169.50,197.00 L169.50,200.00 L168.00,202.50 L167.50,198.00Z M294.50,197.00 L296.00,196.50 L297.00,197.50 L305.50,198.00 L300.50,199.00 L302.00,199.50 L303.50,201.00 L303.00,201.50Z M113.50,198.00 L115.00,197.50 L116.50,199.00 L114.00,200.50 L111.00,199.50 L110.50,200.00 L111.50,201.00 L109.00,202.50 L106.50,201.00Z M159.50,198.00 L160.00,197.50 L161.50,200.00 L159.50,201.00 L154.00,208.50 L153.50,207.00 L156.50,201.00Z M264.50,199.00 L266.00,198.50 L268.50,200.00 L267.00,200.50Z M162.50,200.00 L163.50,200.00 L163.50,203.00 L159.00,209.50 L158.50,207.00 L159.50,206.00 L159.50,204.00Z M186.50,200.00 L187.00,199.50 L189.50,202.00 L189.50,204.00 L191.50,208.00 L191.00,210.50 L186.50,204.00Z M269.50,201.00 L271.00,200.50 L279.50,205.00 L278.00,205.50Z M103.50,202.00 L105.00,201.50 L106.50,203.00 L106.00,203.50 L104.00,202.50 L103.00,204.50 L98.00,205.50 L85.00,212.50 L84.50,212.00 L87.00,210.50 L87.00,209.50 L84.00,209.50 L83.00,210.50 L79.50,210.00 L87.00,208.50 L88.00,207.50 L90.00,207.50 L91.00,208.50 L92.00,206.50 L95.00,206.50Z M304.50,202.00 L305.00,201.50 L309.00,203.50 L316.00,208.50 L326.50,219.00 L329.00,223.50 L331.00,223.50 L334.50,220.00 L336.00,215.50 L336.50,218.00 L335.50,220.00 L331.00,224.50 L327.00,226.50 L326.50,226.00 L328.00,225.50 L328.50,224.00 L325.50,219.00 L319.00,212.50 L317.00,212.50 L316.50,212.00 L317.50,211.00 L316.00,209.50Z M42.50,203.00 L43.50,203.00 L42.00,204.50 L35.00,208.50 L32.50,211.00 L33.50,212.00 L31.00,212.50 L23.50,220.00 L21.50,225.00 L25.50,227.00 L24.00,227.50 L21.00,225.50 L20.50,226.00 L19.00,234.50 L18.50,229.00 L19.50,228.00 L19.50,225.00 L14.50,220.00 L15.00,219.50 L20.00,224.50 L22.50,220.00 L27.50,215.00 L27.50,214.00 L29.50,213.00 L30.00,211.50Z M246.50,203.00 L248.00,202.50 L255.00,206.50 L261.00,207.50 L261.00,209.50 L263.00,208.50 L265.50,209.00 L263.00,209.50 L263.00,211.50 L252.00,205.50 L247.00,204.50Z M69.50,205.00 L71.50,205.00 L69.00,206.50 L68.50,206.00Z M157.50,205.00 L158.50,205.00 L158.00,206.50Z M232.50,206.00 L233.00,205.50 L239.00,208.50 L249.00,215.50 L257.00,218.50 L257.50,219.00 L256.50,220.00 L263.50,226.00 L263.00,226.50 L250.00,216.50 L233.00,208.50 L231.50,207.00Z M280.50,206.00 L281.00,205.50 L288.50,210.00 L288.00,210.50Z M64.50,208.00 L65.50,208.00 L64.00,209.50 L60.00,211.50 L59.50,211.00Z M179.50,209.00 L180.50,209.00 L180.00,210.50Z M326.50,209.00 L328.00,208.50 L328.00,209.50 L326.00,210.50 L324.50,210.00Z M335.50,209.00 L336.50,209.00 L336.00,210.50Z M157.50,210.00 L158.50,210.00 L158.00,211.50Z M175.50,210.00 L176.50,210.00 L176.00,213.50Z M12.50,211.00 L13.50,211.00 L13.00,215.50Z M168.50,211.00 L169.50,211.00 L169.00,212.50Z M177.50,211.00 L178.50,211.00 L178.50,228.00 L179.50,229.00 L179.50,236.00 L178.50,237.00 L178.00,241.50 L177.50,220.00 L176.50,219.00Z M187.50,211.00 L188.50,211.00 L188.50,214.00 L187.50,215.00 L189.50,216.00 L189.50,219.00 L194.50,231.00 L193.50,234.00 L195.50,234.00 L194.50,237.00 L196.50,237.00 L195.50,240.00 L197.50,240.00 L197.50,242.00 L198.50,243.00 L198.50,245.00 L197.50,246.00 L199.50,247.00 L199.00,248.50 L198.00,248.50 L196.50,246.00 L196.50,244.00 L192.50,234.00 L192.50,232.00 L193.50,231.00 L191.50,230.00 L189.50,220.00 L186.50,215.00Z M289.50,211.00 L292.00,211.50 L294.00,213.50 L305.00,213.50 L305.00,214.50 L296.50,215.00 L301.00,217.50 L314.50,230.00 L319.50,237.00 L322.00,243.50 L329.00,237.50 L329.50,238.00 L322.50,244.00 L322.00,253.50 L320.50,241.00 L316.50,234.00 L313.00,230.50 L299.00,230.50 L299.00,229.50 L312.50,229.00 L301.00,218.50 L292.00,212.50 L290.00,213.50 L284.00,213.50 L284.00,212.50 L290.00,212.50 L290.50,212.00Z M57.50,212.00 L58.50,212.00 L57.00,213.50 L45.00,221.50 L37.50,229.00 L51.50,230.00 L36.00,230.50 L32.50,235.00 L29.00,242.50 L28.50,241.00 L34.50,231.00 L45.00,220.50 L52.50,215.00 L43.50,214.00 L55.00,213.50Z M180.50,212.00 L181.50,212.00 L181.00,213.50Z M264.50,212.00 L265.00,211.50 L269.00,213.50 L281.00,221.50 L285.00,225.50 L289.00,227.50 L290.00,229.50 L291.00,228.50 L296.00,228.50 L296.00,229.50 L290.50,230.00 L292.00,230.50 L298.50,237.00 L298.50,238.00 L305.50,246.00 L305.00,246.50 L302.50,244.00 L302.50,243.00 L293.00,232.50 L292.00,232.50 L288.00,228.50 L285.00,228.50 L284.50,228.00 L286.00,227.50 L286.00,226.50Z M82.50,213.00 L83.50,213.00 L82.00,214.50 L79.50,215.00Z M172.50,214.00 L173.50,214.00 L173.50,218.00 L172.50,219.00 L172.00,237.50 L171.50,234.00 L170.50,233.00 L170.50,227.00 L171.50,226.00 L171.50,216.00Z M160.50,215.00 L161.00,214.50 L162.50,216.00 L158.50,226.00 L158.50,229.00 L156.50,230.00 L157.50,231.00 L157.50,233.00 L156.50,234.00 L156.50,236.00 L154.50,236.00 L155.50,239.00 L153.50,239.00 L154.50,242.00 L152.50,242.00 L153.50,245.00 L149.00,255.50 L148.50,253.00 L149.50,252.00 L149.50,249.00 L150.50,248.00 L150.50,246.00 L152.50,245.00 L151.50,244.00 L151.50,242.00 L152.50,241.00 L155.50,230.00 L159.50,222.00Z M77.50,216.00 L78.50,216.00 L77.00,217.50 L65.00,225.50 L63.50,227.00 L64.50,228.00 L64.00,228.50 L62.00,228.50 L59.00,230.50 L50.50,239.00 L42.50,250.00 L40.00,255.50 L39.50,254.00 L45.50,244.00 L58.50,230.00 L53.50,229.00 L60.00,228.50 L62.00,227.50 L73.00,218.50Z M13.50,217.00 L14.50,217.00 L14.00,218.50Z M182.50,218.00 L183.00,217.50 L184.50,220.00 L184.50,224.00 L186.50,229.00 L186.50,232.00 L185.00,233.50Z M91.50,219.00 L93.00,218.50 L94.50,220.00 L88.00,225.50 L87.50,225.00 L93.50,220.00 L92.00,219.50 L90.00,220.50 L89.50,220.00Z M258.50,220.00 L260.00,219.50 L261.00,220.50 L275.50,225.00 L273.00,225.50Z M86.50,221.00 L88.50,221.00 L86.00,222.50 L84.00,222.50 L80.00,224.50 L77.50,224.00Z M73.50,225.00 L76.00,224.50 L76.00,225.50 L74.00,225.50 L73.00,226.50 L70.50,226.00Z M85.50,226.00 L86.50,226.00 L71.50,240.00 L73.00,240.50 L77.00,238.50 L78.50,239.00 L73.00,241.50 L71.00,240.50 L60.00,253.50 L59.50,253.00 L61.50,250.00 L66.50,244.00 L64.50,243.00 L69.00,241.50Z M264.50,227.00 L265.00,226.50 L270.00,231.50 L271.00,231.50 L282.00,242.50 L285.50,243.00 L282.50,244.00 L290.50,253.00 L294.50,260.00 L294.00,260.50 L289.50,253.00 L281.50,244.00 L281.50,243.00 L280.00,242.50 L279.00,240.50 L277.00,241.50 L276.50,241.00 L278.50,240.00Z M323.50,227.00 L325.50,227.00 L323.00,228.50 L320.50,228.00Z M329.50,227.00 L330.50,227.00 L330.00,229.50Z M96.50,230.00 L97.50,230.00 L96.00,231.50 L88.00,235.50 L86.50,235.00Z M201.50,231.00 L202.50,231.00 L201.00,232.50 L200.50,232.00Z M162.50,233.00 L164.50,233.00 L164.00,237.50 L162.50,235.00Z M202.50,233.00 L203.50,233.00 L202.50,235.00 L204.50,235.00 L207.50,241.00 L206.50,243.00 L208.50,244.00 L212.50,254.00 L214.50,256.00 L215.50,259.00 L221.50,268.00 L233.00,281.50 L233.50,279.00 L234.50,279.00 L234.50,281.00 L233.50,282.00 L235.00,282.50 L235.50,284.00 L249.50,297.00 L249.00,297.50 L239.00,288.50 L237.00,287.50 L236.50,289.00 L235.50,289.00 L234.50,284.00 L223.50,272.00 L216.50,261.00 L215.00,259.50 L214.50,261.00 L213.50,261.00 L213.50,259.00 L212.50,258.00 L213.50,256.00 L211.50,255.00 L211.50,253.00 L201.50,235.00Z M186.50,234.00 L187.50,234.00 L187.50,236.00 L186.00,239.50 L185.50,235.00Z M135.50,235.00 L136.00,234.50 L137.50,236.00 L134.50,238.00 L135.50,239.00 L129.50,247.00 L123.50,260.00 L123.00,260.50 L122.50,259.00 L125.50,254.00 L125.00,252.50 L116.50,262.00 L116.50,263.00 L109.00,270.50 L108.00,270.50 L101.00,277.50 L99.50,278.00 L100.50,279.00 L100.00,280.50 L99.00,278.50 L89.00,285.50 L88.50,285.00 L90.00,283.50 L97.00,279.50 L102.00,273.50 L103.00,274.50 L114.50,264.00 L114.50,263.00 L127.50,249.00Z M329.50,235.00 L330.50,235.00 L330.00,236.50Z M19.50,236.00 L20.50,236.00 L23.00,240.50 L30.00,244.50 L32.50,245.00 L30.00,245.50 L29.00,244.50 L28.00,246.50 L27.50,244.00 L23.00,241.50Z M83.50,236.00 L85.00,235.50 L85.00,236.50 L81.00,238.50 L79.50,238.00Z M161.50,237.00 L162.00,236.50 L163.50,239.00 L163.00,242.50 L161.50,240.00Z M169.50,237.00 L170.50,237.00 L170.50,241.00 L171.50,242.00 L171.00,250.50 L169.50,249.00Z M266.50,237.00 L268.00,236.50 L275.50,240.00 L274.00,240.50Z M187.50,238.00 L188.50,238.00 L188.50,241.00 L187.00,244.50 L186.50,241.00 L187.50,240.00Z M244.50,239.00 L245.00,238.50 L255.50,246.00 L253.00,245.50Z M179.50,240.00 L180.50,240.00 L180.50,262.00 L181.50,263.00 L180.00,271.50 L179.50,254.00 L178.50,253.00Z M142.50,241.00 L143.00,240.50 L144.50,242.00 L142.50,243.00 L143.50,244.00 L137.50,255.00 L137.50,257.00 L135.50,258.00 L136.50,260.00 L136.00,260.50 L135.50,259.00 L134.50,259.00 L125.50,273.00 L114.50,285.00 L114.50,288.00 L114.00,288.50 L113.00,286.50 L105.00,294.50 L95.50,301.00 L95.00,311.50 L94.50,302.00 L94.00,301.50 L91.00,303.50 L89.50,303.00 L93.00,301.50 L95.00,298.50 L96.00,299.50 L105.00,293.50 L114.50,284.00 L114.50,282.00 L115.00,281.50 L116.00,282.50 L120.50,278.00 L120.50,277.00 L127.50,269.00 L138.50,252.00 L138.50,250.00 L140.50,247.00 L140.50,245.00Z M160.50,242.00 L161.00,241.50 L162.50,244.00 L162.00,247.50 L160.50,246.00Z M98.50,243.00 L99.50,243.00 L98.00,244.50 L97.50,244.00Z M103.50,244.00 L104.50,244.00 L99.00,250.50 L98.50,250.00 L100.50,247.00Z M188.50,244.00 L189.50,244.00 L189.50,247.00 L188.00,248.50 L187.50,246.00Z M95.50,245.00 L96.50,245.00 L92.00,248.50 L86.00,251.50 L85.50,251.00Z M256.50,247.00 L257.00,246.50 L260.50,249.00 L260.00,249.50Z M159.50,248.00 L160.00,247.50 L161.50,249.00 L161.50,251.00 L159.50,256.00 L159.50,261.00 L158.00,262.50 L157.50,261.00 L158.50,260.00 L158.50,255.00 L159.50,254.00Z M233.50,248.00 L234.00,247.50 L237.50,252.00 L239.50,256.00 L239.00,256.50Z M305.50,248.00 L306.00,247.50 L307.50,249.00 L308.00,251.50Z M188.50,250.00 L190.50,250.00 L190.50,256.00 L191.50,257.00 L191.50,261.00 L192.50,262.00 L191.00,264.50 L190.50,257.00 L189.50,256.00Z M198.50,250.00 L200.50,250.00 L200.50,253.00 L203.50,260.00 L202.00,261.50 L201.50,257.00Z M27.50,252.00 L28.50,252.00 L28.50,254.00 L32.50,259.00 L32.00,259.50 L28.50,256.00Z M97.50,252.00 L98.50,252.00 L97.00,253.50 L96.50,253.00Z M308.50,253.00 L309.50,253.00 L311.50,257.00 L311.00,259.50Z M169.50,254.00 L170.50,254.00 L170.00,259.50Z M58.50,255.00 L59.50,255.00 L58.00,256.50 L57.50,256.00Z M95.50,255.00 L96.50,255.00 L95.00,256.50 L94.50,256.00Z M320.50,255.00 L321.50,255.00 L320.50,257.00 L316.00,260.50 L315.50,260.00 L318.00,258.50Z M38.50,257.00 L39.50,257.00 L39.00,258.50Z M147.50,257.00 L148.50,257.00 L148.50,260.00 L146.50,261.00 L147.50,262.00 L147.00,265.50 L146.50,263.00 L146.00,262.50 L145.00,264.50 L144.50,263.00Z M56.50,258.00 L57.50,258.00 L55.50,261.00 L58.50,262.00 L55.00,262.50 L53.00,266.50 L52.50,265.00 L53.50,264.00 L53.50,262.00Z M93.50,258.00 L94.50,258.00 L92.00,261.50 L91.50,261.00Z M225.50,258.00 L226.50,258.00 L228.50,262.00 L228.00,263.50Z M239.50,258.00 L240.00,257.50 L241.50,259.00 L245.50,267.00 L245.00,268.50Z M278.50,258.00 L280.00,257.50 L286.50,260.00 L284.00,260.50Z M33.50,260.00 L34.00,259.50 L36.50,261.00 L35.00,261.50Z M37.50,260.00 L38.00,259.50 L38.50,261.00 L40.50,262.00 L38.50,263.00 L38.00,269.50Z M97.50,260.00 L98.50,260.00 L96.00,262.50 L92.00,264.50 L88.50,268.00 L85.00,275.50 L84.50,274.00 L89.50,264.00 L91.00,262.50 L93.00,263.50Z M256.50,260.00 L257.00,259.50 L258.50,261.00 L259.00,263.50Z M168.50,261.00 L169.00,260.50 L170.50,263.00 L170.00,274.50Z M311.50,261.00 L314.50,261.00 L312.50,262.00 L312.00,268.50 L311.50,263.00 L309.50,262.00Z M121.50,262.00 L122.00,261.50 L122.50,263.00 L121.00,265.50 L120.50,264.00Z M134.50,262.00 L135.50,262.00 L135.00,263.50Z M203.50,262.00 L204.50,262.00 L210.50,274.00 L210.00,274.50 L208.50,273.00 L204.50,264.00 L204.00,263.50 L203.50,266.00 L202.50,266.00 L202.50,263.00Z M214.50,263.00 L215.50,263.00 L215.00,264.50Z M156.50,264.00 L157.00,263.50 L158.50,265.00 L158.00,292.50 L157.50,267.00 L156.50,267.00 L155.50,272.00 L154.50,274.00 L153.50,274.00Z M133.50,265.00 L134.50,265.00 L134.50,267.00 L133.00,270.50 L132.50,268.00 L133.50,267.00Z M192.50,265.00 L193.50,265.00 L193.00,266.50Z M228.50,265.00 L229.00,264.50 L230.50,267.00 L230.00,268.50Z M215.50,266.00 L216.50,266.00 L216.50,268.00 L217.50,269.00 L217.00,271.50Z M296.50,266.00 L297.50,266.00 L299.50,271.00 L299.00,274.50Z M119.50,267.00 L120.00,266.50 L120.50,268.00 L118.00,273.50 L117.50,272.00Z M145.50,267.00 L146.50,267.00 L146.00,271.50Z M167.50,267.00 L168.50,267.00 L168.00,270.50Z M51.50,268.00 L52.00,267.50 L52.50,269.00 L51.00,272.50 L50.50,270.00Z M85.50,268.00 L86.50,268.00 L85.00,269.50 L75.00,274.50 L73.50,274.00Z M193.50,268.00 L194.50,268.00 L194.00,269.50Z M203.50,268.00 L204.50,268.00 L204.00,272.50Z M181.50,269.00 L182.50,269.00 L182.00,271.50Z M191.50,269.00 L192.50,269.00 L192.00,288.50Z M230.50,270.00 L231.50,270.00 L231.00,271.50Z M310.50,270.00 L311.50,270.00 L310.50,273.00 L308.00,275.50 L304.00,277.50 L304.00,276.50 L309.50,273.00Z M194.50,271.00 L195.50,271.00 L195.00,272.50Z M131.50,272.00 L132.50,272.00 L132.50,275.00 L131.50,276.00 L131.00,279.50 L130.50,276.00 L131.50,275.00Z M140.50,272.00 L141.50,272.00 L138.50,278.00 L135.00,282.50 L135.50,280.00 L137.50,278.00Z M166.50,272.00 L167.50,272.00 L167.00,275.50Z M270.50,272.00 L272.00,271.50 L276.50,274.00 L275.00,274.50Z M39.50,273.00 L40.00,272.50 L43.00,275.50 L46.50,277.00 L45.00,277.50 L43.00,276.50Z M144.50,273.00 L145.50,273.00 L145.00,278.50Z M182.50,273.00 L183.50,273.00 L183.00,276.50Z M217.50,273.00 L218.50,273.00 L218.00,276.50Z M231.50,273.00 L232.50,273.00 L232.00,274.50Z M281.50,273.00 L282.50,273.00 L284.00,276.50 L291.50,278.00 L287.00,278.50 L285.00,277.50 L285.00,284.50 L283.50,278.00 L282.00,276.50 L280.00,276.50 L277.50,275.00 L279.00,274.50 L280.00,275.50 L282.00,275.50Z M49.50,274.00 L50.50,274.00 L50.50,283.00 L51.50,284.00 L51.50,286.00 L56.50,291.00 L56.00,291.50 L54.00,290.50 L50.50,286.00 L49.50,279.00 L47.50,278.00 L49.50,277.00Z M195.50,274.00 L196.50,274.00 L196.00,275.50Z M66.50,275.00 L67.00,274.50 L69.50,276.00 L66.50,277.00 L65.00,283.50 L64.50,280.00 L65.50,278.00 L63.50,277.00 L66.00,276.50Z M116.50,275.00 L117.50,275.00 L117.50,277.00 L116.00,280.50 L115.50,278.00 L116.50,277.00Z M178.50,275.00 L179.50,275.00 L179.00,281.50Z M204.50,275.00 L205.50,275.00 L205.00,280.50Z M264.50,275.00 L265.00,274.50 L266.50,277.00 L266.00,278.50Z M152.50,276.00 L153.00,275.50 L153.50,277.00 L152.00,279.50 L151.50,278.00Z M210.50,276.00 L211.00,275.50 L212.50,277.00 L213.50,280.00 L216.50,284.00 L216.00,284.50Z M232.50,276.00 L233.50,276.00 L233.00,277.50Z M299.50,276.00 L300.00,275.50 L300.50,277.00 L302.50,278.00 L300.50,279.00 L300.00,281.50 L298.50,278.00Z M83.50,277.00 L84.00,276.50 L84.50,278.00 L83.00,280.50 L82.50,279.00Z M165.50,277.00 L166.50,277.00 L166.00,279.50Z M170.50,277.00 L171.50,277.00 L171.00,283.50Z M196.50,277.00 L197.50,277.00 L199.50,281.00 L199.00,282.50Z M183.50,278.00 L184.50,278.00 L184.00,280.50Z M218.50,278.00 L219.50,278.00 L219.00,280.50Z M249.50,280.00 L250.50,280.00 L250.00,281.50Z M266.50,280.00 L267.00,279.50 L268.50,282.00 L268.00,284.50Z M129.50,281.00 L130.50,281.00 L130.00,285.50Z M143.50,281.00 L144.50,281.00 L144.50,293.00 L145.50,294.00 L144.50,295.00 L144.00,307.50 L143.50,299.00 L141.50,299.00 L143.50,296.00Z M150.50,281.00 L151.00,280.50 L151.50,282.00 L149.00,286.50 L148.50,285.00Z M164.50,281.00 L165.50,281.00 L165.00,283.50Z M81.50,282.00 L82.50,282.00 L82.00,283.50Z M98.50,282.00 L99.50,282.00 L99.00,283.50Z M184.50,282.00 L185.50,282.00 L185.50,284.00 L186.50,285.00 L186.00,287.50Z M177.50,283.00 L178.50,283.00 L178.00,287.50Z M219.50,283.00 L220.50,283.00 L220.00,286.50Z M250.50,283.00 L251.50,283.00 L251.00,284.50Z M257.50,283.00 L260.00,283.50 L262.00,285.50 L268.00,288.50 L269.00,285.50 L269.50,289.00 L274.50,291.00 L273.00,291.50 L271.00,290.50 L270.00,293.50 L269.00,289.50 L262.00,286.50Z M298.50,283.00 L299.50,283.00 L298.50,287.00 L294.00,291.50 L291.00,292.50 L291.00,291.50 L294.00,290.50 L297.50,287.00Z M133.50,284.00 L134.50,284.00 L133.50,286.00 L131.00,288.50 L130.50,288.00Z M199.50,284.00 L200.50,284.00 L205.00,293.50 L205.50,284.00 L206.50,284.00 L206.50,297.00 L209.50,301.00 L209.00,301.50 L207.50,299.00 L206.50,299.00 L206.00,305.50 L205.50,296.00Z M63.50,285.00 L64.50,285.00 L64.50,292.00 L69.50,293.00 L64.50,294.00 L65.50,299.00 L67.50,302.00 L72.00,304.50 L72.00,305.50 L69.00,304.50 L66.50,302.00 L64.50,299.00 L63.50,294.00 L60.50,293.00 L63.50,292.00Z M80.50,285.00 L81.50,285.00 L81.00,287.50Z M97.50,285.00 L98.50,285.00 L98.00,287.50Z M163.50,285.00 L164.50,285.00 L164.00,286.50Z M171.50,285.00 L172.50,285.00 L172.00,289.50Z M86.50,286.00 L87.50,286.00 L86.00,287.50 L81.00,289.50 L80.00,291.50 L78.00,290.50 L74.00,292.50 L71.50,292.00 L77.00,290.50Z M216.50,286.00 L217.00,285.50 L220.00,289.50 L221.00,288.50 L221.50,289.00 L221.50,292.00 L237.00,308.50 L237.50,298.00 L238.50,298.00 L238.50,309.00 L240.50,311.00 L238.50,311.00 L238.00,315.50 L237.50,310.00 L222.00,293.50 L221.50,295.00 L220.50,295.00 L220.50,291.00Z M251.50,286.00 L252.50,286.00 L252.00,288.50Z M285.50,286.00 L286.50,286.00 L286.50,292.00 L289.50,293.00 L286.50,294.00 L284.50,300.00 L279.00,305.50 L278.00,305.50 L277.50,305.00 L279.00,304.50 L284.50,298.00 L285.50,294.00 L279.50,293.00 L285.50,292.00Z M128.50,287.00 L129.50,287.00 L129.50,289.00 L130.50,290.00 L127.50,294.00 L128.50,295.00 L128.50,312.00 L127.50,312.00 L127.00,294.50 L123.50,298.00 L123.50,299.00 L111.50,310.00 L112.50,311.00 L112.00,317.50 L111.00,310.50 L107.00,313.50 L101.00,316.50 L99.00,316.50 L97.50,318.00 L101.00,323.50 L106.50,326.00 L104.00,326.50 L101.00,324.50 L98.50,322.00 L97.50,319.00 L94.50,317.00 L101.00,315.50 L107.00,312.50 L115.00,306.50 L127.50,293.00 L128.50,291.00Z M162.50,288.00 L163.50,288.00 L163.00,289.50Z M96.50,289.00 L97.50,289.00 L97.00,291.50Z M186.50,289.00 L187.50,289.00 L187.00,290.50Z M112.50,290.00 L113.50,290.00 L113.00,293.50Z M176.50,290.00 L177.50,290.00 L177.00,293.50Z M252.50,290.00 L253.50,290.00 L253.00,292.50Z M161.50,291.00 L162.50,291.00 L162.00,292.50Z M172.50,291.00 L173.50,291.00 L173.00,294.50Z M236.50,291.00 L237.50,291.00 L237.00,295.50Z M187.50,292.00 L188.50,292.00 L188.00,293.50Z M95.50,293.00 L96.50,293.00 L96.00,296.50Z M190.50,293.00 L191.50,293.00 L191.50,301.00 L201.50,319.00 L202.00,319.50 L203.00,318.50 L204.50,323.00 L213.00,330.50 L215.00,331.50 L215.50,330.00 L217.00,328.50 L217.50,329.00 L216.50,330.00 L216.50,332.00 L218.50,333.00 L217.00,333.50 L215.00,332.50 L214.50,334.00 L209.00,338.50 L206.50,338.00 L212.00,335.50 L214.50,332.00 L210.00,329.50 L203.50,323.00 L196.50,313.00 L191.50,302.00 L190.50,302.00 L190.50,305.00 L189.50,305.00 L189.50,301.00 L190.50,299.00 L188.50,295.00 L189.00,294.50 L190.00,296.50Z M78.50,294.00 L79.50,294.00 L79.50,305.00 L82.50,306.00 L81.00,306.50 L80.00,308.50 L79.00,306.50 L73.50,306.00 L78.50,305.00Z M160.50,294.00 L161.50,294.00 L161.00,295.50Z M253.50,294.00 L254.50,294.00 L254.00,298.50Z M158.50,295.00 L159.00,294.50 L160.50,297.00 L159.00,300.50Z M175.50,295.00 L176.50,295.00 L176.00,297.50Z M111.50,296.00 L112.50,296.00 L112.00,303.50Z M173.50,296.00 L174.50,296.00 L174.50,298.00 L175.50,299.00 L175.50,302.00 L176.50,303.00 L176.00,305.50 L175.00,302.50 L174.50,304.00 L173.50,304.00 L173.50,302.00 L174.50,301.00Z M270.50,296.00 L271.50,296.00 L271.00,303.50Z M250.50,298.00 L251.00,297.50 L252.50,299.00 L252.00,299.50Z M221.50,299.00 L222.50,299.00 L222.00,309.50Z M253.50,300.00 L254.00,299.50 L262.50,304.00 L261.00,304.50 L256.00,301.50 L255.00,309.50 L254.50,301.00Z M140.50,301.00 L141.50,301.00 L140.50,303.00 L135.50,310.00 L129.50,316.00 L129.50,318.00 L129.00,318.50 L128.00,317.50 L124.00,321.50 L119.00,324.50 L118.50,324.00 L120.00,322.50 L124.00,320.50 L128.50,316.00 L128.50,315.00 L134.50,310.00Z M159.50,303.00 L160.50,303.00 L160.00,306.50Z M209.50,303.00 L210.00,302.50 L211.50,304.00 L211.00,304.50Z M86.50,304.00 L88.50,304.00 L86.00,305.50 L83.50,305.00Z M156.50,304.00 L157.00,303.50 L157.50,305.00 L154.00,310.50 L153.50,310.00Z M172.50,306.00 L173.50,306.00 L173.00,307.50Z M211.50,306.00 L212.00,305.50 L220.00,314.50 L221.00,312.50 L221.50,316.00 L229.50,323.00 L227.00,322.50 L222.00,317.50 L221.00,317.50Z M267.50,306.00 L276.50,306.00 L271.00,306.50 L268.50,312.00 L264.00,316.50 L259.00,317.50 L259.00,316.50 L264.00,315.50 L267.50,312.00 L269.50,308.00 L269.50,307.00Z M176.50,307.00 L177.00,306.50 L178.50,309.00 L178.50,311.00 L179.50,312.00 L179.00,313.50Z M188.50,307.00 L189.50,307.00 L189.00,309.50Z M160.50,308.00 L161.50,308.00 L161.00,310.50Z M204.50,308.00 L205.50,308.00 L205.00,312.50Z M171.50,309.00 L172.50,309.00 L171.50,313.00 L166.50,322.00 L166.50,325.00 L170.50,332.00 L175.00,336.50 L178.50,333.00 L183.00,325.50 L183.50,326.00 L181.50,330.00 L175.50,337.00 L181.00,340.50 L188.00,340.50 L192.00,338.50 L194.50,336.00 L183.50,324.00 L185.00,320.50 L185.50,322.00 L184.50,323.00 L185.50,325.00 L195.00,335.50 L198.50,331.00 L199.50,328.00 L200.50,328.00 L199.50,331.00 L196.50,335.00 L196.50,336.00 L200.00,337.50 L200.00,338.50 L195.00,336.50 L192.00,339.50 L188.00,341.50 L181.00,341.50 L175.00,337.50 L174.00,338.50 L173.50,338.00 L174.50,337.00 L169.50,332.00 L166.50,326.00 L164.50,324.00 L164.50,322.00 L166.50,321.00 L170.50,313.00Z M80.50,310.00 L81.00,309.50 L86.00,315.50 L90.50,317.00 L88.00,317.50 L86.00,316.50 L80.50,311.00Z M144.50,310.00 L145.50,310.00 L145.00,314.50Z M187.50,311.00 L188.50,311.00 L188.00,313.50Z M152.50,312.00 L153.50,312.00 L151.50,316.00 L149.00,318.50 L148.50,318.00Z M161.50,312.00 L162.50,312.00 L162.00,314.50Z M241.50,312.00 L242.00,311.50 L250.50,316.00 L249.00,316.50Z M253.50,312.00 L254.50,312.00 L254.50,315.00 L253.50,316.00 L255.50,317.00 L254.00,317.50 L247.00,325.50 L246.50,325.00 L252.50,318.00 L251.50,317.00 L253.50,315.00Z M95.50,313.00 L96.50,313.00 L96.00,315.50Z M179.50,315.00 L180.50,315.00 L183.50,321.00 L183.00,321.50 L181.50,320.00Z M186.50,315.00 L187.50,315.00 L187.50,317.00 L186.00,319.50 L185.50,318.00 L186.50,317.00Z M203.50,315.00 L204.50,315.00 L204.00,317.50Z M145.50,316.00 L146.50,316.00 L146.00,318.50Z M162.50,316.00 L163.50,316.00 L163.00,317.50Z M236.50,318.00 L237.50,318.00 L237.00,320.50Z M112.50,319.00 L113.50,319.00 L114.50,324.00 L117.50,325.00 L115.50,326.00 L117.50,329.00 L120.00,331.50 L123.00,332.50 L123.00,333.50 L120.00,332.50 L115.00,326.50 L112.50,326.00 L114.50,325.00 L113.50,324.00Z M163.50,319.00 L164.50,319.00 L164.00,320.50Z M219.50,319.00 L220.50,319.00 L220.50,322.00 L218.00,327.50 L217.50,326.00 L219.50,322.00Z M129.50,320.00 L130.50,320.00 L130.00,322.50Z M146.50,320.00 L148.50,320.00 L147.50,321.00 L148.50,325.00 L154.00,334.50 L156.00,334.50 L161.50,329.00 L161.50,328.00 L164.00,325.50 L164.50,326.00 L155.50,336.00 L158.50,339.00 L158.00,339.50 L155.00,336.50 L151.00,338.50 L148.50,338.00 L153.00,336.50 L153.50,335.00 L151.50,333.00 L147.00,322.50 L146.00,322.50 L142.00,327.50 L138.00,330.50 L137.50,330.00 L146.50,321.00Z M235.50,322.00 L236.50,322.00 L235.50,325.00 L237.50,326.00 L235.00,326.50 L231.00,331.50 L227.00,333.50 L226.50,333.00 L231.00,330.50 L233.50,327.00 L233.50,326.00 L230.50,324.00 L231.00,323.50 L234.00,325.50Z M201.50,323.00 L202.00,322.50 L202.50,324.00 L201.00,326.50 L200.50,325.00Z M130.50,324.00 L131.50,324.00 L131.00,325.50Z M131.50,327.00 L132.50,327.00 L135.00,331.50 L136.00,330.50 L136.50,331.00 L135.50,333.00 L139.00,336.50 L147.50,339.00 L144.00,339.50 L143.00,338.50 L141.00,338.50 L134.00,332.50 L133.00,333.50 L131.00,333.50 L131.00,332.50 L133.50,332.00Z M171.50,339.00 L172.50,339.00 L171.00,340.50 L169.50,340.00Z" fill="#000000" fill-rule="evenodd" stroke="none"/>
</svg>
