<svg xmlns="http://www.w3.org/2000/svg" viewBox="0 0 1400 1400">
  <path d="M693.50,349.00 L723.00,348.50 L724.00,349.50 L736.00,349.50 L737.00,350.50 L742.00,350.50 L743.00,351.50 L755.00,352.50 L762.00,355.50 L769.50,363.00 L769.50,365.00 L770.50,366.00 L770.50,372.00 L769.50,373.00 L769.50,375.00 L761.50,389.00 L754.50,397.00 L754.50,398.00 L748.50,404.00 L748.50,405.00 L735.50,419.00 L730.50,426.00 L728.50,427.00 L729.50,428.00 L724.50,432.00 L722.50,435.00 L723.50,437.00 L722.00,438.50 L721.00,437.50 L719.00,439.50 L718.50,439.00 L721.50,434.00 L750.50,401.00 L750.50,400.00 L761.50,387.00 L766.50,378.00 L768.50,368.00 L764.00,359.50 L761.00,358.50 L757.00,355.50 L755.00,355.50 L751.00,353.50 L747.00,353.50 L746.00,352.50 L742.00,352.50 L741.00,351.50 L735.00,351.50 L734.00,350.50 L724.00,350.50 L723.00,349.50 L722.00,350.50 L721.00,349.50Z M577.50,357.00 L578.50,357.00 L577.00,358.50 L570.50,358.00Z M480.50,371.00 L482.50,371.00 L480.00,372.50 L475.50,372.00Z M626.50,374.00 L628.50,374.00 L626.00,375.50 L625.50,375.00Z M623.50,375.00 L624.50,375.00 L624.00,376.50Z M453.50,376.00 L454.50,376.00 L454.00,377.50Z M614.50,378.00 L615.00,377.50 L616.50,379.00 L616.00,379.50 L610.00,380.50 L607.00,382.50 L603.50,383.00 L604.50,382.00 L603.50,381.00 L604.00,380.50 L606.00,380.50 L607.00,379.50 L612.00,379.50Z M599.50,382.00 L602.00,381.50 L602.50,383.00 L601.00,384.50 L601.00,382.50 L597.00,383.50 L597.00,382.50Z M593.50,383.00 L594.50,383.00 L594.00,384.50 L591.50,384.00Z M302.50,415.00 L305.50,415.00 L303.00,416.50 L289.00,420.50 L278.00,425.50 L275.50,425.00Z M270.50,427.00 L272.00,426.50 L272.00,427.50 L266.00,430.50 L264.00,430.50 L263.00,431.50 L261.50,431.00Z M258.50,432.00 L259.50,432.00 L258.00,433.50 L254.00,435.50 L252.50,435.00Z M249.50,436.00 L251.00,435.50 L251.00,436.50 L241.00,441.50 L239.50,441.00 L241.00,439.50 L243.00,439.50Z M721.50,436.00 L722.50,436.00 L722.00,437.50Z M716.50,440.00 L717.00,439.50 L719.50,442.00 L719.00,442.50 L718.00,441.50 L714.00,444.50 L713.50,444.00 L717.50,441.00Z M234.50,443.00 L236.50,443.00 L235.00,444.50 L233.50,444.00Z M229.50,446.00 L230.50,446.00 L229.00,447.50 L228.50,447.00Z M711.50,447.00 L712.00,446.50 L713.50,448.00 L713.00,448.50 L712.00,447.50 L711.00,448.50 L710.50,448.00Z M222.50,449.00 L224.50,449.00 L222.00,450.50 L221.50,450.00Z M217.50,452.00 L218.50,452.00 L217.00,453.50 L211.00,456.50 L210.50,456.00Z M707.50,452.00 L708.50,452.00 L707.00,453.50 L706.50,453.00Z M202.50,460.00 L205.00,459.50 L205.00,460.50 L203.00,460.50 L201.00,462.50 L198.50,463.00Z M704.50,463.00 L705.50,463.00 L705.00,464.50 L703.50,464.00Z M196.50,464.00 L197.50,464.00 L196.00,465.50 L195.50,465.00Z M707.50,466.00 L708.50,466.00 L708.00,467.50Z M191.50,467.00 L192.50,467.00 L190.00,469.50 L187.50,470.00Z M695.50,468.00 L696.50,468.00 L696.00,469.50Z M185.50,471.00 L186.50,471.00 L185.00,472.50 L182.00,474.50 L181.50,474.00Z M693.50,472.00 L694.50,472.00 L693.00,473.50 L692.50,473.00Z M179.50,475.00 L180.50,475.00 L179.00,476.50 L176.00,478.50 L175.50,478.00Z M173.50,479.00 L174.50,479.00 L172.00,481.50 L170.50,481.00Z M686.50,483.00 L687.50,483.00 L687.00,484.50Z M166.50,484.00 L167.50,484.00 L165.00,486.50 L164.50,486.00Z M684.50,487.00 L685.50,487.00 L685.00,488.50Z M161.50,488.00 L162.50,488.00 L161.00,489.50 L160.50,489.00Z M158.50,490.00 L159.50,490.00 L158.00,491.50 L157.50,491.00Z M682.50,492.00 L683.50,492.00 L682.00,493.50 L681.50,493.00Z M217.50,494.00 L221.00,493.50 L221.50,496.00 L220.00,497.50 L220.50,495.00Z M152.50,495.00 L153.50,495.00 L151.00,497.50 L150.50,497.00Z M216.50,499.00 L217.50,499.00 L216.00,500.50 L215.50,500.00Z M678.50,501.00 L679.50,501.00 L678.00,503.50 L677.50,502.00Z M144.50,502.00 L145.50,502.00 L143.00,504.50 L141.50,504.00Z M137.50,508.00 L138.50,508.00 L128.00,518.50 L127.50,518.00Z M675.50,508.00 L676.50,508.00 L676.00,509.50Z M693.50,511.00 L694.50,511.00 L694.00,512.50Z M181.50,517.00 L183.00,516.50 L183.50,518.00 L183.00,518.50Z M694.50,522.00 L695.50,522.00 L695.50,524.00 L694.00,525.50 L692.50,523.00 L693.00,522.50 L694.00,523.50Z M121.50,524.00 L122.50,524.00 L117.00,530.50 L116.50,529.00Z M670.50,527.00 L671.50,527.00 L671.00,528.50Z M114.50,531.00 L115.00,530.50 L115.50,532.00 L113.00,533.50 L112.50,533.00 L114.00,532.50Z M111.50,535.00 L112.50,535.00 L110.00,537.50 L109.50,537.00Z M106.50,541.00 L107.50,541.00 L105.00,543.50 L104.50,543.00Z M102.50,546.00 L103.50,546.00 L101.00,548.50 L100.50,548.00Z M102.50,549.00 L103.00,548.50 L104.50,550.00 L103.00,550.50Z M668.50,550.00 L669.50,550.00 L669.00,551.50Z M98.50,551.00 L99.50,551.00 L97.00,554.50 L96.50,553.00Z M100.50,553.00 L101.50,553.00 L100.00,554.50 L99.50,554.00Z M668.50,553.00 L669.50,553.00 L669.00,554.50Z M94.50,556.00 L95.00,555.50 L95.50,557.00 L89.50,564.00 L80.50,580.00 L78.00,582.50 L78.50,579.00 L80.50,578.00 L83.50,572.00 L87.50,567.00 L88.50,564.00Z M668.50,563.00 L669.50,563.00 L669.00,565.50Z M84.50,565.00 L85.50,565.00 L84.00,566.50 L83.50,566.00Z M87.50,571.00 L88.50,571.00 L87.00,572.50 L86.50,572.00Z M78.50,573.00 L79.00,572.50 L79.50,574.00 L78.00,576.50 L77.50,575.00Z M670.50,574.00 L671.50,574.00 L671.00,576.50Z M671.50,579.00 L672.50,579.00 L672.00,580.50Z M75.50,581.00 L76.50,581.00 L75.50,582.00 L75.50,584.00 L77.50,584.00 L72.50,593.00 L74.50,595.00 L74.00,595.50 L73.00,594.50 L72.50,596.00 L74.00,597.50 L76.00,595.50 L76.50,596.00 L72.00,602.50 L71.50,602.00 L73.50,598.00 L70.50,595.00 L72.50,594.00 L71.50,593.00 L75.50,586.00 L75.00,584.50 L74.00,585.50 L73.50,585.00Z M674.50,593.00 L675.00,592.50 L676.50,594.00 L676.00,594.50Z M69.50,597.00 L70.50,597.00 L68.50,600.00 L68.50,602.00 L67.00,602.50 L66.50,602.00Z M677.50,601.00 L678.00,600.50 L679.50,602.00 L679.00,602.50Z M66.50,604.00 L67.00,603.50 L68.50,605.00 L68.00,605.50 L67.00,604.50 L65.50,606.00 L66.00,607.50 L67.00,606.50 L67.50,607.00 L64.50,609.00 L65.50,611.00 L65.00,611.50 L64.00,610.50 L63.50,612.00 L64.50,613.00 L62.50,613.00 L62.50,614.00 L64.50,615.00 L63.00,615.50 L62.00,614.50 L61.50,616.00 L63.50,617.00 L62.00,617.50 L60.50,615.00 L64.50,608.00 L64.50,606.00Z M59.50,618.00 L60.00,617.50 L61.00,619.50 L62.00,618.50 L62.50,619.00 L59.50,624.00 L59.50,626.00 L57.50,630.00 L57.00,630.50 L56.00,628.50 L55.00,630.50 L54.50,629.00 L55.50,627.00 L57.50,627.00 L56.50,625.00 L58.50,624.00 L57.50,622.00 L58.00,621.50 L59.00,623.50 L60.50,621.00Z M687.50,624.00 L688.00,623.50 L689.50,625.00 L690.00,627.50Z M55.50,632.00 L56.00,631.50 L56.50,633.00 L54.50,636.00 L54.50,638.00 L52.50,640.00 L52.50,643.00 L47.50,656.00 L46.50,664.00 L44.50,667.00 L43.50,675.00 L41.50,679.00 L41.50,685.00 L40.50,686.00 L40.50,690.00 L39.50,691.00 L39.50,700.00 L37.50,705.00 L38.50,707.00 L37.50,708.00 L36.50,733.00 L35.50,734.00 L36.50,735.00 L36.50,753.00 L35.50,754.00 L36.50,755.00 L36.50,763.00 L37.50,764.00 L37.50,774.00 L38.50,775.00 L39.50,788.00 L40.50,789.00 L42.50,803.00 L43.50,804.00 L43.50,807.00 L45.50,812.00 L45.50,816.00 L47.50,820.00 L47.50,823.00 L48.50,824.00 L53.50,841.00 L55.50,844.00 L57.50,851.00 L60.50,856.00 L60.50,858.00 L68.50,874.00 L70.50,876.00 L74.50,884.00 L76.50,885.00 L75.50,886.00 L79.50,891.00 L80.50,894.00 L82.50,896.00 L82.00,896.50 L79.50,894.00 L78.50,891.00 L69.50,878.00 L61.50,861.00 L59.50,859.00 L59.50,857.00 L56.50,852.00 L54.50,844.00 L52.50,842.00 L52.50,840.00 L47.50,827.00 L47.50,824.00 L45.50,820.00 L45.50,817.00 L44.50,816.00 L44.50,813.00 L43.50,812.00 L43.50,809.00 L41.50,804.00 L39.50,790.00 L37.50,786.00 L38.50,785.00 L38.50,783.00 L37.50,782.00 L37.50,776.00 L35.50,774.00 L36.50,773.00 L35.50,771.00 L36.50,770.00 L36.50,768.00 L35.50,767.00 L36.50,765.00 L35.50,764.00 L35.50,755.00 L34.50,754.00 L35.50,753.00 L34.50,751.00 L35.50,750.00 L34.50,749.00 L35.50,747.00 L34.50,745.00 L34.50,734.00 L35.50,733.00 L34.50,732.00 L35.50,731.00 L34.50,730.00 L35.50,729.00 L34.50,728.00 L35.50,727.00 L35.50,723.00 L34.50,721.00 L35.50,720.00 L35.50,714.00 L36.50,713.00 L35.50,712.00 L35.50,710.00 L36.50,709.00 L36.50,701.00 L37.50,700.00 L37.50,694.00 L38.50,693.00 L38.50,689.00 L39.50,688.00 L38.50,687.00 L40.50,682.00 L41.50,673.00 L42.50,672.00 L44.50,661.00 L46.50,657.00 L46.50,654.00 L48.50,652.00 L47.50,650.00 L49.50,648.00 L48.50,647.00 L50.50,646.00 L49.50,645.00 L51.50,643.00 L50.50,642.00 L51.50,638.00 L52.50,636.00 L54.50,635.00 L54.50,633.00Z M692.50,633.00 L693.00,632.50 L694.50,634.00 L694.00,635.50Z M695.50,639.00 L696.00,638.50 L699.50,643.00 L699.00,644.50Z M699.50,646.00 L700.00,645.50 L701.50,647.00 L701.00,647.50Z M701.50,649.00 L702.00,648.50 L703.50,650.00 L703.00,651.50Z M708.50,660.00 L709.50,660.00 L709.00,661.50Z M715.50,672.00 L716.00,671.50 L717.50,673.00 L717.00,674.50Z M718.50,676.00 L719.00,675.50 L721.50,679.00 L722.00,681.50Z M708.50,677.00 L714.00,676.50 L718.00,678.50 L722.00,684.50 L723.00,682.50 L724.50,684.00 L722.50,685.00 L724.50,687.00 L725.50,695.00 L726.50,696.00 L725.50,697.00 L726.50,698.00 L725.50,700.00 L726.50,701.00 L725.50,702.00 L725.50,709.00 L724.50,710.00 L724.50,714.00 L723.50,715.00 L725.50,717.00 L723.50,717.00 L723.50,719.00 L721.50,723.00 L721.50,726.00 L718.50,733.00 L718.50,736.00 L706.00,769.50 L705.50,768.00 L706.50,767.00 L708.50,759.00 L710.50,756.00 L710.50,754.00 L711.50,753.00 L711.50,751.00 L712.50,750.00 L712.50,748.00 L720.50,726.00 L721.50,719.00 L722.50,718.00 L722.50,716.00 L718.50,713.00 L719.00,712.50 L722.00,714.50 L723.50,713.00 L723.50,708.00 L724.50,707.00 L724.50,696.00 L723.50,695.00 L722.50,688.00 L721.50,686.00 L715.00,680.50 L713.00,680.50 L712.00,679.50 L706.00,679.50 L705.00,680.50 L704.00,679.50 L700.00,681.50 L697.50,684.00 L697.50,686.00 L696.50,687.00 L696.50,691.00 L700.50,698.00 L707.00,704.50 L708.00,704.50 L711.50,708.00 L711.00,708.50 L707.00,705.50 L696.50,694.00 L696.50,692.00 L695.50,691.00 L695.50,685.00 L697.50,682.00 L702.00,678.50 L704.00,678.50 L705.00,677.50 L706.00,678.50Z M725.50,688.00 L726.00,687.50 L727.50,689.00 L727.00,690.50Z M150.50,689.00 L151.00,688.50 L153.50,691.00 L153.00,691.50Z M160.50,692.00 L165.00,691.50 L166.00,692.50 L169.00,692.50 L170.50,694.00 L169.00,694.50 L168.00,693.50 L167.50,695.00 L171.00,698.50 L175.50,701.00 L175.00,701.50 L167.00,697.50 L164.00,695.50 L162.00,692.50 L161.00,693.50Z M728.50,693.00 L729.00,692.50 L730.50,694.00 L732.50,698.00 L732.00,698.50Z M173.50,695.00 L175.00,694.50 L184.50,698.00 L182.00,698.50Z M733.50,702.00 L734.00,701.50 L735.50,703.00 L735.00,703.50Z M736.50,707.00 L737.00,706.50 L738.50,708.00 L739.00,711.50Z M190.50,709.00 L191.00,708.50 L196.50,711.00 L194.00,711.50Z M712.50,709.00 L713.00,708.50 L714.50,710.00 L714.00,710.50Z M715.50,711.00 L716.00,710.50 L717.50,712.00 L717.00,712.50Z M739.50,714.00 L740.00,713.50 L741.50,715.00 L744.50,721.00 L744.50,723.00 L746.50,726.00 L746.00,728.50 L744.50,727.00 L745.50,726.00 L743.50,723.00 L743.50,721.00Z M206.50,716.00 L208.00,715.50 L209.50,717.00 L209.00,717.50Z M727.50,718.00 L728.00,717.50 L731.50,720.00 L731.00,720.50Z M732.50,721.00 L734.00,720.50 L735.50,722.00 L735.00,722.50Z M737.50,723.00 L738.00,722.50 L740.50,724.00 L739.00,724.50Z M741.50,725.00 L742.00,724.50 L743.50,726.00 L743.00,726.50Z M247.50,732.00 L248.00,731.50 L249.50,733.00 L249.00,733.50Z M727.50,749.00 L728.00,748.50 L730.50,751.00 L730.00,752.50Z M731.50,753.00 L732.00,752.50 L733.50,754.00 L733.00,754.50 L732.00,753.50 L731.00,754.50 L730.50,754.00Z M737.50,760.00 L739.00,759.50 L743.00,763.50 L747.00,765.50 L748.50,767.00 L748.50,769.00 L746.00,768.50 L739.00,761.50 L738.00,761.50Z M749.50,769.00 L751.00,768.50 L754.50,772.00 L754.00,772.50 L752.00,770.50 L751.00,772.50Z M704.50,771.00 L705.00,770.50 L705.50,772.00 L704.50,773.00 L703.50,778.00 L702.00,779.50 L701.50,779.00Z M758.50,775.00 L760.00,774.50 L760.50,776.00 L760.00,776.50Z M35.50,778.00 L36.50,778.00 L36.00,779.50Z M700.50,781.00 L701.50,781.00 L701.50,783.00 L700.50,784.00 L698.50,792.00 L696.50,795.00 L694.50,803.00 L692.50,806.00 L690.50,814.00 L688.00,818.50 L687.50,817.00 L688.50,816.00 L689.50,811.00 L691.50,808.00 L692.50,803.00 L694.50,800.00 L696.50,792.00 L698.50,789.00Z M745.50,785.00 L746.50,785.00 L746.00,786.50Z M416.50,811.00 L438.00,810.50 L439.00,811.50 L445.00,811.50 L446.50,813.00 L439.00,812.50 L438.00,811.50 L419.00,811.50 L418.00,812.50 L415.00,812.50 L411.50,815.00 L413.00,817.50 L417.00,818.50 L420.00,820.50 L423.00,820.50 L428.00,822.50 L432.00,822.50 L433.00,823.50 L437.00,823.50 L438.00,824.50 L442.00,824.50 L442.00,825.50 L438.00,825.50 L437.00,824.50 L432.00,824.50 L431.00,823.50 L417.00,821.50 L416.00,820.50 L409.00,819.50 L405.00,817.50 L403.50,816.00 L405.00,814.50 L409.00,812.50 L410.00,813.50 L412.00,811.50Z M447.50,813.00 L451.00,812.50 L452.50,814.00Z M453.50,814.00 L456.00,813.50 L458.50,815.00 L457.00,815.50Z M407.50,815.00 L408.00,814.50 L409.50,817.00 L409.00,818.50 L405.50,816.00Z M468.50,818.00 L471.00,817.50 L476.50,820.00 L475.00,820.50Z M686.50,820.00 L687.50,820.00 L687.50,822.00 L685.00,826.50 L684.50,825.00 L686.50,822.00Z M481.50,822.00 L483.00,821.50 L485.50,823.00 L484.00,823.50Z M448.50,826.00 L453.50,827.00 L449.00,827.50Z M493.50,827.00 L495.00,826.50 L497.50,828.00 L496.00,828.50Z M454.50,828.00 L460.00,827.50 L461.00,828.50 L466.00,828.50 L467.00,829.50 L472.00,829.50 L473.00,830.50 L478.00,830.50 L479.00,831.50 L483.50,832.00 L479.00,832.50 L478.00,831.50 L473.00,831.50 L472.00,830.50 L467.00,830.50 L466.00,829.50 L461.00,829.50 L460.00,828.50Z M683.50,828.00 L684.00,827.50 L684.50,829.00 L683.00,832.50 L682.50,830.00Z M502.50,831.00 L503.00,830.50 L504.50,832.00 L504.00,832.50Z M506.50,833.00 L509.00,833.50 L517.00,839.50 L518.00,838.50 L519.50,839.00 L517.00,840.50 L515.00,838.50 L513.00,838.50 L512.00,836.50 L511.00,837.50 L504.00,836.50 L504.00,835.50 L506.00,835.50 L507.00,836.50 L510.50,836.00Z M490.50,834.00 L495.00,833.50 L496.00,834.50 L500.50,835.00 L496.00,835.50 L495.00,834.50Z M681.50,834.00 L682.00,833.50 L682.50,835.00 L680.50,838.00 L678.50,845.00 L676.50,847.00 L673.50,857.00 L672.00,857.50 L671.00,859.50 L670.50,858.00 L675.50,849.00 L675.50,847.00 L678.50,842.00 L678.50,840.00Z M520.50,839.00 L522.00,838.50 L523.00,839.50 L526.50,840.00 L522.00,840.50Z M103.50,842.00 L104.50,842.00 L100.00,846.50 L99.50,846.00Z M519.50,842.00 L520.00,841.50 L521.50,843.00 L521.00,843.50Z M534.50,842.00 L535.00,841.50 L538.50,843.00 L536.00,843.50Z M539.50,843.00 L544.50,844.00 L541.00,844.50Z M523.50,845.00 L524.00,844.50 L529.50,850.00 L529.00,850.50Z M553.50,845.00 L554.50,845.00 L553.00,846.50 L551.50,846.00Z M516.50,849.00 L520.00,849.50 L521.50,851.00 L518.00,850.50Z M561.50,849.00 L564.00,848.50 L565.00,849.50 L568.00,849.50 L574.50,852.00 L572.00,852.50 L571.00,851.50Z M529.50,852.00 L530.00,851.50 L533.50,855.00 L532.00,855.50 L531.00,853.50 L530.00,854.50 L529.50,854.00 L530.50,853.00Z M589.50,857.00 L591.00,856.50 L593.50,858.00 L592.00,858.50Z M598.50,860.00 L599.00,859.50 L600.50,861.00 L600.00,861.50Z M535.50,864.00 L536.50,864.00 L536.00,866.50Z M608.50,864.00 L609.00,863.50 L610.50,865.00 L610.00,865.50Z M71.50,865.00 L75.50,865.00 L73.00,865.50 L72.00,867.50Z M611.50,865.00 L612.00,864.50 L615.50,867.00 L615.00,867.50Z M535.50,868.00 L536.50,868.00 L536.00,869.50Z M617.50,868.00 L619.00,867.50 L621.50,869.00 L620.00,869.50Z M624.50,871.00 L625.00,870.50 L626.50,872.00 L626.00,872.50Z M666.50,871.00 L667.50,871.00 L666.00,872.50 L665.50,872.00Z M534.50,873.00 L535.50,873.00 L535.50,875.00 L534.00,876.50Z M630.50,874.00 L631.00,873.50 L632.50,875.00 L632.00,875.50Z M614.50,882.00 L616.00,881.50 L616.50,883.00 L618.00,883.50 L622.50,889.00 L622.50,890.00 L626.50,893.00 L629.50,897.00 L627.50,897.00 L628.00,899.50 L625.50,897.00 L619.50,887.00 L616.00,884.50Z M645.50,883.00 L647.00,882.50 L648.50,884.00 L648.00,884.50Z M649.50,885.00 L650.00,884.50 L651.50,886.00 L651.00,886.50Z M95.50,886.00 L96.50,886.00 L96.00,892.50Z M637.50,889.00 L638.00,888.50 L639.50,890.00 L639.00,890.50Z M654.50,889.00 L656.50,889.00 L654.00,890.50 L653.50,890.00Z M660.50,893.00 L661.00,892.50 L663.50,895.00 L663.00,895.50Z M95.50,894.00 L96.50,894.00 L96.50,896.00 L97.50,897.00 L96.00,898.50 L95.50,898.00 L96.50,897.00 L95.50,896.00Z M664.50,896.00 L665.00,895.50 L680.50,911.00 L681.00,913.50 L679.50,911.00 L667.00,898.50 L665.50,898.00Z M648.50,897.00 L650.00,896.50 L653.00,898.50 L653.50,900.00 L653.00,900.50Z M82.50,898.00 L84.00,897.50 L85.50,899.00 L85.50,901.00 L87.50,902.00 L87.00,903.50 L85.50,903.00 L84.50,900.00Z M91.50,900.00 L94.50,900.00 L93.00,901.50Z M95.50,900.00 L97.50,900.00 L97.50,903.00 L98.50,904.00 L98.00,906.50 L96.50,906.00 L97.50,905.00 L95.50,902.00 L96.50,901.00Z M630.50,900.00 L631.50,900.00 L631.00,901.50Z M93.50,904.00 L94.50,904.00 L94.00,905.50Z M89.50,906.00 L90.00,905.50 L91.50,907.00 L90.00,908.50 L88.50,907.00Z M634.50,906.00 L635.00,905.50 L636.50,907.00 L636.00,907.50Z M660.50,906.00 L661.00,905.50 L662.50,907.00 L662.00,907.50Z M97.50,908.00 L98.00,907.50 L100.50,910.00 L99.50,911.00 L101.50,913.00 L101.00,915.50 L100.50,913.00 L98.50,911.00 L98.50,909.00Z M637.50,910.00 L638.00,909.50 L640.50,911.00 L639.00,911.50Z M1239.50,910.00 L1240.00,909.50 L1244.00,911.50 L1253.50,918.00 L1253.00,918.50 L1249.00,916.50Z M93.50,911.00 L94.50,911.00 L93.50,912.00 L97.50,916.00 L100.50,920.00 L100.00,920.50 L92.50,912.00Z M644.50,913.00 L645.50,913.00 L644.00,914.50 L643.50,914.00Z M635.50,915.00 L637.50,915.00 L636.00,916.50Z M682.50,915.00 L683.00,914.50 L685.50,917.00 L688.50,922.00 L688.00,922.50Z M105.50,916.00 L106.00,915.50 L108.50,917.00 L107.00,917.50Z M642.50,916.00 L643.50,916.00 L642.00,917.50 L641.50,917.00Z M671.50,916.00 L672.00,915.50 L672.50,917.00 L674.50,918.00 L674.00,919.50Z M99.50,917.00 L100.00,916.50 L106.50,923.00 L107.50,927.00 L109.00,927.50 L112.50,932.00 L112.00,933.50 L104.50,925.00 L105.50,924.00 L104.00,922.50 L103.00,923.50 L102.50,923.00 L103.50,922.00Z M633.50,918.00 L634.50,918.00 L634.00,919.50Z M109.50,919.00 L110.50,919.00 L110.00,920.50Z M1256.50,920.00 L1257.00,919.50 L1259.50,922.00 L1259.00,922.50Z M628.50,923.00 L629.00,922.50 L629.50,924.00 L627.00,926.50 L626.50,926.00Z M113.50,924.00 L114.00,923.50 L115.50,925.00 L115.00,925.50Z M688.50,924.00 L689.00,923.50 L691.50,926.00 L693.50,930.00 L693.00,930.50Z M1263.50,925.00 L1264.00,924.50 L1265.50,926.00 L1265.00,926.50Z M680.50,926.00 L681.00,925.50 L682.50,927.00 L682.00,927.50Z M116.50,927.00 L117.00,926.50 L120.00,928.50 L121.50,931.00 L121.00,931.50Z M1266.50,927.00 L1267.00,926.50 L1271.50,930.00 L1270.00,930.50Z M624.50,928.00 L625.00,927.50 L625.50,929.00 L620.00,934.50 L619.50,933.00 L622.00,931.50Z M123.50,933.00 L124.00,932.50 L132.00,940.50 L133.50,941.00 L132.00,941.50 L128.00,938.50 L123.50,934.00Z M694.50,934.00 L695.00,933.50 L696.50,935.00 L696.00,936.50Z M112.50,935.00 L115.00,934.50 L117.50,937.00 L116.50,938.00 L118.00,939.50 L119.00,938.50 L119.50,939.00 L118.50,940.00 L119.50,941.00 L118.00,941.50Z M1279.50,937.00 L1280.00,936.50 L1283.50,940.00 L1283.00,940.50Z M696.50,938.00 L697.00,937.50 L698.50,939.00 L698.00,940.50Z M624.50,940.00 L625.50,940.00 L624.00,941.50 L623.50,941.00Z M691.50,940.00 L692.00,939.50 L693.50,941.00 L693.00,941.50Z M698.50,942.00 L699.50,942.00 L701.50,946.00 L701.00,948.50Z M1284.50,942.00 L1286.00,941.50 L1287.50,943.00 L1286.00,943.50Z M119.50,943.00 L120.00,942.50 L129.50,952.00 L129.00,952.50Z M133.50,943.00 L135.00,942.50 L139.00,945.50 L139.50,947.00 L139.00,947.50Z M1288.50,945.00 L1289.00,944.50 L1290.50,946.00 L1290.00,946.50Z M140.50,948.00 L141.00,947.50 L142.00,948.50 L143.00,947.50 L143.50,948.00 L142.50,949.00 L144.00,949.50 L144.50,951.00 L144.00,951.50Z M696.50,950.00 L698.00,949.50 L701.50,954.00 L701.00,954.50Z M1293.50,950.00 L1294.00,949.50 L1302.50,958.00 L1302.00,958.50Z M130.50,953.00 L131.50,953.00 L131.00,954.50Z M138.50,954.00 L139.00,953.50 L140.50,955.00 L140.00,955.50Z M703.50,954.00 L704.50,954.00 L705.00,957.50 L703.50,956.00Z M701.50,956.00 L702.50,956.00 L705.00,960.50 L706.00,959.50 L706.50,960.00 L706.50,963.00 L704.00,964.50 L704.50,962.00 L703.50,960.00 L701.50,959.00 L702.50,958.00Z M135.50,958.00 L136.00,957.50 L139.00,959.50 L142.00,962.50 L144.00,959.50 L143.50,963.00 L148.00,967.50 L154.00,969.50 L154.50,970.00 L153.50,971.00 L160.50,976.00 L158.00,975.50 L152.00,970.50 L145.00,966.50Z M1303.50,960.00 L1304.00,959.50 L1309.50,966.00 L1309.00,967.50Z M154.50,964.00 L155.00,963.50 L156.50,965.00 L156.00,965.50Z M705.50,965.00 L707.00,964.50 L708.50,967.00 L710.50,978.00 L714.50,988.00 L714.50,991.00 L716.50,994.00 L716.50,996.00 L714.00,997.50 L712.50,995.00 L712.50,990.00 L711.50,989.00 L710.50,980.00 L709.50,979.00 L707.50,971.00 L705.50,969.00 L707.50,968.00 L704.50,966.00Z M595.50,968.00 L596.50,968.00 L595.00,969.50 L594.50,969.00Z M261.50,970.00 L262.50,970.00 L261.00,971.50 L260.50,971.00Z M1310.50,970.00 L1311.00,969.50 L1313.50,972.00 L1314.00,974.50Z M371.50,972.00 L372.50,972.00 L371.00,973.50 L369.50,973.00Z M1314.50,976.00 L1315.00,975.50 L1316.50,977.00 L1316.00,977.50Z M161.50,977.00 L162.00,976.50 L164.50,978.00 L163.00,978.50Z M1316.50,979.00 L1317.00,978.50 L1318.50,980.00 L1317.00,980.50Z M166.50,980.00 L167.00,979.50 L169.50,981.00 L168.00,981.50Z M186.50,981.00 L188.00,980.50 L189.50,982.00 L189.00,982.50Z M250.50,981.00 L251.50,981.00 L251.00,984.50Z M1317.50,982.00 L1318.00,981.50 L1319.50,983.00 L1319.00,983.50Z M173.50,984.00 L174.00,983.50 L181.50,988.00 L180.00,988.50Z M193.50,984.00 L194.00,983.50 L196.50,985.00 L195.00,985.50Z M1319.50,985.00 L1320.50,985.00 L1320.00,986.50Z M255.50,986.00 L256.00,985.50 L257.50,987.00 L257.00,987.50Z M345.50,988.00 L346.50,988.00 L344.00,990.50 L343.50,990.00Z M182.50,989.00 L183.00,988.50 L184.50,990.00 L184.00,990.50Z M261.50,990.00 L262.00,989.50 L263.50,991.00 L263.00,991.50Z M1321.50,990.00 L1322.00,989.50 L1323.50,992.00 L1323.00,993.50Z M188.50,992.00 L190.00,991.50 L198.50,996.00 L197.00,996.50Z M713.50,993.00 L714.50,993.00 L714.00,994.50Z M263.50,994.00 L264.00,993.50 L265.50,995.00 L265.00,995.50Z M338.50,994.00 L339.50,994.00 L338.00,995.50 L337.50,995.00Z M221.50,995.00 L222.00,994.50 L224.50,996.00 L222.00,996.50Z M260.50,995.00 L263.00,995.50 L266.00,999.50 L267.50,999.00 L267.00,996.50 L269.50,1001.00 L273.50,1003.00 L272.50,1004.00 L274.00,1005.50 L276.00,1004.50 L277.50,1006.00 L274.50,1006.00 L278.50,1009.00 L277.00,1009.50 L275.00,1008.50Z M1323.50,995.00 L1324.50,995.00 L1324.50,997.00 L1325.50,998.00 L1325.00,1000.50Z M335.50,997.00 L336.00,996.50 L336.50,998.00 L332.00,1004.50 L331.50,1004.00Z M715.50,998.00 L716.00,997.50 L717.50,999.00 L716.50,1000.00 L718.50,1001.00 L717.00,1002.50 L715.50,1001.00Z M209.50,1001.00 L211.00,1000.50 L214.50,1003.00 L214.00,1003.50Z M1325.50,1002.00 L1326.50,1002.00 L1326.00,1005.50Z M215.50,1003.00 L216.00,1002.50 L218.50,1004.00 L217.00,1004.50Z M714.50,1003.00 L715.50,1003.00 L715.50,1005.00 L716.50,1006.00 L716.00,1008.50Z M246.50,1004.00 L247.00,1003.50 L248.50,1005.00 L248.00,1005.50Z M717.50,1004.00 L718.00,1003.50 L719.50,1005.00 L719.50,1008.00 L720.50,1009.00 L721.50,1016.00 L722.50,1017.00 L722.00,1019.50 L719.50,1010.00 L717.50,1008.00 L718.50,1007.00Z M219.50,1005.00 L221.00,1004.50 L222.50,1006.00 L222.00,1006.50Z M223.50,1006.00 L228.00,1006.50 L233.50,1009.00 L232.00,1009.50 L228.00,1007.50 L225.00,1007.50Z M331.50,1006.00 L332.50,1006.00 L332.50,1008.00 L331.00,1010.50 L330.50,1008.00Z M1326.50,1007.00 L1327.50,1007.00 L1327.00,1022.50Z M257.50,1008.00 L258.50,1008.00 L258.00,1009.50Z M716.50,1011.00 L718.50,1011.00 L717.50,1012.00 L718.50,1013.00 L717.50,1014.00 L718.00,1017.50 L716.50,1016.00 L716.50,1014.00 L717.50,1013.00Z M244.50,1012.00 L245.00,1011.50 L247.50,1013.00 L246.00,1013.50Z M283.50,1012.00 L284.00,1011.50 L287.50,1014.00 L286.00,1014.50Z M248.50,1013.00 L249.00,1012.50 L250.50,1014.00 L250.00,1014.50Z M302.50,1014.00 L303.00,1013.50 L304.50,1015.00 L304.00,1015.50Z M331.50,1014.00 L332.00,1013.50 L335.00,1016.50 L344.00,1017.50 L344.00,1018.50 L340.00,1018.50 L339.00,1017.50 L335.50,1018.00 L343.00,1024.50 L379.00,1024.50 L380.00,1023.50 L386.00,1024.50 L388.00,1023.50 L389.00,1024.50 L393.00,1024.50 L394.00,1025.50 L395.00,1024.50 L398.00,1024.50 L399.00,1025.50 L400.00,1024.50 L402.00,1025.50 L404.00,1024.50 L404.50,1025.00 L403.50,1026.00 L405.00,1026.50 L405.50,1028.00 L403.00,1030.50 L397.00,1033.50 L393.00,1033.50 L392.00,1034.50 L376.00,1034.50 L375.00,1035.50 L371.00,1033.50 L366.00,1033.50 L365.00,1032.50 L361.00,1032.50 L357.00,1030.50 L354.00,1030.50 L344.00,1025.50 L327.00,1025.50 L326.00,1024.50 L301.00,1023.50 L300.00,1022.50 L298.00,1022.50 L298.00,1021.50 L300.00,1021.50 L301.00,1022.50 L305.00,1022.50 L306.00,1021.50 L307.00,1022.50 L308.00,1021.50 L312.00,1023.50 L341.00,1024.50 L341.50,1024.00 L340.00,1023.50Z M256.50,1015.00 L257.00,1014.50 L260.50,1016.00 L258.00,1016.50Z M288.50,1015.00 L289.00,1014.50 L293.50,1017.00 L292.00,1017.50Z M266.50,1017.00 L271.50,1018.00 L268.00,1018.50Z M272.50,1019.00 L278.00,1018.50 L279.00,1019.50 L284.50,1020.00 L279.00,1020.50 L278.00,1019.50Z M347.50,1019.00 L350.00,1018.50 L353.50,1020.00 L351.00,1020.50Z M717.50,1019.00 L718.50,1019.00 L718.00,1020.50Z M287.50,1020.00 L296.50,1022.00 L293.00,1022.50 L292.00,1021.50 L286.00,1021.50 L285.50,1021.00Z M722.50,1021.00 L723.50,1021.00 L723.00,1023.50Z M718.50,1025.00 L719.50,1025.00 L719.00,1026.50Z M723.50,1025.00 L724.50,1025.00 L724.50,1028.00 L726.50,1033.00 L726.00,1035.50 L723.50,1029.00Z M346.50,1026.00 L366.00,1025.50 L367.00,1026.50 L368.00,1025.50 L370.00,1026.50 L371.00,1025.50 L373.00,1025.50 L375.00,1026.50 L376.00,1025.50 L378.00,1025.50 L379.00,1026.50 L395.00,1026.50 L396.00,1027.50 L399.00,1027.50 L400.50,1029.00 L398.00,1031.50 L393.00,1032.50 L392.00,1033.50 L372.00,1033.50 L371.00,1032.50 L366.00,1032.50 L365.00,1031.50 L361.00,1031.50 L357.00,1029.50 L354.00,1029.50Z M720.50,1027.00 L721.50,1027.00 L721.00,1028.50 L719.50,1028.00Z M327.50,1028.00 L330.00,1027.50 L332.50,1029.00 L331.00,1029.50Z M1326.50,1028.00 L1327.50,1028.00 L1326.50,1030.00 L1326.50,1035.00 L1324.00,1041.50 L1323.50,1040.00 L1324.50,1039.00 L1325.50,1030.00Z M719.50,1030.00 L720.00,1029.50 L721.50,1031.00 L722.00,1033.50 L722.50,1032.00 L723.50,1032.00 L722.50,1034.00 L723.50,1035.00 L722.50,1036.00 L722.50,1038.00 L723.50,1039.00 L723.50,1043.00 L725.50,1043.00 L724.50,1044.00 L724.50,1048.00 L725.50,1049.00 L725.00,1050.50 L723.50,1049.00 L723.50,1044.00 L721.50,1040.00 L721.50,1036.00 L720.50,1035.00 L720.50,1031.00Z M342.50,1031.00 L343.00,1030.50 L345.50,1032.00 L344.00,1033.50Z M726.50,1038.00 L727.50,1038.00 L728.00,1042.50 L726.50,1041.00Z M1288.50,1042.00 L1289.00,1041.50 L1291.50,1043.00 L1289.00,1043.50 L1287.00,1046.50 L1286.50,1045.00Z M727.50,1044.00 L728.50,1044.00 L728.00,1045.50Z M1321.50,1047.00 L1322.50,1047.00 L1322.00,1048.50Z M728.50,1048.00 L729.50,1048.00 L729.00,1049.50Z M1320.50,1051.00 L1321.50,1051.00 L1320.00,1053.50 L1319.50,1052.00Z M724.50,1052.00 L726.50,1052.00 L727.50,1058.00 L728.50,1059.00 L728.00,1060.50 L727.00,1058.50 L726.50,1060.00 L725.50,1060.00 L726.50,1055.00Z M729.50,1052.00 L730.50,1052.00 L730.00,1055.50Z M731.50,1060.00 L732.50,1060.00 L732.00,1061.50Z M474.50,1061.00 L477.00,1060.50 L478.50,1062.00 L478.00,1062.50Z M479.50,1062.00 L482.00,1061.50 L483.50,1063.00 L483.00,1063.50Z M726.50,1062.00 L728.50,1062.00 L727.50,1063.00 L728.50,1064.00 L728.00,1064.50 L726.50,1064.00Z M1315.50,1062.00 L1316.50,1062.00 L1315.00,1063.50 L1314.50,1063.00Z M729.50,1063.00 L730.50,1063.00 L731.00,1065.50Z M502.50,1067.00 L506.00,1066.50 L509.50,1068.00 L507.00,1068.50 L506.00,1067.50Z M476.50,1068.00 L478.00,1067.50 L479.50,1069.00 L479.00,1069.50Z M515.50,1070.00 L519.00,1069.50 L520.00,1070.50 L529.00,1071.50 L532.00,1073.50 L535.00,1073.50 L536.00,1074.50 L538.00,1073.50 L539.00,1074.50 L542.00,1074.50 L545.00,1076.50 L547.00,1075.50 L547.50,1077.00 L550.00,1078.50 L552.50,1078.00 L551.00,1080.50 L536.00,1079.50 L536.00,1078.50 L545.00,1078.50 L545.00,1077.50 L543.00,1077.50 L539.00,1075.50 L536.00,1075.50 L535.00,1074.50 L532.00,1074.50 L531.00,1073.50 L528.00,1073.50 L524.00,1071.50 L520.00,1071.50 L519.00,1070.50Z M732.50,1071.00 L734.00,1070.50 L736.50,1074.00 L735.00,1074.50Z M507.50,1074.00 L509.00,1073.50 L511.50,1075.00 L510.00,1075.50Z M1307.50,1075.00 L1308.50,1075.00 L1307.00,1077.50 L1306.50,1076.00Z M729.50,1076.00 L730.50,1076.00 L731.00,1078.50Z M735.50,1076.00 L736.00,1075.50 L737.50,1077.00 L739.50,1082.00 L741.50,1084.00 L741.00,1084.50 L740.00,1083.50 L738.00,1085.50 L737.50,1085.00 L739.50,1083.00 L737.00,1078.50 L736.00,1080.50 L734.50,1079.00 L736.50,1078.00Z M554.50,1079.00 L557.00,1078.50 L559.50,1080.00 L555.00,1080.50Z M1295.50,1080.00 L1296.50,1080.00 L1296.50,1082.00 L1294.00,1086.50Z M1302.50,1082.00 L1303.50,1082.00 L1301.00,1084.50 L1300.50,1084.00Z M731.50,1083.00 L732.00,1082.50 L733.50,1084.00 L732.50,1085.00 L734.50,1088.00 L734.00,1088.50 L731.50,1085.00Z M1299.50,1086.00 L1300.50,1086.00 L1298.50,1089.00 L1297.00,1089.50 L1296.50,1089.00Z M743.50,1088.00 L744.50,1088.00 L746.50,1091.00 L746.00,1091.50Z M1292.50,1089.00 L1293.50,1089.00 L1292.00,1091.50 L1291.50,1090.00Z M740.50,1090.00 L741.00,1089.50 L742.50,1091.00 L742.00,1092.50Z M1295.50,1091.00 L1296.50,1091.00 L1293.00,1094.50 L1292.50,1094.00Z M1290.50,1093.00 L1291.50,1093.00 L1290.00,1094.50 L1289.50,1094.00Z M734.50,1094.00 L735.00,1093.50 L736.50,1095.00 L736.00,1096.50Z M747.50,1094.00 L748.00,1093.50 L754.50,1100.00 L754.00,1101.50Z M1288.50,1096.00 L1289.50,1096.00 L1287.00,1098.50 L1286.50,1098.00Z M736.50,1098.00 L737.50,1098.00 L737.50,1100.00 L739.50,1103.00 L741.50,1110.00 L744.50,1115.00 L744.50,1117.00 L746.50,1119.00 L746.50,1121.00 L748.50,1125.00 L750.50,1127.00 L755.50,1137.00 L757.50,1139.00 L757.00,1140.50 L751.50,1132.00 L750.50,1129.00 L748.50,1127.00 L742.50,1115.00 L742.50,1113.00 L740.50,1110.00 L740.50,1108.00 L738.50,1105.00Z M1285.50,1100.00 L1286.00,1099.50 L1287.50,1101.00 L1285.00,1102.50 L1284.50,1104.00 L1271.00,1117.50 L1270.00,1117.50 L1263.00,1124.50 L1257.00,1128.50 L1255.00,1131.50 L1252.00,1132.50 L1251.00,1134.50 L1244.00,1138.50 L1240.00,1142.50 L1234.00,1146.50 L1232.00,1146.50 L1218.00,1156.50 L1213.00,1158.50 L1208.00,1162.50 L1202.00,1165.50 L1200.00,1165.50 L1199.00,1167.50 L1197.00,1167.50 L1195.00,1169.50 L1187.00,1173.50 L1185.00,1173.50 L1183.00,1175.50 L1173.00,1180.50 L1171.00,1180.50 L1167.00,1183.50 L1165.00,1183.50 L1154.00,1189.50 L1153.00,1188.50 L1151.00,1190.50 L1147.00,1191.50 L1145.00,1193.50 L1139.00,1194.50 L1118.00,1202.50 L1116.50,1202.00 L1124.00,1198.50 L1132.00,1196.50 L1135.00,1194.50 L1140.00,1193.50 L1148.00,1189.50 L1150.00,1189.50 L1168.00,1180.50 L1170.00,1180.50 L1212.00,1158.50 L1215.00,1155.50 L1220.00,1153.50 L1225.00,1149.50 L1236.00,1143.50 L1242.00,1138.50 L1245.00,1137.50 L1246.00,1135.50 L1254.00,1130.50 L1259.00,1125.50 L1264.00,1122.50 L1264.50,1121.00 L1274.00,1112.50 L1275.00,1112.50 L1275.50,1112.00 L1274.50,1111.00 L1275.00,1110.50 L1276.00,1111.50 L1278.50,1108.00 L1280.50,1107.00Z M763.50,1118.00 L764.00,1117.50 L765.50,1119.00 L765.00,1119.50Z M758.50,1129.00 L759.50,1129.00 L758.00,1130.50 L757.50,1130.00Z M832.50,1136.00 L834.00,1135.50 L835.50,1138.00 L834.00,1138.50 L833.50,1138.00 L834.50,1137.00Z M757.50,1142.00 L759.50,1142.00 L771.50,1158.00 L788.00,1174.50 L789.00,1174.50 L802.00,1185.50 L805.00,1186.50 L823.00,1198.50 L827.00,1199.50 L829.00,1201.50 L831.00,1201.50 L847.00,1209.50 L858.00,1212.50 L861.50,1215.00 L861.00,1215.50 L860.00,1214.50 L852.00,1212.50 L849.00,1210.50 L848.00,1211.50 L844.00,1208.50 L840.00,1208.50 L839.00,1206.50 L832.00,1204.50 L825.00,1199.50 L823.00,1199.50 L821.00,1197.50 L806.00,1189.50 L794.00,1180.50 L789.00,1175.50 L784.00,1172.50 L783.50,1171.00 L780.00,1168.50 L774.00,1161.50 L772.50,1161.00 L772.50,1160.00 L768.50,1156.00 L768.50,1155.00 L766.50,1154.00Z M814.50,1144.00 L819.00,1143.50 L819.50,1145.00Z M846.50,1144.00 L848.00,1143.50 L851.50,1146.00 L851.00,1146.50Z M852.50,1147.00 L853.00,1146.50 L854.50,1148.00 L854.50,1151.00 L852.00,1152.50 L849.00,1152.50 L848.50,1152.00 L850.00,1150.50 L851.00,1151.50 L853.50,1150.00 L853.00,1148.50 L852.00,1149.50 L851.50,1149.00Z M901.50,1161.00 L902.50,1161.00 L901.00,1162.50 L900.50,1162.00Z M1002.50,1186.00 L1004.00,1185.50 L1005.50,1187.00 L1004.00,1187.50Z M1006.50,1187.00 L1008.00,1186.50 L1014.50,1189.00 L1013.00,1189.50 L1012.00,1188.50 L1008.00,1188.50Z M1022.50,1188.00 L1024.00,1187.50 L1027.50,1189.00 L1025.00,1189.50Z M1029.50,1190.00 L1031.00,1189.50 L1032.00,1190.50 L1046.00,1194.50 L1047.00,1196.50 L1049.00,1197.50 L1050.00,1196.50 L1052.50,1199.00 L1050.00,1199.50 L1049.00,1198.50 L1046.00,1198.50 L1046.00,1196.50 L1041.00,1196.50 L1040.00,1195.50 L1036.00,1195.50 L1035.00,1194.50 L1034.00,1195.50 L1031.00,1193.50 L1028.00,1193.50 L1028.00,1191.50 L1033.00,1193.50 L1037.50,1193.00Z M1022.50,1191.00 L1024.00,1190.50 L1026.50,1192.00 L1025.00,1192.50Z M1112.50,1203.00 L1115.00,1202.50 L1115.00,1203.50 L1113.00,1203.50 L1109.00,1205.50 L1106.50,1205.00Z M1103.50,1206.00 L1105.50,1206.00 L1103.00,1207.50 L1100.00,1207.50 L1099.00,1208.50 L1097.00,1208.50 L1093.00,1210.50 L1090.00,1210.50 L1089.00,1211.50 L1086.00,1211.50 L1082.00,1213.50 L1079.00,1213.50 L1078.00,1214.50 L1075.00,1214.50 L1070.00,1216.50 L1066.50,1216.00 L1074.00,1214.50 L1075.00,1213.50 L1078.00,1213.50 L1086.00,1210.50 L1089.00,1210.50 L1090.00,1209.50 L1093.00,1209.50 L1094.00,1208.50Z M864.50,1216.00 L867.00,1215.50 L873.50,1218.00 L871.00,1218.50Z M1061.50,1217.00 L1065.00,1216.50 L1065.00,1217.50 L1062.00,1217.50 L1061.00,1218.50 L1057.50,1218.00Z M1052.50,1219.00 L1056.50,1219.00 L1053.00,1219.50 L1052.00,1220.50 L1048.00,1220.50 L1047.00,1221.50 L1042.50,1221.00Z M878.50,1220.00 L882.00,1219.50 L882.50,1221.00 L882.00,1221.50Z M883.50,1221.00 L886.00,1220.50 L887.00,1221.50 L891.50,1222.00 L886.00,1222.50Z M1036.50,1222.00 L1041.00,1221.50 L1041.00,1222.50 L1031.00,1223.50 L1030.00,1224.50 L1024.00,1224.50 L1023.00,1225.50 L1016.50,1225.00Z M902.50,1225.00 L909.00,1224.50 L909.50,1226.00Z M1008.50,1226.00 L1015.50,1226.00 L1009.00,1226.50 L1008.00,1227.50 L1004.50,1227.00Z M917.50,1227.00 L925.00,1226.50 L925.50,1228.00Z M937.50,1228.00 L977.50,1229.00 L938.00,1229.50Z M985.50,1228.00 L997.50,1228.00 L986.00,1228.50 L985.00,1229.50 L984.50,1229.00Z" fill="#000000" fill-rule="evenodd" stroke="none"/>
</svg>
