<svg xmlns="http://www.w3.org/2000/svg" viewBox="0 0 1400 1400">
  <path d="M584.50,0.00 L584.00,106.50 L107.00,106.50 L106.50,584.00 L0.00,584.50Z M815.50,0.00 L816.00,106.50 L1293.50,107.00 L1293.50,584.00 L1399.00,584.50Z M591.50,2.00 L808.00,1.50 L808.50,106.00 L592.00,106.50Z M113.50,114.00 L1286.00,113.50 L1286.50,1286.00 L114.00,1286.50Z M694.50,125.00 L700.00,124.50 L701.00,125.50 L712.00,125.50 L713.00,126.50 L717.00,126.50 L718.00,127.50 L721.00,127.50 L727.00,130.50 L729.00,130.50 L734.00,134.50 L736.00,134.50 L749.50,146.00 L751.50,150.00 L758.50,159.00 L760.50,163.00 L760.50,165.00 L762.50,168.00 L762.50,171.00 L764.50,176.00 L764.50,181.00 L765.50,182.00 L765.50,198.00 L764.50,199.00 L764.50,205.00 L763.50,206.00 L762.50,212.00 L760.50,215.00 L760.50,218.00 L752.50,230.00 L760.50,243.00 L760.50,245.00 L763.50,252.00 L763.50,255.00 L764.50,256.00 L764.50,261.00 L765.50,262.00 L765.50,279.00 L764.50,280.00 L764.50,285.00 L763.50,286.00 L763.50,289.00 L762.50,290.00 L760.50,298.00 L754.50,308.00 L749.50,313.00 L749.50,315.00 L736.00,326.50 L734.00,326.50 L730.00,329.50 L726.00,331.50 L724.00,331.50 L721.00,333.50 L717.00,333.50 L712.00,335.50 L706.00,335.50 L705.50,337.00 L711.50,346.00 L721.50,365.00 L726.50,372.00 L736.50,391.00 L741.50,398.00 L743.50,403.00 L745.50,405.00 L747.50,410.00 L749.50,412.00 L751.50,417.00 L756.50,424.00 L758.50,429.00 L760.50,431.00 L762.50,436.00 L767.50,443.00 L769.50,448.00 L771.50,450.00 L773.50,455.00 L775.50,457.00 L777.50,462.00 L782.50,469.00 L784.50,474.00 L786.50,476.00 L788.50,481.00 L790.50,483.00 L792.50,488.00 L794.50,490.00 L801.50,503.00 L1037.50,504.00 L1037.50,511.00 L1035.50,513.00 L1033.50,518.00 L1028.50,525.00 L1022.50,537.00 L1017.50,544.00 L1007.50,563.00 L1002.50,570.00 L996.50,582.00 L991.50,589.00 L985.50,601.00 L980.50,608.00 L970.50,627.00 L965.50,634.00 L963.50,639.00 L961.50,641.00 L959.50,646.00 L954.50,653.00 L952.50,658.00 L950.50,660.00 L948.50,665.00 L943.50,672.00 L941.50,677.00 L939.50,679.00 L937.50,684.00 L935.50,686.00 L933.50,691.00 L931.50,693.00 L921.50,711.00 L924.50,715.00 L933.50,732.00 L935.50,734.00 L945.50,753.00 L950.50,760.00 L960.50,779.00 L965.50,786.00 L971.50,798.00 L976.50,805.00 L986.50,824.00 L991.50,831.00 L1001.50,850.00 L1006.50,857.00 L1012.50,869.00 L1017.50,876.00 L1018.50,878.00 L1018.50,885.00 L820.50,886.00 L811.50,903.00 L806.50,910.00 L800.50,922.00 L795.50,929.00 L785.50,948.00 L780.50,955.00 L774.50,967.00 L769.50,974.00 L763.50,986.00 L758.50,993.00 L748.50,1012.00 L743.50,1019.00 L737.50,1031.00 L735.50,1033.00 L726.50,1050.00 L724.50,1052.00 L723.50,1055.00 L721.50,1057.00 L719.50,1062.00 L716.50,1066.00 L721.00,1066.50 L724.00,1068.50 L726.00,1068.50 L730.00,1070.50 L734.00,1073.50 L736.00,1073.50 L740.00,1077.50 L745.00,1080.50 L749.50,1085.00 L749.50,1087.00 L754.50,1092.00 L758.50,1098.00 L763.50,1111.00 L764.50,1120.00 L765.50,1121.00 L765.50,1138.00 L764.50,1139.00 L764.50,1144.00 L763.50,1145.00 L763.50,1148.00 L762.50,1149.00 L760.50,1157.00 L752.50,1169.00 L760.50,1182.00 L760.50,1185.00 L762.50,1188.00 L763.50,1194.00 L764.50,1195.00 L764.50,1201.00 L765.50,1202.00 L765.50,1218.00 L764.50,1219.00 L764.50,1224.00 L763.50,1225.00 L762.50,1232.00 L760.50,1235.00 L760.50,1237.00 L758.50,1241.00 L751.50,1250.00 L749.50,1254.00 L739.00,1263.50 L736.00,1265.50 L734.00,1265.50 L729.00,1269.50 L727.00,1269.50 L721.00,1272.50 L713.00,1273.50 L712.00,1274.50 L701.00,1274.50 L700.00,1275.50 L687.00,1274.50 L679.00,1271.50 L676.00,1271.50 L661.00,1263.50 L645.50,1247.00 L640.50,1239.00 L640.50,1237.00 L638.50,1234.00 L638.50,1232.00 L636.50,1228.00 L635.50,1219.00 L634.50,1218.00 L634.50,1202.00 L635.50,1201.00 L635.50,1196.00 L636.50,1195.00 L636.50,1191.00 L637.50,1190.00 L638.50,1185.00 L641.50,1180.00 L641.50,1178.00 L647.50,1170.00 L641.50,1161.00 L641.50,1159.00 L638.50,1154.00 L638.50,1152.00 L636.50,1148.00 L636.50,1145.00 L635.50,1144.00 L635.50,1139.00 L634.50,1138.00 L634.50,1121.00 L635.50,1120.00 L636.50,1111.00 L637.50,1110.00 L638.50,1105.00 L641.50,1100.00 L641.50,1098.00 L648.50,1088.00 L664.00,1073.50 L668.00,1071.50 L670.00,1071.50 L677.00,1067.50 L682.00,1066.50 L682.50,1064.00 L680.50,1062.00 L678.50,1057.00 L673.50,1050.00 L667.50,1038.00 L662.50,1031.00 L656.50,1019.00 L651.50,1012.00 L649.50,1007.00 L647.50,1005.00 L641.50,993.00 L639.50,991.00 L630.50,974.00 L625.50,967.00 L619.50,955.00 L614.50,948.00 L612.50,943.00 L610.50,941.00 L608.50,936.00 L606.50,934.00 L604.50,929.00 L599.50,922.00 L597.50,917.00 L595.50,915.00 L593.50,910.00 L588.50,903.00 L579.50,886.00 L381.50,885.00 L381.50,878.00 L382.50,876.00 L387.50,869.00 L393.50,857.00 L398.50,850.00 L408.50,831.00 L413.50,824.00 L423.50,805.00 L428.50,798.00 L434.50,786.00 L439.50,779.00 L449.50,760.00 L454.50,753.00 L456.50,748.00 L458.50,746.00 L460.50,741.00 L462.50,739.00 L464.50,734.00 L466.50,732.00 L467.50,729.00 L469.50,727.00 L471.50,722.00 L473.50,720.00 L475.50,715.00 L478.50,711.00 L475.50,705.00 L473.50,703.00 L471.50,698.00 L466.50,691.00 L464.50,686.00 L462.50,684.00 L460.50,679.00 L458.50,677.00 L456.50,672.00 L451.50,665.00 L449.50,660.00 L447.50,658.00 L445.50,653.00 L440.50,646.00 L434.50,634.00 L429.50,627.00 L419.50,608.00 L414.50,601.00 L408.50,589.00 L403.50,582.00 L397.50,570.00 L392.50,563.00 L382.50,544.00 L377.50,537.00 L371.50,525.00 L369.50,523.00 L364.50,513.00 L362.50,511.00 L363.00,503.50 L598.50,503.00 L602.50,495.00 L607.50,488.00 L609.50,483.00 L611.50,481.00 L613.50,476.00 L615.50,474.00 L617.50,469.00 L619.50,467.00 L624.50,457.00 L626.50,455.00 L628.50,450.00 L630.50,448.00 L632.50,443.00 L634.50,441.00 L639.50,431.00 L641.50,429.00 L643.50,424.00 L648.50,417.00 L658.50,398.00 L663.50,391.00 L673.50,372.00 L678.50,365.00 L688.50,346.00 L694.50,337.00 L694.00,335.50 L688.00,335.50 L687.00,334.50 L683.00,334.50 L682.00,333.50 L677.00,332.50 L670.00,328.50 L668.00,328.50 L664.00,326.50 L660.00,323.50 L648.50,312.00 L641.50,302.00 L641.50,300.00 L638.50,295.00 L638.50,293.00 L636.50,289.00 L635.50,280.00 L634.50,279.00 L634.50,262.00 L635.50,261.00 L636.50,252.00 L637.50,251.00 L638.50,246.00 L641.50,241.00 L641.50,239.00 L647.50,231.00 L641.50,222.00 L641.50,220.00 L638.50,215.00 L638.50,213.00 L636.50,209.00 L636.50,205.00 L635.50,204.00 L635.50,199.00 L634.50,198.00 L634.50,182.00 L635.50,181.00 L635.50,176.00 L636.50,175.00 L636.50,172.00 L637.50,171.00 L638.50,166.00 L640.50,163.00 L641.50,159.00 L648.50,149.00 L661.00,136.50 L676.00,128.50 L679.00,128.50 L687.00,125.50Z M690.50,131.00 L708.00,130.50 L709.00,131.50 L713.00,131.50 L714.00,132.50 L717.00,132.50 L723.00,135.50 L725.00,135.50 L740.00,145.50 L744.50,150.00 L753.50,163.00 L755.50,167.00 L755.50,169.00 L757.50,172.00 L757.50,175.00 L759.50,180.00 L760.50,194.00 L759.50,195.00 L759.50,201.00 L758.50,202.00 L757.50,208.00 L755.50,211.00 L755.50,214.00 L749.00,224.50 L744.00,221.50 L736.00,214.50 L734.00,214.50 L732.00,212.50 L721.00,207.50 L717.00,207.50 L712.00,205.50 L688.00,205.50 L687.00,206.50 L683.00,206.50 L664.00,214.50 L652.00,225.50 L646.50,218.00 L646.50,216.00 L643.50,211.00 L643.50,209.00 L641.50,205.00 L640.50,195.00 L639.50,194.00 L640.50,180.00 L641.50,179.00 L641.50,176.00 L646.50,163.00 L653.50,153.00 L665.00,141.50 L671.00,137.50 L673.00,137.50 L680.00,133.50 L683.00,133.50 L684.00,132.50Z M497.50,164.00 L511.00,163.50 L512.00,164.50 L523.00,165.50 L524.00,166.50 L527.00,166.50 L530.00,168.50 L532.00,168.50 L536.00,171.50 L543.00,174.50 L549.00,180.50 L550.00,180.50 L559.50,191.00 L559.50,193.00 L563.50,198.00 L565.50,202.00 L565.50,204.00 L567.50,207.00 L567.50,210.00 L569.50,215.00 L569.50,221.00 L570.50,222.00 L570.50,236.00 L569.50,237.00 L568.50,248.00 L565.50,254.00 L565.50,256.00 L559.50,267.00 L554.50,272.00 L552.50,276.00 L550.00,278.50 L548.00,278.50 L542.00,284.50 L540.00,284.50 L533.00,289.50 L531.00,289.50 L528.00,291.50 L521.00,292.50 L516.00,294.50 L495.00,294.50 L494.00,293.50 L489.00,293.50 L488.00,292.50 L480.00,290.50 L473.00,286.50 L471.00,286.50 L464.00,281.50 L449.50,266.00 L448.50,262.00 L446.50,260.00 L443.50,254.00 L442.50,248.00 L440.50,244.00 L440.50,238.00 L439.50,237.00 L439.50,221.00 L440.50,220.00 L440.50,214.00 L441.50,213.00 L444.50,202.00 L453.50,187.00 L463.00,177.50 L467.00,175.50 L470.00,172.50 L472.00,172.50 L481.00,167.50 L483.00,167.50 L490.00,164.50Z M887.50,164.00 L901.00,163.50 L902.00,164.50 L913.00,165.50 L914.00,166.50 L917.00,166.50 L920.00,168.50 L922.00,168.50 L926.00,171.50 L930.00,172.50 L933.00,174.50 L939.00,180.50 L940.00,180.50 L949.50,191.00 L949.50,193.00 L953.50,198.00 L955.50,202.00 L955.50,204.00 L957.50,207.00 L957.50,210.00 L959.50,215.00 L959.50,220.00 L960.50,221.00 L960.50,237.00 L959.50,238.00 L958.50,248.00 L955.50,254.00 L955.50,256.00 L949.50,267.00 L944.50,272.00 L942.50,276.00 L940.00,278.50 L938.00,278.50 L932.00,284.50 L918.00,291.50 L911.00,292.50 L906.00,294.50 L885.00,294.50 L884.00,293.50 L879.00,293.50 L878.00,292.50 L870.00,290.50 L858.00,284.50 L854.00,281.50 L843.50,271.00 L838.50,264.00 L838.50,262.00 L836.50,260.00 L833.50,254.00 L831.50,244.00 L830.50,243.00 L830.50,238.00 L829.50,237.00 L829.50,221.00 L830.50,220.00 L831.50,211.00 L832.50,210.00 L834.50,202.00 L843.50,187.00 L853.00,177.50 L857.00,175.50 L860.00,172.50 L862.00,172.50 L871.00,167.50 L873.00,167.50 L880.00,164.50Z M501.50,169.00 L507.00,168.50 L508.00,169.50 L514.00,169.50 L515.00,170.50 L520.00,170.50 L521.00,171.50 L523.00,171.50 L526.00,173.50 L530.00,174.50 L534.00,177.50 L536.00,177.50 L544.00,184.50 L545.00,184.50 L554.50,195.00 L554.50,197.00 L560.50,206.00 L560.50,208.00 L563.50,214.00 L564.50,225.00 L565.50,226.00 L564.50,240.00 L563.50,241.00 L562.50,247.00 L560.50,250.00 L558.50,257.00 L554.50,263.00 L549.50,268.00 L548.50,271.00 L546.00,273.50 L544.00,273.50 L538.00,279.50 L531.00,282.50 L529.00,284.50 L527.00,284.50 L521.00,287.50 L513.00,288.50 L512.00,289.50 L499.00,289.50 L498.00,288.50 L493.00,288.50 L492.00,287.50 L484.00,285.50 L477.00,281.50 L475.00,281.50 L468.00,276.50 L454.50,262.00 L448.50,250.00 L447.50,244.00 L445.50,240.00 L445.50,234.00 L444.50,233.00 L445.50,218.00 L446.50,217.00 L449.50,206.00 L453.50,200.00 L454.50,196.00 L458.50,192.00 L458.50,191.00 L467.00,182.50 L471.00,180.50 L474.00,177.50 L494.00,169.50Z M891.50,169.00 L897.00,168.50 L898.00,169.50 L904.00,169.50 L905.00,170.50 L910.00,170.50 L911.00,171.50 L913.00,171.50 L916.00,173.50 L920.00,174.50 L924.00,177.50 L926.00,177.50 L934.00,184.50 L935.00,184.50 L944.50,195.00 L944.50,197.00 L948.50,202.00 L953.50,214.00 L954.50,224.00 L955.50,225.00 L955.50,233.00 L954.50,234.00 L954.50,240.00 L953.50,241.00 L952.50,247.00 L950.50,250.00 L948.50,257.00 L944.50,263.00 L939.50,268.00 L938.50,271.00 L936.00,273.50 L934.00,273.50 L925.00,281.50 L923.00,281.50 L919.00,284.50 L917.00,284.50 L914.00,286.50 L907.00,287.50 L902.00,289.50 L889.00,289.50 L888.00,288.50 L883.00,288.50 L882.00,287.50 L874.00,285.50 L867.00,281.50 L865.00,281.50 L858.00,276.50 L848.50,267.00 L843.50,260.00 L838.50,250.00 L836.50,240.00 L835.50,239.00 L835.50,234.00 L834.50,233.00 L834.50,225.00 L835.50,224.00 L836.50,215.00 L837.50,214.00 L839.50,206.00 L848.50,191.00 L857.00,182.50 L861.00,180.50 L864.00,177.50 L866.00,177.50 L875.00,172.50 L877.00,172.50 L884.00,169.50Z M691.50,211.00 L708.00,210.50 L713.00,212.50 L717.00,212.50 L728.00,217.50 L730.00,219.50 L732.00,219.50 L740.00,225.50 L744.50,230.00 L744.50,231.00 L740.00,235.50 L737.00,236.50 L732.00,241.50 L730.00,241.50 L726.00,244.50 L722.00,246.50 L720.00,246.50 L717.00,248.50 L713.00,248.50 L712.00,249.50 L708.00,249.50 L707.00,250.50 L693.00,250.50 L692.00,249.50 L688.00,249.50 L687.00,248.50 L681.00,247.50 L672.00,242.50 L668.00,241.50 L664.00,238.50 L656.50,231.00 L656.50,230.00 L664.00,222.50 L671.00,217.50 L676.00,216.50 L681.00,213.50 L683.00,213.50 L687.00,211.50Z M651.50,236.00 L652.00,235.50 L664.00,246.50 L668.00,247.50 L677.00,252.50 L683.00,253.50 L684.00,254.50 L688.00,254.50 L689.00,255.50 L711.00,255.50 L712.00,254.50 L721.00,253.50 L724.00,251.50 L726.00,251.50 L730.00,249.50 L734.00,246.50 L736.00,246.50 L741.00,241.50 L749.00,236.50 L753.50,243.00 L755.50,247.00 L755.50,249.00 L757.50,252.00 L757.50,255.00 L759.50,260.00 L759.50,265.00 L760.50,266.00 L760.50,275.00 L759.50,276.00 L759.50,281.00 L758.50,282.00 L758.50,285.00 L757.50,286.00 L755.50,294.00 L749.50,304.00 L745.50,308.00 L744.50,311.00 L732.00,321.50 L730.00,321.50 L726.00,324.50 L722.00,326.50 L720.00,326.50 L717.00,328.50 L713.00,328.50 L708.00,330.50 L692.00,330.50 L691.00,329.50 L687.00,329.50 L686.00,328.50 L681.00,327.50 L674.00,323.50 L671.00,323.50 L664.00,318.50 L653.50,308.00 L646.50,298.00 L641.50,285.00 L640.50,276.00 L639.50,275.00 L639.50,266.00 L640.50,265.00 L641.50,256.00 L642.50,255.00 L643.50,250.00 L645.50,247.00 L645.50,245.00Z M328.50,275.00 L350.00,274.50 L351.00,275.50 L356.00,275.50 L357.00,276.50 L362.00,277.50 L365.00,279.50 L368.00,279.50 L382.00,288.50 L388.50,295.00 L397.50,307.00 L402.50,319.00 L402.50,322.00 L404.50,326.00 L404.50,331.00 L409.00,331.50 L410.00,332.50 L414.00,332.50 L415.00,333.50 L420.00,334.50 L434.00,341.50 L449.50,356.00 L449.50,358.00 L455.50,366.00 L455.50,368.00 L458.50,373.00 L458.50,376.00 L459.50,377.00 L459.50,380.00 L461.50,385.00 L461.50,407.00 L460.50,408.00 L459.50,416.00 L455.50,424.00 L455.50,427.00 L449.50,436.00 L440.00,446.50 L438.00,446.50 L430.00,453.50 L428.00,453.50 L426.00,455.50 L422.00,456.50 L419.00,458.50 L412.00,459.50 L407.00,461.50 L387.00,461.50 L386.00,460.50 L381.00,460.50 L380.00,459.50 L373.00,458.50 L363.00,453.50 L358.00,449.50 L355.00,448.50 L345.50,439.00 L339.50,431.00 L338.50,427.00 L335.50,423.00 L335.50,421.00 L332.50,414.00 L331.50,405.00 L326.00,404.50 L322.00,402.50 L315.00,401.50 L301.00,393.50 L286.50,379.00 L280.50,370.00 L277.50,360.00 L275.50,357.00 L275.50,351.00 L274.50,350.00 L274.50,330.00 L275.50,329.00 L275.50,323.00 L276.50,322.00 L278.50,314.00 L283.50,304.00 L300.00,286.50 L306.00,282.50 L316.00,277.50Z M1049.50,275.00 L1071.00,274.50 L1072.00,275.50 L1077.00,275.50 L1094.00,282.50 L1101.00,288.50 L1103.00,288.50 L1109.50,295.00 L1119.50,309.00 L1119.50,312.00 L1122.50,317.00 L1124.50,327.00 L1125.50,328.00 L1125.50,352.00 L1123.50,356.00 L1122.50,363.00 L1119.50,368.00 L1119.50,370.00 L1113.50,378.00 L1113.50,380.00 L1098.00,394.50 L1084.00,401.50 L1082.00,401.50 L1078.00,403.50 L1074.00,403.50 L1073.00,404.50 L1068.50,405.00 L1067.50,414.00 L1066.50,415.00 L1065.50,420.00 L1062.50,425.00 L1062.50,428.00 L1059.50,431.00 L1057.50,435.00 L1051.50,441.00 L1051.50,442.00 L1042.00,450.50 L1039.00,451.50 L1032.00,456.50 L1030.00,456.50 L1023.00,459.50 L1020.00,459.50 L1019.00,460.50 L1015.00,460.50 L1014.00,461.50 L994.00,461.50 L993.00,460.50 L988.00,460.50 L984.00,458.50 L980.00,458.50 L964.00,449.50 L947.50,432.00 L946.50,428.00 L942.50,422.00 L941.50,416.00 L939.50,412.00 L939.50,407.00 L938.50,406.00 L938.50,386.00 L939.50,385.00 L939.50,380.00 L940.50,379.00 L943.50,368.00 L945.50,366.00 L947.50,361.00 L957.50,350.00 L957.50,349.00 L962.00,344.50 L966.00,342.50 L969.00,339.50 L979.00,334.50 L982.00,334.50 L990.00,331.50 L995.50,331.00 L997.50,319.00 L998.50,318.00 L999.50,313.00 L1002.50,309.00 L1002.50,307.00 L1009.50,297.00 L1018.00,288.50 L1027.00,282.50 L1037.00,277.50Z M332.50,280.00 L346.00,279.50 L347.00,280.50 L352.00,280.50 L353.00,281.50 L364.00,284.50 L371.00,289.50 L374.00,290.50 L384.50,300.00 L392.50,311.00 L394.50,315.00 L394.50,317.00 L396.50,320.00 L397.50,326.00 L399.50,330.00 L378.00,332.50 L377.00,333.50 L372.00,334.50 L362.00,339.50 L356.00,344.50 L354.00,344.50 L339.50,362.00 L335.50,370.00 L334.50,375.00 L332.50,378.00 L332.50,382.00 L331.50,383.00 L330.00,399.50 L326.00,397.50 L319.00,396.50 L311.00,392.50 L305.00,388.50 L291.50,375.00 L285.50,366.00 L282.50,356.00 L280.50,353.00 L280.50,347.00 L279.50,346.00 L279.50,334.00 L280.50,333.00 L280.50,327.00 L281.50,326.00 L283.50,318.00 L285.50,315.00 L285.50,313.00 L291.50,304.00 L304.00,291.50 L310.00,287.50 L320.00,282.50Z M1053.50,280.00 L1067.00,279.50 L1068.00,280.50 L1073.00,280.50 L1074.00,281.50 L1079.00,282.50 L1082.00,284.50 L1087.00,285.50 L1093.00,289.50 L1097.00,293.50 L1099.00,293.50 L1105.50,300.00 L1114.50,313.00 L1114.50,315.00 L1117.50,321.00 L1118.50,327.00 L1120.50,331.00 L1120.50,348.00 L1118.50,352.00 L1118.50,356.00 L1114.50,364.00 L1114.50,366.00 L1108.50,374.00 L1108.50,376.00 L1094.00,389.50 L1085.00,394.50 L1083.00,394.50 L1080.00,396.50 L1078.00,396.50 L1074.00,398.50 L1069.50,398.00 L1068.50,383.00 L1067.50,382.00 L1066.50,375.00 L1062.50,367.00 L1062.50,365.00 L1059.50,362.00 L1056.50,356.00 L1042.00,341.50 L1038.00,340.50 L1033.00,336.50 L1031.00,336.50 L1021.00,332.50 L1018.00,332.50 L1017.00,331.50 L1008.00,331.50 L1007.00,330.50 L1001.50,330.00 L1002.50,323.00 L1003.50,322.00 L1004.50,317.00 L1006.50,315.00 L1007.50,311.00 L1014.50,301.00 L1023.00,292.50 L1041.00,282.50Z M394.50,336.00 L396.00,335.50 L399.50,337.00 L399.50,349.00 L397.50,353.00 L396.50,360.00 L392.50,368.00 L388.50,373.00 L388.50,375.00 L374.00,389.50 L370.00,390.50 L365.00,394.50 L363.00,394.50 L353.00,398.50 L350.00,398.50 L349.00,399.50 L336.00,399.50 L335.50,393.00 L336.50,392.00 L336.50,387.00 L337.50,386.00 L337.50,382.00 L340.50,376.00 L340.50,373.00 L342.50,371.00 L344.50,366.00 L353.50,354.00 L358.00,349.50 L363.00,347.50 L366.00,344.50 L376.00,339.50 L378.00,339.50 L382.00,337.50 L386.00,337.50 L387.00,336.50Z M1001.50,336.00 L1013.00,336.50 L1014.00,337.50 L1017.00,337.50 L1018.00,338.50 L1024.00,339.50 L1027.00,341.50 L1029.00,341.50 L1034.00,345.50 L1038.00,346.50 L1052.50,361.00 L1052.50,363.00 L1057.50,369.00 L1057.50,371.00 L1061.50,379.00 L1061.50,382.00 L1063.50,387.00 L1063.50,395.00 L1064.50,396.00 L1063.00,399.50 L1051.00,399.50 L1050.00,398.50 L1040.00,396.50 L1032.00,392.50 L1023.00,386.50 L1014.50,378.00 L1007.50,368.00 L1001.50,353.00 L1001.50,349.00 L1000.50,348.00 L1000.50,337.00Z M993.50,337.00 L995.50,337.00 L995.50,352.00 L996.50,353.00 L996.50,357.00 L997.50,358.00 L999.50,366.00 L1001.50,368.00 L1002.50,372.00 L1009.50,382.00 L1018.00,390.50 L1028.00,397.50 L1039.00,402.50 L1043.00,402.50 L1047.00,404.50 L1055.00,404.50 L1056.00,405.50 L1063.50,405.00 L1060.50,416.00 L1057.50,421.00 L1057.50,424.00 L1054.50,427.00 L1052.50,431.00 L1043.00,441.50 L1042.00,441.50 L1037.00,446.50 L1035.00,446.50 L1028.00,451.50 L1026.00,451.50 L1019.00,454.50 L1012.00,455.50 L1011.00,456.50 L998.00,456.50 L997.00,455.50 L992.00,455.50 L988.00,453.50 L984.00,453.50 L968.00,444.50 L952.50,428.00 L950.50,424.00 L950.50,422.00 L947.50,418.00 L947.50,416.00 L945.50,412.00 L945.50,409.00 L944.50,408.00 L944.50,403.00 L943.50,402.00 L943.50,390.00 L944.50,389.00 L944.50,384.00 L945.50,383.00 L948.50,372.00 L950.50,370.00 L952.50,365.00 L961.50,355.00 L961.50,354.00 L966.00,349.50 L970.00,347.50 L973.00,344.50 L983.00,339.50 L986.00,339.50 L987.00,338.50Z M405.50,338.00 L410.00,337.50 L411.00,338.50 L416.00,339.50 L419.00,341.50 L421.00,341.50 L423.00,343.50 L425.00,343.50 L434.00,349.50 L444.50,360.00 L444.50,362.00 L450.50,370.00 L450.50,372.00 L454.50,380.00 L454.50,384.00 L456.50,389.00 L456.50,403.00 L455.50,404.00 L455.50,408.00 L454.50,409.00 L453.50,415.00 L450.50,420.00 L450.50,423.00 L444.50,432.00 L436.00,441.50 L433.00,442.50 L426.00,448.50 L415.00,453.50 L408.00,454.50 L403.00,456.50 L391.00,456.50 L390.00,455.50 L385.00,455.50 L384.00,454.50 L377.00,453.50 L367.00,448.50 L362.00,444.50 L360.00,444.50 L350.50,435.00 L344.50,427.00 L343.50,423.00 L340.50,419.00 L340.50,417.00 L337.50,410.00 L337.50,406.00 L341.00,405.50 L342.00,404.50 L353.00,404.50 L354.00,403.50 L357.00,403.50 L358.00,402.50 L369.00,399.50 L374.00,395.50 L379.00,393.50 L392.50,380.00 L401.50,364.00 L402.50,357.00 L404.50,353.00Z M699.50,346.00 L700.00,345.50 L701.50,347.00 L702.50,350.00 L704.50,352.00 L706.50,357.00 L708.50,359.00 L714.50,371.00 L719.50,378.00 L729.50,397.00 L734.50,404.00 L744.50,423.00 L749.50,430.00 L751.50,435.00 L753.50,437.00 L755.50,442.00 L760.50,449.00 L770.50,468.00 L775.50,475.00 L785.50,494.00 L790.50,501.00 L791.00,503.50 L747.00,503.50 L703.00,427.50 L697.00,427.50 L695.50,429.00 L693.50,434.00 L688.50,441.00 L686.50,446.00 L684.50,448.00 L682.50,453.00 L680.50,455.00 L678.50,460.00 L673.50,467.00 L671.50,472.00 L669.50,474.00 L667.50,479.00 L665.50,481.00 L663.50,486.00 L661.50,488.00 L653.00,503.50 L608.50,503.00 L614.50,494.00 L624.50,475.00 L629.50,468.00 L639.50,449.00 L644.50,442.00 L650.50,430.00 L655.50,423.00 L657.50,418.00 L659.50,416.00 L661.50,411.00 L663.50,409.00 L665.50,404.00 L670.50,397.00 L672.50,392.00 L674.50,390.00 L676.50,385.00 L678.50,383.00 L680.50,378.00 L685.50,371.00 L687.50,366.00 L689.50,364.00 L691.50,359.00 L693.50,357.00 L695.50,352.00Z M221.50,440.00 L239.00,439.50 L244.00,441.50 L249.00,441.50 L267.00,450.50 L272.00,455.50 L273.00,455.50 L284.50,468.00 L291.50,482.00 L291.50,485.00 L293.50,490.00 L293.50,494.00 L294.50,495.00 L294.50,515.00 L293.50,516.00 L293.50,520.00 L292.50,521.00 L291.50,528.00 L282.50,545.00 L273.00,554.50 L272.00,554.50 L264.00,561.50 L262.00,561.50 L260.00,563.50 L256.00,565.50 L254.00,565.50 L251.00,567.50 L244.00,568.50 L239.00,570.50 L222.00,570.50 L221.00,569.50 L215.00,569.50 L214.00,568.50 L207.00,567.50 L200.00,563.50 L196.00,562.50 L193.00,559.50 L188.00,557.50 L178.50,548.00 L172.50,540.00 L172.50,538.00 L168.50,532.00 L168.50,529.00 L165.50,523.00 L164.50,513.00 L163.50,512.00 L163.50,498.00 L164.50,497.00 L165.50,487.00 L166.50,486.00 L168.50,478.00 L172.50,472.00 L172.50,470.00 L178.50,462.00 L188.00,452.50 L193.00,450.50 L196.00,447.50 L200.00,445.50 L202.00,445.50 L207.00,442.50 L210.00,442.50 L215.00,440.50Z M1162.50,440.00 L1180.00,439.50 L1181.00,440.50 L1190.00,441.50 L1193.00,443.50 L1196.00,443.50 L1202.00,446.50 L1207.00,450.50 L1209.00,450.50 L1225.50,467.00 L1227.50,470.00 L1227.50,472.00 L1229.50,474.00 L1229.50,476.00 L1233.50,483.00 L1234.50,491.00 L1235.50,492.00 L1235.50,499.00 L1236.50,500.00 L1235.50,518.00 L1234.50,519.00 L1233.50,527.00 L1225.50,543.00 L1209.00,559.50 L1207.00,559.50 L1198.00,565.50 L1196.00,565.50 L1189.00,568.50 L1186.00,568.50 L1185.00,569.50 L1181.00,569.50 L1180.00,570.50 L1163.00,570.50 L1162.00,569.50 L1156.00,569.50 L1152.00,567.50 L1146.00,566.50 L1141.00,563.50 L1139.00,563.50 L1130.00,557.50 L1115.50,542.00 L1112.50,535.00 L1109.50,531.00 L1109.50,528.00 L1106.50,521.00 L1106.50,515.00 L1105.50,514.00 L1105.50,496.00 L1106.50,495.00 L1106.50,489.00 L1109.50,482.00 L1109.50,479.00 L1118.50,464.00 L1130.00,452.50 L1134.00,450.50 L1137.00,447.50 L1149.00,442.50 L1152.00,442.50 L1156.00,440.50Z M699.50,441.00 L700.00,440.50 L701.50,442.00 L702.50,445.00 L704.50,447.00 L714.50,466.00 L716.50,468.00 L725.50,485.00 L727.50,487.00 L729.50,492.00 L734.50,499.00 L736.50,503.00 L736.00,503.50 L663.50,503.00Z M225.50,445.00 L235.00,444.50 L240.00,446.50 L245.00,446.50 L260.00,453.50 L268.00,459.50 L277.50,469.00 L281.50,475.00 L281.50,477.00 L286.50,486.00 L286.50,489.00 L288.50,494.00 L288.50,498.00 L289.50,499.00 L289.50,511.00 L288.50,512.00 L288.50,516.00 L287.50,517.00 L286.50,524.00 L277.50,541.00 L268.00,550.50 L260.00,556.50 L247.00,562.50 L240.00,563.50 L235.00,565.50 L226.00,565.50 L225.00,564.50 L219.00,564.50 L218.00,563.50 L211.00,562.50 L204.00,558.50 L200.00,557.50 L197.00,554.50 L195.00,554.50 L192.00,552.50 L183.50,544.00 L177.50,536.00 L177.50,534.00 L173.50,528.00 L173.50,526.00 L170.50,519.00 L169.50,509.00 L168.50,508.00 L169.50,496.00 L170.50,495.00 L170.50,491.00 L171.50,490.00 L173.50,482.00 L176.50,478.00 L177.50,474.00 L183.50,466.00 L192.00,457.50 L195.00,455.50 L197.00,455.50 L200.00,452.50 L204.00,450.50 L206.00,450.50 L211.00,447.50 L214.00,447.50 L219.00,445.50Z M1166.50,445.00 L1177.00,444.50 L1182.00,446.50 L1186.00,446.50 L1189.00,448.50 L1192.00,448.50 L1198.00,451.50 L1203.00,455.50 L1205.00,455.50 L1220.50,471.00 L1222.50,474.00 L1222.50,476.00 L1224.50,478.00 L1224.50,480.00 L1228.50,487.00 L1229.50,495.00 L1230.50,496.00 L1230.50,503.00 L1231.50,504.00 L1228.50,523.00 L1220.50,539.00 L1205.00,554.50 L1203.00,554.50 L1194.00,560.50 L1192.00,560.50 L1185.00,563.50 L1178.00,564.50 L1177.00,565.50 L1167.00,565.50 L1166.00,564.50 L1160.00,564.50 L1156.00,562.50 L1153.00,562.50 L1145.00,558.50 L1141.00,557.50 L1138.00,554.50 L1134.00,552.50 L1123.50,542.00 L1118.50,535.00 L1118.50,533.00 L1114.50,527.00 L1114.50,524.00 L1111.50,517.00 L1111.50,511.00 L1110.50,510.00 L1110.50,500.00 L1111.50,499.00 L1111.50,493.00 L1113.50,489.00 L1113.50,486.00 L1115.50,481.00 L1118.50,477.00 L1118.50,475.00 L1123.50,468.00 L1134.00,457.50 L1138.00,455.50 L1141.00,452.50 L1153.00,447.50 L1156.00,447.50 L1160.00,445.50Z M373.50,511.00 L593.50,511.00 L575.00,543.50 L431.50,544.00 L431.50,550.00 L432.50,552.00 L434.50,554.00 L436.50,559.00 L438.50,561.00 L440.50,566.00 L445.50,573.00 L455.50,592.00 L460.50,599.00 L466.50,611.00 L471.50,618.00 L477.50,630.00 L479.50,632.00 L488.50,649.00 L490.50,651.00 L492.50,656.00 L494.50,658.00 L499.50,668.00 L501.50,670.00 L499.50,675.00 L497.50,677.00 L495.50,682.00 L490.50,689.00 L484.00,701.50 L480.50,697.00 L475.50,687.00 L473.50,685.00 L463.50,666.00 L458.50,659.00 L452.50,647.00 L447.50,640.00 L441.50,628.00 L436.50,621.00 L426.50,602.00 L421.50,595.00 L419.50,590.00 L417.50,588.00 L415.50,583.00 L410.50,576.00 L408.50,571.00 L406.50,569.00 L404.50,564.00 L399.50,557.00 L397.50,552.00 L395.50,550.00 L393.50,545.00 L391.50,543.00 L389.50,538.00 L384.50,531.00 L382.50,526.00 L380.50,524.00 L378.50,519.00 L376.50,517.00Z M604.50,511.00 L648.50,511.00 L630.00,543.50 L585.50,543.00Z M659.50,511.00 L740.00,510.50 L742.50,513.00 L743.50,516.00 L745.50,518.00 L747.50,523.00 L749.50,525.00 L751.50,530.00 L753.50,532.00 L755.50,537.00 L759.50,543.00 L720.00,543.50 L715.50,535.00 L713.50,533.00 L711.50,528.00 L706.50,521.00 L704.50,516.00 L703.00,514.50 L697.00,514.50 L680.00,543.50 L641.00,543.50 L640.50,543.00 L642.50,539.00 L644.50,537.00 L654.50,518.00Z M751.50,511.00 L795.00,510.50 L798.50,515.00 L799.50,518.00 L801.50,520.00 L803.50,525.00 L805.50,527.00 L807.50,532.00 L809.50,534.00 L811.50,539.00 L814.50,543.00 L770.00,543.50Z M806.50,511.00 L1026.00,510.50 L1026.50,512.00 L1021.50,519.00 L1019.50,524.00 L1017.50,526.00 L1015.50,531.00 L1010.50,538.00 L1000.50,557.00 L995.50,564.00 L993.50,569.00 L991.50,571.00 L989.50,576.00 L984.50,583.00 L978.50,595.00 L973.50,602.00 L971.50,607.00 L969.50,609.00 L963.50,621.00 L961.50,623.00 L952.50,640.00 L947.50,647.00 L941.50,659.00 L936.50,666.00 L926.50,685.00 L924.50,687.00 L919.50,697.00 L916.00,701.50 L909.50,689.00 L904.50,682.00 L902.50,677.00 L900.50,675.00 L898.50,670.00 L900.50,668.00 L902.50,663.00 L907.50,656.00 L917.50,637.00 L922.50,630.00 L928.50,618.00 L933.50,611.00 L939.50,599.00 L944.50,592.00 L954.50,573.00 L956.50,571.00 L965.50,554.00 L967.50,552.00 L968.50,550.00 L968.50,544.00 L825.00,543.50Z M699.50,528.00 L700.00,527.50 L701.50,529.00 L706.50,539.00 L708.50,541.00 L709.00,543.50 L690.50,543.00Z M442.50,551.00 L570.00,550.50 L570.50,552.00 L568.50,554.00 L566.50,559.00 L561.50,566.00 L559.50,571.00 L557.50,573.00 L552.00,583.50 L501.50,584.00 L501.50,591.00 L524.50,630.00 L522.50,635.00 L520.50,637.00 L518.50,642.00 L516.50,644.00 L514.50,649.00 L512.50,651.00 L507.00,661.50 L499.50,650.00 L489.50,631.00 L484.50,624.00 L478.50,612.00 L473.50,605.00 L467.50,593.00 L462.50,586.00 L460.50,581.00 L458.50,579.00 L456.50,574.00 L454.50,572.00 L452.50,567.00 L450.50,565.00 L449.50,562.00 L447.50,560.00 L445.50,555.00Z M581.50,551.00 L625.50,551.00 L607.00,583.50 L562.50,583.00 L571.50,567.00 L573.50,565.00 L575.50,560.00 L577.50,558.00 L579.50,553.00Z M635.50,551.00 L675.00,550.50 L675.50,552.00 L673.50,554.00 L671.50,559.00 L669.50,561.00 L667.50,566.00 L665.50,568.00 L663.50,573.00 L661.50,575.00 L657.00,583.50 L618.00,583.50 L617.50,583.00 L620.50,577.00 L622.50,575.00 L624.50,570.00 L629.50,563.00Z M686.50,551.00 L713.00,550.50 L716.50,555.00 L717.50,558.00 L719.50,560.00 L721.50,565.00 L723.50,567.00 L725.50,572.00 L727.50,574.00 L729.50,579.00 L732.50,583.00 L668.00,583.50 L668.50,581.00 L670.50,579.00 L672.50,574.00 L674.50,572.00 L676.50,567.00 L678.50,565.00 L680.50,560.00Z M724.50,551.00 L764.00,550.50 L782.50,583.00 L743.00,583.50Z M774.50,551.00 L818.00,550.50 L820.50,553.00 L822.50,558.00 L824.50,560.00 L826.50,565.00 L828.50,567.00 L837.50,583.00 L793.00,583.50Z M829.50,551.00 L957.50,551.00 L954.50,555.00 L949.50,565.00 L947.50,567.00 L937.50,586.00 L932.50,593.00 L926.50,605.00 L921.50,612.00 L915.50,624.00 L910.50,631.00 L900.50,650.00 L893.00,661.50 L887.50,651.00 L885.50,649.00 L883.50,644.00 L881.50,642.00 L879.50,637.00 L877.50,635.00 L875.50,630.00 L881.50,621.00 L890.50,604.00 L892.50,602.00 L894.50,597.00 L896.50,595.00 L898.50,591.00 L898.50,584.00 L848.00,583.50Z M512.50,591.00 L547.50,591.00 L530.00,621.50 L525.50,615.00 L516.50,598.00 L514.50,596.00Z M558.50,591.00 L602.50,591.00 L593.50,607.00 L591.50,609.00 L589.50,614.00 L587.50,616.00 L585.50,621.00 L583.00,623.50 L570.50,624.00 L570.50,631.00 L575.50,638.00 L572.50,642.00 L563.50,659.00 L561.50,661.00 L559.50,666.00 L557.00,668.50 L549.50,655.00 L547.50,653.00 L545.50,648.00 L543.50,646.00 L541.50,641.00 L536.50,634.00 L535.50,630.00 L538.50,624.00 L540.50,622.00 L542.50,617.00 L547.50,610.00 L549.50,605.00 L551.50,603.00 L553.50,598.00Z M612.50,591.00 L652.00,590.50 L652.50,592.00 L650.50,594.00 L648.50,599.00 L643.50,606.00 L641.50,611.00 L639.50,613.00 L634.00,623.50 L595.00,623.50 L594.50,622.00 L596.50,620.00 L598.50,615.00 L603.50,608.00Z M663.50,591.00 L736.00,590.50 L738.50,593.00 L740.50,598.00 L742.50,600.00 L744.50,605.00 L746.50,607.00 L755.50,623.00 L720.00,623.50 L715.50,615.00 L713.50,613.00 L711.50,608.00 L706.50,601.00 L704.50,596.00 L703.00,594.50 L697.00,594.50 L680.00,623.50 L645.00,623.50 L644.50,623.00 L646.50,619.00 L648.50,617.00 L650.50,612.00 L652.50,610.00 L661.50,593.00Z M747.50,591.00 L787.00,590.50 L805.50,623.00 L766.00,623.50Z M797.50,591.00 L841.00,590.50 L846.50,598.00 L852.50,610.00 L854.50,612.00 L859.50,622.00 L861.50,624.00 L864.50,630.00 L864.50,632.00 L858.50,641.00 L856.50,646.00 L854.50,648.00 L852.50,653.00 L850.50,655.00 L843.00,668.50 L840.50,666.00 L838.50,661.00 L836.50,659.00 L835.50,656.00 L833.50,654.00 L831.50,649.00 L829.50,647.00 L827.50,642.00 L824.50,638.00 L829.50,631.00 L829.50,624.00 L817.00,623.50 L814.50,621.00 L812.50,616.00 L810.50,614.00 L808.50,609.00 L806.50,607.00Z M852.50,591.00 L887.50,591.00 L885.50,596.00 L883.50,598.00 L874.50,615.00 L870.00,621.50Z M1.50,592.00 L106.50,592.00 L106.00,808.50 L1.50,808.00Z M1293.50,592.00 L1398.50,592.00 L1398.00,808.50 L1293.50,808.00Z M699.50,608.00 L700.00,607.50 L701.50,609.00 L706.50,619.00 L708.50,621.00 L709.00,623.50 L690.50,623.00Z M589.50,631.00 L629.50,631.00 L606.00,671.50 L605.00,671.50 L602.50,668.00 L601.50,665.00 L599.50,663.00 L597.50,658.00 L595.50,656.00 L593.50,651.00 L591.50,649.00 L585.50,638.00 L588.50,634.00Z M639.50,631.00 L675.00,630.50 L675.50,632.00 L673.50,634.00 L668.50,644.00 L663.50,651.00 L661.50,656.00 L658.00,660.50 L633.50,661.00 L633.50,667.00 L644.50,686.00 L629.00,712.50 L625.50,708.00 L623.50,703.00 L621.50,701.00 L612.50,684.00 L610.50,682.00 L614.50,676.00 L616.50,671.00 L618.50,669.00 L620.50,664.00 L622.50,662.00 L624.50,657.00 L629.50,650.00 L631.50,645.00 L633.50,643.00 L635.50,638.00 L637.50,636.00Z M686.50,631.00 L713.00,630.50 L715.50,633.00 L717.50,638.00 L722.50,645.00 L730.50,660.00 L670.00,660.50 L669.50,659.00 L670.50,657.00 L672.50,655.00 L677.50,645.00 L679.50,643.00 L684.50,633.00Z M724.50,631.00 L760.00,630.50 L766.50,643.00 L768.50,645.00 L770.50,650.00 L772.50,652.00 L777.50,662.00 L779.50,664.00 L781.50,669.00 L783.50,671.00 L785.50,676.00 L787.50,678.00 L789.50,682.00 L787.50,684.00 L778.50,701.00 L776.50,703.00 L774.50,708.00 L771.00,712.50 L755.50,686.00 L766.50,667.00 L766.50,661.00 L742.00,660.50 L738.50,656.00 L736.50,651.00 L734.50,649.00Z M770.50,631.00 L810.50,631.00 L811.50,634.00 L814.50,638.00 L795.00,671.50 L792.50,670.00 L790.50,665.00 L788.50,663.00 L786.50,658.00 L784.50,656.00 L782.50,651.00 L780.50,649.00Z M182.50,635.00 L200.00,634.50 L205.00,636.50 L210.00,636.50 L220.00,641.50 L222.00,641.50 L231.00,647.50 L237.00,642.50 L241.00,641.50 L248.00,637.50 L252.00,637.50 L256.00,635.50 L262.00,635.50 L263.00,634.50 L280.00,634.50 L281.00,635.50 L290.00,636.50 L293.00,638.50 L295.00,638.50 L300.00,641.50 L302.00,641.50 L311.00,647.50 L326.50,664.00 L326.50,666.00 L328.50,668.00 L330.50,672.00 L330.50,674.00 L333.50,679.00 L333.50,683.00 L335.50,688.00 L335.50,712.00 L333.50,717.00 L333.50,721.00 L324.50,739.00 L311.00,752.50 L302.00,758.50 L300.00,758.50 L290.00,763.50 L285.00,763.50 L280.00,765.50 L263.00,765.50 L262.00,764.50 L256.00,764.50 L252.00,762.50 L248.00,762.50 L241.00,758.50 L237.00,757.50 L231.00,752.50 L222.00,758.50 L220.00,758.50 L210.00,763.50 L205.00,763.50 L200.00,765.50 L183.00,765.50 L182.00,764.50 L176.00,764.50 L172.00,762.50 L168.00,762.50 L161.00,758.50 L157.00,757.50 L154.00,754.50 L150.00,752.50 L139.50,743.00 L134.50,736.00 L134.50,734.00 L132.50,732.00 L131.50,729.00 L129.50,727.00 L129.50,724.00 L128.50,723.00 L128.50,721.00 L126.50,717.00 L126.50,713.00 L125.50,712.00 L125.50,688.00 L126.50,687.00 L126.50,683.00 L129.50,676.00 L129.50,673.00 L134.50,666.00 L134.50,664.00 L139.50,657.00 L146.00,650.50 L154.00,645.50 L157.00,642.50 L161.00,641.50 L168.00,637.50 L172.00,637.50 L176.00,635.50Z M1121.50,635.00 L1139.00,634.50 L1140.00,635.50 L1149.00,636.50 L1152.00,638.50 L1154.00,638.50 L1157.00,640.50 L1161.00,641.50 L1170.00,647.50 L1176.00,642.50 L1180.00,641.50 L1187.00,637.50 L1191.00,637.50 L1195.00,635.50 L1201.00,635.50 L1202.00,634.50 L1219.00,634.50 L1220.00,635.50 L1229.00,636.50 L1232.00,638.50 L1237.00,639.50 L1246.00,645.50 L1249.00,646.50 L1263.50,661.00 L1265.50,664.00 L1265.50,666.00 L1267.50,668.00 L1272.50,679.00 L1272.50,683.00 L1274.50,687.00 L1274.50,696.00 L1275.50,697.00 L1274.50,713.00 L1272.50,717.00 L1272.50,721.00 L1270.50,724.00 L1270.50,726.00 L1267.50,732.00 L1265.50,734.00 L1265.50,736.00 L1263.50,739.00 L1249.00,753.50 L1246.00,754.50 L1241.00,758.50 L1237.00,760.50 L1232.00,761.50 L1229.00,763.50 L1225.00,763.50 L1224.00,764.50 L1220.00,764.50 L1219.00,765.50 L1202.00,765.50 L1201.00,764.50 L1195.00,764.50 L1191.00,762.50 L1187.00,762.50 L1180.00,758.50 L1176.00,757.50 L1170.00,752.50 L1161.00,758.50 L1157.00,759.50 L1154.00,761.50 L1152.00,761.50 L1149.00,763.50 L1145.00,763.50 L1144.00,764.50 L1140.00,764.50 L1139.00,765.50 L1122.00,765.50 L1121.00,764.50 L1115.00,764.50 L1111.00,762.50 L1107.00,762.50 L1100.00,758.50 L1096.00,757.50 L1093.00,754.50 L1089.00,752.50 L1079.50,744.00 L1073.50,736.00 L1073.50,734.00 L1068.50,726.00 L1068.50,724.00 L1065.50,717.00 L1065.50,712.00 L1064.50,711.00 L1064.50,689.00 L1065.50,688.00 L1065.50,683.00 L1066.50,682.00 L1068.50,674.00 L1073.50,666.00 L1073.50,664.00 L1083.00,652.50 L1098.00,641.50 L1100.00,641.50 L1107.00,637.50 L1111.00,637.50 L1115.00,635.50Z M186.50,640.00 L196.00,639.50 L197.00,640.50 L206.00,641.50 L209.00,643.50 L211.00,643.50 L214.00,645.50 L218.00,646.50 L225.50,652.00 L220.50,656.00 L214.50,664.00 L214.50,666.00 L212.50,668.00 L209.50,674.00 L209.50,676.00 L206.50,683.00 L206.50,687.00 L205.50,688.00 L205.50,712.00 L206.50,713.00 L206.50,717.00 L207.50,718.00 L209.50,726.00 L212.50,732.00 L214.50,734.00 L214.50,736.00 L220.50,744.00 L225.50,748.00 L216.00,754.50 L214.00,754.50 L206.00,758.50 L202.00,758.50 L201.00,759.50 L197.00,759.50 L196.00,760.50 L187.00,760.50 L186.00,759.50 L180.00,759.50 L179.00,758.50 L172.00,757.50 L165.00,753.50 L161.00,752.50 L158.00,749.50 L151.00,745.50 L141.50,735.00 L136.50,725.00 L134.50,723.00 L133.50,717.00 L131.50,713.00 L131.50,709.00 L130.50,708.00 L130.50,692.00 L131.50,691.00 L131.50,687.00 L133.50,683.00 L133.50,680.00 L139.50,668.00 L144.50,661.00 L151.00,654.50 L158.00,650.50 L161.00,647.50 L165.00,646.50 L172.00,642.50 L175.00,642.50 L180.00,640.50Z M266.50,640.00 L276.00,639.50 L277.00,640.50 L286.00,641.50 L289.00,643.50 L296.00,645.50 L303.00,650.50 L306.00,651.50 L321.50,668.00 L321.50,670.00 L323.50,672.00 L325.50,676.00 L325.50,678.00 L328.50,683.00 L329.50,691.00 L330.50,692.00 L330.50,708.00 L329.50,709.00 L328.50,717.00 L319.50,735.00 L306.00,748.50 L303.00,749.50 L298.00,753.50 L294.00,754.50 L291.00,756.50 L289.00,756.50 L286.00,758.50 L282.00,758.50 L281.00,759.50 L277.00,759.50 L276.00,760.50 L267.00,760.50 L266.00,759.50 L260.00,759.50 L256.00,757.50 L252.00,757.50 L245.00,753.50 L241.00,752.50 L235.50,748.00 L243.50,740.00 L245.50,737.00 L245.50,735.00 L248.50,732.00 L250.50,728.00 L250.50,726.00 L252.50,723.00 L254.50,713.00 L255.50,712.00 L255.50,688.00 L254.50,687.00 L253.50,680.00 L248.50,668.00 L245.50,665.00 L245.50,663.00 L235.50,652.00 L241.00,647.50 L245.00,646.50 L252.00,642.50 L256.00,642.50 L260.00,640.50Z M1125.50,640.00 L1135.00,639.50 L1136.00,640.50 L1145.00,641.50 L1148.00,643.50 L1150.00,643.50 L1153.00,645.50 L1157.00,646.50 L1164.50,652.00 L1159.50,656.00 L1153.50,664.00 L1153.50,666.00 L1148.50,674.00 L1148.50,677.00 L1145.50,683.00 L1145.50,688.00 L1144.50,689.00 L1144.50,711.00 L1145.50,712.00 L1145.50,717.00 L1148.50,723.00 L1148.50,726.00 L1152.50,732.00 L1153.50,736.00 L1159.50,744.00 L1164.50,748.00 L1155.00,754.50 L1153.00,754.50 L1145.00,758.50 L1141.00,758.50 L1140.00,759.50 L1136.00,759.50 L1135.00,760.50 L1126.00,760.50 L1125.00,759.50 L1119.00,759.50 L1115.00,757.50 L1111.00,757.50 L1104.00,753.50 L1100.00,752.50 L1088.00,743.50 L1078.50,732.00 L1077.50,728.00 L1075.50,726.00 L1072.50,720.00 L1072.50,717.00 L1070.50,713.00 L1070.50,708.00 L1069.50,707.00 L1069.50,693.00 L1070.50,692.00 L1070.50,687.00 L1072.50,683.00 L1072.50,680.00 L1075.50,674.00 L1077.50,672.00 L1078.50,668.00 L1084.50,660.00 L1093.00,652.50 L1102.00,646.50 L1104.00,646.50 L1111.00,642.50 L1115.00,642.50 L1119.00,640.50Z M1205.50,640.00 L1215.00,639.50 L1216.00,640.50 L1225.00,641.50 L1228.00,643.50 L1230.00,643.50 L1237.00,646.50 L1242.00,650.50 L1244.00,650.50 L1258.50,665.00 L1260.50,668.00 L1260.50,670.00 L1262.50,672.00 L1267.50,683.00 L1267.50,686.00 L1269.50,691.00 L1269.50,709.00 L1268.50,710.00 L1268.50,713.00 L1267.50,714.00 L1267.50,717.00 L1265.50,720.00 L1265.50,722.00 L1262.50,728.00 L1260.50,730.00 L1260.50,732.00 L1258.50,735.00 L1244.00,749.50 L1242.00,749.50 L1233.00,755.50 L1228.00,756.50 L1225.00,758.50 L1221.00,758.50 L1220.00,759.50 L1216.00,759.50 L1215.00,760.50 L1206.00,760.50 L1205.00,759.50 L1199.00,759.50 L1195.00,757.50 L1191.00,757.50 L1184.00,753.50 L1180.00,752.50 L1174.50,748.00 L1183.50,739.00 L1185.50,736.00 L1185.50,734.00 L1187.50,732.00 L1190.50,726.00 L1190.50,724.00 L1192.50,721.00 L1193.50,713.00 L1194.50,712.00 L1194.50,703.00 L1195.50,702.00 L1195.50,698.00 L1194.50,697.00 L1194.50,688.00 L1193.50,687.00 L1192.50,679.00 L1190.50,676.00 L1190.50,674.00 L1187.50,668.00 L1185.50,666.00 L1185.50,664.00 L1183.50,661.00 L1174.50,652.00 L1180.00,647.50 L1184.00,646.50 L1191.00,642.50 L1195.00,642.50 L1199.00,640.50Z M529.50,641.00 L530.00,640.50 L531.50,642.00 L532.50,645.00 L534.50,647.00 L536.50,652.00 L538.50,654.00 L540.50,659.00 L542.50,661.00 L551.50,677.00 L551.50,679.00 L548.50,685.00 L546.50,687.00 L540.50,699.00 L534.00,708.50 L512.50,672.00 L512.50,669.00 L514.50,667.00 L523.50,650.00 L525.50,648.00 L527.50,643.00Z M869.50,641.00 L870.00,640.50 L872.50,643.00 L882.50,662.00 L887.50,669.00 L887.50,672.00 L866.00,708.50 L859.50,699.00 L853.50,687.00 L851.50,685.00 L848.50,679.00 L848.50,677.00Z M579.50,648.00 L580.00,647.50 L583.50,652.00 L584.50,655.00 L586.50,657.00 L588.50,662.00 L590.50,664.00 L592.50,669.00 L594.50,671.00 L600.50,682.00 L598.50,684.00 L596.50,689.00 L594.50,691.00 L583.00,711.50 L580.50,710.00 L578.50,705.00 L573.50,698.00 L567.50,686.00 L562.50,679.00 L564.50,674.00 L566.50,672.00 L568.50,667.00 L573.50,660.00Z M819.50,648.00 L820.50,648.00 L822.50,653.00 L824.50,655.00 L826.50,660.00 L831.50,667.00 L837.50,679.00 L832.50,686.00 L830.50,691.00 L828.50,693.00 L826.50,698.00 L821.50,705.00 L819.50,710.00 L817.00,711.50 L812.50,703.00 L810.50,701.00 L808.50,696.00 L803.50,689.00 L801.50,684.00 L799.50,682.00 L805.50,671.00 L807.50,669.00 L809.50,664.00 L811.50,662.00 L813.50,657.00Z M228.50,657.00 L231.00,656.50 L240.50,667.00 L245.50,676.00 L245.50,678.00 L247.50,681.00 L247.50,683.00 L249.50,687.00 L249.50,691.00 L250.50,692.00 L250.50,708.00 L249.50,709.00 L249.50,713.00 L248.50,714.00 L247.50,719.00 L245.50,722.00 L245.50,724.00 L243.50,728.00 L241.50,730.00 L238.50,736.00 L231.00,743.50 L229.00,743.50 L219.50,732.00 L213.50,720.00 L213.50,717.00 L212.50,716.00 L211.50,709.00 L210.50,708.00 L210.50,692.00 L211.50,691.00 L211.50,687.00 L213.50,683.00 L213.50,680.00 L219.50,668.00Z M1168.50,657.00 L1170.00,656.50 L1180.50,668.00 L1180.50,670.00 L1182.50,672.00 L1187.50,683.00 L1188.50,691.00 L1189.50,692.00 L1189.50,708.00 L1188.50,709.00 L1187.50,717.00 L1182.50,728.00 L1180.50,730.00 L1180.50,732.00 L1170.00,743.50 L1166.00,741.50 L1158.50,732.00 L1157.50,728.00 L1153.50,722.00 L1153.50,719.00 L1150.50,713.00 L1150.50,708.00 L1149.50,707.00 L1149.50,693.00 L1150.50,692.00 L1150.50,687.00 L1153.50,681.00 L1153.50,678.00 L1157.50,672.00 L1158.50,668.00 L1164.50,660.00Z M644.50,668.00 L654.50,668.00 L650.00,676.50 L647.50,674.00Z M664.50,668.00 L735.00,667.50 L737.50,671.00 L738.50,675.00 L740.50,677.00 L742.50,682.00 L745.50,686.00 L743.50,688.00 L741.50,693.00 L736.50,700.00 L730.50,712.00 L725.50,719.00 L715.50,738.00 L709.00,747.50 L691.00,747.50 L689.50,746.00 L686.50,740.00 L684.50,738.00 L682.50,733.00 L680.50,731.00 L678.50,726.00 L676.50,724.00 L674.50,719.00 L669.50,712.00 L667.50,707.00 L665.50,705.00 L663.50,700.00 L661.50,698.00 L656.50,688.00 L654.50,686.00 L657.50,682.00 L659.50,677.00 L661.50,675.00 L661.50,673.00Z M745.50,668.00 L755.50,668.00 L752.50,674.00 L750.00,676.50Z M506.50,681.00 L507.00,680.50 L508.50,682.00 L510.50,687.00 L512.50,689.00 L514.50,694.00 L516.50,696.00 L517.50,699.00 L519.50,701.00 L521.50,706.00 L523.50,708.00 L525.50,713.00 L528.50,717.00 L528.50,719.00 L525.50,725.00 L520.50,732.00 L518.50,737.00 L516.50,739.00 L511.00,749.50 L489.50,712.00 L489.50,709.00 L491.50,707.00 L497.50,695.00 L499.50,693.00 L504.50,683.00Z M892.50,681.00 L893.00,680.50 L895.50,683.00 L897.50,688.00 L902.50,695.00 L904.50,700.00 L910.50,709.00 L910.50,712.00 L889.00,749.50 L883.50,739.00 L881.50,737.00 L879.50,732.00 L874.50,725.00 L871.50,719.00 L871.50,717.00Z M556.50,688.00 L557.00,687.50 L560.50,692.00 L562.50,697.00 L564.50,699.00 L566.50,704.00 L568.50,706.00 L569.50,709.00 L571.50,711.00 L573.50,716.00 L576.50,720.00 L576.50,723.00 L574.50,727.00 L572.50,729.00 L566.50,741.00 L559.00,752.50 L552.50,740.00 L547.50,733.00 L545.50,728.00 L543.50,726.00 L541.50,721.00 L539.50,719.00 L542.50,712.00 L547.50,705.00Z M842.50,688.00 L843.50,688.00 L844.50,691.00 L846.50,693.00 L852.50,705.00 L857.50,712.00 L860.50,719.00 L858.50,721.00 L856.50,726.00 L854.50,728.00 L852.50,733.00 L847.50,740.00 L841.00,752.50 L833.50,741.00 L827.50,729.00 L825.50,727.00 L823.50,723.00 L823.50,720.00Z M604.50,692.00 L606.00,691.50 L608.50,695.00 L618.50,714.00 L623.50,721.00 L621.50,726.00 L619.50,728.00 L614.50,738.00 L608.50,747.00 L608.50,754.00 L642.00,754.50 L645.50,759.00 L654.50,776.00 L656.50,778.00 L658.50,783.00 L661.50,787.00 L661.00,787.50 L626.00,787.50 L621.50,781.00 L615.50,769.00 L610.50,762.00 L604.50,750.00 L602.50,748.00 L593.50,731.00 L591.50,729.00 L589.50,724.00 L587.50,722.00 L590.50,716.00 L592.50,714.00 L594.50,709.00 L596.50,707.00 L598.50,702.00 L603.50,695.00Z M793.50,692.00 L795.50,692.00 L796.50,695.00 L801.50,702.00 L803.50,707.00 L805.50,709.00 L807.50,714.00 L809.50,716.00 L812.50,722.00 L810.50,724.00 L800.50,743.00 L795.50,750.00 L789.50,762.00 L787.50,764.00 L778.50,781.00 L774.00,787.50 L739.00,787.50 L738.50,787.00 L741.50,783.00 L743.50,778.00 L745.50,776.00 L754.50,759.00 L758.00,754.50 L791.50,754.00 L791.50,747.00 L785.50,738.00 L780.50,728.00 L778.50,726.00 L776.50,721.00 L781.50,714.00 L783.50,709.00 L785.50,707.00Z M693.50,694.00 L706.00,693.50 L706.50,706.00 L694.00,706.50Z M648.50,696.00 L650.50,696.00 L651.50,699.00 L656.50,706.00 L662.50,718.00 L664.50,720.00 L673.50,737.00 L675.50,739.00 L677.50,744.00 L679.50,746.00 L679.00,747.50 L649.00,747.50 L647.50,746.00 L641.50,734.00 L636.50,727.00 L634.50,723.00 L634.50,720.00 L639.50,713.00Z M749.50,696.00 L751.50,696.00 L753.50,701.00 L755.50,703.00 L760.50,713.00 L765.50,720.00 L765.50,723.00 L763.50,727.00 L761.50,729.00 L760.50,732.00 L758.50,734.00 L756.50,739.00 L751.00,747.50 L721.00,747.50 L720.50,746.00 L722.50,744.00 L724.50,739.00 L726.50,737.00 L728.50,732.00 L730.50,730.00 L732.50,725.00 L737.50,718.00 L739.50,713.00 L741.50,711.00Z M482.50,721.00 L484.00,720.50 L486.50,724.00 L488.50,729.00 L490.50,731.00 L499.50,748.00 L501.50,750.00 L503.50,755.00 L505.50,757.00 L505.50,759.00 L496.50,775.00 L494.50,777.00 L492.50,782.00 L490.50,784.00 L488.50,789.00 L486.50,791.00 L484.50,796.00 L479.50,803.00 L469.50,822.00 L464.50,829.00 L463.50,831.00 L463.50,838.00 L551.00,838.50 L553.50,841.00 L562.50,858.00 L567.50,865.00 L569.50,870.00 L571.50,872.00 L574.50,878.00 L574.00,878.50 L392.50,878.00 L400.50,863.00 L405.50,856.00 L407.50,851.00 L409.50,849.00 L411.50,844.00 L413.50,842.00 L415.50,837.00 L417.50,835.00 L422.50,825.00 L424.50,823.00 L426.50,818.00 L428.50,816.00 L430.50,811.00 L432.50,809.00 L437.50,799.00 L439.50,797.00 L441.50,792.00 L446.50,785.00 L456.50,766.00 L461.50,759.00 L471.50,740.00 L476.50,733.00Z M915.50,721.00 L917.50,721.00 L923.50,733.00 L928.50,740.00 L938.50,759.00 L943.50,766.00 L953.50,785.00 L958.50,792.00 L964.50,804.00 L969.50,811.00 L979.50,830.00 L984.50,837.00 L994.50,856.00 L996.50,858.00 L1005.50,875.00 L1007.50,877.00 L1007.00,878.50 L825.50,878.00 L828.50,872.00 L830.50,870.00 L832.50,865.00 L837.50,858.00 L839.50,853.00 L841.50,851.00 L843.50,846.00 L849.00,838.50 L936.50,838.00 L936.50,831.00 L935.50,829.00 L930.50,822.00 L928.50,817.00 L926.50,815.00 L924.50,810.00 L922.50,808.00 L920.50,803.00 L915.50,796.00 L913.50,791.00 L911.50,789.00 L909.50,784.00 L907.50,782.00 L905.50,777.00 L903.50,775.00 L894.50,759.00 L894.50,757.00 L896.50,755.00 L898.50,750.00 L900.50,748.00 L902.50,743.00 L904.50,741.00 L906.50,736.00 L908.50,734.00Z M533.50,728.00 L534.00,727.50 L535.50,729.00 L540.50,739.00 L542.50,741.00 L547.50,751.00 L549.50,753.00 L551.50,758.00 L553.50,760.00 L553.50,763.00 L551.50,767.00 L549.50,769.00 L540.50,786.00 L538.50,788.00 L538.50,794.00 L573.00,794.50 L580.50,808.00 L582.50,810.00 L584.50,815.00 L586.50,817.00 L588.50,821.00 L588.50,823.00 L593.50,830.00 L593.00,831.50 L558.00,831.50 L556.50,828.00 L554.50,826.00 L552.50,820.00 L547.50,813.00 L537.50,794.00 L535.50,792.00 L526.50,775.00 L524.50,773.00 L523.50,770.00 L521.50,768.00 L519.50,763.00 L516.50,759.00 L516.50,757.00 L521.50,750.00 L523.50,745.00 L525.50,743.00Z M865.50,728.00 L866.50,728.00 L874.50,743.00 L876.50,745.00 L878.50,750.00 L883.50,757.00 L882.50,761.00 L880.50,763.00 L878.50,768.00 L873.50,775.00 L867.50,787.00 L862.50,794.00 L852.50,813.00 L847.50,820.00 L846.50,824.00 L842.00,831.50 L807.00,831.50 L806.50,830.00 L811.50,823.00 L811.50,821.00 L813.50,817.00 L815.50,815.00 L817.50,810.00 L819.50,808.00 L827.00,794.50 L861.50,794.00 L861.50,788.00 L859.50,786.00 L853.50,774.00 L848.50,767.00 L846.50,763.00 L846.50,760.00 L848.50,758.00 L850.50,753.00 L852.50,751.00 L854.50,746.00 L856.50,744.00Z M581.50,732.00 L583.00,731.50 L584.50,735.00 L586.50,737.00 L592.50,749.00 L594.50,751.00 L603.50,768.00 L605.50,770.00 L610.50,780.00 L612.50,782.00 L614.50,786.00 L614.00,787.50 L580.00,787.50 L573.50,778.00 L564.50,761.00 L566.50,759.00 L568.50,754.00 L573.50,747.00Z M628.50,732.00 L629.00,731.50 L631.50,735.00 L636.50,745.00 L638.50,747.00 L638.00,747.50 L619.50,747.00 L623.50,739.00Z M770.50,732.00 L771.00,731.50 L773.50,734.00 L778.50,744.00 L780.50,746.00 L780.00,747.50 L761.50,747.00 L763.50,745.00 L765.50,740.00 L767.50,738.00Z M816.50,732.00 L818.00,731.50 L820.50,735.00 L826.50,747.00 L828.50,749.00 L833.50,759.00 L835.50,761.00 L834.50,764.00 L832.50,766.00 L826.50,778.00 L820.00,787.50 L786.00,787.50 L785.50,786.00 L787.50,782.00 L789.50,780.00 L791.50,775.00 L796.50,768.00 L798.50,763.00 L800.50,761.00 L802.50,756.00 L807.50,749.00Z M653.50,755.00 L684.00,754.50 L697.00,776.50 L703.00,776.50 L704.50,775.00 L706.50,770.00 L708.50,768.00 L716.00,754.50 L746.00,754.50 L746.50,756.00 L728.00,787.50 L672.00,787.50 L667.50,779.00 L665.50,777.00 L663.50,772.00 L658.50,765.00 L656.50,760.00 L654.50,758.00Z M694.50,755.00 L705.50,755.00 L700.00,763.50Z M510.50,768.00 L511.00,767.50 L512.50,769.00 L514.50,774.00 L516.50,776.00 L525.50,793.00 L530.50,800.00 L540.50,819.00 L545.50,826.00 L547.50,830.00 L547.00,831.50 L474.50,831.00Z M888.50,768.00 L889.00,767.50 L891.50,771.00 L893.50,776.00 L898.50,783.00 L908.50,802.00 L913.50,809.00 L915.50,814.00 L917.50,816.00 L919.50,821.00 L925.50,830.00 L925.00,831.50 L852.50,831.00 L854.50,826.00 L859.50,819.00 L861.50,814.00 L863.50,812.00 L865.50,807.00 L867.50,805.00 L869.50,800.00 L874.50,793.00 L876.50,788.00 L878.50,786.00 L880.50,781.00 L882.50,779.00Z M558.50,772.00 L560.50,772.00 L562.50,777.00 L568.50,786.00 L568.00,787.50 L549.50,787.00 L551.50,785.00 L553.50,780.00 L555.50,778.00Z M839.50,772.00 L841.50,772.00 L844.50,778.00 L846.50,780.00 L848.50,785.00 L850.50,787.00 L850.00,787.50 L831.50,787.00Z M583.50,795.00 L619.00,794.50 L623.50,801.00 L625.50,806.00 L627.50,808.00 L628.50,812.00 L630.50,814.00 L639.50,831.00 L605.00,831.50 L602.50,829.00 L600.50,824.00 L595.50,817.00 L595.50,815.00 L593.50,811.00 L591.50,809.00 L589.50,804.00Z M630.50,795.00 L665.00,794.50 L669.50,803.00 L671.50,805.00 L673.50,810.00 L675.50,812.00 L677.50,817.00 L682.50,824.00 L684.50,829.00 L686.50,831.00 L651.00,831.50 L647.50,827.00 L637.50,808.00 L635.50,806.00 L635.50,804.00 L632.50,800.00Z M675.50,795.00 L724.50,795.00 L703.00,831.50 L697.00,831.50 L695.50,830.00 L693.50,825.00 L691.50,823.00 L689.50,818.00 L687.50,816.00 L686.50,813.00 L684.50,811.00 L682.50,806.00 L680.50,804.00 L678.50,799.00Z M734.50,795.00 L769.00,794.50 L769.50,796.00 L765.50,802.00 L764.50,806.00 L762.50,808.00 L752.50,827.00 L749.00,831.50 L714.00,831.50 L713.50,831.00 L715.50,829.00 L717.50,824.00 L722.50,817.00 L724.50,812.00 L726.50,810.00Z M780.50,795.00 L816.00,794.50 L815.50,797.00 L813.50,799.00 L808.50,809.00 L806.50,811.00 L804.50,815.00 L804.50,817.00 L799.50,824.00 L797.50,829.00 L795.00,831.50 L761.00,831.50 L760.50,830.00 L761.50,828.00 L763.50,826.00 L772.50,808.00 L774.50,806.00 L776.50,801.00Z M0.00,815.50 L106.50,816.00 L107.00,1293.50 L584.00,1293.50 L584.50,1399.00Z M1293.50,816.00 L1293.50,1293.00 L816.00,1293.50 L815.50,1399.00Z M221.50,830.00 L239.00,829.50 L244.00,831.50 L248.00,831.50 L254.00,834.50 L256.00,834.50 L262.00,838.50 L264.00,838.50 L267.00,840.50 L272.00,845.50 L273.00,845.50 L284.50,858.00 L284.50,860.00 L286.50,862.00 L291.50,872.00 L291.50,875.00 L293.50,880.00 L293.50,884.00 L294.50,885.00 L294.50,905.00 L293.50,906.00 L293.50,910.00 L292.50,911.00 L291.50,918.00 L282.50,935.00 L273.00,944.50 L272.00,944.50 L264.00,951.50 L262.00,951.50 L260.00,953.50 L249.00,958.50 L244.00,958.50 L239.00,960.50 L222.00,960.50 L221.00,959.50 L215.00,959.50 L214.00,958.50 L207.00,957.50 L202.00,954.50 L200.00,954.50 L196.00,952.50 L193.00,949.50 L188.00,947.50 L178.50,938.00 L172.50,930.00 L172.50,928.00 L168.50,922.00 L168.50,920.00 L165.50,913.00 L164.50,903.00 L163.50,902.00 L163.50,888.00 L164.50,887.00 L165.50,877.00 L168.50,871.00 L168.50,868.00 L172.50,862.00 L172.50,860.00 L178.50,852.00 L188.00,842.50 L193.00,840.50 L196.00,837.50 L200.00,836.50 L207.00,832.50 L210.00,832.50 L215.00,830.50Z M1162.50,830.00 L1180.00,829.50 L1181.00,830.50 L1185.00,830.50 L1186.00,831.50 L1189.00,831.50 L1190.00,832.50 L1198.00,834.50 L1207.00,840.50 L1209.00,840.50 L1225.50,857.00 L1233.50,873.00 L1234.50,881.00 L1235.50,882.00 L1235.50,889.00 L1236.50,890.00 L1235.50,908.00 L1234.50,909.00 L1233.50,917.00 L1225.50,933.00 L1209.00,949.50 L1207.00,949.50 L1202.00,953.50 L1196.00,956.50 L1193.00,956.50 L1190.00,958.50 L1186.00,958.50 L1185.00,959.50 L1181.00,959.50 L1180.00,960.50 L1163.00,960.50 L1162.00,959.50 L1156.00,959.50 L1155.00,958.50 L1149.00,957.50 L1143.00,954.50 L1141.00,954.50 L1130.00,947.50 L1115.50,932.00 L1112.50,925.00 L1109.50,921.00 L1109.50,918.00 L1106.50,911.00 L1106.50,905.00 L1105.50,904.00 L1105.50,886.00 L1106.50,885.00 L1106.50,879.00 L1109.50,872.00 L1109.50,869.00 L1118.50,854.00 L1130.00,842.50 L1134.00,840.50 L1137.00,837.50 L1141.00,836.50 L1149.00,832.50 L1152.00,832.50 L1156.00,830.50Z M225.50,835.00 L235.00,834.50 L236.00,835.50 L247.00,837.50 L260.00,843.50 L268.00,849.50 L279.50,862.00 L286.50,876.00 L286.50,879.00 L288.50,884.00 L288.50,888.00 L289.50,889.00 L289.50,901.00 L288.50,902.00 L288.50,906.00 L287.50,907.00 L286.50,914.00 L281.50,923.00 L281.50,925.00 L277.50,931.00 L268.00,940.50 L260.00,946.50 L245.00,953.50 L240.00,953.50 L235.00,955.50 L226.00,955.50 L225.00,954.50 L219.00,954.50 L218.00,953.50 L211.00,952.50 L206.00,949.50 L204.00,949.50 L200.00,947.50 L197.00,944.50 L195.00,944.50 L192.00,942.50 L183.50,934.00 L177.50,926.00 L177.50,924.00 L173.50,918.00 L173.50,916.00 L170.50,909.00 L169.50,899.00 L168.50,898.00 L169.50,886.00 L170.50,885.00 L170.50,881.00 L171.50,880.00 L173.50,872.00 L176.50,868.00 L177.50,864.00 L183.50,856.00 L192.00,847.50 L195.00,845.50 L197.00,845.50 L200.00,842.50 L204.00,841.50 L211.00,837.50 L214.00,837.50 L219.00,835.50Z M1166.50,835.00 L1177.00,834.50 L1178.00,835.50 L1185.00,836.50 L1186.00,837.50 L1194.00,839.50 L1203.00,845.50 L1205.00,845.50 L1220.50,861.00 L1222.50,864.00 L1222.50,866.00 L1224.50,868.00 L1224.50,870.00 L1228.50,877.00 L1229.50,885.00 L1230.50,886.00 L1230.50,893.00 L1231.50,894.00 L1228.50,913.00 L1220.50,929.00 L1205.00,944.50 L1203.00,944.50 L1198.00,948.50 L1192.00,951.50 L1189.00,951.50 L1186.00,953.50 L1182.00,953.50 L1177.00,955.50 L1167.00,955.50 L1166.00,954.50 L1160.00,954.50 L1156.00,952.50 L1153.00,952.50 L1141.00,947.50 L1138.00,944.50 L1134.00,942.50 L1123.50,932.00 L1118.50,925.00 L1118.50,923.00 L1115.50,919.00 L1113.50,914.00 L1113.50,911.00 L1111.50,907.00 L1111.50,901.00 L1110.50,900.00 L1111.50,883.00 L1114.50,876.00 L1114.50,873.00 L1117.50,869.00 L1118.50,865.00 L1123.50,858.00 L1134.00,847.50 L1138.00,845.50 L1141.00,842.50 L1145.00,841.50 L1153.00,837.50 L1156.00,837.50 L1160.00,835.50Z M562.50,839.00 L598.00,838.50 L603.50,849.00 L608.50,856.00 L610.50,861.00 L612.50,863.00 L614.50,868.00 L619.50,875.00 L620.50,878.00 L585.00,878.50Z M608.50,839.00 L644.00,838.50 L649.50,847.00 L651.50,852.00 L653.50,854.00 L654.50,857.00 L656.50,859.00 L658.50,864.00 L660.50,866.00 L662.50,871.00 L667.50,878.00 L632.00,878.50 L628.50,874.00 L626.50,869.00 L624.50,867.00 L623.50,864.00 L621.50,862.00 L619.50,857.00 L617.50,855.00 L615.50,850.00 L613.50,848.00Z M654.50,839.00 L690.00,838.50 L697.00,849.50 L703.00,849.50 L710.00,838.50 L745.50,839.00 L743.50,841.00 L741.50,846.00 L739.50,848.00 L730.50,865.00 L728.50,867.00 L727.50,870.00 L722.00,878.50 L678.00,878.50 L672.50,870.00 L671.50,867.00 L669.50,865.00 L667.50,860.00 L665.50,858.00 L663.50,853.00 L658.50,846.00 L656.50,841.00Z M755.50,839.00 L791.00,838.50 L791.50,839.00 L789.50,843.00 L787.50,845.00 L778.50,862.00 L776.50,864.00 L771.50,874.00 L768.00,878.50 L733.00,878.50 L732.50,878.00 L737.50,871.00 L739.50,866.00 L741.50,864.00 L743.50,859.00 L745.50,857.00Z M801.50,839.00 L837.00,838.50 L837.50,839.00 L834.50,845.00 L832.50,847.00 L830.50,852.00 L825.50,859.00 L823.50,864.00 L821.50,866.00 L815.00,878.50 L780.00,878.50 L779.50,877.00 L780.50,875.00 L785.50,868.00 L787.50,863.00 L789.50,861.00 L791.50,856.00 L796.50,849.00Z M589.50,886.00 L625.50,886.00 L697.00,1009.50 L703.00,1009.50 L704.50,1008.00 L706.50,1003.00 L711.50,996.00 L717.50,984.00 L722.50,977.00 L724.50,972.00 L726.50,970.00 L728.50,965.00 L730.50,963.00 L732.50,958.00 L737.50,951.00 L739.50,946.00 L741.50,944.00 L743.50,939.00 L748.50,932.00 L750.50,927.00 L752.50,925.00 L754.50,920.00 L759.50,913.00 L761.50,908.00 L763.50,906.00 L765.50,901.00 L767.50,899.00 L769.50,894.00 L771.50,892.00 L774.50,886.00 L810.50,886.00 L707.00,1064.50 L693.00,1064.50 L691.50,1063.00 L685.50,1051.00 L680.50,1044.00 L674.50,1032.00 L669.50,1025.00 L663.50,1013.00 L658.50,1006.00 L648.50,987.00 L643.50,980.00 L637.50,968.00 L632.50,961.00 L626.50,949.00 L621.50,942.00 L619.50,937.00 L617.50,935.00 L615.50,930.00 L613.50,928.00 L611.50,923.00 L606.50,916.00 L604.50,911.00 L602.50,909.00 L600.50,904.00 L598.50,902.00Z M635.50,886.00 L671.00,885.50 L697.00,929.50 L703.00,929.50 L704.50,928.00 L706.50,923.00 L708.50,921.00 L717.50,904.00 L719.50,902.00 L724.50,892.00 L729.00,885.50 L764.50,886.00 L762.50,888.00 L752.50,907.00 L747.50,914.00 L741.50,926.00 L736.50,933.00 L730.50,945.00 L725.50,952.00 L715.50,971.00 L713.50,973.00 L704.50,990.00 L700.00,996.50 L695.50,990.00 L686.50,973.00 L684.50,971.00 L674.50,952.00 L669.50,945.00 L663.50,933.00 L658.50,926.00 L652.50,914.00 L647.50,907.00 L637.50,888.00Z M682.50,886.00 L717.50,886.00 L715.50,891.00 L713.50,893.00 L704.50,910.00 L700.00,916.50 L695.50,910.00 L686.50,893.00 L684.50,891.00Z M386.50,939.00 L407.00,938.50 L408.00,939.50 L419.00,941.50 L422.00,943.50 L426.00,944.50 L428.00,946.50 L430.00,946.50 L438.00,953.50 L440.00,953.50 L449.50,964.00 L455.50,973.00 L455.50,976.00 L458.50,981.00 L459.50,987.00 L460.50,988.00 L460.50,992.00 L461.50,993.00 L461.50,1015.00 L460.50,1016.00 L458.50,1027.00 L455.50,1032.00 L455.50,1034.00 L449.50,1042.00 L449.50,1044.00 L434.00,1058.50 L420.00,1065.50 L418.00,1065.50 L414.00,1067.50 L410.00,1067.50 L409.00,1068.50 L404.50,1069.00 L404.50,1074.00 L402.50,1078.00 L402.50,1081.00 L397.50,1093.00 L388.50,1105.00 L382.00,1111.50 L370.00,1119.50 L365.00,1120.50 L362.00,1122.50 L360.00,1122.50 L356.00,1124.50 L351.00,1124.50 L350.00,1125.50 L329.00,1125.50 L328.00,1124.50 L324.00,1124.50 L323.00,1123.50 L316.00,1122.50 L300.00,1113.50 L286.50,1100.00 L283.50,1096.00 L278.50,1086.00 L278.50,1084.00 L275.50,1077.00 L275.50,1071.00 L274.50,1070.00 L274.50,1050.00 L275.50,1049.00 L275.50,1043.00 L277.50,1040.00 L278.50,1035.00 L280.50,1032.00 L280.50,1030.00 L286.50,1021.00 L301.00,1006.50 L315.00,998.50 L322.00,997.50 L326.00,995.50 L331.50,995.00 L332.50,986.00 L333.50,985.00 L335.50,977.00 L337.50,975.00 L339.50,969.00 L345.50,961.00 L355.00,951.50 L373.00,941.50Z M993.50,939.00 L1014.00,938.50 L1015.00,939.50 L1019.00,939.50 L1020.00,940.50 L1023.00,940.50 L1024.00,941.50 L1032.00,943.50 L1039.00,948.50 L1042.00,949.50 L1051.50,958.00 L1051.50,959.00 L1057.50,965.00 L1059.50,969.00 L1062.50,972.00 L1062.50,975.00 L1065.50,980.00 L1065.50,982.00 L1067.50,986.00 L1068.50,995.00 L1073.00,995.50 L1074.00,996.50 L1078.00,996.50 L1079.00,997.50 L1084.00,998.50 L1098.00,1005.50 L1113.50,1020.00 L1113.50,1022.00 L1119.50,1030.00 L1119.50,1032.00 L1122.50,1037.00 L1123.50,1044.00 L1125.50,1048.00 L1125.50,1072.00 L1124.50,1073.00 L1123.50,1080.00 L1119.50,1088.00 L1119.50,1091.00 L1113.50,1100.00 L1103.00,1111.50 L1101.00,1111.50 L1094.00,1117.50 L1083.00,1122.50 L1081.00,1122.50 L1077.00,1124.50 L1072.00,1124.50 L1071.00,1125.50 L1050.00,1125.50 L1049.00,1124.50 L1045.00,1124.50 L1044.00,1123.50 L1037.00,1122.50 L1027.00,1117.50 L1018.00,1111.50 L1009.50,1103.00 L1002.50,1093.00 L1002.50,1091.00 L999.50,1087.00 L999.50,1085.00 L997.50,1081.00 L995.50,1069.00 L990.00,1068.50 L982.00,1065.50 L979.00,1065.50 L969.00,1060.50 L966.00,1057.50 L962.00,1055.50 L957.50,1051.00 L957.50,1050.00 L947.50,1039.00 L945.50,1034.00 L943.50,1032.00 L943.50,1030.00 L939.50,1020.00 L939.50,1015.00 L938.50,1014.00 L938.50,994.00 L939.50,993.00 L939.50,988.00 L941.50,984.00 L942.50,978.00 L945.50,974.00 L947.50,968.00 L964.00,950.50 L970.00,946.50 L980.00,941.50 L984.00,941.50 L988.00,939.50Z M390.50,944.00 L403.00,943.50 L408.00,945.50 L412.00,945.50 L426.00,951.50 L433.00,957.50 L436.00,958.50 L444.50,968.00 L450.50,977.00 L450.50,980.00 L453.50,985.00 L454.50,991.00 L455.50,992.00 L455.50,996.00 L456.50,997.00 L456.50,1011.00 L454.50,1016.00 L454.50,1020.00 L450.50,1028.00 L450.50,1030.00 L444.50,1038.00 L444.50,1040.00 L430.00,1053.50 L427.00,1054.50 L425.00,1056.50 L423.00,1056.50 L421.00,1058.50 L419.00,1058.50 L416.00,1060.50 L414.00,1060.50 L410.00,1062.50 L405.50,1062.00 L404.50,1047.00 L402.50,1043.00 L401.50,1036.00 L397.50,1028.00 L393.50,1023.00 L392.50,1020.00 L379.00,1006.50 L374.00,1004.50 L369.00,1000.50 L367.00,1000.50 L357.00,996.50 L354.00,996.50 L353.00,995.50 L342.00,995.50 L341.00,994.50 L337.50,994.00 L337.50,990.00 L338.50,989.00 L340.50,981.00 L342.50,979.00 L344.50,973.00 L350.50,965.00 L360.00,955.50 L362.00,955.50 L367.00,951.50 L377.00,946.50Z M997.50,944.00 L1011.00,943.50 L1012.00,944.50 L1015.00,944.50 L1016.00,945.50 L1019.00,945.50 L1020.00,946.50 L1028.00,948.50 L1035.00,953.50 L1037.00,953.50 L1047.50,963.00 L1047.50,964.00 L1052.50,969.00 L1054.50,973.00 L1057.50,976.00 L1057.50,979.00 L1060.50,984.00 L1063.50,995.00 L1056.00,994.50 L1055.00,995.50 L1047.00,995.50 L1043.00,997.50 L1039.00,997.50 L1028.00,1002.50 L1018.00,1009.50 L1009.50,1018.00 L1002.50,1028.00 L1001.50,1032.00 L999.50,1034.00 L999.50,1036.00 L996.50,1043.00 L996.50,1047.00 L995.50,1048.00 L995.50,1063.00 L994.00,1063.50 L986.00,1060.50 L983.00,1060.50 L973.00,1055.50 L970.00,1052.50 L966.00,1050.50 L952.50,1035.00 L950.50,1030.00 L948.50,1028.00 L948.50,1026.00 L944.50,1016.00 L944.50,1011.00 L943.50,1010.00 L943.50,998.00 L944.50,997.00 L944.50,992.00 L945.50,991.00 L945.50,988.00 L946.50,987.00 L947.50,982.00 L950.50,978.00 L950.50,976.00 L952.50,972.00 L956.50,968.00 L956.50,967.00 L968.00,955.50 L974.00,951.50 L984.00,946.50 L988.00,946.50 L992.00,944.50Z M329.50,1001.00 L330.50,1001.00 L330.50,1011.00 L331.50,1012.00 L332.50,1022.00 L334.50,1025.00 L335.50,1030.00 L339.50,1038.00 L354.00,1055.50 L356.00,1055.50 L362.00,1060.50 L378.00,1067.50 L399.50,1070.00 L397.50,1074.00 L396.50,1080.00 L394.50,1083.00 L394.50,1085.00 L392.50,1089.00 L384.50,1100.00 L378.00,1106.50 L364.00,1115.50 L362.00,1115.50 L352.00,1119.50 L347.00,1119.50 L346.00,1120.50 L333.00,1120.50 L332.00,1119.50 L328.00,1119.50 L327.00,1118.50 L320.00,1117.50 L304.00,1108.50 L291.50,1096.00 L285.50,1087.00 L285.50,1085.00 L283.50,1082.00 L283.50,1080.00 L280.50,1073.00 L280.50,1067.00 L279.50,1066.00 L279.50,1054.00 L280.50,1053.00 L280.50,1047.00 L282.50,1044.00 L284.50,1036.00 L291.50,1025.00 L305.00,1011.50 L311.00,1007.50 L319.00,1003.50 L326.00,1002.50Z M335.50,1001.00 L349.00,1000.50 L350.00,1001.50 L353.00,1001.50 L354.00,1002.50 L365.00,1005.50 L370.00,1009.50 L374.00,1010.50 L388.50,1025.00 L388.50,1027.00 L392.50,1032.00 L396.50,1040.00 L397.50,1047.00 L399.50,1051.00 L399.50,1063.00 L395.00,1064.50 L394.00,1063.50 L382.00,1062.50 L381.00,1061.50 L376.00,1060.50 L366.00,1055.50 L363.00,1052.50 L358.00,1050.50 L353.50,1046.00 L344.50,1034.00 L342.50,1029.00 L340.50,1027.00 L340.50,1024.00 L337.50,1018.00 L337.50,1014.00 L336.50,1013.00Z M1050.50,1001.00 L1063.00,1000.50 L1064.50,1004.00 L1063.50,1005.00 L1063.50,1013.00 L1062.50,1014.00 L1060.50,1024.00 L1057.50,1029.00 L1057.50,1031.00 L1052.50,1037.00 L1052.50,1039.00 L1038.00,1053.50 L1034.00,1054.50 L1029.00,1058.50 L1027.00,1058.50 L1024.00,1060.50 L1021.00,1060.50 L1017.00,1062.50 L1014.00,1062.50 L1013.00,1063.50 L1004.00,1063.50 L1002.00,1064.50 L1000.50,1063.00 L1000.50,1052.00 L1001.50,1051.00 L1001.50,1047.00 L1007.50,1032.00 L1014.50,1022.00 L1023.00,1013.50 L1032.00,1007.50 L1040.00,1003.50Z M1069.50,1002.00 L1074.00,1001.50 L1089.00,1007.50 L1098.00,1013.50 L1108.50,1024.00 L1108.50,1026.00 L1114.50,1034.00 L1114.50,1036.00 L1118.50,1044.00 L1118.50,1048.00 L1120.50,1052.00 L1120.50,1069.00 L1119.50,1070.00 L1118.50,1076.00 L1115.50,1082.00 L1114.50,1087.00 L1105.50,1100.00 L1099.00,1106.50 L1097.00,1106.50 L1093.00,1110.50 L1087.00,1114.50 L1082.00,1115.50 L1079.00,1117.50 L1077.00,1117.50 L1073.00,1119.50 L1068.00,1119.50 L1067.00,1120.50 L1054.00,1120.50 L1053.00,1119.50 L1049.00,1119.50 L1048.00,1118.50 L1041.00,1117.50 L1023.00,1107.50 L1014.50,1099.00 L1007.50,1089.00 L1006.50,1085.00 L1004.50,1083.00 L1004.50,1081.00 L1002.50,1077.00 L1001.50,1070.00 L1007.00,1069.50 L1008.00,1068.50 L1017.00,1068.50 L1018.00,1067.50 L1021.00,1067.50 L1022.00,1066.50 L1033.00,1063.50 L1038.00,1059.50 L1042.00,1058.50 L1056.50,1044.00 L1057.50,1041.00 L1062.50,1035.00 L1062.50,1033.00 L1065.50,1028.00 L1067.50,1018.00 L1068.50,1017.00Z M695.50,1070.00 L704.50,1070.00 L700.00,1076.50Z M683.50,1072.00 L686.00,1071.50 L687.50,1073.00 L688.50,1076.00 L690.50,1078.00 L691.50,1081.00 L697.00,1089.50 L703.00,1089.50 L704.50,1088.00 L706.50,1083.00 L714.00,1071.50 L717.00,1071.50 L720.00,1073.50 L722.00,1073.50 L726.00,1075.50 L730.00,1078.50 L732.00,1078.50 L744.50,1089.00 L745.50,1092.00 L749.50,1096.00 L755.50,1106.00 L755.50,1108.00 L758.50,1115.00 L758.50,1118.00 L759.50,1119.00 L759.50,1124.00 L760.50,1125.00 L760.50,1134.00 L759.50,1135.00 L759.50,1140.00 L758.50,1141.00 L757.50,1148.00 L755.50,1151.00 L755.50,1153.00 L753.50,1157.00 L749.00,1163.50 L741.00,1158.50 L736.00,1153.50 L734.00,1153.50 L730.00,1150.50 L726.00,1148.50 L724.00,1148.50 L721.00,1146.50 L717.00,1146.50 L716.00,1145.50 L712.00,1145.50 L711.00,1144.50 L689.00,1144.50 L688.00,1145.50 L680.00,1146.50 L668.00,1152.50 L664.00,1153.50 L652.00,1164.50 L650.50,1163.00 L646.50,1157.00 L645.50,1153.00 L643.50,1150.00 L643.50,1148.00 L641.50,1144.00 L641.50,1141.00 L640.50,1140.00 L640.50,1135.00 L639.50,1134.00 L639.50,1125.00 L640.50,1124.00 L640.50,1119.00 L641.50,1118.00 L641.50,1115.00 L642.50,1114.00 L643.50,1109.00 L645.50,1106.00 L646.50,1102.00 L650.50,1096.00 L664.00,1081.50 L671.00,1076.50 L674.00,1076.50 L681.00,1072.50Z M494.50,1106.00 L516.00,1105.50 L517.00,1106.50 L528.00,1108.50 L531.00,1110.50 L533.00,1110.50 L540.00,1115.50 L542.00,1115.50 L548.00,1121.50 L550.00,1121.50 L552.50,1124.00 L554.50,1128.00 L559.50,1133.00 L565.50,1144.00 L565.50,1146.00 L568.50,1152.00 L569.50,1163.00 L570.50,1164.00 L570.50,1178.00 L569.50,1179.00 L569.50,1185.00 L568.50,1186.00 L567.50,1193.00 L565.50,1196.00 L565.50,1198.00 L563.50,1202.00 L559.50,1207.00 L559.50,1209.00 L554.50,1214.00 L554.50,1215.00 L543.00,1225.50 L536.00,1228.50 L532.00,1231.50 L530.00,1231.50 L527.00,1233.50 L524.00,1233.50 L523.00,1234.50 L512.00,1235.50 L511.00,1236.50 L498.00,1236.50 L497.00,1235.50 L490.00,1235.50 L489.00,1234.50 L481.00,1232.50 L472.00,1227.50 L470.00,1227.50 L467.00,1224.50 L463.00,1222.50 L450.50,1209.00 L448.50,1204.00 L444.50,1198.00 L444.50,1196.00 L440.50,1186.00 L440.50,1180.00 L439.50,1179.00 L439.50,1163.00 L440.50,1162.00 L440.50,1156.00 L442.50,1152.00 L443.50,1146.00 L446.50,1140.00 L448.50,1138.00 L449.50,1134.00 L464.00,1118.50 L471.00,1113.50 L473.00,1113.50 L480.00,1109.50 L482.00,1109.50 L489.00,1106.50Z M884.50,1106.00 L906.00,1105.50 L907.00,1106.50 L918.00,1108.50 L932.00,1115.50 L938.00,1121.50 L940.00,1121.50 L942.50,1124.00 L944.50,1128.00 L949.50,1133.00 L955.50,1144.00 L955.50,1146.00 L958.50,1152.00 L959.50,1162.00 L960.50,1163.00 L960.50,1179.00 L959.50,1180.00 L959.50,1185.00 L958.50,1186.00 L957.50,1193.00 L955.50,1196.00 L955.50,1198.00 L953.50,1202.00 L949.50,1207.00 L949.50,1209.00 L944.50,1214.00 L944.50,1215.00 L933.00,1225.50 L930.00,1227.50 L926.00,1228.50 L922.00,1231.50 L920.00,1231.50 L917.00,1233.50 L914.00,1233.50 L913.00,1234.50 L902.00,1235.50 L901.00,1236.50 L888.00,1236.50 L887.00,1235.50 L880.00,1235.50 L879.00,1234.50 L871.00,1232.50 L862.00,1227.50 L860.00,1227.50 L857.00,1224.50 L853.00,1222.50 L840.50,1209.00 L840.50,1207.00 L834.50,1198.00 L834.50,1196.00 L831.50,1189.00 L831.50,1186.00 L830.50,1185.00 L830.50,1180.00 L829.50,1179.00 L829.50,1163.00 L830.50,1162.00 L830.50,1157.00 L831.50,1156.00 L833.50,1146.00 L836.50,1140.00 L838.50,1138.00 L838.50,1136.00 L840.50,1133.00 L843.50,1129.00 L858.00,1115.50 L870.00,1109.50 L872.00,1109.50 L879.00,1106.50Z M498.50,1111.00 L512.00,1110.50 L517.00,1112.50 L521.00,1112.50 L527.00,1115.50 L529.00,1115.50 L531.00,1117.50 L538.00,1120.50 L544.00,1126.50 L546.00,1126.50 L558.50,1143.00 L558.50,1145.00 L563.50,1156.00 L563.50,1159.00 L564.50,1160.00 L564.50,1167.00 L565.50,1168.00 L565.50,1174.00 L564.50,1175.00 L564.50,1181.00 L563.50,1182.00 L562.50,1189.00 L560.50,1192.00 L560.50,1194.00 L558.50,1198.00 L554.50,1203.00 L554.50,1205.00 L549.50,1210.00 L549.50,1211.00 L539.00,1220.50 L536.00,1222.50 L532.00,1223.50 L528.00,1226.50 L526.00,1226.50 L520.00,1229.50 L508.00,1230.50 L507.00,1231.50 L494.00,1230.50 L493.00,1229.50 L485.00,1227.50 L478.00,1223.50 L474.00,1222.50 L471.00,1219.50 L467.00,1217.50 L454.50,1204.00 L454.50,1202.00 L449.50,1194.00 L449.50,1192.00 L445.50,1182.00 L445.50,1176.00 L444.50,1175.00 L444.50,1167.00 L445.50,1166.00 L445.50,1160.00 L447.50,1156.00 L447.50,1153.00 L454.50,1138.00 L458.50,1134.00 L458.50,1133.00 L468.00,1123.50 L475.00,1118.50 L477.00,1118.50 L484.00,1114.50 L486.00,1114.50 L493.00,1111.50Z M888.50,1111.00 L902.00,1110.50 L907.00,1112.50 L911.00,1112.50 L917.00,1115.50 L919.00,1115.50 L923.00,1118.50 L925.00,1118.50 L934.00,1126.50 L936.00,1126.50 L948.50,1143.00 L948.50,1145.00 L953.50,1156.00 L954.50,1166.00 L955.50,1167.00 L955.50,1175.00 L954.50,1176.00 L954.50,1181.00 L953.50,1182.00 L952.50,1189.00 L950.50,1192.00 L950.50,1194.00 L948.50,1198.00 L944.50,1203.00 L944.50,1205.00 L939.50,1210.00 L939.50,1211.00 L929.00,1220.50 L926.00,1222.50 L922.00,1223.50 L918.00,1226.50 L916.00,1226.50 L910.00,1229.50 L898.00,1230.50 L897.00,1231.50 L884.00,1230.50 L883.00,1229.50 L875.00,1227.50 L866.00,1222.50 L864.00,1222.50 L861.00,1219.50 L857.00,1217.50 L848.50,1209.00 L845.50,1205.00 L845.50,1203.00 L841.50,1198.00 L836.50,1185.00 L835.50,1176.00 L834.50,1175.00 L834.50,1167.00 L835.50,1166.00 L835.50,1161.00 L836.50,1160.00 L837.50,1153.00 L843.50,1140.00 L848.50,1133.00 L858.00,1123.50 L865.00,1118.50 L867.00,1118.50 L874.00,1114.50 L876.00,1114.50 L883.00,1111.50Z M692.50,1150.00 L707.00,1149.50 L708.00,1150.50 L717.00,1151.50 L720.00,1153.50 L722.00,1153.50 L726.00,1155.50 L730.00,1158.50 L732.00,1158.50 L737.00,1163.50 L740.00,1164.50 L744.50,1169.00 L744.50,1170.00 L732.00,1180.50 L730.00,1180.50 L728.00,1182.50 L717.00,1187.50 L713.00,1187.50 L708.00,1189.50 L692.00,1189.50 L691.00,1188.50 L687.00,1188.50 L686.00,1187.50 L681.00,1186.50 L676.00,1183.50 L671.00,1182.50 L668.00,1180.50 L664.00,1177.50 L656.50,1170.00 L656.50,1169.00 L668.00,1158.50 L672.00,1157.50 L681.00,1152.50Z M651.50,1175.00 L652.00,1174.50 L664.00,1185.50 L670.00,1188.50 L672.00,1188.50 L677.00,1191.50 L679.00,1191.50 L683.00,1193.50 L687.00,1193.50 L688.00,1194.50 L712.00,1194.50 L717.00,1192.50 L721.00,1192.50 L732.00,1187.50 L734.00,1185.50 L736.00,1185.50 L744.00,1178.50 L749.00,1175.50 L755.50,1186.00 L755.50,1189.00 L758.50,1195.00 L759.50,1205.00 L760.50,1206.00 L760.50,1214.00 L759.50,1215.00 L759.50,1220.00 L758.50,1221.00 L758.50,1224.00 L757.50,1225.00 L757.50,1228.00 L755.50,1231.00 L755.50,1233.00 L744.50,1250.00 L735.00,1258.50 L732.00,1260.50 L730.00,1260.50 L725.00,1264.50 L723.00,1264.50 L717.00,1267.50 L709.00,1268.50 L708.00,1269.50 L691.00,1269.50 L690.00,1268.50 L687.00,1268.50 L683.00,1266.50 L680.00,1266.50 L673.00,1262.50 L671.00,1262.50 L665.00,1258.50 L653.50,1247.00 L646.50,1237.00 L641.50,1224.00 L640.50,1215.00 L639.50,1214.00 L639.50,1206.00 L640.50,1205.00 L641.50,1195.00 L642.50,1194.00 L643.50,1189.00 L646.50,1184.00 L646.50,1182.00Z M591.50,1294.00 L808.00,1293.50 L808.50,1398.00 L592.00,1398.50Z" fill="#000000" fill-rule="evenodd" stroke="none"/>
</svg>
